<svg width="64" height="64" viewBox="0 0 64 64" fill="none" xmlns="http://www.w3.org/2000/svg">
<path id="Vector" d="M32 0C14.3547 0 0 14.3547 0 32C0 49.6453 14.3547 64 32 64C49.6453 64 64 49.6453 64 32C64 14.3547 49.6453 0 32 0ZM43.744 36.9947L29.8453 44.6053C28.9787 45.0933 28.024 45.336 27.0693 45.336C26.0747 45.336 25.0773 45.072 24.1707 44.544C22.392 43.504 21.3333 41.656 21.3333 39.5973V24.4C21.3333 22.3413 22.392 20.4933 24.1707 19.4533C25.944 18.416 28.0773 18.3973 29.872 19.408L43.7173 26.9893C45.5733 28.032 46.664 29.8987 46.664 31.9973C46.664 34.096 45.5733 35.9627 43.7413 36.992L43.744 36.9947ZM41.3333 32C41.3333 32.232 41.1787 32.3173 41.1573 32.3333L27.2587 39.9467C27.208 39.9733 27.0533 40.0587 26.8667 39.944C26.6693 39.8293 26.6693 39.6587 26.6693 39.6027V24.4053C26.6693 24.3493 26.6693 24.1787 26.8667 24.064C26.9387 24.0213 27.0053 24.008 27.064 24.008C27.16 24.008 27.2373 24.0507 27.2853 24.0773L41.1307 31.6613C41.1813 31.6907 41.3333 31.776 41.3333 32.008V32Z" fill="white"/>
</svg>
