<svg width="55" height="55" viewBox="0 0 55 55" fill="none" xmlns="http://www.w3.org/2000/svg">
<g id="government-flag 1">
<path id="Vector" d="M50.4062 50.4167H48.1146V32.081C50.6446 32.0719 52.6979 30.014 52.6979 27.4817C52.6979 25.795 51.7767 24.2458 50.2985 23.4438L30.581 12.689C30.3244 12.5492 30.0471 12.4758 29.779 12.375V10.0375L35.8175 6.29063C36.9519 5.53437 36.9267 3.86146 35.7717 3.13958L30.1296 0.492708C29.614 0.169583 29.0181 0 28.4085 0C26.6165 0 25.1612 1.45292 25.1612 3.24729V11.4583H25.1956V12.375C24.9275 12.4781 24.6502 12.5492 24.3935 12.689L4.68062 23.4438C3.20021 24.2481 2.28125 25.7927 2.28125 27.4817C2.28125 30.014 4.33687 32.0719 6.86458 32.081V50.4167H4.57292C3.30792 50.4167 2.28125 51.441 2.28125 52.7083C2.28125 53.9756 3.30792 55 4.57292 55H50.4062C51.6735 55 52.6979 53.9756 52.6979 52.7083C52.6979 51.441 51.6735 50.4167 50.4062 50.4167ZM25.1979 32.0833V50.4167H20.6146V32.0833H25.1979ZM29.7812 32.0833H34.3646V50.4167H29.7812V32.0833ZM38.9479 32.0833H43.5312V50.4167H38.9479V32.0833ZM6.87375 27.4679L26.5912 16.7131C27.1527 16.4038 27.8242 16.4038 28.3856 16.7131L48.0962 27.5L6.86917 27.4702H6.87375V27.4679ZM11.4479 32.081H16.0312V50.4144H11.4479V32.081Z" fill="url(#paint0_linear_19448_2050)"/>
</g>
<defs>
<linearGradient id="paint0_linear_19448_2050" x1="2.28125" y1="55" x2="52.6979" y2="55" gradientUnits="userSpaceOnUse">
<stop stop-color="#FF8A00"/>
<stop offset="1" stop-color="#E50914"/>
</linearGradient>
</defs>
</svg>
