<svg width="47" height="45" viewBox="0 0 47 45" fill="none" xmlns="http://www.w3.org/2000/svg">
<g clip-path="url(#clip0_9169_8374)">
<path d="M23.3959 40.9154C33.6938 40.9154 42.0418 32.6704 42.0418 22.4997C42.0418 12.329 33.6938 4.08398 23.3959 4.08398C13.0981 4.08398 4.75 12.329 4.75 22.4997C4.75 32.6704 13.0981 40.9154 23.3959 40.9154Z" fill="#FEE45A"/>
<path d="M42.0418 22.4997C42.0418 32.6708 33.6944 40.9152 23.3962 40.9152C21.4178 40.9152 19.5111 40.6107 17.7227 40.047C18.8889 40.2736 20.0938 40.3914 21.3261 40.3914C31.6234 40.3914 39.9718 32.1461 39.9718 21.9759C39.9718 13.7596 34.524 6.80044 27.0024 4.42871C35.5746 6.08712 42.0418 13.5467 42.0418 22.4997Z" fill="#FED402"/>
<path d="M23.3962 37.752C31.9252 37.752 38.8393 30.9232 38.8393 22.4995C38.8393 14.0758 31.9252 7.24707 23.3962 7.24707C14.8672 7.24707 7.95312 14.0758 7.95312 22.4995C7.95312 30.9232 14.8672 37.752 23.3962 37.752Z" fill="#FAF7F7"/>
<path d="M38.8395 22.4992C38.8395 30.923 31.9254 37.7518 23.3963 37.7518C21.0289 37.7518 18.7863 37.2261 16.7812 36.2854C18.3256 36.7966 19.9782 37.0739 21.696 37.0739C30.225 37.0739 37.1391 30.2451 37.1391 21.8213C37.1391 15.7348 33.5293 10.4811 28.3091 8.03418C34.4295 10.0616 38.8395 15.772 38.8395 22.4992Z" fill="#EDE1DD"/>
<path d="M15.6376 14.2656C15.4656 14.2657 15.3647 14.0723 15.4665 13.9353C17.2571 11.5254 20.1455 9.96094 23.404 9.96094C26.6534 9.96094 29.5348 11.5166 31.3265 13.915C31.4286 14.0518 31.3282 14.2455 31.1562 14.2458L15.6376 14.2656Z" fill="#FEE45A"/>
<path d="M15.6376 30.7344C15.4656 30.7341 15.3647 30.9276 15.4665 31.0647C17.2571 33.4745 20.1455 35.039 23.404 35.039C26.6534 35.039 29.5348 33.4833 31.3265 31.0849C31.4286 30.9481 31.3282 30.7544 31.1562 30.7542L15.6376 30.7344Z" fill="#FEE45A"/>
<path d="M31.3262 31.0845C29.5341 33.4825 26.6528 35.0385 23.4036 35.0385C22.1107 35.0385 20.8765 34.792 19.7461 34.3443C20.2637 34.4277 20.7949 34.4712 21.3372 34.4712C24.4791 34.4712 27.2778 33.0166 29.079 30.751L31.1556 30.7537C31.328 30.7538 31.4281 30.9477 31.3262 31.0845Z" fill="#FED402"/>
<path d="M31.3262 13.915C29.5341 11.517 26.6528 9.96094 23.4036 9.96094C22.1107 9.96094 20.8765 10.2075 19.7461 10.6552C20.2637 10.5718 20.7949 10.5283 21.3372 10.5283C24.4791 10.5283 27.2778 11.9829 29.079 14.2485L31.1556 14.2458C31.328 14.2458 31.4281 14.0518 31.3262 13.915Z" fill="#FED402"/>
<path d="M44.1891 22.8616C44.0839 22.6317 44.0839 22.3682 44.1891 22.1383L46.0975 17.97C46.3635 17.3889 45.9333 16.7305 45.2876 16.7305H1.50508C0.859375 16.7305 0.429201 17.3889 0.69519 17.97L2.60356 22.1383C2.70884 22.3682 2.70884 22.6317 2.60356 22.8616L0.695279 27.0299C0.42929 27.611 0.859464 28.2695 1.50517 28.2695H45.2877C45.9334 28.2695 46.3636 27.611 46.0976 27.0299L44.1891 22.8616Z" fill="#FEA613"/>
<path d="M14.1723 19.5952C14.17 19.5889 14.1675 19.5828 14.1649 19.5766C14.0388 19.2738 13.7431 19.0781 13.4107 19.0781C13.0789 19.0784 12.7832 19.2746 12.6575 19.578C12.6554 19.5831 12.6533 19.5883 12.6513 19.5935L10.5668 24.9991C10.4313 25.3502 10.6099 25.7432 10.9653 25.877C11.3207 26.0106 11.7188 25.8345 11.8542 25.4833L12.2044 24.5752H14.6026L14.9489 25.4814C15.0529 25.7538 15.3151 25.9216 15.5933 25.9217C16.067 25.9218 16.4048 25.4382 16.2377 25.0011L14.1723 19.5952ZM12.7291 23.2146L13.4091 21.4513L14.0828 23.2146H12.7291Z" fill="#E57505"/>
<path d="M34.0593 20.4887C34.4398 20.4887 34.7482 20.184 34.7482 19.8083C34.7482 19.4326 34.4398 19.1279 34.0593 19.1279H31.7416C31.3611 19.1279 31.0527 19.4326 31.0527 19.8083V25.241C31.0527 25.6167 31.3611 25.9213 31.7416 25.9213H34.0593C34.4398 25.9213 34.7482 25.6167 34.7482 25.241C34.7482 24.8653 34.4398 24.5606 34.0593 24.5606H32.4305V23.2049H33.8884C34.2688 23.2049 34.5772 22.9003 34.5772 22.5246C34.5772 22.1488 34.2689 21.8442 33.8884 21.8442H32.4305V20.4885H34.0593V20.4887Z" fill="#E57505"/>
<path d="M38.5408 19.2402H37.015C36.8322 19.2402 36.6568 19.312 36.5275 19.4399C36.3983 19.5678 36.3258 19.7411 36.3262 19.9218L36.337 25.2435C36.3377 25.424 36.4109 25.5968 36.5406 25.7239C36.6696 25.8505 36.8441 25.9214 37.0259 25.9214H37.0285C37.0746 25.9212 38.1626 25.9171 38.5974 25.9096C40.2243 25.8816 41.4051 24.4816 41.4051 22.5809C41.4051 20.5827 40.254 19.2402 38.5408 19.2402ZM38.5733 24.5492C38.3753 24.5526 38.0281 24.5553 37.7124 24.5573C37.7103 23.9294 37.7061 21.2542 37.7051 20.6009H38.5407C38.789 20.6009 40.0273 20.6963 40.0273 22.5809C40.0274 23.5481 39.5778 24.5319 38.5733 24.5492Z" fill="#E57505"/>
<path d="M21.4688 21.9047C20.7861 21.656 20.1505 21.3851 19.9563 21.3011C19.8027 21.1796 19.8078 21.01 19.8181 20.9393C19.8323 20.8416 19.9042 20.6028 20.2632 20.4959C21.0475 20.2627 21.7732 20.8279 21.7955 20.8456C22.0866 21.0841 22.5188 21.0463 22.7626 20.7597C23.0074 20.4722 22.9698 20.043 22.6786 19.8012C22.6262 19.7578 21.3797 18.7427 19.866 19.1931C19.1016 19.4206 18.5607 20.0156 18.4545 20.7459C18.3549 21.4311 18.6556 22.0903 19.2393 22.4661C19.2698 22.4857 19.3016 22.5029 19.3348 22.5176C19.3669 22.5317 20.1313 22.8677 20.9921 23.1814C21.2367 23.2705 21.7975 23.5221 21.7231 23.9334C21.6674 24.2418 21.2876 24.5608 20.7484 24.5608C20.1952 24.5608 19.6629 24.3406 19.3243 23.9716C19.0688 23.6932 18.633 23.6722 18.3513 23.9244C18.0694 24.1768 18.0479 24.607 18.3034 24.8854C18.8989 25.5342 19.8129 25.9216 20.7484 25.9216C21.9159 25.9216 22.8961 25.186 23.0793 24.1725C23.2171 23.41 22.8664 22.4138 21.4688 21.9047Z" fill="#E57505"/>
<path d="M27.9316 21.9046C27.2489 21.6559 26.6133 21.385 26.4191 21.3011C26.2655 21.1795 26.2706 21.0099 26.2809 20.9392C26.2951 20.8415 26.3669 20.6027 26.7259 20.4959C27.5096 20.2626 28.2359 20.828 28.2583 20.8456C28.5494 21.0842 28.9816 21.0463 29.2254 20.7598C29.4702 20.4722 29.4326 20.043 29.1414 19.8012C29.0891 19.7579 27.8431 18.7427 26.3287 19.1931C25.5643 19.4206 25.0234 20.0156 24.9173 20.746C24.8177 21.4312 25.1184 22.0903 25.7021 22.4662C25.7326 22.4858 25.7644 22.5029 25.7976 22.5176C25.8297 22.5317 26.5941 22.8677 27.4549 23.1814C27.6995 23.2705 28.2603 23.5222 28.1859 23.9334C28.1301 24.2419 27.7503 24.561 27.2111 24.561C26.6581 24.561 26.1257 24.3407 25.7871 23.9717C25.5316 23.6933 25.0958 23.6723 24.8142 23.9245C24.5323 24.1769 24.5108 24.6071 24.7663 24.8855C25.3617 25.5343 26.2758 25.9217 27.2112 25.9217C28.3787 25.9217 29.359 25.1861 29.5422 24.1726C29.6799 23.4099 29.3292 22.4138 27.9316 21.9046Z" fill="#E57505"/>
<path d="M7.62319 19.0781H6.07745C5.86147 19.0781 5.66489 19.1754 5.53426 19.3411C5.44207 19.458 5.38867 19.6099 5.38867 19.7584V25.2411C5.38867 25.6168 5.69702 25.9215 6.07754 25.9215C6.45806 25.9215 6.7664 25.6168 6.7664 25.2411V23.5362C7.07876 23.5346 7.42412 23.5331 7.62328 23.5331C8.88381 23.5331 9.90933 22.5339 9.90933 21.3055C9.90924 20.0774 8.88364 19.0781 7.62319 19.0781ZM7.62319 22.1726C7.42546 22.1726 7.08427 22.1741 6.77326 22.1756C6.77165 21.8579 6.77014 21.5064 6.77014 21.3056C6.77014 21.1355 6.76925 20.7713 6.76836 20.4388H7.62319C8.11557 20.4388 8.53159 20.8358 8.53159 21.3056C8.53151 21.7756 8.11557 22.1726 7.62319 22.1726Z" fill="#E57505"/>
<path d="M46.0985 27.0293C46.3646 27.6112 45.9342 28.2691 45.2882 28.2691H43.0897C43.7356 28.2691 44.166 27.6112 43.8999 27.0293L41.9913 22.8614C41.8857 22.6312 41.8857 22.3684 41.9913 22.1382L43.8999 17.9703C44.166 17.3884 43.7356 16.7305 43.0897 16.7305H45.2882C45.9342 16.7305 46.3646 17.3884 46.0985 17.9703L44.1898 22.1382C44.0843 22.3684 44.0843 22.6312 44.1898 22.8614L46.0985 27.0293Z" fill="#FB8801"/>
</g>
<defs>
<clipPath id="clip0_9169_8374">
<rect width="45.5625" height="45" fill="white" transform="translate(0.615234)"/>
</clipPath>
</defs>
</svg>
