<svg width="22" height="23" viewBox="0 0 22 23" fill="none" xmlns="http://www.w3.org/2000/svg">
<g id="Layer_1" clip-path="url(#clip0_5630_14768)">
<g id="Group 26086191">
<path id="Vector" d="M19.6916 7.52361H15.5213C15.7335 6.95294 15.8506 6.34569 15.8506 5.72381C15.8506 2.8412 13.5094 0.5 10.6268 0.5C7.74415 0.5 5.41026 2.8412 5.41026 5.72381C5.41026 6.34569 5.53464 6.94563 5.73949 7.52361H4.15918C2.67398 7.52361 1.4668 8.73079 1.4668 10.216V19.8149C1.4668 21.3001 2.67398 22.5073 4.15918 22.5073H19.6916C20.0501 22.5073 20.3354 22.222 20.3354 21.8635V8.16744C20.3354 7.80894 20.0501 7.52361 19.6916 7.52361ZM10.6341 1.78766C12.7997 1.78766 14.5702 3.55088 14.5702 5.72381C14.5702 6.35301 14.4239 6.96758 14.1386 7.52361H12.2217C12.3168 7.34802 12.3827 7.16511 12.4192 6.96026C12.5583 6.1262 12.112 5.37995 11.2999 5.0873C10.9414 4.96292 10.4951 4.78733 10.2756 4.61906C10.2609 4.60442 10.2463 4.52394 10.2756 4.42152C10.2902 4.36299 10.3414 4.26056 10.4512 4.23129C10.8097 4.12155 11.0365 4.28982 11.073 4.31909C11.3364 4.55321 11.7315 4.53126 11.9729 4.27519C12.2144 4.01181 12.1998 3.60209 11.9364 3.36797C11.8047 3.2436 11.5706 3.09727 11.2633 3.00216V2.98021C11.2633 2.62172 10.9779 2.33638 10.6194 2.33638C10.2609 2.33638 9.97561 2.62172 9.97561 2.98021V3.05338C9.4781 3.25091 9.10497 3.68257 9.00255 4.23861C8.90012 4.78733 9.08303 5.32873 9.48542 5.64333C9.85855 5.93598 10.378 6.14084 10.8828 6.31643C11.1023 6.39691 11.1974 6.54323 11.1608 6.7554C11.1316 6.92368 10.9853 7.20901 10.6194 7.20901C10.2244 7.20901 10.1293 7.19438 9.84392 7.01147C9.54395 6.81393 9.14887 6.90173 8.95133 7.19438C8.88549 7.29681 8.86354 7.41387 8.85622 7.52361H7.15153C6.8662 6.96758 6.71987 6.35301 6.71987 5.72381C6.71987 3.5582 8.48309 1.78766 10.656 1.78766H10.6341ZM2.75446 19.8076V10.2087C2.75446 9.44779 3.36171 8.83322 4.11528 8.81127V21.205C3.36171 21.1831 2.75446 20.5685 2.75446 19.8076ZM5.40295 21.2123V8.81127H19.0478V11.8622H14.6214C13.7654 11.8622 13.0777 12.5572 13.0777 13.4059V16.6104C13.0777 17.4664 13.7727 18.1541 14.6214 18.1541H19.0478V21.205H5.40295V21.2123ZM19.0405 16.8738H14.6141C14.4751 16.8738 14.3581 16.7567 14.3581 16.6177V13.4132C14.3581 13.2742 14.4751 13.1571 14.6141 13.1571H19.0405V16.8738Z" fill="#EE224A"/>
<path id="Vector_2" d="M16.0115 15.6529C16.37 15.6529 16.6553 15.3676 16.6553 15.0091C16.6553 14.6506 16.37 14.3652 16.0115 14.3652C15.653 14.3652 15.3677 14.6506 15.3677 15.0091C15.3677 15.3676 15.653 15.6529 16.0115 15.6529Z" fill="#EE224A"/>
</g>
</g>
<defs>
<clipPath id="clip0_5630_14768">
<rect width="22" height="22" fill="white" transform="translate(0 0.5)"/>
</clipPath>
</defs>
</svg>
