<?xml version="1.0" standalone="no"?>
<!DOCTYPE svg PUBLIC "-//W3C//DTD SVG 20010904//EN"
 "http://www.w3.org/TR/2001/REC-SVG-20010904/DTD/svg10.dtd">
<svg version="1.0" xmlns="http://www.w3.org/2000/svg"
 width="213.000000pt" height="213.000000pt" viewBox="0 0 213.000000 213.000000"
 preserveAspectRatio="xMidYMid meet">

<g transform="translate(0.000000,213.000000) scale(0.100000,-0.100000)"
fill="#000000" stroke="none">
<path d="M489 2101 c-25 -26 -29 -37 -29 -85 l0 -56 -56 0 c-48 0 -59 -4 -85
-29 -25 -25 -29 -37 -29 -84 l0 -55 -62 -4 c-51 -4 -65 -9 -85 -32 l-23 -27 0
-718 0 -718 26 -27 27 -26 547 0 c539 0 548 0 574 21 23 18 26 27 26 85 l0 64
59 0 c86 0 113 25 119 108 l4 62 44 0 c87 0 124 37 124 125 0 39 3 45 20 45
19 0 40 18 78 64 10 13 24 15 60 10 45 -5 49 -4 87 35 38 40 39 42 29 80 -12
45 -11 49 34 80 30 21 32 26 32 81 0 54 -3 61 -27 77 -45 27 -53 42 -42 71 14
38 4 65 -37 102 -33 29 -40 31 -84 25 -46 -6 -48 -6 -68 29 -17 28 -28 36 -50
36 -29 0 -29 0 -36 80 -8 98 -34 185 -74 247 -17 27 -84 101 -149 165 -128
126 -194 167 -302 188 -30 5 -182 10 -338 10 l-285 0 -29 -29z m599 -50 c86
-44 122 -116 122 -243 0 -75 2 -81 29 -109 28 -28 34 -29 118 -29 103 0 152
-18 200 -73 30 -34 53 -90 53 -130 0 -9 -12 -36 -26 -58 -25 -40 -26 -41 -73
-34 -46 6 -48 5 -89 -38 -39 -44 -40 -47 -30 -83 9 -34 8 -40 -13 -56 -12 -11
-29 -22 -36 -27 -17 -9 -28 -79 -19 -115 3 -14 19 -32 35 -41 35 -18 45 -43
32 -78 -8 -21 -5 -32 20 -65 35 -47 55 -56 109 -47 37 6 40 5 65 -35 21 -33
25 -51 23 -93 l-3 -52 -540 0 -540 0 -5 539 c-5 503 -6 540 -23 550 -14 8 -20
8 -27 -4 -6 -9 -10 -228 -10 -552 l0 -537 24 -28 24 -28 467 -3 466 -3 -3 -52
-3 -52 -431 -3 c-368 -2 -434 -4 -444 -17 -10 -12 -10 -18 0 -30 11 -13 63
-15 361 -15 l349 0 0 -42 c0 -24 -4 -49 -8 -56 -7 -10 -122 -12 -543 -10
l-534 3 0 710 0 710 53 3 52 3 0 -631 0 -632 30 -29 c27 -28 34 -30 92 -27 60
3 63 4 63 28 0 23 -4 25 -60 30 l-60 5 0 710 0 710 53 3 52 3 0 -34 c0 -42 23
-66 45 -47 12 10 15 37 15 125 0 61 3 115 7 118 3 4 123 7 265 7 235 0 262 -2
296 -19z m189 -44 c61 -39 240 -223 273 -280 37 -64 38 -74 4 -48 -39 31 -118
51 -199 51 -42 0 -76 5 -83 12 -7 7 -12 45 -12 99 0 91 -12 133 -50 182 l-22
27 26 -10 c14 -5 42 -20 63 -33z m443 -659 c25 -29 33 -33 84 -34 75 -2 86
-13 79 -75 -6 -47 -4 -51 31 -83 45 -43 46 -71 4 -107 -30 -24 -33 -32 -33
-82 0 -71 -16 -90 -66 -82 -45 8 -95 -15 -111 -50 -17 -37 -62 -34 -84 5 -21
34 -65 53 -109 44 -42 -7 -70 23 -62 66 8 38 -17 94 -49 109 -36 16 -33 66 5
86 36 18 56 70 42 107 -14 38 22 70 70 62 43 -7 94 16 104 46 11 33 63 27 95
-12z"/>
<path d="M1185 1546 c-16 -8 -59 -44 -95 -80 l-64 -66 -31 30 c-61 59 -135 57
-184 -6 -19 -23 -22 -38 -18 -73 4 -41 13 -53 95 -133 86 -85 91 -88 136 -88
41 0 52 5 91 41 46 43 57 75 29 86 -10 3 -29 -8 -54 -32 -57 -56 -78 -52 -166
36 -81 81 -93 114 -52 143 33 23 44 20 92 -24 24 -22 51 -40 61 -40 10 0 56
36 101 80 84 83 109 94 137 62 28 -31 20 -63 -24 -108 -27 -28 -40 -48 -36
-58 11 -29 44 -17 91 34 37 40 46 56 46 85 0 51 -26 94 -65 111 -42 17 -52 17
-90 0z"/>
<path d="M1647 1203 c-16 -15 -5 -34 30 -50 23 -11 39 -27 43 -42 9 -41 35
-49 65 -21 29 27 32 48 8 57 -10 4 -33 19 -51 35 -31 26 -79 37 -95 21z"/>
<path d="M1548 1103 c-21 -22 -25 -32 -17 -45 6 -10 15 -18 21 -18 7 0 21 -9
33 -20 32 -30 81 -42 100 -24 20 20 10 38 -27 50 -17 5 -35 17 -40 27 -4 9
-12 25 -16 34 -13 26 -26 25 -54 -4z"/>
</g>
</svg>
