<?xml version="1.0" encoding="UTF-8"?>
<!DOCTYPE svg PUBLIC "-//W3C//DTD SVG 1.1//EN" "http://www.w3.org/Graphics/SVG/1.1/DTD/svg11.dtd">
<svg xmlns="http://www.w3.org/2000/svg" version="1.1" width="512px" height="512px" style="shape-rendering:geometricPrecision; text-rendering:geometricPrecision; image-rendering:optimizeQuality; fill-rule:evenodd; clip-rule:evenodd" xmlns:xlink="http://www.w3.org/1999/xlink">
<g><path style="opacity:1" fill="#f3d55a" d="M 506.5,30.5 C 493.833,43.8333 480.833,56.8333 467.5,69.5C 326.167,69.5 184.833,69.5 43.5,69.5C 30.1667,56.8333 17.1667,43.8333 4.5,30.5C 6.68484,28.2384 9.35151,26.7384 12.5,26C 174.5,25.3333 336.5,25.3333 498.5,26C 501.648,26.7384 504.315,28.2384 506.5,30.5 Z"/></g>
<g><path style="opacity:1" fill="#f0c41c" d="M 4.5,30.5 C 17.1667,43.8333 30.1667,56.8333 43.5,69.5C 43.5,69.8333 43.5,70.1667 43.5,70.5C 43.5,168.167 43.5,265.833 43.5,363.5C 43.5,371.5 43.5,379.5 43.5,387.5C 131.833,387.5 220.167,387.5 308.5,387.5C 308.5,387.833 308.5,388.167 308.5,388.5C 219.833,388.333 131.166,388.5 42.5,389C 29.6314,401.702 16.9647,414.535 4.5,427.5C 2.58793,425.343 0.921263,423.009 -0.5,420.5C -0.5,292.833 -0.5,165.167 -0.5,37.5C 0.921263,34.9906 2.58793,32.6572 4.5,30.5 Z"/></g>
<g><path style="opacity:1" fill="#f0c419" d="M 506.5,30.5 C 508.412,32.6572 510.079,34.9906 511.5,37.5C 511.5,162.833 511.5,288.167 511.5,413.5C 509.636,417.705 506.97,421.372 503.5,424.5C 491.833,412.167 479.833,400.167 467.5,388.5C 467.5,282.167 467.5,175.833 467.5,69.5C 480.833,56.8333 493.833,43.8333 506.5,30.5 Z"/></g>
<g><path style="opacity:1" fill="#fefefe" d="M 43.5,70.5 C 176.167,70.5 308.833,70.5 441.5,70.5C 388.913,74.516 337.246,84.016 286.5,99C 273.272,103.076 260.272,107.742 247.5,113C 228.995,113.168 210.662,113.668 192.5,114.5C 185.853,116.319 183.686,120.652 186,127.5C 187.451,129.464 189.284,130.797 191.5,131.5C 195.312,132.324 199.312,132.824 203.5,133C 147.703,160.463 104.537,201.296 74,255.5C 56.9715,289.621 46.8048,325.621 43.5,363.5C 43.5,265.833 43.5,168.167 43.5,70.5 Z"/></g>
<g><path style="opacity:1" fill="#ebeff0" d="M 441.5,70.5 C 449.833,70.5 458.167,70.5 466.5,70.5C 466.5,176.167 466.5,281.833 466.5,387.5C 440.5,387.5 414.5,387.5 388.5,387.5C 388.172,376.986 388.506,366.653 389.5,356.5C 394.114,357.55 398.78,357.717 403.5,357C 408.824,354.52 411.157,350.354 410.5,344.5C 408.852,336.909 408.352,329.242 409,321.5C 410.061,318.438 411.894,315.938 414.5,314C 420.644,309.853 426.144,305.02 431,299.5C 431.667,296.833 431.667,294.167 431,291.5C 424.356,284.524 417.356,277.857 410,271.5C 408.993,268.425 408.493,265.258 408.5,262C 409.61,254.854 410.11,247.687 410,240.5C 407.787,234.911 403.62,232.578 397.5,233.5C 389.512,234.444 381.512,234.611 373.5,234C 366.524,227.356 359.857,220.356 353.5,213C 349.225,210.716 345.225,211.05 341.5,214C 336.954,218.877 332.787,224.044 329,229.5C 327.269,231.617 325.102,233.117 322.5,234C 314.827,234.478 307.16,234.311 299.5,233.5C 294.107,232.402 289.94,234.069 287,238.5C 287.117,248.83 287.117,259.163 287,269.5C 286.333,270.833 285.667,272.167 285,273.5C 280.786,277.382 276.286,280.882 271.5,284C 268.96,286.205 266.793,288.705 265,291.5C 264.348,294.594 264.682,297.594 266,300.5C 273.356,306.857 280.356,313.524 287,320.5C 287.429,328.004 287.262,335.504 286.5,343C 284.887,349.775 287.221,354.442 293.5,357C 298.511,357.388 303.511,357.222 308.5,356.5C 308.5,366.833 308.5,377.167 308.5,387.5C 220.167,387.5 131.833,387.5 43.5,387.5C 43.5,379.5 43.5,371.5 43.5,363.5C 46.8048,325.621 56.9715,289.621 74,255.5C 104.537,201.296 147.703,160.463 203.5,133C 199.312,132.824 195.312,132.324 191.5,131.5C 234.835,131.667 278.168,131.5 321.5,131C 325.327,127.692 326.494,123.526 325,118.5C 323.786,116.951 322.286,115.785 320.5,115C 277.835,114.5 235.168,114.333 192.5,114.5C 210.662,113.668 228.995,113.168 247.5,113C 260.272,107.742 273.272,103.076 286.5,99C 337.246,84.016 388.913,74.516 441.5,70.5 Z"/></g>
<g><path style="opacity:1" fill="#f1e9ca" d="M 43.5,70.5 C 43.5,70.1667 43.5,69.8333 43.5,69.5C 184.833,69.5 326.167,69.5 467.5,69.5C 467.5,175.833 467.5,282.167 467.5,388.5C 440.995,388.831 414.661,388.498 388.5,387.5C 414.5,387.5 440.5,387.5 466.5,387.5C 466.5,281.833 466.5,176.167 466.5,70.5C 458.167,70.5 449.833,70.5 441.5,70.5C 308.833,70.5 176.167,70.5 43.5,70.5 Z"/></g>
<g><path style="opacity:1" fill="#bdc3c7" d="M 192.5,114.5 C 235.168,114.333 277.835,114.5 320.5,115C 322.286,115.785 323.786,116.951 325,118.5C 326.494,123.526 325.327,127.692 321.5,131C 278.168,131.5 234.835,131.667 191.5,131.5C 189.284,130.797 187.451,129.464 186,127.5C 183.686,120.652 185.853,116.319 192.5,114.5 Z"/></g>
<g><path style="opacity:1" fill="#bec4c8" d="M 163.5,158.5 C 224.501,158.333 285.501,158.5 346.5,159C 352.574,161.899 354.074,166.399 351,172.5C 349.421,174.041 347.587,175.208 345.5,176C 285.167,176.667 224.833,176.667 164.5,176C 156.932,170.537 156.598,164.703 163.5,158.5 Z"/></g>
<g><path style="opacity:1" fill="#96a5a5" d="M 156.5,211.5 C 168.427,210.1 179.76,211.933 190.5,217C 197.647,222.461 200.481,229.628 199,238.5C 196.482,248.375 191.316,256.541 183.5,263C 198.993,270.28 215.326,273.947 232.5,274C 237.609,277.366 238.776,281.866 236,287.5C 235.097,288.701 233.931,289.535 232.5,290C 209.242,291.458 187.575,286.291 167.5,274.5C 146.935,285.975 124.935,291.142 101.5,290C 94.9105,284.538 94.9105,279.205 101.5,274C 118.318,273.304 134.484,269.804 150,263.5C 145.421,258.186 141.421,252.186 138,245.5C 131.891,227.379 138.058,216.046 156.5,211.5 Z"/></g>
<g><path style="opacity:1" fill="#fa7b76" d="M 389.5,356.5 C 384.5,355.167 379.5,355.167 374.5,356.5C 371.357,357.134 368.857,358.8 367,361.5C 363.547,366.621 359.714,371.454 355.5,376C 351.402,378.886 347.069,379.219 342.5,377C 336.5,370.333 330.5,363.667 324.5,357C 319.177,356.501 313.844,356.334 308.5,356.5C 303.511,357.222 298.511,357.388 293.5,357C 287.221,354.442 284.887,349.775 286.5,343C 287.262,335.504 287.429,328.004 287,320.5C 280.356,313.524 273.356,306.857 266,300.5C 264.682,297.594 264.348,294.594 265,291.5C 266.793,288.705 268.96,286.205 271.5,284C 276.286,280.882 280.786,277.382 285,273.5C 285.667,272.167 286.333,270.833 287,269.5C 287.117,259.163 287.117,248.83 287,238.5C 289.94,234.069 294.107,232.402 299.5,233.5C 307.16,234.311 314.827,234.478 322.5,234C 325.102,233.117 327.269,231.617 329,229.5C 332.787,224.044 336.954,218.877 341.5,214C 345.225,211.05 349.225,210.716 353.5,213C 359.857,220.356 366.524,227.356 373.5,234C 381.512,234.611 389.512,234.444 397.5,233.5C 403.62,232.578 407.787,234.911 410,240.5C 410.11,247.687 409.61,254.854 408.5,262C 408.493,265.258 408.993,268.425 410,271.5C 417.356,277.857 424.356,284.524 431,291.5C 431.667,294.167 431.667,296.833 431,299.5C 426.144,305.02 420.644,309.853 414.5,314C 411.894,315.938 410.061,318.438 409,321.5C 408.352,329.242 408.852,336.909 410.5,344.5C 411.157,350.354 408.824,354.52 403.5,357C 398.78,357.717 394.114,357.55 389.5,356.5 Z"/></g>
<g><path style="opacity:1" fill="#eaeeef" d="M 157.5,229.5 C 186.011,227.183 189.178,235.183 167,253.5C 161.16,248.833 156.494,243.167 153,236.5C 152.333,235.167 152.333,233.833 153,232.5C 154.652,231.601 156.152,230.601 157.5,229.5 Z"/></g>
<g><path style="opacity:1" fill="#df4d60" d="M 340.5,264.5 C 360.761,262.368 373.594,271.035 379,290.5C 379.017,314.816 366.851,326.649 342.5,326C 323.604,320.05 315.438,307.217 318,287.5C 321.684,275.984 329.184,268.317 340.5,264.5 Z"/></g>
<g><path style="opacity:1" fill="#96a6a6" d="M 102.5,308.5 C 145.501,308.333 188.501,308.5 231.5,309C 237.542,311.837 239.042,316.337 236,322.5C 234.786,324.049 233.286,325.215 231.5,326C 188.833,326.667 146.167,326.667 103.5,326C 94.6508,320.605 94.3175,314.771 102.5,308.5 Z"/></g>
<g><path style="opacity:0.994" fill="#fe5364" d="M 308.5,356.5 C 313.844,356.334 319.177,356.501 324.5,357C 330.5,363.667 336.5,370.333 342.5,377C 347.069,379.219 351.402,378.886 355.5,376C 359.714,371.454 363.547,366.621 367,361.5C 368.857,358.8 371.357,357.134 374.5,356.5C 378.833,356.5 383.167,356.5 387.5,356.5C 387.5,366.833 387.5,377.167 387.5,387.5C 387.171,402.676 387.504,417.676 388.5,432.5C 388.667,446.171 388.5,459.837 388,473.5C 386.673,477.59 383.84,479.923 379.5,480.5C 369.053,476.11 358.72,471.444 348.5,466.5C 338.053,470.89 327.72,475.556 317.5,480.5C 312.208,479.707 309.041,476.707 308,471.5C 307.5,458.504 307.333,445.504 307.5,432.5C 308.496,418.01 308.829,403.343 308.5,388.5C 308.5,388.167 308.5,387.833 308.5,387.5C 308.5,377.167 308.5,366.833 308.5,356.5 Z"/></g>
<g><path style="opacity:1" fill="#f4acb4" d="M 374.5,356.5 C 379.5,355.167 384.5,355.167 389.5,356.5C 388.506,366.653 388.172,376.986 388.5,387.5C 388.167,387.5 387.833,387.5 387.5,387.5C 387.5,377.167 387.5,366.833 387.5,356.5C 383.167,356.5 378.833,356.5 374.5,356.5 Z"/></g>
<g><path style="opacity:1" fill="#f29c1f" d="M 308.5,388.5 C 308.829,403.343 308.496,418.01 307.5,432.5C 209.166,432.667 110.833,432.5 12.5,432C 9.31561,431.246 6.64894,429.746 4.5,427.5C 16.9647,414.535 29.6314,401.702 42.5,389C 131.166,388.5 219.833,388.333 308.5,388.5 Z"/></g>
<g><path style="opacity:1" fill="#f29c20" d="M 387.5,387.5 C 387.833,387.5 388.167,387.5 388.5,387.5C 414.661,388.498 440.995,388.831 467.5,388.5C 479.833,400.167 491.833,412.167 503.5,424.5C 500.137,428.52 495.804,431.02 490.5,432C 456.502,432.5 422.502,432.667 388.5,432.5C 387.504,417.676 387.171,402.676 387.5,387.5 Z"/></g>
</svg>
