<svg width="67" height="67" viewBox="0 0 67 67" fill="none" xmlns="http://www.w3.org/2000/svg">
<circle cx="33.5" cy="33.5" r="33.5" fill="#E70000"/>
<g clip-path="url(#clip0_47_13)">
<path d="M34.159 12C35.0362 12.1604 35.9302 12.2591 36.7883 12.4891C44.3936 14.533 49.2921 19.3557 51.1654 27.0031C52.5316 32.5784 51.383 37.7904 48.1199 42.5221C48.0638 42.6029 48.0089 42.6837 47.9562 42.7656C47.9416 42.788 47.9404 42.8183 47.9068 42.9462C47.9887 43.0056 48.1289 43.0819 48.2366 43.1885C50.544 45.4916 52.8491 47.7958 55.1509 50.1033C56.2894 51.2442 56.2804 52.4266 55.1352 53.5719C54.8884 53.8187 54.6427 54.0689 54.3915 54.3123C53.4402 55.2289 52.1906 55.2322 51.2518 54.3011C49.623 52.6857 48.0044 51.0591 46.3824 49.4358C45.5433 48.5956 44.7065 47.7531 43.9011 46.9443C42.9107 47.522 41.9852 48.1267 41.0037 48.6225C33.846 52.2347 25.2066 51.0524 19.2951 45.6408C15.7202 42.3685 13.6551 38.3019 13.0785 33.4837C13.0651 33.3749 13.0269 33.2683 13 33.1607C13 31.957 13 30.7533 13 29.5496C13.0258 29.4441 13.0628 29.3398 13.074 29.2332C13.4038 26.1651 14.3932 23.3246 16.1016 20.7557C19.0292 16.3549 23.073 13.5492 28.2442 12.4039C29.0047 12.2356 29.7798 12.1335 30.5493 12C31.7518 12 32.9554 12 34.159 12ZM50.2613 31.3534C50.2781 21.5241 42.2578 13.4606 32.4372 13.4303C22.52 13.4 14.4414 21.4153 14.4313 31.294C14.4212 41.1962 22.418 49.2216 32.3407 49.2676C42.1703 49.3124 50.2456 41.241 50.2613 31.3534ZM44.9668 46.0076C45.66 46.6964 46.3263 47.3549 46.9881 48.0156C48.7189 49.7466 50.4475 51.4798 52.1794 53.2085C52.6573 53.6852 52.9815 53.6819 53.4649 53.2074C53.6848 52.992 53.9013 52.7732 54.1189 52.5556C54.7111 51.9633 54.7111 51.6895 54.1133 51.0916C51.8485 48.8256 49.5849 46.5606 47.319 44.2957C47.2136 44.1903 47.1036 44.0893 46.9915 43.9827C46.646 44.3484 46.3364 44.6906 46.0111 45.0159C45.6858 45.3424 45.3437 45.652 44.9668 46.0076Z" fill="url(#paint0_linear_47_13)"/>
<path d="M20.1768 34.372C19.5329 35.0204 18.9283 35.6206 18.3383 36.2342C18.271 36.3049 18.2284 36.4664 18.2609 36.555C18.9765 38.5092 20.0545 40.2379 21.5935 41.841C21.5935 41.4787 21.5913 41.2251 21.5935 40.9716C21.598 40.5655 21.5767 40.1572 21.6171 39.7556C21.7225 38.7033 22.4539 37.927 23.5038 37.8204C24.1398 37.7554 24.7949 37.7531 25.4309 37.8216C26.584 37.9472 27.3277 38.8424 27.3356 40.0517C27.3468 41.7311 27.3468 43.4104 27.3311 45.0898C27.3277 45.4039 27.3962 45.5834 27.726 45.6518C28.0636 45.7213 28.3923 45.8358 28.7714 45.9446C28.7714 45.7236 28.7714 45.5587 28.7714 45.3938C28.7714 41.7557 28.805 38.1166 28.7557 34.4786C28.7344 32.9597 29.8438 31.9511 31.1764 32.0611C31.5095 32.0891 31.8472 32.0645 32.1837 32.0656C33.6015 32.0712 34.4955 32.9552 34.4955 34.3664C34.4978 38.1312 34.4967 41.8948 34.4967 45.6596C34.4967 45.8257 34.4967 45.9917 34.4967 46.2228C34.9969 46.1286 35.4546 46.0422 35.9268 45.9536C35.9268 45.7393 35.9268 45.5721 35.9268 45.405C35.9268 41.2767 35.9257 37.1485 35.9268 33.0202C35.9268 31.4935 36.7894 30.6364 38.3228 30.6341C38.6863 30.6341 39.0508 30.6319 39.4143 30.6341C40.7547 30.6442 41.6487 31.5249 41.6521 32.8744C41.66 36.1074 41.6555 39.3394 41.6555 42.5724C41.6555 42.7227 41.6555 42.8719 41.6555 43.1244C41.8394 42.9841 41.9606 42.9045 42.0671 42.808C46.5327 38.7863 48.3207 33.7954 46.9657 27.9441C45.6196 22.1308 41.8529 18.4356 36.1108 16.7787C35.9897 16.7439 35.8652 16.7226 35.7463 16.6834C35.3346 16.5476 35.1315 16.1931 35.237 15.8039C35.3413 15.418 35.7081 15.179 36.1187 15.3069C37.1293 15.6255 38.1781 15.879 39.1249 16.3367C45.0049 19.1816 48.3275 23.873 48.7694 30.4008C49.3359 38.7751 43.3762 46.1835 35.1271 47.5824C26.2139 49.0935 17.7359 43.1333 16.1341 34.2307C14.594 25.6903 20.031 17.3463 28.482 15.3473C29.6834 15.0635 30.9397 15.0006 32.1747 14.8739C32.6997 14.82 33.0395 15.1229 33.0609 15.5503C33.0822 15.9946 32.7546 16.2728 32.1949 16.2963C26.2128 16.5532 21.7719 19.3028 18.9317 24.5741C17.875 26.5362 17.3904 28.6721 17.3164 30.8989C17.3142 30.9494 17.3254 31.001 17.4398 31.1401C17.7741 30.7721 18.096 30.3918 18.4448 30.0385C19.5419 28.9301 20.7836 28.9346 21.8964 30.0396C22.2632 30.4042 22.6244 30.7744 23.0114 31.167C23.1381 31.0481 23.2492 30.9505 23.3535 30.8462C25.2952 28.9088 27.2358 26.9703 29.1763 25.033C30.2958 23.9145 31.5151 23.9055 32.6267 25.015C33.0014 25.3897 33.3581 25.7823 33.7047 26.148C34.223 25.6286 34.6851 25.1665 35.1652 24.6852C34.5931 24.3105 34.4473 23.7272 34.4899 23.0575C34.5101 22.7366 34.4899 22.4135 34.4944 22.0916C34.5067 21.2255 35.0575 20.6411 35.9224 20.5962C36.3127 20.576 36.7053 20.5906 37.0979 20.5906C38.315 20.5906 39.5332 20.5861 40.7502 20.5917C41.8125 20.5962 42.3779 21.1683 42.379 22.2318C42.3812 23.7709 42.3812 25.3101 42.379 26.8503C42.3767 27.9025 41.8215 28.4635 40.7828 28.4713C40.5169 28.4735 40.2511 28.4713 39.9852 28.4713C38.9633 28.4713 38.9331 28.4601 38.2185 27.7814C37.3099 28.6912 36.4036 29.6032 35.4927 30.5107C34.4002 31.6011 33.1528 31.6056 32.0693 30.5197C31.6935 30.1439 31.3312 29.7558 30.8522 29.2588C30.7434 29.4349 30.6839 29.5886 30.5774 29.6963C28.6413 31.6393 26.6996 33.5766 24.759 35.514C23.6507 36.6201 22.409 36.6235 21.3041 35.5207C20.9396 35.1584 20.5817 34.7848 20.1768 34.372ZM17.7023 34.851C18.3888 34.1566 18.9732 33.5565 19.5688 32.9664C19.9928 32.5479 20.3394 32.5502 20.7657 32.9675C21.2761 33.4667 21.7786 33.9738 22.2845 34.4763C22.9026 35.0911 23.1662 35.0888 23.7831 34.473C25.9312 32.327 28.0804 30.1809 30.2296 28.0372C30.7557 27.5122 31.0754 27.5155 31.6082 28.045C32.0749 28.5083 32.5404 28.9728 33.0059 29.4372C33.6587 30.0878 33.9021 30.0856 34.5662 29.4215C35.7732 28.2144 36.9824 27.0096 38.1849 25.7969C38.435 25.5445 38.7132 25.4155 39.052 25.5445C39.4154 25.6825 39.5253 25.9921 39.5186 26.3578C39.5152 26.5766 39.5175 26.7953 39.5175 27.0073C40.0267 27.0073 40.4777 27.0073 40.9241 27.0073C40.9241 25.3403 40.9241 23.7092 40.9241 22.0568C39.2539 22.0568 37.6094 22.0568 35.9571 22.0568C35.9571 22.5336 35.9571 22.9834 35.9571 23.4703C36.2095 23.4703 36.4316 23.4737 36.6537 23.4692C37.0059 23.4636 37.2931 23.5769 37.4277 23.9246C37.5601 24.269 37.4266 24.545 37.1776 24.7918C36.2533 25.7072 35.3357 26.6315 34.4114 27.5469C33.9481 28.0058 33.6083 28.0069 33.1495 27.5548C32.6402 27.0545 32.1377 26.5474 31.6318 26.0448C31.0575 25.4727 30.7681 25.4716 30.196 26.0437C28.0266 28.2077 25.8583 30.3739 23.6878 32.5379C23.1942 33.0303 22.8667 33.0281 22.3697 32.5379C21.8223 31.9971 21.2839 31.4475 20.7309 30.9112C20.3394 30.5321 19.985 30.5332 19.5935 30.9168C18.9238 31.5731 18.2609 32.2361 17.608 32.9092C17.5149 33.0045 17.4387 33.1784 17.4532 33.304C17.5071 33.7819 17.6036 34.2598 17.7023 34.851ZM33.0642 46.4124C33.0642 46.1398 33.0642 45.9872 33.0642 45.8346C33.0642 43.9186 33.0642 42.0025 33.0642 40.0865C33.0642 38.2265 33.0642 36.3655 33.0642 34.5055C33.0642 33.7101 32.8466 33.497 32.0367 33.497C31.7428 33.497 31.4489 33.4959 31.1551 33.497C30.4271 33.4992 30.2027 33.7202 30.2027 34.446C30.2016 38.2366 30.2016 42.0272 30.2027 45.8178C30.2027 45.9513 30.2184 46.0859 30.2296 46.2778C31.1831 46.3226 32.0995 46.3664 33.0642 46.4124ZM37.3559 45.5856C38.2421 45.1503 39.0475 44.7442 39.863 44.3583C40.1411 44.2271 40.2286 44.0476 40.2275 43.7402C40.2141 41.4315 40.2197 39.1229 40.2197 36.8142C40.2197 35.4994 40.2242 34.1835 40.2163 32.8688C40.2129 32.3303 39.9516 32.0768 39.4154 32.0678C39.0654 32.0611 38.7154 32.0656 38.3666 32.0667C37.5679 32.0678 37.357 32.281 37.357 33.0931C37.357 37.0812 37.357 41.0681 37.357 45.0561C37.3559 45.1918 37.3559 45.3265 37.3559 45.5856ZM25.8325 44.871C25.8661 44.8172 25.8931 44.7947 25.8931 44.7723C25.8964 43.167 25.9076 41.5606 25.8919 39.9552C25.8875 39.4987 25.6003 39.2451 25.137 39.2272C24.7186 39.2104 24.2991 39.216 23.8807 39.2238C23.303 39.235 23.0394 39.4919 23.0327 40.0775C23.0226 41.0131 23.0259 41.9487 23.0349 42.8843C23.036 42.9976 23.0708 43.1546 23.1493 43.2163C23.9805 43.8681 24.8667 44.4369 25.8325 44.871Z" fill="url(#paint1_linear_47_13)"/>
</g>
<defs>
<linearGradient id="paint0_linear_47_13" x1="13" y1="33.5003" x2="56" y2="33.5003" gradientUnits="userSpaceOnUse">
<stop stop-color="#E0FBFF"/>
<stop offset="0.9804" stop-color="white"/>
</linearGradient>
<linearGradient id="paint1_linear_47_13" x1="15.8714" y1="31.3427" x2="48.804" y2="31.3427" gradientUnits="userSpaceOnUse">
<stop stop-color="#E0FBFF"/>
<stop offset="0.9804" stop-color="white"/>
</linearGradient>
<clipPath id="clip0_47_13">
<rect width="43" height="43" fill="white" transform="translate(13 12)"/>
</clipPath>
</defs>
</svg>
