<svg width="67" height="67" viewBox="0 0 67 67" fill="none" xmlns="http://www.w3.org/2000/svg">
<circle cx="33.5" cy="33.5" r="33.5" fill="#E70000"/>
<g clip-path="url(#clip0_47_6)">
<path d="M33.6321 13C33.8891 13.2176 34.1789 13.4062 34.3969 13.6566C35.3444 14.7469 36.5757 15.3882 37.8912 15.8929C39.9576 16.6861 42.1158 17.1022 44.3062 17.3298C45.7463 17.4794 47.1971 17.5352 48.644 17.61C49.6 17.6596 49.9893 18.0421 49.9893 19.011C49.9901 23.7988 49.9901 28.5867 49.9901 33.3746C49.9901 34.4794 49.9648 35.5849 49.9946 36.6889C50.0826 39.9345 48.8605 42.6526 46.6671 44.9743C44.5471 47.2182 41.9598 48.7865 39.1638 50.034C37.2694 50.8792 35.3246 51.5755 33.2788 51.9672C32.6677 52.084 32.1216 51.8603 31.5649 51.7122C27.819 50.715 24.3285 49.1766 21.2732 46.7556C19.1127 45.0438 17.3896 42.9961 16.5101 40.3323C16.1728 39.3123 16.0023 38.2632 16.0015 37.1898C15.9992 31.0933 16 24.9968 16.0008 18.901C16.0008 18.0803 16.4367 17.6298 17.268 17.6168C20.4442 17.568 23.5874 17.2504 26.6634 16.4288C28.4767 15.944 30.2273 15.3073 31.7255 14.1277C31.9442 13.9551 32.1324 13.7444 32.348 13.5673C32.5897 13.3688 32.8474 13.1886 33.0975 13C33.2765 13 33.4539 13 33.6321 13ZM18.3096 19.9111C18.302 20.0302 18.2905 20.1295 18.2905 20.228C18.2898 25.8908 18.2882 31.5544 18.2921 37.2172C18.2928 38.3083 18.5192 39.3588 18.9459 40.3636C19.8339 42.4556 21.3611 44.0116 23.1691 45.3156C26.0722 47.4091 29.3401 48.7086 32.7702 49.6416C32.9415 49.6881 33.1503 49.6675 33.3246 49.6171C34.1292 49.3843 34.9368 49.1567 35.7268 48.8796C38.7554 47.8168 41.6302 46.4616 44.0676 44.3246C46.3589 42.3159 47.7431 39.8902 47.7148 36.7332C47.6666 31.2986 47.7018 25.8641 47.7018 20.4296C47.7018 20.2669 47.7018 20.1035 47.7018 19.9043C47.4678 19.8905 47.2674 19.8867 47.0686 19.8661C45.3126 19.6867 43.546 19.5744 41.803 19.3065C39.5087 18.9537 37.2901 18.2986 35.258 17.1366C34.5682 16.7419 33.9258 16.2655 33.2688 15.831C28.7826 18.9621 23.6195 19.6821 18.3096 19.9111Z" fill="url(#paint0_linear_47_6)"/>
<path d="M29.5772 31.3734C29.7768 31.3734 29.9275 31.3734 30.0781 31.3734C33.2451 31.3734 36.4113 31.3734 39.5783 31.3734C40.5939 31.3734 41.0191 31.7956 41.0191 32.805C41.0199 35.6872 41.0199 38.5693 41.0191 41.4515C41.0191 42.4334 40.5863 42.8602 39.5944 42.8602C35.1938 42.8609 30.7932 42.8609 26.3934 42.8602C25.4175 42.8602 24.9916 42.441 24.9908 41.479C24.99 38.5716 24.99 35.6643 24.9908 32.7569C24.9908 31.7941 25.4168 31.3757 26.3926 31.3734C26.6718 31.3727 26.9502 31.3734 27.2844 31.3734C27.2844 31.2131 27.2844 31.0787 27.2844 30.9443C27.2844 29.9411 27.279 28.9386 27.2859 27.9354C27.3058 24.9341 29.5329 22.4741 32.4482 22.2275C35.4913 21.9702 38.087 23.9469 38.6384 26.952C38.695 27.2628 38.7233 27.5834 38.7171 27.8988C38.7034 28.5523 38.2001 29.0455 37.5807 29.0494C36.9765 29.0532 36.497 28.5897 36.4389 27.9469C36.2805 26.1893 35.4225 25.0456 33.9479 24.628C31.7744 24.0134 29.6292 25.5716 29.5818 27.8194C29.5566 28.9852 29.5772 30.1526 29.5772 31.3734ZM38.7003 40.5415C38.7003 38.2365 38.7003 35.9712 38.7003 33.6929C34.8879 33.6929 31.1037 33.6929 27.2997 33.6929C27.2997 35.9834 27.2997 38.251 27.2997 40.5415C31.1037 40.5415 34.8879 40.5415 38.7003 40.5415Z" fill="url(#paint1_linear_47_6)"/>
<path d="M33.0019 35.9736C33.6206 35.9752 34.1414 36.4928 34.146 37.1112C34.1514 37.7419 33.6091 38.2763 32.9774 38.2634C32.3526 38.2504 31.8563 37.7358 31.8616 37.1059C31.8677 36.4791 32.3778 35.9721 33.0019 35.9736Z" fill="url(#paint2_linear_47_6)"/>
</g>
<defs>
<linearGradient id="paint0_linear_47_6" x1="16" y1="32.4999" x2="50.0002" y2="32.4999" gradientUnits="userSpaceOnUse">
<stop stop-color="#E0FBFF"/>
<stop offset="0.9804" stop-color="white"/>
</linearGradient>
<linearGradient id="paint1_linear_47_6" x1="24.9897" y1="32.5333" x2="41.0195" y2="32.5333" gradientUnits="userSpaceOnUse">
<stop stop-color="#E0FBFF"/>
<stop offset="0.9804" stop-color="white"/>
</linearGradient>
<linearGradient id="paint2_linear_47_6" x1="31.8622" y1="37.1187" x2="34.1463" y2="37.1187" gradientUnits="userSpaceOnUse">
<stop stop-color="#E0FBFF"/>
<stop offset="0.9804" stop-color="white"/>
</linearGradient>
<clipPath id="clip0_47_6">
<rect width="34" height="39" fill="white" transform="translate(16 13)"/>
</clipPath>
</defs>
</svg>
