<svg width="67" height="67" viewBox="0 0 67 67" fill="none" xmlns="http://www.w3.org/2000/svg">
<circle cx="33.5" cy="33.5" r="33.5" fill="#E70000"/>
<g clip-path="url(#clip0_47_10)">
<path d="M56 35.2856C55.8898 36.1189 55.8026 36.9556 55.6649 37.7843C55.1302 40.9982 53.8979 43.9286 52.0275 46.5892C51.8485 46.844 51.8187 47.0173 51.9747 47.3008C52.6655 48.5554 52.4383 50.0762 51.4412 51.1069C50.4819 52.0975 48.9661 52.373 47.7212 51.7818C46.4314 51.1689 45.7016 49.8352 45.8703 48.4004C46.0298 47.0437 47.1073 45.8488 48.4957 45.6422C49.1256 45.5493 49.7877 45.679 50.5496 45.7122C51.4228 44.5208 52.2352 43.109 52.8135 41.579C55.2748 35.0675 54.6781 28.8452 51.0029 22.9226C50.8457 22.67 50.724 22.3486 50.7229 22.0583C50.7217 21.7093 50.9891 21.4579 51.3425 21.3776C51.7475 21.2858 52.07 21.435 52.3018 21.7839C53.2014 23.1349 53.9495 24.5639 54.5313 26.0779C55.2989 28.0808 55.7751 30.1503 55.9288 32.2921C55.9392 32.431 55.9759 32.5687 56 32.7064C56 33.5673 56 34.4259 56 35.2856ZM47.5697 48.7987C47.5571 49.6687 48.2352 50.3723 49.0946 50.3804C49.9243 50.3873 50.6311 49.6997 50.6552 48.8641C50.6793 48.0136 49.9793 47.2997 49.1164 47.2962C48.2605 47.2905 47.5823 47.9493 47.5697 48.7987Z" fill="url(#paint0_linear_47_10)"/>
<path d="M35.3804 12C36.1847 12.1102 36.9925 12.1974 37.7934 12.3329C40.957 12.8666 43.8485 14.0752 46.4922 15.8853C47.0166 16.2446 47.1601 16.7714 46.856 17.2007C46.5622 17.6151 46.0459 17.6656 45.5307 17.3109C42.794 15.4308 39.7854 14.2761 36.4865 13.8744C33.1589 13.4703 29.9288 13.864 26.7929 15.0428C26.6724 15.0876 26.5542 15.1381 26.4314 15.1783C25.9082 15.3516 25.4309 15.1484 25.2691 14.6882C25.105 14.2187 25.3253 13.7412 25.8543 13.5679C26.9925 13.196 28.1297 12.8 29.2943 12.5268C30.2914 12.2938 31.3253 12.2192 32.3431 12.0723C32.4693 12.0539 32.5932 12.0241 32.7183 12C33.6053 12 34.4934 12 35.3804 12Z" fill="url(#paint1_linear_47_10)"/>
<path d="M33.9839 46.0966C31.8508 46.0966 29.7177 46.0977 27.5858 46.0966C25.5089 46.0954 24.2134 44.7973 24.2134 42.7174C24.2123 39.095 24.218 35.4736 24.2111 31.8512C24.2088 30.5473 24.7458 29.5716 25.8761 28.9105C25.9954 28.8405 26.0941 28.627 26.0964 28.4778C26.1136 27.2622 26.0665 26.049 26.4165 24.8576C27.4527 21.3338 30.8181 18.9223 34.4165 19.1507C38.1606 19.3883 41.2323 22.1201 41.7934 25.7816C41.9288 26.6665 41.8829 27.579 41.9036 28.4801C41.9082 28.7004 41.9575 28.8255 42.1698 28.9461C43.2415 29.5533 43.7969 30.4899 43.7992 31.7249C43.8061 35.4472 43.8061 39.1696 43.7992 42.8919C43.7957 44.7422 42.4544 46.0851 40.5978 46.0943C38.3924 46.1046 36.1882 46.0954 33.9839 46.0966ZM33.977 44.3772C36.1377 44.3772 38.2983 44.3783 40.459 44.3772C41.5364 44.376 42.0815 43.8389 42.0815 42.776C42.0826 39.1409 42.0826 35.5058 42.0815 31.8707C42.0815 30.825 41.5467 30.2879 40.4957 30.2879C36.1744 30.2856 31.852 30.2856 27.5307 30.2879C26.4509 30.2879 25.9311 30.8147 25.9311 31.8982C25.93 35.5046 25.93 39.111 25.9311 42.7186C25.9311 43.8492 26.4567 44.3783 27.58 44.3783C29.712 44.3783 31.8439 44.3772 33.977 44.3772ZM40.1388 28.5443C40.428 25.8539 39.7923 23.3941 37.2255 21.7792C35.0602 20.4179 32.2788 20.5717 30.265 22.1338C28.0436 23.8567 27.5915 26.2258 27.8956 28.5386C28.4624 28.5386 29.0269 28.5386 29.6328 28.5386C29.6328 27.9555 29.6144 27.3988 29.6362 26.8444C29.7326 24.2871 32.0906 22.3404 34.6196 22.7192C36.7825 23.0429 38.3431 24.8163 38.3844 27.004C38.3936 27.5125 38.3855 28.0221 38.3855 28.5443C39.0109 28.5443 39.5754 28.5443 40.1388 28.5443ZM36.6655 28.5558C36.6655 27.9922 36.6804 27.4665 36.6621 26.942C36.6185 25.7093 35.7292 24.682 34.5175 24.4432C33.3023 24.2045 32.1055 24.8197 31.5892 25.9469C31.2037 26.7905 31.3746 27.672 31.3597 28.5558C33.1417 28.5558 34.8686 28.5558 36.6655 28.5558Z" fill="url(#paint2_linear_47_10)"/>
<path d="M17.5582 22.1429C15.5743 24.9057 14.3431 27.9256 13.9185 31.2519C13.23 36.6455 14.4406 41.5914 17.6753 45.9679C21.1187 50.6269 25.7579 53.3472 31.5146 54.1082C34.9329 54.5593 38.2513 54.122 41.4504 52.849C42.2593 52.5276 42.8801 53.0901 42.778 53.7237C42.7148 54.1105 42.4647 54.3102 42.1239 54.4445C40.4532 55.1056 38.7298 55.567 36.9501 55.7955C32.5335 56.3636 28.2765 55.7668 24.3109 53.7305C17.5617 50.2653 13.4515 44.7731 12.2777 37.2481C11.3758 31.4666 12.6862 26.1373 16.0379 21.3257C16.1733 21.1317 16.2065 20.994 16.0757 20.7621C15.3597 19.4915 15.5444 18.0016 16.5175 16.9434C17.4641 15.9149 18.9811 15.6108 20.257 16.1938C21.5536 16.7861 22.2926 18.0992 22.148 19.5512C22.0138 20.8907 20.9788 22.035 19.6007 22.3449C18.9111 22.4999 18.2352 22.4184 17.5582 22.1429ZM18.8881 20.6978C19.7441 20.7047 20.428 20.0459 20.4429 19.2C20.4578 18.3288 19.7831 17.624 18.9225 17.6125C18.0757 17.6011 17.3528 18.3184 17.3551 19.1655C17.3586 20.0046 18.0447 20.691 18.8881 20.6978Z" fill="url(#paint3_linear_47_10)"/>
<path d="M48.2582 19.2024C48.2605 18.7272 48.6276 18.3588 49.1004 18.3565C49.564 18.3542 49.9564 18.7329 49.9656 19.1921C49.9759 19.6615 49.5582 20.077 49.0889 20.0678C48.6253 20.0575 48.2559 19.673 48.2582 19.2024Z" fill="url(#paint4_linear_47_10)"/>
<path d="M31.4297 38.9036C31.4297 38.7463 31.4217 38.5879 31.4309 38.4307C31.4653 37.8545 31.3609 37.3414 31.0717 36.8054C30.3213 35.4165 30.7711 33.7017 32.0459 32.741C33.2863 31.8055 35.0327 31.8847 36.2008 32.9304C37.3746 33.9806 37.6259 35.7241 36.8296 37.0843C36.6885 37.3253 36.6093 37.6329 36.5955 37.9142C36.5622 38.5994 36.5921 39.2881 36.5829 39.9756C36.5622 41.4356 35.4068 42.5857 33.9862 42.5697C32.576 42.5536 31.4538 41.4173 31.432 39.9768C31.4251 39.6198 31.4297 39.2617 31.4297 38.9036ZM33.1474 38.5271C33.1474 38.9851 33.1417 39.443 33.1486 39.901C33.1578 40.4508 33.5089 40.8388 33.992 40.8479C34.4911 40.8571 34.8571 40.4611 34.8629 39.8849C34.8698 39.1699 34.8812 38.4536 34.8594 37.7397C34.8422 37.1819 34.918 36.6986 35.2989 36.2315C35.7957 35.622 35.6248 34.7037 35.0224 34.1849C34.4372 33.681 33.5571 33.6856 32.9776 34.1964C32.3775 34.7255 32.2215 35.6335 32.7194 36.2464C33.0774 36.686 33.1865 37.1382 33.1497 37.6708C33.1314 37.9543 33.1474 38.2413 33.1474 38.5271Z" fill="url(#paint5_linear_47_10)"/>
</g>
<defs>
<linearGradient id="paint0_linear_47_10" x1="45.8454" y1="36.7218" x2="55.9996" y2="36.7218" gradientUnits="userSpaceOnUse">
<stop stop-color="#E0FBFF"/>
<stop offset="0.9804" stop-color="white"/>
</linearGradient>
<linearGradient id="paint1_linear_47_10" x1="25.2153" y1="14.7736" x2="47.0136" y2="14.7736" gradientUnits="userSpaceOnUse">
<stop stop-color="#E0FBFF"/>
<stop offset="0.9804" stop-color="white"/>
</linearGradient>
<linearGradient id="paint2_linear_47_10" x1="24.2099" y1="32.6175" x2="43.8029" y2="32.6175" gradientUnits="userSpaceOnUse">
<stop stop-color="#E0FBFF"/>
<stop offset="0.9804" stop-color="white"/>
</linearGradient>
<linearGradient id="paint3_linear_47_10" x1="12" y1="35.9508" x2="42.7891" y2="35.9508" gradientUnits="userSpaceOnUse">
<stop stop-color="#E0FBFF"/>
<stop offset="0.9804" stop-color="white"/>
</linearGradient>
<linearGradient id="paint4_linear_47_10" x1="48.2587" y1="19.2117" x2="49.9663" y2="19.2117" gradientUnits="userSpaceOnUse">
<stop stop-color="#E0FBFF"/>
<stop offset="0.9804" stop-color="white"/>
</linearGradient>
<linearGradient id="paint5_linear_47_10" x1="30.7061" y1="37.3301" x2="37.289" y2="37.3301" gradientUnits="userSpaceOnUse">
<stop stop-color="#E0FBFF"/>
<stop offset="0.9804" stop-color="white"/>
</linearGradient>
<clipPath id="clip0_47_10">
<rect width="44" height="44" fill="white" transform="translate(13 13)"/>
</clipPath>
</defs>
</svg>
