<svg width="67" height="67" viewBox="0 0 67 67" fill="none" xmlns="http://www.w3.org/2000/svg">
<circle cx="33.5" cy="33.5" r="33.5" fill="#E70000"/>
<g clip-path="url(#clip0_47_8)">
<path d="M37.8216 52C36.8707 51.7566 36.3234 51.1252 36.018 50.2128C35.787 49.5231 35.4826 48.8581 35.2138 48.1891C34.4057 48.2247 33.6066 48.294 32.8084 48.2851C32.0201 48.2762 31.2338 48.1881 30.3989 48.1317C30.0895 48.8502 29.7623 49.6062 29.4371 50.3642C28.8471 51.7368 27.7247 52.191 26.3574 51.6071C25.5621 51.2677 24.7679 50.9283 23.9747 50.5829C22.769 50.0584 22.3029 48.8947 22.8126 47.6735C23.117 46.9442 23.4392 46.2228 23.7337 45.4895C23.7724 45.3926 23.7347 45.1907 23.6584 45.1313C22.4804 44.211 21.4502 43.1511 20.5766 41.9389C20.5558 41.9102 20.5211 41.8914 20.4765 41.8538C19.7041 42.1626 18.9277 42.4772 18.1484 42.784C16.8157 43.3075 15.6913 42.8177 15.1509 41.4807C14.8227 40.6683 14.4925 39.8558 14.1742 39.0384C13.7042 37.8321 14.203 36.6723 15.3998 36.1825C16.1315 35.8836 16.8702 35.6016 17.5971 35.2929C17.6982 35.2503 17.8301 35.089 17.8182 34.9999C17.6199 33.4809 17.6615 31.9679 17.9064 30.4221C17.0894 30.0708 16.2753 29.7205 15.4623 29.3692C14.7801 29.0743 14.3041 28.5736 14.1961 27.8393C14.1356 27.4296 14.1742 26.9635 14.314 26.5756C14.6413 25.6711 15.0448 24.7944 15.4385 23.9156C15.9511 22.7727 17.1181 22.3194 18.2822 22.8023C19.0913 23.1378 19.8935 23.4881 20.7313 23.8464C21.6971 22.5589 22.8324 21.4506 24.1512 20.5105C23.8368 19.7247 23.5305 18.9578 23.2251 18.1919C22.6767 16.8164 23.1586 15.6991 24.5428 15.1449C25.5036 14.761 26.4664 14.382 27.4292 14C27.6771 14 27.924 14 28.1719 14C29.1218 14.2434 29.6691 14.8758 29.9745 15.7872C30.2095 16.4858 30.5179 17.1587 30.7995 17.8604C32.4068 17.6229 33.9923 17.6605 35.5758 17.9128C35.9397 17.0647 36.2807 16.2444 36.6437 15.4339C37.1285 14.3523 38.2708 13.8605 39.3545 14.289C40.3074 14.665 41.2484 15.0747 42.1804 15.4972C42.8021 15.7793 43.1789 16.284 43.3356 16.9529C43.4476 17.4309 43.3723 17.8831 43.1809 18.3265C42.8359 19.128 42.4958 19.9316 42.1497 20.742C43.4566 21.7168 44.5502 22.8518 45.4873 24.1571C46.2964 23.8345 47.0846 23.5168 47.8759 23.2051C49.1639 22.6974 50.3032 23.1903 50.8237 24.4817C51.2194 25.4643 51.6081 26.449 51.9997 27.4336C51.9997 27.681 51.9997 27.9284 51.9997 28.1758C51.7518 29.1426 51.0984 29.6849 50.1773 29.9936C49.4901 30.2242 48.8288 30.528 48.1377 30.8061C48.3766 32.4112 48.336 33.9965 48.0851 35.5789C48.8992 35.9282 49.6835 36.2607 50.4638 36.6011C51.7023 37.1424 52.1673 38.2903 51.6477 39.5303C51.2997 40.3615 50.9457 41.1898 50.5838 42.0151C50.0553 43.2234 48.8922 43.6895 47.6746 43.1818C46.9567 42.883 46.2398 42.5802 45.5309 42.2615C45.3217 42.1675 45.2176 42.2021 45.0728 42.3803C44.6752 42.8681 44.2736 43.3599 43.8224 43.7964C43.2027 44.396 42.5354 44.9463 41.8622 45.541C42.1676 46.3079 42.4898 47.1075 42.8041 47.9101C43.291 49.1559 42.7942 50.3088 41.5508 50.8115C40.5573 51.2133 39.5598 51.6042 38.5633 51.999C38.3164 52 38.0695 52 37.8216 52ZM40.1954 45.3134C40.1765 44.8829 40.3748 44.6771 40.6346 44.5049C42.0853 43.545 43.3049 42.3496 44.3063 40.9285C44.6365 40.4595 44.9161 40.3892 45.4535 40.6178C46.3628 41.0038 47.2701 41.3956 48.1793 41.7816C48.7296 42.0151 49.0102 41.9092 49.2432 41.3729C49.5873 40.5802 49.9284 39.7856 50.2655 38.9899C50.4846 38.4734 50.3686 38.1844 49.8481 37.9578C48.919 37.5541 47.9869 37.1612 47.0579 36.7574C46.577 36.5486 46.4253 36.2656 46.5294 35.752C46.8784 34.0361 46.9042 32.3182 46.5968 30.5933C46.5006 30.051 46.6602 29.7918 47.1749 29.584C48.091 29.2148 49.0092 28.8517 49.9254 28.4816C50.5055 28.247 50.6215 27.9828 50.3984 27.4168C50.085 26.6241 49.7707 25.8324 49.4524 25.0428C49.2333 24.4995 48.9527 24.3807 48.4024 24.5984C47.4723 24.9656 46.5462 25.3426 45.6152 25.7097C45.1065 25.9106 44.814 25.8226 44.5056 25.3604C43.5408 23.9136 42.347 22.6925 40.9271 21.6901C40.4571 21.3585 40.3867 21.0824 40.6158 20.5441C40.9975 19.6466 41.3832 18.751 41.766 17.8534C42.0208 17.2567 41.9217 16.9965 41.3366 16.7421C40.5553 16.4027 39.772 16.0663 38.9877 15.7338C38.4711 15.5151 38.1815 15.6318 37.9555 16.1514C37.5529 17.0806 37.1583 18.0128 36.7547 18.941C36.5465 19.419 36.2589 19.5733 35.7493 19.4694C34.0329 19.1191 32.3146 19.0944 30.5893 19.4021C30.0499 19.4981 29.7871 19.3368 29.5799 18.8232C29.2061 17.896 28.8392 16.9658 28.4644 16.0385C28.2502 15.5081 27.9647 15.3815 27.4461 15.5863C26.6419 15.903 25.8398 16.2236 25.0376 16.5472C24.4933 16.7669 24.3743 17.0449 24.5924 17.5961C24.9553 18.5145 25.3252 19.4308 25.6891 20.3492C25.9032 20.8895 25.8269 21.1774 25.3549 21.4921C23.9082 22.458 22.6857 23.6484 21.6852 25.0715C21.355 25.5405 21.0744 25.6108 20.538 25.3822C19.6406 25.0012 18.7443 24.6153 17.8469 24.2323C17.249 23.978 16.9882 24.0769 16.7364 24.6608C16.4032 25.4317 16.0721 26.2026 15.7429 26.9754C15.5039 27.5375 15.6169 27.8166 16.1772 28.057C17.0963 28.4519 18.0165 28.8428 18.9337 29.2416C19.4136 29.4504 19.5663 29.7373 19.4631 30.246C19.1131 31.9619 19.0883 33.6798 19.3957 35.4047C19.4919 35.941 19.3293 36.2082 18.8167 36.4141C17.8886 36.7881 16.9595 37.1572 16.0314 37.5293C15.5039 37.7401 15.374 38.0271 15.5793 38.5476C15.8966 39.3511 16.2168 40.1537 16.5411 40.9553C16.7612 41.4985 17.0398 41.6173 17.5911 41.3996C18.5103 41.0374 19.4265 40.6683 20.3436 40.3031C20.8811 40.0894 21.1706 40.1656 21.4869 40.6386C22.4527 42.0844 23.6435 43.3075 25.0674 44.307C25.5364 44.6365 25.6058 44.9176 25.3767 45.4549C24.9851 46.3752 24.5865 47.2926 24.1958 48.2129C23.9826 48.7146 24.0976 49.0144 24.5884 49.2282C25.3926 49.5785 26.1987 49.9229 27.0058 50.2653C27.5214 50.484 27.8139 50.3652 28.038 49.8477C28.4406 48.9184 28.8352 47.9862 29.2378 47.057C29.446 46.5771 29.7296 46.4247 30.2432 46.5296C31.9596 46.8789 33.6779 46.9036 35.4032 46.5969C35.9436 46.5009 36.2054 46.6612 36.4126 47.1758C36.7864 48.103 37.1533 49.0332 37.5281 49.9605C37.7423 50.4899 38.0279 50.6176 38.5464 50.4137C39.3506 50.097 40.1537 49.7764 40.9549 49.4528C41.4963 49.2341 41.6163 48.9511 41.4001 48.4029C41.0372 47.4845 40.6673 46.5682 40.3044 45.6498C40.2489 45.5133 40.2132 45.3708 40.1954 45.3134Z" fill="url(#paint0_linear_47_8)"/>
<path d="M25.02 39.7195C25.0438 36.5222 26.5629 34.4787 29.6238 33.5287C28.429 32.1977 27.9689 30.6569 28.4548 28.8915C28.7592 27.7861 29.4116 26.9173 30.3536 26.276C32.2415 24.9906 34.7679 25.2617 36.3683 26.8797C37.8893 28.4175 38.4287 31.2645 36.3841 33.5267C39.4103 34.4628 40.9462 36.5073 40.97 39.673C41.0018 39.7106 41.0325 39.7472 41.0642 39.7848C41.1099 39.6898 41.1406 39.583 41.2041 39.5018C43.8316 36.1768 44.1985 31.596 42.1321 27.8979C42.0836 27.8119 42.032 27.7277 41.9874 27.6387C41.7791 27.226 41.8783 26.8124 42.2343 26.6016C42.6101 26.3789 43.0335 26.4937 43.2794 26.9084C43.9724 28.0771 44.4643 29.3279 44.7171 30.6619C45.9774 37.3326 41.7236 43.5433 35.0614 44.7763C28.7453 45.946 22.4281 41.6066 21.267 35.3C20.2041 29.5318 23.1857 24.0504 28.6213 21.8882C31.709 20.6601 34.8036 20.7541 37.8536 22.0851C38.3811 22.3147 38.5814 22.7046 38.401 23.1282C38.2235 23.5458 37.7892 23.6714 37.2686 23.4468C34.3862 22.2049 31.5018 22.1979 28.6431 23.4933C24.6879 25.2864 22.2675 29.3279 22.5471 33.6583C22.6869 35.8245 23.4435 37.772 24.7801 39.4879C24.8257 39.5463 24.8743 39.6027 24.9249 39.6572C24.9407 39.675 24.9645 39.6849 25.02 39.7195ZM32.9901 34.9972C32.9901 34.9735 32.9901 34.9487 32.9901 34.925C32.2484 34.925 31.5057 34.9171 30.7641 34.927C28.8672 34.9497 27.1072 36.2768 26.7096 38.1283C26.5183 39.0199 26.5897 39.9679 26.5312 40.8902C26.5153 41.1376 26.5946 41.2939 26.8018 41.4414C28.3645 42.5557 30.0888 43.2385 32.0045 43.4146C34.6797 43.66 37.0941 42.9584 39.2567 41.381C39.3628 41.3038 39.446 41.1227 39.45 40.9882C39.4698 40.3578 39.4679 39.7264 39.455 39.0961C39.4143 37.1021 37.8863 35.2793 35.9132 35.019C34.9543 34.8923 33.9648 34.9972 32.9901 34.9972ZM33.0426 26.9549C31.2747 26.9173 29.8023 28.3403 29.7527 30.1344C29.7051 31.885 31.1518 33.3882 32.9306 33.4337C34.7065 33.4792 36.2027 32.0295 36.2394 30.2284C36.2751 28.466 34.8373 26.9935 33.0426 26.9549Z" fill="url(#paint1_linear_47_8)"/>
<path d="M41.2358 24.6675C41.2368 25.0772 40.8848 25.4236 40.4793 25.4127C40.0886 25.4028 39.7564 25.0624 39.7554 24.6705C39.7535 24.2549 40.0916 23.9273 40.513 23.9362C40.9185 23.9441 41.2348 24.2648 41.2358 24.6675Z" fill="url(#paint2_linear_47_8)"/>
<path d="M29.9123 39.181C30.179 39.4166 30.3764 39.568 30.5469 39.7461C30.884 40.0974 30.8969 40.5328 30.5975 40.8366C30.298 41.1404 29.8528 41.1325 29.5068 40.798C29.1508 40.4546 28.8028 40.1043 28.4637 39.7451C28.1255 39.3859 28.1265 38.9841 28.4656 38.6269C28.8057 38.2687 29.1538 37.9173 29.5088 37.574C29.8608 37.2355 30.2921 37.2296 30.5965 37.5403C30.8959 37.8461 30.883 38.2785 30.5429 38.6289C30.3734 38.806 30.1741 38.9554 29.9123 39.181Z" fill="url(#paint3_linear_47_8)"/>
<path d="M36.0887 39.1839C35.8031 38.9345 35.581 38.7722 35.3976 38.5743C35.1011 38.2556 35.113 37.8271 35.3956 37.5412C35.6842 37.2492 36.1085 37.2285 36.4278 37.5273C36.8244 37.8984 37.2072 38.2863 37.576 38.6851C37.8527 38.985 37.8527 39.3917 37.575 39.6915C37.2062 40.0903 36.8244 40.4782 36.4278 40.8493C36.1155 41.1423 35.6713 41.1195 35.3926 40.8345C35.112 40.5475 35.1031 40.118 35.3986 39.7994C35.583 39.6005 35.8031 39.4362 36.0887 39.1839Z" fill="url(#paint4_linear_47_8)"/>
<path d="M32.5548 41.0563C31.9024 41.0524 31.5107 40.5427 31.7259 40.0826C32.1116 39.2573 32.5389 38.4498 32.9792 37.6522C33.1696 37.3068 33.582 37.2276 33.9202 37.4018C34.2632 37.5779 34.4318 37.9856 34.2553 38.3468C33.8656 39.1435 33.4621 39.9351 33.0228 40.706C32.9167 40.892 32.652 40.987 32.5548 41.0563Z" fill="url(#paint5_linear_47_8)"/>
</g>
<defs>
<linearGradient id="paint0_linear_47_8" x1="13.9997" y1="33" x2="52.0001" y2="33" gradientUnits="userSpaceOnUse">
<stop stop-color="#E0FBFF"/>
<stop offset="0.9804" stop-color="white"/>
</linearGradient>
<linearGradient id="paint1_linear_47_8" x1="21.0536" y1="32.9959" x2="44.9384" y2="32.9959" gradientUnits="userSpaceOnUse">
<stop stop-color="#E0FBFF"/>
<stop offset="0.9804" stop-color="white"/>
</linearGradient>
<linearGradient id="paint2_linear_47_8" x1="39.7548" y1="24.6749" x2="41.2355" y2="24.6749" gradientUnits="userSpaceOnUse">
<stop stop-color="#E0FBFF"/>
<stop offset="0.9804" stop-color="white"/>
</linearGradient>
<linearGradient id="paint3_linear_47_8" x1="28.2117" y1="39.1853" x2="30.8123" y2="39.1853" gradientUnits="userSpaceOnUse">
<stop stop-color="#E0FBFF"/>
<stop offset="0.9804" stop-color="white"/>
</linearGradient>
<linearGradient id="paint4_linear_47_8" x1="35.1801" y1="39.1851" x2="37.784" y2="39.1851" gradientUnits="userSpaceOnUse">
<stop stop-color="#E0FBFF"/>
<stop offset="0.9804" stop-color="white"/>
</linearGradient>
<linearGradient id="paint5_linear_47_8" x1="31.6661" y1="39.1845" x2="34.3257" y2="39.1845" gradientUnits="userSpaceOnUse">
<stop stop-color="#E0FBFF"/>
<stop offset="0.9804" stop-color="white"/>
</linearGradient>
<clipPath id="clip0_47_8">
<rect width="38" height="38" fill="white" transform="translate(14 14)"/>
</clipPath>
</defs>
</svg>
