<?xml version="1.0" encoding="UTF-8"?>
<!DOCTYPE svg PUBLIC "-//W3C//DTD SVG 1.1//EN" "http://www.w3.org/Graphics/SVG/1.1/DTD/svg11.dtd">
<svg xmlns="http://www.w3.org/2000/svg" version="1.1" width="512px" height="512px" style="shape-rendering:geometricPrecision; text-rendering:geometricPrecision; image-rendering:optimizeQuality; fill-rule:evenodd; clip-rule:evenodd" xmlns:xlink="http://www.w3.org/1999/xlink">
<g><path style="opacity:0.995" fill="#010000" d="M 511.5,69.5 C 511.5,153.5 511.5,237.5 511.5,321.5C 509.685,325.479 506.685,328.312 502.5,330C 494.236,331.37 485.903,331.87 477.5,331.5C 477.5,350.5 477.5,369.5 477.5,388.5C 487.172,388.334 496.839,388.5 506.5,389C 508.323,389.997 509.99,391.164 511.5,392.5C 511.5,404.167 511.5,415.833 511.5,427.5C 507.683,438.816 500.016,446.316 488.5,450C 333.167,450.667 177.833,450.667 22.5,450C 10.9837,446.316 3.31707,438.816 -0.5,427.5C -0.5,415.833 -0.5,404.167 -0.5,392.5C 1.01027,391.164 2.67694,389.997 4.5,389C 14.1609,388.5 23.8276,388.334 33.5,388.5C 33.3333,298.166 33.5,207.833 34,117.5C 38.3963,104.293 47.563,98.626 61.5,100.5C 61.3335,91.1607 61.5002,81.8274 62,72.5C 63.8333,66.6667 67.6667,62.8333 73.5,61C 116.5,60.3333 159.5,60.3333 202.5,61C 210.169,63.8344 214.336,69.3344 215,77.5C 215.5,85.1594 215.666,92.8261 215.5,100.5C 247.5,100.5 279.5,100.5 311.5,100.5C 311.334,90.8276 311.5,81.1609 312,71.5C 313.406,66.4268 316.572,62.9268 321.5,61C 381.833,60.3333 442.167,60.3333 502.5,61C 506.685,62.6878 509.685,65.5212 511.5,69.5 Z"/></g>
<g><path style="opacity:1" fill="#fcde75" d="M 327.5,76.5 C 383.5,76.5 439.5,76.5 495.5,76.5C 495.5,113.5 495.5,150.5 495.5,187.5C 488.833,187.5 482.167,187.5 475.5,187.5C 476.62,173.358 472.287,161.191 462.5,151C 456.611,146.226 450.277,142.226 443.5,139C 454.033,114.927 447.7,96.9268 424.5,85C 404.879,79.6461 389.712,85.4795 379,102.5C 372.725,115.094 373.225,127.427 380.5,139.5C 358.469,147.872 347.469,163.872 347.5,187.5C 340.833,187.5 334.167,187.5 327.5,187.5C 327.5,150.5 327.5,113.5 327.5,76.5 Z"/></g>
<g><path style="opacity:1" fill="#6af1bf" d="M 78.5,76.5 C 118.168,76.3333 157.835,76.5 197.5,77C 198.659,97.0935 198.826,117.26 198,137.5C 171.572,138.329 145.072,138.829 118.5,139C 117.333,140.167 116.167,141.333 115,142.5C 114.824,145.882 114.324,149.215 113.5,152.5C 108.02,148.188 102.687,143.688 97.5,139C 91.1667,138.667 84.8333,138.333 78.5,138C 77.1722,117.5 77.1722,97 78.5,76.5 Z"/></g>
<g><path style="opacity:1" fill="#010302" d="M 94.5,86.5 C 113.836,86.3334 133.17,86.5 152.5,87C 160.393,91.9105 160.393,96.9105 152.5,102C 133.167,102.667 113.833,102.667 94.5,102C 87.8601,96.7054 87.8601,91.5388 94.5,86.5 Z"/></g>
<g><path style="opacity:1" fill="#040806" d="M 171.5,86.5 C 176.37,86.0316 181.036,86.6982 185.5,88.5C 189.952,94.0677 188.952,98.5677 182.5,102C 178.044,102.867 173.711,102.534 169.5,101C 165.062,95.3731 165.729,90.5398 171.5,86.5 Z"/></g>
<g><path style="opacity:0.999" fill="#fcccbd" d="M 407.5,98.5 C 419.405,97.5304 427.572,102.53 432,113.5C 433.324,134.84 423.491,143.34 402.5,139C 391.24,131.797 388.073,121.963 393,109.5C 396.514,104.003 401.348,100.337 407.5,98.5 Z"/></g>
<g><path style="opacity:1" fill="#010403" d="M 94.5,112.5 C 123.835,112.333 153.169,112.5 182.5,113C 190.408,117.858 190.408,122.858 182.5,128C 153.167,128.667 123.833,128.667 94.5,128C 87.8448,122.657 87.8448,117.49 94.5,112.5 Z"/></g>
<g><path style="opacity:1" fill="#cfdeee" d="M 460.5,330.5 C 460.5,349.833 460.5,369.167 460.5,388.5C 323.833,388.5 187.167,388.5 50.5,388.5C 50.5,299.5 50.5,210.5 50.5,121.5C 50.8588,119.629 51.8588,118.129 53.5,117C 56.146,116.503 58.8127,116.336 61.5,116.5C 61.3333,199.501 61.5,282.501 62,365.5C 62.9572,371.127 66.1239,374.96 71.5,377C 193.5,377.667 315.5,377.667 437.5,377C 442.389,376.444 445.889,373.944 448,369.5C 449.422,356.561 449.922,343.561 449.5,330.5C 453.167,330.5 456.833,330.5 460.5,330.5 Z"/></g>
<g><path style="opacity:1" fill="#cfdfee" d="M 311.5,116.5 C 311.5,120.167 311.5,123.833 311.5,127.5C 279.167,127.5 246.833,127.5 214.5,127.5C 214.5,123.833 214.5,120.167 214.5,116.5C 246.833,116.5 279.167,116.5 311.5,116.5 Z"/></g>
<g><path style="opacity:0.765" fill="#99a3af" d="M 311.5,116.5 C 312.483,120.298 312.817,124.298 312.5,128.5C 279.662,128.832 246.996,128.498 214.5,127.5C 246.833,127.5 279.167,127.5 311.5,127.5C 311.5,123.833 311.5,120.167 311.5,116.5 Z"/></g>
<g><path style="opacity:0.998" fill="#827582" d="M 212.5,144.5 C 245.5,144.5 278.5,144.5 311.5,144.5C 311.168,202.336 311.501,260.002 312.5,317.5C 313.494,323.995 317.161,328.162 323.5,330C 360.165,330.5 396.832,330.667 433.5,330.5C 433.5,340.833 433.5,351.167 433.5,361.5C 388.167,361.5 342.833,361.5 297.5,361.5C 299.373,343.315 294.873,326.982 284,312.5C 271.62,300.686 256.786,295.519 239.5,297C 235.131,295.733 231.297,293.567 228,290.5C 226.813,288.956 226.48,287.289 227,285.5C 234.99,278.521 240.157,269.854 242.5,259.5C 252.342,260.156 258.842,255.822 262,246.5C 262.667,239.833 262.667,233.167 262,226.5C 260.117,221.115 256.617,217.115 251.5,214.5C 251.086,205.845 249.253,197.512 246,189.5C 239.968,181.143 233.968,172.81 228,164.5C 223.326,160.247 217.826,157.747 211.5,157C 197.792,156.116 184.125,156.449 170.5,158C 152.617,163.883 141.784,176.05 138,194.5C 137.831,201.191 137.331,207.858 136.5,214.5C 131.383,217.115 127.883,221.115 126,226.5C 125.333,232.833 125.333,239.167 126,245.5C 128.717,255.378 135.217,260.045 145.5,259.5C 147.843,269.854 153.01,278.521 161,285.5C 161.52,287.289 161.187,288.956 160,290.5C 157.436,292.727 154.603,294.561 151.5,296C 108.355,296.399 88.0221,318.232 90.5,361.5C 86.1667,361.5 81.8333,361.5 77.5,361.5C 77.5,292.5 77.5,223.5 77.5,154.5C 82.1785,154.334 86.8452,154.501 91.5,155C 99.4623,161.294 107.129,167.96 114.5,175C 118.411,178.597 122.744,179.263 127.5,177C 128.46,175.581 129.293,174.081 130,172.5C 130.499,166.509 130.666,160.509 130.5,154.5C 153.502,154.667 176.502,154.5 199.5,154C 205.142,152.512 209.475,149.345 212.5,144.5 Z"/></g>
<g><path style="opacity:0.761" fill="#605660" d="M 212.5,144.5 C 245.662,143.502 278.996,143.168 312.5,143.5C 312.5,201.5 312.5,259.5 312.5,317.5C 311.501,260.002 311.168,202.336 311.5,144.5C 278.5,144.5 245.5,144.5 212.5,144.5 Z"/></g>
<g><path style="opacity:1" fill="#81ade1" d="M 385.5,154.5 C 394.091,154.306 402.591,154.972 411,156.5C 417.333,155.833 423.667,155.167 430,154.5C 449.98,156.317 460.147,167.317 460.5,187.5C 428.167,187.5 395.833,187.5 363.5,187.5C 362.942,171.086 370.276,160.086 385.5,154.5 Z"/></g>
<g><path style="opacity:0.999" fill="#fb0000" d="M 175.5,172.5 C 188.574,172.057 201.574,172.557 214.5,174C 217.507,176.507 219.507,179.674 220.5,183.5C 228.504,189.181 233.171,196.848 234.5,206.5C 229.933,206.256 225.599,205.09 221.5,203C 217.188,199.019 213.188,194.686 209.5,190C 208.333,189.833 207.167,189.667 206,189.5C 195.734,194.379 185.234,198.879 174.5,203C 167.664,205.143 160.664,206.31 153.5,206.5C 152.464,189.571 159.797,178.238 175.5,172.5 Z"/></g>
<g><path style="opacity:0.999" fill="#e9b876" d="M 327.5,203.5 C 383.5,203.5 439.5,203.5 495.5,203.5C 495.5,240.5 495.5,277.5 495.5,314.5C 488.833,314.5 482.167,314.5 475.5,314.5C 476.62,300.358 472.287,288.191 462.5,278C 456.611,273.226 450.277,269.226 443.5,266C 453.197,246.306 449.53,229.639 432.5,216C 410.531,204.799 392.698,209.299 379,229.5C 372.725,242.094 373.225,254.427 380.5,266.5C 358.469,274.872 347.469,290.872 347.5,314.5C 340.833,314.5 334.167,314.5 327.5,314.5C 327.5,277.5 327.5,240.5 327.5,203.5 Z"/></g>
<g><path style="opacity:0.999" fill="#fdcdbe" d="M 202.5,207.5 C 209.435,215.302 218.102,219.969 228.5,221.5C 228.666,231.839 228.5,242.172 228,252.5C 222.453,274.541 208.286,284.041 185.5,281C 171.9,277.067 163.4,268.233 160,254.5C 159.5,243.505 159.333,232.505 159.5,221.5C 175.088,220.415 189.421,215.748 202.5,207.5 Z"/></g>
<g><path style="opacity:0.999" fill="#fccbbc" d="M 407.5,225.5 C 419.405,224.53 427.572,229.53 432,240.5C 434.6,256.734 427.767,266.067 411.5,268.5C 399.028,266.362 392.028,259.029 390.5,246.5C 391.423,235.584 397.09,228.584 407.5,225.5 Z"/></g>
<g><path style="opacity:0.966" fill="#fcccbd" d="M 141.5,229.5 C 142.805,231.397 143.471,233.731 143.5,236.5C 143.167,238.833 142.833,241.167 142.5,243.5C 141.507,238.88 141.173,234.214 141.5,229.5 Z"/></g>
<g><path style="opacity:0.953" fill="#fbcbbc" d="M 244.5,229.5 C 245.805,231.397 246.471,233.731 246.5,236.5C 246.167,238.833 245.833,241.167 245.5,243.5C 244.507,238.88 244.173,234.214 244.5,229.5 Z"/></g>
<g><path style="opacity:1" fill="#81ade1" d="M 385.5,281.5 C 394.091,281.306 402.591,281.972 411,283.5C 417.333,282.833 423.667,282.167 430,281.5C 449.98,283.317 460.147,294.317 460.5,314.5C 428.167,314.5 395.833,314.5 363.5,314.5C 362.942,298.086 370.276,287.086 385.5,281.5 Z"/></g>
<g><path style="opacity:0.964" fill="#f2c3b5" d="M 189.5,298.5 C 191.966,297.366 194.633,297.199 197.5,298C 196.333,299.167 195.167,300.333 194,301.5C 192.729,300.117 191.229,299.117 189.5,298.5 Z"/></g>
<g><path style="opacity:0.988" fill="#dcdddd" d="M 169.5,302.5 C 172.268,304.087 174.935,305.92 177.5,308C 179.329,309.113 180.163,310.613 180,312.5C 178.29,313.945 176.456,314.778 174.5,315C 172.5,311.333 170.5,307.667 168.5,304C 169.056,303.617 169.389,303.117 169.5,302.5 Z"/></g>
<g><path style="opacity:0.989" fill="#dcddde" d="M 216.5,302.5 C 218.344,303.204 218.844,304.537 218,306.5C 216.654,309.87 214.821,312.87 212.5,315.5C 210.611,314.396 208.945,313.063 207.5,311.5C 210.727,308.721 213.727,305.721 216.5,302.5 Z"/></g>
<g><path style="opacity:0.998" fill="#e9eaeb" d="M 152.5,311.5 C 153.675,311.281 154.675,311.614 155.5,312.5C 159.039,319.745 162.706,326.911 166.5,334C 170.799,336.105 174.966,335.939 179,333.5C 179.772,333.645 180.439,333.978 181,334.5C 179.96,343.541 178.46,352.541 176.5,361.5C 153.167,361.5 129.833,361.5 106.5,361.5C 103.617,327.726 118.95,311.059 152.5,311.5 Z"/></g>
<g><path style="opacity:0.999" fill="#e9eaeb" d="M 232.5,311.5 C 267.722,309.721 284.055,326.388 281.5,361.5C 258.167,361.5 234.833,361.5 211.5,361.5C 209.775,352.481 208.275,343.481 207,334.5C 207.667,333.833 208.333,333.167 209,332.5C 212.664,337.124 216.831,337.624 221.5,334C 225.578,326.678 229.245,319.178 232.5,311.5 Z"/></g>
<g><path style="opacity:0.753" fill="#929da9" d="M 50.5,121.5 C 50.5,210.5 50.5,299.5 50.5,388.5C 187.167,388.5 323.833,388.5 460.5,388.5C 460.5,369.167 460.5,349.833 460.5,330.5C 461.497,349.993 461.83,369.66 461.5,389.5C 324.167,389.5 186.833,389.5 49.5,389.5C 49.1673,299.998 49.5006,210.665 50.5,121.5 Z"/></g>
<g><path style="opacity:0.968" fill="#749bcb" d="M 193.5,354.5 C 194.924,356.515 195.59,358.848 195.5,361.5C 194.5,361.5 193.5,361.5 192.5,361.5C 192.674,359.139 193.007,356.806 193.5,354.5 Z"/></g>
<g><path style="opacity:0.997" fill="#dae7f7" d="M 15.5,404.5 C 62.1679,404.333 108.835,404.5 155.5,405C 159.665,416.498 167.665,423.831 179.5,427C 204.5,427.167 229.5,427.333 254.5,427.5C 281.206,427.645 307.872,427.145 334.5,426C 344.833,422.333 351.833,415.333 355.5,405C 402.165,404.5 448.832,404.333 495.5,404.5C 495.891,411.921 495.391,419.254 494,426.5C 492.01,430.49 488.843,432.99 484.5,434C 331.833,434.667 179.167,434.667 26.5,434C 22.1571,432.99 18.9904,430.49 17,426.5C 15.6095,419.254 15.1095,411.921 15.5,404.5 Z"/></g>
<g><path style="opacity:1" fill="#c4d2e1" d="M 173.5,404.5 C 228.171,404.167 282.837,404.5 337.5,405.5C 335.707,408.566 333.04,410.4 329.5,411C 279.833,411.667 230.167,411.667 180.5,411C 176.992,409.988 174.658,407.822 173.5,404.5 Z"/></g>
</svg>
