<svg width="53" height="53" viewBox="0 0 53 53" fill="none" xmlns="http://www.w3.org/2000/svg">
<circle cx="26.5" cy="26.5" r="26.5" fill="#00BC41"/>
<path fill-rule="evenodd" clip-rule="evenodd" d="M26.1548 15.0269C20.9124 15.0269 16.6624 19.2634 16.6624 24.4893C16.6624 31.6974 22.7065 31.2848 22.7065 36.8389V39.1365H29.603V36.6721C29.603 31.8546 35.6471 31.3514 35.6471 24.4893C35.6471 19.2634 31.3972 15.0269 26.1548 15.0269Z" fill="white"/>
<path d="M27.9426 43.6827C27.9426 44.2962 27.1397 44.7936 26.1491 44.7936C25.1588 44.7936 24.3557 44.2962 24.3557 43.6827C24.3557 43.0691 25.1586 42.5718 26.1491 42.5718C27.1397 42.5718 27.9426 43.0691 27.9426 43.6827Z" fill="white"/>
<path d="M28.3696 44.0109H23.9287C23.2576 44.0109 22.7135 43.4667 22.7135 42.7955V39.7839H29.5848V42.7955C29.5848 43.4667 29.0408 44.0109 28.3696 44.0109Z" fill="white"/>
<path d="M29.6241 40.5445H22.6786C22.5379 40.5445 22.4239 40.4305 22.4239 40.2898V40.0384C22.4239 39.8978 22.5379 39.7837 22.6786 39.7837H29.6241C29.7647 39.7837 29.8787 39.8978 29.8787 40.0384V40.2898C29.8787 40.4305 29.7647 40.5445 29.6241 40.5445Z" fill="white"/>
<path d="M29.6241 41.9753H22.6786C22.5379 41.9753 22.4239 41.8612 22.4239 41.7206V41.4692C22.4239 41.3286 22.5379 41.2145 22.6786 41.2145H29.6241C29.7647 41.2145 29.8787 41.3286 29.8787 41.4692V41.7206C29.8787 41.8614 29.7647 41.9753 29.6241 41.9753Z" fill="white"/>
<path d="M29.1549 43.4129H23.1631C23.0225 43.4129 22.9084 43.2989 22.9084 43.1582V42.9068C22.9084 42.7662 23.0225 42.6521 23.1631 42.6521H29.1549C29.2955 42.6521 29.4096 42.7662 29.4096 42.9068V43.1582C29.4096 43.2991 29.2955 43.4129 29.1549 43.4129Z" fill="white"/>
<path d="M37.0221 31.5835L38.7271 32.4504C38.9347 32.5559 39.1894 32.4758 39.2966 32.2727C39.4041 32.0691 39.3234 31.8191 39.1162 31.7136L37.4111 30.8467C36.9149 30.5947 36.5268 31.3315 37.0221 31.5835Z" fill="white"/>
<path d="M14.7935 30.775L13.175 31.792C12.7043 32.0879 13.1601 32.7864 13.63 32.4905L15.2485 31.4736C15.7194 31.1774 15.263 30.4789 14.7935 30.775Z" fill="white"/>
<path d="M11.4375 25.3266L13.356 25.2401C13.9283 25.2143 13.8587 24.37 13.3179 24.4116L11.3994 24.4982C10.8282 24.5238 10.8953 25.3672 11.4375 25.3266Z" fill="white"/>
<path d="M13.1875 18.0427L14.8925 18.9096C15.1001 19.0151 15.3548 18.935 15.462 18.7319C15.5695 18.5283 15.4888 18.2781 15.2816 18.1728L13.5766 17.3059C13.0824 17.0545 12.6901 17.7896 13.1875 18.0427Z" fill="white"/>
<path d="M19.4455 14.1786C19.5707 14.3714 19.8318 14.428 20.0289 14.3044C20.2253 14.1807 20.2828 13.9243 20.1574 13.7315L19.1232 12.1432C18.8238 11.6822 18.1098 12.1269 18.4113 12.5903L19.4455 14.1786Z" fill="white"/>
<path d="M26.2365 12.7096C26.4695 12.699 26.6499 12.5051 26.6396 12.2763L26.5533 10.3923C26.5277 9.84414 25.6844 9.88301 25.7092 10.4304L25.7955 12.3144C25.806 12.5408 26.0009 12.7203 26.2365 12.7096Z" fill="white"/>
<path d="M32.991 14.198L33.8757 12.5232C34.1323 12.0374 33.3845 11.6537 33.1257 12.1419L32.241 13.8167C31.9834 14.3041 32.7339 14.6846 32.991 14.198Z" fill="white"/>
<path d="M37.5101 18.9815L39.1286 17.9645C39.5995 17.6684 39.1431 16.9699 38.6735 17.266L37.055 18.2829C36.5843 18.5787 37.0402 19.2772 37.5101 18.9815Z" fill="white"/>
<path d="M38.9855 25.345L40.904 25.2584C41.4776 25.2326 41.4071 24.3804 40.8659 24.4298L38.9474 24.5163C38.3761 24.5423 38.4433 25.3858 38.9855 25.345Z" fill="white"/>
</svg>
