<svg width="67" height="67" viewBox="0 0 67 67" fill="none" xmlns="http://www.w3.org/2000/svg">
<circle cx="33.5" cy="33.5" r="33.5" fill="#E70000"/>
<g clip-path="url(#clip0_47_9)">
<path d="M27.2041 28.7186C27.296 27.0808 27.2089 25.5063 27.5083 24.0104C28.051 21.2967 30.8184 19.4382 33.544 19.734C36.4473 20.0477 38.6683 22.4287 38.7137 25.2915C38.7316 26.4057 38.716 27.5198 38.716 28.6781C39.6548 28.9906 40.6246 29.3115 41.5931 29.6347C42.7692 30.0284 43.0436 30.3826 42.9959 31.6244C42.7669 37.603 40.3574 42.5259 35.7948 46.3931C35.1817 46.912 34.5662 47.4285 33.9388 47.9307C33.3698 48.3852 32.7102 48.4353 32.171 48.0023C30.2554 46.4659 28.3528 44.9152 26.8869 42.9064C24.3724 39.4603 23.0734 35.6121 23.0078 31.3477C22.9947 30.4638 23.3394 29.9985 24.1732 29.7242C25.2145 29.3795 26.2559 29.0323 27.2041 28.7186ZM33.0191 44.9856C33.3364 44.7231 33.6346 44.4786 33.9305 44.2305C37.5697 41.1637 39.6536 37.2797 40.0866 32.525C40.1116 32.253 40.0532 32.1314 39.7884 32.0443C37.6461 31.3393 35.5097 30.6141 33.3651 29.9162C33.1468 29.8447 32.8641 29.8494 32.6434 29.921C30.9925 30.4566 29.3488 31.0172 27.7039 31.5695C27.1039 31.7711 26.504 31.9703 25.8873 32.1767C26.3179 37.5493 28.7465 41.7553 33.0191 44.9856ZM35.8592 27.7214C35.8592 26.8792 35.8759 26.1075 35.8557 25.3369C35.8187 23.8959 34.6831 22.703 33.2565 22.579C31.818 22.4549 30.4522 23.4068 30.2423 24.8418C30.1063 25.7663 30.2172 26.7265 30.2172 27.7023C30.8327 27.4983 31.4768 27.3194 32.0923 27.0737C32.7245 26.8208 33.3197 26.8327 33.9472 27.0808C34.5507 27.3194 35.1793 27.4971 35.8592 27.7214Z" fill="url(#paint0_linear_47_9)"/>
<path d="M44.3616 20.6336C46.4216 18.5711 48.4423 16.5516 50.4557 14.5249C50.8517 14.1265 51.3026 13.9166 51.8609 14.0311C52.9571 14.253 53.3746 15.5687 52.6064 16.4061C52.1746 16.8773 51.707 17.3162 51.2549 17.7683C49.74 19.2844 48.224 20.7994 46.7103 22.3143C46.6077 22.4169 46.5111 22.5254 46.3882 22.6554C46.4956 22.7258 46.5815 22.7783 46.6626 22.8356C47.1743 23.1994 47.3961 23.7887 47.2387 24.3588C47.0717 24.96 46.5683 25.4038 45.9504 25.4181C44.9389 25.4408 43.9262 25.4455 42.9147 25.4169C42.1656 25.3954 41.5919 24.774 41.5788 24.0069C41.5645 23.0849 41.5716 22.1616 41.5764 21.2395C41.58 20.4868 41.9652 19.956 42.632 19.7664C43.2463 19.5922 43.832 19.8391 44.2328 20.4427C44.265 20.4904 44.2972 20.5369 44.3616 20.6336Z" fill="url(#paint1_linear_47_9)"/>
<path d="M19.6335 22.6435C17.5747 20.5858 15.56 18.5652 13.5358 16.554C13.1267 16.146 12.912 15.6844 13.0432 15.1095C13.2889 14.0359 14.576 13.6375 15.399 14.3866C15.838 14.7862 16.2447 15.2216 16.6658 15.6427C18.3155 17.2924 19.9651 18.9421 21.6422 20.6192C21.7281 20.4964 21.7985 20.3902 21.8748 20.2888C22.2327 19.8141 22.8255 19.6101 23.379 19.7699C23.9599 19.9369 24.4048 20.4284 24.4203 21.0236C24.4465 22.0483 24.4513 23.0753 24.4215 24.1C24.4 24.8479 23.775 25.4133 23.0056 25.4265C22.0848 25.4408 21.1627 25.4348 20.2407 25.4288C19.4987 25.4253 18.956 25.028 18.7699 24.3684C18.597 23.7553 18.8451 23.1708 19.4486 22.77C19.4963 22.7378 19.5429 22.7056 19.6335 22.6435Z" fill="url(#paint2_linear_47_9)"/>
<path d="M21.6527 47.3701C19.7144 49.3085 17.813 51.2111 15.9105 53.1137C15.7423 53.2819 15.5801 53.4561 15.4023 53.6147C14.8119 54.1408 13.9733 54.1253 13.4282 53.5849C12.87 53.0302 12.8473 52.163 13.4139 51.5809C14.3574 50.6123 15.3224 49.6628 16.2791 48.7073C17.3836 47.6051 18.4894 46.5053 19.6297 45.3685C19.5021 45.279 19.3983 45.2099 19.2993 45.1359C18.8222 44.7792 18.6134 44.1864 18.7673 43.6353C18.9319 43.0484 19.4138 42.6023 20.0114 42.5856C21.0515 42.557 22.0929 42.5498 23.1318 42.5868C23.8737 42.613 24.4177 43.2512 24.426 44.0313C24.4368 44.9534 24.4344 45.8743 24.4272 46.7964C24.4212 47.5109 24.0264 48.0417 23.3787 48.229C22.7644 48.4079 22.1752 48.1634 21.7756 47.5658C21.7481 47.518 21.7171 47.4703 21.6527 47.3701Z" fill="url(#paint3_linear_47_9)"/>
<path d="M44.3866 47.3356C44.2841 47.4859 44.2364 47.5575 44.1874 47.6279C43.8141 48.1683 43.2201 48.3997 42.638 48.2339C42.0034 48.0526 41.5871 47.5265 41.5799 46.8513C41.5692 45.8994 41.5656 44.9464 41.5811 43.9945C41.5943 43.1845 42.1907 42.5905 43.0006 42.5762C43.8785 42.5618 44.7564 42.5714 45.6343 42.5726C46.4979 42.5738 47.0395 42.9328 47.2387 43.6354C47.4212 44.2807 47.1516 44.8509 46.3906 45.3436C46.5003 45.4617 46.6005 45.5762 46.7079 45.6824C48.6438 47.6195 50.5833 49.5508 52.5133 51.4939C53.3662 52.3528 53.0358 53.6828 51.9109 53.9572C51.336 54.0979 50.8696 53.8892 50.4617 53.4788C48.5615 51.5703 46.6542 49.6677 44.7516 47.7615C44.6336 47.6458 44.5357 47.5134 44.3866 47.3356Z" fill="url(#paint4_linear_47_9)"/>
<path d="M34.429 36.1573C34.4279 36.4245 34.4446 36.6941 34.4255 36.9601C34.3718 37.708 33.742 38.2865 33.0001 38.2841C32.2605 38.283 31.6212 37.6985 31.583 36.9517C31.5567 36.4173 31.5579 35.8805 31.5818 35.3461C31.6152 34.5923 32.2378 34.0101 32.9834 34.0006C33.742 33.9911 34.3813 34.5839 34.4267 35.3533C34.4434 35.6217 34.4302 35.8901 34.429 36.1573Z" fill="url(#paint5_linear_47_9)"/>
</g>
<defs>
<linearGradient id="paint0_linear_47_9" x1="23.0066" y1="34.0018" x2="43.0014" y2="34.0018" gradientUnits="userSpaceOnUse">
<stop stop-color="#E0FBFF"/>
<stop offset="0.9804" stop-color="white"/>
</linearGradient>
<linearGradient id="paint1_linear_47_9" x1="41.5712" y1="19.719" x2="53.0001" y2="19.719" gradientUnits="userSpaceOnUse">
<stop stop-color="#E0FBFF"/>
<stop offset="0.9804" stop-color="white"/>
</linearGradient>
<linearGradient id="paint2_linear_47_9" x1="13.0048" y1="19.7172" x2="24.4422" y2="19.7172" gradientUnits="userSpaceOnUse">
<stop stop-color="#E0FBFF"/>
<stop offset="0.9804" stop-color="white"/>
</linearGradient>
<linearGradient id="paint3_linear_47_9" x1="13" y1="48.2808" x2="24.4369" y2="48.2808" gradientUnits="userSpaceOnUse">
<stop stop-color="#E0FBFF"/>
<stop offset="0.9804" stop-color="white"/>
</linearGradient>
<linearGradient id="paint4_linear_47_9" x1="41.5699" y1="48.2842" x2="52.9935" y2="48.2842" gradientUnits="userSpaceOnUse">
<stop stop-color="#E0FBFF"/>
<stop offset="0.9804" stop-color="white"/>
</linearGradient>
<linearGradient id="paint5_linear_47_9" x1="31.5646" y1="36.143" x2="34.4351" y2="36.143" gradientUnits="userSpaceOnUse">
<stop stop-color="#E0FBFF"/>
<stop offset="0.9804" stop-color="white"/>
</linearGradient>
<clipPath id="clip0_47_9">
<rect width="40" height="40" fill="white" transform="translate(13 14)"/>
</clipPath>
</defs>
</svg>
