<svg width="67" height="67" viewBox="0 0 67 67" fill="none" xmlns="http://www.w3.org/2000/svg">
<circle cx="33.5" cy="33.5" r="33.5" fill="#E70000"/>
<g clip-path="url(#clip0_47_11)">
<path d="M35.2605 14C36.0427 14.1481 36.8402 14.2405 37.6034 14.4558C40.3264 15.2223 42.4602 16.8224 44.0163 19.1776C45.3129 21.1396 45.8959 23.3169 45.8677 25.663C45.8662 25.8027 45.8708 25.9424 45.8753 26.0813C45.8761 26.105 45.8914 26.1287 45.8891 26.121C46.3554 26.2531 46.8301 26.3203 47.2437 26.5165C48.4075 27.0685 49.057 28.0281 49.0982 29.3107C49.1272 30.2169 49.1249 31.1513 48.9341 32.0292C48.6609 33.2874 47.507 34.1462 46.2127 34.2791C46.1134 34.289 46.015 34.3134 45.8929 34.3348C45.8547 34.7287 45.8318 35.1173 45.7784 35.5013C45.1679 39.8789 41.6024 43.0922 37.1844 43.2494C36.8929 43.2601 36.6006 43.2593 36.3091 43.2571C35.6871 43.2525 35.4467 43.0532 35.3139 42.4432C35.1994 41.9149 34.9567 41.6668 34.5385 41.6485C34.1287 41.6302 33.8005 41.8897 33.7235 42.2928C33.6464 42.6959 33.8502 43.0616 34.2348 43.1952C34.3416 43.2319 34.4569 43.2448 34.5683 43.2677C35.0598 43.37 35.3345 43.6991 35.2933 44.1358C35.2498 44.5976 34.9048 44.8786 34.3966 44.8671C33.3434 44.8427 32.4108 44.0854 32.1414 43.0341C31.8812 42.018 32.3406 40.8988 33.2366 40.3698C34.4836 39.633 36.0145 40.0728 36.6769 41.3691C36.7662 41.5447 36.8395 41.647 37.0661 41.634C40.0837 41.4638 42.2701 40.0361 43.5935 37.3168C44.0666 36.3434 44.2483 35.2952 44.249 34.215C44.249 32.9454 44.2467 31.6758 44.2506 30.4054C44.2521 29.9138 44.4665 29.587 44.8344 29.484C45.3518 29.3389 45.8357 29.6832 45.8578 30.2512C45.883 30.9108 45.8669 31.5712 45.8692 32.2316C45.87 32.369 45.8692 32.5056 45.8692 32.6392C46.6133 32.7056 47.3643 32.1583 47.4375 31.407C47.5116 30.6421 47.5108 29.8588 47.436 29.0938C47.3643 28.3594 46.6873 27.867 45.8578 27.8159C45.6174 27.8013 45.3755 27.8181 45.1343 27.8082C44.5726 27.7853 44.2689 27.4861 44.2528 26.9257C44.2399 26.4814 44.2574 26.0371 44.249 25.5927C44.1689 21.3557 42.2343 18.2821 38.4116 16.4583C34.8575 14.7627 30.1946 15.7215 27.4815 18.6226C25.653 20.5777 24.7509 22.8894 24.7509 25.5614C24.7517 28.1136 24.7517 30.6658 24.7509 33.2179C24.7509 34.031 24.4648 34.3127 23.6589 34.3257C22.7255 34.3402 21.8418 34.2081 21.0893 33.5851C20.3307 32.9568 19.9255 32.1483 19.8903 31.1765C19.8644 30.455 19.8545 29.7252 19.9346 29.0099C20.0995 27.5357 21.2213 26.4447 22.695 26.2386C22.8308 26.2195 22.9651 26.1943 23.0918 26.1737C23.1384 25.4065 23.1414 24.656 23.2361 23.917C23.8649 19.0043 27.651 15.0375 32.5016 14.187C32.9122 14.1153 33.3259 14.0626 33.738 14.0008C34.2447 14 34.753 14 35.2605 14ZM23.1117 27.8533C22.3164 27.8662 21.6327 28.3663 21.564 29.0893C21.4899 29.8657 21.4861 30.6619 21.5678 31.4368C21.6472 32.1896 22.4645 32.7545 23.1117 32.6171C23.1117 31.0383 23.1117 29.458 23.1117 27.8533Z" fill="url(#paint0_linear_47_11)"/>
<path d="M15 21.7719C15.1694 20.9474 15.4922 20.2122 16.1592 19.6533C16.7698 19.1411 17.4749 18.8922 18.2564 18.8823C19.5752 18.8647 20.8947 18.8724 22.2142 18.88C22.695 18.8823 23.001 19.1197 23.085 19.5152C23.1674 19.9022 22.9941 20.2801 22.6332 20.416C22.4615 20.4809 22.2623 20.4931 22.0753 20.4946C20.8832 20.5015 19.6904 20.4954 18.4976 20.4985C17.2635 20.5015 16.621 21.1436 16.6202 22.3811C16.6187 29.7925 16.6187 37.2032 16.6202 44.6146C16.6202 45.7773 17.1002 46.3346 18.2496 46.5186C18.812 46.6087 19.099 46.9415 19.0387 47.4339C18.9822 47.8973 18.5731 48.1752 18.0282 48.1203C16.4615 47.9622 15.3785 46.9759 15.0588 45.4185C15.0466 45.3582 15.0198 45.3001 15 45.2413C15 37.4169 15 29.5948 15 21.7719Z" fill="url(#paint1_linear_47_11)"/>
<path d="M22.3119 50.2324C23.4429 49.1018 24.509 48.0513 25.5546 46.981C25.8797 46.6481 26.233 46.5069 26.6993 46.5076C34.595 46.5168 42.49 46.5153 50.3857 46.5107C50.6627 46.5107 50.9489 46.497 51.2145 46.4267C51.9456 46.2336 52.3722 45.5908 52.376 44.7052C52.3821 43.4478 52.3775 42.1912 52.3775 40.9338C52.3775 34.7752 52.379 28.6166 52.3737 22.458C52.3737 22.1816 52.3546 21.8945 52.2798 21.6304C52.0745 20.9082 51.451 20.502 50.5772 20.4967C49.3966 20.4898 48.216 20.4952 47.0354 20.4944C46.9209 20.4944 46.8064 20.4967 46.6927 20.4883C46.2104 20.4532 45.8883 20.1379 45.8815 19.6974C45.8746 19.2653 46.1982 18.8912 46.6713 18.8859C48.1053 18.8706 49.5446 18.8141 50.9725 18.9103C52.7927 19.0324 53.9802 20.4081 53.9954 22.245C54.0031 23.1718 53.997 24.0986 53.997 25.0262C53.997 31.5787 53.9977 38.1305 53.9962 44.683C53.9962 46.0878 53.4292 47.1879 52.1379 47.7872C51.6395 48.0185 51.0382 48.1185 50.4833 48.12C42.7151 48.1406 34.9461 48.136 27.1778 48.1284C26.8527 48.1284 26.6169 48.2086 26.3811 48.4483C25.0295 49.8255 23.6589 51.1844 22.2936 52.5479C22.1951 52.6464 22.0967 52.7487 21.9837 52.8289C21.4327 53.219 20.7169 52.906 20.7062 52.2349C20.6802 50.5974 20.6879 48.959 20.7016 47.3215C20.7054 46.8367 21.0496 46.5244 21.4953 46.5237C21.9494 46.5229 22.292 46.8527 22.3035 47.3566C22.3218 48.1437 22.3088 48.9308 22.3096 49.7186C22.3119 49.8553 22.3119 49.9927 22.3119 50.2324Z" fill="url(#paint2_linear_47_11)"/>
<path d="M34.5011 17.2393C38.9305 17.2645 42.5518 20.8297 42.6197 25.2523C42.6273 25.7691 42.3236 26.1432 41.8649 26.1821C41.436 26.218 41.0895 25.8981 41.0018 25.3996C40.8682 24.6423 40.8232 23.8529 40.5736 23.1353C39.6281 20.4144 36.8853 18.6776 34.0005 18.8959C31.118 19.1143 28.666 21.2885 28.1249 24.1231C28.0348 24.5942 28.0272 25.0805 27.9547 25.5553C27.8982 25.9287 27.6296 26.1256 27.2755 26.1722C26.9313 26.2172 26.6459 26.0699 26.4917 25.7554C26.4169 25.6034 26.3803 25.4156 26.3834 25.2454C26.4604 21.2343 29.4093 17.9004 33.3671 17.3469C33.7426 17.2935 34.1234 17.2744 34.5011 17.2393Z" fill="url(#paint3_linear_47_11)"/>
<path d="M33.7052 36.761C33.7052 36.1953 33.7052 35.6838 33.7052 35.1494C34.2401 35.1494 34.7515 35.1494 35.3139 35.1494C35.3139 35.6426 35.3208 36.119 35.3048 36.5946C35.3025 36.6519 35.1796 36.7519 35.1102 36.7534C34.6568 36.7679 34.202 36.761 33.7052 36.761Z" fill="url(#paint4_linear_47_11)"/>
<path d="M32.0514 35.1509C32.0514 35.6883 32.0514 36.1922 32.0514 36.7297C31.524 36.7297 31.0043 36.7297 30.4632 36.7297C30.4632 36.2029 30.4632 35.6899 30.4632 35.1509C30.989 35.1509 31.5004 35.1509 32.0514 35.1509Z" fill="url(#paint5_linear_47_11)"/>
<path d="M38.523 36.7376C38.4162 36.7467 38.3185 36.7613 38.2208 36.762C37.8064 36.7643 37.3928 36.7628 36.9708 36.7628C36.9555 36.6788 36.9395 36.6315 36.9395 36.5841C36.9379 36.1169 36.9387 35.6497 36.9387 35.126C37.218 35.126 37.479 35.126 37.7393 35.126C37.9903 35.126 38.2407 35.126 38.5238 35.126C38.523 35.6756 38.523 36.1955 38.523 36.7376Z" fill="url(#paint6_linear_47_11)"/>
</g>
<defs>
<linearGradient id="paint0_linear_47_11" x1="19.871" y1="29.4343" x2="49.1127" y2="29.4343" gradientUnits="userSpaceOnUse">
<stop stop-color="#E0FBFF"/>
<stop offset="0.9804" stop-color="white"/>
</linearGradient>
<linearGradient id="paint1_linear_47_11" x1="15" y1="33.4985" x2="23.1048" y2="33.4985" gradientUnits="userSpaceOnUse">
<stop stop-color="#E0FBFF"/>
<stop offset="0.9804" stop-color="white"/>
</linearGradient>
<linearGradient id="paint2_linear_47_11" x1="20.691" y1="35.9288" x2="54.0003" y2="35.9288" gradientUnits="userSpaceOnUse">
<stop stop-color="#E0FBFF"/>
<stop offset="0.9804" stop-color="white"/>
</linearGradient>
<linearGradient id="paint3_linear_47_11" x1="26.3831" y1="21.7121" x2="42.6201" y2="21.7121" gradientUnits="userSpaceOnUse">
<stop stop-color="#E0FBFF"/>
<stop offset="0.9804" stop-color="white"/>
</linearGradient>
<linearGradient id="paint4_linear_47_11" x1="33.705" y1="35.9562" x2="35.315" y2="35.9562" gradientUnits="userSpaceOnUse">
<stop stop-color="#E0FBFF"/>
<stop offset="0.9804" stop-color="white"/>
</linearGradient>
<linearGradient id="paint5_linear_47_11" x1="30.463" y1="35.9404" x2="32.0511" y2="35.9404" gradientUnits="userSpaceOnUse">
<stop stop-color="#E0FBFF"/>
<stop offset="0.9804" stop-color="white"/>
</linearGradient>
<linearGradient id="paint6_linear_47_11" x1="36.9375" y1="35.9444" x2="38.5229" y2="35.9444" gradientUnits="userSpaceOnUse">
<stop stop-color="#E0FBFF"/>
<stop offset="0.9804" stop-color="white"/>
</linearGradient>
<clipPath id="clip0_47_11">
<rect width="39" height="39" fill="white" transform="translate(15 14)"/>
</clipPath>
</defs>
</svg>
