<svg width="67" height="67" viewBox="0 0 67 67" fill="none" xmlns="http://www.w3.org/2000/svg">
<circle cx="33.5" cy="33.5" r="33.5" fill="#E70000"/>
<g clip-path="url(#clip0_47_12)">
<path d="M14 53C14 52.4556 14 51.9112 14 51.324C15.571 51.324 17.1538 51.324 18.7365 51.324C18.7419 51.2973 18.7473 51.2716 18.7526 51.2449C18.6249 51.1903 18.4973 51.1368 18.3696 51.0812C16.6162 50.3218 15.4819 49.0758 15.3435 47.111C15.3081 46.6029 15.3735 46.0649 15.5087 45.5718C16.114 43.3621 16.7149 41.1502 17.4027 38.9651C18.1442 36.6099 19.5338 34.6836 21.5437 33.2172C22.4902 32.5262 23.5654 32.2139 24.7157 32.0973C25.4551 32.0225 26.1923 31.9209 27.0046 31.7369C26.9423 31.7134 26.8683 31.7037 26.82 31.6631C25.4733 30.5465 24.7136 29.1154 24.6481 27.3709C24.6009 26.1334 24.5891 24.8863 24.6824 23.652C24.9014 20.732 27.3844 18.4752 30.4084 18.3672C33.2552 18.2667 35.9508 20.3812 36.2995 23.2124C36.4981 24.8253 36.4294 26.4885 36.3081 28.1164C36.2073 29.4758 35.4518 30.5914 34.4324 31.5048C34.3358 31.5914 34.2403 31.6781 34.0955 31.8086C34.8681 31.8984 35.5752 32.0139 36.2867 32.0567C38.9769 32.2161 40.7947 33.7445 42.2852 35.8023C43.149 36.9949 43.7231 38.3158 44.1083 39.733C44.6041 41.5577 45.1406 43.3728 45.6589 45.1911C46.4283 47.8853 45.3874 50.0512 42.8067 51.1304C42.7262 51.1636 42.65 51.2064 42.5845 51.3016C46.6976 51.3016 50.8097 51.3016 54.9582 51.3016C54.9582 51.8877 54.9582 52.4428 54.9582 52.9979C41.3065 53 27.6538 53 14 53ZM22.37 50.9935C27.8942 50.9935 33.3851 50.9935 38.8867 50.9935C38.8867 47.3901 38.8867 43.8124 38.8867 40.2229C33.3668 40.2229 27.877 40.2229 22.37 40.2229C22.37 43.8167 22.37 47.3869 22.37 50.9935ZM40.6412 49.8673C40.8762 49.8394 41.0597 49.8255 41.2411 49.7945C43.1661 49.4683 44.8047 48.0982 43.9924 45.5633C43.37 43.6231 42.8592 41.6476 42.2959 39.6881C41.7797 37.8955 40.7871 36.4002 39.4082 35.1585C38.7665 34.5809 38.0562 34.0889 37.1816 33.9541C36.1118 33.7905 35.0365 33.6461 33.9581 33.5541C31.0007 33.3017 28.0508 33.3979 25.1085 33.7862C24.1169 33.9178 23.1673 34.121 22.3517 34.7584C20.7904 35.9788 19.6594 37.5094 19.0724 39.3929C18.391 41.5802 17.7826 43.791 17.1623 45.9965C16.8844 46.9869 17.0507 47.9099 17.7794 48.6736C18.5402 49.4715 19.521 49.7635 20.6488 49.8459C20.6488 49.6598 20.6488 49.5047 20.6488 49.3496C20.6488 46.3869 20.6477 43.4252 20.6488 40.4625C20.6488 39.1437 21.2958 38.4998 22.6168 38.4998C27.9564 38.4987 33.2971 38.4998 38.6367 38.4998C39.9984 38.4998 40.6423 39.1469 40.6423 40.5181C40.6433 43.4669 40.6423 46.4157 40.6423 49.3645C40.6412 49.5207 40.6412 49.6769 40.6412 49.8673ZM34.7833 25.6713C34.7608 25.6692 34.7393 25.6681 34.7168 25.666C34.7168 25.1462 34.7296 24.6253 34.7146 24.1055C34.6481 21.8733 32.7927 20.086 30.5479 20.0796C28.2912 20.0743 26.4283 21.8401 26.364 24.0766C26.3339 25.1291 26.3339 26.1847 26.3629 27.2372C26.4187 29.3197 28.0036 31.0096 30.08 31.2385C32.1489 31.4663 34.0912 30.1603 34.5622 28.1271C34.7447 27.3345 34.7157 26.4917 34.7833 25.6713Z" fill="url(#paint0_linear_47_12)"/>
<path d="M36.6204 18.7594C36.0774 18.7594 35.5473 18.7594 34.9786 18.7594C34.97 18.6246 34.955 18.4984 34.955 18.3711C34.9528 17.4502 34.9496 16.5293 34.955 15.6095C34.9657 13.4981 36.4573 12.005 38.5712 12.0029C42.826 11.9975 47.0807 11.9997 51.3365 12.0018C53.5009 12.0029 54.9828 13.4746 54.9925 15.6512C55.0032 18.0524 54.9968 20.4546 54.9946 22.8558C54.9946 23.5628 55.0139 24.272 54.9742 24.9768C54.8723 26.8058 53.4054 28.224 51.5619 28.2465C49.3674 28.2732 47.1719 28.2593 44.9775 28.2497C44.6995 28.2486 44.5085 28.3321 44.3143 28.5267C42.9419 29.9118 41.5565 31.2852 40.0918 32.7473C40.0918 31.1996 40.0918 29.7503 40.0918 28.2711C39.0241 28.2711 38.025 28.2711 36.997 28.2711C36.997 27.7021 36.997 27.163 36.997 26.594C38.5755 26.594 40.1583 26.594 41.784 26.594C41.784 27.2411 41.784 27.886 41.784 28.6583C42.2873 28.1567 42.7465 27.7716 43.1157 27.3138C43.6039 26.7074 44.1759 26.5245 44.9517 26.5459C47.0646 26.6026 49.1796 26.5662 51.2947 26.5651C52.5705 26.5641 53.2906 25.8549 53.2916 24.5896C53.2949 21.6141 53.2949 18.6385 53.2916 15.663C53.2906 14.4212 52.5662 13.7046 51.3172 13.7046C47.0882 13.7024 42.8592 13.7024 38.6302 13.7046C37.393 13.7056 36.6579 14.4404 36.6547 15.6715C36.6515 16.6587 36.6515 17.6459 36.6493 18.6332C36.6493 18.6578 36.6386 18.6845 36.6204 18.7594Z" fill="url(#paint1_linear_47_12)"/>
<path d="M50.4051 23.9344C49.8364 23.9344 49.2945 23.9344 48.7172 23.9344C48.7172 21.9524 48.7172 19.9962 48.7172 18.0057C48.1431 18.0057 47.6022 18.0057 47.0142 18.0057C47.0142 19.9769 47.0142 21.9578 47.0142 23.9643C46.4133 23.9643 45.8585 23.9643 45.2565 23.9643C45.2565 22.5386 45.2565 21.1331 45.2565 19.7085C44.6781 19.7085 44.148 19.7085 43.5771 19.7085C43.5771 21.1192 43.5771 22.5268 43.5771 23.9889C43.0342 23.9889 42.5287 24.0017 42.0265 23.975C41.9504 23.9707 41.828 23.7878 41.8227 23.683C41.8001 23.221 41.813 22.7578 41.813 22.2754C41.2357 22.2754 40.7056 22.2754 40.1304 22.2754C40.1304 22.8231 40.1304 23.3632 40.1304 23.9311C39.5445 23.9311 39.0037 23.9311 38.4339 23.9311C38.4339 22.8295 38.4339 21.7278 38.4339 20.5802C39.537 20.5802 40.6541 20.5802 41.8216 20.5802C41.8216 19.7053 41.8216 18.8731 41.8216 17.9854C42.9859 17.9854 44.1008 17.9854 45.264 17.9854C45.264 17.3918 45.264 16.8516 45.264 16.2837C47.0024 16.2837 48.6914 16.2837 50.4051 16.2837C50.4051 18.8389 50.4051 21.3791 50.4051 23.9344Z" fill="url(#paint2_linear_47_12)"/>
</g>
<defs>
<linearGradient id="paint0_linear_47_12" x1="14" y1="35.6818" x2="54.9598" y2="35.6818" gradientUnits="userSpaceOnUse">
<stop stop-color="#E0FBFF"/>
<stop offset="0.9804" stop-color="white"/>
</linearGradient>
<linearGradient id="paint1_linear_47_12" x1="34.9508" y1="22.3739" x2="54.9996" y2="22.3739" gradientUnits="userSpaceOnUse">
<stop stop-color="#E0FBFF"/>
<stop offset="0.9804" stop-color="white"/>
</linearGradient>
<linearGradient id="paint2_linear_47_12" x1="38.4337" y1="20.1386" x2="50.4047" y2="20.1386" gradientUnits="userSpaceOnUse">
<stop stop-color="#E0FBFF"/>
<stop offset="0.9804" stop-color="white"/>
</linearGradient>
<clipPath id="clip0_47_12">
<rect width="41" height="41" fill="white" transform="translate(14 12)"/>
</clipPath>
</defs>
</svg>
