<svg width="67" height="67" viewBox="0 0 67 67" fill="none" xmlns="http://www.w3.org/2000/svg">
<circle cx="33.5" cy="33.5" r="33.5" fill="#E70000"/>
<g clip-path="url(#clip0_47_7)">
<path d="M47.5518 37.1479C47.8547 36.8322 48.2091 36.4494 48.5781 36.0813C49.1463 35.5159 49.9158 35.4855 50.4295 35.9942C50.9411 36.5008 50.9169 37.2811 50.3582 37.8475C49.9913 38.2188 49.6076 38.5733 49.2847 38.8849C49.5447 39.5656 49.7669 40.1739 50.0154 40.7728C50.05 40.8578 50.202 40.9396 50.3026 40.9438C50.7733 40.9616 51.2451 40.9406 51.7147 40.9553C52.4842 40.9805 53.0136 41.5227 52.9989 42.2485C52.9843 42.9544 52.4517 43.4505 51.6843 43.4631C51.2262 43.4705 50.7681 43.4516 50.311 43.4747C50.2041 43.4799 50.05 43.5827 50.0101 43.6792C49.7627 44.2665 49.5415 44.8644 49.2815 45.5367C49.595 45.8409 49.9745 46.1996 50.3424 46.5698C50.9096 47.1404 50.9473 47.9029 50.442 48.4211C49.9263 48.9497 49.1484 48.9161 48.5645 48.3361C48.2028 47.9774 47.8484 47.6103 47.5308 47.2883C46.8651 47.5421 46.2445 47.7687 45.6344 48.0215C45.5515 48.0561 45.4781 48.2155 45.474 48.3204C45.4561 48.7777 45.4719 49.236 45.4645 49.6944C45.4519 50.4569 44.9487 50.9897 44.2422 51.0013C43.5198 51.0128 42.98 50.4768 42.9569 49.707C42.9433 49.2497 42.9684 48.7903 42.9433 48.333C42.937 48.2176 42.83 48.0498 42.7273 48.0057C42.1549 47.7593 41.5689 47.5432 40.8917 47.2799C40.6159 47.5673 40.2784 47.9292 39.9293 48.2795C39.3003 48.9099 38.5203 48.9644 37.993 48.4242C37.4699 47.8893 37.5265 47.131 38.144 46.5164C38.4952 46.1671 38.8579 45.8294 39.1671 45.5325C38.8652 44.8036 38.5958 44.1543 38.3096 43.4642C37.8305 43.4642 37.3095 43.4684 36.7885 43.4631C35.9854 43.4547 35.4193 42.9324 35.4214 42.2108C35.4235 41.4913 35.9938 40.9637 36.7927 40.9522C37.3147 40.9448 37.8358 40.9511 38.2949 40.9511C38.5832 40.3061 38.8568 39.7155 39.1063 39.1156C39.1399 39.0338 39.0854 38.8712 39.0172 38.7967C38.7059 38.4611 38.3725 38.1465 38.0528 37.8182C37.5171 37.2675 37.5003 36.4997 38.0066 35.9952C38.5119 35.4918 39.2751 35.5117 39.8286 36.0498C40.1568 36.3686 40.4671 36.7074 40.8088 37.0116C40.8906 37.085 41.0846 37.1018 41.1957 37.0609C41.7083 36.871 42.2147 36.6613 42.7105 36.4326C42.8185 36.3833 42.937 36.227 42.9443 36.1148C42.9716 35.6711 42.9496 35.2254 42.9569 34.7807C42.9695 33.9846 43.5041 33.4119 44.2212 33.4151C44.9435 33.4182 45.4582 33.9835 45.4666 34.7901C45.4708 35.2348 45.4572 35.6806 45.4761 36.1243C45.4802 36.2249 45.5631 36.376 45.648 36.4106C46.2476 36.6602 46.8578 36.8836 47.5518 37.1479ZM47.6503 42.2349C47.6514 40.3386 46.1501 38.8314 44.325 38.7674C42.3908 38.7003 40.7134 40.37 40.769 42.2926C40.8214 44.1312 42.3226 45.6479 44.2065 45.6489C46.1449 45.65 47.6503 44.1575 47.6503 42.2349Z" fill="url(#paint0_linear_47_7)"/>
<path d="M34.1624 15C39.2458 14.9927 43.3773 19.1126 43.3857 24.1985C43.394 29.276 39.2646 33.4064 34.177 33.4127C29.0915 33.418 24.9632 29.297 24.96 24.2132C24.9558 19.1262 29.0706 15.0074 34.1624 15ZM34.155 30.8997C37.8609 30.9091 40.878 27.8999 40.8738 24.2006C40.8686 20.5128 37.8777 17.5225 34.1844 17.5131C30.49 17.5036 27.4834 20.4855 27.4708 24.1712C27.4582 27.8863 30.4428 30.8902 34.155 30.8997Z" fill="url(#paint1_linear_47_7)"/>
<path d="M26.8869 49.3481C24.6109 49.3481 22.335 49.3502 20.059 49.3481C18.1919 49.346 17.0126 48.1797 17.0136 46.3211C17.0147 45.3142 16.9549 44.2968 17.0797 43.3035C17.3019 41.5362 18.3324 40.2031 19.6544 39.085C21.382 37.6229 23.4106 36.7303 25.5513 36.0821C28.3483 35.2346 31.2176 34.8612 34.1382 34.8749C34.8522 34.878 35.3826 35.3741 35.4141 36.0454C35.4476 36.7481 34.9706 37.2977 34.2525 37.3764C34.0974 37.3932 33.9391 37.389 33.7818 37.39C31.3905 37.4026 29.036 37.7015 26.7328 38.3476C24.7682 38.8983 22.9032 39.6703 21.3055 40.9771C20.5035 41.6327 19.8242 42.3899 19.5988 43.4441C19.5317 43.7598 19.5317 44.0922 19.5265 44.4184C19.516 45.0205 19.5223 45.6225 19.5233 46.2246C19.5244 46.8088 19.5537 46.8382 20.1544 46.8382C24.7063 46.8382 29.2582 46.8382 33.8112 46.8382C33.9422 46.8382 34.0732 46.8329 34.2032 46.8424C34.9235 46.8969 35.4277 47.4339 35.4162 48.1283C35.4036 48.8205 34.8752 49.3449 34.1477 49.3481C31.7271 49.3533 29.3075 49.3481 26.8869 49.3481Z" fill="url(#paint2_linear_47_7)"/>
</g>
<defs>
<linearGradient id="paint0_linear_47_7" x1="35.4225" y1="42.2085" x2="52.9999" y2="42.2085" gradientUnits="userSpaceOnUse">
<stop stop-color="#E0FBFF"/>
<stop offset="0.9804" stop-color="white"/>
</linearGradient>
<linearGradient id="paint1_linear_47_7" x1="24.9591" y1="24.2062" x2="43.3852" y2="24.2062" gradientUnits="userSpaceOnUse">
<stop stop-color="#E0FBFF"/>
<stop offset="0.9804" stop-color="white"/>
</linearGradient>
<linearGradient id="paint2_linear_47_7" x1="17" y1="42.1116" x2="35.4158" y2="42.1116" gradientUnits="userSpaceOnUse">
<stop stop-color="#E0FBFF"/>
<stop offset="0.9804" stop-color="white"/>
</linearGradient>
<clipPath id="clip0_47_7">
<rect width="36" height="36" fill="white" transform="translate(17 15)"/>
</clipPath>
</defs>
</svg>
