<?xml version="1.0" encoding="UTF-8"?>
<!DOCTYPE svg PUBLIC "-//W3C//DTD SVG 1.1//EN" "http://www.w3.org/Graphics/SVG/1.1/DTD/svg11.dtd">
<svg xmlns="http://www.w3.org/2000/svg" version="1.1" width="512px" height="512px" style="shape-rendering:geometricPrecision; text-rendering:geometricPrecision; image-rendering:optimizeQuality; fill-rule:evenodd; clip-rule:evenodd" xmlns:xlink="http://www.w3.org/1999/xlink">
<g><path style="opacity:0.996" fill="#40466c" d="M 36.5,33.5 C 90.1677,33.3333 143.834,33.5 197.5,34C 211.667,37.5 220.5,46.3333 224,60.5C 224.5,81.4974 224.667,102.497 224.5,123.5C 245.167,123.5 265.833,123.5 286.5,123.5C 286.333,102.497 286.5,81.4974 287,60.5C 290.5,46.3333 299.333,37.5 313.5,34C 367.167,33.3333 420.833,33.3333 474.5,34C 487.898,37.0649 496.398,45.2315 500,58.5C 500.667,94.8333 500.667,131.167 500,167.5C 495.095,184.901 483.595,193.235 465.5,192.5C 465.667,262.834 465.5,333.167 465,403.5C 463.851,407.965 462.018,412.132 459.5,416C 467.833,416.333 476.167,416.667 484.5,417C 500.741,421.288 506.908,431.788 503,448.5C 499.158,463.009 489.991,472.175 475.5,476C 328.833,476.667 182.167,476.667 35.5,476C 14.6503,469.481 5.48363,455.314 8,433.5C 10.4084,426.091 15.2417,420.924 22.5,418C 31.8043,416.979 41.1377,416.146 50.5,415.5C 47.6002,411.639 45.7669,407.305 45,402.5C 44.5,332.501 44.3333,262.501 44.5,192.5C 26.9227,192.756 15.756,184.423 11,167.5C 10.3333,131.167 10.3333,94.8333 11,58.5C 14.7809,45.2179 23.2809,36.8845 36.5,33.5 Z"/></g>
<g><path style="opacity:1" fill="#5be2cc" d="M 211.5,61.5 C 211.662,63.5273 211.495,65.5273 211,67.5C 207.547,63.8549 203.38,61.3549 198.5,60C 144.167,59.3333 89.8333,59.3333 35.5,60C 30.1999,61.4866 25.8665,64.3199 22.5,68.5C 22.1148,57.389 27.1148,49.889 37.5,46C 90.5,45.3333 143.5,45.3333 196.5,46C 204.424,48.4231 209.424,53.5897 211.5,61.5 Z"/></g>
<g><path style="opacity:1" fill="#ed716b" d="M 488.5,68.5 C 485.037,63.9241 480.37,61.0908 474.5,60C 420.5,59.3333 366.5,59.3333 312.5,60C 306.831,61.86 302.164,65.0267 298.5,69.5C 298.243,57.8454 303.576,50.0121 314.5,46C 366.833,45.3333 419.167,45.3333 471.5,46C 483.333,48.8309 489,56.3309 488.5,68.5 Z"/></g>
<g><path style="opacity:1" fill="#41d3bd" d="M 211.5,61.5 C 212.664,95.9976 212.831,130.664 212,165.5C 207.947,176.195 200.114,181.361 188.5,181C 178.579,184.654 173.413,191.821 173,202.5C 170.847,204.444 168.347,204.944 165.5,204C 159.5,198 153.5,192 147.5,186C 143.469,183.545 139.136,181.879 134.5,181C 101.833,180.667 69.1667,180.333 36.5,180C 30,177.5 25.5,173 23,166.5C 22.5,133.835 22.3334,101.168 22.5,68.5C 25.8665,64.3199 30.1999,61.4866 35.5,60C 89.8333,59.3333 144.167,59.3333 198.5,60C 203.38,61.3549 207.547,63.8549 211,67.5C 211.495,65.5273 211.662,63.5273 211.5,61.5 Z"/></g>
<g><path style="opacity:1" fill="#ef5d4f" d="M 488.5,68.5 C 488.667,100.502 488.5,132.502 488,164.5C 486.167,173 481,178.167 472.5,180C 439.833,180.333 407.167,180.667 374.5,181C 370.462,181.899 366.795,183.566 363.5,186C 357.5,192 351.5,198 345.5,204C 342.653,204.944 340.153,204.444 338,202.5C 336.73,186.901 328.23,179.401 312.5,180C 305.572,177.406 301.072,172.573 299,165.5C 298.5,133.502 298.333,101.502 298.5,69.5C 302.164,65.0267 306.831,61.86 312.5,60C 366.5,59.3333 420.5,59.3333 474.5,60C 480.37,61.0908 485.037,63.9241 488.5,68.5 Z"/></g>
<g><path style="opacity:1" fill="#f9fdfd" d="M 46.5,79.5 C 93.5012,79.3333 140.501,79.5 187.5,80C 192.833,83.6667 192.833,87.3333 187.5,91C 140.5,91.6667 93.5,91.6667 46.5,91C 41.2475,87.1732 41.2475,83.3399 46.5,79.5 Z"/></g>
<g><path style="opacity:1" fill="#fefafa" d="M 323.5,79.5 C 370.501,79.3333 417.501,79.5 464.5,80C 469.833,83.6667 469.833,87.3333 464.5,91C 417.167,91.6667 369.833,91.6667 322.5,91C 318.446,86.7727 318.78,82.9394 323.5,79.5 Z"/></g>
<g><path style="opacity:1" fill="#fefefe" d="M 45.5,109.5 C 93.1678,109.333 140.834,109.5 188.5,110C 192.5,113.333 192.5,116.667 188.5,120C 140.833,120.667 93.1667,120.667 45.5,120C 41.5654,116.504 41.5654,113.004 45.5,109.5 Z"/></g>
<g><path style="opacity:1" fill="#fefefe" d="M 322.5,109.5 C 370.168,109.333 417.834,109.5 465.5,110C 469.5,113.333 469.5,116.667 465.5,120C 417.833,120.667 370.167,120.667 322.5,120C 318.565,116.504 318.565,113.004 322.5,109.5 Z"/></g>
<g><path style="opacity:1" fill="#f8fdfc" d="M 46.5,138.5 C 75.5019,138.333 104.502,138.5 133.5,139C 138.815,142.717 138.815,146.383 133.5,150C 104.5,150.667 75.5,150.667 46.5,150C 41.2475,146.173 41.2475,142.34 46.5,138.5 Z"/></g>
<g><path style="opacity:1" fill="#fef9f8" d="M 323.5,138.5 C 352.502,138.333 381.502,138.5 410.5,139C 415.796,142.766 415.796,146.433 410.5,150C 381.167,150.667 351.833,150.667 322.5,150C 318.223,145.601 318.556,141.768 323.5,138.5 Z"/></g>
<g><path style="opacity:1" fill="#a0a6bc" d="M 224.5,135.5 C 224.5,141.5 224.5,147.5 224.5,153.5C 245.167,153.5 265.833,153.5 286.5,153.5C 286.5,147.5 286.5,141.5 286.5,135.5C 287.49,141.645 287.823,147.978 287.5,154.5C 266.167,154.5 244.833,154.5 223.5,154.5C 223.177,147.978 223.51,141.645 224.5,135.5 Z"/></g>
<g><path style="opacity:1" fill="#d8dfea" d="M 224.5,135.5 C 245.167,135.5 265.833,135.5 286.5,135.5C 286.5,141.5 286.5,147.5 286.5,153.5C 265.833,153.5 245.167,153.5 224.5,153.5C 224.5,147.5 224.5,141.5 224.5,135.5 Z"/></g>
<g><path style="opacity:1" fill="#9bd9f8" d="M 223.5,166.5 C 236.504,166.333 249.504,166.5 262.5,167C 258.672,176.318 255.338,185.818 252.5,195.5C 252.167,195.5 251.833,195.5 251.5,195.5C 230.322,199.848 220.156,212.848 221,234.5C 222.172,242.515 225.672,249.182 231.5,254.5C 231.5,254.833 231.5,255.167 231.5,255.5C 227.595,264.543 224.262,273.876 221.5,283.5C 221.5,284.167 221.167,284.5 220.5,284.5C 194.636,293.204 182.469,311.204 184,338.5C 185.733,345.391 189.566,350.725 195.5,354.5C 192.23,365.31 188.563,375.977 184.5,386.5C 152.167,386.5 119.833,386.5 87.5,386.5C 87.5,321.833 87.5,257.167 87.5,192.5C 103.17,192.333 118.837,192.5 134.5,193C 136.949,193.725 139.283,194.725 141.5,196C 148.235,203.405 155.568,210.072 163.5,216C 177.934,217.53 185.434,211.03 186,196.5C 187.167,195.333 188.333,194.167 189.5,193C 207.49,192.492 218.824,183.659 223.5,166.5 Z"/></g>
<g><path style="opacity:1" fill="#72c6f2" d="M 223.5,166.5 C 244.67,165.172 266.004,165.172 287.5,166.5C 288.127,167.417 288.461,168.417 288.5,169.5C 287.503,169.47 286.836,169.97 286.5,171C 282.655,181.036 279.321,191.202 276.5,201.5C 276.167,201.5 275.833,201.5 275.5,201.5C 268.632,196.659 260.965,194.659 252.5,195.5C 255.338,185.818 258.672,176.318 262.5,167C 249.504,166.5 236.504,166.333 223.5,166.5 Z"/></g>
<g><path style="opacity:1" fill="#9bd9f8" d="M 288.5,169.5 C 292.609,181.277 300.609,188.944 312.5,192.5C 301.884,222.067 291.55,251.733 281.5,281.5C 270.547,280.13 259.547,279.464 248.5,279.5C 250.364,274.574 252.031,269.574 253.5,264.5C 253.833,264.5 254.167,264.5 254.5,264.5C 276.324,263.01 288.324,251.343 290.5,229.5C 289.543,218.252 284.876,208.918 276.5,201.5C 279.321,191.202 282.655,181.036 286.5,171C 286.836,169.97 287.503,169.47 288.5,169.5 Z"/></g>
<g><path style="opacity:1" fill="#d7dee9" d="M 56.5,192.5 C 62.8333,192.5 69.1667,192.5 75.5,192.5C 75.0068,260.583 75.5068,328.583 77,396.5C 77.7504,397.126 78.5838,397.626 79.5,398C 197.167,398.667 314.833,398.667 432.5,398C 433.308,397.692 433.975,397.192 434.5,396.5C 435.497,328.541 435.83,260.541 435.5,192.5C 441.5,192.5 447.5,192.5 453.5,192.5C 453.667,261.834 453.5,331.167 453,400.5C 450.969,408.867 445.802,414.367 437.5,417C 316.167,417.667 194.833,417.667 73.5,417C 65.073,414.905 59.573,409.739 57,401.5C 56.5,331.834 56.3333,262.167 56.5,192.5 Z"/></g>
<g><path style="opacity:1" fill="#71c9f6" d="M 312.5,192.5 C 321.382,190.888 325.882,194.554 326,203.5C 331.255,216.37 340.088,219.536 352.5,213C 359.235,205.595 366.568,198.928 374.5,193C 390.83,192.5 407.163,192.333 423.5,192.5C 423.5,257.167 423.5,321.833 423.5,386.5C 363.833,386.5 304.167,386.5 244.5,386.5C 247.835,376.828 251.168,367.162 254.5,357.5C 272.836,357.667 291.17,357.5 309.5,357C 317.482,355.262 323.316,350.762 327,343.5C 331.71,309.615 317.21,289.282 283.5,282.5C 283.158,281.662 282.492,281.328 281.5,281.5C 291.55,251.733 301.884,222.067 312.5,192.5 Z"/></g>
<g><path style="opacity:1" fill="#43486c" d="M 251.5,195.5 C 251.833,195.5 252.167,195.5 252.5,195.5C 260.965,194.659 268.632,196.659 275.5,201.5C 274.759,205.78 273.093,209.446 270.5,212.5C 263.909,208.005 256.575,206.339 248.5,207.5C 249.5,203.5 250.5,199.5 251.5,195.5 Z"/></g>
<g><path style="opacity:1" fill="#797d98" d="M 251.5,195.5 C 250.5,199.5 249.5,203.5 248.5,207.5C 248.5,208.167 248.167,208.5 247.5,208.5C 232.791,215.959 229.124,226.959 236.5,241.5C 236.5,241.833 236.5,242.167 236.5,242.5C 234.081,246.064 232.414,250.064 231.5,254.5C 225.672,249.182 222.172,242.515 221,234.5C 220.156,212.848 230.322,199.848 251.5,195.5 Z"/></g>
<g><path style="opacity:1" fill="#797d97" d="M 275.5,201.5 C 275.833,201.5 276.167,201.5 276.5,201.5C 284.876,208.918 289.543,218.252 290.5,229.5C 288.324,251.343 276.324,263.01 254.5,264.5C 254.905,261.013 255.905,257.68 257.5,254.5C 255.709,253.83 254.042,253.163 252.5,252.5C 254.5,252.5 256.5,252.5 258.5,252.5C 273.128,248.931 279.628,239.598 278,224.5C 277.065,220.28 274.899,216.947 271.5,214.5C 271.167,213.833 270.833,213.167 270.5,212.5C 273.093,209.446 274.759,205.78 275.5,201.5 Z"/></g>
<g><path style="opacity:1" fill="#fdbb5b" d="M 248.5,207.5 C 256.575,206.339 263.909,208.005 270.5,212.5C 270.833,213.167 271.167,213.833 271.5,214.5C 266.77,227.024 262.436,239.691 258.5,252.5C 256.5,252.5 254.5,252.5 252.5,252.5C 245.571,251.703 240.238,248.37 236.5,242.5C 236.5,242.167 236.5,241.833 236.5,241.5C 239.88,230.406 243.547,219.406 247.5,208.5C 248.167,208.5 248.5,208.167 248.5,207.5 Z"/></g>
<g><path style="opacity:1" fill="#facd8b" d="M 247.5,208.5 C 243.547,219.406 239.88,230.406 236.5,241.5C 229.124,226.959 232.791,215.959 247.5,208.5 Z"/></g>
<g><path style="opacity:1" fill="#fbce8b" d="M 271.5,214.5 C 274.899,216.947 277.065,220.28 278,224.5C 279.628,239.598 273.128,248.931 258.5,252.5C 262.436,239.691 266.77,227.024 271.5,214.5 Z"/></g>
<g><path style="opacity:1" fill="#41476c" d="M 236.5,242.5 C 240.238,248.37 245.571,251.703 252.5,252.5C 254.042,253.163 255.709,253.83 257.5,254.5C 255.905,257.68 254.905,261.013 254.5,264.5C 254.167,264.5 253.833,264.5 253.5,264.5C 245.246,263.705 237.912,260.705 231.5,255.5C 231.5,255.167 231.5,254.833 231.5,254.5C 232.414,250.064 234.081,246.064 236.5,242.5 Z"/></g>
<g><path style="opacity:1" fill="#72c9f6" d="M 231.5,255.5 C 237.912,260.705 245.246,263.705 253.5,264.5C 252.031,269.574 250.364,274.574 248.5,279.5C 246.585,279.216 244.919,279.549 243.5,280.5C 236.056,280.722 228.722,281.722 221.5,283.5C 224.262,273.876 227.595,264.543 231.5,255.5 Z"/></g>
<g><path style="opacity:1" fill="#40476c" d="M 243.5,280.5 C 244.833,280.5 246.167,280.5 247.5,280.5C 246.703,284.223 245.703,287.89 244.5,291.5C 243.508,291.328 242.842,291.662 242.5,292.5C 233.1,292.767 224.1,294.767 215.5,298.5C 217.559,293.99 219.226,289.323 220.5,284.5C 221.167,284.5 221.5,284.167 221.5,283.5C 228.722,281.722 236.056,280.722 243.5,280.5 Z"/></g>
<g><path style="opacity:1" fill="#787d98" d="M 243.5,280.5 C 244.919,279.549 246.585,279.216 248.5,279.5C 259.547,279.464 270.547,280.13 281.5,281.5C 282.492,281.328 283.158,281.662 283.5,282.5C 282.325,282.281 281.325,282.614 280.5,283.5C 279.295,286.45 278.295,289.45 277.5,292.5C 266.516,291.751 255.516,291.417 244.5,291.5C 245.703,287.89 246.703,284.223 247.5,280.5C 246.167,280.5 244.833,280.5 243.5,280.5 Z"/></g>
<g><path style="opacity:1" fill="#40466b" d="M 283.5,282.5 C 317.21,289.282 331.71,309.615 327,343.5C 323.316,350.762 317.482,355.262 309.5,357C 291.17,357.5 272.836,357.667 254.5,357.5C 255.732,353.973 257.065,350.473 258.5,347C 274.672,346.831 290.672,346.331 306.5,345.5C 311.655,344.517 315.155,341.517 317,336.5C 318.42,315.847 309.253,302.347 289.5,296C 285.595,294.641 281.595,293.808 277.5,293.5C 277.5,293.167 277.5,292.833 277.5,292.5C 278.295,289.45 279.295,286.45 280.5,283.5C 281.325,282.614 282.325,282.281 283.5,282.5 Z"/></g>
<g><path style="opacity:1" fill="#787d97" d="M 220.5,284.5 C 219.226,289.323 217.559,293.99 215.5,298.5C 215.5,298.833 215.5,299.167 215.5,299.5C 200.324,307.514 193.824,320.181 196,337.5C 196.926,339.692 198.093,341.692 199.5,343.5C 198.297,347.11 197.297,350.777 196.5,354.5C 196.167,354.5 195.833,354.5 195.5,354.5C 189.566,350.725 185.733,345.391 184,338.5C 182.469,311.204 194.636,293.204 220.5,284.5 Z"/></g>
<g><path style="opacity:1" fill="#fdbb5b" d="M 242.5,292.5 C 243.097,292.735 243.43,293.235 243.5,294C 237.197,311.077 231.197,328.244 225.5,345.5C 218.833,345.5 212.167,345.5 205.5,345.5C 203.486,345.608 201.82,344.942 200.5,343.5C 205.103,328.691 210.103,314.025 215.5,299.5C 215.5,299.167 215.5,298.833 215.5,298.5C 224.1,294.767 233.1,292.767 242.5,292.5 Z"/></g>
<g><path style="opacity:1" fill="#fdcf8b" d="M 242.5,292.5 C 242.842,291.662 243.508,291.328 244.5,291.5C 255.516,291.417 266.516,291.751 277.5,292.5C 277.5,292.833 277.5,293.167 277.5,293.5C 270.901,310.532 264.901,327.865 259.5,345.5C 248.167,345.5 236.833,345.5 225.5,345.5C 231.197,328.244 237.197,311.077 243.5,294C 243.43,293.235 243.097,292.735 242.5,292.5 Z"/></g>
<g><path style="opacity:1" fill="#fcbb5b" d="M 277.5,293.5 C 281.595,293.808 285.595,294.641 289.5,296C 309.253,302.347 318.42,315.847 317,336.5C 315.155,341.517 311.655,344.517 306.5,345.5C 290.833,345.5 275.167,345.5 259.5,345.5C 264.901,327.865 270.901,310.532 277.5,293.5 Z"/></g>
<g><path style="opacity:1" fill="#facd8b" d="M 215.5,299.5 C 210.103,314.025 205.103,328.691 200.5,343.5C 200.167,343.5 199.833,343.5 199.5,343.5C 198.093,341.692 196.926,339.692 196,337.5C 193.824,320.181 200.324,307.514 215.5,299.5 Z"/></g>
<g><path style="opacity:1" fill="#40466c" d="M 199.5,343.5 C 199.833,343.5 200.167,343.5 200.5,343.5C 201.82,344.942 203.486,345.608 205.5,345.5C 211.645,346.49 217.978,346.823 224.5,346.5C 223.703,350.223 222.703,353.89 221.5,357.5C 221.167,357.5 220.833,357.5 220.5,357.5C 214.158,357.666 207.825,357.5 201.5,357C 199.509,356.626 197.842,355.793 196.5,354.5C 197.297,350.777 198.297,347.11 199.5,343.5 Z"/></g>
<g><path style="opacity:1" fill="#7d7b8f" d="M 205.5,345.5 C 212.167,345.5 218.833,345.5 225.5,345.5C 236.833,345.5 248.167,345.5 259.5,345.5C 275.167,345.5 290.833,345.5 306.5,345.5C 290.672,346.331 274.672,346.831 258.5,347C 257.065,350.473 255.732,353.973 254.5,357.5C 243.5,357.5 232.5,357.5 221.5,357.5C 222.703,353.89 223.703,350.223 224.5,346.5C 217.978,346.823 211.645,346.49 205.5,345.5 Z"/></g>
<g><path style="opacity:1" fill="#72caf7" d="M 195.5,354.5 C 195.833,354.5 196.167,354.5 196.5,354.5C 197.842,355.793 199.509,356.626 201.5,357C 207.825,357.5 214.158,357.666 220.5,357.5C 217.702,367.227 214.702,376.894 211.5,386.5C 202.5,386.5 193.5,386.5 184.5,386.5C 188.563,375.977 192.23,365.31 195.5,354.5 Z"/></g>
<g><path style="opacity:1" fill="#9bd9f8" d="M 220.5,357.5 C 220.833,357.5 221.167,357.5 221.5,357.5C 232.5,357.5 243.5,357.5 254.5,357.5C 251.168,367.162 247.835,376.828 244.5,386.5C 233.5,386.5 222.5,386.5 211.5,386.5C 214.702,376.894 217.702,367.227 220.5,357.5 Z"/></g>
<g><path style="opacity:1" fill="#5e8db5" d="M 423.5,192.5 C 424.499,257.331 424.832,322.331 424.5,387.5C 311.999,387.833 199.665,387.5 87.5,386.5C 119.833,386.5 152.167,386.5 184.5,386.5C 193.5,386.5 202.5,386.5 211.5,386.5C 222.5,386.5 233.5,386.5 244.5,386.5C 304.167,386.5 363.833,386.5 423.5,386.5C 423.5,321.833 423.5,257.167 423.5,192.5 Z"/></g>
<g><path style="opacity:1" fill="#e7eef6" d="M 491.5,442.5 C 488.976,441.073 486.31,439.906 483.5,439C 330.833,438.333 178.167,438.333 25.5,439C 23.3716,439.655 21.3716,440.489 19.5,441.5C 19.0927,436.408 21.0927,432.575 25.5,430C 178.833,429.333 332.167,429.333 485.5,430C 490.927,432.441 492.927,436.608 491.5,442.5 Z"/></g>
<g><path style="opacity:1" fill="#d9e1ea" d="M 491.5,442.5 C 491.5,443.167 491.5,443.833 491.5,444.5C 486.756,449.208 481.089,452.375 474.5,454C 328.167,454.667 181.833,454.667 35.5,454C 29.3158,451.745 23.9825,448.245 19.5,443.5C 19.5,442.833 19.5,442.167 19.5,441.5C 21.3716,440.489 23.3716,439.655 25.5,439C 178.167,438.333 330.833,438.333 483.5,439C 486.31,439.906 488.976,441.073 491.5,442.5 Z"/></g>
<g><path style="opacity:1" fill="#c7d3e0" d="M 19.5,443.5 C 23.9825,448.245 29.3158,451.745 35.5,454C 181.833,454.667 328.167,454.667 474.5,454C 481.089,452.375 486.756,449.208 491.5,444.5C 489.26,454.485 483.26,460.985 473.5,464C 327.833,464.667 182.167,464.667 36.5,464C 26.7038,460.566 21.0371,453.733 19.5,443.5 Z"/></g>
</svg>
