<svg width="53" height="53" viewBox="0 0 53 53" fill="none" xmlns="http://www.w3.org/2000/svg">
<circle cx="26.5" cy="26.5" r="26.5" fill="#E70000"/>
<g clip-path="url(#clip0_47_3)">
<path d="M29.7114 32.1333H24.352V29.4867C24.352 28.5223 24.4765 27.7996 24.723 27.3162C24.9695 26.8352 25.4918 26.1809 26.2922 25.358L28.6913 22.8872C29.0427 22.4648 29.2209 21.9179 29.2209 21.2465C29.2209 20.5751 29.0329 20.0184 28.6571 19.5716C28.2813 19.1248 27.7858 18.9002 27.1757 18.9002C26.5631 18.9002 26.0531 19.1639 25.6406 19.6937C25.2282 20.2235 24.9768 20.9242 24.8816 21.7934H19.2733C19.532 19.4422 20.3886 17.5939 21.8481 16.2535C23.3051 14.9156 25.133 14.2441 27.3319 14.2441C29.5308 14.2441 31.3173 14.8448 32.6937 16.0436C34.0702 17.2424 34.7559 18.9026 34.7559 21.0194C34.7559 21.9594 34.6388 22.6601 34.4045 23.1192C34.1702 23.5782 34.0043 23.9078 33.9115 24.108C33.8163 24.3082 33.5991 24.6085 33.2599 25.0089C32.9182 25.4093 32.6888 25.6681 32.5717 25.7853C32.0079 26.3493 31.4735 26.8791 30.9658 27.3723C30.4606 27.8655 30.1238 28.2733 29.9603 28.5907C29.7968 28.9081 29.7138 29.3842 29.7138 30.019V32.1333H29.7114ZM24.8987 38.8549C24.2983 38.2543 23.9982 37.5194 23.9982 36.6502C23.9982 35.781 24.2983 35.0437 24.8987 34.4455C25.4991 33.8449 26.2337 33.5445 27.1025 33.5445C27.9713 33.5445 28.7084 33.8449 29.3063 34.4455C29.9066 35.0461 30.2068 35.781 30.2068 36.6502C30.2068 37.5218 29.9066 38.2567 29.3063 38.8549C28.7059 39.4555 27.9713 39.7558 27.1025 39.7558C26.2312 39.7558 25.4966 39.4555 24.8987 38.8549Z" fill="#FFFBFB"/>
<path d="M27.1025 40C26.1702 40 25.3697 39.6728 24.7254 39.0283C24.0811 38.3837 23.7541 37.5829 23.7541 36.6502C23.7541 35.7175 24.0811 34.9167 24.7254 34.2721C25.3697 33.6276 26.1702 33.3004 27.1025 33.3004C28.0348 33.3004 28.8353 33.6276 29.4796 34.2721C30.1239 34.9167 30.4509 35.7175 30.4509 36.6502C30.4509 37.5829 30.1239 38.3837 29.4796 39.0283C28.8353 39.6728 28.0348 40 27.1025 40ZM27.1025 33.7887C26.2923 33.7887 25.6284 34.0597 25.0696 34.6164C24.5131 35.1731 24.2422 35.8396 24.2422 36.6502C24.2422 37.4608 24.5131 38.1249 25.0696 38.684C25.626 39.2407 26.2923 39.5117 27.1025 39.5117C27.9128 39.5117 28.5766 39.2407 29.1354 38.684C29.6919 38.1273 29.9628 37.4608 29.9628 36.6502C29.9628 35.8396 29.6919 35.1755 29.1354 34.6164C28.5766 34.0597 27.9128 33.7887 27.1025 33.7887ZM29.9555 32.3775H24.108V29.4867C24.108 28.4735 24.2373 27.7264 24.5058 27.2063C24.7669 26.6985 25.2941 26.0393 26.1165 25.1896L28.5156 22.7188C28.8157 22.355 28.9744 21.8569 28.9744 21.2489C28.9744 20.6337 28.8084 20.1356 28.4667 19.7303C28.1348 19.3372 27.7126 19.1468 27.1733 19.1468C26.6364 19.1468 26.1971 19.3763 25.831 19.8475C25.4503 20.3382 25.2111 21.0023 25.1232 21.8227L25.0988 22.04H19L19.0293 21.769C19.2929 19.3665 20.1861 17.4499 21.6821 16.0753C23.1806 14.6983 25.0793 14 27.3319 14C29.5796 14 31.4393 14.625 32.8523 15.8605C34.2776 17.1032 35 18.8391 35 21.0194C35 22.0083 34.8755 22.731 34.6193 23.229C34.3801 23.6929 34.2215 24.0152 34.1287 24.2105C34.0238 24.4327 33.7993 24.7428 33.4405 25.1652C33.094 25.5729 32.8646 25.8317 32.7401 25.9562C32.1739 26.5227 31.6394 27.0525 31.1342 27.5457C30.6486 28.0193 30.3264 28.4075 30.1751 28.7005C30.0287 28.9813 29.9555 29.4232 29.9555 30.0165V32.3775ZM24.5961 31.8892H29.4698V30.0165C29.4698 29.3353 29.5601 28.8299 29.7431 28.4759C29.9213 28.1317 30.2654 27.7142 30.795 27.1965C31.3002 26.7034 31.8347 26.1735 32.3984 25.6095C32.5107 25.4948 32.7401 25.2384 33.072 24.8478C33.4771 24.3717 33.6309 24.1251 33.6894 24.003C33.7822 23.8028 33.9457 23.4781 34.1873 23.0069C34.4045 22.5845 34.5143 21.9155 34.5143 21.0194C34.5143 18.9856 33.8481 17.3742 32.5351 16.2291C31.2099 15.0743 29.46 14.4883 27.3319 14.4883C25.2062 14.4883 23.4173 15.1426 22.0116 16.4342C20.662 17.677 19.8347 19.3958 19.5491 21.5517H24.6669C24.784 20.7387 25.0451 20.0648 25.4478 19.5472C25.9067 18.9588 26.4875 18.6585 27.1757 18.6585C27.8591 18.6585 28.4204 18.9124 28.8426 19.4153C29.255 19.9061 29.4649 20.5238 29.4649 21.2489C29.4649 21.9741 29.2672 22.5796 28.8792 23.0459L26.468 25.529C25.6894 26.3322 25.1745 26.9695 24.9402 27.4285C24.7132 27.8729 24.5961 28.5662 24.5961 29.4867V31.8892Z" fill="white"/>
</g>
<defs>
<clipPath id="clip0_47_3">
<rect width="16" height="26" fill="white" transform="translate(19 14)"/>
</clipPath>
</defs>
</svg>
