<svg xmlns="http://www.w3.org/2000/svg" width="15.719" height="15.719" viewBox="0 0 15.719 15.719"><defs><style>.a{fill:#ff1046;}</style></defs><g transform="translate(0 0)"><path class="a" d="M15.413,12.5l-1.743-1.162L12.122,10.3a.686.686,0,0,0-.921.15l-.959,1.232a.683.683,0,0,1-.872.181,11.161,11.161,0,0,1-3.117-2.4,11.24,11.24,0,0,1-2.4-3.117.683.683,0,0,1,.181-.872l1.232-.959a.686.686,0,0,0,.15-.921l-1-1.5L3.22.306A.686.686,0,0,0,2.3.1L.92.924a1.682,1.682,0,0,0-.764.988c-.376,1.372-.452,4.4,4.4,9.252s7.879,4.776,9.251,4.4A1.681,1.681,0,0,0,14.8,14.8l.826-1.376A.686.686,0,0,0,15.413,12.5Z" transform="translate(0 0)"/></g></svg>