<svg xmlns="http://www.w3.org/2000/svg" width="20.321" height="14.288" viewBox="0 0 20.321 14.288"><defs><style>.a{fill:#ff1046;}</style></defs><g transform="translate(0 0)"><path class="a" d="M18.535,76H1.786A1.788,1.788,0,0,0,0,77.786V88.5a1.788,1.788,0,0,0,1.786,1.786H18.535A1.788,1.788,0,0,0,20.321,88.5V77.786A1.788,1.788,0,0,0,18.535,76Zm-.274,1.191-7.639,7.664a.7.7,0,0,1-.923,0L2.06,77.191ZM1.191,88.283V78l5.122,5.139Zm.87.814,5.093-5.11,1.7,1.708a1.884,1.884,0,0,0,2.609,0l1.7-1.708L18.26,89.1Zm17.07-.814-5.122-5.139L19.13,78Z" transform="translate(0 -76)"/></g></svg>