<svg xmlns="http://www.w3.org/2000/svg" width="966" height="390" viewBox="0 0 966 390"><defs><style>.a{fill:#fff;}.b{fill:none;stroke:#ddd;stroke-width:2px;}.c{fill:#ddd;}.d{fill:#1e1d1b;font-size:14px;font-family:Poppins-Regular, Poppins;}.d,.e{letter-spacing:0.015em;opacity:0.87;}.e{fill:#3d3d3d;font-size:18px;font-family:Poppins-Bold, Poppins;font-weight:700;}.f{font-family:Poppins-SemiBold, Poppins;font-weight:600;}.g{fill:#ffc8c8;opacity:0;}.h,.i{fill:#ff1046;}.i{fill-rule:evenodd;}</style></defs><g transform="translate(-201 -4182)"><rect class="a" width="966" height="390" transform="translate(201 4182)"/><g transform="translate(12)"><path class="b" d="M200,3977h949.722" transform="translate(0 402)"/><g transform="translate(0 402)"><path class="b" d="M200,3968V3826h22"/><circle class="c" cx="9" cy="9" r="9" transform="translate(191 3966)"/></g><g transform="translate(312 402)"><path class="b" d="M200,3968V3826h22"/><circle class="c" cx="9" cy="9" r="9" transform="translate(191 3966)"/></g><g transform="translate(627 402)"><path class="b" d="M200,3968V3826h22"/><circle class="c" cx="9" cy="9" r="9" transform="translate(191 3966)"/></g><g transform="translate(346 4368)"><path class="b" d="M200,3823v145h22" transform="translate(-189 -3806)"/><circle class="c" cx="9" cy="9" r="9" transform="translate(2)"/></g><g transform="translate(657 4368)"><path class="b" d="M200,3822v146h22" transform="translate(-189 -3806)"/><circle class="c" cx="9" cy="9" r="9" transform="translate(2)"/></g><g transform="translate(975 4368)"><path class="b" d="M200,3823v145h22" transform="translate(-189 -3806)"/><circle class="c" cx="9" cy="9" r="9" transform="translate(2)"/></g><text class="d" transform="translate(233 4277)"><tspan x="0" y="0">Introduced in 2015</tspan></text><text class="e" transform="translate(199 4211)"><tspan x="0" y="0">01</tspan></text><text class="e" transform="translate(356 4559)"><tspan x="0" y="0">02</tspan></text><text class="e" transform="translate(666 4559)"><tspan x="0" y="0">04</tspan></text><text class="e" transform="translate(984 4559)"><tspan x="0" y="0">06</tspan></text><text class="e" transform="translate(511 4211)"><tspan x="0" y="0">03</tspan></text><text class="e" transform="translate(826 4211)"><tspan x="0" y="0">05</tspan></text><text class="d" transform="translate(390 4410)"><tspan x="0" y="15">Developed by two leading </tspan><tspan x="0" y="39">nonprofits focused on cloud and </tspan><tspan x="0" y="63">information security, CSA and </tspan><tspan x="0" y="87">(ISC)2</tspan></text><text class="d" transform="translate(701 4410)"><tspan x="0" y="15">Exam available at</tspan><tspan x="0" y="39">882 locations in</tspan><tspan x="0" y="63">1 14 countries</tspan></text><text class="d" transform="translate(1019 4410)"><tspan x="0" y="15">(ISC)2 certified </tspan><tspan x="0" y="39">members work in </tspan><tspan x="0" y="63">more than 170 </tspan><tspan x="0" y="87">countries globally</tspan></text><text class="d" transform="translate(551 4262)"><tspan x="0" y="15">CCSPs are part of a network of</tspan><tspan x="0" y="39">over 125,000 cybersecurity</tspan><tspan x="0" y="63">professionals</tspan></text><text class="d" transform="translate(866 4262)"><tspan x="0" y="15">Average CCSP</tspan><tspan x="0" y="39">salary: US </tspan><tspan class="f" y="39">$138,610</tspan></text><rect class="g" width="34" height="34" transform="translate(233 4211)"/><g transform="translate(0 573)"><rect class="g" width="34" height="34" transform="translate(390 3940)"/><g transform="translate(-217.257 3419.453)"><path class="h" d="M637.87,525.275H609.982a1.335,1.335,0,0,0-1.328,1.237v17.578c0,.677.665.893,1.328.893H637.87c.681,0,1.346-.216,1.346-.893V526.512a1.339,1.339,0,0,0-1.346-1.237Zm-19.7,10.069a3.262,3.262,0,0,1,.233-.725l-.391-.418a.33.33,0,0,1-.009-.476l.543-.664a.361.361,0,0,1,.493-.08l.476.314a3.3,3.3,0,0,1,.689-.378l.025-.568a.357.357,0,0,1,.32-.355l.868-.077a.388.388,0,0,1,.4.279l.106.556a2.95,2.95,0,0,1,.8.246l.4-.385a.363.363,0,0,1,.484-.018l.679.556a.37.37,0,0,1,.061.485l-.3.46a2.828,2.828,0,0,1,.39.723l.522.018a.36.36,0,0,1,.353.341l.083.847a.392.392,0,0,1-.3.4l-.494.1a3.362,3.362,0,0,1-.248.776l.354.368a.376.376,0,0,1,.019.494l-.556.667a.365.365,0,0,1-.48.064l-.417-.27a2.686,2.686,0,0,1-.758.406l-.012.509a.363.363,0,0,1-.341.355l-.862.076a.348.348,0,0,1-.385-.29l-.108-.494a2.887,2.887,0,0,1-.833-.266l-.376.343a.363.363,0,0,1-.493.018l-.665-.544a.4.4,0,0,1-.077-.493l.293-.448a3.512,3.512,0,0,1-.367-.74h-.526a.4.4,0,0,1-.372-.341l-.076-.868a.354.354,0,0,1,.292-.384Zm11.648-1.264-.418.429a.371.371,0,0,1-.48.031l-.278-.214a2.436,2.436,0,0,1-.646.278l-.05.354a.377.377,0,0,1-.359.327h-.6a.354.354,0,0,1-.355-.327l-.045-.354a2.384,2.384,0,0,1-.664-.278l-.295.23a.345.345,0,0,1-.482-.028l-.416-.417a.339.339,0,0,1-.031-.475l.233-.315a2.251,2.251,0,0,1-.248-.613l-.385-.05a.351.351,0,0,1-.326-.354v-.6a.367.367,0,0,1,.309-.372l.4-.046a2.356,2.356,0,0,1,.248-.568l-.266-.328a.361.361,0,0,1,.032-.48l.418-.43a.363.363,0,0,1,.479-.03l.326.259a2.447,2.447,0,0,1,.6-.259l.028-.419a.387.387,0,0,1,.372-.327h.588a.372.372,0,0,1,.367.327l.049.387a3.41,3.41,0,0,1,.649.259l.306-.246a.343.343,0,0,1,.478.035l.418.418a.343.343,0,0,1,.033.477l-.24.311a2.544,2.544,0,0,1,.27.616l.366.046a.356.356,0,0,1,.328.355v.6a.357.357,0,0,1-.31.355l-.371.049a3.321,3.321,0,0,1-.242.627l.229.278a.359.359,0,0,1-.03.48Zm-2.549-3.223h0a1.165,1.165,0,0,0-1.174,1.165,1.2,1.2,0,0,0,1.193,1.177,1.165,1.165,0,0,0,1.152-1.186,1.142,1.142,0,0,0-1.171-1.156ZM621.5,537.4h0a1.469,1.469,0,0,0,1.313-1.567,1.435,1.435,0,1,0-2.857.267,1.43,1.43,0,0,0,1.544,1.3Zm15.709,4.366H610.664V527.286h26.547Zm-9.359,6.98a1.777,1.777,0,0,1-.589-1.144l-.188-1.419H620.79l-.2,1.419a1.557,1.557,0,0,1-.569,1.051c-.531.383-.942.755-.531.819.391.044,4.159.03,4.432.017.281.013,4.049.064,4.454.013s0-.368-.525-.756Z" transform="translate(0 0)"/></g></g><g transform="translate(234.789 4214.588)"><path class="i" d="M355.389,460.339h23.961a.527.527,0,0,1,.389.16h0a.547.547,0,0,1,.164.388V486.2h3.523V464.654a.624.624,0,0,1,.151-.394h0a.57.57,0,0,1,.393-.159.56.56,0,0,1,.387.159h0a.552.552,0,0,1,.163.394v21.871a.539.539,0,0,1-.163.393h0a1.093,1.093,0,0,1-.78.2H355.389a.538.538,0,0,1-.386-.165h0a.576.576,0,0,1-.151-.39v-25.67A.6.6,0,0,1,355,460.5h0a.542.542,0,0,1,.386-.16Zm2.6,4h5.5a.367.367,0,0,1,.358.374v4.032a.364.364,0,0,1-.358.361h-5.5a.368.368,0,0,1-.374-.361v-4.032a.371.371,0,0,1,.374-.374Zm13.15,8.337h5.276a.482.482,0,0,1,.48.478v8.033a.485.485,0,0,1-.48.483h-5.276a.5.5,0,0,1-.482-.483v-8.033a.493.493,0,0,1,.482-.478ZM357.4,480.623h9.774a.125.125,0,0,1,.12.116v.933a.125.125,0,0,1-.12.117H357.4a.13.13,0,0,1-.134-.117v-.933a.13.13,0,0,1,.134-.116Zm.12-4.092h9.774a.113.113,0,0,1,.119.113v.919a.123.123,0,0,1-.119.136h-9.774a.124.124,0,0,1-.12-.136v-.919a.114.114,0,0,1,.12-.113Zm.119-4.093h9.774a.114.114,0,0,1,.119.114v.917a.111.111,0,0,1-.119.122H357.64a.112.112,0,0,1-.119-.122v-.917a.115.115,0,0,1,.119-.114Zm8.681-7.57h9.791a.128.128,0,0,1,.118.118v.908a.135.135,0,0,1-.118.14h-9.791a.136.136,0,0,1-.121-.14v-.908a.13.13,0,0,1,.121-.118Zm0,2.559h9.791a.129.129,0,0,1,.118.12v.911a.119.119,0,0,1-.118.122h-9.791a.121.121,0,0,1-.121-.122v-.911a.131.131,0,0,1,.121-.12Zm14.887-5.068a.529.529,0,0,1,.166-.387h0a.54.54,0,0,1,.386-.17.548.548,0,0,1,.39.17h0a.532.532,0,0,1,.165.387v21.873a.509.509,0,0,1-.165.389h0a.537.537,0,0,1-.39.168.529.529,0,0,1-.386-.168h0a.506.506,0,0,1-.166-.389Z" transform="translate(-354.852 -460.339)"/></g><g transform="translate(0 573)"><rect class="g" width="34" height="34" transform="translate(551 3638)"/><g transform="translate(389.499 3055.097)"><path class="i" d="M178.17,585.9a13.678,13.678,0,1,0,13.685,13.667A13.671,13.671,0,0,0,178.17,585.9Zm-6.11,17.416a2.784,2.784,0,0,1,1.938.8,2.824,2.824,0,0,1,.786,1.661h2.9v-5.726h-6.041a22.283,22.283,0,0,0,.318,3.274c.025,0,.067-.009.094-.009Zm2.654,3.4a2.819,2.819,0,0,1-.716,1.276h0a2.525,2.525,0,0,1-.486.384,18.148,18.148,0,0,0,2.254,3.678,13.208,13.208,0,0,0,1.923.225v-5.563Zm-2.057,2.011a2.913,2.913,0,0,1-.6.064,2.724,2.724,0,0,1-1.934-.8,2.819,2.819,0,0,1-.721-1.276h-1.754a12.955,12.955,0,0,0,1.535,1.853,12.582,12.582,0,0,0,5.155,3.124,18.847,18.847,0,0,1-1.684-2.966Zm-3.32-2.948a2.756,2.756,0,0,1,.789-1.645v-.016a2.922,2.922,0,0,1,.926-.605,21.731,21.731,0,0,1-.334-3.46h-5.251a12.671,12.671,0,0,0,1.606,5.726Zm4.107-1.107a2.011,2.011,0,0,0-1.384-.566,1.99,1.99,0,0,0-1.382.566,1.943,1.943,0,0,0-.566,1.384,1.917,1.917,0,0,0,.566,1.382,1.927,1.927,0,0,0,2.766,0,1.971,1.971,0,0,0,.565-1.382,2,2,0,0,0-.565-1.384Zm11.721-7.907a2.707,2.707,0,0,1,1.632.774,2.882,2.882,0,0,1,.772,1.549h3.308a12.681,12.681,0,0,0-1.622-5.739h-4.78a22.632,22.632,0,0,1,.69,3.416Zm2.364,3.288a2.775,2.775,0,0,1-.732,1.363h-.014a2.769,2.769,0,0,1-1.6.784,21.774,21.774,0,0,1-.7,3.579h4.755v.054a12.59,12.59,0,0,0,1.647-5.78Zm-3.276,2.09a2.7,2.7,0,0,1-1.328-.727,2.924,2.924,0,0,1-.747-1.363h-3.524v5.726h4.853a21.73,21.73,0,0,0,.746-3.636Zm-2.1-3.055a2.712,2.712,0,0,1,.771-1.549h0a2.653,2.653,0,0,1,1.3-.715,20.335,20.335,0,0,0-.732-3.475h-4.84v5.739Zm4.091-.995a2,2,0,0,0-1.383-.571,1.976,1.976,0,0,0-1.383.571,1.933,1.933,0,0,0-.58,1.381,1.962,1.962,0,0,0,3.346,1.379,1.941,1.941,0,0,0,.566-1.379,1.971,1.971,0,0,0-.566-1.381Zm-13.922-7.812c.125,0,.264.017.374.028a19.227,19.227,0,0,1,1.644-2.863,12.711,12.711,0,0,0-5.155,3.14,12.279,12.279,0,0,0-1.521,1.839h1.989a2.7,2.7,0,0,1,.735-1.341h0a2.741,2.741,0,0,1,1.934-.8Zm1.273.321a2.549,2.549,0,0,1,.663.482,2.7,2.7,0,0,1,.734,1.341h2.7v-5.557a12.8,12.8,0,0,0-1.923.218,18.446,18.446,0,0,0-2.17,3.516Zm1.438,2.747a2.76,2.76,0,0,1-.775,1.6h0a2.784,2.784,0,0,1-1.936.8,3.191,3.191,0,0,1-.346-.03,22.1,22.1,0,0,0-.329,3.361h6.041V593.35Zm-3.953,2.1a3.348,3.348,0,0,1-.692-.5,2.737,2.737,0,0,1-.775-1.6h-2.531a12.676,12.676,0,0,0-1.616,5.739h5.251a24.25,24.25,0,0,1,.363-3.637Zm2.625-3.812a1.949,1.949,0,0,0-3.332,1.381,1.939,1.939,0,0,0,1.949,1.95,1.941,1.941,0,0,0,1.95-1.95,1.908,1.908,0,0,0-.567-1.381Zm4.948.786v-5.557a13.766,13.766,0,0,1,1.576.164,18.468,18.468,0,0,1,2.959,5.393Zm0,14.291H183.2a18.655,18.655,0,0,1-2.972,5.407,12.382,12.382,0,0,1-1.576.156Zm10.036-14.291h-4.507a19.629,19.629,0,0,0-2.556-5.091,12.759,12.759,0,0,1,5.543,3.252,14.007,14.007,0,0,1,1.52,1.839Zm-1.52,16.144a12.8,12.8,0,0,1-5.543,3.236,19.492,19.492,0,0,0,2.556-5.089h4.507a13.629,13.629,0,0,1-1.52,1.853Z"/></g></g><g transform="translate(0 573)"><rect class="g" width="34" height="34" transform="translate(701 3940)"/><g transform="translate(96.185 3675.406)"><path class="i" d="M621.642,268.655a8.142,8.142,0,0,0-8.142,8.134c0,4.492,7.62,16.733,7.62,16.733a.564.564,0,0,0,1.058,0s7.609-12.229,7.609-16.733a8.136,8.136,0,0,0-8.145-8.134Zm0,4.177a2.851,2.851,0,1,1-2.849,2.851,2.847,2.847,0,0,1,2.849-2.851Z"/></g></g><g transform="translate(0 573)"><rect class="g" width="34" height="34" transform="translate(866 3638)"/><g transform="translate(323.117 3372.224)"><path class="i" d="M545.2,271.219v17.957h14.357v-1.8H546.985V273.02h25.143v9.87h.9a3.081,3.081,0,0,1,.9.143V271.219Zm27.828,17.054H562.255c-.492,0-.9.3-.9.684v1.336c0,.378.41.682.9.682h10.771a.814.814,0,0,0,.9-.682v-1.336a.814.814,0,0,0-.9-.684Zm-10.771-5.384h8.087v-8.085H548.784v10.782h10.771v-.23c0-1.639.625-2.468,2.7-2.468Zm-3.7-1.017v-1.886a2.5,2.5,0,0,1-1.29-.77,1.922,1.922,0,0,1-.408-1.25,1.824,1.824,0,0,1,.464-1.247,1.9,1.9,0,0,1,1.234-.58V275.7h.668v.436a1.976,1.976,0,0,1,1.145.494,1.956,1.956,0,0,1,.554,1.087l-1.149.148a.954.954,0,0,0-.55-.728v1.771a2.919,2.919,0,0,1,1.483.769,1.725,1.725,0,0,1,.405,1.191,1.989,1.989,0,0,1-.51,1.381,2.184,2.184,0,0,1-1.378.7v.856h-.668v-.843a2.053,2.053,0,0,1-1.264-.582,2.38,2.38,0,0,1-.623-1.362l1.176-.145a1.571,1.571,0,0,0,.273.622,1.157,1.157,0,0,0,.438.379Zm0-4.746a.805.805,0,0,0-.41.321.718.718,0,0,0-.159.476.672.672,0,0,0,.148.438.874.874,0,0,0,.42.332Zm.668,4.82a.893.893,0,0,0,.55-.32.852.852,0,0,0,.221-.6.733.733,0,0,0-.19-.506,1.074,1.074,0,0,0-.581-.351Zm13.8,9.927H562.255c-.492,0-.9.292-.9.67v1.347c0,.377.41.668.9.668h10.771c.494,0,.9-.291.9-.668v-1.347c0-.378-.405-.67-.9-.67Zm0-7.186H562.255c-.492,0-.9.307-.9.669v1.35c0,.378.41.667.9.667h10.771c.494,0,.9-.289.9-.667v-1.35c0-.362-.405-.669-.9-.669Z" transform="translate(0)"/></g></g><g transform="translate(0 573)"><rect class="g" width="34" height="34" transform="translate(1019 3940)"/><g transform="translate(1022.348 3945.472)"><path class="i" d="M491.9,651.5h6.547a2.963,2.963,0,0,1,2.109.877,2.921,2.921,0,0,1,.881,2.114v.153H505a3.562,3.562,0,0,1,3.56,3.561v12.345A3.558,3.558,0,0,1,505,674.1H485.307a3.561,3.561,0,0,1-3.557-3.545V658.207a3.565,3.565,0,0,1,3.557-3.561h3.561v-.111a3.028,3.028,0,0,1,.888-2.141h0a3.022,3.022,0,0,1,2.144-.893Zm6.547,1.9H491.9a1.109,1.109,0,0,0-.8.342h0a1.106,1.106,0,0,0-.344.794v.111h8.788v-.153a1.1,1.1,0,0,0-.331-.771,1.059,1.059,0,0,0-.767-.322Z" transform="translate(-481.75 -651.502)"/></g></g></g></g></svg>