<svg xmlns="http://www.w3.org/2000/svg" width="183" height="16.981" viewBox="0 0 183 16.981"><defs><style>.a{fill:#fff;}.b{fill:#db3a5e;}.c{fill:#ff1046;}.d{fill:#abcacc;}</style></defs><g transform="translate(22.329)"><rect class="a" width="1.935" height="16.177" transform="translate(0 0.392)"/><path class="a" d="M117.99,51.081V67.258h1.935V54.168l8.933,13.09h2.8V51.081h-1.935V64.212l-8.644-13.131Z" transform="translate(-111.609 -50.689)"/><path class="a" d="M154.432,51.081V67.258h1.894V60.3h7.533V58.367h-7.451v-5.31h7.986V51.081Z" transform="translate(-129.98 -50.689)"/><path class="a" d="M186.825,50.333a8.439,8.439,0,1,0,8.352,8.439A8.4,8.4,0,0,0,186.825,50.333Zm0,14.9a6.512,6.512,0,1,1,6.2-6.5A6.355,6.355,0,0,1,186.825,65.235Z" transform="translate(-142.1 -50.312)"/><path class="a" d="M224.752,53.728l1.605-1.605a5.812,5.812,0,0,0-4.562-1.832,6.032,6.032,0,0,0-3.557,1.056,4.136,4.136,0,0,0-1.8,3.452s-.313,3.913,4.173,4.8a7.02,7.02,0,0,1,1.012.264c1.2.428,3.529,1.571,2.471,3.749a3.07,3.07,0,0,1-2.7,1.482,3.732,3.732,0,0,1-3.641-1.729l-1.811,1.761a6.806,6.806,0,0,0,5.022,2.089,5.634,5.634,0,0,0,5.067-2.287,4.77,4.77,0,0,0,.652-1.607,4.276,4.276,0,0,0-1.233-4.25,4.789,4.789,0,0,0-1.971-1.03c-.67-.18-1.742-.468-2.845-.769a2.654,2.654,0,0,1-1.764-1.752,2.457,2.457,0,0,1,1.558-2.832A3.741,3.741,0,0,1,224.752,53.728Z" transform="translate(-160.989 -50.291)"/><path class="a" d="M244.583,51.247v16.1H255.2V65.407h-8.6V60.1h7.7V58.162h-7.7V53.14h8.356V51.247Z" transform="translate(-175.427 -50.773)"/><path class="a" d="M283.346,63.306A6.043,6.043,0,0,1,278.8,65.4a6.512,6.512,0,0,1,0-13.008,6.008,6.008,0,0,1,4.16,1.694l1.575-1.28A8.276,8.276,0,0,0,278.8,50.5a8.439,8.439,0,0,0,0,16.877,8.287,8.287,0,0,0,6.077-2.653Z" transform="translate(-188.467 -50.396)"/><path class="b" d="M301.5,51.247v1.4h5.543v14.7h1.372V52.591H313.9V51.247Z" transform="translate(-204.121 -50.773)"/><path class="b" d="M337.535,59.617s3.165-.2,3.976-2.714a4.34,4.34,0,0,0-2.708-5.366c-.093-.032-.189-.063-.288-.092a5.6,5.6,0,0,0-1.554-.2h-5.244V67.342h1.263V59.617l3.073.055,4.556,7.67h1.646Zm-4.446-1.263V52.591h4.067a3.16,3.16,0,0,1,.782.088l.054.014a2.8,2.8,0,0,1,1.746,4.289,2.73,2.73,0,0,1-.873.871,3.4,3.4,0,0,1-1.832.5Z" transform="translate(-219.353 -50.773)"/><path class="b" d="M362.91,51.247h-1.866l-7.08,16.095h1.866l1.674-4.267h8.425l1.811,4.267h1.811Zm-4.775,10.4,3.622-8.837h.275l3.458,8.837Z" transform="translate(-230.568 -50.773)"/><rect class="b" width="1.372" height="16.095" transform="translate(141.288 0.474)"/><path class="b" d="M402.332,51.247v16.1h1.482V53.36l9.715,13.982h2.094v-16.1h-1.545V65.16l-9.715-13.913Z" transform="translate(-254.952 -50.773)"/></g><g transform="translate(0 0.397)"><rect class="c" width="8.093" height="8.093" rx="1.213" transform="translate(0 0)"/><path class="d" d="M66.839,69.226v6.931a.263.263,0,0,1-.263.263h-2.4a.263.263,0,0,1-.263-.263V72.6H60.428a.334.334,0,0,1-.334-.334v-2.7a.334.334,0,0,1,.334-.334Z" transform="translate(-60.094 -60.233)"/><rect class="c" width="8.093" height="8.093" rx="1.444" transform="translate(8.093 8.093)"/><rect class="c" width="3.147" height="3.147" transform="translate(8.993 4.047)"/><rect class="d" width="1.349" height="1.349" transform="translate(0 13.039)"/><rect class="d" width="1.349" height="1.349" transform="translate(0 14.838)"/><rect class="d" width="1.349" height="1.349" transform="translate(1.799 13.039)"/><rect class="d" width="1.349" height="1.349" transform="translate(1.799 14.838)"/><rect class="c" width="3.147" height="3.147" transform="translate(8.993 0)"/><rect class="c" width="3.147" height="3.147" transform="translate(13.039 4.047)"/><rect class="c" width="3.147" height="3.147" transform="translate(13.039 0)"/></g></svg>