<svg xmlns="http://www.w3.org/2000/svg" width="751" height="225" viewBox="0 0 751 225"><defs><style>.a{fill:#ed4539;}.b{fill:#515151;font-family:Poppins-Medium, Poppins;font-weight:500;letter-spacing:0.025em;}.b,.c{font-size:16px;}.c{fill:#fff;font-family:Poppins-SemiBold, Poppins;font-weight:600;letter-spacing:0.01em;}</style></defs><g transform="translate(-303 -2308.5)"><rect class="a" width="37" height="335.854" transform="translate(906.354 2308.5) rotate(90)"/><rect class="a" width="37" height="265.041" transform="translate(835.541 2355.5) rotate(90)"/><rect class="a" width="37" height="483.5" transform="translate(1054 2402.5) rotate(90)"/><rect class="a" width="37" height="159.834" transform="translate(730.334 2449.5) rotate(90)"/><rect class="a" width="37" height="313.598" transform="translate(884.098 2496.5) rotate(90)"/><text class="b" transform="translate(555 2333)"><tspan x="-231.792" y="0">Information Security Officer</tspan></text><text class="c" transform="translate(894 2333)"><tspan x="-71.984" y="0">$140,874</tspan></text><text class="c" transform="translate(1040 2427)"><tspan x="-63.2" y="0">$153,811</tspan></text><text class="c" transform="translate(822 2380)"><tspan x="-66.672" y="0">$131,020</tspan></text><text class="c" transform="translate(718 2474)"><tspan x="-68.304" y="0">$116,694</tspan></text><text class="c" transform="translate(872 2521)"><tspan x="-68.816" y="0">$139,677</tspan></text><text class="b" transform="translate(555 2380)"><tspan x="-145.824" y="0">Security Engineer</tspan></text><text class="b" transform="translate(555 2427)"><tspan x="-171.6" y="0">Security Architect, IT</tspan></text><text class="b" transform="translate(555 2474)"><tspan x="-239.2" y="0">Information Security Analyst</tspan></text><text class="b" transform="translate(555 2521)"><tspan x="-251.84" y="0">Information Security Manager</tspan></text></g></svg>