<svg xmlns="http://www.w3.org/2000/svg" width="18.974" height="19.065" viewBox="0 0 18.974 19.065"><defs><style>.a{fill:#ff1046;fill-rule:evenodd;}</style></defs><path class="a" d="M16.459,2.771A9.449,9.449,0,0,0,1.59,14.17l-1.34,4.9,5.008-1.314A9.437,9.437,0,0,0,9.773,18.9h0A9.451,9.451,0,0,0,16.459,2.771ZM9.776,17.306h0a7.842,7.842,0,0,1-4-1.095l-.287-.17-2.972.78.793-2.9-.187-.3a7.852,7.852,0,1,1,6.652,3.68Zm4.307-5.881c-.236-.118-1.4-.689-1.613-.768s-.374-.118-.531.118-.61.768-.748.925-.275.177-.511.059a6.447,6.447,0,0,1-1.9-1.172A7.12,7.12,0,0,1,7.469,8.953c-.138-.236,0-.352.1-.482a6.677,6.677,0,0,0,.59-.807.434.434,0,0,0-.02-.414c-.059-.118-.531-1.28-.728-1.753s-.386-.4-.531-.405-.295-.008-.452-.008a.867.867,0,0,0-.63.3,2.648,2.648,0,0,0-.826,1.969A4.592,4.592,0,0,0,5.94,9.79a10.522,10.522,0,0,0,4.032,3.564,13.512,13.512,0,0,0,1.346.5,3.236,3.236,0,0,0,1.487.094A2.432,2.432,0,0,0,14.4,12.823a1.972,1.972,0,0,0,.138-1.123c-.059-.1-.216-.157-.452-.276Zm0,0" transform="translate(-0.25)"/></svg>