<?xml version="1.0" encoding="utf-8"?>
<!-- Generator: Adobe Illustrator 19.1.0, SVG Export Plug-In . SVG Version: 6.00 Build 0)  -->
<svg version="1.1" id="Layer_1" xmlns="http://www.w3.org/2000/svg" xmlns:xlink="http://www.w3.org/1999/xlink" x="0px" y="0px"
	 viewBox="-49 141 512 512" style="enable-background:new -49 141 512 512;" xml:space="preserve">
<style type="text/css">
	.st0{fill:#FFC107;}
	.st1{fill:#FFFFFF;}
	.st2{fill:#EF1B1B;}
	.st3{fill:#FF6969;}
</style>
<g id="color">
	<g>
		<g>
			<path class="st0" d="M29.7,157c-29.2,0-53,23.8-53,53v174.3c0,13.9,5.7,27.6,15.5,37.5l190.1,190.1
				c10.3,10.3,23.9,15.5,37.5,15.5c13.5,0,27.1-5.2,37.5-15.5l174.3-174.3c20.7-20.7,20.7-54.3,0-74.9L241.4,172.5
				c-9.9-9.9-23.5-15.5-37.5-15.5L29.7,157L29.7,157z"/>
		</g>
	</g>
	<g>
		<g>
			<circle class="st1" cx="56.7" cy="237" r="32"/>
		</g>
	</g>
</g>
<g id="_x31_.5">
	<g>
		<g>
			<path class="st2" d="M215.6,653c-14.8,0-29.5-5.6-40.8-16.9l-207-207C-42.8,418.4-49,403.5-49,388.4V198.7
				c0-31.8,25.9-57.7,57.7-57.7h189.7c15.4,0,29.9,6,40.8,16.9l207,207c10.9,10.9,16.9,25.4,16.9,40.8c0,15.4-6,29.9-16.9,40.8
				L256.4,636.1C245.2,647.3,230.4,653,215.6,653L215.6,653z M8.6,173C-5.5,173-17,184.5-17,198.7v189.7c0,6.8,2.8,13.4,7.5,18.2
				l207,207c10,10,26.3,10,36.3,0l189.7-189.7c4.9-4.9,7.5-11.3,7.5-18.2c0-6.8-2.7-13.3-7.5-18.1l-206.9-207
				c-4.9-4.9-11.3-7.5-18.2-7.5L8.6,173z"/>
		</g>
	</g>
	<g>
		<g>
			<path class="st3" d="M4.3,237c0-23.5,19.1-42.7,42.7-42.7s42.7,19.1,42.7,42.7S70.5,279.7,47,279.7S4.3,260.5,4.3,237z M36.3,237
				c0,5.9,4.8,10.7,10.7,10.7s10.7-4.8,10.7-10.7s-4.8-10.7-10.7-10.7S36.3,231.1,36.3,237z"/>
		</g>
	</g>
</g>
</svg>
