<svg xmlns="http://www.w3.org/2000/svg" width="44" height="44" viewBox="0 0 44 44"><defs><style>.a{fill:#fff;stroke:#707070;opacity:0;}.b{fill:#3d3d3d;}.c{stroke:none;}.d{fill:none;}</style></defs><g transform="translate(-538 -4826)"><g class="a" transform="translate(538 4826)"><rect class="c" width="44" height="44"/><rect class="d" x="0.5" y="0.5" width="43" height="43"/></g><g transform="translate(-128 -90)"><g transform="translate(670 4920)"><path class="b" d="M886.153,216.105a17.57,17.57,0,0,0-10.74-10.01,17.585,17.585,0,0,0-11.041,0,17.379,17.379,0,0,0-4.23,2.064,20.6,20.6,0,0,0-4.586,4.445,19.4,19.4,0,0,0-1.957,3.5,17.822,17.822,0,0,0,0,13.373,17.589,17.589,0,0,0,32.553,0,17.361,17.361,0,0,0,0-13.373Zm-15.5,1.692a.677.677,0,0,0-.692.677v4.979h-4.395a.684.684,0,1,0,0,1.367h5.087a.679.679,0,0,0,.677-.692v-5.654a.677.677,0,0,0-.677-.677Zm-.763-7.041a11.95,11.95,0,1,1-11.95,11.949,11.96,11.96,0,0,1,11.95-11.949Zm8.963,11.949a.718.718,0,0,1,.728-.727h1.312a10.856,10.856,0,0,0-1.1-4.13l-1.14.642a.719.719,0,0,1-.368.108.734.734,0,0,1-.643-.376.754.754,0,0,1,.268-1l1.151-.659a11.137,11.137,0,0,0-3.021-3.04l-.674,1.155a.716.716,0,0,1-.623.373.7.7,0,0,1-.37-.106.715.715,0,0,1-.269-.993l.661-1.14a11.175,11.175,0,0,0-4.127-1.121v1.315a.755.755,0,0,1-.747.749.732.732,0,0,1-.728-.749V211.7c-1.887.125-4.643.212-3.471,2.238a.756.756,0,0,1-.286,1.015.721.721,0,0,1-.992-.268l-.66-1.155a11,11,0,0,0-3.026,3.04l1.137.659a.714.714,0,0,1,.273,1,.7.7,0,0,1-.641.376.622.622,0,0,1-.355-.108L860,217.848a10.792,10.792,0,0,0-1.1,4.13h1.3a.728.728,0,1,1,0,1.455h-1.3a10.924,10.924,0,0,0,1.1,4.144l1.139-.655a.726.726,0,1,1,.723,1.259l-1.137.677c1.054,1.566,2.51,3.912,3.686,1.867a.724.724,0,0,1,.992-.266.756.756,0,0,1,.286,1.01l-.656,1.141a11.408,11.408,0,0,0,4.127,1.1V232.4a.731.731,0,0,1,.728-.746.754.754,0,0,1,.747.746v1.316a11.436,11.436,0,0,0,4.127-1.1l-.661-1.141a.73.73,0,0,1,.269-1.01.722.722,0,0,1,.993.266l.674,1.157a11.042,11.042,0,0,0,3.021-3.023l-1.151-.677a.75.75,0,0,1-.268-1,.729.729,0,0,1,1.011-.262l1.14.655a10.99,10.99,0,0,0,1.1-4.144h-1.312a.72.72,0,0,1-.728-.728Zm5.136,6.827h0a15.638,15.638,0,0,1-28.218,0,15.632,15.632,0,1,1,28.218-13.461,15.559,15.559,0,0,1,0,13.461Z" transform="translate(-852.298 -205.206)"/></g></g></g></svg>