<svg width="45" height="45" viewBox="0 0 45 45" fill="none" xmlns="http://www.w3.org/2000/svg">
<path d="M4.72917 33.1378L3.55566 31.9545L19.2991 16.3389L26.0251 21.0215L34.9546 14.2344L35.9629 15.5609L26.0683 23.082L19.4871 18.5003L4.72917 33.1378Z" fill="#F26678"/>
<path d="M2.5 37.8369H15.8331V42.3988H2.5V37.8369Z" fill="#BBCCFF"/>
<path d="M15.833 34.8721H29.1661V42.3983H15.833V34.8721Z" fill="#AABFF2"/>
<path d="M29.167 31.7539H42.5001V42.3983H29.167V31.7539Z" fill="#99B1E0"/>
<path d="M17.1797 12.5297L17.248 12.5494C17.8568 12.7242 18.4944 12.7752 19.1233 12.6994C19.1233 12.6994 21.7923 12.6723 22.5682 12.2843C23.8034 11.6666 25.9071 8.42908 25.9071 8.42908L24.2699 7.25293C24.2699 7.25293 22.4305 9.42333 21.5716 9.75097C20.7355 10.0699 17.8513 9.49771 17.8513 9.49771L17.1797 12.5297Z" fill="#FDDF8C"/>
<path d="M18.2285 19.7359C18.2285 19.7359 18.7273 25.1087 17.9394 26.839C16.95 29.0118 11.3191 34.1618 11.3191 34.1618L9.27051 32.6807C9.27051 32.6807 13.2032 26.8965 13.7868 24.6736C14.1087 23.4479 13.7868 19.6045 13.7868 19.6045" fill="#382F93"/>
<path d="M16.7923 5.00355C16.7923 5.12441 16.7819 5.24871 16.7647 5.37646C16.6991 5.7977 16.5299 6.24313 16.2916 6.60222C16.0775 6.93025 15.8082 7.18575 15.5009 7.2997C15.3939 7.33768 15.2834 7.3584 15.1694 7.3584C14.2544 7.3584 13.4775 6.00143 13.4775 5.00355C13.4775 4.4511 13.7054 3.95735 14.068 3.62932L14.106 3.59135C14.1957 3.51192 14.2924 3.44288 14.3994 3.39107C14.5997 3.27712 14.8276 3.21152 15.0693 3.20463C15.09 3.20117 15.1142 3.20117 15.1349 3.20117C16.0499 3.20117 16.7923 4.00913 16.7923 5.00355Z" fill="#34324C"/>
<g opacity="0.15">
<path d="M17.4863 5.36322C17.1099 5.79826 16.7129 6.21606 16.2916 6.60278C16.0361 6.84794 15.7737 7.07928 15.5009 7.30026C15.3939 7.33824 15.2834 7.35896 15.1694 7.35896C14.2544 7.35896 13.4775 6.00199 13.4775 5.00411C13.4775 4.45166 13.7054 3.95791 14.068 3.62988C13.8194 3.88539 13.6536 4.22722 13.6536 4.56905C13.6536 5.24927 14.358 6.22298 15.0382 6.22298C15.4906 6.22298 15.8669 5.73957 16.0672 5.21473C16.2916 5.30105 16.5264 5.35285 16.7647 5.37702C17.0029 5.40465 17.248 5.4012 17.4863 5.36322Z" fill="black"/>
</g>
<path d="M19.566 11.526V19.7361H13.623V9.98053C13.623 9.69842 13.8517 9.46973 14.1339 9.46973H17.5098C18.6454 9.46973 19.566 10.3903 19.566 11.526Z" fill="#FDDF8C"/>
<path d="M15.1699 6.55469H17.4662V9.46906H15.1699V6.55469Z" fill="#FDC7B4"/>
<path d="M17.4661 6.55371V8.69448C17.4661 8.69448 16.4509 9.21932 15.1699 9.02251V6.55371H17.4661Z" fill="#EFB5A3"/>
<path d="M17.1797 8.71485C16.0703 8.71485 15.1709 7.81547 15.1709 6.70603V5.32425C15.1709 4.21481 16.0703 3.31543 17.1797 3.31543C18.2892 3.31543 19.1886 4.21481 19.1886 5.32425V6.70603C19.1886 7.81547 18.2892 8.71485 17.1797 8.71485Z" fill="#FDC7B4"/>
<path d="M16.2292 4.43384C16.2292 4.66518 16.1704 4.94486 16.0669 5.21417C15.8666 5.73901 15.4902 6.22242 15.0379 6.22242C14.3577 6.22242 13.6533 5.24871 13.6533 4.56849C13.6533 4.22666 13.819 3.88483 14.0677 3.62932L14.1056 3.59135C14.192 3.50846 14.2886 3.43251 14.3957 3.37381C14.5787 3.26678 14.7858 3.20117 14.993 3.20117C15.0172 3.20117 15.0448 3.20117 15.069 3.20463C15.7181 3.2426 16.2292 3.77779 16.2292 4.43384Z" fill="#34324C"/>
<path d="M19.9647 3.5781C19.9647 3.84986 19.856 4.09454 19.6793 4.27116C19.5027 4.44777 19.2581 4.55645 18.9864 4.55645H14.2842V3.98308C14.2842 3.22222 14.9011 2.60254 15.6647 2.60254H18.9864C19.5272 2.60254 19.9647 3.04003 19.9647 3.5781Z" fill="#34324C"/>
<path d="M17.083 6.11523C17.1866 6.11523 17.2705 6.03129 17.2705 5.92773C17.2705 5.82418 17.1866 5.74023 17.083 5.74023C16.9795 5.74023 16.8955 5.82418 16.8955 5.92773C16.8955 6.03129 16.9795 6.11523 17.083 6.11523Z" fill="#313131"/>
<path d="M18.416 6.11523C18.5196 6.11523 18.6035 6.03129 18.6035 5.92773C18.6035 5.82418 18.5196 5.74023 18.416 5.74023C18.3125 5.74023 18.2285 5.82418 18.2285 5.92773C18.2285 6.03129 18.3125 6.11523 18.416 6.11523Z" fill="#313131"/>
<path d="M17.0316 7.12207C17.0311 7.13314 17.0283 7.14354 17.0283 7.15472C17.0283 7.57546 17.3694 7.91653 17.7901 7.91653C18.2109 7.91653 18.5519 7.57546 18.5519 7.15472C18.5519 7.14354 18.5491 7.13314 18.5486 7.12207H17.0316Z" fill="white"/>
<g opacity="0.15">
<path d="M16.0669 5.21438C15.8666 5.73922 15.4902 6.22263 15.0379 6.22263C14.3577 6.22263 13.6533 5.24892 13.6533 4.5687C13.6533 4.22687 13.819 3.88504 14.0677 3.62953L14.1056 3.59155C14.192 3.50867 14.2886 3.43272 14.3957 3.37402C14.3957 3.38091 14.3957 3.38437 14.3991 3.39128C14.4647 3.77109 14.6719 4.11637 14.9205 4.40988C15.0863 4.60324 15.2762 4.77588 15.4902 4.92089C15.6698 5.04174 15.8632 5.14188 16.0669 5.21438Z" fill="black"/>
</g>
<path d="M14.5388 9.46982L14.4677 9.46973C13.8343 9.46896 13.2072 9.59516 12.6234 9.84086C12.6234 9.84086 10.0646 10.6006 9.42528 11.1869C8.40739 12.1204 6.85059 16.0747 6.85059 16.0747L9.3233 16.7143C9.3233 16.7143 10.344 13.8998 11.0798 13.3487C11.3607 13.1383 12.1913 12.9133 13.0971 12.7175C14.5505 12.4034 15.2754 10.7615 14.5388 9.46982Z" fill="#FDDF8C"/>
<path d="M13.6931 12.6724L13.5527 12.3928C14.4292 11.9521 14.8729 10.9097 14.5848 9.96851L14.8839 9.87695C15.2159 10.9622 14.7039 12.1639 13.6931 12.6724Z" fill="#F2CF77"/>
<path d="M24.7198 31.1573L22.0374 31.2967C22.0374 31.2967 21.3362 26.7595 20.4001 25.6121C20.1924 25.3566 18.9629 24.901 17.623 24.4268C15.605 23.7127 14.1026 22.0006 13.6599 19.9063L13.624 19.7363H19.566C19.566 19.7363 23.2643 22.5927 24.1168 23.9988C25.0888 25.6002 24.7198 31.1573 24.7198 31.1573Z" fill="#4B39A8"/>
<path d="M27.1732 33.3458C26.936 32.0647 25.796 31.1144 24.4541 31.1587L22.0254 31.2389L22.0949 33.3458H27.1732Z" fill="#34324C"/>
<path d="M12.0606 37.5047C12.6575 36.3467 12.3383 34.8972 11.2503 34.1105L9.2812 32.6865L8.0459 34.3947L12.0606 37.5047Z" fill="#34324C"/>
<path d="M19.4092 11.2998H19.7217V12.6304H19.4092V11.2998Z" fill="#F2CF77"/>
<path d="M9.32329 16.714L9.1051 18.0268C9.07385 18.2149 8.88913 18.3365 8.70405 18.2909C8.53272 18.2487 8.42572 18.0782 8.46221 17.9055L8.74418 16.5713L9.32329 16.714Z" fill="#FDC7B4"/>
<path d="M6.25017 18.4008L6.37911 17.8816C6.41521 17.7362 6.56284 17.6474 6.70819 17.6834L9.62566 18.408C9.771 18.4441 9.8599 18.5917 9.82381 18.737L9.69487 19.2562L10.2214 19.387L10.3503 18.8678C10.4585 18.4321 10.1921 17.9896 9.75642 17.8814L6.83895 17.1569C6.40325 17.0487 5.96077 17.3151 5.85257 17.7508L5.72363 18.27L6.25017 18.4008Z" fill="#894E57"/>
<path d="M11.1036 21.0151L10.1396 24.8969C10.0605 25.2152 9.74058 25.4079 9.42221 25.3288L3.31091 23.8112C2.99453 23.7326 2.79988 23.4121 2.87894 23.0938L3.84293 19.212C3.922 18.8936 4.19879 18.8833 4.51518 18.9618L10.6265 20.4795C10.9448 20.5585 11.1827 20.6967 11.1036 21.0151Z" fill="#894E57"/>
<g opacity="0.06">
<path d="M11.1703 20.7468L10.4892 23.4896C10.3567 23.5609 10.1971 23.5871 10.0369 23.5473L3.59922 21.9486C3.43903 21.9089 3.31227 21.8115 3.22852 21.6865L3.90965 18.9437C3.98872 18.6253 4.31067 18.4331 4.62705 18.5117L10.7383 20.0294C11.0567 20.1084 11.2494 20.4284 11.1703 20.7468Z" fill="black"/>
</g>
<path d="M11.5266 20.1419L10.8391 22.9101C10.7558 23.2455 10.4187 23.4485 10.0833 23.3652L3.64457 21.7663C3.31124 21.6835 3.10616 21.3459 3.18946 21.0104L3.8769 18.2422C3.96021 17.9067 4.29941 17.7043 4.63274 17.7871L11.0715 19.386C11.4069 19.4693 11.6099 19.8064 11.5266 20.1419Z" fill="#A06167"/>
<path d="M7.82249 22.0592L7.56184 23.1088C7.54408 23.1803 7.46979 23.223 7.39828 23.2053L6.09034 22.8805C6.01883 22.8627 5.97548 22.7907 5.99323 22.7192L6.25388 21.6696C6.27164 21.5981 6.3442 21.5525 6.41571 21.5702L7.72365 21.8951C7.79516 21.9128 7.84024 21.9877 7.82249 22.0592Z" fill="#D7E9F9"/>
<path d="M7.43288 22.1995L7.28345 22.8013C7.27327 22.8423 7.23067 22.8668 7.18967 22.8566L6.43979 22.6704C6.39879 22.6602 6.37394 22.6189 6.38412 22.5779L6.53355 21.9762C6.54373 21.9352 6.58534 21.909 6.62633 21.9192L7.37622 22.1054C7.41722 22.1156 7.44306 22.1585 7.43288 22.1995Z" fill="white"/>
<path d="M7.46264 18.1086C6.89303 17.9682 6.54504 17.3927 6.68539 16.8231L6.86173 16.1074L8.9245 16.6157L8.74816 17.3313C8.6078 17.901 8.03226 18.249 7.46264 18.1086Z" fill="#FDC7B4"/>
<path d="M27.2686 6.78906C27.2686 7.06413 27.1227 7.34326 26.8144 7.54325L25.9062 8.42971L24.2686 7.25171L24.2894 6.07658C24.281 5.92664 24.3727 5.7891 24.5102 5.73499C24.5519 5.7183 24.5977 5.70996 24.6394 5.70996C24.8186 5.70996 24.9811 5.84749 24.9894 6.03914L25.0269 6.70585L25.6935 6.12235C26.0936 5.77669 26.7019 5.8182 27.0477 6.21818C27.1894 6.38501 27.2686 6.585 27.2686 6.78906Z" fill="#FDC7B4"/>
<path d="M35.7869 18.7717L34.1357 18.5455L34.5235 15.7167L31.6943 15.3289L31.9206 13.6777L36.401 14.2917L35.7869 18.7717Z" fill="#F26678"/>
</svg>
