<svg width="45" height="45" viewBox="0 0 45 45" fill="none" xmlns="http://www.w3.org/2000/svg">
<g clip-path="url(#clip0_10085_746)">
<path fill-rule="evenodd" clip-rule="evenodd" d="M27.4111 44.2881L24.2998 35.6133H22.498H20.6963L17.5938 44.2881H22.498H27.4111Z" fill="#26435E"/>
<path fill-rule="evenodd" clip-rule="evenodd" d="M6.70606 11.5488H38.3027C39.6123 11.5488 40.6846 12.6211 40.6846 13.9307V36.791C40.6846 38.1006 39.6123 39.1729 38.3027 39.1729H6.70606C5.39648 39.1729 4.32422 38.1006 4.32422 36.791V13.9307C4.32422 12.6211 5.39648 11.5576 6.70606 11.5488Z" fill="#2F5274"/>
<path fill-rule="evenodd" clip-rule="evenodd" d="M7.50781 14.5371H37.4873V36.2021H7.50781V14.5371Z" fill="#AAE6FA"/>
<path d="M14.5361 45C14.1406 45 13.8242 44.6836 13.8242 44.2881C13.8242 43.8926 14.1406 43.5762 14.5361 43.5762H30.4531C30.8486 43.5762 31.165 43.8926 31.165 44.2881C31.165 44.6836 30.8398 45 30.4531 45H14.5361Z" fill="#2F5274"/>
<path fill-rule="evenodd" clip-rule="evenodd" d="M11.416 19.4326H33.582C33.8809 19.4326 34.127 19.6787 34.127 19.9775V32.8096C34.127 33.1084 33.8809 33.3545 33.582 33.3545H11.416C11.1172 33.3545 10.8711 33.1084 10.8711 32.8096V19.9775C10.8711 19.6787 11.1172 19.4326 11.416 19.4326Z" fill="#0593FC"/>
<path fill-rule="evenodd" clip-rule="evenodd" d="M31.1367 17.8245C28.3242 17.2269 25.5117 17.2269 22.708 17.93C22.5586 17.9652 22.4268 17.9652 22.2861 17.93C19.4736 17.2269 16.6699 17.2269 13.8574 17.8245C13.4531 17.9124 13.1719 18.264 13.1719 18.6771V30.138C13.1719 30.4105 13.2861 30.639 13.4883 30.806C13.6992 30.9818 13.9453 31.0433 14.209 30.9905C16.8984 30.4632 19.5967 30.4896 22.2861 31.1663C22.4268 31.2015 22.5586 31.2015 22.708 31.1663C25.3975 30.4896 28.0957 30.4632 30.7852 30.9905C31.0488 31.0433 31.2949 30.9818 31.5059 30.806C31.7168 30.639 31.8223 30.4017 31.8223 30.138V18.6683C31.8223 18.2552 31.541 17.9124 31.1367 17.8245Z" fill="#EBF5FC"/>
<path fill-rule="evenodd" clip-rule="evenodd" d="M23.209 17.8066C23.042 17.8418 22.875 17.8857 22.708 17.9209C22.5586 17.9561 22.4268 17.9561 22.2861 17.9209C22.1191 17.8857 21.9521 17.8418 21.7852 17.8066V31.0342C21.9521 31.0693 22.1191 31.1133 22.2861 31.1572C22.4268 31.1924 22.5586 31.1924 22.708 31.1572C22.875 31.1133 23.042 31.0781 23.209 31.0342V17.8066Z" fill="#D4DDE3"/>
<path fill-rule="evenodd" clip-rule="evenodd" d="M15.0391 0H29.9717C30.5518 0 31.0176 0.474609 31.0176 1.0459V11.1357C31.0176 11.7158 30.543 12.1816 29.9717 12.1816H25.2871C25.0938 12.1816 24.918 12.2783 24.8213 12.4453L22.9668 15.6533C22.8701 15.8203 22.7031 15.917 22.501 15.917C22.2988 15.917 22.1318 15.8203 22.0352 15.6533L20.1807 12.4453C20.084 12.2783 19.917 12.1816 19.7148 12.1816H15.0303C14.4502 12.1816 13.9844 11.707 13.9844 11.1357V1.0459C13.9932 0.474609 14.459 0 15.0391 0Z" fill="#D9ECF9"/>
<path fill-rule="evenodd" clip-rule="evenodd" d="M18.6758 5.02734V8.93848C18.6758 9.16699 18.79 9.4043 19.1152 9.51856C21.4268 10.3096 23.6152 10.3008 25.9268 9.50977C26.1729 9.42188 26.3311 9.20215 26.3311 8.93848V5.02734H18.6758Z" fill="#0593FC"/>
<path fill-rule="evenodd" clip-rule="evenodd" d="M16.25 4.54419L22.4023 2.10962C22.4727 2.08325 22.5342 2.08325 22.6045 2.10962L28.7568 4.54419C28.8623 4.58813 28.9326 4.68481 28.9326 4.79907C28.9326 4.91333 28.8623 5.01001 28.7568 5.06274L22.6045 7.49731C22.5342 7.52368 22.4639 7.52368 22.4023 7.49731L16.25 5.06274C16.1445 5.0188 16.0742 4.92212 16.0742 4.79907C16.0742 4.68481 16.1445 4.57935 16.25 4.54419Z" fill="#2F5274"/>
<path d="M27.7109 5.18555C27.7109 4.79004 28.0273 4.47363 28.4229 4.47363C28.8184 4.47363 29.1348 4.79883 29.1348 5.18555V7.66406C29.1348 8.05957 28.8184 8.37598 28.4229 8.37598C28.0273 8.37598 27.7109 8.05078 27.7109 7.66406V5.18555Z" fill="#FFD400"/>
</g>
<defs>
<clipPath id="clip0_10085_746">
<rect width="45" height="45" fill="white"/>
</clipPath>
</defs>
</svg>
