<svg width="45" height="45" viewBox="0 0 45 45" fill="none" xmlns="http://www.w3.org/2000/svg">
<g clip-path="url(#clip0_8627_3581)">
<path d="M38.6389 0H6.36146C5.12625 0 4.125 1.00134 4.125 2.23646V20.7577C4.125 21.9929 5.12634 22.9942 6.36146 22.9942H38.639C39.8742 22.9942 40.8755 21.9929 40.8755 20.7577V2.23646C40.8754 1.00134 39.8742 0 38.6389 0Z" fill="#407194"/>
<path d="M7.02235 2.53516H37.978C38.1781 2.53516 38.3402 2.69731 38.3402 2.89735V20.0967C38.3402 20.2967 38.1781 20.4589 37.978 20.4589H7.02235C6.82231 20.4589 6.66016 20.2967 6.66016 20.0967V2.89735C6.66024 2.69731 6.8224 2.53516 7.02235 2.53516Z" fill="#62A4FB"/>
<path d="M6.66012 11.0058V11.9887C6.66012 12.6888 6.09261 13.2563 5.39256 13.2563C4.69251 13.2563 4.125 12.6888 4.125 11.9887V11.0058C4.125 10.3058 4.69251 9.73828 5.39256 9.73828C6.09261 9.73828 6.66012 10.3057 6.66012 11.0058Z" fill="#365F7E"/>
<path d="M27.9425 14.2652C26.2969 13.0726 23.9828 13.2177 22.5 14.7006V6.99151C24.1041 5.38751 26.6809 5.34884 28.3318 6.8755C28.4103 6.94809 28.4525 7.05198 28.4525 7.15894V14.0105C28.4525 14.2732 28.1552 14.4193 27.9425 14.2652Z" fill="#BED9FD"/>
<path d="M22.5003 14.7005C21.0174 13.2177 18.7035 13.0726 17.0579 14.2651C16.8451 14.4193 16.5479 14.2731 16.5479 14.0104V7.15888C16.5479 7.05192 16.59 6.94803 16.6685 6.87543C18.3196 5.34886 20.8962 5.38753 22.5003 6.99145V14.7005Z" fill="#DDEBFD"/>
<path d="M22.5003 26.0206C22.1253 26.0206 21.8213 25.7166 21.8213 25.3415V17.3558C21.8213 16.9807 22.1253 16.6768 22.5003 16.6768C22.8754 16.6768 23.1794 16.9808 23.1794 17.3558V25.3415C23.1794 25.7167 22.8754 26.0206 22.5003 26.0206Z" fill="#BED9FD"/>
<path d="M35.4493 26.5339C35.2562 26.5339 35.0643 26.452 34.93 26.2929L27.7554 17.7937C27.5135 17.5071 27.5497 17.0787 27.8363 16.8368C28.1229 16.5952 28.5514 16.6311 28.7932 16.9177L35.9678 25.4169C36.2098 25.7035 36.1736 26.132 35.887 26.3739C35.7595 26.4814 35.604 26.5339 35.4493 26.5339Z" fill="#BED9FD"/>
<path d="M11.3114 26.6167C11.1768 26.6167 11.0409 26.5768 10.9224 26.4937C10.6152 26.2786 10.5406 25.8551 10.7557 25.5479L16.7668 16.9663C16.9821 16.6591 17.4055 16.5845 17.7126 16.7997C18.0198 17.0149 18.0944 17.4384 17.8793 17.7455L11.8682 26.3272C11.7361 26.5157 11.5254 26.6167 11.3114 26.6167Z" fill="#BED9FD"/>
<path d="M22.5004 31.9716C24.3312 31.9716 25.8153 30.4874 25.8153 28.6567C25.8153 26.8259 24.3312 25.3418 22.5004 25.3418C20.6697 25.3418 19.1855 26.8259 19.1855 28.6567C19.1855 30.4874 20.6697 31.9716 22.5004 31.9716Z" fill="#80E29E"/>
<path d="M37.2216 31.9716C39.0524 31.9716 40.5365 30.4874 40.5365 28.6567C40.5365 26.8259 39.0524 25.3418 37.2216 25.3418C35.3909 25.3418 33.9067 26.8259 33.9067 28.6567C33.9067 30.4874 35.3909 31.9716 37.2216 31.9716Z" fill="#F5DE46"/>
<path d="M9.08197 31.9716C10.9127 31.9716 12.3969 30.4874 12.3969 28.6567C12.3969 26.8259 10.9127 25.3418 9.08197 25.3418C7.25121 25.3418 5.76709 26.8259 5.76709 28.6567C5.76709 30.4874 7.25121 31.9716 9.08197 31.9716Z" fill="#E27C48"/>
<path d="M27.1664 34.8717H23.8907V29.4007C23.8907 28.6519 23.3152 28.0075 22.5672 27.9723C21.7686 27.9347 21.1093 28.571 21.1093 29.3614V36.6053H19.4675C18.9671 36.6053 18.5615 37.011 18.5615 37.5113V38.6818C18.5615 40.1729 19.6236 41.4156 21.0324 41.6956V44.8187C21.0324 44.9187 21.1134 44.9998 21.2134 44.9998H27.2147C27.3147 44.9998 27.3958 44.9187 27.3958 44.8187V41.7466C29.1894 41.6284 30.6079 40.137 30.6079 38.3134C30.608 36.4126 29.0672 34.8717 27.1664 34.8717Z" fill="#FFCDBE"/>
<path d="M27.1668 34.8721H24.6128C26.5135 34.8721 28.0544 36.413 28.0544 38.3137C28.0544 40.1372 26.6359 41.6287 24.8423 41.7469V44.819C24.8423 44.919 24.7612 45.0001 24.6612 45.0001H27.2152C27.3153 45.0001 27.3963 44.9189 27.3963 44.819V41.7469C29.19 41.6287 30.6084 40.1372 30.6084 38.3137C30.6084 36.413 29.0676 34.8721 27.1668 34.8721Z" fill="#EBAE9D"/>
</g>
<defs>
<clipPath id="clip0_8627_3581">
<rect width="45" height="45" fill="white"/>
</clipPath>
</defs>
</svg>
