<svg width="20" height="20" viewBox="0 0 20 20" fill="none" xmlns="http://www.w3.org/2000/svg">
<g clip-path="url(#clip0_7117_4128)">
<path d="M8.03147 3.96897L9.375 2.62558V4.72657C9.375 5.05021 9.6373 5.31251 9.96094 5.31251C10.2846 5.31251 10.5469 5.05021 10.5469 4.72657V2.62558L11.8904 3.96897C12.1192 4.19785 12.4902 4.19785 12.719 3.96897C12.9479 3.74009 12.9479 3.36915 12.719 3.14042L10.3752 0.796662C10.1465 0.567779 9.7754 0.567779 9.54667 0.796662L7.20291 3.14042C6.97403 3.36915 6.97403 3.74009 7.20291 3.96897C7.43164 4.19785 7.80274 4.19785 8.03147 3.96897Z" fill="#EE224A"/>
<path d="M2.47635 13.344C2.70508 13.5729 3.07618 13.5729 3.30491 13.344C3.53379 13.1152 3.53379 12.7443 3.30491 12.5154L1.96137 11.1719H4.10157C4.42521 11.1719 4.68751 10.9096 4.68751 10.5859C4.68751 10.2623 4.42521 10 4.10157 10H1.96137L3.30491 8.65647C3.53379 8.42774 3.53379 8.05679 3.30491 7.82791C3.07618 7.59903 2.70508 7.59903 2.47635 7.82791L0.132599 10.1717C-0.0962831 10.4005 -0.0962831 10.7715 0.132599 11.0002L2.47635 13.344Z" fill="#EE224A"/>
<path d="M17.4455 7.82791C17.2168 7.59903 16.8457 7.59903 16.617 7.82791C16.3881 8.05679 16.3881 8.42774 16.617 8.65647L17.9604 10H15.8203C15.4967 10 15.2344 10.2623 15.2344 10.5859C15.2344 10.9096 15.4967 11.1719 15.8203 11.1719H17.9604L16.6168 12.5154C16.3881 12.7442 16.3881 13.1151 16.6168 13.344C16.8457 13.5729 17.2166 13.5729 17.4455 13.344L19.7893 11.0002C20.0182 10.7713 20.0182 10.4004 19.7893 10.1717L17.4455 7.82791Z" fill="#EE224A"/>
<path d="M5.31257 19.375H14.615C14.7831 19.375 14.943 19.3028 15.0543 19.177C15.1655 19.0509 15.2172 18.8834 15.1965 18.7166C14.8684 16.0855 12.6188 14.1016 9.96376 14.1016C7.30873 14.1016 5.05912 16.0855 4.73106 18.7166C4.71031 18.8834 4.76203 19.0509 4.87327 19.177C4.98451 19.3028 5.14442 19.375 5.31257 19.375ZM9.96376 15.2734C11.8006 15.2734 13.3878 16.4938 13.8958 18.2031H6.03172C6.53969 16.4938 8.12691 15.2734 9.96376 15.2734Z" fill="#EE224A"/>
<path d="M13.4766 10.5859C13.4766 8.64746 11.8994 7.07031 9.96094 7.07031C8.02246 7.07031 6.44531 8.64746 6.44531 10.5859C6.44531 12.5244 8.02246 14.1016 9.96094 14.1016C11.8994 14.1016 13.4766 12.5244 13.4766 10.5859ZM9.96094 12.9297C8.66852 12.9297 7.61719 11.8784 7.61719 10.5859C7.61719 9.29352 8.66852 8.24219 9.96094 8.24219C11.2532 8.24219 12.3047 9.29352 12.3047 10.5859C12.3047 11.8784 11.2532 12.9297 9.96094 12.9297Z" fill="#EE224A"/>
</g>
<defs>
<clipPath id="clip0_7117_4128">
<rect width="20" height="20" fill="white"/>
</clipPath>
</defs>
</svg>
