<svg width="20" height="20" viewBox="0 0 20 20" fill="none" xmlns="http://www.w3.org/2000/svg">
<g clip-path="url(#clip0_7117_4093)">
<path d="M16.5833 2.57392C16.4809 2.13364 16.2899 1.71879 16.0221 1.35461C15.7543 0.99043 15.4152 0.684532 15.0255 0.455516C14.6357 0.2265 14.2035 0.0791524 13.755 0.0224346C13.3065 -0.0342831 12.8512 0.000813929 12.4167 0.125591L10.98 0.536425C10.6161 0.641025 10.2809 0.82744 10 1.08142C9.71914 0.82744 9.38393 0.641025 9.02 0.536425L7.58333 0.125591C7.14911 0.00146427 6.6942 -0.0331324 6.2462 0.0239012C5.7982 0.0809349 5.36646 0.228409 4.97719 0.457373C4.58792 0.686337 4.24924 0.992015 3.9817 1.35585C3.71416 1.71969 3.52334 2.1341 3.42083 2.57392C2.46233 2.74831 1.59524 3.25306 0.970277 4.00042C0.345314 4.74779 0.00199665 5.69052 0 6.66476L0 12.4981C0.00132321 13.6028 0.440735 14.6618 1.22185 15.4429C2.00296 16.224 3.062 16.6634 4.16667 16.6648H9.16667V18.3314H6.66667C6.44565 18.3314 6.23369 18.4192 6.07741 18.5755C5.92113 18.7318 5.83333 18.9437 5.83333 19.1648C5.83333 19.3858 5.92113 19.5977 6.07741 19.754C6.23369 19.9103 6.44565 19.9981 6.66667 19.9981H13.3333C13.5543 19.9981 13.7663 19.9103 13.9226 19.754C14.0789 19.5977 14.1667 19.3858 14.1667 19.1648C14.1667 18.9437 14.0789 18.7318 13.9226 18.5755C13.7663 18.4192 13.5543 18.3314 13.3333 18.3314H10.8333V16.6648H15.8333C16.938 16.6634 17.997 16.224 18.7782 15.4429C19.5593 14.6618 19.9987 13.6028 20 12.4981V6.66476C19.9982 5.69112 19.6555 4.74886 19.0313 4.00158C18.4072 3.2543 17.5411 2.74918 16.5833 2.57392ZM10.8333 2.94059C10.8334 2.7596 10.8924 2.58356 11.0014 2.43908C11.1104 2.2946 11.2635 2.18953 11.4375 2.13976L12.875 1.72892C13.1231 1.65797 13.3842 1.64558 13.6379 1.69273C13.8916 1.73988 14.1308 1.84528 14.3368 2.00063C14.5428 2.15599 14.71 2.35705 14.825 2.58798C14.9401 2.81891 15 3.07341 15 3.33142V6.61309C14.9988 6.97472 14.8805 7.32622 14.6626 7.61486C14.4447 7.90349 14.1391 8.1137 13.7917 8.21393L10.8333 9.05893V2.94059ZM5.66667 1.99809C5.87227 1.8433 6.11104 1.73841 6.36412 1.6917C6.61721 1.64499 6.87768 1.65773 7.125 1.72892L8.5625 2.13976C8.73651 2.18953 8.88958 2.2946 8.99859 2.43908C9.10759 2.58356 9.16659 2.7596 9.16667 2.94059V9.05893L6.20833 8.21393C5.86087 8.1137 5.55528 7.90349 5.33742 7.61486C5.11955 7.32622 5.00116 6.97472 5 6.61309V3.33142C4.99915 3.07253 5.05902 2.81705 5.1748 2.58549C5.29058 2.35393 5.45905 2.15275 5.66667 1.99809ZM18.3333 12.4981C18.3333 13.1611 18.0699 13.797 17.6011 14.2659C17.1323 14.7347 16.4964 14.9981 15.8333 14.9981H4.16667C3.50363 14.9981 2.86774 14.7347 2.3989 14.2659C1.93006 13.797 1.66667 13.1611 1.66667 12.4981V6.66476C1.6688 6.14954 1.83007 5.64757 2.12841 5.22751C2.42674 4.80745 2.84758 4.48983 3.33333 4.31809V6.61309C3.33537 7.33671 3.57201 8.04015 4.00775 8.61787C4.44348 9.19559 5.05481 9.61644 5.75 9.81726L8.62583 10.6398C9.5246 10.896 10.4771 10.896 11.3758 10.6398L14.2517 9.81726C14.9465 9.61614 15.5575 9.19516 15.9929 8.61747C16.4283 8.03977 16.6647 7.33649 16.6667 6.61309V4.31809C17.1524 4.48983 17.5733 4.80745 17.8716 5.22751C18.1699 5.64757 18.3312 6.14954 18.3333 6.66476V12.4981Z" fill="#EE224A"/>
</g>
<defs>
<clipPath id="clip0_7117_4093">
<rect width="20" height="20" fill="white"/>
</clipPath>
</defs>
</svg>
