<svg width="20" height="20" viewBox="0 0 20 20" fill="none" xmlns="http://www.w3.org/2000/svg">
<g clip-path="url(#clip0_7117_4121)">
<path fill-rule="evenodd" clip-rule="evenodd" d="M9.85863 0C7.13856 0 4.92969 2.20887 4.92969 4.92894C4.92969 7.64901 7.13856 9.85789 9.85863 9.85789C12.5794 9.85789 14.7876 7.64901 14.7876 4.92894C14.7876 2.20887 12.5794 0 9.85863 0ZM9.85863 1.40827C11.802 1.40827 13.3793 2.98553 13.3793 4.92894C13.3793 6.87235 11.802 8.44962 9.85863 8.44962C7.91592 8.44962 6.33796 6.87235 6.33796 4.92894C6.33796 2.98553 7.91592 1.40827 9.85863 1.40827Z" fill="#EE224A"/>
<path fill-rule="evenodd" clip-rule="evenodd" d="M1.40827 18.307H9.2819C9.67059 18.307 9.98604 18.6224 9.98604 19.0111C9.98604 19.3998 9.67059 19.7152 9.2819 19.7152H0.704135C0.315452 19.7152 0 19.3998 0 19.0111C0 19.0111 0 18.4302 0 17.6028C0 14.1026 2.83766 11.2656 6.33721 11.2656H9.2819C9.67059 11.2656 9.98604 11.5811 9.98604 11.9698C9.98604 12.3584 9.67059 12.6739 9.2819 12.6739H6.33721C3.61503 12.6739 1.40827 14.8807 1.40827 17.6028V18.307Z" fill="#EE224A"/>
<path fill-rule="evenodd" clip-rule="evenodd" d="M15.6513 18.7397L13.9663 19.8811C13.7502 20.0269 13.4713 20.0424 13.2418 19.9198C13.0115 19.798 12.8672 19.5586 12.8672 19.2981V14.5557C12.8672 14.2635 13.0482 14.0009 13.3214 13.8974C13.5953 13.7939 13.9044 13.8692 14.098 14.0882C14.479 14.517 15.0345 14.7881 15.652 14.7881C16.2703 14.7881 16.8258 14.517 17.2061 14.0882C17.4004 13.8692 17.7095 13.7939 17.9827 13.8974C18.2566 14.0009 18.4369 14.2635 18.4369 14.5557V19.2981C18.4369 19.5586 18.2933 19.798 18.063 19.9198C17.8327 20.0424 17.5539 20.0269 17.3384 19.8811L15.6513 18.7397ZM14.2755 15.9133V17.9708L15.257 17.3068C15.495 17.1456 15.8077 17.1449 16.0464 17.3061L17.0286 17.9715V15.9133C16.6068 16.0957 16.1407 16.1964 15.652 16.1964C15.1634 16.1964 14.6979 16.0957 14.2755 15.9133Z" fill="#EE224A"/>
<path fill-rule="evenodd" clip-rule="evenodd" d="M15.6488 9.22656C13.7258 9.22656 12.1641 10.7883 12.1641 12.7113C12.1641 14.635 13.7258 16.1968 15.6488 16.1968C17.5725 16.1968 19.1343 14.635 19.1343 12.7113C19.1343 10.7883 17.5725 9.22656 15.6488 9.22656ZM15.6488 10.6348C16.7952 10.6348 17.726 11.565 17.726 12.7113C17.726 13.8577 16.7952 14.7885 15.6488 14.7885C14.5025 14.7885 13.5723 13.8577 13.5723 12.7113C13.5723 11.565 14.5025 10.6348 15.6488 10.6348Z" fill="#EE224A"/>
</g>
<defs>
<clipPath id="clip0_7117_4121">
<rect width="20" height="20" fill="white"/>
</clipPath>
</defs>
</svg>
