<svg width="20" height="20" viewBox="0 0 20 20" fill="none" xmlns="http://www.w3.org/2000/svg">
<g clip-path="url(#clip0_7117_4107)">
<path d="M6.61438 14.492C7.13582 13.9874 7.46094 13.2812 7.46094 12.5C7.46094 10.9707 6.21676 9.72656 4.6875 9.72656C3.15824 9.72656 1.91406 10.9707 1.91406 12.5C1.91406 13.2787 2.23707 13.9829 2.75559 14.4872C1.13195 15.1693 0 16.6834 0 18.4375C0 18.7611 0.262344 19.0234 0.585938 19.0234C0.909531 19.0234 1.17188 18.7611 1.17188 18.4375C1.17188 16.6929 2.74898 15.2734 4.6875 15.2734C6.60449 15.2734 8.16406 16.6929 8.16406 18.4375C8.16406 18.7611 8.42641 19.0234 8.75 19.0234C9.07359 19.0234 9.33594 18.7611 9.33594 18.4375C9.33594 16.6874 8.21855 15.1763 6.61438 14.492ZM3.08594 12.5C3.08594 11.6169 3.80441 10.8984 4.6875 10.8984C5.57059 10.8984 6.28906 11.6169 6.28906 12.5C6.28906 13.3831 5.57059 14.1016 4.6875 14.1016C3.80441 14.1016 3.08594 13.3831 3.08594 12.5Z" fill="#EE224A"/>
<path d="M10.6641 9.6875C10.6641 10.0111 10.9264 10.2734 11.25 10.2734C11.5736 10.2734 11.8359 10.0111 11.8359 9.6875C11.8359 7.94285 13.3955 6.52344 15.3125 6.52344C17.251 6.52344 18.8281 7.94285 18.8281 9.6875C18.8281 10.0111 19.0905 10.2734 19.4141 10.2734C19.7377 10.2734 20 10.0111 20 9.6875C20 7.9334 18.868 6.41926 17.2444 5.73719C17.7629 5.23293 18.0859 4.52867 18.0859 3.75C18.0859 2.22074 16.8418 0.976562 15.3125 0.976562C13.7832 0.976562 12.5391 2.22074 12.5391 3.75C12.5391 4.53117 12.8642 5.23742 13.3856 5.74199C11.7814 6.42633 10.6641 7.93742 10.6641 9.6875ZM13.7109 3.75C13.7109 2.86691 14.4294 2.14844 15.3125 2.14844C16.1956 2.14844 16.9141 2.86691 16.9141 3.75C16.9141 4.63309 16.1956 5.35156 15.3125 5.35156C14.4294 5.35156 13.7109 4.63309 13.7109 3.75Z" fill="#EE224A"/>
<path d="M2.46094 8.39812H8.16406C8.81023 8.39812 9.33594 7.87242 9.33594 7.22625V5.93718C9.38598 5.88679 9.76039 5.46738 10.8229 4.25941C11.5906 3.49172 11.2111 2.41078 10.2482 2.2357C10.1273 2.21363 10.6484 2.22625 2.46094 2.22625C1.81477 2.22625 1.28906 2.75195 1.28906 3.39812V7.22625C1.28906 7.87242 1.81477 8.39812 2.46094 8.39812ZM2.46094 3.39812C7.01973 3.39812 9.37453 3.39894 10.0264 3.39894C9.95316 3.4732 9.54027 3.90777 8.53586 5.03968C8.29582 5.2882 8.16406 5.60297 8.16406 5.93718V7.22625H2.46094V3.39812Z" fill="#EE224A"/>
<path d="M14.0494 14.2002C13.7802 14.3821 13.7084 14.7408 13.8877 15.0128C14.0564 15.2694 14.4176 15.3609 14.7002 15.1745C14.9683 14.9936 15.0421 14.6353 14.8619 14.362C14.6832 14.0964 14.3258 14.0186 14.0494 14.2002Z" fill="#EE224A"/>
<path d="M16.2997 14.8017C16.4066 15.3171 17.0784 15.4433 17.3615 15.0127C17.6438 14.5846 17.2839 14.0147 16.7599 14.1127C16.4426 14.1786 16.2391 14.4781 16.2997 14.8017Z" fill="#EE224A"/>
<path d="M19.9981 16.6007V12.7725C19.9981 12.1264 19.4724 11.6007 18.8262 11.6007C9.1849 11.6007 9.8626 11.5895 9.7499 11.6101C8.78701 11.7852 8.40748 12.8661 9.17518 13.6338C10.2377 14.8418 10.6121 15.2612 10.6622 15.3116V16.6007C10.6622 17.2468 11.1879 17.7725 11.834 17.7725H18.8262C19.4724 17.7725 19.9981 17.2468 19.9981 16.6007ZM18.8262 16.6007H11.834V15.3116C11.834 14.9774 11.7022 14.6626 11.4622 14.4141C10.4578 13.2822 10.0449 12.8476 9.97174 12.7734C10.6235 12.7734 14.2674 12.7725 18.8262 12.7725V16.6007Z" fill="#EE224A"/>
</g>
<defs>
<clipPath id="clip0_7117_4107">
<rect width="20" height="20" fill="white"/>
</clipPath>
</defs>
</svg>
