<svg width="20" height="20" viewBox="0 0 20 20" fill="none" xmlns="http://www.w3.org/2000/svg">
<g clip-path="url(#clip0_7117_4089)">
<path d="M10 20C4.48583 20 0 15.5142 0 10C0 4.48583 4.48583 0 10 0C15.5142 0 20 4.48583 20 10C20 15.5142 15.5142 20 10 20ZM10 1.66667C5.405 1.66667 1.66667 5.405 1.66667 10C1.66667 14.595 5.405 18.3333 10 18.3333C14.595 18.3333 18.3333 14.595 18.3333 10C18.3333 5.405 14.595 1.66667 10 1.66667ZM12.0833 13.6083C12.4825 13.3783 12.6192 12.8683 12.3883 12.47L10.8333 9.77667V5C10.8333 4.54 10.4608 4.16667 10 4.16667C9.53917 4.16667 9.16667 4.54 9.16667 5V10C9.16667 10.1467 9.205 10.29 9.27833 10.4167L10.945 13.3033C11.1 13.5708 11.3792 13.72 11.6675 13.72C11.8092 13.72 11.9525 13.6842 12.0833 13.6083Z" fill="#EE224A"/>
</g>
<defs>
<clipPath id="clip0_7117_4089">
<rect width="20" height="20" fill="white"/>
</clipPath>
</defs>
</svg>
