<svg width="20" height="20" viewBox="0 0 20 20" fill="none" xmlns="http://www.w3.org/2000/svg">
<g clip-path="url(#clip0_7117_4136)">
<path d="M5.83333 11.6667C7.67167 11.6667 9.16667 10.1717 9.16667 8.33333C9.16667 6.495 7.67167 5 5.83333 5C3.995 5 2.5 6.495 2.5 8.33333C2.5 10.1717 3.995 11.6667 5.83333 11.6667ZM5.83333 6.66667C6.7525 6.66667 7.5 7.41417 7.5 8.33333C7.5 9.2525 6.7525 10 5.83333 10C4.91417 10 4.16667 9.2525 4.16667 8.33333C4.16667 7.41417 4.91417 6.66667 5.83333 6.66667ZM11.6667 19.1667C11.6667 19.6275 11.2933 20 10.8333 20C10.3733 20 10 19.6275 10 19.1667C10 16.8692 8.13083 15 5.83333 15C3.53583 15 1.66667 16.8692 1.66667 19.1667C1.66667 19.6275 1.29333 20 0.833333 20C0.373333 20 0 19.6275 0 19.1667C0 15.9508 2.61667 13.3333 5.83333 13.3333C9.05 13.3333 11.6667 15.9508 11.6667 19.1667ZM20 4.16667V10.8333C20 13.1308 18.1308 15 15.8333 15H12.5C12.04 15 11.6667 14.6275 11.6667 14.1667V12.5C11.6667 12.0392 12.04 11.6667 12.5 11.6667H15C15.46 11.6667 15.8333 12.0392 15.8333 12.5V13.3333C17.2117 13.3333 18.3333 12.2117 18.3333 10.8333V4.16667C18.3333 2.78833 17.2117 1.66667 15.8333 1.66667H7.8875C6.9975 1.66667 6.1675 2.14583 5.72167 2.9175C5.49083 3.31583 4.98167 3.45333 4.58333 3.22083C4.18417 2.99083 4.04833 2.48083 4.27917 2.0825C5.0225 0.798333 6.405 0 7.88833 0H15.8342C18.1317 0 20 1.86917 20 4.16667Z" fill="#EE224A"/>
</g>
<defs>
<clipPath id="clip0_7117_4136">
<rect width="20" height="20" fill="white"/>
</clipPath>
</defs>
</svg>
