<svg width="20" height="20" viewBox="0 0 20 20" fill="none" xmlns="http://www.w3.org/2000/svg">
<g clip-path="url(#clip0_7117_4140)">
<path d="M15 10C12.2425 10 10 12.2425 10 15C10 17.7575 12.2425 20 15 20C17.7575 20 20 17.7575 20 15C20 12.2425 17.7575 10 15 10ZM15 18.3333C13.1617 18.3333 11.6667 16.8383 11.6667 15C11.6667 13.1617 13.1617 11.6667 15 11.6667C16.8383 11.6667 18.3333 13.1617 18.3333 15C18.3333 16.8383 16.8383 18.3333 15 18.3333ZM16.4225 15.2442C16.7483 15.57 16.7483 16.0967 16.4225 16.4225C16.26 16.585 16.0467 16.6667 15.8333 16.6667C15.62 16.6667 15.4067 16.585 15.2442 16.4225L14.4108 15.5892C14.2542 15.4325 14.1667 15.2208 14.1667 15V13.3333C14.1667 12.8733 14.5392 12.5 15 12.5C15.4608 12.5 15.8333 12.8733 15.8333 13.3333V14.655L16.4225 15.2442ZM20 4.16667V8.33333C20 8.79333 19.6275 9.16667 19.1667 9.16667C18.7058 9.16667 18.3333 8.79333 18.3333 8.33333V4.16667C18.3333 2.78833 17.2117 1.66667 15.8333 1.66667H4.16667C2.78833 1.66667 1.66667 2.78833 1.66667 4.16667V12.5C1.66667 13.8783 2.78833 15 4.16667 15H7.5C7.96083 15 8.33333 15.3733 8.33333 15.8333C8.33333 16.2933 7.96083 16.6667 7.5 16.6667H4.16667C1.86917 16.6667 0 14.7975 0 12.5V4.16667C0 1.86917 1.86917 0 4.16667 0H15.8333C18.1308 0 20 1.86917 20 4.16667ZM12.41 9.28667L8.9625 11.2017C8.30667 11.5658 7.5 11.0917 7.5 10.3408V6.51C7.5 5.75917 8.30667 5.285 8.9625 5.64917L12.41 7.565C13.085 7.94 13.085 8.91083 12.41 9.28583V9.28667Z" fill="#EE224A"/>
</g>
<defs>
<clipPath id="clip0_7117_4140">
<rect width="20" height="20" fill="white"/>
</clipPath>
</defs>
</svg>
