<svg width="48" height="45" viewBox="0 0 48 45" fill="none" xmlns="http://www.w3.org/2000/svg">
<g clip-path="url(#clip0_17823_1160)">
<g clip-path="url(#clip1_17823_1160)">
<path fill-rule="evenodd" clip-rule="evenodd" d="M3.5711 16.8262H42.4198C44.1114 16.8262 45.4941 18.2114 45.4941 19.903V22.9799L44.9461 25.566L45.4941 27.8133V41.1723C45.4941 42.8639 44.1114 44.2492 42.4198 44.2492H3.5711C1.87938 44.2492 0.494141 42.8639 0.494141 41.1723V27.8133L0.912764 25.5437L0.494141 22.9799V19.903C0.494141 18.2114 1.87938 16.8262 3.5711 16.8262Z" fill="#9BE69D"/>
<path fill-rule="evenodd" clip-rule="evenodd" d="M43.2961 16.957C44.5642 17.3382 45.4935 18.5166 45.4935 19.9043V22.9811L44.9454 25.5672L45.4935 27.8145V41.1735C45.4935 42.8652 44.1108 44.2504 42.4192 44.2504H3.57046C2.18267 44.2504 1.00432 43.3186 0.623047 42.053H40.6601C42.1102 42.053 43.2961 40.8671 43.2961 39.4146V16.957Z" fill="#6FD7A3"/>
<path fill-rule="evenodd" clip-rule="evenodd" d="M15.3594 19.6399V10.8203H30.6268V19.6399C30.6268 20.0262 30.3104 20.3425 29.9243 20.3425H16.0644C15.6759 20.3425 15.3594 20.0262 15.3594 19.6399Z" fill="#60B7FF"/>
<path fill-rule="evenodd" clip-rule="evenodd" d="M15.3613 19.6389V18.144H26.2338C27.4422 18.144 28.4314 17.155 28.4314 15.9467V11.2578H30.6287V19.6389C30.6287 20.0252 30.3123 20.3415 29.9262 20.3415H16.0664C15.6778 20.3415 15.3613 20.0252 15.3613 19.6389Z" fill="#26A6FE"/>
<path d="M20.954 8.7112C21.3203 8.7112 21.6142 9.00766 21.6142 9.37144C21.6142 9.73521 21.3203 10.0317 20.954 10.0317C20.2091 10.0317 19.534 9.72774 19.0456 9.23942C18.5573 8.75102 18.2559 8.07593 18.2559 7.33097C18.2559 6.58601 18.5573 5.91092 19.0456 5.4226C19.534 4.93419 20.2091 4.63281 20.954 4.63281C21.7014 4.63281 22.3741 4.93428 22.8625 5.4226C22.9098 5.46742 22.9521 5.5148 22.9945 5.56454C23.0368 5.5148 23.0817 5.46742 23.1266 5.4226C23.6149 4.93419 24.29 4.63281 25.035 4.63281C25.7799 4.63281 26.455 4.93428 26.9434 5.4226C27.4318 5.91092 27.7332 6.58609 27.7332 7.33097C27.7332 8.07593 27.4317 8.75102 26.9434 9.23942C26.455 9.72774 25.7799 10.0317 25.035 10.0317C24.6712 10.0317 24.3747 9.73521 24.3747 9.37144C24.3747 9.00766 24.6712 8.7112 25.035 8.7112C25.4161 8.7112 25.7624 8.55669 26.0115 8.30761C26.2607 8.05844 26.4152 7.71215 26.4152 7.33097C26.4152 6.94979 26.2607 6.60596 26.0115 6.35441C25.7624 6.10524 25.4161 5.95073 25.035 5.95073C24.6538 5.95073 24.3075 6.10524 24.0584 6.35441C23.8092 6.60596 23.6547 6.94979 23.6547 7.33097V9.37144C23.6547 9.73521 23.3583 10.0317 22.9945 10.0317C22.6307 10.0317 22.3368 9.73521 22.3368 9.37144V7.33097C22.3368 6.94979 22.1823 6.60596 21.9307 6.35441C21.6815 6.10524 21.3377 5.95073 20.954 5.95073C20.5728 5.95073 20.229 6.10524 19.9798 6.35441C19.7282 6.60596 19.5737 6.94979 19.5737 7.33097C19.5737 7.71215 19.7282 8.05844 19.9798 8.30761C20.229 8.55678 20.5728 8.7112 20.954 8.7112Z" fill="#FF6471"/>
<path fill-rule="evenodd" clip-rule="evenodd" d="M15.3609 8.62305H30.6283C31.3533 8.62305 31.9462 9.21596 31.9462 9.94105C31.9462 10.6661 31.3533 11.259 30.6283 11.259H15.3609C14.6359 11.259 14.043 10.6661 14.043 9.94105C14.043 9.21596 14.6359 8.62305 15.3609 8.62305Z" fill="#FF4255"/>
<path fill-rule="evenodd" clip-rule="evenodd" d="M21.6758 11.2578H24.3116V20.3416H21.6758V11.2578Z" fill="#FF6471"/>
<path d="M30.0646 1.8781C29.808 1.61899 29.808 1.20283 30.0646 0.946279C30.3213 0.687178 30.7398 0.687178 30.9964 0.946279L31.562 1.51186C31.8211 1.76841 31.8211 2.18703 31.562 2.44367C31.3054 2.70022 30.8894 2.70022 30.6302 2.44367L30.0646 1.8781ZM3.34676 4.21256C3.08766 3.95346 3.08766 3.53729 3.34676 3.27828C3.60331 3.02164 4.02193 3.02164 4.27857 3.27828L4.84415 3.84632C5.10079 4.10296 5.10079 4.51895 4.84415 4.77813C4.58751 5.03478 4.16897 5.03478 3.91233 4.77813L3.34676 4.21256ZM6.02742 6.89331C5.77078 6.63421 5.77078 6.21805 6.02742 5.96149C6.28406 5.70239 6.7026 5.70239 6.95924 5.96149L7.52481 6.52707C7.78392 6.78362 7.78392 7.20225 7.52481 7.4588C7.26817 7.71535 6.84964 7.71535 6.593 7.4588L6.02742 6.89331ZM4.27849 7.45889C4.02185 7.71544 3.60331 7.71544 3.34667 7.45889C3.08757 7.20225 3.08757 6.78362 3.34667 6.52716L3.91225 5.96158C4.16889 5.70248 4.58742 5.70248 4.84406 5.96158C5.1007 6.21813 5.1007 6.63421 4.84406 6.8934L4.27849 7.45889ZM6.95933 4.77805C6.70269 5.03469 6.28415 5.03469 6.02751 4.77805C5.77087 4.51895 5.77087 4.10287 6.02751 3.84623L6.59309 3.27819C6.84964 3.02155 7.26826 3.02155 7.5249 3.27819C7.784 3.53721 7.784 3.95337 7.5249 4.21247L6.95933 4.77805ZM6.68774 11.328C6.4311 11.0714 6.4311 10.6528 6.68774 10.3962C6.9443 10.1396 7.36292 10.1396 7.61956 10.3962L8.1876 10.9618C8.44424 11.2209 8.44424 11.6369 8.1876 11.8936C7.9285 12.1527 7.51242 12.1527 7.25332 11.8936L6.68774 11.328ZM9.36841 14.0088C9.11186 13.7521 9.11186 13.3336 9.36841 13.0769C9.62751 12.8203 10.0437 12.8203 10.3002 13.0769L10.8683 13.6425C11.1249 13.9016 11.1249 14.3177 10.8683 14.5743C10.6092 14.8334 10.1931 14.8334 9.93644 14.5743L9.36841 14.0088ZM7.61947 14.5743C7.36283 14.8334 6.9443 14.8334 6.68766 14.5743C6.43102 14.3177 6.43102 13.9017 6.68766 13.6425L7.25323 13.0769C7.51233 12.8203 7.92841 12.8203 8.18751 13.0769C8.44415 13.3336 8.44415 13.7521 8.18751 14.0088L7.61947 14.5743ZM10.3002 11.8935C10.0437 12.1526 9.62751 12.1526 9.36841 11.8935C9.11186 11.6369 9.11186 11.2209 9.36841 10.9617L9.93653 10.3961C10.1931 10.1395 10.6092 10.1395 10.8683 10.3961C11.125 10.6527 11.125 11.0713 10.8683 11.3279L10.3002 11.8935ZM33.4629 11.8885C33.2038 11.6318 33.2038 11.2133 33.4629 10.9567C33.7195 10.7 34.1356 10.7 34.3947 10.9567L34.9603 11.5222C35.2169 11.7789 35.2169 12.1975 34.9603 12.4541C34.7037 12.7132 34.285 12.7132 34.0285 12.4541L33.4629 11.8885ZM36.1437 14.5693C35.8847 14.3127 35.8847 13.8942 36.1437 13.6375C36.4003 13.3809 36.8188 13.3809 37.0755 13.6375L37.6411 14.2031C37.8977 14.4622 37.8977 14.8783 37.6411 15.1349C37.3845 15.394 36.9659 15.394 36.7092 15.1349L36.1437 14.5693ZM34.3948 15.1349C34.1357 15.394 33.7195 15.394 33.463 15.1349C33.2039 14.8783 33.2039 14.4623 33.463 14.2031L34.0286 13.6375C34.2851 13.3809 34.7038 13.3809 34.9604 13.6375C35.217 13.8942 35.217 14.3127 34.9604 14.5693L34.3948 15.1349ZM37.0755 12.4541C36.8165 12.7132 36.4003 12.7132 36.1437 12.4541C35.8847 12.1975 35.8847 11.7789 36.1437 11.5222L36.7092 10.9567C36.9659 10.7 37.3845 10.7 37.6411 10.9567C37.8977 11.2133 37.8977 11.6318 37.6411 11.8885L37.0755 12.4541ZM38.3287 4.21001C38.0721 3.95091 38.0721 3.53475 38.3287 3.27573C38.5878 3.01909 39.0039 3.01909 39.2605 3.27573L39.8286 3.84377C40.0852 4.10041 40.0852 4.5164 39.8286 4.77559C39.5695 5.03223 39.1534 5.03223 38.8943 4.77559L38.3287 4.21001ZM41.0095 6.89076C40.7528 6.63175 40.7528 6.21559 41.0095 5.95895C41.2685 5.69993 41.6847 5.69993 41.9414 5.95895L42.5094 6.52461C42.7661 6.78116 42.7661 7.19979 42.5094 7.45643C42.2503 7.71298 41.8342 7.71298 41.5776 7.45643L41.0095 6.89076ZM39.2604 7.45634C39.0038 7.71289 38.5878 7.71289 38.3286 7.45634C38.072 7.1997 38.072 6.78107 38.3286 6.52452L38.8942 5.95886C39.1533 5.69984 39.5694 5.69984 39.8285 5.95886C40.0851 6.2155 40.0851 6.63157 39.8285 6.89067L39.2604 7.45634ZM41.9413 4.77559C41.6846 5.03223 41.2685 5.03223 41.0094 4.77559C40.7527 4.51648 40.7527 4.10041 41.0094 3.84377L41.5774 3.27573C41.8341 3.01909 42.2501 3.01909 42.5092 3.27573C42.7659 3.53475 42.7659 3.95091 42.5092 4.21001L41.9413 4.77559ZM32.7454 4.55876C32.4887 4.30221 32.4887 3.88358 32.7454 3.62694C33.0045 3.36793 33.4206 3.36793 33.6772 3.62694L34.2452 4.19252C34.502 4.44907 34.502 4.86769 34.2452 5.12434C33.9861 5.38089 33.5701 5.38089 33.3134 5.12434L32.7454 4.55876ZM30.9964 5.12442C30.7398 5.38098 30.3213 5.38098 30.0646 5.12442C29.808 4.86778 29.808 4.44916 30.0646 4.19261L30.6302 3.62703C30.8893 3.36802 31.3054 3.36802 31.562 3.62703C31.8211 3.88367 31.8211 4.30229 31.562 4.55885L30.9964 5.12442ZM33.6772 2.44367C33.4206 2.70022 33.0046 2.70022 32.7454 2.44367C32.4887 2.18703 32.4887 1.76841 32.7454 1.51186L33.3134 0.946279C33.5701 0.687178 33.986 0.687178 34.2452 0.946279C34.502 1.20283 34.502 1.61891 34.2452 1.8781L33.6772 2.44367Z" fill="#FFE363"/>
<path fill-rule="evenodd" clip-rule="evenodd" d="M0.494141 22.9805H45.4941V27.8138H0.494141V22.9805Z" fill="#017297"/>
<path fill-rule="evenodd" clip-rule="evenodd" d="M6.66744 32.6914H19.4135C19.7997 32.6914 20.1161 33.0078 20.1161 33.3939V35.5042C20.1161 35.8904 19.7997 36.2069 19.4135 36.2069H6.66744C6.28125 36.2069 5.96484 35.8904 5.96484 35.5042V33.3939C5.96484 33.0077 6.28125 32.6914 6.66744 32.6914Z" fill="#FFD15B"/>
<path d="M26.4356 33.7907C26.0718 33.7907 25.7754 33.4941 25.7754 33.1303C25.7754 32.7667 26.0718 32.4727 26.4356 32.4727H40.0263C40.3901 32.4727 40.684 32.7667 40.684 33.1303C40.684 33.4941 40.39 33.7907 40.0263 33.7907H26.4356ZM26.4356 36.4265C26.0718 36.4265 25.7754 36.1325 25.7754 35.7663C25.7754 35.4025 26.0718 35.1085 26.4356 35.1085H36.6056C36.9694 35.1085 37.2633 35.4025 37.2633 35.7663C37.2633 36.1325 36.9693 36.4265 36.6056 36.4265H26.4356Z" fill="#025F80"/>
<path d="M6.40446 41.2593C6.04068 41.2593 5.74414 40.9653 5.74414 40.6016C5.74414 40.238 6.04068 39.9414 6.40446 39.9414H8.93571C9.29949 39.9414 9.59595 40.2379 9.59595 40.6016C9.59595 40.9654 9.29949 41.2593 8.93571 41.2593H6.40446ZM37.0539 41.2593C36.6901 41.2593 36.3962 40.9653 36.3962 40.6016C36.3962 40.238 36.6902 39.9414 37.0539 39.9414H39.5851C39.9489 39.9414 40.2453 40.2379 40.2453 40.6016C40.2453 40.9654 39.9489 41.2593 39.5851 41.2593H37.0539Z" fill="#025F80"/>
<path fill-rule="evenodd" clip-rule="evenodd" d="M43.2969 22.9805H45.4943V27.8138H43.2969V22.9805Z" fill="#025F80"/>
<path fill-rule="evenodd" clip-rule="evenodd" d="M21.6758 18.1445H24.3116V20.342H21.6758V18.1445Z" fill="#FF4255"/>
</g>
</g>
<defs>
<clipPath id="clip0_17823_1160">
<rect width="46.9688" height="45" fill="white" transform="translate(0.494141)"/>
</clipPath>
<clipPath id="clip1_17823_1160">
<rect width="45" height="45" fill="white" transform="translate(0.494141)"/>
</clipPath>
</defs>
</svg>
