<svg width="38" height="41" viewBox="0 0 38 41" fill="none" xmlns="http://www.w3.org/2000/svg">
<path fill-rule="evenodd" clip-rule="evenodd" d="M28.9471 34.4448H1.0303C0.778763 34.4448 0.572266 34.2482 0.572266 34.0055V0.724521C0.572266 0.481855 0.778855 0.285156 1.0303 0.285156H28.9471C29.1986 0.285156 29.4051 0.481767 29.4051 0.724521V34.0055C29.4052 34.2481 29.1986 34.4448 28.9471 34.4448Z" fill="#CACBCD"/>
<path fill-rule="evenodd" clip-rule="evenodd" d="M28.7722 34.4448H1.0303C0.778763 34.4448 0.572266 34.2482 0.572266 34.0055V0.865234H28.3142C28.5657 0.865234 28.7722 1.06185 28.7722 1.3046V34.4448Z" fill="#ECEFF0"/>
<path fill-rule="evenodd" clip-rule="evenodd" d="M19.2861 15.5808H13.7081C13.4566 15.5808 13.25 15.3842 13.25 15.1415C13.25 14.8984 13.4566 14.7017 13.7081 14.7017H19.2861C19.5422 14.7017 19.7443 14.8984 19.7443 15.1415C19.7443 15.3842 19.5422 15.5808 19.2861 15.5808ZM25.0258 5.4161H15.5047C15.2531 5.4161 15.0466 5.21949 15.0466 4.97639C15.0466 4.73372 15.2531 4.53711 15.5047 4.53711H25.0259C25.2774 4.53711 25.484 4.73372 25.484 4.97639C25.4839 5.21949 25.2773 5.4161 25.0258 5.4161ZM22.6545 7.54139H18.2532C18.0016 7.54139 17.7951 7.34434 17.7951 7.10202C17.7951 6.85892 18.0017 6.66222 18.2532 6.66222H22.6545C22.9059 6.66222 23.1125 6.85883 23.1125 7.10202C23.1126 7.34425 22.906 7.54139 22.6545 7.54139ZM25.7803 18.2744H13.7082C13.4567 18.2744 13.2501 18.0778 13.2501 17.835C13.2501 17.5923 13.4567 17.3958 13.7082 17.3958H25.7804C26.0318 17.3958 26.2384 17.5924 26.2384 17.835C26.2384 18.0777 26.0318 18.2744 25.7803 18.2744ZM25.7803 20.968H13.7082C13.4567 20.968 13.2501 20.7714 13.2501 20.5287C13.2501 20.2861 13.4567 20.0894 13.7082 20.0894H25.7804C26.0318 20.0894 26.2384 20.286 26.2384 20.5287C26.2384 20.7714 26.0318 20.968 25.7803 20.968ZM19.2861 25.2007H13.7081C13.4566 25.2007 13.25 25.0041 13.25 24.7614C13.25 24.5187 13.4566 24.322 13.7081 24.322H19.2861C19.5422 24.322 19.7443 24.5186 19.7443 24.7614C19.7443 25.0041 19.5422 25.2007 19.2861 25.2007ZM25.7803 27.8947H13.7082C13.4567 27.8947 13.2501 27.6981 13.2501 27.4549C13.2501 27.2123 13.4567 27.0157 13.7082 27.0157H25.7804C26.0318 27.0157 26.2384 27.2123 26.2384 27.4549C26.2384 27.6981 26.0318 27.8947 25.7803 27.8947ZM25.7803 30.5884H13.7082C13.4567 30.5884 13.2501 30.3918 13.2501 30.1491C13.2501 29.9064 13.4567 29.7097 13.7082 29.7097H25.7804C26.0318 29.7097 26.2384 29.9063 26.2384 30.1491C26.2384 30.3917 26.0318 30.5884 25.7803 30.5884Z" fill="#615260"/>
<path fill-rule="evenodd" clip-rule="evenodd" d="M10.786 20.9673H5.16312C4.90717 20.9673 4.70508 20.7707 4.70508 20.5281V15.1409C4.70508 14.8978 4.90717 14.7012 5.16312 14.7012H10.786C11.0374 14.7012 11.2441 14.8978 11.2441 15.1409V20.5281C11.244 20.7707 11.0374 20.9673 10.786 20.9673Z" fill="#CF515A"/>
<path fill-rule="evenodd" clip-rule="evenodd" d="M10.6917 20.9684H5.16116C4.90522 20.9684 4.70312 20.7718 4.70312 20.5291V15.2031H10.2337C10.4851 15.2031 10.6918 15.3997 10.6918 15.6428L10.6917 20.9684Z" fill="#EF525F"/>
<path fill-rule="evenodd" clip-rule="evenodd" d="M10.786 30.5886H5.16312C4.90717 30.5886 4.70508 30.392 4.70508 30.1492V24.7616C4.70508 24.519 4.90717 24.3223 5.16312 24.3223H10.786C11.0374 24.3223 11.2441 24.5189 11.2441 24.7616V30.1492C11.244 30.3919 11.0374 30.5886 10.786 30.5886Z" fill="#5CA882"/>
<path fill-rule="evenodd" clip-rule="evenodd" d="M10.6917 30.5896H5.16116C4.90522 30.5896 4.70312 30.393 4.70312 30.1502V24.8242H10.2337C10.4851 24.8242 10.6918 25.0208 10.6918 25.2636L10.6917 30.5896Z" fill="#60C090"/>
<path fill-rule="evenodd" clip-rule="evenodd" d="M7.59542 18.9957C7.47415 18.9957 7.35737 18.9496 7.27205 18.867L6.51753 18.1445C6.33791 17.9729 6.33791 17.6949 6.51753 17.5233C6.69265 17.3515 6.98465 17.3515 7.16426 17.5233L7.59542 17.935L8.78111 16.8003C8.95623 16.6291 9.24814 16.6291 9.42785 16.8003C9.60747 16.972 9.60747 17.2504 9.42785 17.4221L7.91888 18.867C7.83348 18.9496 7.7167 18.9957 7.59542 18.9957Z" fill="#615260"/>
<path fill-rule="evenodd" clip-rule="evenodd" d="M7.59542 28.617C7.47415 28.617 7.35737 28.571 7.27205 28.4884L6.51753 27.7655C6.33791 27.5942 6.33791 27.3158 6.51753 27.1442C6.69265 26.9725 6.98465 26.9725 7.16426 27.1442L7.59542 27.5564L8.78111 26.4217C8.95623 26.2501 9.24814 26.2501 9.42785 26.4217C9.60747 26.5934 9.60747 26.8714 9.42785 27.043L7.91888 28.4884C7.83348 28.571 7.7167 28.617 7.59542 28.617Z" fill="#615260"/>
<path fill-rule="evenodd" clip-rule="evenodd" d="M12.6929 11.9809H4.72562C4.47408 11.9809 4.26758 11.7843 4.26758 11.5415C4.26758 9.19432 6.26164 7.28516 8.70925 7.28516C11.1613 7.28516 13.151 9.19432 13.151 11.5415C13.151 11.7842 12.9489 11.9809 12.6929 11.9809Z" fill="#6E9FC1"/>
<path fill-rule="evenodd" clip-rule="evenodd" d="M12.4751 11.9799H4.72562C4.47408 11.9799 4.26758 11.7833 4.26758 11.5405C4.26758 10.4021 4.73672 9.36666 5.49913 8.60219C6.2188 8.12072 7.09323 7.83789 8.03499 7.83789C10.4472 7.83789 12.4117 9.68535 12.4751 11.9799Z" fill="#76B4E2"/>
<path fill-rule="evenodd" clip-rule="evenodd" d="M8.70939 8.16378C7.38454 8.16378 6.30664 7.13019 6.30664 5.86043C6.30664 4.59023 7.38454 3.55664 8.70939 3.55664C10.0342 3.55664 11.1121 4.59023 11.1121 5.86043C11.1121 7.13019 10.0343 8.16378 8.70939 8.16378Z" fill="#CEAFA6"/>
<path fill-rule="evenodd" clip-rule="evenodd" d="M8.70939 8.16329C7.38454 8.16329 6.30664 7.1297 6.30664 5.85994C6.30664 5.08782 6.70487 4.40324 7.31473 3.98506C7.60002 3.87027 7.91321 3.80664 8.24153 3.80664C9.56638 3.80664 10.6443 4.84023 10.6443 6.11043C10.6443 6.88229 10.246 7.56669 9.6361 7.98487C9.3508 8.09975 9.0378 8.16329 8.70939 8.16329Z" fill="#F0CCBE"/>
<path fill-rule="evenodd" clip-rule="evenodd" d="M31.2424 40.714C31.2064 40.714 31.175 40.7106 31.1391 40.7037C30.9729 40.668 30.8427 40.5462 30.7977 40.3883L28.9474 33.7735L27.097 40.3883C27.0521 40.5462 26.9219 40.6679 26.7557 40.7037C26.5851 40.739 26.4144 40.6831 26.3021 40.5578L24.856 38.9102L22.7407 39.6425C22.5789 39.6981 22.3993 39.6636 22.2735 39.5531C22.1478 39.4425 22.0984 39.2738 22.1388 39.1154L24.4697 30.7846C24.5012 30.6698 24.582 30.5721 24.6898 30.514C24.8021 30.4564 24.9278 30.4435 25.0446 30.4779L28.9474 31.616L32.8502 30.4779C32.967 30.4435 33.0928 30.4564 33.2051 30.514C33.3128 30.5721 33.3937 30.6698 33.4251 30.7846L35.756 39.1154C35.7964 39.2738 35.7471 39.4425 35.6213 39.5531C35.4955 39.6636 35.3159 39.6985 35.1542 39.6425L33.0388 38.9102L31.5927 40.5578C31.5029 40.6581 31.3726 40.714 31.2424 40.714Z" fill="#D9B667"/>
<path fill-rule="evenodd" clip-rule="evenodd" d="M30.8733 40.5375C30.8393 40.4935 30.8133 40.443 30.7977 40.3882L28.9474 33.7734L28.7331 34.5394L28.4729 33.6091L26.6225 40.2239C26.5779 40.3805 26.4495 40.5017 26.2852 40.5385L24.6347 38.6582L22.2661 39.4783C22.2497 39.484 22.2331 39.4886 22.2164 39.4924C22.1337 39.3858 22.1052 39.2471 22.1388 39.1154L24.4697 30.7846C24.5012 30.6698 24.582 30.5721 24.6898 30.514C24.8021 30.4564 24.9278 30.4435 25.0446 30.4779L28.9474 31.616L32.8502 30.4779C32.8585 30.4754 32.8668 30.4732 32.8752 30.4713C32.9098 30.5156 32.9357 30.5661 32.9506 30.6205L35.2815 38.9513C35.3219 39.1096 35.2725 39.2783 35.1467 39.3889C35.0217 39.4988 34.8435 39.5339 34.6826 39.4794L32.5643 38.746L31.1182 40.3936C31.0528 40.4666 30.966 40.5161 30.8733 40.5375Z" fill="#FFD46D"/>
<path fill-rule="evenodd" clip-rule="evenodd" d="M27.0796 35.5321C26.6574 35.5321 26.2487 35.3583 25.9658 35.0382L25.1394 34.1191C25.0496 34.0193 24.9553 33.9668 24.8206 33.9423L23.5765 33.7185C22.9748 33.6105 22.5166 33.1681 22.3998 32.5916L22.1663 31.401C22.1438 31.2719 22.09 31.1802 21.9822 31.0951L21.0256 30.3054C20.5584 29.9237 20.3923 29.3197 20.5944 28.7663L21.0121 27.623C21.057 27.4995 21.057 27.3937 21.0121 27.2698L20.5944 26.127C20.3923 25.5736 20.5584 24.9695 21.0256 24.5874L21.9822 23.7982C22.09 23.7129 22.1438 23.6214 22.1663 23.4923L22.3998 22.3017C22.5166 21.7251 22.9748 21.2828 23.5765 21.1748L24.8206 20.951C24.9553 20.9269 25.0496 20.8739 25.1394 20.7741L25.9658 19.8551C26.361 19.4102 26.9943 19.2479 27.5692 19.4424L28.7638 19.8444C28.894 19.8878 29.0018 19.8878 29.1321 19.8444L30.3267 19.4424C30.9017 19.2479 31.5348 19.4102 31.9301 19.8551L32.7565 20.7741C32.8463 20.874 32.9406 20.9269 33.0753 20.951L34.3194 21.1748C34.9211 21.2828 35.3793 21.725 35.4961 22.3017L35.7296 23.4923C35.7521 23.6214 35.8059 23.713 35.9137 23.7982L36.8703 24.5874C37.3375 24.9694 37.5036 25.5736 37.3015 26.127L36.8838 27.2698C36.839 27.3937 36.839 27.4995 36.8838 27.623L37.3015 28.7667C37.5036 29.3197 37.3375 29.9237 36.8703 30.3054L35.9137 31.0951C35.8059 31.1802 35.752 31.2719 35.7296 31.401L35.4961 32.5916C35.3793 33.1681 34.9211 33.6105 34.3194 33.7185L33.0753 33.9423C32.9406 33.9664 32.8463 34.0193 32.7565 34.1191L31.9301 35.0382C31.5349 35.4831 30.9017 35.6458 30.3267 35.4508L29.1321 35.0489C29.0018 35.0055 28.894 35.0055 28.7638 35.0489L27.5692 35.4508C27.4074 35.5055 27.2412 35.5321 27.0796 35.5321Z" fill="#CF515A"/>
<path fill-rule="evenodd" clip-rule="evenodd" d="M26.8994 35.5206C26.5429 35.4785 26.2082 35.3116 25.9658 35.0373L25.1394 34.1183C25.0496 34.0184 24.9553 33.9659 24.8206 33.9414L23.5765 33.7177C22.9748 33.6096 22.5166 33.1673 22.3998 32.5907L22.1663 31.4002C22.1438 31.271 22.09 31.1794 21.9822 31.0942L21.0256 30.3046C20.5584 29.9229 20.3923 29.3188 20.5944 28.7655L21.0121 27.6222C21.057 27.4987 21.057 27.3929 21.0121 27.2689L20.5944 26.1261C20.3923 25.5727 20.5584 24.9687 21.0256 24.5865L21.9822 23.7974C22.09 23.7121 22.1438 23.6205 22.1663 23.4914L22.3998 22.3008C22.5166 21.7243 22.9748 21.2819 23.5765 21.1739L24.8206 20.9501C24.9553 20.9261 25.0496 20.8731 25.1394 20.7733L25.9658 19.8542C26.2095 19.5799 26.5436 19.4131 26.8989 19.3711C27.0038 19.3835 27.1086 19.4068 27.2114 19.4416L28.4061 19.8435C28.5345 19.8864 28.6412 19.8869 28.7691 19.8453C28.8969 19.8869 29.0036 19.8864 29.1321 19.8435L30.3267 19.4416C30.4296 19.4068 30.5343 19.3835 30.6393 19.3711C30.9945 19.4131 31.3286 19.5799 31.5723 19.8542L32.3987 20.7733C32.4885 20.8731 32.5828 20.9261 32.7176 20.9501L33.9616 21.1739C34.5634 21.2819 35.0215 21.7242 35.1383 22.3008L35.3718 23.4914C35.3943 23.6205 35.4482 23.7122 35.556 23.7974L36.5126 24.5865C36.9797 24.9686 37.1458 25.5727 36.9437 26.1261L36.5261 27.2689C36.4811 27.3929 36.4811 27.4987 36.5261 27.6222L36.9437 28.7659C37.1458 29.3188 36.9797 29.9229 36.5126 30.3046L35.556 31.0942C35.4482 31.1794 35.3942 31.271 35.3718 31.4002L35.1383 32.5907C35.0215 33.1673 34.5634 33.6096 33.9616 33.7177L32.7176 33.9414C32.5828 33.9655 32.4885 34.0184 32.3987 34.1183L31.5723 35.0373C31.3287 35.3116 30.9946 35.4785 30.6394 35.5206C30.5344 35.5083 30.4297 35.4849 30.3267 35.45L29.1321 35.0481C29.0035 35.0052 28.8969 35.0046 28.7691 35.0463C28.6412 35.0046 28.5345 35.0052 28.4061 35.0481L27.2114 35.45C27.1084 35.4848 27.0036 35.5083 26.8994 35.5206Z" fill="#EF525F"/>
<path d="M28.9473 32.9501C32.1197 32.9501 34.6914 30.4861 34.6914 27.4467C34.6914 24.4073 32.1197 21.9434 28.9473 21.9434C25.7749 21.9434 23.2031 24.4073 23.2031 27.4467C23.2031 30.4861 25.7749 32.9501 28.9473 32.9501Z" fill="#D9B667"/>
<path d="M28.6996 32.945C31.7352 32.945 34.196 30.4835 34.196 27.4471C34.196 24.4107 31.7352 21.9492 28.6996 21.9492C25.664 21.9492 23.2031 24.4107 23.2031 27.4471C23.2031 30.4835 25.664 32.945 28.6996 32.945Z" fill="#FFD46D"/>
<path fill-rule="evenodd" clip-rule="evenodd" d="M28.1655 29.3821C28.0487 29.3821 27.932 29.3391 27.8421 29.2535L26.2792 27.7574C26.0996 27.5857 26.0996 27.3077 26.2792 27.1361C26.459 26.9644 26.7509 26.9644 26.9305 27.1361L28.1655 28.3211L30.9635 25.6405C31.1431 25.4688 31.435 25.4688 31.6147 25.6405C31.7943 25.8117 31.7943 26.0901 31.6147 26.2618L28.4889 29.2536C28.3991 29.3391 28.2823 29.3821 28.1655 29.3821Z" fill="#ECEFF0"/>
</svg>
