<svg width="55" height="55" viewBox="0 0 55 55" fill="none" xmlns="http://www.w3.org/2000/svg">
<g clip-path="url(#clip0_19485_3646)">
<path d="M55 20.625C55.0052 19.3634 54.6632 18.1247 54.0114 17.0445C53.3595 15.9643 52.4231 15.0843 51.3045 14.5009C50.1859 13.9174 48.9283 13.653 47.6694 13.7367C46.4106 13.8203 45.199 14.2487 44.1674 14.9749C43.1358 15.7012 42.3239 16.6973 41.8207 17.8542C41.3174 19.0111 41.1422 20.2841 41.3143 21.534C41.4863 22.7838 41.9989 23.9622 42.796 24.9401C43.5931 25.918 44.6439 26.6578 45.8333 27.0783V36.6667C45.8333 40.3134 44.3847 43.8108 41.8061 46.3894C39.2274 48.968 35.7301 50.4167 32.0833 50.4167C28.4366 50.4167 24.9392 48.968 22.3606 46.3894C19.782 43.8108 18.3333 40.3134 18.3333 36.6667V36.4833C22.1468 35.93 25.6342 34.0236 28.1585 31.1121C30.6829 28.2007 32.076 24.4784 32.0833 20.625V11.4583C32.0797 8.42051 30.8713 5.50815 28.7232 3.36009C26.5752 1.21202 23.6628 0.00363884 20.625 0C20.0172 0 19.4343 0.241443 19.0045 0.671214C18.5748 1.10098 18.3333 1.68388 18.3333 2.29167C18.3333 2.89945 18.5748 3.48235 19.0045 3.91212C19.4343 4.34189 20.0172 4.58333 20.625 4.58333C22.4484 4.58333 24.197 5.30766 25.4864 6.59697C26.7757 7.88629 27.5 9.63497 27.5 11.4583V20.625C27.5 23.6639 26.2928 26.5784 24.1439 28.7273C21.9951 30.8761 19.0806 32.0833 16.0417 32.0833C13.0027 32.0833 10.0883 30.8761 7.9394 28.7273C5.79055 26.5784 4.58333 23.6639 4.58333 20.625V11.4583C4.58333 9.63497 5.30766 7.88629 6.59697 6.59697C7.88629 5.30766 9.63497 4.58333 11.4583 4.58333C12.0661 4.58333 12.649 4.34189 13.0788 3.91212C13.5086 3.48235 13.75 2.89945 13.75 2.29167C13.75 1.68388 13.5086 1.10098 13.0788 0.671214C12.649 0.241443 12.0661 0 11.4583 0C8.42051 0.00363884 5.50815 1.21202 3.36009 3.36009C1.21202 5.50815 0.00363884 8.42051 0 11.4583L0 20.625C0.00736989 24.4784 1.40042 28.2007 3.9248 31.1121C6.44918 34.0236 9.93649 35.93 13.75 36.4833V36.6667C13.75 41.529 15.6815 46.1921 19.1197 49.6303C22.5579 53.0685 27.221 55 32.0833 55C36.9456 55 41.6088 53.0685 45.047 49.6303C48.4851 46.1921 50.4167 41.529 50.4167 36.6667V27.0783C51.7525 26.6061 52.9098 25.7326 53.7302 24.5774C54.5506 23.4223 54.9941 22.0418 55 20.625Z" fill="url(#paint0_linear_19485_3646)"/>
</g>
<defs>
<linearGradient id="paint0_linear_19485_3646" x1="0" y1="55" x2="55.0001" y2="55" gradientUnits="userSpaceOnUse">
<stop stop-color="#FF8A00"/>
<stop offset="1" stop-color="#E50914"/>
</linearGradient>
<clipPath id="clip0_19485_3646">
<rect width="55" height="55" fill="white"/>
</clipPath>
</defs>
</svg>
