<svg width="55" height="55" viewBox="0 0 55 55" fill="none" xmlns="http://www.w3.org/2000/svg">
<g clip-path="url(#clip0_19485_3636)">
<path d="M25.1121 35.695C24.7546 36.905 23.4942 37.604 22.2612 37.2373C20.994 36.8592 19.674 36.6667 18.3333 36.6667C10.7502 36.6667 4.58333 42.8335 4.58333 50.4167V52.7083C4.58333 53.9733 3.55896 55 2.29167 55C1.02437 55 0 53.9733 0 52.7083V50.4167C0 40.3081 8.22479 32.0833 18.3333 32.0833C20.1162 32.0833 21.8808 32.34 23.5721 32.8442C24.7844 33.2062 25.4742 34.4827 25.1121 35.695ZM55 33.0825V40.1523C55 49.3923 45.8952 53.7694 43.2529 54.8327C42.9779 54.9427 42.6869 54.9977 42.3981 54.9977C42.0475 54.9977 41.6946 54.9175 41.3371 54.7388C38.7635 53.4508 29.7917 48.3313 29.7917 40.1523V33.0825C29.7917 30.1148 31.6846 27.4931 34.501 26.5558L41.6763 24.1771C42.1415 24.0235 42.6525 24.0235 43.1177 24.1771L50.2906 26.5558C53.1071 27.4908 55 30.1148 55 33.0825ZM50.4167 33.0825C50.4167 32.0925 49.7865 31.2194 48.8446 30.9077L42.3958 28.7696L35.9448 30.9077C35.0075 31.2194 34.375 32.0948 34.375 33.0825V40.1523C34.375 45.3773 40.4021 49.0623 42.499 50.1875C44.8617 49.1471 50.4167 46.0717 50.4167 40.1523V33.0825ZM32.0833 13.75C32.0833 21.3331 25.9165 27.5 18.3333 27.5C10.7502 27.5 4.58333 21.3331 4.58333 13.75C4.58333 6.16688 10.7502 0 18.3333 0C25.9165 0 32.0833 6.16688 32.0833 13.75ZM27.5 13.75C27.5 8.69458 23.3887 4.58333 18.3333 4.58333C13.2779 4.58333 9.16667 8.69458 9.16667 13.75C9.16667 18.8054 13.2779 22.9167 18.3333 22.9167C23.3887 22.9167 27.5 18.8054 27.5 13.75Z" fill="url(#paint0_linear_19485_3636)"/>
</g>
<defs>
<linearGradient id="paint0_linear_19485_3636" x1="0" y1="55" x2="55.0023" y2="55" gradientUnits="userSpaceOnUse">
<stop stop-color="#FF8A00"/>
<stop offset="1" stop-color="#E50914"/>
</linearGradient>
<clipPath id="clip0_19485_3636">
<rect width="55" height="55" fill="white"/>
</clipPath>
</defs>
</svg>
