<svg width="55" height="55" viewBox="0 0 55 55" fill="none" xmlns="http://www.w3.org/2000/svg">
<g clip-path="url(#clip0_19485_3626)">
<path d="M52.6396 14.3252C51.1798 13.514 49.3969 13.5667 47.8271 14.5567L36.6667 22.919V18.3333C36.6667 16.6673 35.7615 15.1319 34.3063 14.3252C32.8465 13.514 31.0613 13.5667 29.4938 14.5567L18.3333 22.919V4.58333C19.6006 4.58333 20.625 3.55667 20.625 2.29167C20.625 1.02667 19.6006 0 18.3333 0H2.29167C1.02438 0 0 1.02667 0 2.29167C0 3.55667 1.02438 4.58333 2.29167 4.58333V43.5417C2.29167 49.8598 7.43188 55 13.75 55H43.5417C49.8598 55 55 49.8598 55 43.5417V18.3333C55 16.6673 54.0948 15.1319 52.6396 14.3252ZM50.4167 43.5417C50.4167 47.3321 47.3321 50.4167 43.5417 50.4167H13.75C9.95958 50.4167 6.875 47.3321 6.875 43.5417V4.58333H13.75V27.4794C13.75 27.4954 13.75 27.5115 13.75 27.5252V41.25C13.75 42.515 14.7744 43.5417 16.0417 43.5417C17.309 43.5417 18.3333 42.515 18.3333 41.25V28.6458L32.0833 18.3333V27.5C32.0833 28.3685 32.5738 29.1615 33.3506 29.551C34.1275 29.9406 35.0533 29.8581 35.75 29.3356L50.4167 18.3356V43.5417ZM32.0833 38.9583V41.25C32.0833 42.515 31.0567 43.5417 29.7917 43.5417H27.5C26.235 43.5417 25.2083 42.515 25.2083 41.25V38.9583C25.2083 37.6933 26.235 36.6667 27.5 36.6667H29.7917C31.0567 36.6667 32.0833 37.6933 32.0833 38.9583ZM36.6667 41.25V38.9583C36.6667 37.6933 37.6933 36.6667 38.9583 36.6667H41.25C42.515 36.6667 43.5417 37.6933 43.5417 38.9583V41.25C43.5417 42.515 42.515 43.5417 41.25 43.5417H38.9583C37.6933 43.5417 36.6667 42.515 36.6667 41.25Z" fill="url(#paint0_linear_19485_3626)"/>
</g>
<defs>
<linearGradient id="paint0_linear_19485_3626" x1="0" y1="55" x2="55" y2="55" gradientUnits="userSpaceOnUse">
<stop stop-color="#FF8A00"/>
<stop offset="1" stop-color="#E50914"/>
</linearGradient>
<clipPath id="clip0_19485_3626">
<rect width="55" height="55" fill="white"/>
</clipPath>
</defs>
</svg>
