<svg width="55" height="55" viewBox="0 0 55 55" fill="none" xmlns="http://www.w3.org/2000/svg">
<g clip-path="url(#clip0_19485_3631)">
<path d="M27.5 32.0772C34.9044 32.0772 41.25 25.4039 41.25 18.2653C41.25 11.8051 35.5094 6.55947 31.3179 2.7301C30.4998 1.98302 29.7435 1.29552 29.1202 0.672183C28.6733 0.225308 28.105 -0.0519835 27.4175 0.00301648C26.7827 0.0259332 26.1846 0.312391 25.7675 0.793642C23.6408 3.24572 22.8731 6.47927 22.2567 9.07802C22.2154 9.24531 22.1742 9.42406 22.1306 9.6051C22.016 8.80531 21.4867 8.11552 20.7213 7.80614C19.8642 7.45552 18.865 7.66406 18.2165 8.33323C16.8735 9.71739 13.75 13.4597 13.75 18.2653C13.75 25.4039 20.0956 32.0772 27.5 32.0772ZM29.1202 26.827C28.836 27.1111 28.4992 27.3632 27.5 27.432C26.5008 27.5007 26.164 27.1134 25.8798 26.827C24.986 25.9332 24.986 24.4803 25.8798 23.5866L27.5 21.9664L29.1202 23.5866C30.014 24.4803 30.014 25.9332 29.1202 26.827ZM19.2317 14.7339C19.9856 15.5336 21.0054 16.0401 22.3117 16.0401C25.316 16.0401 26.0608 12.9028 26.7185 10.1345C27.0508 8.73656 27.4106 7.21948 27.979 5.88573C31.5402 9.13989 36.669 13.8241 36.669 18.263C36.669 20.612 35.7798 22.757 34.3223 24.3818C34.1458 22.9059 33.4927 21.4759 32.3629 20.3439L29.1225 17.1034C28.2265 16.2074 26.7781 16.2074 25.8821 17.1034L22.6417 20.3439C21.5119 21.4736 20.8587 22.9036 20.6823 24.3818C19.2248 22.7593 18.3356 20.612 18.3356 18.263C18.3356 16.9797 18.7229 15.7697 19.234 14.7316L19.2317 14.7339ZM50.4167 41.6426V38.9568C50.4167 33.9013 46.3054 29.7901 41.25 29.7901C39.9827 29.7901 38.9583 30.8145 38.9583 32.0818C38.9583 33.3491 39.9827 34.3734 41.25 34.3734C43.7777 34.3734 45.8333 36.4291 45.8333 38.9568V41.2484H9.16667V38.9568C9.16667 36.4291 11.2223 34.3734 13.75 34.3734C15.0173 34.3734 16.0417 33.3491 16.0417 32.0818C16.0417 30.8145 15.0173 29.7901 13.75 29.7901C8.69458 29.7901 4.58333 33.9013 4.58333 38.9568V41.6426C1.91583 42.5891 0 45.1351 0 48.1234C0 51.9139 3.08458 54.9984 6.875 54.9984H48.125C51.9154 54.9984 55 51.9139 55 48.1234C55 45.1351 53.0842 42.5891 50.4167 41.6426ZM16.0417 50.4151H6.875C5.61 50.4151 4.58333 49.3884 4.58333 48.1234C4.58333 46.8584 5.61 45.8318 6.875 45.8318H16.0417V50.4151ZM25.2083 50.4151H20.625V45.8318H25.2083V50.4151ZM34.375 50.4151H29.7917V45.8318H34.375V50.4151ZM48.125 50.4151H38.9583V45.8318H48.125C49.39 45.8318 50.4167 46.8584 50.4167 48.1234C50.4167 49.3884 49.39 50.4151 48.125 50.4151Z" fill="url(#paint0_linear_19485_3631)"/>
</g>
<defs>
<linearGradient id="paint0_linear_19485_3631" x1="0" y1="54.9985" x2="55" y2="54.9985" gradientUnits="userSpaceOnUse">
<stop stop-color="#FF8A00"/>
<stop offset="1" stop-color="#E50914"/>
</linearGradient>
<clipPath id="clip0_19485_3631">
<rect width="55" height="55" fill="white"/>
</clipPath>
</defs>
</svg>
