<svg width="55" height="55" viewBox="0 0 55 55" fill="none" xmlns="http://www.w3.org/2000/svg">
<g clip-path="url(#clip0_19485_3641)">
<path d="M30.9408 27.5C30.9408 32.5554 35.052 36.6667 40.1075 36.6667C45.1629 36.6667 49.2741 32.5554 49.2741 27.5C49.2741 22.4446 45.1629 18.3333 40.1075 18.3333C35.052 18.3333 30.9408 22.4446 30.9408 27.5ZM40.1075 22.9167C42.6352 22.9167 44.6908 24.9723 44.6908 27.5C44.6908 30.0277 42.6352 32.0833 40.1075 32.0833C37.5798 32.0833 35.5241 30.0277 35.5241 27.5C35.5241 24.9723 37.5798 22.9167 40.1075 22.9167ZM27.5033 18.3333C32.5587 18.3333 36.67 14.2221 36.67 9.16667C36.67 4.11125 32.5587 0 27.5033 0C22.4479 0 18.3366 4.11125 18.3366 9.16667C18.3366 14.2221 22.4479 18.3333 27.5033 18.3333ZM27.5033 4.58333C30.031 4.58333 32.0866 6.63896 32.0866 9.16667C32.0866 11.6944 30.031 13.75 27.5033 13.75C24.9756 13.75 22.92 11.6944 22.92 9.16667C22.92 6.63896 24.9756 4.58333 27.5033 4.58333ZM14.8991 36.6667C19.9545 36.6667 24.0658 32.5554 24.0658 27.5C24.0658 22.4446 19.9545 18.3333 14.8991 18.3333C9.84371 18.3333 5.73246 22.4446 5.73246 27.5C5.73246 32.5554 9.84371 36.6667 14.8991 36.6667ZM14.8991 22.9167C17.4268 22.9167 19.4825 24.9723 19.4825 27.5C19.4825 30.0277 17.4268 32.0833 14.8991 32.0833C12.3714 32.0833 10.3158 30.0277 10.3158 27.5C10.3158 24.9723 12.3714 22.9167 14.8991 22.9167ZM54.9368 52.5021C55.0514 53.7625 54.121 54.8762 52.8606 54.9908C52.7918 54.9954 52.7208 55 52.6521 55C51.4787 55 50.4795 54.104 50.3718 52.9146C50.1198 50.121 48.6829 47.5177 46.4279 45.7692C46.3706 45.7233 46.1827 45.744 46.0612 45.8815L41.8423 50.7696C41.4091 51.2737 40.7308 51.661 40.1075 51.5648C39.4475 51.5648 38.8195 51.2806 38.3841 50.7856L34.1102 45.9135C33.9933 45.7783 33.8054 45.7531 33.7435 45.8035C31.4839 47.5773 30.0975 50.1027 29.8454 52.9169C29.7468 54.0077 28.8989 54.796 27.8448 54.9358C27.7783 54.9473 27.721 54.9862 27.6523 54.9931C27.5812 54.9977 27.5125 55.0023 27.4437 55.0023C27.4208 55.0023 27.4025 54.9908 27.3818 54.9908C27.3727 54.9908 27.3658 54.9954 27.3566 54.9931C27.3314 54.9931 27.3108 54.9748 27.2856 54.9725C26.1833 54.8946 25.2643 54.0512 25.1635 52.9169C24.9091 50.0821 23.5089 47.5452 21.2218 45.7715C21.1554 45.7233 20.9698 45.7462 20.8552 45.8837L16.6362 50.7719C16.2008 51.2783 15.5637 51.5717 14.9014 51.5671C14.2414 51.5671 13.6135 51.2829 13.1781 50.7856L8.90413 45.9135C8.78496 45.7806 8.59704 45.7554 8.53746 45.8058C6.27559 47.5796 4.88913 50.105 4.63704 52.9192C4.52475 54.1796 3.42704 55.0917 2.14829 54.9954C0.887878 54.8808 -0.0425391 53.7671 0.0720442 52.5067C0.434128 48.4802 2.48975 44.7242 5.70954 42.1965C7.71704 40.6244 10.632 40.9315 12.3485 42.8908L14.8854 45.7829L17.3833 42.8885C19.0906 40.9062 22.0102 40.5808 24.0291 42.1506C25.4225 43.23 26.5843 44.55 27.5033 46.0121C28.4108 44.5706 29.5498 43.269 30.9156 42.1965C32.9185 40.6267 35.8381 40.9292 37.5545 42.8931L40.0914 45.7829L42.5893 42.8885C44.2966 40.9062 47.2185 40.5854 49.2329 42.1483C52.4893 44.6737 54.5656 48.4481 54.9323 52.5044L54.9368 52.5021Z" fill="url(#paint0_linear_19485_3641)"/>
</g>
<defs>
<linearGradient id="paint0_linear_19485_3641" x1="0.0625" y1="55.0024" x2="54.9464" y2="55.0024" gradientUnits="userSpaceOnUse">
<stop stop-color="#FF8A00"/>
<stop offset="1" stop-color="#E50914"/>
</linearGradient>
<clipPath id="clip0_19485_3641">
<rect width="55" height="55" fill="white"/>
</clipPath>
</defs>
</svg>
