<svg width="45" height="45" viewBox="0 0 45 45" fill="none" xmlns="http://www.w3.org/2000/svg">
<path d="M4.72819 33.1378L3.55469 31.9545L19.2981 16.3389L26.0242 21.0215L34.9536 14.2344L35.9619 15.5609L26.0673 23.082L19.4861 18.5003L4.72819 33.1378Z" fill="#F26678"/>
<path d="M2.5 37.8369H15.8331V42.3988H2.5V37.8369Z" fill="#BBCCFF"/>
<path d="M15.832 34.8721H29.1652V42.3983H15.832V34.8721Z" fill="#AABFF2"/>
<path d="M29.168 31.7539H42.5011V42.3983H29.168V31.7539Z" fill="#99B1E0"/>
<path d="M17.1797 12.5297L17.248 12.5494C17.8568 12.7242 18.4944 12.7752 19.1233 12.6994C19.1233 12.6994 21.7923 12.6723 22.5682 12.2843C23.8034 11.6666 25.9071 8.42908 25.9071 8.42908L24.2699 7.25293C24.2699 7.25293 22.4305 9.42333 21.5716 9.75097C20.7355 10.0699 17.8513 9.49771 17.8513 9.49771L17.1797 12.5297Z" fill="#FDDF8C"/>
<path d="M18.2295 19.7359C18.2295 19.7359 18.7283 25.1087 17.9404 26.839C16.951 29.0118 11.3201 34.1618 11.3201 34.1618L9.27148 32.6807C9.27148 32.6807 13.2041 26.8965 13.7878 24.6736C14.1097 23.4479 13.7878 19.6045 13.7878 19.6045" fill="#382F93"/>
<path d="M16.7932 5.00355C16.7932 5.12441 16.7829 5.24871 16.7656 5.37646C16.7 5.7977 16.5308 6.24313 16.2926 6.60222C16.0785 6.93025 15.8092 7.18575 15.5019 7.2997C15.3948 7.33768 15.2844 7.3584 15.1704 7.3584C14.2554 7.3584 13.4785 6.00143 13.4785 5.00355C13.4785 4.4511 13.7064 3.95735 14.069 3.62932L14.1069 3.59135C14.1967 3.51192 14.2934 3.44288 14.4004 3.39107C14.6007 3.27712 14.8286 3.21152 15.0703 3.20463C15.091 3.20117 15.1152 3.20117 15.1359 3.20117C16.0509 3.20117 16.7932 4.00913 16.7932 5.00355Z" fill="#34324C"/>
<g opacity="0.15">
<path d="M17.4873 5.36322C17.1109 5.79826 16.7138 6.21606 16.2926 6.60278C16.0371 6.84794 15.7747 7.07928 15.5019 7.30026C15.3948 7.33824 15.2844 7.35896 15.1704 7.35896C14.2554 7.35896 13.4785 6.00199 13.4785 5.00411C13.4785 4.45166 13.7064 3.95791 14.069 3.62988C13.8203 3.88539 13.6546 4.22722 13.6546 4.56905C13.6546 5.24927 14.359 6.22298 15.0392 6.22298C15.4915 6.22298 15.8679 5.73957 16.0682 5.21473C16.2926 5.30105 16.5274 5.35285 16.7656 5.37702C17.0039 5.40465 17.249 5.4012 17.4873 5.36322Z" fill="black"/>
</g>
<path d="M19.568 11.526V19.7361H13.625V9.98053C13.625 9.69842 13.8537 9.46973 14.1358 9.46973H17.5118C18.6474 9.46973 19.568 10.3903 19.568 11.526Z" fill="#FDDF8C"/>
<path d="M15.1719 6.55469H17.4681V9.46906H15.1719V6.55469Z" fill="#FDC7B4"/>
<path d="M17.468 6.55371V8.69448C17.468 8.69448 16.4529 9.21932 15.1719 9.02251V6.55371H17.468Z" fill="#EFB5A3"/>
<path d="M17.1807 8.71485C16.0713 8.71485 15.1719 7.81547 15.1719 6.70603V5.32425C15.1719 4.21481 16.0713 3.31543 17.1807 3.31543C18.2901 3.31543 19.1895 4.21481 19.1895 5.32425V6.70603C19.1895 7.81547 18.2901 8.71485 17.1807 8.71485Z" fill="#FDC7B4"/>
<path d="M16.2301 4.43384C16.2301 4.66518 16.1714 4.94486 16.0678 5.21417C15.8676 5.73901 15.4912 6.22242 15.0389 6.22242C14.3587 6.22242 13.6543 5.24871 13.6543 4.56849C13.6543 4.22666 13.82 3.88483 14.0686 3.62932L14.1066 3.59135C14.1929 3.50846 14.2896 3.43251 14.3967 3.37381C14.5797 3.26678 14.7868 3.20117 14.994 3.20117C15.0182 3.20117 15.0458 3.20117 15.07 3.20463C15.7191 3.2426 16.2301 3.77779 16.2301 4.43384Z" fill="#34324C"/>
<path d="M19.9657 3.5781C19.9657 3.84986 19.857 4.09454 19.6803 4.27116C19.5037 4.44777 19.2591 4.55645 18.9873 4.55645H14.2852V3.98308C14.2852 3.22222 14.902 2.60254 15.6657 2.60254H18.9873C19.5281 2.60254 19.9657 3.04003 19.9657 3.5781Z" fill="#34324C"/>
<path d="M17.084 6.11523C17.1875 6.11523 17.2715 6.03129 17.2715 5.92773C17.2715 5.82418 17.1875 5.74023 17.084 5.74023C16.9804 5.74023 16.8965 5.82418 16.8965 5.92773C16.8965 6.03129 16.9804 6.11523 17.084 6.11523Z" fill="#313131"/>
<path d="M18.418 6.11523C18.5215 6.11523 18.6055 6.03129 18.6055 5.92773C18.6055 5.82418 18.5215 5.74023 18.418 5.74023C18.3144 5.74023 18.2305 5.82418 18.2305 5.92773C18.2305 6.03129 18.3144 6.11523 18.418 6.11523Z" fill="#313131"/>
<path d="M17.0326 7.12207C17.0321 7.13314 17.0293 7.14354 17.0293 7.15472C17.0293 7.57546 17.3704 7.91653 17.7911 7.91653C18.2118 7.91653 18.5529 7.57546 18.5529 7.15472C18.5529 7.14354 18.5501 7.13314 18.5496 7.12207H17.0326Z" fill="white"/>
<g opacity="0.15">
<path d="M16.0678 5.21438C15.8676 5.73922 15.4912 6.22263 15.0389 6.22263C14.3587 6.22263 13.6543 5.24892 13.6543 4.5687C13.6543 4.22687 13.82 3.88504 14.0686 3.62953L14.1066 3.59155C14.1929 3.50867 14.2896 3.43272 14.3967 3.37402C14.3967 3.38091 14.3967 3.38437 14.4001 3.39128C14.4657 3.77109 14.6729 4.11637 14.9215 4.40988C15.0872 4.60324 15.2771 4.77588 15.4912 4.92089C15.6707 5.04174 15.8641 5.14188 16.0678 5.21438Z" fill="black"/>
</g>
<path d="M14.5397 9.46982L14.4687 9.46973C13.8353 9.46896 13.2082 9.59516 12.6244 9.84086C12.6244 9.84086 10.0656 10.6006 9.42625 11.1869C8.40836 12.1204 6.85156 16.0747 6.85156 16.0747L9.32427 16.7143C9.32427 16.7143 10.345 13.8998 11.0807 13.3487C11.3617 13.1383 12.1923 12.9133 13.0981 12.7175C14.5515 12.4034 15.2764 10.7615 14.5397 9.46982Z" fill="#FDDF8C"/>
<path d="M13.6951 12.6724L13.5547 12.3928C14.4312 11.9521 14.8749 10.9097 14.5868 9.96851L14.8859 9.87695C15.2179 10.9622 14.7058 12.1639 13.6951 12.6724Z" fill="#F2CF77"/>
<path d="M24.7208 31.1573L22.0383 31.2967C22.0383 31.2967 21.3372 26.7595 20.4011 25.6121C20.1933 25.3566 18.9639 24.901 17.624 24.4268C15.606 23.7127 14.1036 22.0006 13.6609 19.9063L13.625 19.7363H19.567C19.567 19.7363 23.2653 22.5927 24.1177 23.9988C25.0897 25.6002 24.7208 31.1573 24.7208 31.1573Z" fill="#4B39A8"/>
<path d="M27.1752 33.3458C26.9379 32.0647 25.7979 31.1144 24.456 31.1587L22.0273 31.2389L22.0969 33.3458H27.1752Z" fill="#34324C"/>
<path d="M12.0615 37.5047C12.6585 36.3467 12.3393 34.8972 11.2513 34.1105L9.28218 32.6865L8.04688 34.3947L12.0615 37.5047Z" fill="#34324C"/>
<path d="M19.4102 11.2998H19.7227V12.6304H19.4102V11.2998Z" fill="#F2CF77"/>
<path d="M9.32329 16.714L9.1051 18.0268C9.07385 18.2149 8.88913 18.3365 8.70405 18.2909C8.53272 18.2487 8.42572 18.0782 8.46221 17.9055L8.74418 16.5713L9.32329 16.714Z" fill="#FDC7B4"/>
<path d="M6.25115 18.4008L6.38009 17.8816C6.41618 17.7362 6.56382 17.6474 6.70916 17.6834L9.62663 18.408C9.77198 18.4441 9.86088 18.5917 9.82478 18.737L9.69584 19.2562L10.2224 19.387L10.3513 18.8678C10.4595 18.4321 10.1931 17.9896 9.75739 17.8814L6.83992 17.1569C6.40423 17.0487 5.96175 17.3151 5.85355 17.7508L5.72461 18.27L6.25115 18.4008Z" fill="#894E57"/>
<path d="M11.1036 21.0151L10.1396 24.8969C10.0605 25.2152 9.74058 25.4079 9.42221 25.3288L3.31091 23.8112C2.99453 23.7326 2.79988 23.4121 2.87894 23.0938L3.84293 19.212C3.922 18.8936 4.19879 18.8833 4.51518 18.9618L10.6265 20.4795C10.9448 20.5585 11.1827 20.6967 11.1036 21.0151Z" fill="#894E57"/>
<g opacity="0.06">
<path d="M11.1703 20.7468L10.4892 23.4896C10.3567 23.5609 10.1971 23.5871 10.0369 23.5473L3.59922 21.9486C3.43903 21.9089 3.31227 21.8115 3.22852 21.6865L3.90965 18.9437C3.98872 18.6253 4.31067 18.4331 4.62705 18.5117L10.7383 20.0294C11.0567 20.1084 11.2494 20.4284 11.1703 20.7468Z" fill="black"/>
</g>
<path d="M11.5276 20.1419L10.8401 22.9101C10.7568 23.2455 10.4197 23.4485 10.0843 23.3652L3.64555 21.7663C3.31221 21.6835 3.10713 21.3459 3.19044 21.0104L3.87788 18.2422C3.96118 17.9067 4.30039 17.7043 4.63372 17.7871L11.0724 19.386C11.4079 19.4693 11.6109 19.8064 11.5276 20.1419Z" fill="#A06167"/>
<path d="M7.82151 22.0592L7.56086 23.1088C7.54311 23.1803 7.46881 23.223 7.3973 23.2053L6.08936 22.8805C6.01785 22.8627 5.9745 22.7907 5.99226 22.7192L6.25291 21.6696C6.27066 21.5981 6.34322 21.5525 6.41473 21.5702L7.72267 21.8951C7.79418 21.9128 7.83927 21.9877 7.82151 22.0592Z" fill="#D7E9F9"/>
<path d="M7.43386 22.1995L7.28442 22.8013C7.27424 22.8423 7.23165 22.8668 7.19065 22.8566L6.44076 22.6704C6.39977 22.6602 6.37491 22.6189 6.38509 22.5779L6.53453 21.9762C6.54471 21.9352 6.58631 21.909 6.62731 21.9192L7.37719 22.1054C7.41819 22.1156 7.44404 22.1585 7.43386 22.1995Z" fill="white"/>
<path d="M7.46264 18.1086C6.89303 17.9682 6.54504 17.3927 6.68539 16.8231L6.86173 16.1074L8.9245 16.6157L8.74816 17.3313C8.6078 17.901 8.03226 18.249 7.46264 18.1086Z" fill="#FDC7B4"/>
<path d="M27.2695 6.78906C27.2695 7.06413 27.1237 7.34326 26.8154 7.54325L25.9072 8.42971L24.2695 7.25171L24.2904 6.07658C24.282 5.92664 24.3737 5.7891 24.5112 5.73499C24.5529 5.7183 24.5987 5.70996 24.6404 5.70996C24.8195 5.70996 24.982 5.84749 24.9904 6.03914L25.0279 6.70585L25.6945 6.12235C26.0945 5.77669 26.7029 5.8182 27.0487 6.21818C27.1904 6.38501 27.2695 6.585 27.2695 6.78906Z" fill="#FDC7B4"/>
<path d="M35.7879 18.7717L34.1367 18.5455L34.5245 15.7167L31.6953 15.3289L31.9216 13.6777L36.4019 14.2917L35.7879 18.7717Z" fill="#F26678"/>
</svg>
