<svg width="47" height="45" viewBox="0 0 47 45" fill="none" xmlns="http://www.w3.org/2000/svg">
<g id="roadmap 1" clip-path="url(#clip0_8561_4016)">
<g id="Group">
<path id="Vector" d="M24.6931 35.1468C23.5515 34.4791 22.842 33.2444 22.842 31.9234V24.9596C22.842 24.2919 22.2933 23.75 21.6172 23.75C20.9411 23.75 20.3923 24.2919 20.3923 24.9596V31.9234C20.3923 33.2605 20.8357 34.5444 21.6172 35.5912C22.103 36.2451 22.722 36.8065 23.4454 37.2291C23.6413 37.3436 23.8561 37.3977 24.0684 37.3977C24.4865 37.3977 24.8947 37.1856 25.1234 36.8041C25.468 36.2291 25.2753 35.4871 24.6931 35.1468Z" fill="#333373"/>
<path id="Vector_2" d="M21.6172 9.44618C21.0857 8.74534 20.3965 8.15428 19.5832 7.72599C18.9864 7.41231 18.2449 7.63564 17.9265 8.22521C17.6089 8.81469 17.835 9.54778 18.432 9.86147C19.6412 10.4978 20.3925 11.7325 20.3925 13.0849V20.1212C20.3925 20.7889 20.9412 21.3309 21.6173 21.3309C22.2934 21.3309 22.8422 20.789 22.8422 20.1212V13.0849C22.8421 11.7462 22.3995 10.4769 21.6172 9.44618Z" fill="#333373"/>
<path id="Vector_3" d="M40.0709 23.7504H37.6213V17.2988L40.0709 16.1064V23.7504Z" fill="#FFBB17"/>
<g id="Group_2">
<path id="Vector_4" d="M46.1329 15.5191C46.3345 15.8942 46.3232 16.3465 46.1018 16.7111C45.8805 17.0756 45.4821 17.2982 45.0518 17.2982H37.6213V11.2498C37.6213 10.5821 38.17 10.04 38.8461 10.04H45.0518C45.4821 10.04 45.8805 10.2626 46.1018 10.6271C46.3232 10.9916 46.3345 11.4441 46.1329 11.8191L45.1335 13.6691L46.1329 15.5191Z" fill="#E53950"/>
</g>
<g id="Group_3">
<path id="Vector_5" d="M37.6213 24.1531C37.6213 24.8208 37.0726 25.3628 36.3965 25.3628H34.6385C33.559 25.3628 32.6812 26.2298 32.6812 27.2959V31.9959C32.6812 34.2564 31.4229 36.3145 29.398 37.3669C29.2159 37.4621 29.0208 37.5064 28.828 37.5064C28.3879 37.5064 27.9625 37.2717 27.7437 36.8604C27.4285 36.2692 27.658 35.5378 28.2564 35.2265C29.4747 34.5926 30.2316 33.3547 30.2316 31.9958V27.2958C30.2316 24.8958 32.2084 22.9434 34.6385 22.9434H36.3965C37.0726 22.9434 37.6213 23.4854 37.6213 24.1531Z" fill="#333373"/>
</g>
<g id="Group_4">
<path id="Vector_6" d="M8.59587 21.3306H6.83789C6.16148 21.3306 5.61304 20.789 5.61304 20.1209C5.61304 19.4527 6.16139 18.9111 6.83789 18.9111H8.59587C9.67504 18.9111 10.5531 18.0439 10.5531 16.9781V13.1572C10.5531 10.9519 11.7494 8.90383 13.6749 7.81205C14.2617 7.47965 15.0102 7.67951 15.3469 8.25897C15.6838 8.83835 15.4811 9.57768 14.8945 9.91035C13.7276 10.5718 13.0028 11.816 13.0028 13.1572V16.9782C13.0027 19.3781 11.0258 21.3306 8.59587 21.3306Z" fill="#5C5C99"/>
</g>
<g id="Group_5">
<path id="Vector_7" d="M38.8461 27.7826C40.8754 27.7826 42.5205 26.1578 42.5205 24.1535C42.5205 22.1492 40.8754 20.5244 38.8461 20.5244C36.8167 20.5244 35.1716 22.1492 35.1716 24.1535C35.1716 26.1578 36.8167 27.7826 38.8461 27.7826Z" fill="#5980FF"/>
</g>
<g id="Group_6">
<path id="Vector_8" d="M4.38832 23.7504C6.41767 23.7504 8.06278 22.1256 8.06278 20.1213C8.06278 18.117 6.41767 16.4922 4.38832 16.4922C2.35898 16.4922 0.713867 18.117 0.713867 20.1213C0.713867 22.1256 2.35898 23.7504 4.38832 23.7504Z" fill="#6AABFF"/>
</g>
<g id="Group_7">
<path id="Vector_9" d="M16.6364 11.8148C18.6657 11.8148 20.3108 10.19 20.3108 8.18573C20.3108 6.18144 18.6657 4.55664 16.6364 4.55664C14.607 4.55664 12.9619 6.18144 12.9619 8.18573C12.9619 10.19 14.607 11.8148 16.6364 11.8148Z" fill="#6AABFF"/>
</g>
<g id="Group_8">
<path id="Vector_10" d="M26.4347 40.4437C28.4641 40.4437 30.1092 38.8189 30.1092 36.8146C30.1092 34.8103 28.4641 33.1855 26.4347 33.1855C24.4054 33.1855 22.7603 34.8103 22.7603 36.8146C22.7603 38.8189 24.4054 40.4437 26.4347 40.4437Z" fill="#5980FF"/>
</g>
<g id="Group_9">
<path id="Vector_11" d="M21.6171 18.9111L23.2285 22.2723L21.6171 26.1692C19.5912 26.1692 17.9426 24.541 17.9426 22.5401C17.9426 20.5393 19.5912 18.9111 21.6171 18.9111Z" fill="#6AABFF"/>
</g>
<path id="Vector_12" d="M25.2916 22.5411C25.2916 24.5419 23.6429 26.1702 21.6172 26.1702V18.9121C23.6429 18.912 25.2916 20.5403 25.2916 22.5411Z" fill="#5980FF"/>
</g>
</g>
<defs>
<clipPath id="clip0_8561_4016">
<rect width="45.5625" height="45" fill="white" transform="translate(0.713867)"/>
</clipPath>
</defs>
</svg>
