<svg width="12" height="13" viewBox="0 0 12 13" fill="none" xmlns="http://www.w3.org/2000/svg">
<g id="alarm-clock (1) 1" clip-path="url(#clip0_5976_1061)">
<path id="Vector" d="M6.49978 1.5255V1C6.49978 0.867392 6.4471 0.740215 6.35334 0.646447C6.25957 0.552678 6.13239 0.5 5.99978 0.5C5.86717 0.5 5.74 0.552678 5.64623 0.646447C5.55246 0.740215 5.49978 0.867392 5.49978 1V1.5255C4.49317 1.61574 3.531 1.9821 2.71928 2.58421C1.90756 3.18632 1.2778 4.00081 0.899375 4.93794C0.520954 5.87507 0.408562 6.89848 0.57458 7.8954C0.740598 8.89233 1.17858 9.82408 1.84028 10.588C1.57897 10.7173 1.3606 10.9193 1.21148 11.1699C1.06235 11.4204 0.988837 11.7087 0.999783 12C0.999783 12.1326 1.05246 12.2598 1.14623 12.3536C1.24 12.4473 1.36717 12.5 1.49978 12.5C1.63239 12.5 1.75957 12.4473 1.85334 12.3536C1.9471 12.2598 1.99978 12.1326 1.99978 12C1.99563 11.8459 2.05096 11.6961 2.15429 11.5817C2.25763 11.4673 2.40104 11.397 2.55478 11.3855C2.58917 11.379 2.62272 11.3686 2.65478 11.3545C3.61255 12.0974 4.7902 12.5005 6.00228 12.5005C7.21437 12.5005 8.39202 12.0974 9.34978 11.3545C9.37905 11.368 9.40952 11.3787 9.44078 11.3865C9.59506 11.397 9.73932 11.4667 9.84347 11.581C9.94762 11.6953 10.0036 11.8454 9.99978 12C9.99978 12.1326 10.0525 12.2598 10.1462 12.3536C10.24 12.4473 10.3672 12.5 10.4998 12.5C10.6324 12.5 10.7596 12.4473 10.8533 12.3536C10.9471 12.2598 10.9998 12.1326 10.9998 12C11.0107 11.7087 10.9372 11.4204 10.7881 11.1699C10.639 10.9193 10.4206 10.7173 10.1593 10.588C10.821 9.82408 11.259 8.89233 11.425 7.8954C11.591 6.89848 11.4786 5.87507 11.1002 4.93794C10.7218 4.00081 10.092 3.18632 9.28029 2.58421C8.46857 1.9821 7.5064 1.61574 6.49978 1.5255ZM1.49978 7C1.49978 6.10998 1.7637 5.23996 2.25817 4.49993C2.75264 3.75991 3.45544 3.18314 4.27771 2.84254C5.09997 2.50195 6.00477 2.41283 6.87769 2.58647C7.7506 2.7601 8.55243 3.18868 9.18176 3.81802C9.8111 4.44736 10.2397 5.24918 10.4133 6.12209C10.587 6.99501 10.4978 7.89981 10.1572 8.72208C9.81665 9.54434 9.23987 10.2471 8.49985 10.7416C7.75983 11.2361 6.8898 11.5 5.99978 11.5C4.80676 11.4985 3.66301 11.024 2.81941 10.1804C1.97581 9.33678 1.50124 8.19303 1.49978 7Z" fill="#EE224A"/>
<path id="Vector_2" d="M9.60938 0.501881C9.47677 0.501881 9.34959 0.55456 9.25582 0.648328C9.16205 0.742096 9.10938 0.869273 9.10938 1.00188C9.10938 1.13449 9.16205 1.26167 9.25582 1.35543C9.34959 1.4492 9.47677 1.50188 9.60938 1.50188C9.78373 1.48863 9.95896 1.51082 10.1245 1.56712C10.29 1.62342 10.4425 1.71267 10.5726 1.82947C10.7027 1.94628 10.8078 2.08822 10.8816 2.24675C10.9554 2.40528 10.9963 2.57711 11.0019 2.75188C11.0019 2.88449 11.0546 3.01167 11.1483 3.10543C11.2421 3.1992 11.3693 3.25188 11.5019 3.25188C11.6345 3.25188 11.7617 3.1992 11.8554 3.10543C11.9492 3.01167 12.0019 2.88449 12.0019 2.75188C11.9955 2.44613 11.9282 2.14472 11.8039 1.8653C11.6796 1.58587 11.5008 1.33403 11.2781 1.12452C11.0553 0.915013 10.793 0.752034 10.5064 0.645123C10.2199 0.538212 9.91494 0.489515 9.60938 0.501881Z" fill="#EE224A"/>
<path id="Vector_3" d="M1 2.75188C1.00557 2.57711 1.04648 2.40528 1.12026 2.24675C1.19404 2.08822 1.29916 1.94628 1.42928 1.82947C1.5594 1.71267 1.71183 1.62342 1.87737 1.56712C2.04291 1.51082 2.21815 1.48863 2.3925 1.50188C2.52511 1.50188 2.65229 1.4492 2.74605 1.35543C2.83982 1.26167 2.8925 1.13449 2.8925 1.00188C2.8925 0.869273 2.83982 0.742096 2.74605 0.648328C2.65229 0.55456 2.52511 0.501881 2.3925 0.501881C2.08693 0.489515 1.78196 0.538212 1.49544 0.645123C1.20892 0.752034 0.946593 0.915013 0.723813 1.12452C0.501034 1.33403 0.322273 1.58587 0.19799 1.8653C0.0737076 2.14472 0.00639812 2.44613 0 2.75188C0 2.88449 0.0526784 3.01167 0.146447 3.10543C0.240215 3.1992 0.367392 3.25188 0.5 3.25188C0.632608 3.25188 0.759785 3.1992 0.853553 3.10543C0.947322 3.01167 1 2.88449 1 2.75188Z" fill="#EE224A"/>
<path id="Vector_4" d="M6.5 6.293V4C6.5 3.86739 6.44732 3.74021 6.35355 3.64645C6.25979 3.55268 6.13261 3.5 6 3.5C5.86739 3.5 5.74021 3.55268 5.64645 3.64645C5.55268 3.74021 5.5 3.86739 5.5 4V6.5C5.50003 6.6326 5.55273 6.75975 5.6465 6.8535L7.1465 8.3535C7.2408 8.44458 7.3671 8.49498 7.4982 8.49384C7.6293 8.4927 7.75471 8.44011 7.84741 8.34741C7.94011 8.25471 7.9927 8.1293 7.99384 7.9982C7.99498 7.8671 7.94458 7.7408 7.8535 7.6465L6.5 6.293Z" fill="#EE224A"/>
</g>
<defs>
<clipPath id="clip0_5976_1061">
<rect width="12" height="12" fill="white" transform="translate(0 0.5)"/>
</clipPath>
</defs>
</svg>
