<svg width="12" height="13" viewBox="0 0 12 13" fill="none" xmlns="http://www.w3.org/2000/svg">
<path id="Vector" d="M4 6.5H3C2.4485 6.5 2 6.9485 2 7.5V8.5C2 9.0515 2.4485 9.5 3 9.5H4C4.5515 9.5 5 9.0515 5 8.5V7.5C5 6.9485 4.5515 6.5 4 6.5ZM3 8.5V7.5H4V8.5H3ZM9.5 1.5H9V1C9 0.724 8.7765 0.5 8.5 0.5C8.2235 0.5 8 0.724 8 1V1.5H4V1C4 0.724 3.7765 0.5 3.5 0.5C3.2235 0.5 3 0.724 3 1V1.5H2.5C1.1215 1.5 0 2.6215 0 4V10C0 11.3785 1.1215 12.5 2.5 12.5H9.5C10.8785 12.5 12 11.3785 12 10V4C12 2.6215 10.8785 1.5 9.5 1.5ZM2.5 2.5H9.5C10.327 2.5 11 3.173 11 4V4.5H1V4C1 3.173 1.673 2.5 2.5 2.5ZM9.5 11.5H2.5C1.673 11.5 1 10.827 1 10V5.5H11V10C11 10.827 10.327 11.5 9.5 11.5Z" fill="#EE224A"/>
</svg>
