<svg width="37" height="41" viewBox="0 0 37 41" fill="none" xmlns="http://www.w3.org/2000/svg">
<path fill-rule="evenodd" clip-rule="evenodd" d="M28.0526 34.4448H0.971667C0.727659 34.4448 0.527344 34.2482 0.527344 34.0055V0.724521C0.527344 0.481855 0.727748 0.285156 0.971667 0.285156H28.0526C28.2966 0.285156 28.4969 0.481767 28.4969 0.724521V34.0055C28.497 34.2481 28.2966 34.4448 28.0526 34.4448Z" fill="#CACBCD"/>
<path fill-rule="evenodd" clip-rule="evenodd" d="M27.883 34.4448H0.971667C0.727659 34.4448 0.527344 34.2482 0.527344 34.0055V0.865234H27.4387C27.6827 0.865234 27.883 1.06185 27.883 1.3046V34.4448Z" fill="#ECEFF0"/>
<path fill-rule="evenodd" clip-rule="evenodd" d="M18.6796 15.5808H13.2686C13.0246 15.5808 12.8242 15.3842 12.8242 15.1415C12.8242 14.8984 13.0246 14.7017 13.2686 14.7017H18.6796C18.928 14.7017 19.124 14.8984 19.124 15.1415C19.124 15.3842 18.928 15.5808 18.6796 15.5808ZM24.2474 5.4161H15.0114C14.7674 5.4161 14.567 5.21949 14.567 4.97639C14.567 4.73372 14.7674 4.53711 15.0114 4.53711H24.2475C24.4915 4.53711 24.6919 4.73372 24.6919 4.97639C24.6918 5.21949 24.4914 5.4161 24.2474 5.4161ZM21.9471 7.54139H17.6776C17.4336 7.54139 17.2333 7.34434 17.2333 7.10202C17.2333 6.85892 17.4337 6.66222 17.6776 6.66222H21.9471C22.1911 6.66222 22.3915 6.85883 22.3915 7.10202C22.3915 7.34425 22.1911 7.54139 21.9471 7.54139ZM24.9793 18.2744H13.2687C13.0247 18.2744 12.8243 18.0778 12.8243 17.835C12.8243 17.5923 13.0247 17.3958 13.2687 17.3958H24.9794C25.2234 17.3958 25.4238 17.5924 25.4238 17.835C25.4238 18.0777 25.2234 18.2744 24.9793 18.2744ZM24.9793 20.968H13.2687C13.0247 20.968 12.8243 20.7714 12.8243 20.5287C12.8243 20.2861 13.0247 20.0894 13.2687 20.0894H24.9794C25.2234 20.0894 25.4238 20.286 25.4238 20.5287C25.4238 20.7714 25.2234 20.968 24.9793 20.968ZM18.6796 25.2007H13.2686C13.0246 25.2007 12.8242 25.0041 12.8242 24.7614C12.8242 24.5187 13.0246 24.322 13.2686 24.322H18.6796C18.928 24.322 19.124 24.5186 19.124 24.7614C19.124 25.0041 18.928 25.2007 18.6796 25.2007ZM24.9793 27.8947H13.2687C13.0247 27.8947 12.8243 27.6981 12.8243 27.4549C12.8243 27.2123 13.0247 27.0157 13.2687 27.0157H24.9794C25.2234 27.0157 25.4238 27.2123 25.4238 27.4549C25.4238 27.6981 25.2234 27.8947 24.9793 27.8947ZM24.9793 30.5884H13.2687C13.0247 30.5884 12.8243 30.3918 12.8243 30.1491C12.8243 29.9064 13.0247 29.7097 13.2687 29.7097H24.9794C25.2234 29.7097 25.4238 29.9063 25.4238 30.1491C25.4238 30.3917 25.2234 30.5884 24.9793 30.5884Z" fill="#615260"/>
<path fill-rule="evenodd" clip-rule="evenodd" d="M10.434 20.9673H4.97948C4.7312 20.9673 4.53516 20.7707 4.53516 20.5281V15.1409C4.53516 14.8978 4.7312 14.7012 4.97948 14.7012H10.434C10.6779 14.7012 10.8784 14.8978 10.8784 15.1409V20.5281C10.8783 20.7707 10.6779 20.9673 10.434 20.9673Z" fill="#CF515A"/>
<path fill-rule="evenodd" clip-rule="evenodd" d="M10.3445 20.9674H4.97948C4.7312 20.9674 4.53516 20.7708 4.53516 20.5281V15.2021H9.90014C10.1441 15.2021 10.3446 15.3988 10.3446 15.6419L10.3445 20.9674Z" fill="#EF525F"/>
<path fill-rule="evenodd" clip-rule="evenodd" d="M10.434 30.5886H4.97948C4.7312 30.5886 4.53516 30.392 4.53516 30.1492V24.7616C4.53516 24.519 4.7312 24.3223 4.97948 24.3223H10.434C10.6779 24.3223 10.8784 24.5189 10.8784 24.7616V30.1492C10.8783 30.3919 10.6779 30.5886 10.434 30.5886Z" fill="#5CA882"/>
<path fill-rule="evenodd" clip-rule="evenodd" d="M10.3445 30.5886H4.97948C4.7312 30.5886 4.53516 30.392 4.53516 30.1492V24.8232H9.90014C10.1441 24.8232 10.3446 25.0199 10.3446 25.2626L10.3445 30.5886Z" fill="#60C090"/>
<path fill-rule="evenodd" clip-rule="evenodd" d="M7.34037 18.9967C7.22272 18.9967 7.10944 18.9506 7.02668 18.868L6.29474 18.1455C6.1205 17.9739 6.1205 17.6959 6.29474 17.5242C6.46462 17.3525 6.74788 17.3525 6.92212 17.5242L7.34037 17.936L8.49055 16.8013C8.66043 16.63 8.9436 16.63 9.11793 16.8013C9.29217 16.973 9.29217 17.2514 9.11793 17.4231L7.65414 18.868C7.57129 18.9506 7.45801 18.9967 7.34037 18.9967Z" fill="#615260"/>
<path fill-rule="evenodd" clip-rule="evenodd" d="M7.34037 28.617C7.22272 28.617 7.10944 28.571 7.02668 28.4884L6.29474 27.7655C6.1205 27.5942 6.1205 27.3158 6.29474 27.1442C6.46462 26.9725 6.74788 26.9725 6.92212 27.1442L7.34037 27.5564L8.49055 26.4217C8.66043 26.2501 8.9436 26.2501 9.11793 26.4217C9.29217 26.5934 9.29217 26.8714 9.11793 27.043L7.65414 28.4884C7.57129 28.571 7.45801 28.617 7.34037 28.617Z" fill="#615260"/>
<path fill-rule="evenodd" clip-rule="evenodd" d="M12.2863 11.9799H4.5576C4.3136 11.9799 4.11328 11.7833 4.11328 11.5405C4.11328 9.19334 6.04764 7.28418 8.42196 7.28418C10.8006 7.28418 12.7307 9.19334 12.7307 11.5405C12.7307 11.7832 12.5347 11.9799 12.2863 11.9799Z" fill="#6E9FC1"/>
<path fill-rule="evenodd" clip-rule="evenodd" d="M12.0751 11.9799H4.5576C4.3136 11.9799 4.11328 11.7833 4.11328 11.5405C4.11328 10.4021 4.56837 9.36666 5.30796 8.60219C6.00608 8.12072 6.85433 7.83789 7.76789 7.83789C10.1079 7.83789 12.0136 9.68535 12.0751 11.9799Z" fill="#76B4E2"/>
<path fill-rule="evenodd" clip-rule="evenodd" d="M8.42065 8.1628C7.13547 8.1628 6.08984 7.12921 6.08984 5.85945C6.08984 4.58926 7.13547 3.55566 8.42065 3.55566C9.70583 3.55566 10.7515 4.58926 10.7515 5.85945C10.7515 7.12921 9.70592 8.1628 8.42065 8.1628Z" fill="#CEAFA6"/>
<path fill-rule="evenodd" clip-rule="evenodd" d="M8.42065 8.16329C7.13547 8.16329 6.08984 7.1297 6.08984 5.85994C6.08984 5.08782 6.47615 4.40324 7.06775 3.98506C7.3445 3.87027 7.64831 3.80664 7.9668 3.80664C9.25199 3.80664 10.2976 4.84023 10.2976 6.11043C10.2976 6.88229 9.91122 7.56669 9.31962 7.98487C9.04286 8.09975 8.73923 8.16329 8.42065 8.16329Z" fill="#F0CCBE"/>
<path fill-rule="evenodd" clip-rule="evenodd" d="M30.278 40.715C30.2431 40.715 30.2127 40.7115 30.1778 40.7047C30.0166 40.669 29.8903 40.5472 29.8467 40.3893L28.0517 33.7744L26.2567 40.3893C26.2131 40.5472 26.0869 40.6689 25.9257 40.7047C25.7602 40.7399 25.5946 40.684 25.4856 40.5588L24.0828 38.9112L22.0308 39.6435C21.8739 39.699 21.6997 39.6646 21.5777 39.554C21.4557 39.4435 21.4078 39.2748 21.447 39.1164L23.7081 30.7856C23.7386 30.6707 23.817 30.5731 23.9216 30.515C24.0305 30.4573 24.1525 30.4444 24.2658 30.4789L28.0517 31.617L31.8377 30.4789C31.951 30.4444 32.073 30.4573 32.1819 30.515C32.2865 30.5731 32.3649 30.6707 32.3954 30.7856L34.6565 39.1164C34.6957 39.2748 34.6478 39.4435 34.5258 39.554C34.4038 39.6646 34.2296 39.6995 34.0727 39.6435L32.0207 38.9112L30.6178 40.5588C30.5307 40.6591 30.4043 40.715 30.278 40.715Z" fill="#D9B667"/>
<path fill-rule="evenodd" clip-rule="evenodd" d="M29.92 40.5385C29.887 40.4945 29.8618 40.444 29.8467 40.3892L28.0518 33.7743L27.8439 34.5404L27.5914 33.6101L25.7964 40.2249C25.7532 40.3815 25.6286 40.5026 25.4692 40.5395L23.8682 38.6592L21.5705 39.4793C21.5546 39.4849 21.5385 39.4896 21.5223 39.4934C21.442 39.3868 21.4144 39.2481 21.447 39.1164L23.7081 30.7856C23.7386 30.6707 23.817 30.5731 23.9216 30.515C24.0305 30.4573 24.1525 30.4444 24.2658 30.4789L28.0518 31.617L31.8377 30.4789C31.8457 30.4764 31.8538 30.4742 31.8619 30.4723C31.8955 30.5166 31.9207 30.5671 31.9351 30.6214L34.1962 38.9522C34.2354 39.1106 34.1875 39.2793 34.0655 39.3898C33.9442 39.4998 33.7713 39.5349 33.6152 39.4804L31.5603 38.747L30.1575 40.3946C30.0941 40.4676 30.0099 40.517 29.92 40.5385Z" fill="#FFD46D"/>
<path fill-rule="evenodd" clip-rule="evenodd" d="M26.2403 35.5321C25.8308 35.5321 25.4343 35.3583 25.1599 35.0382L24.3583 34.1191C24.2711 34.0193 24.1797 33.9668 24.0489 33.9423L22.8421 33.7185C22.2584 33.6105 21.814 33.1681 21.7007 32.5916L21.4741 31.401C21.4523 31.2719 21.4001 31.1802 21.2955 31.0951L20.3675 30.3054C19.9144 29.9237 19.7532 29.3197 19.9493 28.7663L20.3545 27.623C20.3981 27.4995 20.3981 27.3937 20.3545 27.2698L19.9493 26.127C19.7532 25.5736 19.9144 24.9695 20.3675 24.5874L21.2955 23.7982C21.4001 23.7129 21.4523 23.6214 21.4741 23.4923L21.7007 22.3017C21.814 21.7251 22.2584 21.2828 22.8421 21.1748L24.0489 20.951C24.1797 20.9269 24.2711 20.8739 24.3583 20.7741L25.1599 19.8551C25.5432 19.4102 26.1575 19.2479 26.7152 19.4424L27.8741 19.8444C28.0004 19.8878 28.105 19.8878 28.2313 19.8444L29.3902 19.4424C29.9479 19.2479 30.5621 19.4102 30.9456 19.8551L31.7472 20.7741C31.8343 20.874 31.9258 20.9269 32.0565 20.951L33.2633 21.1748C33.8471 21.2828 34.2915 21.725 34.4048 22.3017L34.6314 23.4923C34.6532 23.6214 34.7054 23.713 34.81 23.7982L35.7379 24.5874C36.1911 24.9694 36.3522 25.5736 36.1562 26.127L35.751 27.2698C35.7075 27.3937 35.7075 27.4995 35.751 27.623L36.1562 28.7667C36.3522 29.3197 36.1911 29.9237 35.7379 30.3054L34.81 31.0951C34.7054 31.1802 34.6531 31.2719 34.6314 31.401L34.4048 32.5916C34.2915 33.1681 33.8471 33.6105 33.2633 33.7185L32.0565 33.9423C31.9258 33.9664 31.8343 34.0193 31.7472 34.1191L30.9456 35.0382C30.5622 35.4831 29.9479 35.6458 29.3902 35.4508L28.2313 35.0489C28.105 35.0055 28.0004 35.0055 27.8741 35.0489L26.7152 35.4508C26.5583 35.5055 26.3971 35.5321 26.2403 35.5321Z" fill="#CF515A"/>
<path fill-rule="evenodd" clip-rule="evenodd" d="M26.0655 35.5216C25.7197 35.4794 25.395 35.3126 25.1599 35.0383L24.3583 34.1192C24.2711 34.0194 24.1797 33.9669 24.0489 33.9424L22.8421 33.7186C22.2584 33.6106 21.814 33.1683 21.7007 32.5917L21.4741 31.4011C21.4523 31.272 21.4001 31.1804 21.2955 31.0952L20.3675 30.3056C19.9144 29.9239 19.7532 29.3198 19.9493 28.7664L20.3545 27.6232C20.3981 27.4997 20.3981 27.3938 20.3545 27.2699L19.9493 26.1271C19.7532 25.5737 19.9144 24.9696 20.3675 24.5875L21.2955 23.7983C21.4001 23.7131 21.4523 23.6215 21.4741 23.4924L21.7007 22.3018C21.814 21.7253 22.2584 21.2829 22.8421 21.1749L24.0489 20.9511C24.1797 20.927 24.2711 20.874 24.3583 20.7743L25.1599 19.8552C25.3962 19.5809 25.7204 19.4141 26.065 19.3721C26.1668 19.3845 26.2684 19.4078 26.3682 19.4426L27.5271 19.8445C27.6517 19.8874 27.7552 19.8879 27.8792 19.8462C28.0033 19.8879 28.1068 19.8874 28.2313 19.8445L29.3902 19.4426C29.49 19.4078 29.5916 19.3845 29.6934 19.3721C30.038 19.4141 30.3621 19.5809 30.5985 19.8552L31.4002 20.7743C31.4873 20.8741 31.5788 20.927 31.7095 20.9511L32.9163 21.1749C33.5 21.2829 33.9444 21.7252 34.0577 22.3018L34.2843 23.4924C34.3061 23.6215 34.3583 23.7132 34.4629 23.7983L35.3909 24.5875C35.844 24.9696 36.0052 25.5737 35.8091 26.1271L35.404 27.2699C35.3604 27.3938 35.3604 27.4997 35.404 27.6232L35.8091 28.7669C36.0052 29.3198 35.844 29.9239 35.3909 30.3056L34.4629 31.0952C34.3583 31.1804 34.306 31.272 34.2843 31.4011L34.0577 32.5917C33.9444 33.1683 33.5 33.6106 32.9163 33.7186L31.7095 33.9424C31.5788 33.9665 31.4873 34.0194 31.4002 34.1192L30.5985 35.0383C30.3622 35.3126 30.0381 35.4795 29.6935 35.5216C29.5917 35.5092 29.4901 35.4858 29.3902 35.451L28.2313 35.049C28.1067 35.0061 28.0033 35.0056 27.8792 35.0473C27.7552 35.0055 27.6517 35.0061 27.5271 35.049L26.3682 35.451C26.2682 35.4858 26.1666 35.5092 26.0655 35.5216Z" fill="#EF525F"/>
<path d="M28.0526 32.9501C31.13 32.9501 33.6248 30.4861 33.6248 27.4467C33.6248 24.4073 31.13 21.9434 28.0526 21.9434C24.9752 21.9434 22.4805 24.4073 22.4805 27.4467C22.4805 30.4861 24.9752 32.9501 28.0526 32.9501Z" fill="#D9B667"/>
<path d="M27.8123 32.9441C30.7571 32.9441 33.1442 30.4826 33.1442 27.4462C33.1442 24.4097 30.7571 21.9482 27.8123 21.9482C24.8676 21.9482 22.4805 24.4097 22.4805 27.4462C22.4805 30.4826 24.8676 32.9441 27.8123 32.9441Z" fill="#FFD46D"/>
<path fill-rule="evenodd" clip-rule="evenodd" d="M27.2964 29.3821C27.1831 29.3821 27.0698 29.3391 26.9827 29.2535L25.4666 27.7574C25.2924 27.5857 25.2924 27.3077 25.4666 27.1361C25.6409 26.9644 25.9241 26.9644 26.0984 27.1361L27.2964 28.3211L30.0106 25.6405C30.1848 25.4688 30.468 25.4688 30.6423 25.6405C30.8166 25.8117 30.8166 26.0901 30.6423 26.2618L27.6101 29.2536C27.523 29.3391 27.4097 29.3821 27.2964 29.3821Z" fill="#ECEFF0"/>
</svg>
