<svg width="22" height="23" viewBox="0 0 22 23" fill="none" xmlns="http://www.w3.org/2000/svg">
<g id="Layer_1">
<g id="Layer_2">
<g id="Group">
<path id="Vector" d="M3.43796 16.5332H0.796227C0.588939 16.5332 0.420898 16.7012 0.420898 16.9085V20.6835C0.420898 20.8908 0.588939 21.0588 0.796227 21.0588H3.43796C3.64525 21.0588 3.81329 20.8908 3.81329 20.6835V16.9085C3.81329 16.7012 3.64525 16.5332 3.43796 16.5332Z" fill="#EE224A"/>
<path id="Vector_2" d="M9.47897 14.6426H6.83724C6.62995 14.6426 6.46191 14.8106 6.46191 15.0179V20.6839C6.46191 20.8912 6.62995 21.0592 6.83724 21.0592H9.47897C9.68626 21.0592 9.8543 20.8912 9.8543 20.6839V15.0179C9.8543 14.8106 9.68626 14.6426 9.47897 14.6426Z" fill="#EE224A"/>
<path id="Vector_3" d="M15.5132 12.3848H12.8714C12.6641 12.3848 12.4961 12.5528 12.4961 12.7601V20.6853C12.4961 20.8926 12.6641 21.0606 12.8714 21.0606H15.5132C15.7204 21.0606 15.8885 20.8926 15.8885 20.6853V12.7601C15.8885 12.5528 15.7204 12.3848 15.5132 12.3848Z" fill="#EE224A"/>
<path id="Vector_4" d="M21.1718 8.60938H18.5301C18.3228 8.60938 18.1548 8.77741 18.1548 8.9847V20.6848C18.1548 20.8921 18.3228 21.0602 18.5301 21.0602H21.1718C21.3791 21.0602 21.5472 20.8921 21.5472 20.6848V8.9847C21.5472 8.77741 21.3791 8.60938 21.1718 8.60938Z" fill="#EE224A"/>
<path id="Vector_5" d="M21.5978 1.23242L17.0289 1.44174C16.8196 1.45618 16.6608 1.6294 16.6752 1.83872C16.6752 1.93255 16.7185 2.01917 16.7835 2.08413L17.7507 3.05132C15.8163 4.96405 13.7375 6.7252 11.5289 8.30591C7.48689 11.2508 0.420613 12.7593 0.348435 12.7593C0.139117 12.7738 -0.0196757 12.9542 0.00197783 13.1635C0.0236314 13.3728 0.19686 13.5316 0.406177 13.51C3.79857 13.7193 8.75001 12.9759 12.294 11.2075C15.2316 9.77835 17.8445 7.77179 19.9665 5.29607L21.1358 6.46536C21.2802 6.61694 21.5184 6.61694 21.67 6.46536C21.7349 6.4004 21.7782 6.30657 21.7782 6.21274L21.9948 1.62219C22.002 1.41287 21.8432 1.23964 21.6339 1.23242C21.6194 1.23242 21.6122 1.23242 21.5978 1.23242Z" fill="#EE224A"/>
</g>
</g>
</g>
</svg>
