<svg width="16" height="17" viewBox="0 0 16 17" fill="none" xmlns="http://www.w3.org/2000/svg">
<g id="alarm-clock (2) 1" clip-path="url(#clip0_7300_752)">
<path id="Vector" d="M9.00152 1.91V1.5C9.00152 1.23478 8.89616 0.98043 8.70862 0.792893C8.52109 0.605357 8.26673 0.5 8.00152 0.5C7.7363 0.5 7.48195 0.605357 7.29441 0.792893C7.10687 0.98043 7.00152 1.23478 7.00152 1.5V1.91C5.72975 2.08173 4.52559 2.58513 3.51 3.36964C2.49441 4.15415 1.70318 5.19213 1.21581 6.37928C0.728437 7.56644 0.562086 8.86095 0.733472 10.1328C0.904858 11.4046 1.40794 12.6089 2.19218 13.6247C1.91615 13.8515 1.69547 14.1384 1.54691 14.4633C1.39835 14.7883 1.32583 15.1428 1.33485 15.5C1.33485 15.7652 1.44021 16.0196 1.62774 16.2071C1.81528 16.3946 2.06963 16.5 2.33485 16.5C2.60007 16.5 2.85442 16.3946 3.04196 16.2071C3.22949 16.0196 3.33485 15.7652 3.33485 15.5C3.32466 15.4009 3.3494 15.3014 3.40478 15.2186C3.46016 15.1359 3.54272 15.075 3.63818 15.0467C4.89717 15.9894 6.42768 16.4989 8.00052 16.4989C9.57335 16.4989 11.1039 15.9894 12.3629 15.0467C12.4587 15.0747 12.5417 15.1353 12.5975 15.2181C12.6532 15.3009 12.6783 15.4007 12.6682 15.5C12.6682 15.7652 12.7735 16.0196 12.9611 16.2071C13.1486 16.3946 13.403 16.5 13.6682 16.5C13.9334 16.5 14.1878 16.3946 14.3753 16.2071C14.5628 16.0196 14.6682 15.7652 14.6682 15.5C14.6772 15.1428 14.6047 14.7883 14.4561 14.4633C14.3076 14.1384 14.0869 13.8515 13.8109 13.6247C14.5951 12.6089 15.0982 11.4046 15.2696 10.1328C15.4409 8.86095 15.2746 7.56644 14.7872 6.37928C14.2998 5.19213 13.5086 4.15415 12.493 3.36964C11.4774 2.58513 10.2733 2.08173 9.00152 1.91ZM2.66818 9.16667C2.66818 8.11183 2.98098 7.08069 3.56701 6.20363C4.15305 5.32656 4.986 4.64298 5.96054 4.23931C6.93508 3.83564 8.00743 3.73002 9.042 3.93581C10.0766 4.1416 11.0269 4.64955 11.7728 5.39543C12.5186 6.14131 13.0266 7.09162 13.2324 8.12619C13.4382 9.16075 13.3325 10.2331 12.9289 11.2076C12.5252 12.1822 11.8416 13.0151 10.9646 13.6012C10.0875 14.1872 9.05635 14.5 8.00152 14.5C6.58752 14.4984 5.23188 13.936 4.23203 12.9361C3.23218 11.9363 2.66977 10.5807 2.66818 9.16667Z" fill="#EE224A"/>
<path id="Vector_2" d="M13 0.501286C12.7348 0.501286 12.4804 0.606643 12.2929 0.79418C12.1054 0.981716 12 1.23607 12 1.50129C12 1.7665 12.1054 2.02086 12.2929 2.20839C12.4804 2.39593 12.7348 2.50129 13 2.50129C13.1327 2.49096 13.2661 2.50997 13.3907 2.55698C13.5152 2.60398 13.6279 2.67782 13.7208 2.77326C13.8136 2.86869 13.8843 2.98339 13.9278 3.10921C13.9714 3.23503 13.9867 3.36889 13.9727 3.50129C13.9727 3.7665 14.078 4.02086 14.2656 4.20839C14.4531 4.39593 14.7074 4.50129 14.9727 4.50129C15.2379 4.50129 15.4922 4.39593 15.6798 4.20839C15.8673 4.02086 15.9727 3.7665 15.9727 3.50129C15.9881 3.1055 15.922 2.71077 15.7784 2.34162C15.6349 1.97247 15.4169 1.63679 15.1381 1.35544C14.8593 1.07409 14.5257 0.853074 14.1578 0.706134C13.79 0.559194 13.3959 0.489467 13 0.501286Z" fill="#EE224A"/>
<path id="Vector_3" d="M2.02563 3.50129C2.01164 3.36889 2.02695 3.23503 2.07048 3.10921C2.11401 2.98339 2.1847 2.86869 2.27753 2.77326C2.37036 2.67782 2.48305 2.60398 2.60762 2.55698C2.73218 2.50997 2.86556 2.49096 2.9983 2.50129C3.26352 2.50129 3.51787 2.39593 3.70541 2.20839C3.89294 2.02086 3.9983 1.7665 3.9983 1.50129C3.9983 1.23607 3.89294 0.981716 3.70541 0.79418C3.51787 0.606643 3.26352 0.501286 2.9983 0.501286C2.60239 0.489467 2.20828 0.559194 1.84046 0.706134C1.47264 0.853074 1.13897 1.07409 0.860182 1.35544C0.581393 1.63679 0.363443 1.97247 0.219876 2.34162C0.0763086 2.71077 0.0101918 3.1055 0.0256338 3.50129C0.0256338 3.7665 0.130991 4.02086 0.318527 4.20839C0.506063 4.39593 0.760417 4.50129 1.02563 4.50129C1.29085 4.50129 1.5452 4.39593 1.73274 4.20839C1.92028 4.02086 2.02563 3.7665 2.02563 3.50129Z" fill="#EE224A"/>
<path id="Vector_4" d="M9.01953 8.75397V6.16797C9.01953 5.90275 8.91417 5.6484 8.72664 5.46086C8.5391 5.27333 8.28475 5.16797 8.01953 5.16797C7.75431 5.16797 7.49996 5.27333 7.31242 5.46086C7.12489 5.6484 7.01953 5.90275 7.01953 6.16797V9.02997C7.01961 9.38356 7.16013 9.72265 7.4102 9.97264L8.60553 11.168C8.79413 11.3501 9.04674 11.4509 9.30893 11.4486C9.57113 11.4464 9.82194 11.3412 10.0074 11.1558C10.1928 10.9704 10.2979 10.7196 10.3002 10.4574C10.3025 10.1952 10.2017 9.94257 10.0195 9.75397L9.01953 8.75397Z" fill="#EE224A"/>
</g>
<defs>
<clipPath id="clip0_7300_752">
<rect width="16" height="16" fill="white" transform="translate(0 0.5)"/>
</clipPath>
</defs>
</svg>
