<svg width="77" height="77" viewBox="0 0 77 77" fill="none" xmlns="http://www.w3.org/2000/svg">
<g id="price-tag 1" clip-path="url(#clip0_7300_761)">
<g id="Group">
<path id="Vector" d="M31.159 13.0938L21.8913 17.6079C21.0586 18.0258 20.397 18.7222 20.0208 19.5761L8.45904 48.5599C7.2639 51.2668 8.48289 54.4309 11.182 55.6267L22.682 60.7224H31.2224L31.159 13.0938Z" fill="#FAA515"/>
<path id="Vector_2" d="M56.9226 52.5571V58.1406C56.9226 61.2491 54.322 63.8511 51.2122 63.8511H27.7359C24.6261 63.8511 22.1523 61.2491 22.1523 58.1406V25.2738C22.1523 24.2934 22.4303 23.3639 23.0545 22.6077L30.113 14.0554C30.9151 13.0834 32.0588 12.457 33.3194 12.457H45.6286C46.8892 12.457 48.033 13.0834 48.8352 14.0554L55.8937 22.6077C56.5178 23.3639 56.9228 24.2935 56.9228 25.2738V48.1156V52.5571H56.9226Z" fill="#FFCC00"/>
<g id="Group_2">
<path id="Vector_3" fill-rule="evenodd" clip-rule="evenodd" d="M37.5593 34.7322L37.5594 34.7308L37.5267 34.6981C37.5094 34.6805 37.4919 34.6629 37.4742 34.6457L36.1613 33.332L35.9751 33.703C35.5407 33.5471 35.0732 33.4616 34.5859 33.4616H34.459C32.1848 33.4616 30.3348 35.3118 30.3348 37.5858C30.3348 38.0569 30.4152 38.5091 30.5613 38.9312L30.1758 39.1289L31.5354 40.4915C31.5411 40.4972 31.5468 40.5031 31.5525 40.5088L31.5708 40.5271L31.5714 40.5267C32.3158 41.2579 33.3354 41.71 34.459 41.71H34.5859C36.8601 41.71 38.7101 39.8598 38.7101 37.5858C38.7101 36.4791 38.2712 35.4737 37.5593 34.7322ZM34.5859 39.8065H34.459C33.2346 39.8065 32.2383 38.8103 32.2383 37.5858C32.2383 36.3614 33.2346 35.3651 34.459 35.3651H34.5859C35.8103 35.3651 36.8066 36.3614 36.8066 37.5858C36.8066 38.8103 35.8103 39.8065 34.5859 39.8065Z" fill="#F8C201"/>
<path id="Vector_4" fill-rule="evenodd" clip-rule="evenodd" d="M49.4715 33.8666L48.2025 32.5977L30.6133 50.1866L31.8823 51.4556C32.0682 51.6414 32.3118 51.7344 32.5553 51.7344C32.7989 51.7344 33.0425 51.6415 33.2284 51.4556L49.4715 35.2125C49.843 34.841 49.843 34.2382 49.4715 33.8666Z" fill="#F8C201"/>
<path id="Vector_5" fill-rule="evenodd" clip-rule="evenodd" d="M49.7217 44.4985L49.7229 44.498L48.6731 43.4336L48.7411 43.8652C48.2175 43.6241 47.6357 43.4885 47.0225 43.4885H46.8956C44.6214 43.4885 42.7714 45.3387 42.7714 47.6128C42.7714 48.2004 42.8957 48.7594 43.1183 49.2659L42.6523 49.198L43.9152 50.4591C43.9603 50.5063 44.0065 50.5524 44.0538 50.5974L44.0827 50.6263L44.083 50.6253C44.8203 51.314 45.8092 51.737 46.8956 51.737H47.0225C49.2966 51.737 51.1467 49.8868 51.1467 47.6128C51.1467 46.3703 50.5937 45.2554 49.7217 44.4985ZM47.0225 49.8335H46.8956C45.6711 49.8335 44.6749 48.8372 44.6749 47.6128C44.6749 46.3883 45.6711 45.392 46.8956 45.392H47.0225C48.2469 45.392 49.2432 46.3883 49.2432 47.6128C49.2432 48.8372 48.2469 49.8335 47.0225 49.8335Z" fill="#F8C201"/>
</g>
<g id="Group_3">
<path id="Vector_6" d="M31.2839 50.4629C31.0403 50.4629 30.7967 50.37 30.6108 50.1841C30.2391 49.8124 30.2391 49.2098 30.6108 48.8382L46.8538 32.5952C47.2257 32.2235 47.8282 32.2235 48.1999 32.5952C48.5716 32.9669 48.5716 33.5695 48.1999 33.9411L31.9568 50.1841C31.771 50.37 31.5274 50.4629 31.2839 50.4629Z" fill="#F5F5F5"/>
<path id="Vector_7" d="M33.3136 40.4398H33.1867C30.9126 40.4398 29.0625 38.5896 29.0625 36.3156C29.0625 34.0416 30.9126 32.1914 33.1867 32.1914H33.3136C35.5878 32.1914 37.4378 34.0416 37.4378 36.3156C37.4378 38.5896 35.5878 40.4398 33.3136 40.4398ZM33.1867 34.0949C31.9623 34.0949 30.966 35.0912 30.966 36.3156C30.966 37.5401 31.9623 38.5363 33.1867 38.5363H33.3136C34.5381 38.5363 35.5343 37.5401 35.5343 36.3156C35.5343 35.0912 34.5381 34.0949 33.3136 34.0949H33.1867Z" fill="#F5F5F5"/>
<path id="Vector_8" d="M45.7511 50.4672H45.6242C43.3501 50.4672 41.5 48.617 41.5 46.343C41.5 44.0689 43.3501 42.2188 45.6242 42.2188H45.7511C48.0253 42.2188 49.8753 44.0689 49.8753 46.343C49.8753 48.617 48.0253 50.4672 45.7511 50.4672ZM45.6242 44.1222C44.3998 44.1222 43.4035 45.1185 43.4035 46.343C43.4035 47.5674 44.3998 48.5637 45.6242 48.5637H45.7511C46.9756 48.5637 47.9718 47.5674 47.9718 46.343C47.9718 45.1185 46.9756 44.1222 45.7511 44.1222H45.6242Z" fill="#F5F5F5"/>
</g>
<path id="Vector_9" d="M41.3781 19.7859C40.9359 19.7859 40.5288 19.5094 40.3998 19.0842C40.2434 18.5688 40.5549 18.0302 41.0955 17.8811C41.2111 17.8493 41.3274 17.8143 41.4413 17.7773C44.5484 16.7662 46.6358 13.9824 46.6358 10.8503V-0.0286616C46.6358 -0.565099 47.092 -1 47.6548 -1C48.2175 -1 48.6737 -0.565099 48.6737 -0.0286616V10.8503C48.6737 14.8136 46.0318 18.3361 42.0995 19.6157C41.9553 19.6626 41.8081 19.7069 41.6616 19.7473C41.5672 19.7734 41.4718 19.7859 41.3781 19.7859Z" fill="#E0A446"/>
<path id="Vector_10" d="M39.5329 22.5463C37.8885 22.5463 36.5508 21.2085 36.5508 19.5642C36.5508 17.9198 37.8885 16.582 39.5329 16.582C41.1773 16.582 42.515 17.9198 42.515 19.5642C42.515 21.2085 41.1773 22.5463 39.5329 22.5463Z" fill="#F5F5F5"/>
</g>
</g>
<defs>
<clipPath id="clip0_7300_761">
<rect width="77" height="77" fill="white"/>
</clipPath>
</defs>
</svg>
