<svg width="92" height="93" viewBox="0 0 92 93" fill="none" xmlns="http://www.w3.org/2000/svg">
<g id="challenge 1" clip-path="url(#clip0_11534_1335)">
<path id="Vector" d="M92 27.3333V73.3333C92 83.9018 83.4018 92.5 72.8333 92.5C70.7173 92.5 69 90.7865 69 88.6667C69 86.5468 70.7173 84.8333 72.8333 84.8333C79.1737 84.8333 84.3333 79.6737 84.3333 73.3333V38.8333H80.5C78.384 38.8333 76.6667 37.1198 76.6667 35C76.6667 32.8802 78.384 31.1667 80.5 31.1667H84.3333V27.3333C84.3333 20.993 79.1737 15.8333 72.8333 15.8333H19.1667C12.8263 15.8333 7.66667 20.993 7.66667 27.3333V31.1667H49.8333C51.9493 31.1667 53.6667 32.8802 53.6667 35C53.6667 37.1198 51.9493 38.8333 49.8333 38.8333H7.66667V73.3333C7.66667 79.6737 12.8263 84.8333 19.1667 84.8333C21.2827 84.8333 23 86.5468 23 88.6667C23 90.7865 21.2827 92.5 19.1667 92.5C8.59817 92.5 0 83.9018 0 73.3333V27.3333C0 16.7648 8.59817 8.16667 19.1667 8.16667H23V4.33333C23 2.2135 24.7173 0.5 26.8333 0.5C28.9493 0.5 30.6667 2.2135 30.6667 4.33333V8.16667H61.3333V4.33333C61.3333 2.2135 63.0507 0.5 65.1667 0.5C67.2827 0.5 69 2.2135 69 4.33333V8.16667H72.8333C83.4018 8.16667 92 16.7648 92 27.3333ZM65.1667 65.6667C63.0507 65.6667 61.3333 67.3802 61.3333 69.5C61.3333 77.9563 54.4563 84.8333 46 84.8333C37.5437 84.8333 30.6667 77.9563 30.6667 69.5C30.6667 61.0437 37.5437 54.1667 46 54.1667C48.116 54.1667 49.8333 52.4532 49.8333 50.3333C49.8333 48.2135 48.116 46.5 46 46.5C33.3155 46.5 23 56.8155 23 69.5C23 82.1845 33.3155 92.5 46 92.5C58.6845 92.5 69 82.1845 69 69.5C69 67.3802 67.2827 65.6667 65.1667 65.6667ZM63.4493 35.9813L59.7463 39.6843C58.3088 41.1218 57.5 43.073 57.5 45.1047V52.5797L47.9857 62.094C47.3532 61.9253 46.6862 61.8333 46 61.8333C41.7642 61.8333 38.3333 65.2642 38.3333 69.5C38.3333 73.7358 41.7642 77.1667 46 77.1667C50.2358 77.1667 53.6667 73.7358 53.6667 69.5C53.6667 68.8138 53.5747 68.1468 53.406 67.5143L62.9203 58H70.3953C72.427 58 74.3782 57.1912 75.8157 55.7537L79.5187 52.0507C81.5695 49.9998 80.1167 46.5 77.2187 46.5H69V38.2813C69 35.3833 65.4963 33.9305 63.4493 35.9813Z" fill="#080808"/>
</g>
<defs>
<clipPath id="clip0_11534_1335">
<rect width="92" height="92" fill="white" transform="translate(0 0.5)"/>
</clipPath>
</defs>
</svg>
