<svg width="55" height="55" viewBox="0 0 55 55" fill="none" xmlns="http://www.w3.org/2000/svg">
<g clip-path="url(#clip0_11534_1401)">
<path d="M55 22.9169C55.0001 22.7496 54.9817 22.5828 54.945 22.4196L51.9658 8.97207C51.4123 6.4197 49.9981 4.13523 47.9603 2.50173C45.9225 0.868233 43.385 -0.0149792 40.7733 0.000192245H14.2267C11.6166 -0.0128709 9.08126 0.871305 7.04534 2.50463C5.00942 4.13796 3.59654 6.42124 3.04334 8.97207L0.0550031 22.4196C0.018355 22.5828 -9.08872e-05 22.7496 3.1382e-06 22.9169V25.2085C-0.0018458 27.4397 0.813364 29.5943 2.29167 31.2654V43.5419C2.29531 46.5797 3.50369 49.492 5.65176 51.6401C7.79982 53.7882 10.7122 54.9966 13.75 55.0002H41.25C44.2878 54.9966 47.2002 53.7882 49.3483 51.6401C51.4963 49.492 52.7047 46.5797 52.7083 43.5419V31.2654C54.1866 29.5943 55.0019 27.4397 55 25.2085V22.9169ZM4.58334 23.1667L7.51667 9.96665C7.84906 8.4364 8.69692 7.06672 9.91837 6.08681C11.1398 5.10689 12.6607 4.5762 14.2267 4.58353H16.0417V11.4585C16.0417 12.0663 16.2831 12.6492 16.7129 13.079C17.1427 13.5088 17.7255 13.7502 18.3333 13.7502C18.9411 13.7502 19.524 13.5088 19.9538 13.079C20.3836 12.6492 20.625 12.0663 20.625 11.4585V4.58353H34.375V11.4585C34.375 12.0663 34.6164 12.6492 35.0462 13.079C35.476 13.5088 36.0589 13.7502 36.6667 13.7502C37.2745 13.7502 37.8574 13.5088 38.2871 13.079C38.7169 12.6492 38.9583 12.0663 38.9583 11.4585V4.58353H40.7733C42.3393 4.5762 43.8602 5.10689 45.0816 6.08681C46.3031 7.06672 47.1509 8.4364 47.4833 9.96665L50.4167 23.1667V25.2085C50.4167 26.4241 49.9338 27.5899 49.0742 28.4494C48.2147 29.309 47.0489 29.7919 45.8333 29.7919H43.5417C42.3261 29.7919 41.1603 29.309 40.3008 28.4494C39.4412 27.5899 38.9583 26.4241 38.9583 25.2085C38.9583 24.6007 38.7169 24.0178 38.2871 23.5881C37.8574 23.1583 37.2745 22.9169 36.6667 22.9169C36.0589 22.9169 35.476 23.1583 35.0462 23.5881C34.6164 24.0178 34.375 24.6007 34.375 25.2085C34.375 26.4241 33.8921 27.5899 33.0326 28.4494C32.173 29.309 31.0072 29.7919 29.7917 29.7919H25.2083C23.9928 29.7919 22.827 29.309 21.9674 28.4494C21.1079 27.5899 20.625 26.4241 20.625 25.2085C20.625 24.6007 20.3836 24.0178 19.9538 23.5881C19.524 23.1583 18.9411 22.9169 18.3333 22.9169C17.7255 22.9169 17.1427 23.1583 16.7129 23.5881C16.2831 24.0178 16.0417 24.6007 16.0417 25.2085C16.0417 26.4241 15.5588 27.5899 14.6992 28.4494C13.8397 29.309 12.6739 29.7919 11.4583 29.7919H9.16667C7.95109 29.7919 6.78531 29.309 5.92576 28.4494C5.06622 27.5899 4.58334 26.4241 4.58334 25.2085V23.1667ZM41.25 50.4169H13.75C11.9266 50.4169 10.178 49.6925 8.88864 48.4032C7.59933 47.1139 6.875 45.3652 6.875 43.5419V34.0842C7.62346 34.278 8.39353 34.3758 9.16667 34.3752H11.4583C12.7596 34.3759 14.046 34.0988 15.2316 33.5625C16.4172 33.0263 17.4746 32.2431 18.3333 31.2654C19.192 32.2431 20.2495 33.0263 21.4351 33.5625C22.6207 34.0988 23.9071 34.3759 25.2083 34.3752H29.7917C31.0929 34.3759 32.3793 34.0988 33.5649 33.5625C34.7505 33.0263 35.808 32.2431 36.6667 31.2654C37.5254 32.2431 38.5828 33.0263 39.7684 33.5625C40.954 34.0988 42.2404 34.3759 43.5417 34.3752H45.8333C46.6065 34.3758 47.3765 34.278 48.125 34.0842V43.5419C48.125 45.3652 47.4007 47.1139 46.1114 48.4032C44.8221 49.6925 43.0734 50.4169 41.25 50.4169Z" fill="#080808"/>
</g>
<defs>
<clipPath id="clip0_11534_1401">
<rect width="55" height="55" fill="white"/>
</clipPath>
</defs>
</svg>
