<svg width="92" height="93" viewBox="0 0 92 93" fill="none" xmlns="http://www.w3.org/2000/svg">
<g id="lightbulb-on 1" clip-path="url(#clip0_11534_1341)">
<path id="Vector" d="M45.4815 15.8379C29.4428 16.1024 15.9303 29.3542 15.3591 45.3737C15.0218 54.6811 18.8628 63.5169 25.9008 69.6234C28.933 72.2569 30.6695 76.3049 30.6695 81.0007C30.6695 87.341 35.8291 92.5007 42.1695 92.5007H49.8361C56.1765 92.5007 61.3361 87.341 61.3361 81.0007V79.5632C61.3361 75.8602 63.0803 72.2876 66.2505 69.4969C72.8745 63.6779 76.6694 55.2982 76.6694 46.5007C76.6694 38.2169 73.415 30.4506 67.5078 24.6392C61.6006 18.8279 53.773 15.6501 45.4815 15.8379ZM53.6695 81.0007C53.6695 83.1167 51.9521 84.8341 49.8361 84.8341H42.1695C40.0535 84.8341 38.3361 83.1167 38.3361 80.7362C38.3361 79.5249 38.2173 78.3366 38.041 77.1674H53.8266C53.7308 77.9571 53.6695 78.7582 53.6695 79.5632V81.0007ZM61.1905 63.7392C59.2316 65.4604 57.6523 67.4077 56.4371 69.5007H49.8361V53.4621C54.2866 51.8751 57.5028 47.6584 57.5028 42.6674C57.5028 40.5476 55.7893 38.8341 53.6695 38.8341C51.5496 38.8341 49.8361 40.5476 49.8361 42.6674C49.8361 44.7872 48.1188 46.5007 46.0028 46.5007C43.8868 46.5007 42.1695 44.7834 42.1695 42.6674C42.1695 40.5514 40.456 38.8341 38.3361 38.8341C36.2163 38.8341 34.5028 40.5476 34.5028 42.6674C34.5028 47.6584 37.719 51.8751 42.1695 53.4621V69.5007H35.4765C34.2881 67.3617 32.7663 65.4374 30.9225 63.835C25.6478 59.2542 22.7651 52.6264 23.0181 45.6497C23.4475 33.6361 33.5828 23.7001 45.6118 23.5046C45.7421 23.5046 45.8686 23.5046 46.0028 23.5046C52.0825 23.5046 57.798 25.8391 62.1335 30.1094C66.5648 34.4679 69.0066 40.2907 69.0066 46.5046C69.0066 53.0979 66.1585 59.3769 61.1943 63.743L61.1905 63.7392ZM64.3453 9.98439L69.0795 2.27939C70.1835 0.470056 72.5448 -0.0934444 74.3503 1.02206C76.1558 2.12989 76.7193 4.48739 75.6076 6.29289L70.8735 13.9979C70.1528 15.1786 68.8916 15.8264 67.6036 15.8264C66.9174 15.8264 66.2275 15.6424 65.6026 15.2591C63.7971 14.1512 63.2336 11.7899 64.3453 9.98439ZM89.7526 25.8851L82.3428 29.2277C81.8329 29.4616 81.2963 29.5689 80.7711 29.5689C79.3068 29.5689 77.9153 28.7294 77.2751 27.3111C76.4011 25.3829 77.2598 23.1097 79.1918 22.2434L86.6016 18.9007C88.5413 18.0229 90.803 18.8892 91.6693 20.8174C92.5433 22.7456 91.6846 25.0187 89.7526 25.8851ZM16.0798 6.28906C14.972 4.48356 15.5393 2.12222 17.3448 1.01822C19.158 -0.0857777 21.5116 0.481556 22.6156 2.28322L27.3383 9.99205C28.4461 11.7976 27.8788 14.1589 26.0733 15.2629C25.4485 15.6462 24.7546 15.8264 24.0761 15.8264C22.7843 15.8264 21.527 15.1747 20.8025 13.9941L16.0798 6.28522V6.28906ZM14.2283 27.5679C13.5728 28.9441 12.2005 29.7452 10.7706 29.7452C10.2148 29.7452 9.65128 29.6264 9.11845 29.3657L2.22612 26.0652C0.317118 25.1529 -0.491715 22.8644 0.424452 20.9554C1.33295 19.0426 3.63295 18.2261 5.53428 19.1537L12.4266 22.4542C14.3356 23.3666 15.1445 25.6589 14.2283 27.5679Z" fill="#080808"/>
</g>
<defs>
<clipPath id="clip0_11534_1341">
<rect width="92" height="92" fill="white" transform="translate(0 0.5)"/>
</clipPath>
</defs>
</svg>
