<svg width="55" height="55" viewBox="0 0 55 55" fill="none" xmlns="http://www.w3.org/2000/svg">
<g clip-path="url(#clip0_11534_1403)">
<path d="M41.225 5.24409C38.4278 2.74513 35.0021 1.05626 31.3165 0.359244C27.631 -0.337772 23.8252 -0.0165466 20.3086 1.28835C16.792 2.59325 13.6979 4.83241 11.3591 7.76486C9.02036 10.6973 7.52556 14.212 7.03558 17.9308C6.59554 21.1915 6.94747 24.5102 8.0616 27.606C9.17574 30.7019 11.0193 33.4838 13.4362 35.7164C14.9308 37.0271 16.1369 38.6339 16.9779 40.4352C17.819 42.2364 18.2767 44.1927 18.322 46.1801V46.5491C18.3245 48.7911 19.2162 50.9406 20.8015 52.5259C22.3868 54.1112 24.5363 55.0029 26.7783 55.0053H28.1991C30.4411 55.0029 32.5906 54.1112 34.1759 52.5259C35.7612 50.9406 36.6529 48.7911 36.6554 46.5491V45.291C36.6897 43.5343 37.1031 41.8058 37.8672 40.2237C38.6314 38.6416 39.7283 37.2432 41.0829 36.1243C43.2796 34.2003 45.0425 31.8315 46.2547 29.1748C47.4668 26.5181 48.1006 23.6341 48.114 20.7139C48.1275 17.7938 47.5202 14.9041 46.3326 12.2363C45.1449 9.56856 43.4039 7.18362 41.225 5.23951V5.24409ZM28.1991 50.422H26.7783C25.7515 50.4208 24.7671 50.0124 24.0411 49.2863C23.315 48.5603 22.9066 47.5759 22.9054 46.5491C22.9054 46.5491 22.8893 45.9533 22.887 45.8387H32.072V46.5491C32.0708 47.5759 31.6624 48.5603 30.9364 49.2863C30.2103 50.0124 29.2259 50.4208 28.1991 50.422ZM38.0533 32.6822C35.4441 34.9453 33.5597 37.9273 32.6358 41.2553H29.7804V24.792C31.1162 24.3197 32.2735 23.4463 33.0939 22.2911C33.9143 21.136 34.3578 19.7555 34.3637 18.3387C34.3637 17.7309 34.1223 17.148 33.6925 16.7182C33.2627 16.2885 32.6798 16.047 32.072 16.047C31.4643 16.047 30.8814 16.2885 30.4516 16.7182C30.0218 17.148 29.7804 17.7309 29.7804 18.3387C29.7804 18.9465 29.5389 19.5294 29.1092 19.9591C28.6794 20.3889 28.0965 20.6303 27.4887 20.6303C26.8809 20.6303 26.298 20.3889 25.8683 19.9591C25.4385 19.5294 25.197 18.9465 25.197 18.3387C25.197 17.7309 24.9556 17.148 24.5258 16.7182C24.0961 16.2885 23.5132 16.047 22.9054 16.047C22.2976 16.047 21.7147 16.2885 21.2849 16.7182C20.8552 17.148 20.6137 17.7309 20.6137 18.3387C20.6196 19.7555 21.0631 21.136 21.8835 22.2911C22.7039 23.4463 23.8612 24.3197 25.197 24.792V41.2553H22.1675C21.1339 37.8389 19.1954 34.7658 16.5575 32.3614C14.3184 30.275 12.7229 27.5917 11.9592 24.6281C11.1955 21.6645 11.2954 18.5443 12.2473 15.6356C13.1992 12.727 14.9632 10.1513 17.3313 8.21263C19.6993 6.27391 22.5725 5.05304 25.6118 4.69409C26.2419 4.62376 26.8754 4.58856 27.5093 4.58867C31.4454 4.57697 35.2453 6.02927 38.1702 8.66326C39.8653 10.1748 41.2198 12.0295 42.1438 14.1042C43.0678 16.1789 43.5403 18.4264 43.5299 20.6975C43.5195 22.9687 43.0265 25.2117 42.0835 27.2779C41.1405 29.3441 39.7691 31.1862 38.0602 32.6822H38.0533Z" fill="#080808"/>
</g>
<defs>
<clipPath id="clip0_11534_1403">
<rect width="55" height="55" fill="white"/>
</clipPath>
</defs>
</svg>
