<svg width="45" height="45" viewBox="0 0 45 45" fill="none" xmlns="http://www.w3.org/2000/svg">
<path d="M37.6191 45C39.0996 45 40.2998 43.7999 40.2998 42.3193V8.57136H39.1029C38.185 8.57136 37.4409 7.82728 37.4409 6.90943V2.52176L36.2036 0.24082C35.8566 0.0818262 35.4823 0 35.0933 0H12.0557C10.5751 0 9.375 1.20015 9.375 2.68066V42.3193C9.375 43.7999 10.5751 45 12.0557 45H37.6191Z" fill="#F4FBFF"/>
<path d="M39.0615 8.57129V42.3193C39.0615 43.7997 37.8614 44.9999 36.3809 44.9999H42.0934C43.5739 44.9999 44.7741 43.7998 44.7741 42.3193V9.68161C44.7741 9.2948 44.6905 8.9167 44.5332 8.57129H39.0615Z" fill="#E4F6FF"/>
<path d="M43.9894 7.78662L36.9883 0.785518C36.759 0.556299 36.4925 0.372871 36.2031 0.241211V6.90982C36.2031 7.82767 36.9472 8.57175 37.865 8.57175H44.5337C44.4019 8.28224 44.2186 8.01575 43.9894 7.78662Z" fill="#E28086"/>
<path d="M19.1504 33.4062L21.212 31.3447L25.5302 35.6629L23.4687 37.7245L19.1504 33.4062Z" fill="#4A80AA"/>
<path d="M32.1133 40.9419L25.9397 34.7682C25.586 34.4145 25.0124 34.4145 24.6586 34.7682L22.5778 36.8491C22.2241 37.2028 22.2241 37.7764 22.5778 38.1302L28.7514 44.3038C29.6798 45.2322 31.1849 45.2322 32.1133 44.3038C33.0416 43.3754 33.0416 41.8703 32.1133 40.9419Z" fill="#CC9675"/>
<path d="M12.7199 37.4057C19.6209 37.4057 25.2153 31.8113 25.2153 24.9104C25.2153 18.0094 19.6209 12.415 12.7199 12.415C5.81896 12.415 0.224609 18.0094 0.224609 24.9104C0.224609 31.8113 5.81896 37.4057 12.7199 37.4057Z" fill="#BED8FB"/>
<path d="M12.7191 34.698C18.1246 34.698 22.5066 30.316 22.5066 24.9105C22.5066 19.5051 18.1246 15.123 12.7191 15.123C7.31365 15.123 2.93164 19.5051 2.93164 24.9105C2.93164 30.316 7.31365 34.698 12.7191 34.698Z" fill="#F4FBFF"/>
<path d="M14.8153 29.4764C14.5691 29.4455 14.3839 29.2369 14.3829 28.9888L14.3734 26.7314L10.9244 26.7459L10.9339 29.0033C10.9349 29.2514 10.7516 29.4616 10.5056 29.4946C10.5056 29.4946 9.86874 31.6712 12.6696 31.6594C15.4705 31.6477 14.8153 29.4764 14.8153 29.4764Z" fill="#FFCBBE"/>
<path d="M17.831 30.1367C17.0408 29.7888 15.5488 29.5688 14.8145 29.4766L14.8101 29.482C13.7084 30.8601 11.6147 30.8663 10.5048 29.4947C9.77115 29.593 8.28114 29.8258 7.49391 30.1802C6.67564 30.5489 6.20455 31.3543 6.1875 32.1996C9.87926 35.5136 15.4834 35.5305 19.1947 32.25C19.2093 31.3144 18.6895 30.5146 17.831 30.1367Z" fill="#407093"/>
<path d="M15.3402 19.6865C15.3402 19.1423 14.899 18.7012 14.3549 18.7012H11.0769C9.75945 18.7012 8.69141 19.7692 8.69141 21.0868V22.8622L9.50624 23.4869H15.8768L16.6916 22.1148V21.0048C16.6916 20.4606 16.2505 20.0194 15.7063 20.0194H15.6731C15.4892 20.0194 15.3402 19.8704 15.3402 19.6865Z" fill="#4A80AA"/>
<path d="M16.6917 22.1151L15.1284 21.9685C14.4651 21.9063 13.7995 22.0608 13.2313 22.4088C12.7469 22.7055 12.1899 22.8625 11.6219 22.8625H8.69141V24.278C8.69141 24.5646 8.9237 24.7968 9.21014 24.7968C9.29917 24.7968 9.37405 24.8654 9.37959 24.9544C9.48726 26.6903 10.9285 28.0651 12.6915 28.0651C14.4562 28.0651 15.8983 26.6878 15.9996 24.9496C16.0046 24.8634 16.0769 24.7968 16.1633 24.7968H16.1718C16.4631 24.7968 16.6988 24.5605 16.6968 24.2699C16.6917 23.4889 16.6917 22.1151 16.6917 22.1151Z" fill="#FFDDCE"/>
<path d="M40.3688 18.3083H28.6595C28.2845 18.3083 27.9805 18.0043 27.9805 17.6292C27.9805 17.2542 28.2845 16.9502 28.6595 16.9502H40.3687C40.7438 16.9502 41.0478 17.2542 41.0478 17.6292C41.0478 18.0043 40.7438 18.3083 40.3688 18.3083Z" fill="#407093"/>
<path d="M40.3688 22.402H28.6595C28.2845 22.402 27.9805 22.098 27.9805 21.723C27.9805 21.348 28.2845 21.0439 28.6595 21.0439H40.3687C40.7438 21.0439 41.0478 21.348 41.0478 21.723C41.0478 22.098 40.7438 22.402 40.3688 22.402Z" fill="#407093"/>
<path d="M40.3688 26.4958H28.6595C28.2845 26.4958 27.9805 26.1918 27.9805 25.8167C27.9805 25.4417 28.2845 25.1377 28.6595 25.1377H40.3687C40.7438 25.1377 41.0478 25.4417 41.0478 25.8167C41.0478 26.1918 40.7438 26.4958 40.3688 26.4958Z" fill="#407093"/>
<path d="M34.5142 30.5895H28.6595C28.2845 30.5895 27.9805 30.2855 27.9805 29.9105C27.9805 29.5355 28.2845 29.2314 28.6595 29.2314H34.5142C34.8892 29.2314 35.1932 29.5355 35.1932 29.9105C35.1932 30.2855 34.8892 30.5895 34.5142 30.5895Z" fill="#407093"/>
<path d="M27.878 8.57156H14.4064C13.9749 8.57156 13.625 8.22176 13.625 7.79013V5.18769C13.625 4.75614 13.9748 4.40625 14.4064 4.40625H27.878C28.3096 4.40625 28.6595 4.75605 28.6595 5.18769V7.79013C28.6594 8.22167 28.3096 8.57156 27.878 8.57156Z" fill="#FFE07D"/>
</svg>
