<svg width="45" height="45" viewBox="0 0 45 45" fill="none" xmlns="http://www.w3.org/2000/svg">
<g clip-path="url(#clip0_9479_5535)">
<path fill-rule="evenodd" clip-rule="evenodd" d="M0 8.37466L18.6627 10.965L37.2597 8.37466V4.16107C37.2597 3.27461 36.5309 2.54883 35.6441 2.54883H1.61327C0.726126 2.54883 0 3.27461 0 4.16107L0 8.37466Z" fill="#E6E6E6"/>
<path fill-rule="evenodd" clip-rule="evenodd" d="M25.5727 8.375H0V40.7489C0 41.6378 0.726126 42.3636 1.61327 42.3636H35.6441C36.5309 42.3636 37.2597 41.6378 37.2597 40.7489V8.375H25.5727Z" fill="#8EBFE8"/>
<path fill-rule="evenodd" clip-rule="evenodd" d="M33.8774 8.37466H37.2598V4.16107C37.2598 3.62377 36.9906 3.14415 36.5838 2.85027C36.3174 2.66178 35.9933 2.54883 35.6438 2.54883H32.2617C33.1513 2.54883 33.8774 3.27461 33.8774 4.16107V8.37466Z" fill="#C4CCCF"/>
<path fill-rule="evenodd" clip-rule="evenodd" d="M36.5838 8.375H33.8774V40.7489C33.8774 41.6378 33.1513 42.3636 32.2617 42.3636H35.6441C35.9933 42.3636 36.3174 42.2506 36.5838 42.0597C36.991 41.7658 37.2598 41.2862 37.2598 40.7489V8.375H36.5838Z" fill="#519AD6"/>
<path d="M32.3248 5.96448H32.3073C31.9293 5.96448 31.623 5.65823 31.623 5.28058C31.623 4.90292 31.9293 4.59668 32.3073 4.59668H32.3248C32.7028 4.59668 33.0094 4.90292 33.0094 5.28058C33.0094 5.65823 32.7028 5.96448 32.3248 5.96448Z" fill="#8BC34A"/>
<path d="M29.4205 5.96448H29.403C29.025 5.96448 28.7188 5.65823 28.7188 5.28058C28.7188 4.90292 29.025 4.59668 29.403 4.59668H29.4205C29.7985 4.59668 30.1051 4.90292 30.1051 5.28058C30.1051 5.65823 29.7985 5.96448 29.4205 5.96448Z" fill="#FFD54F"/>
<path d="M26.5146 5.97717H26.4967C26.1187 5.97717 25.8125 5.67093 25.8125 5.29327C25.8125 4.91562 26.1187 4.60938 26.4967 4.60938H26.5146C26.8926 4.60938 27.1988 4.91562 27.1988 5.29327C27.1988 5.67093 26.8922 5.97717 26.5146 5.97717Z" fill="#F0417B"/>
<path d="M20.0849 5.97717H5.26432C4.88632 5.97717 4.58008 5.67093 4.58008 5.29327C4.58008 4.91562 4.88632 4.60938 5.26432 4.60938H20.0849C20.4629 4.60938 20.7694 4.91562 20.7694 5.29327C20.7694 5.67093 20.4629 5.97717 20.0849 5.97717Z" fill="#35505C"/>
<path d="M6.00636 16.2744H7.34944C7.49535 16.2744 7.62444 16.328 7.73636 16.4351C7.78511 16.4835 7.82391 16.5395 7.85309 16.6027C7.88227 16.6662 7.89704 16.7366 7.89704 16.8141C7.89704 16.9601 7.84451 17.084 7.74014 17.1863C7.63508 17.2886 7.50531 17.3394 7.34944 17.3394H5.42237C5.25208 17.3394 5.10857 17.2824 4.99184 17.1681C4.87477 17.0538 4.81641 16.9117 4.81641 16.7414V12.6854C4.81641 12.525 4.87477 12.3839 4.99184 12.2624C5.10857 12.1408 5.24968 12.0801 5.41516 12.0801H7.31305C7.45896 12.0801 7.58324 12.1323 7.68521 12.2366C7.78752 12.3413 7.83867 12.4667 7.83867 12.6126C7.83867 12.7537 7.78752 12.8824 7.68521 12.9992C7.57809 13.1059 7.45415 13.1595 7.31305 13.1595H5.99915V14.1661H7.18155C7.33742 14.1661 7.46857 14.22 7.57569 14.3268C7.6828 14.4339 7.73636 14.5578 7.73636 14.6989C7.73636 14.8449 7.68383 14.9702 7.57946 15.0745C7.47475 15.1792 7.34223 15.2314 7.18155 15.2314H6.00636V16.2744Z" fill="#35505C"/>
<path d="M11.0746 15.5018L9.92103 17.114C9.78988 17.3035 9.62646 17.3983 9.43214 17.3983C9.27146 17.3983 9.13036 17.3423 9.00882 17.2307C8.88694 17.1188 8.82617 16.9849 8.82617 16.8294C8.82617 16.6835 8.87012 16.5523 8.95766 16.4356L10.3883 14.5168L9.22031 12.9777C9.13757 12.8709 9.09637 12.7442 9.09637 12.5983C9.09637 12.4428 9.15473 12.3065 9.27146 12.1897C9.38819 12.073 9.5293 12.0146 9.69478 12.0146C9.88944 12.0146 10.0597 12.117 10.206 12.3212L11.0746 13.5613L11.9432 12.3212C12.0843 12.117 12.2546 12.0146 12.4541 12.0146C12.6099 12.0146 12.7486 12.072 12.8702 12.186C12.9917 12.3006 13.0525 12.4376 13.0525 12.5983C13.0525 12.7246 13.0089 12.8513 12.9213 12.9777L11.7605 14.5168L13.184 16.4353C13.2715 16.552 13.3155 16.6835 13.3155 16.8294C13.3155 16.9801 13.2571 17.1137 13.1404 17.2304C13.082 17.284 13.0185 17.3255 12.9505 17.3547C12.8822 17.3839 12.8046 17.3983 12.7167 17.3983C12.532 17.3983 12.3665 17.3035 12.2206 17.114L11.0746 15.5018Z" fill="#35505C"/>
<path d="M15.4463 16.3481L15.2493 17.0117C15.1665 17.2843 14.9767 17.4203 14.6797 17.4203C14.5142 17.4203 14.3755 17.3643 14.2636 17.2524C14.1517 17.1408 14.0957 17.0045 14.0957 16.8438C14.0957 16.737 14.1129 16.6399 14.1469 16.5523L15.5995 12.6714C15.7601 12.2337 16.0471 12.0146 16.4609 12.0146C16.8697 12.0146 17.1544 12.2337 17.315 12.6714L18.7457 16.5595C18.7845 16.6667 18.804 16.7834 18.804 16.9097C18.804 17.0361 18.7457 17.1552 18.6289 17.2671C18.517 17.3643 18.3807 17.413 18.22 17.413C17.9526 17.413 17.7723 17.2792 17.68 17.0117L17.4682 16.3481H15.4463ZM16.4609 13.2403L15.7821 15.2827L17.1108 15.2899L16.4609 13.2403Z" fill="#35505C"/>
<path d="M21.4768 13.9475L21.0607 16.8434C21.0071 17.2184 20.8101 17.4055 20.4695 17.4055C20.2944 17.4055 20.1509 17.3471 20.039 17.2304C19.9271 17.1136 19.8711 16.9677 19.8711 16.7923C19.8711 16.7391 19.8759 16.6999 19.8859 16.6756L20.5646 12.6491C20.5938 12.474 20.6837 12.3257 20.8348 12.2038C20.9855 12.0826 21.1582 12.0215 21.3529 12.0215C21.747 12.0215 22.0072 12.2186 22.1339 12.6127L22.9589 15.3919L23.7984 12.6127C23.9151 12.2186 24.1753 12.0215 24.5794 12.0215C24.7693 12.0215 24.9382 12.0812 25.0868 12.2004C25.2352 12.3195 25.3261 12.4692 25.3605 12.6491L26.0392 16.6756L26.054 16.7923C26.054 16.9725 25.998 17.1195 25.8861 17.2338C25.7738 17.3481 25.6331 17.4051 25.4628 17.4051C25.1219 17.4051 24.9224 17.218 24.864 16.8434L24.4407 13.9475L23.5649 16.931C23.5113 17.1109 23.442 17.2348 23.3568 17.3032C23.2717 17.3711 23.1388 17.4051 22.9589 17.4051C22.6572 17.4051 22.4553 17.2472 22.353 16.931L21.4768 13.9475Z" fill="#35505C"/>
<path d="M19.8139 20.6422H5.53615C5.15815 20.6422 4.85156 20.336 4.85156 19.9583C4.85156 19.5807 5.15815 19.2744 5.53615 19.2744H19.8139C20.1919 19.2744 20.4981 19.5807 20.4981 19.9583C20.4981 20.336 20.1919 20.6422 19.8139 20.6422Z" fill="#35505C"/>
<path d="M19.8139 24.6031H5.53615C5.15815 24.6031 4.85156 24.2969 4.85156 23.9192C4.85156 23.5413 5.15815 23.2354 5.53615 23.2354H19.8139C20.1919 23.2354 20.4981 23.5416 20.4981 23.9192C20.4981 24.2969 20.1919 24.6031 19.8139 24.6031Z" fill="#35505C"/>
<path fill-rule="evenodd" clip-rule="evenodd" d="M6.45217 27.5879H30.8061C31.3087 27.5879 31.721 27.9999 31.721 28.5018V37.3788C31.721 37.881 31.3087 38.293 30.8061 38.293H6.45217C5.94714 38.293 5.53516 37.881 5.53516 37.3788V28.5018C5.53516 27.9995 5.94714 27.5879 6.45217 27.5879Z" fill="#ECEFF1"/>
<path d="M18.6624 31.887H8.11623C7.73823 31.887 7.43164 31.5811 7.43164 31.2034C7.43164 30.8254 7.73823 30.5195 8.11623 30.5195H18.6624C19.0404 30.5195 19.3466 30.8254 19.3466 31.2034C19.3466 31.5811 19.0404 31.887 18.6624 31.887Z" fill="#35505C"/>
<path d="M22.9371 35.0973H8.11623C7.73823 35.0973 7.43164 34.791 7.43164 34.4134C7.43164 34.0357 7.73823 33.7295 8.11623 33.7295H22.9371C23.3151 33.7295 23.6213 34.0357 23.6213 34.4134C23.6213 34.791 23.3151 35.0973 22.9371 35.0973Z" fill="#35505C"/>
<path fill-rule="evenodd" clip-rule="evenodd" d="M23.0726 32.2754L22.4773 33.6315C22.0451 34.6385 22.9271 35.6001 24.025 35.103L25.3544 34.4448L25.0502 32.5064L23.0726 32.2754Z" fill="#546E7A"/>
<path fill-rule="evenodd" clip-rule="evenodd" d="M28.6331 32.8232L27.5804 30.0787L24.54 28.9258L23.0723 32.2759L25.354 34.4454L28.6331 32.8232Z" fill="#FFD54F"/>
<path fill-rule="evenodd" clip-rule="evenodd" d="M26.9333 31.2031L24.4277 33.8347L25.355 34.4448L28.6341 32.8226L26.9333 31.2031Z" fill="#E6A235"/>
<path fill-rule="evenodd" clip-rule="evenodd" d="M24.5602 33.6943L23.5752 34.2921C22.8491 34.5406 22.628 34.4527 22.3945 34.4126C22.5377 35.0529 23.2237 35.4645 24.0253 35.103L25.3543 34.4452L24.5602 33.6943Z" fill="#35505C"/>
<path fill-rule="evenodd" clip-rule="evenodd" d="M38.1527 14.6394L25.3022 28.1271L24.541 28.9254L28.6341 32.8228L32.9888 28.2524L43.4976 17.2236H43.5L42.5603 14.2528L39.4041 13.3262L38.1527 14.6394Z" fill="#8BC34A"/>
<path fill-rule="evenodd" clip-rule="evenodd" d="M26.9316 31.203L28.6325 32.8225L32.9872 28.2522L43.4959 17.2233H43.4983L41.7944 15.6035L31.286 26.6327L26.9316 31.203Z" fill="#689F38"/>
<path fill-rule="evenodd" clip-rule="evenodd" d="M44.1284 12.4673C43.0027 11.3951 41.2033 11.4381 40.1304 12.5631L39.4043 13.3263L43.5001 17.2237L44.2239 16.4629C45.2868 15.3478 45.2641 13.5498 44.1284 12.4673Z" fill="#F0417B"/>
<path fill-rule="evenodd" clip-rule="evenodd" d="M43.0989 11.8418C43.4659 12.7684 43.3251 13.8509 42.6845 14.6543C42.634 14.7199 42.5787 14.7824 42.521 14.8428L41.7949 15.6036L43.4985 17.2234L44.2222 16.4626C45.2851 15.3475 45.2625 13.5495 44.1268 12.4673C43.8226 12.1783 43.4707 11.9699 43.0989 11.8418Z" fill="#A3316E"/>
</g>
<defs>
<clipPath id="clip0_9479_5535">
<rect width="45" height="45" fill="white"/>
</clipPath>
</defs>
</svg>
