<svg width="45" height="45" viewBox="0 0 45 45" fill="none" xmlns="http://www.w3.org/2000/svg">
<g clip-path="url(#clip0_9169_8298)">
<path d="M12.2679 44.9994H1.46956C0.753695 44.9994 0.245599 44.3017 0.462777 43.6197C1.20616 41.285 3.79128 39.5605 6.86877 39.5605C9.94292 39.5605 12.5302 41.2849 13.2744 43.6194C13.4919 44.3015 12.9839 44.9994 12.2679 44.9994Z" fill="#FFCE29"/>
<path d="M8.08431 38.7991C8.38999 38.7991 8.68073 38.6585 8.86337 38.4133C9.5403 37.5044 9.97202 36.2708 9.97202 35.3191C9.97202 33.6028 8.5801 32.2158 6.86878 32.2158C5.15746 32.2158 3.76562 33.6028 3.76562 35.3191C3.76562 36.2708 4.19734 37.5044 4.87419 38.4133C5.05683 38.6585 5.34757 38.7991 5.65325 38.7991H8.08431Z" fill="#6D6D6D"/>
<path d="M27.4846 44.9994H16.6864C15.9705 44.9994 15.4624 44.3017 15.6796 43.6197C16.423 41.285 19.0081 39.5605 22.0856 39.5605C25.1597 39.5605 27.747 41.2849 28.4912 43.6194C28.7087 44.3015 28.2006 44.9994 27.4846 44.9994Z" fill="#13BD79"/>
<path d="M23.3011 38.7991C23.6068 38.7991 23.8975 38.6585 24.0802 38.4133C24.7571 37.5044 25.1888 36.2708 25.1888 35.3191C25.1888 33.6028 23.7969 32.2158 22.0856 32.2158C20.3743 32.2158 18.9824 33.6028 18.9824 35.3191C18.9824 36.2708 19.4141 37.5044 20.091 38.4133C20.2736 38.6585 20.5644 38.7991 20.87 38.7991H23.3011Z" fill="#6D6D6D"/>
<path d="M42.7034 44.9994H31.9051C31.1892 44.9994 30.6811 44.3017 30.8983 43.6197C31.6417 41.285 34.2268 39.5605 37.3043 39.5605C40.3785 39.5605 42.9658 41.2849 43.71 43.6194C43.9275 44.3015 43.4193 44.9994 42.7034 44.9994Z" fill="#E5E3E5"/>
<path d="M38.5199 38.7991C38.8255 38.7991 39.1163 38.6585 39.2989 38.4133C39.9758 37.5044 40.4076 36.2708 40.4076 35.3191C40.4076 33.6028 39.0156 32.2158 37.3043 32.2158C35.5931 32.2158 34.2012 33.6028 34.2012 35.3191C34.2012 36.2708 34.6329 37.5044 35.3097 38.4133C35.4924 38.6585 35.7831 38.7991 36.0888 38.7991H38.5199Z" fill="#6D6D6D"/>
<path d="M40.9369 26.8732V6.84646C40.9369 5.96043 40.2187 5.24219 39.3327 5.24219H4.8406C3.95457 5.24219 3.23633 5.96043 3.23633 6.84646V26.8732C3.23633 27.7592 3.95457 28.4775 4.8406 28.4775H39.3327C40.2187 28.4775 40.9369 27.7592 40.9369 26.8732Z" fill="#6D6D6D"/>
<path d="M4.83984 6.84668H39.3319V26.8733H4.83984V6.84668Z" fill="#66D5F2"/>
<g opacity="0.08">
<path d="M36.3203 6.84668H39.3323V26.8721H36.3203V6.84668Z" fill="black"/>
</g>
<path d="M25.3407 17.0316L24.5675 16.6751V14.2168H19.6046V16.6751L18.8281 17.0101L19.0348 23.9814H19.6046V25.0504H24.5675V23.9814H25.1339L25.3407 17.0316Z" fill="#F2B816"/>
<path d="M28.3891 26.8734C28.3776 23.4516 27.9777 19.0047 26.111 17.458C25.8968 17.2808 25.6654 17.1429 25.4119 17.0469L25.311 17.421C25.2815 17.517 25.2421 17.6303 25.1954 17.7509C24.9221 18.45 24.3436 19.484 23.2186 19.9295C23.1989 19.9394 23.1768 19.9467 23.1546 19.9566C22.8248 20.0773 22.4506 20.1486 22.0247 20.1486C21.6358 20.1486 21.2936 20.0896 20.9908 19.9862C20.9883 19.9862 20.9859 19.9837 20.9834 19.9813C19.8904 19.6095 19.3168 18.6765 19.0288 17.9627C18.9968 17.8864 18.9697 17.8125 18.9451 17.7411L18.7605 17.047C18.5069 17.1429 18.2755 17.2808 18.0613 17.4581C16.1814 19.0021 15.7137 23.4507 15.6484 26.8735H28.3891V26.8734Z" fill="white"/>
<path d="M23.2785 19.9228L22.8157 20.9393H21.3682L20.8906 19.9228L22.0846 18.832L23.2785 19.9228Z" fill="#EA4E4E"/>
<path d="M19.5764 16.5146L22.0851 18.8325L20.5581 20.4413L17.9512 17.3218L19.5764 16.5146Z" fill="#E5E3E5"/>
<path d="M26.2199 17.3273L23.6129 20.4359L22.0859 18.8325L23.9784 17.0818L24.5947 16.5146C24.5947 16.5146 26.2199 17.3218 26.2199 17.3273Z" fill="#E5E3E5"/>
<path d="M22.997 26.873L22.9907 26.667L22.8159 20.9385H21.3684L21.1888 26.7064L21.1836 26.873H22.997Z" fill="#EA4E4E"/>
<path d="M34.3808 26.8733V24.0516C34.3808 21.9946 33.1677 20.1349 31.2861 19.3038C29.5661 18.5441 27.3814 17.6125 25.4102 16.8721L25.4004 16.9164L25.1936 17.7509L24.9129 18.8857L22.9903 26.6672L22.9395 26.8732H34.3808V26.8733Z" fill="#6D6D6D"/>
<g opacity="0.08">
<path d="M34.3837 24.0521V26.8717H32.3331V24.0521C32.3331 21.9961 31.1224 20.1364 29.2408 19.3019C28.052 18.7784 26.6395 18.173 25.2324 17.6004L25.4015 16.9187L25.4124 16.875C27.3813 17.6113 29.5682 18.5439 31.2861 19.3019C33.1675 20.1364 34.3837 21.9961 34.3837 24.0521Z" fill="black"/>
</g>
<path d="M21.2305 26.8733L21.1894 26.7067L19.2569 18.8857L19.0279 17.9626L18.7695 16.9164L18.7596 16.8721C16.7884 17.6125 14.6037 18.5442 12.8838 19.3038C11.0021 20.1349 9.78906 21.9946 9.78906 24.0516V26.8733H21.2305Z" fill="#6D6D6D"/>
<path d="M24.0738 26.8737L26.69 22.2455C26.7954 22.059 26.7819 21.828 26.6554 21.6551L26.2459 21.0953C26.0751 20.8618 26.1162 20.5358 26.3395 20.3521L26.9357 19.8617C27.0566 19.7622 27.129 19.6156 27.1342 19.4591L27.1949 17.6795C27.2021 17.4686 27.087 17.2725 26.8993 17.176L25.7525 16.5861C25.433 16.4218 25.0446 16.606 24.9697 16.9574L22.8555 26.8738H24.0738V26.8737Z" fill="#5B5B5B"/>
<path d="M17.2361 19.8618L17.8322 20.3522C18.0556 20.5359 18.0967 20.8619 17.9259 21.0954L17.5164 21.6552C17.3899 21.828 17.3763 22.059 17.4817 22.2456L20.098 26.8738H21.3163L19.2021 16.9574C19.1271 16.6059 18.7387 16.4218 18.4193 16.5862L17.2725 17.176C17.0848 17.2725 16.9697 17.4686 16.9769 17.6795L17.0375 19.4591C17.0429 19.6157 17.1152 19.7624 17.2361 19.8618Z" fill="#5B5B5B"/>
<path d="M28.26 5.7746L28.1182 8.40156H16.1418L16 5.82311C16 2.38765 18.8632 0.000976562 22.13 0.000976562C25.3967 0.000976562 28.26 2.38765 28.26 5.7746Z" fill="#6D6D6D"/>
<g opacity="0.08">
<path d="M28.2591 5.77653L28.1173 8.3998H26.5958L26.7375 5.77653C26.7375 2.65703 24.3107 0.382773 21.3711 0.0446582C21.6165 0.0174121 21.8729 0.000976562 22.1292 0.000976562C25.3959 0.00106445 28.2591 2.38976 28.2591 5.77653Z" fill="black"/>
</g>
<path d="M27.5445 7.89727L27.51 7.83057C27.0388 6.91835 26.0258 6.47116 25.0127 6.63771C22.3636 7.07321 21.9827 3.92725 18.3364 5.69737C17.9045 5.90708 17.5583 6.26251 17.3377 6.68913L16.714 7.89516C16.5542 7.93366 16.4101 8.00696 16.2897 8.11006C16.0664 8.30034 15.9258 8.58159 15.9258 8.89791V9.97316C15.9258 10.5417 16.3836 11.0029 16.9533 11.0065C16.9533 13.7032 20.1935 16.2595 22.1294 16.2595C24.0652 16.2595 27.3054 13.7036 27.3054 11.0068C27.873 11.0028 28.3321 10.5422 28.3321 9.9736V8.89835C28.3319 8.41275 27.9959 8.00828 27.5445 7.89727Z" fill="#FFCE29"/>
<path d="M26.4509 14.4567H22.6035V13.978H26.4509C27.2216 13.978 27.8487 13.3509 27.8487 12.58V9.33008H28.3275V12.58C28.3274 13.6147 27.4858 14.4567 26.4509 14.4567Z" fill="#F2F0F0"/>
<path d="M28.8879 8.80239V9.85699C28.8879 10.5359 28.3375 11.0862 27.6586 11.0862C27.4545 11.0862 27.2891 10.9207 27.2891 10.7167V7.94282C27.2891 7.73865 27.4546 7.57324 27.6586 7.57324C28.3375 7.57324 28.8879 8.12353 28.8879 8.80239Z" fill="#5B5B5B"/>
<path d="M23.8552 14.2133C23.8552 14.733 23.2574 15.1576 22.5213 15.1576C21.7853 15.1576 21.1875 14.733 21.1875 14.2133C21.1875 13.6937 21.7852 13.2754 22.5213 13.2754C23.2574 13.2754 23.8552 13.6937 23.8552 14.2133Z" fill="#5B5B5B"/>
<path d="M37.451 0.00200372C33.523 0.0145721 30.3446 2.36538 30.3539 5.25145C30.3584 6.66473 31.1264 7.94336 32.3683 8.88036C32.0047 9.71796 31.4056 10.4997 30.5343 11.111C30.1243 11.3987 30.2952 12.0334 30.7949 12.0653C32.6882 12.1859 34.6695 11.6366 36.2839 10.3863C36.6745 10.4338 37.0752 10.4594 37.4845 10.4581C41.4162 10.4455 44.5945 8.09462 44.5852 5.20601C44.576 2.31994 41.3827 -0.0105646 37.451 0.00200372Z" fill="#F96464"/>
<g opacity="0.08">
<path d="M44.5846 5.2052C44.5957 8.0939 41.4171 10.445 37.4844 10.4583C37.2301 10.4583 36.9781 10.4494 36.7305 10.4315C40.3262 10.1571 43.1302 7.91759 43.1213 5.20511C43.1124 2.50599 40.3218 0.295449 36.7483 0.0278225C36.9803 0.012178 37.2145 0.00101589 37.451 0.00101589C41.3836 -0.0100583 44.5756 2.31878 44.5846 5.2052Z" fill="black"/>
</g>
<path d="M42.0363 3.58654C42.0363 3.75731 41.8979 3.89574 41.7271 3.89574H33.2135C33.0427 3.89574 32.9043 3.75731 32.9043 3.58654C32.9043 3.41577 33.0427 3.27734 33.2135 3.27734H41.7271C41.8979 3.27734 42.0363 3.41577 42.0363 3.58654Z" fill="#F2F0F0"/>
<path d="M42.0363 5.22912C42.0363 5.39989 41.8979 5.53832 41.7271 5.53832H33.2135C33.0427 5.53832 32.9043 5.39989 32.9043 5.22912C32.9043 5.05835 33.0427 4.91992 33.2135 4.91992H41.7271C41.8979 4.92001 42.0363 5.05835 42.0363 5.22912Z" fill="#F2F0F0"/>
<path d="M39.6092 6.87268C39.6092 7.04345 39.4708 7.18187 39.3 7.18187H33.2135C33.0427 7.18187 32.9043 7.04345 32.9043 6.87268C32.9043 6.7019 33.0427 6.56348 33.2135 6.56348H39.3C39.4708 6.56348 39.6092 6.7019 39.6092 6.87268Z" fill="#F2F0F0"/>
</g>
<defs>
<clipPath id="clip0_9169_8298">
<rect width="45" height="45" fill="white"/>
</clipPath>
</defs>
</svg>
