<svg width="41" height="41" viewBox="0 0 41 41" fill="none" xmlns="http://www.w3.org/2000/svg">
<path d="M2.72819 31.1378L1.55469 29.9545L17.2981 14.3389L24.0242 19.0215L32.9536 12.2344L33.9619 13.5609L24.0673 21.082L17.4861 16.5003L2.72819 31.1378Z" fill="#F26678"/>
<path d="M0.5 35.8369H13.8331V40.3988H0.5V35.8369Z" fill="#BBCCFF"/>
<path d="M13.832 32.8721H27.1652V40.3983H13.832V32.8721Z" fill="#AABFF2"/>
<path d="M27.168 29.7539H40.5011V40.3983H27.168V29.7539Z" fill="#99B1E0"/>
<path d="M15.1797 10.5297L15.248 10.5494C15.8568 10.7242 16.4944 10.7752 17.1233 10.6994C17.1233 10.6994 19.7923 10.6723 20.5682 10.2843C21.8034 9.66655 23.9071 6.42908 23.9071 6.42908L22.2699 5.25293C22.2699 5.25293 20.4305 7.42333 19.5716 7.75097C18.7355 8.06993 15.8513 7.49771 15.8513 7.49771L15.1797 10.5297Z" fill="#FDDF8C"/>
<path d="M16.2295 17.7359C16.2295 17.7359 16.7283 23.1087 15.9404 24.839C14.951 27.0118 9.32009 32.1618 9.32009 32.1618L7.27148 30.6807C7.27148 30.6807 11.2041 24.8965 11.7878 22.6736C12.1097 21.4479 11.7878 17.6045 11.7878 17.6045" fill="#382F93"/>
<path d="M14.7932 3.00355C14.7932 3.12441 14.7829 3.24871 14.7656 3.37646C14.7 3.7977 14.5308 4.24313 14.2926 4.60222C14.0785 4.93025 13.8092 5.18575 13.5019 5.2997C13.3948 5.33768 13.2844 5.3584 13.1704 5.3584C12.2554 5.3584 11.4785 4.00143 11.4785 3.00355C11.4785 2.4511 11.7064 1.95735 12.069 1.62932L12.1069 1.59135C12.1967 1.51192 12.2934 1.44288 12.4004 1.39107C12.6007 1.27712 12.8286 1.21152 13.0703 1.20463C13.091 1.20117 13.1152 1.20117 13.1359 1.20117C14.0509 1.20117 14.7932 2.00913 14.7932 3.00355Z" fill="#34324C"/>
<g opacity="0.15">
<path d="M15.4873 3.36322C15.1109 3.79826 14.7138 4.21606 14.2926 4.60278C14.0371 4.84794 13.7747 5.07928 13.5019 5.30026C13.3948 5.33824 13.2844 5.35896 13.1704 5.35896C12.2554 5.35896 11.4785 4.00199 11.4785 3.00411C11.4785 2.45166 11.7064 1.95791 12.069 1.62988C11.8203 1.88539 11.6546 2.22722 11.6546 2.56905C11.6546 3.24927 12.359 4.22298 13.0392 4.22298C13.4915 4.22298 13.8679 3.73957 14.0682 3.21473C14.2926 3.30105 14.5274 3.35285 14.7656 3.37702C15.0039 3.40465 15.249 3.4012 15.4873 3.36322Z" fill="black"/>
</g>
<path d="M17.568 9.52596V17.7361H11.625V7.98053C11.625 7.69842 11.8537 7.46973 12.1358 7.46973H15.5118C16.6474 7.46973 17.568 8.39033 17.568 9.52596Z" fill="#FDDF8C"/>
<path d="M13.1719 4.55469H15.4681V7.46906H13.1719V4.55469Z" fill="#FDC7B4"/>
<path d="M15.468 4.55371V6.69448C15.468 6.69448 14.4529 7.21932 13.1719 7.02251V4.55371H15.468Z" fill="#EFB5A3"/>
<path d="M15.1807 6.71485C14.0713 6.71485 13.1719 5.81547 13.1719 4.70603V3.32425C13.1719 2.21481 14.0713 1.31543 15.1807 1.31543C16.2901 1.31543 17.1895 2.21481 17.1895 3.32425V4.70603C17.1895 5.81547 16.2901 6.71485 15.1807 6.71485Z" fill="#FDC7B4"/>
<path d="M14.2301 2.43384C14.2301 2.66518 14.1714 2.94486 14.0678 3.21417C13.8676 3.73901 13.4912 4.22242 13.0389 4.22242C12.3587 4.22242 11.6543 3.24871 11.6543 2.56849C11.6543 2.22666 11.82 1.88483 12.0686 1.62932L12.1066 1.59135C12.1929 1.50846 12.2896 1.43251 12.3967 1.37381C12.5797 1.26678 12.7868 1.20117 12.994 1.20117C13.0182 1.20117 13.0458 1.20117 13.07 1.20463C13.7191 1.2426 14.2301 1.77779 14.2301 2.43384Z" fill="#34324C"/>
<path d="M17.9657 1.5781C17.9657 1.84986 17.857 2.09454 17.6803 2.27116C17.5037 2.44777 17.2591 2.55645 16.9873 2.55645H12.2852V1.98308C12.2852 1.22222 12.902 0.602539 13.6657 0.602539H16.9873C17.5281 0.602539 17.9657 1.04003 17.9657 1.5781Z" fill="#34324C"/>
<path d="M15.084 4.11523C15.1875 4.11523 15.2715 4.03129 15.2715 3.92773C15.2715 3.82418 15.1875 3.74023 15.084 3.74023C14.9804 3.74023 14.8965 3.82418 14.8965 3.92773C14.8965 4.03129 14.9804 4.11523 15.084 4.11523Z" fill="#313131"/>
<path d="M16.418 4.11523C16.5215 4.11523 16.6055 4.03129 16.6055 3.92773C16.6055 3.82418 16.5215 3.74023 16.418 3.74023C16.3144 3.74023 16.2305 3.82418 16.2305 3.92773C16.2305 4.03129 16.3144 4.11523 16.418 4.11523Z" fill="#313131"/>
<path d="M15.0326 5.12207C15.0321 5.13314 15.0293 5.14354 15.0293 5.15472C15.0293 5.57546 15.3704 5.91653 15.7911 5.91653C16.2118 5.91653 16.5529 5.57546 16.5529 5.15472C16.5529 5.14354 16.5501 5.13314 16.5496 5.12207H15.0326Z" fill="white"/>
<g opacity="0.15">
<path d="M14.0678 3.21438C13.8676 3.73922 13.4912 4.22263 13.0389 4.22263C12.3587 4.22263 11.6543 3.24892 11.6543 2.5687C11.6543 2.22687 11.82 1.88504 12.0686 1.62953L12.1066 1.59155C12.1929 1.50867 12.2896 1.43272 12.3967 1.37402C12.3967 1.38091 12.3967 1.38437 12.4001 1.39128C12.4657 1.77109 12.6729 2.11637 12.9215 2.40988C13.0872 2.60324 13.2771 2.77588 13.4912 2.92089C13.6707 3.04174 13.8641 3.14188 14.0678 3.21438Z" fill="black"/>
</g>
<path d="M12.5397 7.46982L12.4687 7.46973C11.8353 7.46896 11.2082 7.59516 10.6244 7.84086C10.6244 7.84086 8.06557 8.60056 7.42625 9.18687C6.40836 10.1204 4.85156 14.0747 4.85156 14.0747L7.32427 14.7143C7.32427 14.7143 8.34497 11.8998 9.08074 11.3487C9.36168 11.1383 10.1923 10.9133 11.0981 10.7175C12.5515 10.4034 13.2764 8.76146 12.5397 7.46982Z" fill="#FDDF8C"/>
<path d="M11.6951 10.6724L11.5547 10.3928C12.4312 9.95215 12.8749 8.90967 12.5868 7.96851L12.8859 7.87695C13.2179 8.96216 12.7058 10.1639 11.6951 10.6724Z" fill="#F2CF77"/>
<path d="M22.7208 29.1573L20.0383 29.2967C20.0383 29.2967 19.3372 24.7595 18.4011 23.6121C18.1933 23.3566 16.9639 22.901 15.624 22.4268C13.606 21.7127 12.1036 20.0006 11.6609 17.9063L11.625 17.7363H17.567C17.567 17.7363 21.2653 20.5927 22.1177 21.9988C23.0897 23.6002 22.7208 29.1573 22.7208 29.1573Z" fill="#4B39A8"/>
<path d="M25.1752 31.3458C24.9379 30.0647 23.7979 29.1144 22.456 29.1587L20.0273 29.2389L20.0969 31.3458H25.1752Z" fill="#34324C"/>
<path d="M10.0615 35.5047C10.6585 34.3467 10.3393 32.8972 9.25127 32.1105L7.28218 30.6865L6.04688 32.3947L10.0615 35.5047Z" fill="#34324C"/>
<path d="M17.4102 9.2998H17.7227V10.6304H17.4102V9.2998Z" fill="#F2CF77"/>
<path d="M7.32329 14.714L7.1051 16.0268C7.07385 16.2149 6.88913 16.3365 6.70405 16.2909C6.53272 16.2487 6.42572 16.0782 6.46221 15.9055L6.74418 14.5713L7.32329 14.714Z" fill="#FDC7B4"/>
<path d="M4.25115 16.4008L4.38009 15.8816C4.41618 15.7362 4.56382 15.6474 4.70916 15.6834L7.62663 16.408C7.77198 16.4441 7.86088 16.5917 7.82478 16.737L7.69584 17.2562L8.22238 17.387L8.35132 16.8678C8.45952 16.4321 8.19309 15.9896 7.75739 15.8814L4.83992 15.1569C4.40423 15.0487 3.96175 15.3151 3.85355 15.7508L3.72461 16.27L4.25115 16.4008Z" fill="#894E57"/>
<path d="M9.10359 19.0151L8.1396 22.8969C8.06054 23.2152 7.74058 23.4079 7.42221 23.3288L1.31091 21.8112C0.994533 21.7326 0.799881 21.4121 0.878944 21.0938L1.84293 17.212C1.922 16.8936 2.19879 16.8833 2.51518 16.9618L8.62647 18.4795C8.94484 18.5585 9.18266 18.6967 9.10359 19.0151Z" fill="#894E57"/>
<g opacity="0.06">
<path d="M9.17031 18.7468L8.48918 21.4896C8.35668 21.5609 8.19709 21.5871 8.0369 21.5473L1.59922 19.9486C1.43903 19.9089 1.31227 19.8115 1.22852 19.6865L1.90965 16.9437C1.98872 16.6253 2.31067 16.4331 2.62705 16.5117L8.73835 18.0294C9.05672 18.1084 9.24938 18.4284 9.17031 18.7468Z" fill="black"/>
</g>
<path d="M9.52755 18.1419L8.84011 20.9101C8.75681 21.2455 8.4197 21.4485 8.08427 21.3652L1.64555 19.7663C1.31221 19.6835 1.10713 19.3459 1.19044 19.0104L1.87788 16.2422C1.96118 15.9067 2.30039 15.7043 2.63372 15.7871L9.07245 17.386C9.40788 17.4693 9.61086 17.8064 9.52755 18.1419Z" fill="#A06167"/>
<path d="M5.82151 20.0592L5.56086 21.1088C5.54311 21.1803 5.46881 21.223 5.3973 21.2053L4.08936 20.8805C4.01785 20.8627 3.9745 20.7907 3.99226 20.7192L4.25291 19.6696C4.27066 19.5981 4.34322 19.5525 4.41473 19.5702L5.72267 19.8951C5.79418 19.9128 5.83927 19.9877 5.82151 20.0592Z" fill="#D7E9F9"/>
<path d="M5.43386 20.1995L5.28442 20.8013C5.27424 20.8423 5.23165 20.8668 5.19065 20.8566L4.44076 20.6704C4.39977 20.6602 4.37491 20.6189 4.38509 20.5779L4.53453 19.9762C4.54471 19.9352 4.58631 19.909 4.62731 19.9192L5.37719 20.1054C5.41819 20.1156 5.44404 20.1585 5.43386 20.1995Z" fill="white"/>
<path d="M5.46264 16.1086C4.89303 15.9682 4.54504 15.3927 4.68539 14.8231L4.86173 14.1074L6.9245 14.6157L6.74816 15.3313C6.6078 15.901 6.03226 16.249 5.46264 16.1086Z" fill="#FDC7B4"/>
<path d="M25.2695 4.78906C25.2695 5.06413 25.1237 5.34326 24.8154 5.54325L23.9072 6.42971L22.2695 5.25171L22.2904 4.07658C22.282 3.92664 22.3737 3.7891 22.5112 3.73499C22.5529 3.7183 22.5987 3.70996 22.6404 3.70996C22.8195 3.70996 22.982 3.84749 22.9904 4.03914L23.0279 4.70585L23.6945 4.12235C24.0945 3.77669 24.7029 3.8182 25.0487 4.21818C25.1904 4.38501 25.2695 4.585 25.2695 4.78906Z" fill="#FDC7B4"/>
<path d="M33.7879 16.7717L32.1367 16.5455L32.5245 13.7167L29.6953 13.3289L29.9216 11.6777L34.4019 12.2917L33.7879 16.7717Z" fill="#F26678"/>
</svg>
