<svg width="22" height="23" viewBox="0 0 22 23" fill="none" xmlns="http://www.w3.org/2000/svg">
<g id="debt 1" clip-path="url(#clip0_7117_3657)">
<path id="Vector" d="M21.9527 17.2686L20.7757 9.01858C20.4549 6.7755 18.5042 5.08333 16.2382 5.08333H13.886C14.0868 4.66533 14.2078 4.20242 14.2078 3.70833C14.2078 1.93917 12.7686 0.5 10.9995 0.5C9.23029 0.5 7.79113 1.93917 7.79113 3.70833C7.79113 4.20242 7.91304 4.66533 8.11288 5.08333H5.82946C3.54421 5.08333 1.63846 6.72325 1.29746 8.98283L0.0517111 17.2328C-0.148122 18.5538 0.236878 19.8921 1.10863 20.9059C1.98038 21.9188 3.24721 22.5 4.58371 22.5H17.4152C18.7444 22.5 20.0066 21.9243 20.8775 20.9197C21.7483 19.9159 22.1397 18.5849 21.9527 17.2686ZM9.62446 3.70833C9.62446 2.95025 10.2414 2.33333 10.9995 2.33333C11.7575 2.33333 12.3745 2.95025 12.3745 3.70833C12.3745 4.46642 11.7575 5.08333 10.9995 5.08333C10.2414 5.08333 9.62446 4.46642 9.62446 3.70833ZM19.4933 19.7188C18.9708 20.3211 18.2136 20.6667 17.4152 20.6667H4.58371C3.78163 20.6667 3.02171 20.3174 2.49921 19.7097C1.97671 19.1019 1.74479 18.2989 1.86488 17.5069L3.10971 9.25692C3.31413 7.90117 4.45813 6.91667 5.82946 6.91667H16.2382C17.5976 6.91667 18.7691 7.93142 18.9607 9.278L20.1377 17.528C20.2505 18.3173 20.0149 19.1157 19.4933 19.7188ZM10.9995 20.6667C10.4935 20.6667 10.0828 20.2569 10.0828 19.75V18.8333H9.83713C8.85905 18.8333 7.94604 18.3072 7.45563 17.4592C7.20263 17.0202 7.35204 16.4601 7.79021 16.2071C8.22746 15.9523 8.78846 16.1026 9.04238 16.5408C9.20646 16.8249 9.51079 17 9.83713 17H11.9161C12.4221 17 12.8328 16.5893 12.8328 16.0833C12.8328 15.7359 12.5844 15.4435 12.2415 15.3858L9.45488 14.9219C8.22471 14.7166 7.33279 13.6624 7.33279 12.4167C7.33279 10.9005 8.56663 9.66667 10.0828 9.66667V8.75C10.0828 8.24308 10.4935 7.83333 10.9995 7.83333C11.5055 7.83333 11.9161 8.24308 11.9161 8.75V9.66667H12.1618C13.1399 9.66667 14.0529 10.1928 14.5433 11.0407C14.7972 11.4798 14.6469 12.0399 14.2096 12.2929C13.7696 12.5478 13.2086 12.3956 12.9575 11.9593C12.7934 11.6751 12.489 11.5 12.1627 11.5H10.0837C9.57863 11.5 9.16704 11.9107 9.16704 12.4167C9.16704 12.7641 9.41546 13.0565 9.75738 13.1143L12.545 13.5781C13.7751 13.7834 14.667 14.8376 14.667 16.0833C14.667 17.5995 13.4332 18.8333 11.917 18.8333V19.75C11.917 20.2569 11.5064 20.6667 11.0004 20.6667H10.9995Z" fill="#484848"/>
</g>
<defs>
<clipPath id="clip0_7117_3657">
<rect width="22" height="22" fill="white" transform="translate(0 0.5)"/>
</clipPath>
</defs>
</svg>
