<svg width="22" height="23" viewBox="0 0 22 23" fill="none" xmlns="http://www.w3.org/2000/svg">
<g id="government-flag 1" clip-path="url(#clip0_7117_3649)">
<path id="Vector" d="M20.1641 20.6667H19.2474V13.3324C20.2594 13.3287 21.0807 12.5056 21.0807 11.4927C21.0807 10.818 20.7122 10.1983 20.121 9.8775L12.234 5.57558C12.1313 5.51967 12.0204 5.49033 11.9131 5.45V4.515L14.3286 3.01625C14.7823 2.71375 14.7722 2.04458 14.3102 1.75583L12.0534 0.697083C11.8471 0.567833 11.6088 0.5 11.365 0.5C10.6481 0.5 10.0661 1.08117 10.0661 1.79892V5.08333H10.0798V5.45C9.97256 5.49125 9.86165 5.51967 9.75898 5.57558L1.87381 9.8775C1.28165 10.1993 0.914062 10.8171 0.914062 11.4927C0.914062 12.5056 1.73631 13.3287 2.7474 13.3324V20.6667H1.83073C1.32473 20.6667 0.914062 21.0764 0.914062 21.5833C0.914062 22.0903 1.32473 22.5 1.83073 22.5H20.1641C20.671 22.5 21.0807 22.0903 21.0807 21.5833C21.0807 21.0764 20.671 20.6667 20.1641 20.6667ZM10.0807 13.3333V20.6667H8.2474V13.3333H10.0807ZM11.9141 13.3333H13.7474V20.6667H11.9141V13.3333ZM15.5807 13.3333H17.4141V20.6667H15.5807V13.3333ZM2.75106 11.4872L10.6381 7.18525C10.8626 7.0615 11.1312 7.0615 11.3558 7.18525L19.2401 11.5L2.74923 11.4881H2.75106V11.4872ZM4.58073 13.3324H6.41406V20.6658H4.58073V13.3324Z" fill="#484848"/>
</g>
<defs>
<clipPath id="clip0_7117_3649">
<rect width="22" height="22" fill="white" transform="translate(0 0.5)"/>
</clipPath>
</defs>
</svg>
