<svg width="22" height="23" viewBox="0 0 22 23" fill="none" xmlns="http://www.w3.org/2000/svg">
<g id="graduation-cap (1) 1" clip-path="url(#clip0_7117_3637)">
<path id="Vector" d="M20.2194 5.2926L13.4599 2.07235C11.972 1.18358 10.12 1.16781 8.61714 2.0311L1.78159 5.2926C1.75594 5.30545 1.72934 5.3192 1.70459 5.33385C0.0824317 6.26137 -0.480717 8.3283 0.446807 9.95045C0.761209 10.5004 1.22368 10.9509 1.78159 11.2509L3.66719 12.1493V16.6409C3.6683 18.6494 4.9752 20.4239 6.89294 21.0208C8.2275 21.4069 9.61131 21.5959 11.0005 21.5818C12.3895 21.5973 13.7733 21.4099 15.1081 21.0254C17.0259 20.4285 18.3328 18.654 18.3339 16.6455V12.1474L20.1672 11.2711V18.8318C20.1672 19.338 20.5776 19.7484 21.0839 19.7484C21.5901 19.7484 22.0005 19.338 22.0005 18.8318V7.83175C22.0066 6.75534 21.1567 5.76096 20.2194 5.2926ZM16.5005 16.6455C16.501 17.8469 15.7215 18.9096 14.5755 19.2699C13.4134 19.602 12.2091 19.7632 11.0005 19.7484C9.79191 19.7632 8.58762 19.602 7.42549 19.2699C6.27947 18.9095 5.50002 17.8469 5.50049 16.6455V13.0229L8.54109 14.4712C9.29132 14.9167 10.1482 15.1508 11.0207 15.1486C11.8512 15.1545 12.6677 14.9347 13.3829 14.5125L16.5005 13.0228V16.6455ZM19.4338 9.59635L12.5203 12.8963C11.5564 13.4576 10.3615 13.4418 9.41284 12.8551L2.64874 9.6376C1.89477 9.23103 1.61315 8.29023 2.01972 7.5363C2.15722 7.28132 2.36338 7.06996 2.61484 6.9261L9.48524 3.64445C10.4495 3.08439 11.6437 3.10025 12.5927 3.6857L19.3522 6.90595C19.8493 7.18198 20.1604 7.70323 20.1671 8.27179C20.168 8.81036 19.8907 9.31121 19.4338 9.59635Z" fill="#484848"/>
</g>
<defs>
<clipPath id="clip0_7117_3637">
<rect width="22" height="22" fill="white" transform="translate(0 0.5)"/>
</clipPath>
</defs>
</svg>
