<svg width="22" height="23" viewBox="0 0 22 23" fill="none" xmlns="http://www.w3.org/2000/svg">
<g id="industry-alt 1" clip-path="url(#clip0_7117_3653)">
<path id="Vector" d="M21.0558 6.23008C20.4719 5.90558 19.7588 5.92667 19.1308 6.32267L14.6667 9.66758V7.83333C14.6667 7.16692 14.3046 6.55275 13.7225 6.23008C13.1386 5.90558 12.4245 5.92667 11.7975 6.32267L7.33333 9.66758V2.33333C7.84025 2.33333 8.25 1.92267 8.25 1.41667C8.25 0.910667 7.84025 0.5 7.33333 0.5H0.916667C0.40975 0.5 0 0.910667 0 1.41667C0 1.92267 0.40975 2.33333 0.916667 2.33333V17.9167C0.916667 20.4439 2.97275 22.5 5.5 22.5H17.4167C19.9439 22.5 22 20.4439 22 17.9167V7.83333C22 7.16692 21.6379 6.55275 21.0558 6.23008ZM20.1667 17.9167C20.1667 19.4328 18.9328 20.6667 17.4167 20.6667H5.5C3.98383 20.6667 2.75 19.4328 2.75 17.9167V2.33333H5.5V11.4918C5.5 11.4982 5.5 11.5046 5.5 11.5101V17C5.5 17.506 5.90975 17.9167 6.41667 17.9167C6.92358 17.9167 7.33333 17.506 7.33333 17V11.9583L12.8333 7.83333V11.5C12.8333 11.8474 13.0295 12.1646 13.3403 12.3204C13.651 12.4763 14.0213 12.4432 14.3 12.2343L20.1667 7.83425V17.9167ZM12.8333 16.0833V17C12.8333 17.506 12.4227 17.9167 11.9167 17.9167H11C10.494 17.9167 10.0833 17.506 10.0833 17V16.0833C10.0833 15.5773 10.494 15.1667 11 15.1667H11.9167C12.4227 15.1667 12.8333 15.5773 12.8333 16.0833ZM14.6667 17V16.0833C14.6667 15.5773 15.0773 15.1667 15.5833 15.1667H16.5C17.006 15.1667 17.4167 15.5773 17.4167 16.0833V17C17.4167 17.506 17.006 17.9167 16.5 17.9167H15.5833C15.0773 17.9167 14.6667 17.506 14.6667 17Z" fill="#484848"/>
</g>
<defs>
<clipPath id="clip0_7117_3653">
<rect width="22" height="22" fill="white" transform="translate(0 0.5)"/>
</clipPath>
</defs>
</svg>
