<svg width="22" height="23" viewBox="0 0 22 23" fill="none" xmlns="http://www.w3.org/2000/svg">
<g id="stethoscope 1" clip-path="url(#clip0_7117_3641)">
<path id="Vector" d="M22 8.75C22.0021 8.24536 21.8653 7.74987 21.6045 7.3178C21.3438 6.88573 20.9692 6.53373 20.5218 6.30035C20.0743 6.06698 19.5713 5.96122 19.0678 5.99466C18.5642 6.02811 18.0796 6.19946 17.667 6.48996C17.2543 6.78046 16.9296 7.17891 16.7283 7.64167C16.527 8.10443 16.4569 8.61366 16.5257 9.11359C16.5945 9.61352 16.7996 10.0849 17.1184 10.476C17.4372 10.8672 17.8576 11.1631 18.3333 11.3313V15.1667C18.3333 16.6254 17.7539 18.0243 16.7224 19.0558C15.691 20.0872 14.292 20.6667 12.8333 20.6667C11.3746 20.6667 9.9757 20.0872 8.94425 19.0558C7.9128 18.0243 7.33333 16.6254 7.33333 15.1667V15.0933C8.85874 14.872 10.2537 14.1094 11.2634 12.9449C12.2732 11.7803 12.8304 10.2914 12.8333 8.75V5.08333C12.8319 3.8682 12.3485 2.70326 11.4893 1.84403C10.6301 0.984808 9.46513 0.501456 8.25 0.5C8.00688 0.5 7.77373 0.596577 7.60182 0.768485C7.42991 0.940394 7.33333 1.17355 7.33333 1.41667C7.33333 1.65978 7.42991 1.89294 7.60182 2.06485C7.77373 2.23676 8.00688 2.33333 8.25 2.33333C8.97935 2.33333 9.67882 2.62306 10.1945 3.13879C10.7103 3.65451 11 4.35399 11 5.08333V8.75C11 9.96558 10.5171 11.1314 9.65757 11.9909C8.79803 12.8504 7.63224 13.3333 6.41667 13.3333C5.20109 13.3333 4.0353 12.8504 3.17576 11.9909C2.31622 11.1314 1.83333 9.96558 1.83333 8.75V5.08333C1.83333 4.35399 2.12306 3.65451 2.63879 3.13879C3.15451 2.62306 3.85399 2.33333 4.58333 2.33333C4.82645 2.33333 5.05961 2.23676 5.23151 2.06485C5.40342 1.89294 5.5 1.65978 5.5 1.41667C5.5 1.17355 5.40342 0.940394 5.23151 0.768485C5.05961 0.596577 4.82645 0.5 4.58333 0.5C3.3682 0.501456 2.20326 0.984808 1.34403 1.84403C0.484808 2.70326 0.00145554 3.8682 0 5.08333L0 8.75C0.00294796 10.2914 0.560167 11.7803 1.56992 12.9449C2.57967 14.1094 3.97459 14.872 5.5 15.0933V15.1667C5.5 17.1116 6.27262 18.9769 7.64788 20.3521C9.02315 21.7274 10.8884 22.5 12.8333 22.5C14.7783 22.5 16.6435 21.7274 18.0188 20.3521C19.3941 18.9769 20.1667 17.1116 20.1667 15.1667V11.3313C20.701 11.1424 21.1639 10.793 21.4921 10.331C21.8203 9.86891 21.9977 9.31674 22 8.75Z" fill="#484848"/>
</g>
<defs>
<clipPath id="clip0_7117_3641">
<rect width="22" height="22" fill="white" transform="translate(0 0.5)"/>
</clipPath>
</defs>
</svg>
