<svg width="46" height="45" viewBox="0 0 46 45" fill="none" xmlns="http://www.w3.org/2000/svg">
<g clip-path="url(#clip0_17823_1229)">
<path d="M0.494141 21.8353L4.51695 17.8125V21.8353H0.494141Z" fill="#772A2E"/>
<path d="M45.4935 21.8353L41.4707 17.8125V21.8353H45.4935Z" fill="#772A2E"/>
<path d="M32.3691 0H6.62164C5.3082 0 4.24414 1.04906 4.24414 2.34375V42.6562C4.24414 43.9509 5.3082 45 6.62164 45H39.3666C40.6801 45 41.7441 43.9509 41.7441 42.6562V9.375L32.3691 0Z" fill="#EC5E63"/>
<path d="M32.3691 0L41.7441 9.375H32.3691V0Z" fill="#FFD9DA"/>
<path d="M0.494141 21.834H45.4941V38.709H0.494141V21.834Z" fill="#B74146"/>
<path d="M41.7441 9.375V18.75L32.3691 9.375H41.7441Z" fill="#D33F44"/>
<path d="M20.1329 9.06445H8.93164C8.41387 9.06445 7.99414 9.48419 7.99414 10.002C7.99414 10.5197 8.41387 10.9395 8.93164 10.9395H20.1329C20.6507 10.9395 21.0704 10.5197 21.0704 10.002C21.0704 9.48419 20.6507 9.06445 20.1329 9.06445Z" fill="#FFD9DA"/>
<path d="M28.6191 12.6367H8.93164C8.41387 12.6367 7.99414 13.0565 7.99414 13.5742C7.99414 14.092 8.41387 14.5117 8.93164 14.5117H28.6191C29.1369 14.5117 29.5566 14.092 29.5566 13.5742C29.5566 13.0565 29.1369 12.6367 28.6191 12.6367Z" fill="#FFD9DA"/>
<path d="M28.6191 16.209H8.93164C8.41387 16.209 7.99414 16.6287 7.99414 17.1465C7.99414 17.6643 8.41387 18.084 8.93164 18.084H28.6191C29.1369 18.084 29.5566 17.6643 29.5566 17.1465C29.5566 16.6287 29.1369 16.209 28.6191 16.209Z" fill="#FFD9DA"/>
<path d="M9.50727 30.7976H6.86352V32.4645H9.98633V33.7582H5.18164V26.7832H9.9957V28.0816H6.86258V29.5526H9.50633V30.7976H9.50727Z" fill="white"/>
<path d="M13.7502 31.3739H10.8711V30.1289H13.7502V31.3739Z" fill="white"/>
<path d="M15.084 33.7582V26.7832H17.589C18.4862 26.7832 19.1687 26.9473 19.6365 27.2763C20.1043 27.6054 20.3387 28.0826 20.3387 28.7088C20.3387 29.0698 20.2552 29.3782 20.0893 29.6332C19.9234 29.8891 19.6787 30.0776 19.3562 30.1985C19.7199 30.2941 19.9993 30.4732 20.1943 30.7348C20.3893 30.9963 20.4868 31.316 20.4868 31.6929C20.4868 32.3763 20.2702 32.8901 19.838 33.2332C19.4049 33.5763 18.7646 33.7516 17.9152 33.7573H15.084V33.7582ZM16.7649 29.6913H17.6415C18.009 29.6885 18.2705 29.621 18.4271 29.4898C18.5837 29.3585 18.6615 29.1645 18.6615 28.9085C18.6615 28.6141 18.5771 28.4013 18.4074 28.272C18.2377 28.1426 17.9649 28.077 17.588 28.077H16.764V29.6913H16.7649ZM16.7649 30.7929V32.4645H17.8665C18.1702 32.4645 18.4027 32.3951 18.5659 32.2563C18.729 32.1176 18.8105 31.9216 18.8105 31.6695C18.8105 31.0882 18.5218 30.7957 17.9434 30.7929H16.7649Z" fill="white"/>
<path d="M27.316 30.415C27.316 31.0956 27.1895 31.6975 26.9373 32.2206C26.6851 32.7447 26.327 33.1478 25.862 33.43C25.397 33.7122 24.8682 33.8538 24.2738 33.8538C23.6795 33.8538 23.1526 33.7169 22.6932 33.4441C22.2338 33.1713 21.8748 32.7803 21.6179 32.2731C21.361 31.765 21.226 31.1828 21.2129 30.5247V30.1319C21.2129 29.4484 21.3385 28.8456 21.5888 28.3234C21.8391 27.8013 22.1991 27.3981 22.667 27.1141C23.1348 26.83 23.6673 26.6875 24.2645 26.6875C24.8616 26.6875 25.382 26.8281 25.8451 27.1094C26.3082 27.3906 26.6682 27.79 26.9251 28.3094C27.182 28.8288 27.3123 29.4231 27.3151 30.0934V30.4141L27.316 30.415ZM25.606 30.1225C25.606 29.4297 25.4898 28.9038 25.2591 28.5438C25.0276 28.1847 24.6966 28.0047 24.2654 28.0047C23.4226 28.0047 22.9773 28.6366 22.9285 29.9012L22.9238 30.4141C22.9238 31.0975 23.0373 31.6225 23.2641 31.99C23.491 32.3575 23.8276 32.5413 24.2748 32.5413C24.722 32.5413 25.0266 32.3613 25.2563 32.0003C25.486 31.6394 25.6032 31.1209 25.606 30.4431V30.1225Z" fill="white"/>
<path d="M34.0895 30.415C34.0895 31.0956 33.9629 31.6975 33.7107 32.2206C33.4585 32.7447 33.1004 33.1478 32.6354 33.43C32.1704 33.7122 31.6416 33.8538 31.0473 33.8538C30.4529 33.8538 29.926 33.7169 29.4666 33.4441C29.0073 33.1713 28.6482 32.7803 28.3913 32.2731C28.1345 31.765 27.9995 31.1828 27.9863 30.5247V30.1319C27.9863 29.4484 28.112 28.8456 28.3623 28.3234C28.6126 27.8013 28.9726 27.3981 29.4404 27.1141C29.9082 26.83 30.4407 26.6875 31.0379 26.6875C31.6351 26.6875 32.1554 26.8281 32.6185 27.1094C33.0816 27.3906 33.4416 27.79 33.6985 28.3094C33.9554 28.8288 34.0857 29.4231 34.0885 30.0934V30.4141L34.0895 30.415ZM32.3795 30.1225C32.3795 29.4297 32.2632 28.9038 32.0326 28.5438C31.801 28.1847 31.4701 28.0047 31.0388 28.0047C30.196 28.0047 29.7507 28.6366 29.702 29.9012L29.6973 30.4141C29.6973 31.0975 29.8107 31.6225 30.0376 31.99C30.2645 32.3575 30.601 32.5413 31.0482 32.5413C31.4954 32.5413 31.8001 32.3613 32.0298 32.0003C32.2595 31.6394 32.3766 31.1209 32.3795 30.4431V30.1225Z" fill="white"/>
<path d="M37.328 31.1623L36.638 31.9188V33.7582H34.957V26.7832H36.638V29.8582L37.222 28.9723L38.7258 26.7832H40.8052L38.4483 29.8685L40.8052 33.7582H38.812L37.327 31.1623H37.328Z" fill="white"/>
</g>
<defs>
<clipPath id="clip0_17823_1229">
<rect width="45" height="45" fill="white" transform="translate(0.494141)"/>
</clipPath>
</defs>
</svg>
