<?xml version="1.0" encoding="UTF-8"?>
<svg id="Layer_1" xmlns="http://www.w3.org/2000/svg" version="1.1" xmlns:xlink="http://www.w3.org/1999/xlink" viewBox="0 0 46 45">
  <!-- Generator: Adobe Illustrator 29.2.1, SVG Export Plug-In . SVG Version: 2.1.0 Build 116)  -->
  <defs>
    <style>
      .st0 {
        fill: #b74146;
      }

      .st1 {
        fill: #fff;
      }

      .st2 {
        fill: none;
      }

      .st3 {
        fill: #ec5e63;
      }

      .st4 {
        fill: #ffd9da;
      }

      .st5 {
        fill: #d33f44;
      }

      .st6 {
        fill: #772a2e;
      }

      .st7 {
        clip-path: url(#clippath);
      }
    </style>
    <clipPath id="clippath">
      <rect class="st2" x=".5" width="45" height="45"/>
    </clipPath>
  </defs>
  <g class="st7">
    <g>
      <path class="st6" d="M.5,21.8l4-4v4H.5Z"/>
      <path class="st6" d="M45.5,21.8l-4-4v4h4Z"/>
      <path class="st3" d="M32.4,0H6.6c-1.3,0-2.4,1-2.4,2.3v40.3c0,1.3,1.1,2.3,2.4,2.3h32.7c1.3,0,2.4-1,2.4-2.3V9.4L32.4,0Z"/>
      <path class="st4" d="M32.4,0l9.4,9.4h-9.4V0Z"/>
      <path class="st0" d="M.5,21.8h45v16.9H.5v-16.9Z"/>
      <path class="st5" d="M41.7,9.4v9.4l-9.4-9.4h9.4Z"/>
      <path class="st4" d="M20.1,9.1h-11.2c-.5,0-.9.4-.9.9s.4.9.9.9h11.2c.5,0,.9-.4.9-.9s-.4-.9-.9-.9Z"/>
      <path class="st4" d="M28.6,12.6H8.9c-.5,0-.9.4-.9.9s.4.9.9.9h19.7c.5,0,.9-.4.9-.9s-.4-.9-.9-.9Z"/>
      <path class="st4" d="M28.6,16.2H8.9c-.5,0-.9.4-.9.9s.4.9.9.9h19.7c.5,0,.9-.4.9-.9s-.4-.9-.9-.9Z"/>
      <g>
        <path class="st1" d="M7.3,30.8h-3v2h3.5v1.2H2.8v-7.5h5v1.3h-3.5v1.8h3v1.2Z"/>
        <path class="st1" d="M11.1,31.4h-2.9v-1.2h2.9v1.2Z"/>
        <path class="st1" d="M18.1,34h-1.6l-3-5v5h-1.6v-7.5h1.6l3,5v-5h1.5v7.5Z"/>
        <path class="st1" d="M25.3,30.4c0,.7-.1,1.4-.4,2s-.6,1-1.1,1.3c-.5.3-1,.5-1.7.5s-1.2-.2-1.7-.5-.9-.7-1.1-1.3-.4-1.2-.4-1.9v-.4c0-.7.1-1.4.4-2s.6-1,1.1-1.3,1-.5,1.7-.5,1.2.2,1.7.5c.5.3.9.7,1.1,1.3s.4,1.2.4,2v.3ZM23.8,30.1c0-.8-.1-1.4-.4-1.8s-.7-.6-1.2-.6-.9.2-1.2.6-.4,1-.4,1.8v.4c0,.8.1,1.4.4,1.8s.7.6,1.2.6.9-.2,1.2-.6.4-1,.4-1.8v-.4Z"/>
        <path class="st1" d="M31.4,27.8h-2.3v6.3h-1.6v-6.3h-2.3v-1.3h6.1v1.3Z"/>
        <path class="st1" d="M36.6,30.8h-3v2h3.5v1.2h-5v-7.5h5v1.3h-3.5v1.8h3v1.2Z"/>
        <path class="st1" d="M41.7,32.1c0-.3-.1-.5-.3-.7s-.6-.3-1.1-.5-1-.3-1.3-.5c-.9-.5-1.3-1.1-1.3-1.9s.1-.8.3-1.1.6-.6,1-.7.9-.3,1.4-.3,1,0,1.4.3.7.5,1,.8.3.8.3,1.2h-1.6c0-.3-.1-.6-.3-.8s-.5-.3-.9-.3-.7,0-.9.2-.3.4-.3.6.1.5.4.6.6.3,1.1.5c.9.3,1.5.6,1.9,1s.6.9.6,1.5-.2,1.2-.7,1.5-1.2.6-2,.6-1.1-.1-1.6-.3-.8-.5-1.1-.9-.4-.8-.4-1.3h1.6c0,.8.5,1.2,1.5,1.2s.7,0,.9-.2.3-.4.3-.6Z"/>
      </g>
    </g>
  </g>
</svg>