<svg width="22" height="23" viewBox="0 0 22 23" fill="none" xmlns="http://www.w3.org/2000/svg">
<g id="Layer_1">
<g id="Group 26086193">
<path id="Vector" d="M18.6381 11.3714H21.3521C21.7048 11.3714 22 11.0864 22 10.7301C22 10.3739 21.712 10.0889 21.3521 10.0889H18.8973C19.2068 8.16509 19.0628 6.86121 19.0556 6.78996C19.0268 6.54058 18.8469 6.32683 18.6021 6.25558C17.623 5.95633 16.7736 5.65707 16.0249 5.35782V3.79031H18.2421C18.5085 4.53132 19.214 5.0657 20.0563 5.0657C21.1217 5.0657 21.9928 4.21069 21.9928 3.14906C21.9928 2.08743 21.1289 1.23242 20.0563 1.23242C19.214 1.23242 18.5085 1.7668 18.2421 2.5078H15.377C15.0242 2.5078 14.7291 2.79281 14.7291 3.14906V4.80919C12.2886 3.66919 11.5111 2.73581 11.5039 2.72868C11.3815 2.57193 11.1944 2.4793 10.9928 2.4793C10.7912 2.4793 10.6041 2.57193 10.4745 2.72156C10.4673 2.73581 9.68979 3.66919 7.24215 4.80919V3.15618C7.24215 2.80706 6.95419 2.51493 6.59424 2.51493H3.72906C3.4627 1.77393 2.7572 1.23955 1.91492 1.23955C0.863874 1.23955 0 2.09455 0 3.15618C0 4.21782 0.863874 5.07282 1.93652 5.07282C2.7788 5.07282 3.48429 4.53844 3.75065 3.79744H5.96793V5.37207C5.22644 5.67132 4.37696 5.97058 3.39071 6.26983C3.14594 6.34108 2.96597 6.55483 2.93717 6.80421C2.92997 6.87546 2.786 8.17934 3.09555 10.1031H0.647906C0.295157 10.1031 0 10.3881 0 10.7444C0 11.1006 0.287958 11.3856 0.647906 11.3856H3.36191C3.4123 11.5922 3.4627 11.7989 3.52749 12.0126C3.62827 12.3689 3.75065 12.7394 3.88743 13.1312H2.10929C1.75654 13.1312 1.46139 13.4162 1.46139 13.7725C1.46139 14.1288 1.74935 14.4138 2.10929 14.4138H4.40576C4.89529 15.4825 5.56479 16.6296 6.45746 17.7768H3.75065C3.48429 17.0358 2.7788 16.5014 1.93652 16.5014C0.871073 16.5014 0 17.3564 0 18.418C0 19.4797 0.863874 20.3347 1.93652 20.3347C2.7788 20.3347 3.48429 19.8003 3.75065 19.0593H7.5589C8.41558 19.9642 9.42343 20.8548 10.6329 21.6884C10.7408 21.7668 10.8704 21.8024 11 21.8024C11.1296 21.8024 11.2592 21.7668 11.3671 21.6884C12.5766 20.8548 13.5844 19.9642 14.4411 19.0593H18.2493C18.5157 19.8003 19.2212 20.3347 20.0635 20.3347C21.1289 20.3347 22 19.4797 22 18.418C22 17.3564 21.1361 16.5014 20.0635 16.5014C19.2212 16.5014 18.5157 17.0358 18.2493 17.7768H15.5425C16.4352 16.6296 17.0975 15.4896 17.5942 14.4138H19.8907C20.2435 14.4138 20.5386 14.1288 20.5386 13.7725C20.5386 13.4162 20.2507 13.1312 19.8907 13.1312H18.1198C18.2637 12.7394 18.3789 12.3689 18.4797 12.0126C18.5373 11.7989 18.5949 11.5922 18.6453 11.3856L18.6381 11.3714ZM20.0635 2.51493C20.4162 2.51493 20.7114 2.79993 20.7114 3.15618C20.7114 3.51244 20.4234 3.79744 20.0635 3.79744C19.7035 3.79744 19.4156 3.51244 19.4156 3.15618C19.4156 2.79993 19.7035 2.51493 20.0635 2.51493ZM1.93652 3.79031C1.58377 3.79031 1.28861 3.50531 1.28861 3.14906C1.28861 2.79281 1.57657 2.5078 1.93652 2.5078C2.29647 2.5078 2.58442 2.79281 2.58442 3.14906C2.58442 3.50531 2.29647 3.79031 1.93652 3.79031ZM1.93652 19.0308C1.58377 19.0308 1.28861 18.7458 1.28861 18.3895C1.28861 18.0333 1.57657 17.7554 1.93652 17.7554C2.29647 17.7554 2.58442 18.0404 2.58442 18.3895C2.58442 18.7387 2.29647 19.0308 1.93652 19.0308ZM20.0635 17.7554C20.4162 17.7554 20.7114 18.0404 20.7114 18.3895C20.7114 18.7387 20.4234 19.0308 20.0635 19.0308C19.7035 19.0308 19.4156 18.7458 19.4156 18.3895C19.4156 18.0333 19.7035 17.7554 20.0635 17.7554ZM11 20.356C7.86846 18.0903 5.77356 15.1833 4.7801 11.7134C4.21139 9.71835 4.17539 8.07959 4.20419 7.35283C5.21924 7.03221 6.09751 6.71158 6.8606 6.39095H6.875C9.13547 5.44332 10.3809 4.55269 11 4.01831C11.6191 4.55269 12.8645 5.44332 15.125 6.38383H15.1394C15.9025 6.71158 16.788 7.03221 17.7958 7.35283C17.8174 8.07959 17.7958 9.71835 17.2199 11.7134C16.2264 15.1833 14.1315 18.0831 11 20.356Z" fill="#EE224A"/>
<path id="Vector_2" d="M13.7571 9.89341V9.47303C13.7571 7.96965 12.5189 6.74414 10.9999 6.74414C9.48091 6.74414 8.24269 7.96965 8.24269 9.47303V9.89341C7.78916 10.0502 7.45801 10.4777 7.45801 10.9835V14.6387C7.45801 15.2799 7.98353 15.8001 8.63144 15.8001H13.3755C14.0235 15.8001 14.549 15.2799 14.549 14.6387V10.9835C14.549 10.4777 14.2178 10.0502 13.7643 9.89341H13.7571ZM10.9999 8.01952C11.8134 8.01952 12.4685 8.67503 12.4685 9.47303V9.82216H9.53131V9.47303C9.53131 8.6679 10.1936 8.01952 10.9999 8.01952ZM13.2604 14.5247H8.74662V11.0975H13.2604V14.5247Z" fill="#EE224A"/>
<path id="Vector_3" d="M11 11.9492C10.6472 11.9492 10.3521 12.2342 10.3521 12.5905V13.0394C10.3521 13.3885 10.64 13.6806 11 13.6806C11.3599 13.6806 11.6479 13.3956 11.6479 13.0394V12.5905C11.6479 12.2413 11.3599 11.9492 11 11.9492Z" fill="#EE224A"/>
</g>
</g>
</svg>
