<svg width="22" height="23" viewBox="0 0 22 23" fill="none" xmlns="http://www.w3.org/2000/svg">
<g id="Layer_1">
<g id="Group">
<g id="Line">
<path id="Vector" fill-rule="evenodd" clip-rule="evenodd" d="M11.7517 4.3829C11.5168 4.34264 11.2819 4.32921 11.0403 4.32921C10.7785 4.32921 10.5235 4.34935 10.2752 4.39633C10.0738 4.01378 9.8255 3.65807 9.52349 3.34935C8.71141 2.50371 7.56376 1.97351 6.2953 1.97351C3.81879 1.9668 1.81879 3.97351 1.81879 6.44331C1.81879 7.87955 2.50336 9.16143 3.55705 9.98022C2.93289 10.2822 2.3557 10.6916 1.85235 11.195C0.66443 12.3829 0 13.9869 0 15.6648V16.8594C0 18.1614 1.05369 19.2151 2.3557 19.2151H4.68456C4.68456 20.5171 5.73826 21.5708 7.04027 21.5708H14.9597C16.2617 21.5708 17.3154 20.5171 17.3154 19.2151H19.6443C20.9463 19.2151 22 18.1614 22 16.8594V15.6648C22 13.9869 21.3356 12.3829 20.1477 11.195C19.6443 10.6916 19.0671 10.2822 18.443 9.98022C19.4966 9.16143 20.1812 7.87955 20.1812 6.44331C20.1812 3.97351 18.1745 1.9668 15.7047 1.9668C14.4362 1.9668 13.2953 2.497 12.4765 3.34264C12.1812 3.65136 11.9262 4.00035 11.7315 4.3829H11.7517ZM15.7584 18.0272V19.2218C15.7584 19.6581 15.4094 20.0071 14.9732 20.0071H7.04698C6.61074 20.0071 6.26174 19.6581 6.26174 19.2218V18.0272C6.26174 16.7655 6.7651 15.5574 7.65101 14.6715C8.54362 13.7789 9.75168 13.2822 11.0067 13.2822C12.2617 13.2822 13.4698 13.7856 14.3624 14.6715C15.255 15.5641 15.7517 16.7722 15.7517 18.0272H15.7584ZM17.3221 17.6514H19.6644C20.1007 17.6514 20.4497 17.3024 20.4497 16.8661V15.6715C20.4497 14.4098 19.9463 13.2017 19.0604 12.3158C18.1678 11.4232 16.9597 10.9265 15.7047 10.9265C15.4564 10.9265 15.2013 10.9467 14.9597 10.9869C14.6644 11.5171 14.2617 11.9802 13.7852 12.3493C14.4094 12.6514 14.9866 13.0608 15.4899 13.5641C16.5839 14.6581 17.2349 16.1144 17.3289 17.6514H17.3221ZM7.12752 10.9869C6.85906 10.94 6.5906 10.9198 6.31544 10.9198C5.05369 10.9198 3.85235 11.4232 2.95973 12.3091C2.06711 13.2017 1.57047 14.4097 1.57047 15.6648V16.8594C1.57047 17.2957 1.91946 17.6447 2.3557 17.6447H4.69799C4.79195 16.1077 5.44295 14.6514 6.53691 13.5574C7.04698 13.0473 7.63758 12.6312 8.27517 12.3292C7.81208 11.9668 7.42282 11.5104 7.12752 10.9936V10.9869ZM11.0336 5.89968C12.6376 5.89968 13.9329 7.2017 13.9329 8.79901C13.9329 10.3963 12.6309 11.7051 11.0336 11.7051C9.43624 11.7051 8.13423 10.403 8.13423 8.79901C8.13423 7.19499 9.43624 5.89968 11.0336 5.89968ZM8.77181 4.93995C8.65772 4.75874 8.5302 4.58425 8.38255 4.42988C7.85235 3.87955 7.11409 3.53727 6.28859 3.53727C4.68456 3.53727 3.38255 4.83928 3.38255 6.4366C3.38255 8.03391 4.68456 9.34264 6.28859 9.34264C6.38926 9.34264 6.48993 9.34264 6.5906 9.32921C6.57047 9.15472 6.55705 8.98022 6.55705 8.79901C6.55705 7.15472 7.44966 5.71176 8.77181 4.93995ZM15.4765 9.33592C15.557 9.33592 15.6376 9.34935 15.7181 9.34935C17.3221 9.34935 18.6242 8.04733 18.6242 6.44331C18.6242 4.83928 17.3221 3.54398 15.7181 3.54398C14.8993 3.54398 14.1544 3.88626 13.6242 4.4366C13.4832 4.58425 13.3557 4.74532 13.2483 4.91982C14.5973 5.69163 15.5034 7.14129 15.5034 8.80572C15.5034 8.98693 15.4899 9.16814 15.4698 9.34264L15.4765 9.33592Z" fill="#EE224A"/>
</g>
</g>
</g>
</svg>
