<svg width="22" height="23" viewBox="0 0 22 23" fill="none" xmlns="http://www.w3.org/2000/svg">
<g id="Layer_1" clip-path="url(#clip0_5630_14762)">
<g id="Group 26086192">
<path id="Vector" d="M20.1361 5.39129L19.8058 5.49723L18.0546 5.65304L17.5622 6.44454L17.2007 6.33236L15.8047 5.07344L15.6053 4.41905L15.3373 3.72103L14.4585 2.93576L13.424 2.73633L13.399 3.20998L14.4149 4.20092L14.9135 4.78675L14.3588 5.07967L13.9038 4.94879L13.2245 4.66211L13.2495 4.11367L12.3582 3.74596L12.0591 5.03605L11.1616 5.24171L11.2489 5.95842L12.4206 6.18279L12.62 5.03605L13.586 5.17939L14.0347 5.44114H14.7577L15.25 6.43208L16.5588 7.75956L16.4653 8.27684L15.4121 8.13973L13.586 9.06211L12.271 10.6389L12.1027 11.3369H11.6291L10.7503 10.9318L9.89648 11.3369L10.1084 12.2343L10.4823 11.8043L11.1367 11.7856L11.0931 12.5958L11.6353 12.7516L12.1775 13.3562L13.0563 13.1069L14.0659 13.2689L15.2376 13.5805L15.8234 13.6491L16.8143 14.7709L18.7276 15.8927L17.4937 18.2547L16.1911 18.8593L15.6988 20.2117L13.8104 21.4706L13.6109 22.1998C18.441 21.0343 22.0308 16.7029 22.0308 11.5176C22.0308 9.25531 21.3452 7.14879 20.1673 5.39752L20.1361 5.39129Z" fill="#EE224A"/>
<path id="Vector_2" d="M12.2652 17.265L11.4612 15.7818L12.1966 14.2486L11.4612 14.0305L10.6385 13.2016L8.80623 12.7903L8.2017 11.5189V12.273H7.93371L6.35694 10.1353V8.37779L5.20397 6.49564L3.37167 6.81972H2.13768L1.51445 6.41462L2.30595 5.78516L1.51445 5.96589C0.554674 7.59875 0 9.48714 0 11.5126C0 17.5891 4.92351 22.5126 11 22.5126C11.4674 22.5126 11.9286 22.469 12.3773 22.4192L12.2652 21.0854C12.2652 21.0854 12.77 19.1036 12.77 19.0412C12.77 18.9727 12.2652 17.265 12.2652 17.265Z" fill="#EE224A"/>
<path id="Vector_3" d="M4.08812 4.05864L6.04506 3.78442L6.94874 3.29207L7.9646 3.58499L9.585 3.49773L10.1397 2.62521L10.9499 2.75609L12.913 2.56912L13.4553 1.97082L14.2156 1.45977L15.2938 1.62181L15.6864 1.55949C14.2655 0.892634 12.6825 0.5 11.006 0.5C7.58443 0.512465 4.53061 2.07054 2.51758 4.5136L4.08188 4.05864H4.08812ZM11.4609 1.60935L12.5827 0.992351L13.3057 1.40992L12.2587 2.20765L11.2615 2.30737L10.8128 2.01445L11.4609 1.60935ZM8.13288 1.6966L8.63146 1.90227L9.27962 1.6966L9.63486 2.30737L8.13911 2.7L7.41616 2.2762C7.41616 2.2762 8.12041 1.82125 8.13911 1.69037L8.13288 1.6966Z" fill="#EE224A"/>
</g>
</g>
<defs>
<clipPath id="clip0_5630_14762">
<rect width="22" height="22" fill="white" transform="translate(0 0.5)"/>
</clipPath>
</defs>
</svg>
