<svg width="45" height="45" viewBox="0 0 45 45" fill="none" xmlns="http://www.w3.org/2000/svg">
<g clip-path="url(#clip0_8627_3641)">
<path d="M33.7147 44.9998C35.6835 44.9998 36.8876 42.8465 35.8593 41.1678L16.0751 8.89435C15.9784 8.72736 15.9784 8.534 16.0575 8.36701C16.9012 6.67951 16.91 4.62287 15.8905 2.86506C14.9413 1.21271 13.2889 0.201971 11.5223 -0.000177627C11.2587 -0.0265448 11.0741 0.245916 11.2059 0.474432L13.7284 4.8426C14.0009 5.3172 13.8427 5.93244 13.368 6.2049L11.4081 7.33869C10.9335 7.61115 10.3182 7.45295 10.0458 6.96955L7.52332 2.60138C7.39148 2.37287 7.0575 2.39924 6.95203 2.63654C6.24011 4.26252 6.29285 6.19611 7.25086 7.85724C8.2616 9.61506 10.0546 10.6346 11.9354 10.7488C12.12 10.7576 12.2958 10.8631 12.3925 11.0301L31.5526 43.7606C32.0009 44.5252 32.827 44.9998 33.7147 44.9998Z" fill="#D8ECFE"/>
<path d="M35.8591 41.1678L16.0749 8.89435C15.9782 8.72736 15.9782 8.534 16.0573 8.36701C16.9011 6.67951 16.9099 4.62287 15.8903 2.86506C14.9411 1.21271 13.2888 0.201971 11.5222 -0.000177627C11.2585 -0.0265448 11.0739 0.245916 11.2058 0.474432L11.5397 1.05451C12.1901 1.52033 12.7526 2.12678 13.1745 2.86506C14.1852 4.62287 14.1765 6.67951 13.3415 8.36701C13.2536 8.534 13.2624 8.73615 13.3591 8.89435L33.152 41.1678C33.9079 42.407 33.4509 43.9012 32.3698 44.6043C32.7653 44.8592 33.2399 44.9998 33.7233 44.9998C35.6833 44.9998 36.8874 42.8465 35.8591 41.1678Z" fill="#C1DEF4"/>
<path d="M11.2853 44.9998C9.31652 44.9998 8.11242 42.8465 9.14074 41.1678L28.9337 8.89435C29.0304 8.72736 29.0304 8.534 28.9513 8.36701C28.1075 6.67951 28.0987 4.62287 29.1183 2.86506C30.0587 1.21271 31.7111 0.201971 33.4777 -0.000177627C33.7413 -0.0265448 33.9259 0.245916 33.7941 0.474432L31.2716 4.8426C30.9991 5.3172 31.1573 5.93244 31.6319 6.2049L33.5919 7.33869C34.0665 7.61115 34.6818 7.45295 34.9542 6.96955L37.4767 2.60138C37.6085 2.37287 37.9425 2.39924 38.048 2.63654C38.7599 4.26252 38.7071 6.19611 37.7491 7.85724C36.7384 9.61506 34.9454 10.6346 33.0646 10.7488C32.88 10.7576 32.7042 10.8631 32.6075 11.0301L13.4474 43.7606C12.9991 44.5252 12.173 44.9998 11.2853 44.9998Z" fill="#D8ECFE"/>
<path d="M38.0478 2.63638C37.9424 2.39908 37.6084 2.37271 37.4766 2.60122L35.7803 5.53677C35.7012 6.32779 35.4551 7.1188 35.0332 7.85708C34.0225 9.6149 32.2295 10.6344 30.3486 10.7487C30.1641 10.7575 29.9883 10.8629 29.8916 11.0299L10.7314 43.7604C10.5293 44.112 10.248 44.3932 9.91406 44.6042C10.3008 44.8502 10.7578 44.9997 11.2764 44.9997C12.1729 44.9997 12.999 44.5251 13.4473 43.7516L32.6074 11.0211C32.7041 10.8542 32.8711 10.7575 33.0645 10.7399C34.9453 10.6256 36.7383 9.60611 37.749 7.84829C38.707 6.19595 38.751 4.27115 38.0478 2.63638Z" fill="#C1DEF4"/>
<path d="M22.9746 9.33398C22.7373 9.01758 22.2627 9.01758 22.0254 9.33398C21.1465 10.5381 19.4766 12.3926 16.7607 13.5967C13.1924 15.1875 9.87012 14.7393 8.27051 14.3701C7.90137 14.2822 7.5498 14.5635 7.5498 14.9414V26.9648C7.5498 35.8418 13.8955 43.251 22.3418 44.9912C22.4385 45.0088 22.5439 45.0088 22.6406 44.9912C31.0957 43.251 37.4414 35.8418 37.4414 26.9561V14.9326C37.4414 14.5547 37.0898 14.2822 36.7207 14.3613C35.1211 14.7305 31.8076 15.1787 28.2305 13.5879C25.5234 12.3838 23.8535 10.5293 22.9746 9.33398Z" fill="#FF224A"/>
<path d="M36.7207 14.3614C36.2021 14.4844 35.499 14.6075 34.6641 14.6778C34.6992 14.7569 34.7256 14.8448 34.7256 14.9327V26.9561C34.7256 35.4024 28.9775 42.5215 21.1377 44.6924C21.5332 44.8067 21.9375 44.9034 22.3506 44.9825C22.4473 45 22.5527 45 22.6494 44.9825C31.0957 43.251 37.4414 35.8418 37.4414 26.9561V14.9327C37.4414 14.5547 37.0898 14.2823 36.7207 14.3614Z" fill="#DD0735"/>
<path d="M22.7285 41.2471C22.5791 41.2822 22.4209 41.2822 22.2715 41.2471C19.2744 40.4561 16.5586 38.7246 14.5723 36.334C12.3838 33.7061 11.1797 30.375 11.1797 26.9561V18.5625C11.1797 18.4395 11.2764 18.334 11.4082 18.334C13.7988 18.334 16.0928 17.8506 18.2373 16.9014C19.8984 16.1631 21.2607 15.2314 22.3594 14.2822C22.4473 14.2119 22.5703 14.2119 22.6494 14.2822C23.748 15.2314 25.1104 16.1631 26.7715 16.9014C28.916 17.8506 31.21 18.334 33.6006 18.334C33.7236 18.334 33.8203 18.4307 33.8203 18.5537V26.9473C33.8203 30.3574 32.6162 33.6885 30.4277 36.3252C28.4414 38.7334 25.7256 40.4561 22.7285 41.2471Z" fill="#D8ECFE"/>
<path d="M22.5 35.4111C26.6308 35.4111 29.9795 32.0624 29.9795 27.9316C29.9795 23.8008 26.6308 20.4521 22.5 20.4521C18.3692 20.4521 15.0205 23.8008 15.0205 27.9316C15.0205 32.0624 18.3692 35.4111 22.5 35.4111Z" fill="#FF224A"/>
<path d="M22.5 20.4521C22.0342 20.4521 21.5859 20.4961 21.1377 20.5752C24.6182 21.2168 27.2637 24.2666 27.2637 27.9316C27.2637 31.5967 24.627 34.6465 21.1377 35.2881C21.5771 35.3672 22.0342 35.4111 22.5 35.4111C26.6309 35.4111 29.9795 32.0625 29.9795 27.9316C29.9795 23.8008 26.6309 20.4521 22.5 20.4521Z" fill="#DD0735"/>
<path d="M19.8809 30.8579L18.3691 29.3462C18.1055 29.0825 18.1055 28.6519 18.3691 28.3882C18.6328 28.1245 19.0635 28.1245 19.3271 28.3882L20.7334 29.7944L25.6729 24.855C25.9365 24.5913 26.3672 24.5913 26.6309 24.855C26.8945 25.1187 26.8945 25.5493 26.6309 25.813L21.5859 30.8579C21.1289 31.3237 20.3379 31.3237 19.8809 30.8579Z" fill="white"/>
</g>
<defs>
<clipPath id="clip0_8627_3641">
<rect width="45" height="45" fill="white"/>
</clipPath>
</defs>
</svg>
