<svg width="46" height="45" viewBox="0 0 46 45" fill="none" xmlns="http://www.w3.org/2000/svg">
<g id="online-learning 1" clip-path="url(#clip0_5555_7521)">
<g id="Group">
<path id="Vector" d="M43.6195 14.1854V41.7218H2.38135V14.1854C2.38135 12.7712 3.5285 11.624 4.94371 11.624H41.0572C42.4723 11.624 43.6195 12.7712 43.6195 14.1854Z" fill="#DFEAEF"/>
<path id="Vector_2" d="M2.38135 37.6318H43.6195V41.7216H2.38135V37.6318Z" fill="#B4D0D5"/>
<path id="Vector_3" d="M40.4503 14.793V36.0918H5.55035V14.793H40.4503Z" fill="#6EC17D"/>
<path id="Vector_4" d="M45.4999 39.2607H0.500732V40.7658C0.500732 42.823 2.16846 44.4908 4.22571 44.4908H41.775C43.8322 44.4908 45.4999 42.823 45.4999 40.7658V39.2607Z" fill="#DFEAEF"/>
<path id="Vector_5" d="M25.4408 41.8758H20.5601C19.1582 41.8758 18.0217 40.7393 18.0217 39.3374V39.2607H27.979V39.3374C27.979 40.7393 26.8426 41.8758 25.4408 41.8758Z" fill="#B4D0D5"/>
<path id="Vector_6" d="M8.29651 44.4904H4.22577C2.16781 44.4904 0.5 42.8227 0.5 40.7655V39.2607H4.57074V40.7655C4.57074 42.8227 6.23855 44.4904 8.29651 44.4904Z" fill="#B4D0D5"/>
<path id="Vector_7" d="M33.0098 14.208V18.0334C33.0098 20.3177 31.6453 22.392 29.5348 23.2685C25.3572 25.0051 20.6436 25.0051 16.466 23.2685C14.3555 22.392 12.991 20.3177 12.991 18.0334V14.208H33.0098Z" fill="#665E66"/>
<path id="Vector_8" d="M25.6239 24.3676C22.5527 24.8457 19.3793 24.48 16.4656 23.2685C14.3551 22.392 12.9906 20.3177 12.9906 18.0334V14.208H18.2375V18.0334C18.2375 20.3177 19.602 22.392 21.7125 23.2685C22.9773 23.7945 24.2911 24.1612 25.6239 24.3676Z" fill="#454045"/>
<path id="Vector_9" d="M33.0098 14.208V15.7418L24.8167 20.0824C23.6803 20.6835 22.3204 20.6835 21.1842 20.0824L12.9911 15.7418V14.208H33.0098Z" fill="#454045"/>
<path id="Vector_10" d="M37.9476 7.9173L24.8165 0.961106C23.6806 0.359319 22.3204 0.359319 21.1844 0.961106L8.05329 7.9173C6.57875 8.69838 6.57875 10.8108 8.05329 11.5919L21.1844 18.5482C22.3203 19.15 23.6805 19.15 24.8165 18.5482L37.9476 11.5919C39.4222 10.8108 39.4222 8.69847 37.9476 7.9173Z" fill="#665E66"/>
<path id="Vector_11" d="M28.8417 25.9851C28.5418 25.9851 28.2985 25.7418 28.2985 25.4419V16.6198L22.5919 10.1124C22.3942 9.88679 22.4167 9.54358 22.6422 9.34574C22.8676 9.1479 23.211 9.17048 23.4089 9.39601L29.2502 16.0572C29.3371 16.1563 29.3851 16.2836 29.3851 16.4153V25.4418C29.385 25.7419 29.1418 25.9851 28.8417 25.9851Z" fill="#EAB14D"/>
<g id="Group_2">
<path id="Vector_12" d="M28.0697 25.5659L26.9815 27.4506C26.3102 28.6133 27.1493 30.0666 28.4919 30.0666H29.1915C30.5341 30.0666 31.3731 28.6133 30.7019 27.4506L29.6138 25.5659C29.2706 24.9715 28.4128 24.9715 28.0697 25.5659Z" fill="#F4DD45"/>
</g>
<g id="Group_3">
<path id="Vector_13" d="M22.5267 33.6022H8.93222C8.55719 33.6022 8.25317 33.2982 8.25317 32.9232C8.25317 32.5482 8.55719 32.2441 8.93222 32.2441H22.5266C22.9016 32.2441 23.2057 32.5482 23.2057 32.9232C23.2057 33.2982 22.9017 33.6022 22.5267 33.6022Z" fill="#665E66"/>
<path id="Vector_14" d="M18.0217 30.7458H8.93222C8.55719 30.7458 8.25317 30.4418 8.25317 30.0667C8.25317 29.6917 8.55719 29.3877 8.93222 29.3877H18.0217C18.3967 29.3877 18.7007 29.6917 18.7007 30.0667C18.7007 30.4418 18.3967 30.7458 18.0217 30.7458Z" fill="#665E66"/>
</g>
</g>
</g>
<defs>
<clipPath id="clip0_5555_7521">
<rect width="45" height="45" fill="white" transform="translate(0.5)"/>
</clipPath>
</defs>
</svg>
