<svg width="36" height="36" viewBox="0 0 36 36" fill="none" xmlns="http://www.w3.org/2000/svg">
<g id="Data Privacy 1" clip-path="url(#clip0_19448_2210)">
<g id="026---Computer-Encryption">
<path id="Path" d="M36 1.86207V23.5862L35.3793 24.2069H0.62069L0 23.5862V1.86207C0 0.833677 0.833677 0 1.86207 0H34.1379C35.1663 0 36 0.833677 36 1.86207Z" fill="#2885EE"/>
<path id="Rectangle" d="M11.1719 27.9297H24.827V31.6538H11.1719V27.9297Z" fill="#BBC1CE"/>
<path id="Path_2" d="M29.173 33.5179L24.8281 31.0352H11.173L6.82812 33.5179L7.44881 34.1386H28.5523L29.173 33.5179Z" fill="#D8DDE5"/>
<path id="Path_3" d="M6.82812 33.5156H29.173V35.3777C29.173 35.7205 28.8951 35.9984 28.5523 35.9984H7.44881C7.10602 35.9984 6.82812 35.7205 6.82812 35.3777V33.5156Z" fill="#BBC1CE"/>
<path id="Path_4" d="M36 23.5859V26.6894C36 27.7178 35.1663 28.5515 34.1379 28.5515H1.86207C0.833677 28.5515 0 27.7178 0 26.6894V23.5859H36Z" fill="#D8DDE5"/>
<path id="Rectangle_2" d="M22.3451 8.69141H13.6554C12.9698 8.69141 12.4141 9.24719 12.4141 9.93279V18.6224C12.4141 19.308 12.9698 19.8638 13.6554 19.8638H22.3451C23.0307 19.8638 23.5865 19.308 23.5865 18.6224V9.93279C23.5865 9.24719 23.0307 8.69141 22.3451 8.69141Z" fill="#FCA316"/>
<path id="Oval" d="M18.0027 14.896C19.0311 14.896 19.8648 14.0623 19.8648 13.0339C19.8648 12.0056 19.0311 11.1719 18.0027 11.1719C16.9743 11.1719 16.1406 12.0056 16.1406 13.0339C16.1406 14.0623 16.9743 14.896 18.0027 14.896Z" fill="#E28100"/>
<path id="Path_5" d="M19.2441 26.6906H16.7613C16.4185 26.6906 16.1406 26.4127 16.1406 26.0699C16.1406 25.7271 16.4185 25.4492 16.7613 25.4492H19.2441C19.5869 25.4492 19.8648 25.7271 19.8648 26.0699C19.8648 26.4127 19.5869 26.6906 19.2441 26.6906Z" fill="#8B93A2"/>
<path id="Path_6" d="M18.0035 18.0011C17.6607 18.0011 17.3828 17.7232 17.3828 17.3804V14.2769C17.3828 13.9341 17.6607 13.6562 18.0035 13.6562C18.3463 13.6562 18.6242 13.9341 18.6242 14.2769V17.3804C18.6242 17.7232 18.3463 18.0011 18.0035 18.0011Z" fill="#E28100"/>
<path id="Path_7" d="M20.4803 8.69087V5.58742C20.4803 4.21623 19.3688 3.10466 17.9976 3.10466C16.6264 3.10466 15.5148 4.21623 15.5148 5.58742V8.69087H14.2734V5.58742C14.2734 3.53063 15.9408 1.86328 17.9976 1.86328C20.0544 1.86328 21.7217 3.53063 21.7217 5.58742V8.69087H20.4803Z" fill="#D8DDE5"/>
<path id="Path_8" d="M3.10075 9.93279H2.48006C2.13727 9.93279 1.85938 9.65489 1.85938 9.3121C1.85938 8.9693 2.13727 8.69141 2.48006 8.69141H3.10075C3.44355 8.69141 3.72144 8.9693 3.72144 9.3121C3.72144 9.65489 3.44355 9.93279 3.10075 9.93279Z" fill="#FFCD54"/>
<path id="Path_9" d="M9.93427 9.93279H5.58944C5.24664 9.93279 4.96875 9.65489 4.96875 9.3121C4.96875 8.9693 5.24664 8.69141 5.58944 8.69141H9.93427C10.2771 8.69141 10.555 8.9693 10.555 9.3121C10.555 9.65489 10.2771 9.93279 9.93427 9.93279Z" fill="#17CDA3"/>
<path id="Path_10" d="M9.92834 19.8625H2.48006C2.13727 19.8625 1.85938 19.5846 1.85938 19.2418C1.85938 18.899 2.13727 18.6211 2.48006 18.6211H9.92834C10.2711 18.6211 10.549 18.899 10.549 19.2418C10.549 19.5846 10.2711 19.8625 9.92834 19.8625Z" fill="#FFCD54"/>
<path id="Path_11" d="M6.82489 12.4133H2.48006C2.13727 12.4133 1.85938 12.1354 1.85938 11.7926C1.85938 11.4498 2.13727 11.1719 2.48006 11.1719H6.82489C7.16769 11.1719 7.44558 11.4498 7.44558 11.7926C7.44558 12.1354 7.16769 12.4133 6.82489 12.4133Z" fill="#FFCD54"/>
<path id="Path_12" d="M9.92888 12.4133H9.30819C8.96539 12.4133 8.6875 12.1354 8.6875 11.7926C8.6875 11.4498 8.96539 11.1719 9.30819 11.1719H9.92888C10.2717 11.1719 10.5496 11.4498 10.5496 11.7926C10.5496 12.1354 10.2717 12.4133 9.92888 12.4133Z" fill="#17CDA3"/>
<path id="Path_13" d="M6.82489 17.3781H2.48006C2.13727 17.3781 1.85938 17.1002 1.85938 16.7574C1.85938 16.4146 2.13727 16.1367 2.48006 16.1367H6.82489C7.16769 16.1367 7.44558 16.4146 7.44558 16.7574C7.44558 17.1002 7.16769 17.3781 6.82489 17.3781Z" fill="#FFCD54"/>
<path id="Path_14" d="M9.92888 17.3781H9.30819C8.96539 17.3781 8.6875 17.1002 8.6875 16.7574C8.6875 16.4146 8.96539 16.1367 9.30819 16.1367H9.92888C10.2717 16.1367 10.5496 16.4146 10.5496 16.7574C10.5496 17.1002 10.2717 17.3781 9.92888 17.3781Z" fill="#17CDA3"/>
<path id="Path_15" d="M3.10075 14.8976H2.48006C2.13727 14.8976 1.85938 14.6197 1.85938 14.2769C1.85938 13.9341 2.13727 13.6562 2.48006 13.6562H3.10075C3.44355 13.6562 3.72144 13.9341 3.72144 14.2769C3.72144 14.6197 3.44355 14.8976 3.10075 14.8976Z" fill="#FFCD54"/>
<path id="Path_16" d="M6.21013 14.8976H5.58944C5.24664 14.8976 4.96875 14.6197 4.96875 14.2769C4.96875 13.9341 5.24664 13.6562 5.58944 13.6562H6.21013C6.55293 13.6562 6.83082 13.9341 6.83082 14.2769C6.83082 14.6197 6.55293 14.8976 6.21013 14.8976Z" fill="#17CDA3"/>
<path id="Path_17" d="M9.93238 14.8976H8.691C8.3482 14.8976 8.07031 14.6197 8.07031 14.2769C8.07031 13.9341 8.3482 13.6562 8.691 13.6562H9.93238C10.2752 13.6562 10.5531 13.9341 10.5531 14.2769C10.5531 14.6197 10.2752 14.8976 9.93238 14.8976Z" fill="#F289CA"/>
<path id="Path_18" d="M26.6867 9.93279H26.066C25.7232 9.93279 25.4453 9.65489 25.4453 9.3121C25.4453 8.9693 25.7232 8.69141 26.066 8.69141H26.6867C27.0295 8.69141 27.3074 8.9693 27.3074 9.3121C27.3074 9.65489 27.0295 9.93279 26.6867 9.93279Z" fill="#FFCD54"/>
<path id="Path_19" d="M33.5202 9.93279H29.1754C28.8326 9.93279 28.5547 9.65489 28.5547 9.3121C28.5547 8.9693 28.8326 8.69141 29.1754 8.69141H33.5202C33.863 8.69141 34.1409 8.9693 34.1409 9.3121C34.1409 9.65489 33.863 9.93279 33.5202 9.93279Z" fill="#17CDA3"/>
<path id="Path_20" d="M33.5143 19.8625H26.066C25.7232 19.8625 25.4453 19.5846 25.4453 19.2418C25.4453 18.899 25.7232 18.6211 26.066 18.6211H33.5143C33.8571 18.6211 34.135 18.899 34.135 19.2418C34.135 19.5846 33.8571 19.8625 33.5143 19.8625Z" fill="#FFCD54"/>
<path id="Path_21" d="M30.4108 12.4133H26.066C25.7232 12.4133 25.4453 12.1354 25.4453 11.7926C25.4453 11.4498 25.7232 11.1719 26.066 11.1719H30.4108C30.7536 11.1719 31.0315 11.4498 31.0315 11.7926C31.0315 12.1354 30.7536 12.4133 30.4108 12.4133Z" fill="#FFCD54"/>
<path id="Path_22" d="M33.5148 12.4133H32.8941C32.5513 12.4133 32.2734 12.1354 32.2734 11.7926C32.2734 11.4498 32.5513 11.1719 32.8941 11.1719H33.5148C33.8576 11.1719 34.1355 11.4498 34.1355 11.7926C34.1355 12.1354 33.8576 12.4133 33.5148 12.4133Z" fill="#17CDA3"/>
<path id="Path_23" d="M30.4108 17.3781H26.066C25.7232 17.3781 25.4453 17.1002 25.4453 16.7574C25.4453 16.4146 25.7232 16.1367 26.066 16.1367H30.4108C30.7536 16.1367 31.0315 16.4146 31.0315 16.7574C31.0315 17.1002 30.7536 17.3781 30.4108 17.3781Z" fill="#FFCD54"/>
<path id="Path_24" d="M33.5148 17.3781H32.8941C32.5513 17.3781 32.2734 17.1002 32.2734 16.7574C32.2734 16.4146 32.5513 16.1367 32.8941 16.1367H33.5148C33.8576 16.1367 34.1355 16.4146 34.1355 16.7574C34.1355 17.1002 33.8576 17.3781 33.5148 17.3781Z" fill="#17CDA3"/>
<path id="Path_25" d="M26.6867 14.8976H26.066C25.7232 14.8976 25.4453 14.6197 25.4453 14.2769C25.4453 13.9341 25.7232 13.6562 26.066 13.6562H26.6867C27.0295 13.6562 27.3074 13.9341 27.3074 14.2769C27.3074 14.6197 27.0295 14.8976 26.6867 14.8976Z" fill="#FFCD54"/>
<path id="Path_26" d="M29.7961 14.8976H29.1754C28.8326 14.8976 28.5547 14.6197 28.5547 14.2769C28.5547 13.9341 28.8326 13.6562 29.1754 13.6562H29.7961C30.1389 13.6562 30.4168 13.9341 30.4168 14.2769C30.4168 14.6197 30.1389 14.8976 29.7961 14.8976Z" fill="#17CDA3"/>
<path id="Path_27" d="M33.5183 14.8976H32.2769C31.9341 14.8976 31.6562 14.6197 31.6562 14.2769C31.6562 13.9341 31.9341 13.6562 32.2769 13.6562H33.5183C33.8611 13.6562 34.139 13.9341 34.139 14.2769C34.139 14.6197 33.8611 14.8976 33.5183 14.8976Z" fill="#F289CA"/>
</g>
</g>
<defs>
<clipPath id="clip0_19448_2210">
<rect width="36" height="36" fill="white"/>
</clipPath>
</defs>
</svg>
