<svg width="36" height="36" viewBox="0 0 36 36" fill="none" xmlns="http://www.w3.org/2000/svg">
<g id="Information Security 1">
<g id="Group">
<path id="Vector" d="M34.9423 9.30022V25.7226C34.9423 27.0832 33.8412 28.1843 32.4859 28.1843H3.51116C2.15586 28.1843 1.05469 27.0832 1.05469 25.7226V9.30022C1.05469 7.93964 2.15586 6.84375 3.51116 6.84375H32.4859C33.8412 6.84375 34.9423 7.93964 34.9423 9.30022Z" fill="#9FE7FF"/>
<path id="Vector_2" d="M26.5894 6.24302V7.80585C26.5894 8.89061 25.7375 9.76679 24.7227 9.76679H11.273C10.2581 9.76679 9.40625 8.89061 9.40625 7.80585V6.24302C9.40625 5.15773 10.2581 4.28156 11.273 4.28156H15.134C15.134 2.62556 16.421 1.27344 17.9975 1.27344C19.5747 1.27344 20.8617 2.62556 20.8617 4.28156H24.7227C25.7375 4.28156 26.5894 5.15773 26.5894 6.24302Z" fill="#2C3033"/>
<path id="Vector_3" d="M19.3081 4.02248C19.3081 4.74778 18.7204 5.33543 18.0004 5.33543C17.2751 5.33543 16.6875 4.74778 16.6875 4.02248C16.6875 3.30249 17.2751 2.71484 18.0004 2.71484C18.7204 2.71484 19.3081 3.30249 19.3081 4.02248Z" fill="white"/>
<path id="Vector_4" d="M16.122 18.4188C16.122 19.9117 15.6101 21.2856 14.7561 22.3745C14.5406 22.6514 14.3019 22.9093 14.0404 23.148C12.8974 24.1984 11.3774 24.8331 9.70765 24.8331C7.65618 24.8331 5.82865 23.8712 4.65495 22.3745C3.801 21.2856 3.28906 19.9117 3.28906 18.4188C3.28906 14.8749 6.16324 12.0039 9.70765 12.0039C13.2515 12.0039 16.122 14.8749 16.122 18.4188Z" fill="#E5F4F7"/>
<path id="Vector_5" d="M14.7574 22.3738C14.542 22.6507 14.3032 22.9085 14.0417 23.1473C12.8987 24.1976 11.3787 24.8329 9.70896 24.8329C7.65748 24.8329 5.82995 23.871 4.65625 22.3738C5.61449 20.7655 7.25354 19.6495 9.15837 19.4684C9.24678 19.461 9.33943 19.453 9.42784 19.4493C9.51995 19.4456 9.6126 19.4414 9.70525 19.4414H9.71637C11.2977 19.4414 12.7293 20.0841 13.7955 21.1387C13.903 21.2425 14.0072 21.3542 14.1068 21.4659C14.3492 21.7465 14.5727 22.0509 14.7574 22.3738Z" fill="#FB545C"/>
<path id="Vector_6" d="M12.4131 16.6057C12.4131 18.1707 11.214 19.4301 9.7147 19.4397H9.7057C8.21593 19.4397 7.00781 18.1707 7.00781 16.6057C7.00781 15.0312 8.21593 13.7617 9.7057 13.7617C11.2045 13.7617 12.4131 15.0312 12.4131 16.6057Z" fill="#FB545C"/>
<path id="Vector_7" d="M32.4094 13.1191C32.4094 13.3626 32.2135 13.5638 31.9647 13.5638H18.8041C18.5605 13.5638 18.3594 13.3626 18.3594 13.1191C18.3594 12.8756 18.5606 12.6797 18.8041 12.6797H31.9647C32.2135 12.6797 32.4094 12.8756 32.4094 13.1191Z" fill="#2C3033"/>
<path id="Vector_8" d="M32.4094 16.0683C32.4094 16.3118 32.2135 16.513 31.9647 16.513H18.8041C18.5605 16.513 18.3594 16.3118 18.3594 16.0683C18.3594 15.8248 18.5606 15.6289 18.8041 15.6289H31.9647C32.2135 15.6289 32.4094 15.8248 32.4094 16.0683Z" fill="#2C3033"/>
<path id="Vector_9" d="M31.2774 26.278H31.2732C31.0138 27.2812 30.6315 28.3363 30.0725 29.3872C29.8723 29.7647 29.6542 30.1421 29.4038 30.5196C29.381 30.5572 29.354 30.6006 29.3265 30.6387C28.813 31.4032 28.1946 32.1576 27.4529 32.8739C26.8457 33.4615 26.1575 34.0206 25.3771 34.5458C25.0425 34.7708 24.6095 34.7846 24.2706 34.5659C23.7735 34.2456 22.9958 33.6887 22.1514 32.8739C19.993 30.8013 17.3915 27.0678 17.86 21.3221C17.9029 20.7927 18.3555 20.3851 18.8865 20.4052C19.5578 20.4301 20.5399 20.3787 21.6326 20.0351C22.468 19.7752 23.368 19.3406 24.2436 18.6407C24.5814 18.3701 25.0505 18.3426 25.4142 18.5771C25.7048 18.7646 26.0876 18.9948 26.5392 19.2278C27.4852 19.7148 28.7405 20.2167 30.0725 20.3549C30.316 20.3814 30.5622 20.3946 30.8105 20.3936C31.3335 20.3909 31.7629 20.8086 31.7909 21.3311C31.7962 21.4323 31.801 21.5403 31.8052 21.6541C31.837 22.7484 31.7687 24.415 31.2774 26.278Z" fill="#FEBB50"/>
<path id="Vector_10" d="M28.3755 26.5271C28.3755 28.497 26.7782 30.0937 24.8088 30.0937C22.8394 30.0937 21.2422 28.497 21.2422 26.5271C21.2422 24.5576 22.8394 22.9609 24.8088 22.9609C26.7782 22.9609 28.3755 24.5576 28.3755 26.5271Z" fill="#F7AE4D"/>
<path id="Vector_11" d="M24.1883 28.2187C24.0576 28.2187 23.9268 28.1689 23.8273 28.0694L22.7044 26.946C22.5048 26.7469 22.5048 26.4234 22.7044 26.2239C22.9034 26.0248 23.2269 26.0248 23.4265 26.2239L24.1883 26.9862L26.1932 24.9813C26.3928 24.7823 26.7157 24.7823 26.9153 24.9813C27.1144 25.1809 27.1144 25.5039 26.9153 25.7034L24.5494 28.0694C24.4498 28.1689 24.3191 28.2187 24.1883 28.2187Z" fill="#2C3033"/>
</g>
</g>
</svg>
