<svg width="16" height="17" viewBox="0 0 16 17" fill="none" xmlns="http://www.w3.org/2000/svg">
<g id="Video" clip-path="url(#clip0_19395_685)">
<g id="Video_2">
<g id="Group">
<path id="Vector" d="M12.875 11.75H3.125C1.40184 11.75 0 10.3481 0 8.625V3.625C0 1.90188 1.40184 0.5 3.125 0.5H12.875C14.5982 0.5 16 1.90188 16 3.625V8.625C16 10.3481 14.5982 11.75 12.875 11.75ZM3.125 1.75C2.09113 1.75 1.25 2.59113 1.25 3.625V8.625C1.25 9.65887 2.09113 10.5 3.125 10.5H12.875C13.9089 10.5 14.75 9.65887 14.75 8.625V3.625C14.75 2.59113 13.9089 1.75 12.875 1.75H3.125Z" fill="white"/>
</g>
<g id="Group_2">
<path id="Vector_2" d="M7.375 9.25C6.68575 9.25 6.125 8.68925 6.125 8V4.25C6.125 3.56075 6.68575 3 7.375 3C7.64762 3 7.90684 3.08634 8.12459 3.24966L10.6246 5.12466H10.6247C10.938 5.35969 11.125 5.73362 11.125 6.125C11.125 6.51638 10.938 6.89031 10.6247 7.12531L8.12463 9.00031C7.90684 9.16366 7.64762 9.25 7.375 9.25ZM9.87463 6.12469L7.37463 4.24969L7.375 8L9.87463 6.12531" fill="white"/>
</g>
<g id="Group_3">
<path id="Vector_3" d="M1.875 16.5C0.841125 16.5 0 15.6589 0 14.625C0 13.5911 0.841125 12.75 1.875 12.75C2.90887 12.75 3.75 13.5911 3.75 14.625C3.75 15.6589 2.90887 16.5 1.875 16.5ZM1.875 14C1.53038 14 1.25 14.2804 1.25 14.625C1.25 14.9696 1.53038 15.25 1.875 15.25C2.21962 15.25 2.5 14.9696 2.5 14.625C2.5 14.2804 2.21962 14 1.875 14Z" fill="white"/>
</g>
<g id="Group_4">
<path id="Vector_4" d="M15.375 15.25H5.625C5.27981 15.25 5 14.9702 5 14.625C5 14.2798 5.27981 14 5.625 14H15.375C15.7202 14 16 14.2798 16 14.625C16 14.9702 15.7202 15.25 15.375 15.25Z" fill="white"/>
</g>
</g>
</g>
<defs>
<clipPath id="clip0_19395_685">
<rect width="16" height="16" fill="white" transform="translate(0 0.5)"/>
</clipPath>
</defs>
</svg>
