<svg width="45" height="41" viewBox="0 0 45 41" fill="none" xmlns="http://www.w3.org/2000/svg">
<path d="M44.5423 0.784929C44.2548 0.49021 43.86 0.32498 43.4483 0.32717H1.55175C1.14008 0.32498 0.745207 0.49021 0.45778 0.784929C0.163062 1.07236 -0.00216881 1.46723 2.1502e-05 1.87889V34.4651C-0.00216881 34.8768 0.163062 35.2716 0.45778 35.5591C0.745207 35.8538 1.14008 36.019 1.55175 36.0168H42.6724C43.9579 36.0168 45 34.9747 45 33.6892V1.87889C45.0022 1.46723 44.837 1.07236 44.5423 0.784929Z" fill="#F3D55B"/>
<path d="M45.0004 1.87912V33.6895C45.0005 34.3067 44.7548 34.8985 44.3176 35.3343L41.1211 32.1377V4.20671L44.5426 0.785156C44.8374 1.07258 45.0026 1.46746 45.0004 1.87912Z" fill="#F0C419"/>
<path d="M3.87933 4.20671V32.1377L0.45778 35.5593C0.163062 35.2719 -0.00216881 34.877 2.1502e-05 34.4653V1.87912C-0.00216881 1.46746 0.163062 1.07258 0.45778 0.785156L3.87933 4.20671Z" fill="#F0C419"/>
<path d="M44.3165 35.3342C43.8808 35.7714 43.2889 36.0171 42.6717 36.017H1.551C1.13933 36.0192 0.744458 35.854 0.457031 35.5592L3.87858 32.1377H41.12L44.3165 35.3342Z" fill="#F29C1F"/>
<path d="M3.87891 4.20605H41.1203V32.1371H3.87891V4.20605Z" fill="#ECF0F1"/>
<path d="M41.1203 4.20605C41.1203 4.20605 3.87891 4.20605 3.87891 32.1371V4.20605H41.1203Z" fill="white"/>
<path d="M27.9309 9.63766H17.0688C16.6403 9.63766 16.293 9.2903 16.293 8.8618C16.293 8.4333 16.6403 8.08594 17.0688 8.08594H27.9309C28.3594 8.08594 28.7068 8.4333 28.7068 8.8618C28.7068 9.2903 28.3594 9.63766 27.9309 9.63766Z" fill="#BDC3C7"/>
<path d="M20.1731 26.706H9.31102C8.88252 26.706 8.53516 26.3587 8.53516 25.9302C8.53516 25.5017 8.88252 25.1543 9.31102 25.1543H20.1731C20.6016 25.1543 20.9489 25.5017 20.9489 25.9302C20.9489 26.3587 20.6016 26.706 20.1731 26.706Z" fill="#95A5A5"/>
<path d="M30.2579 13.5166H14.7407C14.3122 13.5166 13.9648 13.1692 13.9648 12.7407C13.9648 12.3122 14.3122 11.9648 14.7407 11.9648H30.2579C30.6864 11.9648 31.0338 12.3122 31.0338 12.7407C31.0338 13.1692 30.6864 13.5166 30.2579 13.5166Z" fill="#BDC3C7"/>
<path d="M27.1563 29.3447L27.1563 39.4154C27.1544 39.6857 27.2933 39.9375 27.523 40.08C27.7526 40.2226 28.0399 40.2353 28.2813 40.1137L30.2985 39.0973C30.5186 38.9887 30.7767 38.9887 30.9968 39.0973L33.014 40.1137C33.2554 40.2353 33.5427 40.2226 33.7723 40.08C34.002 39.9375 34.1409 39.6857 34.139 39.4154L34.139 29.3447H27.1563Z" fill="#FF5364"/>
<path d="M20.1731 23.6029C18.2733 23.6029 16.4056 23.1128 14.7506 22.1799C13.0928 23.1212 11.2174 23.6118 9.31102 23.6029C8.88252 23.6029 8.53516 23.2555 8.53516 22.827C8.53516 22.3985 8.88252 22.0512 9.31102 22.0512C10.7017 22.0573 12.0764 21.755 13.3362 21.1659C12.5309 20.5486 12.0159 19.6265 11.9125 18.6172C11.9125 18.1517 12.1165 16.6201 14.7421 16.6201C17.3676 16.6201 17.5716 18.1486 17.5716 18.6172C17.4688 19.6278 16.9541 20.5514 16.1487 21.1705C17.4089 21.757 18.7831 22.0577 20.1731 22.0512C20.6016 22.0512 20.9489 22.3985 20.9489 22.827C20.9489 23.2555 20.6016 23.6029 20.1731 23.6029ZM14.7421 18.1718C14.1524 18.1718 13.4642 18.2882 13.4642 18.6172C13.4642 18.9462 13.8126 19.6087 14.7358 20.3194C15.5614 19.6879 16.0199 19.0276 16.0199 18.6172C16.0199 18.2882 15.3317 18.1718 14.7421 18.1718Z" fill="#95A5A5"/>
<path d="M38.0148 23.9908C38.0148 24.8854 36.3444 25.4401 36.0216 26.2183C35.6872 27.0244 36.4631 28.5955 35.8556 29.203C35.2481 29.8105 33.677 29.0347 32.8716 29.3683C32.0934 29.6911 31.5387 31.3615 30.6441 31.3615C29.7496 31.3615 29.1948 29.6911 28.4166 29.3683C27.6105 29.0339 26.0394 29.8098 25.4319 29.2023C24.8244 28.5948 25.6002 27.0237 25.2666 26.2183C24.9439 25.4401 23.2734 24.8854 23.2734 23.9908C23.2734 23.0962 24.9439 22.5415 25.2666 21.7633C25.601 20.9572 24.8252 19.3861 25.4327 18.7786C26.0402 18.1711 27.6113 18.9469 28.4166 18.6133C29.1925 18.2905 29.7496 16.6201 30.6441 16.6201C31.5387 16.6201 32.0934 18.2905 32.8716 18.6133C33.6777 18.9477 35.2489 18.1718 35.8564 18.7793C36.4639 19.3868 35.688 20.958 36.0216 21.7633C36.3444 22.5415 38.0148 23.0962 38.0148 23.9908Z" fill="#FB7B76"/>
<path d="M30.6452 26.7064C32.1449 26.7064 33.3607 25.4906 33.3607 23.9909C33.3607 22.4912 32.1449 21.2754 30.6452 21.2754C29.1455 21.2754 27.9297 22.4912 27.9297 23.9909C27.9297 25.4906 29.1455 26.7064 30.6452 26.7064Z" fill="#DF4D60"/>
</svg>
