<svg width="43" height="43" viewBox="0 0 43 43" fill="none" xmlns="http://www.w3.org/2000/svg">
<path fill-rule="evenodd" clip-rule="evenodd" d="M14.8706 31.791H28.1295V39.3433H14.8706V31.791Z" fill="#A79BA7"/>
<path fill-rule="evenodd" clip-rule="evenodd" d="M27.1013 31.791H28.1295V39.3433H27.1013V31.791Z" fill="#837683"/>
<path fill-rule="evenodd" clip-rule="evenodd" d="M7.16809 42.5641H35.8318V40.3543C35.8318 39.1389 34.5872 38.1445 33.066 38.1445H9.93383C8.41262 38.1445 7.16809 39.1389 7.16809 40.3543V42.5641Z" fill="#9FACBA"/>
<path fill-rule="evenodd" clip-rule="evenodd" d="M7.16809 42.5642H35.8318V40.3544C35.8318 39.6321 35.3921 38.9878 34.7162 38.584C34.8681 38.8571 34.9528 39.1587 34.9528 39.4755V41.6853H7.16809V42.5642Z" fill="#8D9CA8"/>
<path fill-rule="evenodd" clip-rule="evenodd" d="M3.6495 4.19336H39.3506C41.1343 4.19336 42.5938 5.65287 42.5938 7.43661V29.7483C42.5938 31.532 41.1344 32.9915 39.3506 32.9915H3.6495C1.86576 32.9915 0.40625 31.5321 0.40625 29.7483V7.43661C0.40625 5.65278 1.86567 4.19336 3.6495 4.19336Z" fill="#9FACBA"/>
<path fill-rule="evenodd" clip-rule="evenodd" d="M41.1596 4.74805C42.0232 5.33234 42.5938 6.32076 42.5938 7.43609V29.7477C42.5938 31.5315 41.1342 32.991 39.3505 32.991H3.64951C2.53426 32.991 1.54584 32.4205 0.961548 31.5569C1.47914 31.907 2.1021 32.112 2.7706 32.112H38.4717C40.2554 32.112 41.7149 30.6526 41.7149 28.8688V6.5571C41.7149 5.8886 41.5098 5.26572 41.1596 4.74805Z" fill="#8D9CA8"/>
<path fill-rule="evenodd" clip-rule="evenodd" d="M3.56811 6.90625H39.4319C39.6793 6.90625 39.8817 7.10884 39.8817 7.35599V27.5527H3.11829V7.35607C3.11829 7.10866 3.3207 6.90625 3.56811 6.90625Z" fill="#D8ECFE"/>
<path fill-rule="evenodd" clip-rule="evenodd" d="M37.6741 6.90625H39.432C39.6794 6.90625 39.8818 7.10884 39.8818 7.35607V27.5526H38.1239V7.35607C38.1239 7.10875 37.9215 6.90625 37.6741 6.90625Z" fill="#C4E2FF"/>
<path fill-rule="evenodd" clip-rule="evenodd" d="M6.67194 17.1321C7.06024 17.1321 7.37507 17.4469 7.37507 17.8352C7.37507 18.2235 7.06024 18.5383 6.67194 18.5383H5.79321C5.40491 18.5383 5.09009 18.2235 5.09009 17.8352C5.09009 17.4469 5.40491 17.1321 5.79321 17.1321H6.67194ZM15.3371 20.0026C15.7254 20.0026 16.0402 20.3175 16.0402 20.7058C16.0402 21.0941 15.7254 21.4089 15.3371 21.4089H8.49928C8.11098 21.4089 7.79615 21.0941 7.79615 20.7058C7.79615 20.3175 8.11098 20.0026 8.49928 20.0026H15.3371ZM6.67194 20.0026C7.06024 20.0026 7.37507 20.3175 7.37507 20.7058C7.37507 21.0941 7.06024 21.4089 6.67194 21.4089H5.79321C5.40491 21.4089 5.09009 21.0941 5.09009 20.7058C5.09009 20.3175 5.40491 20.0026 5.79321 20.0026H6.67194ZM15.3371 14.2617C15.7254 14.2617 16.0402 14.5765 16.0402 14.9648C16.0402 15.3531 15.7254 15.668 15.3371 15.668H8.49928C8.11098 15.668 7.79615 15.3531 7.79615 14.9648C7.79615 14.5765 8.11098 14.2617 8.49928 14.2617H15.3371ZM6.67194 14.2617C7.06024 14.2617 7.37507 14.5765 7.37507 14.9648C7.37507 15.3531 7.06024 15.668 6.67194 15.668H5.79321C5.40491 15.668 5.09009 15.3531 5.09009 14.9648C5.09009 14.5765 5.40491 14.2617 5.79321 14.2617H6.67194ZM15.3371 17.1321C15.7254 17.1321 16.0402 17.4469 16.0402 17.8352C16.0402 18.2235 15.7254 18.5383 15.3371 18.5383H8.49928C8.11098 18.5383 7.79615 18.2235 7.79615 17.8352C7.79615 17.4469 8.11098 17.1321 8.49928 17.1321H15.3371Z" fill="#A79BA7"/>
<path fill-rule="evenodd" clip-rule="evenodd" d="M32.0597 9.95703L33.5429 10.7651V15.0338L32.0597 13.9813L30.5765 15.0338V10.7651L32.0597 9.95703Z" fill="#FFE177"/>
<path fill-rule="evenodd" clip-rule="evenodd" d="M31.3567 3.67188H32.7629V12.0007H31.3567V3.67188Z" fill="#FFE177"/>
<path fill-rule="evenodd" clip-rule="evenodd" d="M33.5431 14.5401V15.0342L32.0599 13.9818L32.4081 13.7347L33.5431 14.5401ZM31.273 14.5401L30.5767 15.0342V10.7655L31.3568 10.3406V3.67188H32.0531V10.3405L31.273 10.7654V14.5401Z" fill="#FFD064"/>
<path fill-rule="evenodd" clip-rule="evenodd" d="M21.4999 3.13086L29.8251 3.33564V10.741C29.8251 11.0938 29.5789 11.3898 29.2319 11.4537C20.2065 13.1253 22.7932 13.1253 13.7679 11.4537C13.421 11.3898 13.1747 11.0938 13.1747 10.741V3.33564L21.4999 3.13086Z" fill="#837683"/>
<path fill-rule="evenodd" clip-rule="evenodd" d="M29.8251 9.44644V10.7416C29.8251 11.0944 29.5789 11.3902 29.2319 11.4542C20.2065 13.1257 22.7932 13.1257 13.7679 11.4542C13.421 11.3902 13.1747 11.0944 13.1747 10.7416V3.3361L14.2927 3.30859V10.2568C22.6931 11.8297 20.3866 11.7972 29.2319 10.1591C29.5789 10.0951 29.8251 9.79923 29.8251 9.44644Z" fill="#685E68"/>
<path fill-rule="evenodd" clip-rule="evenodd" d="M21.4999 0.4375L33.1466 3.53125C33.2899 3.56939 33.2899 3.77392 33.1466 3.81197L21.4999 6.90572L9.85312 3.81197C9.70977 3.77392 9.70977 3.56939 9.85312 3.53125L21.4999 0.4375Z" fill="#837683"/>
<path fill-rule="evenodd" clip-rule="evenodd" d="M30.948 2.94735L33.1466 3.53139C33.2899 3.56953 33.2899 3.77414 33.1466 3.8122L21.4999 6.90586L9.85321 3.81211C9.70986 3.77405 9.70995 3.56944 9.85321 3.5313L12.0518 2.94727L21.4999 5.45698L30.948 2.94735Z" fill="#685E68"/>
<path fill-rule="evenodd" clip-rule="evenodd" d="M40.5569 21.3301C41.6788 21.3301 42.5938 22.2451 42.5938 23.3669V37.4432C42.5938 38.0041 42.3938 38.4868 41.9972 38.8834L38.9129 41.9677C38.5163 42.3643 38.0336 42.5643 37.4727 42.5643H19.3735C18.2517 42.5643 17.3367 41.6493 17.3367 40.5274V23.3669C17.3367 22.2451 18.2516 21.3301 19.3735 21.3301H40.5569Z" fill="#ECEFF1"/>
<path fill-rule="evenodd" clip-rule="evenodd" d="M40.557 21.3301C41.6788 21.3301 42.5938 22.2451 42.5938 23.3669V37.4432C42.5938 38.0041 42.3939 38.4868 41.9972 38.8834H41.0151V37.4432V34.0785V23.3669C41.0151 22.2451 40.1001 21.3301 38.9783 21.3301H40.557Z" fill="#D1D1D6"/>
<path fill-rule="evenodd" clip-rule="evenodd" d="M38.3164 38.7963V42.388C38.5327 42.2892 38.7319 42.1491 38.913 41.968L41.9973 38.8837C42.1784 38.7026 42.3185 38.5034 42.4173 38.2871H38.8256C38.5451 38.2871 38.3164 38.5159 38.3164 38.7963Z" fill="#D1D1D6"/>
<path fill-rule="evenodd" clip-rule="evenodd" d="M41.0151 39.8657L41.9972 38.8837C42.1784 38.7026 42.3185 38.5034 42.4173 38.2871H41.0151V39.8657Z" fill="#B1B1B5"/>
<path fill-rule="evenodd" clip-rule="evenodd" d="M17.3367 25.7752H42.5938V23.3669C42.5938 22.2451 41.6788 21.3301 40.5569 21.3301C33.5458 21.3301 26.3847 21.3301 19.3735 21.3301C18.2517 21.3301 17.3367 22.2451 17.3367 23.3669V25.7752Z" fill="#D1D1D6"/>
<path fill-rule="evenodd" clip-rule="evenodd" d="M41.0151 25.7752H42.5937V23.3669C42.5937 22.2451 41.6787 21.3301 40.5569 21.3301H38.9783C40.1001 21.3301 41.0151 22.2451 41.0151 23.3669V25.7752Z" fill="#B1B1B5"/>
<path fill-rule="evenodd" clip-rule="evenodd" d="M23.2895 28.8691H21.3646C21.0747 28.8691 20.8384 29.1055 20.8384 29.3953V31.3201C20.8384 31.61 21.0747 31.8463 21.3646 31.8463H23.2895C23.5792 31.8463 23.8157 31.61 23.8157 31.3201V29.3953C23.8157 29.1055 23.5793 28.8691 23.2895 28.8691Z" fill="#FE646F"/>
<path fill-rule="evenodd" clip-rule="evenodd" d="M23.2894 28.8691V30.7939C23.2894 31.0837 23.053 31.3201 22.7632 31.3201H20.8384C20.8384 31.61 21.0747 31.8463 21.3646 31.8463H23.2895C23.5792 31.8463 23.8157 31.61 23.8157 31.3201V29.3953C23.8156 29.1055 23.5792 28.8691 23.2894 28.8691Z" fill="#FD4755"/>
<path fill-rule="evenodd" clip-rule="evenodd" d="M27.1086 28.8691H25.1837C24.8939 28.8691 24.6575 29.1055 24.6575 29.3953V31.3201C24.6575 31.61 24.8938 31.8463 25.1837 31.8463H27.1086C27.3984 31.8463 27.6348 31.61 27.6348 31.3201V29.3953C27.6348 29.1055 27.3984 28.8691 27.1086 28.8691Z" fill="#8AC9FE"/>
<path fill-rule="evenodd" clip-rule="evenodd" d="M27.1085 28.8691V30.7939C27.1085 31.0837 26.8721 31.3201 26.5823 31.3201H24.6575C24.6575 31.61 24.8938 31.8463 25.1837 31.8463H27.1086C27.3984 31.8463 27.6348 31.61 27.6348 31.3201V29.3953C27.6347 29.1055 27.3983 28.8691 27.1085 28.8691Z" fill="#60B7FF"/>
<path fill-rule="evenodd" clip-rule="evenodd" d="M30.9276 28.8691H29.0028C28.7129 28.8691 28.4766 29.1055 28.4766 29.3953V31.3201C28.4766 31.61 28.7129 31.8463 29.0028 31.8463H30.9276C31.2174 31.8463 31.4538 31.61 31.4538 31.3201V29.3953C31.4538 29.1055 31.2174 28.8691 30.9276 28.8691Z" fill="#8AC9FE"/>
<path fill-rule="evenodd" clip-rule="evenodd" d="M30.9276 28.8691V30.7939C30.9276 31.0837 30.6912 31.3201 30.4014 31.3201H28.4766C28.4766 31.61 28.7129 31.8463 29.0028 31.8463H30.9276C31.2174 31.8463 31.4538 31.61 31.4538 31.3201V29.3953C31.4538 29.1055 31.2174 28.8691 30.9276 28.8691Z" fill="#60B7FF"/>
<path fill-rule="evenodd" clip-rule="evenodd" d="M34.7467 28.8691H32.8218C32.532 28.8691 32.2957 29.1055 32.2957 29.3953V31.3201C32.2957 31.61 32.532 31.8463 32.8218 31.8463H34.7467C35.0365 31.8463 35.2729 31.61 35.2729 31.3201V29.3953C35.2729 29.1055 35.0365 28.8691 34.7467 28.8691Z" fill="#8AC9FE"/>
<path fill-rule="evenodd" clip-rule="evenodd" d="M34.7467 28.8691V30.7939C34.7467 31.0837 34.5103 31.3201 34.2205 31.3201H32.2957C32.2957 31.61 32.532 31.8463 32.8218 31.8463H34.7467C35.0365 31.8463 35.2729 31.61 35.2729 31.3201V29.3953C35.2729 29.1055 35.0365 28.8691 34.7467 28.8691Z" fill="#60B7FF"/>
<path fill-rule="evenodd" clip-rule="evenodd" d="M38.5658 28.8691H36.6409C36.3512 28.8691 36.1147 29.1055 36.1147 29.3953V31.3201C36.1147 31.61 36.3512 31.8463 36.6409 31.8463H38.5658C38.8556 31.8463 39.092 31.61 39.092 31.3201V29.3953C39.092 29.1055 38.8557 28.8691 38.5658 28.8691Z" fill="#8AC9FE"/>
<path fill-rule="evenodd" clip-rule="evenodd" d="M38.5658 28.8691V30.7939C38.5658 31.0837 38.3294 31.3201 38.0396 31.3201H36.1147C36.1147 31.61 36.3512 31.8463 36.6409 31.8463H38.5658C38.8556 31.8463 39.092 31.61 39.092 31.3201V29.3953C39.092 29.1055 38.8557 28.8691 38.5658 28.8691Z" fill="#60B7FF"/>
<path fill-rule="evenodd" clip-rule="evenodd" d="M38.5658 32.6895H36.6409C36.3512 32.6895 36.1147 32.9259 36.1147 33.2157V35.1405C36.1147 35.4303 36.3512 35.6667 36.6409 35.6667H38.5658C38.8556 35.6667 39.092 35.4304 39.092 35.1405V33.2157C39.092 32.9258 38.8557 32.6895 38.5658 32.6895Z" fill="#8AC9FE"/>
<path fill-rule="evenodd" clip-rule="evenodd" d="M38.5658 32.6895V34.6143C38.5658 34.9041 38.3294 35.1405 38.0396 35.1405H36.1147C36.1147 35.4303 36.3512 35.6667 36.6409 35.6667H38.5658C38.8556 35.6667 39.092 35.4304 39.092 35.1405V33.2157C39.092 32.9258 38.8557 32.6895 38.5658 32.6895Z" fill="#60B7FF"/>
<path fill-rule="evenodd" clip-rule="evenodd" d="M34.7467 32.6895H32.8218C32.532 32.6895 32.2957 32.9259 32.2957 33.2157V35.1405C32.2957 35.4303 32.532 35.6667 32.8218 35.6667H34.7467C35.0365 35.6667 35.2729 35.4304 35.2729 35.1405V33.2157C35.2729 32.9258 35.0365 32.6895 34.7467 32.6895Z" fill="#8AC9FE"/>
<path fill-rule="evenodd" clip-rule="evenodd" d="M34.7467 32.6895V34.6143C34.7467 34.9041 34.5103 35.1405 34.2205 35.1405H32.2957C32.2957 35.4303 32.532 35.6667 32.8218 35.6667H34.7467C35.0365 35.6667 35.2729 35.4304 35.2729 35.1405V33.2157C35.2729 32.9258 35.0365 32.6895 34.7467 32.6895Z" fill="#60B7FF"/>
<path fill-rule="evenodd" clip-rule="evenodd" d="M30.9276 32.6895H29.0028C28.7129 32.6895 28.4766 32.9259 28.4766 33.2157V35.1405C28.4766 35.4303 28.7129 35.6667 29.0028 35.6667H30.9276C31.2174 35.6667 31.4538 35.4304 31.4538 35.1405V33.2157C31.4538 32.9258 31.2174 32.6895 30.9276 32.6895Z" fill="#8AC9FE"/>
<path fill-rule="evenodd" clip-rule="evenodd" d="M30.9276 32.6895V34.6143C30.9276 34.9041 30.6912 35.1405 30.4014 35.1405H28.4766C28.4766 35.4303 28.7129 35.6667 29.0028 35.6667H30.9276C31.2174 35.6667 31.4538 35.4304 31.4538 35.1405V33.2157C31.4538 32.9258 31.2174 32.6895 30.9276 32.6895Z" fill="#60B7FF"/>
<path fill-rule="evenodd" clip-rule="evenodd" d="M27.1086 32.6895H25.1837C24.8939 32.6895 24.6575 32.9259 24.6575 33.2157V35.1405C24.6575 35.4303 24.8938 35.6667 25.1837 35.6667H27.1086C27.3984 35.6667 27.6348 35.4304 27.6348 35.1405V33.2157C27.6348 32.9258 27.3984 32.6895 27.1086 32.6895Z" fill="#8AC9FE"/>
<path fill-rule="evenodd" clip-rule="evenodd" d="M27.1085 32.6895V34.6143C27.1085 34.9041 26.8721 35.1405 26.5823 35.1405H24.6575C24.6575 35.4303 24.8938 35.6667 25.1837 35.6667H27.1086C27.3984 35.6667 27.6348 35.4304 27.6348 35.1405V33.2157C27.6347 32.9258 27.3983 32.6895 27.1085 32.6895Z" fill="#60B7FF"/>
<path fill-rule="evenodd" clip-rule="evenodd" d="M23.2895 32.6895H21.3646C21.0747 32.6895 20.8384 32.9259 20.8384 33.2157V35.1405C20.8384 35.4303 21.0747 35.6667 21.3646 35.6667H23.2895C23.5792 35.6667 23.8157 35.4304 23.8157 35.1405V33.2157C23.8157 32.9258 23.5793 32.6895 23.2895 32.6895Z" fill="#FE646F"/>
<path fill-rule="evenodd" clip-rule="evenodd" d="M23.2894 32.6895V34.6143C23.2894 34.9041 23.053 35.1405 22.7632 35.1405H20.8384C20.8384 35.4303 21.0747 35.6667 21.3646 35.6667H23.2895C23.5792 35.6667 23.8157 35.4304 23.8157 35.1405V33.2157C23.8156 32.9258 23.5792 32.6895 23.2894 32.6895Z" fill="#FD4755"/>
<path fill-rule="evenodd" clip-rule="evenodd" d="M23.2895 36.5078H21.3646C21.0747 36.5078 20.8384 36.7442 20.8384 37.034V38.9589C20.8384 39.2488 21.0747 39.4851 21.3646 39.4851H23.2895C23.5792 39.4851 23.8157 39.2488 23.8157 38.9589V37.034C23.8157 36.7442 23.5793 36.5078 23.2895 36.5078Z" fill="#FE646F"/>
<path fill-rule="evenodd" clip-rule="evenodd" d="M23.2894 36.5078V38.4326C23.2894 38.7225 23.053 38.9588 22.7632 38.9588H20.8384C20.8384 39.2487 21.0747 39.485 21.3646 39.485H23.2895C23.5792 39.485 23.8157 39.2487 23.8157 38.9588V37.0339C23.8156 36.7441 23.5792 36.5078 23.2894 36.5078Z" fill="#FD4755"/>
<path fill-rule="evenodd" clip-rule="evenodd" d="M27.1086 36.5078H25.1837C24.8939 36.5078 24.6575 36.7442 24.6575 37.034V38.9589C24.6575 39.2488 24.8938 39.4851 25.1837 39.4851H27.1086C27.3984 39.4851 27.6348 39.2488 27.6348 38.9589V37.034C27.6348 36.7442 27.3984 36.5078 27.1086 36.5078Z" fill="#8AC9FE"/>
<path fill-rule="evenodd" clip-rule="evenodd" d="M27.1085 36.5078V38.4326C27.1085 38.7225 26.8721 38.9588 26.5823 38.9588H24.6575C24.6575 39.2487 24.8938 39.485 25.1837 39.485H27.1086C27.3984 39.485 27.6348 39.2487 27.6348 38.9588V37.0339C27.6347 36.7441 27.3983 36.5078 27.1085 36.5078Z" fill="#60B7FF"/>
<path fill-rule="evenodd" clip-rule="evenodd" d="M30.9277 36.5078H29.0029C28.713 36.5078 28.4767 36.7442 28.4767 37.034V38.9589C28.4767 39.2488 28.713 39.4851 29.0029 39.4851H30.9277C31.2176 39.4851 31.4539 39.2488 31.4539 38.9589V37.034C31.4539 36.7442 31.2176 36.5078 30.9277 36.5078Z" fill="#8AC9FE"/>
<path fill-rule="evenodd" clip-rule="evenodd" d="M30.9277 36.5078V38.4326C30.9277 38.7225 30.6914 38.9588 30.4015 38.9588H28.4767C28.4767 39.2487 28.713 39.485 29.0029 39.485H30.9277C31.2176 39.485 31.4539 39.2487 31.4539 38.9588V37.0339C31.4539 36.7441 31.2176 36.5078 30.9277 36.5078Z" fill="#60B7FF"/>
<path fill-rule="evenodd" clip-rule="evenodd" d="M34.7468 36.5078H32.8219C32.5321 36.5078 32.2958 36.7442 32.2958 37.034V38.9589C32.2958 39.2488 32.5321 39.4851 32.8219 39.4851H34.7468C35.0366 39.4851 35.273 39.2488 35.273 38.9589V37.034C35.273 36.7442 35.0366 36.5078 34.7468 36.5078Z" fill="#8AC9FE"/>
<path fill-rule="evenodd" clip-rule="evenodd" d="M34.7468 36.5078V38.4326C34.7468 38.7225 34.5104 38.9588 34.2206 38.9588H32.2958C32.2958 39.2487 32.5321 39.485 32.8219 39.485H34.7468C35.0366 39.485 35.273 39.2487 35.273 38.9588V37.0339C35.273 36.7441 35.0366 36.5078 34.7468 36.5078Z" fill="#60B7FF"/>
<path fill-rule="evenodd" clip-rule="evenodd" d="M20.9675 19.6309H21.9772C22.2576 19.6309 22.4864 19.8596 22.4864 20.14V23.2288C22.4864 23.5093 22.2576 23.7381 21.9772 23.7381H20.9675C20.687 23.7381 20.4583 23.5093 20.4583 23.2288V20.14C20.4583 19.8596 20.687 19.6309 20.9675 19.6309ZM37.9531 19.6309H38.9629C39.2434 19.6309 39.4721 19.8596 39.4721 20.14V23.2288C39.4721 23.5093 39.2433 23.7381 38.9629 23.7381H37.9531C37.6727 23.7381 37.444 23.5093 37.444 23.2288V20.14C37.444 19.8596 37.6727 19.6309 37.9531 19.6309ZM32.2913 19.6309H33.301C33.5815 19.6309 33.8102 19.8596 33.8102 20.14V23.2288C33.8102 23.5093 33.5816 23.7381 33.301 23.7381H32.2913C32.0109 23.7381 31.7821 23.5093 31.7821 23.2288V20.14C31.7821 19.8596 32.0109 19.6309 32.2913 19.6309ZM26.6294 19.6309H27.6391C27.9196 19.6309 28.1483 19.8596 28.1483 20.14V23.2288C28.1483 23.5093 27.9196 23.7381 27.6391 23.7381H26.6294C26.3489 23.7381 26.1202 23.5093 26.1202 23.2288V20.14C26.1202 19.8596 26.3489 19.6309 26.6294 19.6309Z" fill="#837683"/>
<path fill-rule="evenodd" clip-rule="evenodd" d="M37.444 23.2289C37.444 23.5094 37.6728 23.7382 37.9531 23.7382H38.9629C39.2434 23.7382 39.4721 23.5094 39.4721 23.2289V21.3785V21.3298V20.1401C39.4721 19.8596 39.2433 19.6309 38.9628 19.6309V21.3298V22.7197C38.9628 23.0001 38.7341 23.2289 38.4536 23.2289H37.444ZM27.1299 23.2289H26.1202C26.1202 23.5094 26.3489 23.7382 26.6293 23.7382H27.6391C27.9196 23.7382 28.1483 23.5094 28.1483 23.2289V21.3298V20.1401C28.1483 19.8596 27.9196 19.6309 27.6391 19.6309V21.3298V22.7197C27.6391 23.0001 27.4103 23.2289 27.1299 23.2289ZM21.9772 23.7382C22.2576 23.7382 22.4864 23.5094 22.4864 23.2289V21.3298V20.1401C22.4864 19.8596 22.2576 19.6309 21.9772 19.6309V21.3298V22.7197C21.9772 23.0001 21.7484 23.2289 21.4679 23.2289H20.4583C20.4583 23.5094 20.687 23.7382 20.9675 23.7382H21.9772ZM33.301 23.7382C33.5815 23.7382 33.8102 23.5094 33.8102 23.2289V21.3298V20.1401C33.8102 19.8596 33.5815 19.6309 33.301 19.6309V21.3298V22.7197C33.301 23.0001 33.0722 23.2289 32.7918 23.2289H31.7821C31.7821 23.5094 32.0108 23.7382 32.2913 23.7382H33.301Z" fill="#685E68"/>
</svg>
