<svg width="46" height="45" viewBox="0 0 46 45" fill="none" xmlns="http://www.w3.org/2000/svg">
<path d="M44.1693 9.6952V11.6151H1.81641V9.6952C1.81641 5.45231 5.25309 2.01562 9.49598 2.01562H36.4898C40.7327 2.01563 44.1693 5.45231 44.1693 9.6952Z" fill="#33527D"/>
<path d="M44.1733 11.6172V33.0383C44.1733 37.2867 40.7319 40.7216 36.4901 40.7216H9.49669C5.25483 40.7216 1.82031 37.2867 1.82031 33.0383V11.6172H44.1733Z" fill="#E5E8EF"/>
<path d="M44.1693 33.041V35.3059C44.1693 39.5488 40.7327 42.9855 36.4898 42.9855H9.49598C5.25309 42.9855 1.81641 39.5488 1.81641 35.3059V33.041C1.81641 37.2839 5.25309 40.7206 9.49598 40.7206H36.4898C40.7327 40.7206 44.1693 37.2839 44.1693 33.041Z" fill="#CDD4DF"/>
<path d="M9.54422 6.81594C9.54422 7.62804 8.90106 8.28813 8.08896 8.28813C7.27686 8.28813 6.61719 7.62804 6.61719 6.81594C6.61719 6.00384 7.27686 5.34375 8.08896 5.34375C8.90106 5.34375 9.54422 6.00384 9.54422 6.81594Z" fill="#4CC66E"/>
<path d="M14.1208 6.81594C14.1208 7.62804 13.4607 8.28813 12.6655 8.28813C11.8534 8.28813 11.1934 7.62804 11.1934 6.81594C11.1934 6.00384 11.8534 5.34375 12.6655 5.34375C13.4607 5.34375 14.1208 6.00384 14.1208 6.81594Z" fill="#FFA300"/>
<path d="M18.6966 6.81594C18.6966 7.62804 18.0365 8.28813 17.2417 8.28813C16.4292 8.28813 15.7695 7.62804 15.7695 6.81594C15.7695 6.00384 16.4292 5.34375 17.2417 5.34375C18.0365 5.34375 18.6966 6.00384 18.6966 6.81594Z" fill="#B244F1"/>
<path d="M7.47451 15.1556C7.47451 15.3534 7.39412 15.5321 7.26508 15.6623C7.13497 15.7913 6.95621 15.8717 6.7584 15.8717H5.54229C5.14666 15.8717 4.82617 15.5512 4.82617 15.1556C4.82617 14.9578 4.90656 14.779 5.03561 14.6489C5.16572 14.5199 5.34447 14.4395 5.54229 14.4395H6.7584C7.154 14.4395 7.47451 14.76 7.47451 15.1556Z" fill="#CDD4DF"/>
<path d="M16.9455 15.1556C16.9455 15.3534 16.8651 15.5321 16.7361 15.6623C16.606 15.7913 16.4272 15.8717 16.2294 15.8717H9.61846C9.22283 15.8717 8.90234 15.5512 8.90234 15.1556C8.90234 14.9578 8.98274 14.779 9.11178 14.6489C9.24189 14.5199 9.42065 14.4395 9.61846 14.4395H16.2294C16.625 14.4395 16.9455 14.76 16.9455 15.1556Z" fill="#CDD4DF"/>
<path d="M12.9221 18.4271C12.9221 18.6249 12.8417 18.8036 12.7127 18.9337C12.5826 19.0628 12.4038 19.1432 12.206 19.1432H5.59503C5.19939 19.1432 4.87891 18.8227 4.87891 18.4271C4.87891 18.2293 4.9593 18.0505 5.08834 17.9204C5.21845 17.7914 5.39721 17.7109 5.59503 17.7109H12.206C12.6016 17.7109 12.9221 18.0315 12.9221 18.4271Z" fill="#CDD4DF"/>
<path d="M31.4144 36.7493L29.1706 36.0233C28.8924 35.9335 28.5885 36.0405 28.4276 36.2845L27.1306 38.2534C26.8344 38.7029 26.1522 38.619 25.9741 38.1113L23.9521 32.3543L22.0156 26.8412L28.27 24.6445L30.5506 31.1361L32.2285 35.9146C32.4066 36.4223 31.9263 36.9145 31.4144 36.7493Z" fill="#079CFF"/>
<path d="M30.5506 31.1361C30.2493 31.315 29.9017 31.4126 29.5482 31.4126C29.4497 31.4126 29.3495 31.4049 29.2511 31.3895L28.2333 31.2345L27.7581 32.2113C27.4251 32.8944 26.7463 33.319 25.9852 33.319C25.564 33.319 25.1608 33.1864 24.8201 32.9355L23.9914 32.3252L23.9521 32.3543L22.0156 26.8412L28.27 24.6445L30.5506 31.1361Z" fill="#005EEE"/>
<path d="M25.7644 26.8412L23.7843 32.4775L21.8059 38.1113C21.6279 38.619 20.9456 38.7029 20.6494 38.2534L19.3524 36.2845C19.1915 36.0405 18.8876 35.9335 18.6094 36.0233L16.3656 36.7493C15.8537 36.9145 15.3735 36.4223 15.5515 35.9146L17.2251 31.1489L19.5099 24.6445L25.7644 26.8412Z" fill="#079CFF"/>
<path d="M25.7639 26.8412L23.7838 32.4775L23.1161 32.9698C22.7745 33.2206 22.3721 33.3533 21.9501 33.3533C21.1891 33.3533 20.5093 32.9287 20.1772 32.2447L19.7278 31.3193L18.6534 31.4836C18.5549 31.4991 18.4539 31.5068 18.3538 31.5068C17.9497 31.5068 17.5542 31.3792 17.2246 31.1489L19.5094 24.6445L25.7639 26.8412Z" fill="#005EEE"/>
<path d="M32.9521 22.7314L32.2242 23.5036C31.9286 23.8171 31.8715 24.2866 32.0835 24.6619L32.6337 25.636C32.923 26.1488 32.6765 26.7977 32.12 26.9894L31.1165 27.3355C30.7093 27.4759 30.4408 27.8649 30.454 28.2954L30.4884 29.4138C30.5063 30.0011 29.9867 30.4616 29.4054 30.3735L28.3565 30.2133C27.9306 30.1482 27.5118 30.368 27.3235 30.7555L26.8346 31.7612C26.577 32.2902 25.9024 32.4563 25.429 32.1079L24.5749 31.4786C24.228 31.2231 23.7552 31.223 23.4083 31.4785L22.5073 32.1421C22.0338 32.4905 21.3593 32.3245 21.1024 31.7954L20.6385 30.841C20.4501 30.4535 20.0314 30.2337 19.6055 30.2988L18.4991 30.4677C17.9179 30.5567 17.3982 30.0961 17.4162 29.508L17.4483 28.4469C17.4613 28.0164 17.1928 27.6275 16.7856 27.4873L15.7281 27.123C15.1716 26.9312 14.9259 26.2823 15.2144 25.7695L15.7359 24.8456C15.9477 24.4705 15.8907 24.0013 15.5954 23.6878L14.8283 22.8735C14.4251 22.4455 14.509 21.7563 15.003 21.437L15.8945 20.861C16.2563 20.6272 16.4239 20.1853 16.3081 19.7704L16.0071 18.6925C15.8488 18.1266 16.2434 17.5547 16.829 17.5017L17.8861 17.406C18.3149 17.3672 18.6686 17.0539 18.759 16.633L18.994 15.5387C19.1164 14.9634 19.7319 14.6407 20.2746 14.8659L21.255 15.2729C21.653 15.4381 22.1122 15.325 22.3879 14.9938L23.1039 14.1339C23.4806 13.6819 24.1749 13.6819 24.5507 14.1339L25.2302 14.9493C25.5058 15.28 25.9644 15.3931 26.3622 15.2283L27.3962 14.8C27.9398 14.5739 28.5545 14.8967 28.6778 15.472L28.9002 16.5101C28.9904 16.9313 29.3442 17.2448 29.7732 17.2836L30.8873 17.3844C31.4728 17.4375 31.8675 18.0085 31.7091 18.5752L31.4237 19.5972C31.3078 20.0122 31.4755 20.4543 31.8375 20.688L32.7774 21.2949C33.2714 21.6142 33.3553 22.3034 32.9521 22.7314Z" fill="#FFD80C"/>
<path d="M29.8553 23.1753C29.8553 26.4651 27.1877 29.1318 23.8979 29.1318C20.608 29.1318 17.9414 26.4651 17.9414 23.1753C17.9414 19.8854 20.608 17.2188 23.8979 17.2188C27.1877 17.2187 29.8553 19.8854 29.8553 23.1753Z" fill="#FFBE00"/>
<path d="M25.3628 26.3905L25.1732 25.2879H24.8645V23.0144L24.7276 22.9945C24.5818 22.9732 24.4534 22.8914 24.3723 22.7715V23.3083H22.2107V22.9261C22.1529 22.9605 22.0885 22.9845 22.0199 22.9945L20.9104 23.1555C20.4841 23.2171 20.3137 23.7418 20.6228 24.0424L21.4249 24.8248C21.5473 24.9447 21.6038 25.1167 21.5747 25.2853L21.3847 26.3905C21.3119 26.8151 21.7579 27.1388 22.1397 26.9384L23.131 26.417C23.2826 26.3374 23.4641 26.3374 23.6156 26.417L24.6077 26.9384C24.9895 27.1396 25.4355 26.8151 25.3628 26.3905Z" fill="#FFA300"/>
<path d="M28.5172 19.4137C27.4908 18.5765 26.181 18.0748 24.754 18.0748C21.4641 18.0748 18.7975 20.7414 18.7975 24.0313C18.7975 25.4575 19.2991 26.7673 20.1364 27.7929C18.7966 26.7014 17.9414 25.038 17.9414 23.1753C17.9414 19.8854 20.608 17.2188 23.8979 17.2188C25.7607 17.2188 27.4249 18.074 28.5172 19.4137Z" fill="#FFA300"/>
<path d="M25.8479 24.0172C25.7255 24.1371 25.669 24.3092 25.6981 24.4778L25.8881 25.583C25.9609 26.0076 25.5149 26.332 25.1331 26.1309L24.1409 25.6095C23.9894 25.5299 23.8079 25.5299 23.6564 25.6095L22.6651 26.1309C22.2833 26.3312 21.8373 26.0076 21.91 25.583L22.1001 24.4778C22.1292 24.3092 22.0727 24.1371 21.9502 24.0172L21.1481 23.2348C20.8391 22.9343 21.0095 22.4096 21.4358 22.3479L22.5452 22.187C22.7147 22.1621 22.8611 22.056 22.9364 21.9028L23.433 20.8977C23.623 20.5108 24.1743 20.5108 24.3652 20.8969L24.8617 21.9028C24.9371 22.056 25.0835 22.1621 25.253 22.187L26.3624 22.3479C26.7887 22.4096 26.9591 22.9343 26.6501 23.2348L25.8479 24.0172Z" fill="#FFD80C"/>
</svg>
