<svg width="48" height="45" viewBox="0 0 48 45" fill="none" xmlns="http://www.w3.org/2000/svg">
<path fill-rule="evenodd" clip-rule="evenodd" d="M33.9471 36.4448H6.0303C5.77876 36.4448 5.57227 36.2482 5.57227 36.0055V2.72452C5.57227 2.48186 5.77885 2.28516 6.0303 2.28516H33.9471C34.1986 2.28516 34.4051 2.48177 34.4051 2.72452V36.0055C34.4052 36.2481 34.1986 36.4448 33.9471 36.4448Z" fill="#CACBCD"/>
<path fill-rule="evenodd" clip-rule="evenodd" d="M33.7722 36.4448H6.0303C5.77876 36.4448 5.57227 36.2482 5.57227 36.0055V2.86523H33.3142C33.5657 2.86523 33.7722 3.06185 33.7722 3.3046V36.4448Z" fill="#ECEFF0"/>
<path fill-rule="evenodd" clip-rule="evenodd" d="M24.2861 17.5808H18.7081C18.4566 17.5808 18.25 17.3842 18.25 17.1415C18.25 16.8984 18.4566 16.7017 18.7081 16.7017H24.2861C24.5422 16.7017 24.7443 16.8984 24.7443 17.1415C24.7443 17.3842 24.5422 17.5808 24.2861 17.5808ZM30.0258 7.4161H20.5047C20.2531 7.4161 20.0466 7.21949 20.0466 6.97639C20.0466 6.73372 20.2531 6.53711 20.5047 6.53711H30.0259C30.2774 6.53711 30.484 6.73372 30.484 6.97639C30.4839 7.21949 30.2773 7.4161 30.0258 7.4161ZM27.6545 9.54139H23.2532C23.0016 9.54139 22.7951 9.34434 22.7951 9.10202C22.7951 8.85892 23.0017 8.66222 23.2532 8.66222H27.6545C27.9059 8.66222 28.1125 8.85883 28.1125 9.10202C28.1126 9.34425 27.906 9.54139 27.6545 9.54139ZM30.7803 20.2744H18.7082C18.4567 20.2744 18.2501 20.0778 18.2501 19.835C18.2501 19.5923 18.4567 19.3958 18.7082 19.3958H30.7804C31.0318 19.3958 31.2384 19.5924 31.2384 19.835C31.2384 20.0777 31.0318 20.2744 30.7803 20.2744ZM30.7803 22.968H18.7082C18.4567 22.968 18.2501 22.7714 18.2501 22.5287C18.2501 22.2861 18.4567 22.0894 18.7082 22.0894H30.7804C31.0318 22.0894 31.2384 22.286 31.2384 22.5287C31.2384 22.7714 31.0318 22.968 30.7803 22.968ZM24.2861 27.2007H18.7081C18.4566 27.2007 18.25 27.0041 18.25 26.7614C18.25 26.5187 18.4566 26.322 18.7081 26.322H24.2861C24.5422 26.322 24.7443 26.5186 24.7443 26.7614C24.7443 27.0041 24.5422 27.2007 24.2861 27.2007ZM30.7803 29.8947H18.7082C18.4567 29.8947 18.2501 29.6981 18.2501 29.4549C18.2501 29.2123 18.4567 29.0157 18.7082 29.0157H30.7804C31.0318 29.0157 31.2384 29.2123 31.2384 29.4549C31.2384 29.6981 31.0318 29.8947 30.7803 29.8947ZM30.7803 32.5884H18.7082C18.4567 32.5884 18.2501 32.3918 18.2501 32.1491C18.2501 31.9064 18.4567 31.7097 18.7082 31.7097H30.7804C31.0318 31.7097 31.2384 31.9063 31.2384 32.1491C31.2384 32.3917 31.0318 32.5884 30.7803 32.5884Z" fill="#615260"/>
<path fill-rule="evenodd" clip-rule="evenodd" d="M15.786 22.9673H10.1631C9.90717 22.9673 9.70508 22.7707 9.70508 22.5281V17.1409C9.70508 16.8978 9.90717 16.7012 10.1631 16.7012H15.786C16.0374 16.7012 16.2441 16.8978 16.2441 17.1409V22.5281C16.244 22.7707 16.0374 22.9673 15.786 22.9673Z" fill="#CF515A"/>
<path fill-rule="evenodd" clip-rule="evenodd" d="M15.6917 22.9684H10.1612C9.90522 22.9684 9.70312 22.7718 9.70312 22.5291V17.2031H15.2337C15.4851 17.2031 15.6918 17.3997 15.6918 17.6428L15.6917 22.9684Z" fill="#EF525F"/>
<path fill-rule="evenodd" clip-rule="evenodd" d="M15.786 32.5886H10.1631C9.90717 32.5886 9.70508 32.392 9.70508 32.1492V26.7616C9.70508 26.519 9.90717 26.3223 10.1631 26.3223H15.786C16.0374 26.3223 16.2441 26.5189 16.2441 26.7616V32.1492C16.244 32.3919 16.0374 32.5886 15.786 32.5886Z" fill="#5CA882"/>
<path fill-rule="evenodd" clip-rule="evenodd" d="M15.6917 32.5896H10.1612C9.90522 32.5896 9.70312 32.393 9.70312 32.1502V26.8242H15.2337C15.4851 26.8242 15.6918 27.0208 15.6918 27.2636L15.6917 32.5896Z" fill="#60C090"/>
<path fill-rule="evenodd" clip-rule="evenodd" d="M12.5954 20.9957C12.4741 20.9957 12.3574 20.9496 12.2721 20.867L11.5175 20.1445C11.3379 19.9729 11.3379 19.6949 11.5175 19.5233C11.6927 19.3515 11.9846 19.3515 12.1643 19.5233L12.5954 19.935L13.7811 18.8003C13.9562 18.6291 14.2481 18.6291 14.4278 18.8003C14.6075 18.972 14.6075 19.2504 14.4278 19.4221L12.9189 20.867C12.8335 20.9496 12.7167 20.9957 12.5954 20.9957Z" fill="#615260"/>
<path fill-rule="evenodd" clip-rule="evenodd" d="M12.5954 30.617C12.4741 30.617 12.3574 30.571 12.2721 30.4884L11.5175 29.7655C11.3379 29.5942 11.3379 29.3158 11.5175 29.1442C11.6927 28.9725 11.9846 28.9725 12.1643 29.1442L12.5954 29.5564L13.7811 28.4217C13.9562 28.2501 14.2481 28.2501 14.4278 28.4217C14.6075 28.5934 14.6075 28.8714 14.4278 29.043L12.9189 30.4884C12.8335 30.571 12.7167 30.617 12.5954 30.617Z" fill="#615260"/>
<path fill-rule="evenodd" clip-rule="evenodd" d="M17.6929 13.9809H9.72562C9.47408 13.9809 9.26758 13.7843 9.26758 13.5415C9.26758 11.1943 11.2616 9.28516 13.7092 9.28516C16.1613 9.28516 18.151 11.1943 18.151 13.5415C18.151 13.7842 17.9489 13.9809 17.6929 13.9809Z" fill="#6E9FC1"/>
<path fill-rule="evenodd" clip-rule="evenodd" d="M17.4751 13.9799H9.72562C9.47408 13.9799 9.26758 13.7833 9.26758 13.5405C9.26758 12.4021 9.73672 11.3667 10.4991 10.6022C11.2188 10.1207 12.0932 9.83789 13.035 9.83789C15.4472 9.83789 17.4117 11.6854 17.4751 13.9799Z" fill="#76B4E2"/>
<path fill-rule="evenodd" clip-rule="evenodd" d="M13.7094 10.1638C12.3845 10.1638 11.3066 9.13019 11.3066 7.86043C11.3066 6.59023 12.3845 5.55664 13.7094 5.55664C15.0342 5.55664 16.1121 6.59023 16.1121 7.86043C16.1121 9.13019 15.0343 10.1638 13.7094 10.1638Z" fill="#CEAFA6"/>
<path fill-rule="evenodd" clip-rule="evenodd" d="M13.7094 10.1633C12.3845 10.1633 11.3066 9.1297 11.3066 7.85994C11.3066 7.08782 11.7049 6.40324 12.3147 5.98506C12.6 5.87027 12.9132 5.80664 13.2415 5.80664C14.5664 5.80664 15.6443 6.84023 15.6443 8.11043C15.6443 8.88229 15.246 9.56669 14.6361 9.98487C14.3508 10.0997 14.0378 10.1633 13.7094 10.1633Z" fill="#F0CCBE"/>
<path fill-rule="evenodd" clip-rule="evenodd" d="M36.2424 42.714C36.2064 42.714 36.175 42.7106 36.1391 42.7037C35.9729 42.668 35.8427 42.5462 35.7977 42.3883L33.9474 35.7735L32.097 42.3883C32.0521 42.5462 31.9219 42.6679 31.7557 42.7037C31.5851 42.739 31.4144 42.6831 31.3021 42.5578L29.856 40.9102L27.7407 41.6425C27.5789 41.6981 27.3993 41.6636 27.2735 41.5531C27.1478 41.4425 27.0984 41.2738 27.1388 41.1154L29.4697 32.7846C29.5012 32.6698 29.582 32.5721 29.6898 32.514C29.8021 32.4564 29.9278 32.4435 30.0446 32.4779L33.9474 33.616L37.8502 32.4779C37.967 32.4435 38.0928 32.4564 38.2051 32.514C38.3128 32.5721 38.3937 32.6698 38.4251 32.7846L40.756 41.1154C40.7964 41.2738 40.7471 41.4425 40.6213 41.5531C40.4955 41.6636 40.3159 41.6985 40.1542 41.6425L38.0388 40.9102L36.5927 42.5578C36.5029 42.6581 36.3726 42.714 36.2424 42.714Z" fill="#D9B667"/>
<path fill-rule="evenodd" clip-rule="evenodd" d="M35.8733 42.5375C35.8393 42.4935 35.8133 42.443 35.7977 42.3882L33.9474 35.7734L33.7331 36.5394L33.4729 35.6091L31.6225 42.2239C31.5779 42.3805 31.4495 42.5017 31.2852 42.5385L29.6347 40.6582L27.2661 41.4783C27.2497 41.484 27.2331 41.4886 27.2164 41.4924C27.1337 41.3858 27.1052 41.2471 27.1388 41.1154L29.4697 32.7846C29.5012 32.6698 29.582 32.5721 29.6898 32.514C29.8021 32.4564 29.9278 32.4435 30.0446 32.4779L33.9474 33.616L37.8502 32.4779C37.8585 32.4754 37.8668 32.4732 37.8752 32.4713C37.9098 32.5156 37.9357 32.5661 37.9506 32.6205L40.2815 40.9513C40.3219 41.1096 40.2725 41.2783 40.1467 41.3889C40.0217 41.4988 39.8435 41.5339 39.6826 41.4794L37.5643 40.746L36.1182 42.3936C36.0528 42.4666 35.966 42.5161 35.8733 42.5375Z" fill="#FFD46D"/>
<path fill-rule="evenodd" clip-rule="evenodd" d="M32.0796 37.5321C31.6574 37.5321 31.2487 37.3583 30.9658 37.0382L30.1394 36.1191C30.0496 36.0193 29.9553 35.9668 29.8206 35.9423L28.5765 35.7185C27.9748 35.6105 27.5166 35.1681 27.3998 34.5916L27.1663 33.401C27.1438 33.2719 27.09 33.1802 26.9822 33.0951L26.0256 32.3054C25.5584 31.9237 25.3923 31.3197 25.5944 30.7663L26.0121 29.623C26.057 29.4995 26.057 29.3937 26.0121 29.2698L25.5944 28.127C25.3923 27.5736 25.5584 26.9695 26.0256 26.5874L26.9822 25.7982C27.09 25.7129 27.1438 25.6214 27.1663 25.4923L27.3998 24.3017C27.5166 23.7251 27.9748 23.2828 28.5765 23.1748L29.8206 22.951C29.9553 22.9269 30.0496 22.8739 30.1394 22.7741L30.9658 21.8551C31.361 21.4102 31.9943 21.2479 32.5692 21.4424L33.7638 21.8444C33.894 21.8878 34.0018 21.8878 34.1321 21.8444L35.3267 21.4424C35.9017 21.2479 36.5348 21.4102 36.9301 21.8551L37.7565 22.7741C37.8463 22.874 37.9406 22.9269 38.0753 22.951L39.3194 23.1748C39.9211 23.2828 40.3793 23.725 40.4961 24.3017L40.7296 25.4923C40.7521 25.6214 40.8059 25.713 40.9137 25.7982L41.8703 26.5874C42.3375 26.9694 42.5036 27.5736 42.3015 28.127L41.8838 29.2698C41.839 29.3937 41.839 29.4995 41.8838 29.623L42.3015 30.7667C42.5036 31.3197 42.3375 31.9237 41.8703 32.3054L40.9137 33.0951C40.8059 33.1802 40.752 33.2719 40.7296 33.401L40.4961 34.5916C40.3793 35.1681 39.9211 35.6105 39.3194 35.7185L38.0753 35.9423C37.9406 35.9664 37.8463 36.0193 37.7565 36.1191L36.9301 37.0382C36.5349 37.4831 35.9017 37.6458 35.3267 37.4508L34.1321 37.0489C34.0018 37.0055 33.894 37.0055 33.7638 37.0489L32.5692 37.4508C32.4074 37.5055 32.2412 37.5321 32.0796 37.5321Z" fill="#CF515A"/>
<path fill-rule="evenodd" clip-rule="evenodd" d="M31.8994 37.5206C31.5429 37.4785 31.2082 37.3116 30.9658 37.0373L30.1394 36.1183C30.0496 36.0184 29.9553 35.9659 29.8206 35.9414L28.5765 35.7177C27.9748 35.6096 27.5166 35.1673 27.3998 34.5907L27.1663 33.4002C27.1438 33.271 27.09 33.1794 26.9822 33.0942L26.0256 32.3046C25.5584 31.9229 25.3923 31.3188 25.5944 30.7655L26.0121 29.6222C26.057 29.4987 26.057 29.3929 26.0121 29.2689L25.5944 28.1261C25.3923 27.5727 25.5584 26.9687 26.0256 26.5865L26.9822 25.7974C27.09 25.7121 27.1438 25.6205 27.1663 25.4914L27.3998 24.3008C27.5166 23.7243 27.9748 23.2819 28.5765 23.1739L29.8206 22.9501C29.9553 22.9261 30.0496 22.8731 30.1394 22.7733L30.9658 21.8542C31.2095 21.5799 31.5436 21.4131 31.8989 21.3711C32.0038 21.3835 32.1086 21.4068 32.2114 21.4416L33.4061 21.8435C33.5345 21.8864 33.6412 21.8869 33.7691 21.8453C33.8969 21.8869 34.0036 21.8864 34.1321 21.8435L35.3267 21.4416C35.4296 21.4068 35.5343 21.3835 35.6393 21.3711C35.9945 21.4131 36.3286 21.5799 36.5723 21.8542L37.3987 22.7733C37.4885 22.8731 37.5828 22.9261 37.7176 22.9501L38.9616 23.1739C39.5634 23.2819 40.0215 23.7242 40.1383 24.3008L40.3718 25.4914C40.3943 25.6205 40.4482 25.7122 40.556 25.7974L41.5126 26.5865C41.9797 26.9686 42.1458 27.5727 41.9437 28.1261L41.5261 29.2689C41.4811 29.3929 41.4811 29.4987 41.5261 29.6222L41.9437 30.7659C42.1458 31.3188 41.9797 31.9229 41.5126 32.3046L40.556 33.0942C40.4482 33.1794 40.3942 33.271 40.3718 33.4002L40.1383 34.5907C40.0215 35.1673 39.5634 35.6096 38.9616 35.7177L37.7176 35.9414C37.5828 35.9655 37.4885 36.0184 37.3987 36.1183L36.5723 37.0373C36.3287 37.3116 35.9946 37.4785 35.6394 37.5206C35.5344 37.5083 35.4297 37.4849 35.3267 37.45L34.1321 37.0481C34.0035 37.0052 33.8969 37.0046 33.7691 37.0463C33.6412 37.0046 33.5345 37.0052 33.4061 37.0481L32.2114 37.45C32.1084 37.4848 32.0036 37.5083 31.8994 37.5206Z" fill="#EF525F"/>
<path d="M33.9473 34.9501C37.1197 34.9501 39.6914 32.4861 39.6914 29.4467C39.6914 26.4073 37.1197 23.9434 33.9473 23.9434C30.7749 23.9434 28.2031 26.4073 28.2031 29.4467C28.2031 32.4861 30.7749 34.9501 33.9473 34.9501Z" fill="#D9B667"/>
<path d="M33.6996 34.945C36.7352 34.945 39.196 32.4835 39.196 29.4471C39.196 26.4107 36.7352 23.9492 33.6996 23.9492C30.664 23.9492 28.2031 26.4107 28.2031 29.4471C28.2031 32.4835 30.664 34.945 33.6996 34.945Z" fill="#FFD46D"/>
<path fill-rule="evenodd" clip-rule="evenodd" d="M33.1655 31.3821C33.0487 31.3821 32.932 31.3391 32.8421 31.2535L31.2792 29.7574C31.0996 29.5857 31.0996 29.3077 31.2792 29.1361C31.459 28.9644 31.7509 28.9644 31.9305 29.1361L33.1655 30.3211L35.9635 27.6405C36.1431 27.4688 36.435 27.4688 36.6147 27.6405C36.7943 27.8117 36.7943 28.0901 36.6147 28.2618L33.4889 31.2536C33.3991 31.3391 33.2823 31.3821 33.1655 31.3821Z" fill="#ECEFF0"/>
</svg>
