<svg width="48" height="45" viewBox="0 0 48 45" fill="none" xmlns="http://www.w3.org/2000/svg">
<path fill-rule="evenodd" clip-rule="evenodd" d="M17.7813 43.0498H26.5577C26.7973 43.0498 26.9747 42.8417 26.9269 42.6167C26.4757 40.4951 24.5173 38.8984 22.1695 38.8984C19.8217 38.8984 17.8633 40.4951 17.4122 42.6167C17.3642 42.8417 17.5417 43.0498 17.7813 43.0498Z" fill="#8AC9FE"/>
<path fill-rule="evenodd" clip-rule="evenodd" d="M25.6994 43.0498H26.5575C26.7971 43.0498 26.9745 42.8417 26.9267 42.6167C26.4755 40.4951 24.5171 38.8984 22.1693 38.8984C22.0247 38.8984 21.8816 38.9046 21.7402 38.9165C23.8944 39.0972 25.6452 40.6257 26.0686 42.6167C26.1164 42.8417 25.939 43.0498 25.6994 43.0498Z" fill="#60B7FF"/>
<path d="M22.1697 38.0203C23.5255 38.0203 24.6245 36.9673 24.6245 35.6684C24.6245 34.3694 23.5255 33.3164 22.1697 33.3164C20.8139 33.3164 19.7148 34.3694 19.7148 35.6684C19.7148 36.9673 20.8139 38.0203 22.1697 38.0203Z" fill="#F6DCCD"/>
<path fill-rule="evenodd" clip-rule="evenodd" d="M22.1701 33.3164C23.5259 33.3164 24.625 34.3694 24.625 35.6684C24.625 36.9673 23.5259 38.0203 22.1701 38.0203C22.0541 38.0203 21.9399 38.0124 21.8281 37.9975C23.022 37.838 23.941 36.856 23.941 35.6684C23.941 34.4806 23.022 33.4987 21.8281 33.3393C21.9399 33.3243 22.054 33.3164 22.1701 33.3164Z" fill="#F1CBBC"/>
<path fill-rule="evenodd" clip-rule="evenodd" d="M19.1798 4.53556C19.1798 3.1119 20.3954 1.94727 21.8815 1.94727H43.2947C44.7806 1.94727 45.9962 3.11243 45.9962 4.53556V20.0787C45.9962 21.5019 44.78 22.667 43.2947 22.667H21.8814C20.3964 22.667 19.1797 21.5024 19.1797 20.0787L19.1798 4.53556Z" fill="#ECEFF1"/>
<path fill-rule="evenodd" clip-rule="evenodd" d="M42.377 1.94727H43.2943C44.7802 1.94727 45.9958 3.11243 45.9958 4.53556V20.0787C45.9958 21.5019 44.7797 22.667 43.2943 22.667H42.377C43.8623 22.667 45.0785 21.5019 45.0785 20.0787V4.53556C45.0784 3.11243 43.8628 1.94727 42.377 1.94727Z" fill="#D1D1D6"/>
<path fill-rule="evenodd" clip-rule="evenodd" d="M23.8628 20.2892C23.4575 20.2892 23.1289 19.9743 23.1289 19.586C23.1289 19.1977 23.4575 18.8829 23.8628 18.8829H42.5265C42.9318 18.8829 43.2604 19.1977 43.2604 19.586C43.2604 19.9743 42.9318 20.2892 42.5265 20.2892H23.8628ZM23.8628 17.6523C23.4575 17.6523 23.1289 17.3375 23.1289 16.9492C23.1289 16.5609 23.4575 16.2461 23.8628 16.2461H37.8566C38.2619 16.2461 38.5905 16.5609 38.5905 16.9492C38.5905 17.3375 38.2619 17.6523 37.8566 17.6523H23.8628Z" fill="#A79BA7"/>
<path fill-rule="evenodd" clip-rule="evenodd" d="M6.63587 41.8543H14.5849C15.0733 41.8542 15.4717 41.473 15.4725 41.0051L15.512 17.5547L17.5533 15.1893H22.7061C23.0804 15.1893 23.421 15.0508 23.6752 14.8243L27.6093 11.8789C28.2265 11.4169 28.3362 10.5631 27.854 9.97164C27.3718 9.38023 26.4806 9.27528 25.8633 9.73724L22.2244 12.4616H6.42396C4.46035 12.4616 2.01816 13.6686 2.00697 15.7985L1.96293 24.2203C1.95321 26.0551 3.60317 27.5567 5.68007 27.5567L5.74805 41.0079C5.75043 41.4749 6.14838 41.8543 6.63587 41.8543Z" fill="#8AC9FE"/>
<path fill-rule="evenodd" clip-rule="evenodd" d="M5.04306 27.5081C5.20387 27.5328 5.36826 27.5481 5.53577 27.5538H6.46341V15.7937C6.46341 15.418 6.14545 15.1133 5.75319 15.1133C5.36092 15.1133 5.04297 15.4179 5.04297 15.7937L5.04306 27.5081Z" fill="#60B7FF"/>
<path fill-rule="evenodd" clip-rule="evenodd" d="M6.63548 41.8542H14.5845C15.0729 41.8542 15.4713 41.473 15.4721 41.005L15.4948 27.5566H5.67969L5.74766 41.0079C5.75005 41.4748 6.148 41.8542 6.63548 41.8542Z" fill="#837683"/>
<path fill-rule="evenodd" clip-rule="evenodd" d="M9.91016 41.8534H11.3306V31.0398C11.3306 30.664 11.0126 30.3594 10.6204 30.3594C10.2281 30.3594 9.91016 30.664 9.91016 31.0398V41.8534Z" fill="#685E68"/>
<path fill-rule="evenodd" clip-rule="evenodd" d="M17.5228 15.2694H22.6755C23.0498 15.2694 23.3905 15.1309 23.6446 14.9044L27.5788 11.9589C28.196 11.497 28.3056 10.6431 27.8234 10.0517C27.3412 9.4603 26.45 9.35536 25.8327 9.81732L22.1939 12.5417H16.668V16.26L17.5228 15.2694Z" fill="#8AC9FE"/>
<path fill-rule="evenodd" clip-rule="evenodd" d="M10.6219 3.25391C12.7354 3.25391 14.4487 4.40791 14.4487 7.06924C14.4487 9.73057 12.7353 11.888 10.6219 11.888C8.50827 11.888 6.79492 9.73048 6.79492 7.06924C6.79492 4.408 8.50836 3.25391 10.6219 3.25391Z" fill="#F6DCCD"/>
<path fill-rule="evenodd" clip-rule="evenodd" d="M10.6231 3.25391C12.7366 3.25391 14.45 4.40791 14.45 7.06924C14.45 9.73057 12.7366 11.888 10.6231 11.888C10.5239 11.888 10.4255 11.8832 10.3281 11.8739C12.3037 11.6842 13.86 9.6055 13.86 7.06924C13.86 4.53289 12.3037 3.3657 10.3281 3.26164C10.4255 3.25646 10.5239 3.25391 10.6231 3.25391Z" fill="#F1CBBC"/>
<path fill-rule="evenodd" clip-rule="evenodd" d="M37.9526 4.50703C38.4941 4.63052 39.0114 4.83618 39.4853 5.11585L40.4814 4.69204L41.6552 5.81669L41.213 6.77065C41.505 7.22487 41.7196 7.72058 41.8485 8.23957L42.8647 8.61434V10.2049L41.8482 10.5797C41.7193 11.0985 41.5047 11.5941 41.2128 12.0481L41.6551 13.0025L40.4813 14.1271L39.4856 13.7034C39.0115 13.9831 38.4941 14.1888 37.9524 14.3123L37.5612 15.2859H35.9011L35.5098 14.312C34.9683 14.1885 34.451 13.9829 33.9771 13.7032L32.981 14.127L31.8071 13.0024L32.2494 12.0484C31.9574 11.5942 31.7427 11.0984 31.6138 10.5795L30.5977 10.2047V8.61434L31.614 8.23957C31.7429 7.72066 31.9575 7.22505 32.2495 6.77092L31.8072 5.81678L32.9811 4.69204L33.9771 5.11585C34.4511 4.83618 34.9683 4.63052 35.5099 4.50703L35.9012 3.5332H37.5612L37.9526 4.50703Z" fill="#FFE177"/>
<path fill-rule="evenodd" clip-rule="evenodd" d="M33.9776 13.7033L32.9815 14.1271L32.8281 13.9801L33.762 13.5828C33.8329 13.6246 33.9047 13.6648 33.9776 13.7033ZM37.9529 4.50694C38.4944 4.63043 39.0117 4.83609 39.4856 5.11576L39.2025 5.23626C38.7285 4.95668 37.9957 4.63052 37.4542 4.50703L37.0629 3.5332H37.5616L37.9529 4.50694ZM39.4859 13.7034C39.0119 13.9831 38.4945 14.1888 37.9528 14.3123L37.5616 15.2858H37.0629L37.4541 14.3123C37.9958 14.1888 38.7288 13.8626 39.2028 13.5829L39.4859 13.7034ZM32.8281 4.83882L32.9815 4.69187L33.9775 5.11567C33.9047 5.15417 33.8328 5.19434 33.7619 5.23617L32.8281 4.83882ZM40.1364 4.83882L40.4816 4.69187L41.6555 5.81651L41.2132 6.77048C41.5052 7.2247 41.7199 7.7204 41.8488 8.23939L42.8649 8.61416V10.2047L41.8485 10.5795C41.7196 11.0983 41.505 11.5939 41.2131 12.048L41.6554 13.0023L40.4816 14.1269L40.1363 13.98L41.1568 13.0022L40.7145 12.0479C41.0064 11.5937 41.221 11.0982 41.3499 10.5794L42.3664 10.2046V8.61425L41.3502 8.23948C41.2213 7.72049 41.0066 7.22478 40.7147 6.77057L41.1569 5.8166L40.1364 4.83882Z" fill="#FFD064"/>
<path d="M37.4671 12.4085C39.2024 12.0155 40.2765 10.3492 39.8664 8.6867C39.4562 7.0242 37.717 5.99506 35.9818 6.38805C34.2465 6.78103 33.1724 8.44733 33.5825 10.1098C33.9927 11.7723 35.7319 12.8015 37.4671 12.4085Z" fill="#ECEFF1"/>
<path fill-rule="evenodd" clip-rule="evenodd" d="M36.731 6.31641C34.9474 6.31641 33.502 7.70139 33.502 9.41016C33.502 11.1189 34.9475 12.5038 36.731 12.5038C36.8175 12.5038 36.9031 12.5005 36.9878 12.4941C35.3245 12.3686 34.0156 11.036 34.0156 9.41007C34.0156 7.78409 35.3245 6.45149 36.9878 6.32607C36.9031 6.31975 36.8174 6.31641 36.731 6.31641Z" fill="#D1D1D6"/>
<path fill-rule="evenodd" clip-rule="evenodd" d="M34.8282 9.98608C34.5416 9.71151 34.5416 9.26634 34.8282 8.99186C35.1148 8.71729 35.5794 8.71729 35.8659 8.99186L36.1799 9.29271L37.6228 8.03825C37.922 7.77739 38.3854 7.79822 38.6576 8.08492C38.9299 8.37162 38.9082 8.81555 38.6089 9.07641L36.6774 10.7557L36.6734 10.7597C36.3868 11.0343 35.9222 11.0343 35.6356 10.7597L34.8282 9.98608Z" fill="#8AC9FE"/>
<path fill-rule="evenodd" clip-rule="evenodd" d="M27.3125 43.0498H36.0889C36.3285 43.0498 36.5059 42.8417 36.4581 42.6167C36.0069 40.4951 34.0485 38.8984 31.7008 38.8984C29.353 38.8984 27.3946 40.4951 26.9434 42.6167C26.8955 42.8417 27.0729 43.0498 27.3125 43.0498Z" fill="#8AC9FE"/>
<path fill-rule="evenodd" clip-rule="evenodd" d="M35.2305 43.0498H36.0886C36.3282 43.0498 36.5057 42.8417 36.4579 42.6167C36.0066 40.4951 34.0482 38.8984 31.7005 38.8984C31.556 38.8984 31.4128 38.9046 31.2715 38.9165C33.4256 39.0972 35.1764 40.6257 35.5999 42.6167C35.6476 42.8417 35.4701 43.0498 35.2305 43.0498Z" fill="#60B7FF"/>
<path d="M32.6565 37.8362C33.9092 37.3387 34.5039 35.9625 33.9846 34.7622C33.4653 33.562 32.0288 32.9923 30.7761 33.4898C29.5234 33.9873 28.9288 35.3636 29.448 36.5638C29.9673 37.7641 31.4038 38.3337 32.6565 37.8362Z" fill="#F6DCCD"/>
<path fill-rule="evenodd" clip-rule="evenodd" d="M31.7014 33.3164C33.0571 33.3164 34.1562 34.3694 34.1562 35.6684C34.1562 36.9673 33.0571 38.0203 31.7014 38.0203C31.5853 38.0203 31.4711 38.0124 31.3594 37.9975C32.5532 37.838 33.4722 36.856 33.4722 35.6684C33.4722 34.4806 32.5532 33.4987 31.3594 33.3393C31.4711 33.3243 31.5853 33.3164 31.7014 33.3164Z" fill="#F1CBBC"/>
<path fill-rule="evenodd" clip-rule="evenodd" d="M36.8419 43.0498H45.6183C45.8579 43.0498 46.0353 42.8417 45.9875 42.6167C45.5363 40.4951 43.5779 38.8984 41.2301 38.8984C38.8823 38.8984 36.9239 40.4951 36.4727 42.6167C36.4249 42.8417 36.6023 43.0498 36.8419 43.0498Z" fill="#8AC9FE"/>
<path fill-rule="evenodd" clip-rule="evenodd" d="M44.7599 43.0498H45.618C45.8576 43.0498 46.035 42.8417 45.9872 42.6167C45.536 40.4951 43.5776 38.8984 41.2298 38.8984C41.0853 38.8984 40.9421 38.9046 40.8008 38.9165C42.955 39.0972 44.7057 40.6257 45.1292 42.6167C45.177 42.8417 44.9996 43.0498 44.7599 43.0498Z" fill="#60B7FF"/>
<path d="M41.2302 38.0203C42.586 38.0203 43.6851 36.9673 43.6851 35.6684C43.6851 34.3694 42.586 33.3164 41.2302 33.3164C39.8745 33.3164 38.7754 34.3694 38.7754 35.6684C38.7754 36.9673 39.8745 38.0203 41.2302 38.0203Z" fill="#F6DCCD"/>
<path fill-rule="evenodd" clip-rule="evenodd" d="M41.2307 33.3164C42.5864 33.3164 43.6855 34.3694 43.6855 35.6684C43.6855 36.9673 42.5864 38.0203 41.2307 38.0203C41.1146 38.0203 41.0004 38.0124 40.8887 37.9975C42.0825 37.838 43.0015 36.856 43.0015 35.6684C43.0015 34.4806 42.0825 33.4987 40.8887 33.3393C41.0004 33.3243 41.1145 33.3164 41.2307 33.3164Z" fill="#F1CBBC"/>
</svg>
