<svg width="48" height="45" viewBox="0 0 48 45" fill="none" xmlns="http://www.w3.org/2000/svg">
<g clip-path="url(#clip0_17823_953)">
<path d="M30.9566 1.59465V43.4021C30.9566 43.8974 30.538 44.2976 30.022 44.2976H1.42688C0.91087 44.2975 0.492188 43.8974 0.492188 43.4021V1.59465C0.492188 1.09938 0.91087 0.699219 1.42688 0.699219H30.022C30.538 0.699219 30.9566 1.09938 30.9566 1.59465Z" fill="#F8F3F1"/>
<path d="M30.9568 18.1426V43.4023C30.9568 43.8976 30.5382 44.2979 30.0221 44.2979H26.9384C22.0412 42.094 18.6504 37.3251 18.6504 31.7983C18.6505 24.8591 23.9957 19.1159 30.9568 18.1426Z" fill="#E5E1E5"/>
<path d="M30.9572 1.59465V43.4028C30.9572 43.8971 30.5394 44.2982 30.0226 44.2982H26.543C27.0589 44.2982 27.4776 43.8971 27.4776 43.4028V1.59465C27.4776 1.10035 27.0589 0.699219 26.543 0.699219H30.0226C30.5394 0.699131 30.9572 1.10035 30.9572 1.59465Z" fill="#E5E1E5"/>
<path d="M9.14028 10.3007H5.52359C4.96584 10.3007 4.51367 9.86744 4.51367 9.33307V5.86798C4.51367 5.3336 4.96584 4.90039 5.52359 4.90039H9.14019C9.69794 4.90039 10.1501 5.3336 10.1501 5.86798V9.33298C10.1501 9.86744 9.69803 10.3007 9.14028 10.3007Z" fill="#35BCC7"/>
<path d="M10.1514 5.86798V9.3328C10.1514 9.86691 9.69899 10.3004 9.14152 10.3004H6.53906C7.09654 10.3004 7.54898 9.86691 7.54898 9.3328V5.86798C7.54898 5.33387 7.09654 4.90039 6.53906 4.90039H9.14152C9.69899 4.90039 10.1514 5.33387 10.1514 5.86798Z" fill="#20ABB9"/>
<path d="M7.30361 8.9042C7.12225 8.9042 6.94079 8.83784 6.80236 8.7053L6.03765 7.97264C5.76089 7.70748 5.76089 7.27752 6.03765 7.01226C6.31451 6.7471 6.76319 6.7471 7.04014 7.01226L7.30361 7.26477L10.2915 4.402C10.5684 4.13683 11.0171 4.13683 11.294 4.402C11.5708 4.66717 11.5708 5.09713 11.294 5.36238L7.80485 8.7053C7.66642 8.83793 7.48497 8.9042 7.30361 8.9042Z" fill="#FDD330"/>
<path d="M16.4717 8.45574H14.2361C13.8446 8.45574 13.5273 8.15173 13.5273 7.7767C13.5273 7.40167 13.8447 7.09766 14.2361 7.09766H16.4717C16.8632 7.09766 17.1804 7.40167 17.1804 7.7767C17.1805 8.15173 16.8632 8.45574 16.4717 8.45574Z" fill="#C9C0C7"/>
<path d="M26.9339 10.9792H14.2361C13.8446 10.9792 13.5273 10.6752 13.5273 10.3001C13.5273 9.92511 13.8447 9.62109 14.2361 9.62109H26.9339C27.3254 9.62109 27.6426 9.92511 27.6426 10.3001C27.6427 10.6751 27.3254 10.9792 26.9339 10.9792Z" fill="#C9C0C7"/>
<path d="M9.14028 19.1033H5.52359C4.96584 19.1033 4.51367 18.6701 4.51367 18.1357V14.6707C4.51367 14.1363 4.96584 13.7031 5.52359 13.7031H9.14019C9.69794 13.7031 10.1501 14.1363 10.1501 14.6707V18.1357C10.1501 18.6701 9.69803 19.1033 9.14028 19.1033Z" fill="#35BCC7"/>
<path d="M10.1514 14.6707V18.1355C10.1514 18.6696 9.69899 19.1031 9.14152 19.1031H6.53906C7.09654 19.1031 7.54898 18.6696 7.54898 18.1355V14.6707C7.54898 14.1366 7.09654 13.7031 6.53906 13.7031H9.14152C9.69899 13.7031 10.1514 14.1366 10.1514 14.6707Z" fill="#20ABB9"/>
<path d="M7.3036 17.707C7.12223 17.707 6.94078 17.6407 6.80244 17.5081L6.03773 16.7755C5.76087 16.5103 5.76087 16.0803 6.03764 15.8151C6.3145 15.5499 6.76327 15.5498 7.04004 15.8151L7.3036 16.0675L10.2915 13.2047C10.5684 12.9396 11.0171 12.9396 11.294 13.2047C11.5708 13.4699 11.5708 13.8999 11.294 14.1651L7.80484 17.508C7.66641 17.6407 7.48496 17.707 7.3036 17.707Z" fill="#FDD330"/>
<path d="M16.4717 17.2585H14.2361C13.8446 17.2585 13.5273 16.9545 13.5273 16.5794C13.5273 16.2044 13.8447 15.9004 14.2361 15.9004H16.4717C16.8632 15.9004 17.1804 16.2044 17.1804 16.5794C17.1804 16.9545 16.8632 17.2585 16.4717 17.2585Z" fill="#C9C0C7"/>
<path d="M26.9339 19.7819H14.2361C13.8446 19.7819 13.5273 19.4779 13.5273 19.1029C13.5273 18.7278 13.8447 18.4238 14.2361 18.4238H26.9339C27.3254 18.4238 27.6426 18.7278 27.6426 19.1029C27.6426 19.4779 27.3254 19.7819 26.9339 19.7819Z" fill="#C9C0C7"/>
<path d="M9.14028 27.9041H5.52359C4.96584 27.9041 4.51367 27.4709 4.51367 26.9365V23.4715C4.51367 22.9371 4.96584 22.5039 5.52359 22.5039H9.14019C9.69794 22.5039 10.1501 22.9371 10.1501 23.4715V26.9365C10.1501 27.471 9.69803 27.9041 9.14028 27.9041Z" fill="#FCA62F"/>
<path d="M10.1514 23.4715V26.9363C10.1514 27.4704 9.69899 27.9039 9.14152 27.9039H6.53906C7.09654 27.9039 7.54898 27.4704 7.54898 26.9363V23.4715C7.54898 22.9374 7.09654 22.5039 6.53906 22.5039H9.14152C9.69899 22.5039 10.1514 22.9374 10.1514 23.4715Z" fill="#F98824"/>
<path d="M16.4717 26.0593H14.2361C13.8446 26.0593 13.5273 25.7552 13.5273 25.3802C13.5273 25.0052 13.8447 24.7012 14.2361 24.7012H16.4717C16.8632 24.7012 17.1804 25.0052 17.1804 25.3802C17.1805 25.7552 16.8632 26.0593 16.4717 26.0593Z" fill="#C9C0C7"/>
<path d="M26.9339 28.5846H14.2361C13.8446 28.5846 13.5273 28.2806 13.5273 27.9056C13.5273 27.5306 13.8447 27.2266 14.2361 27.2266H26.9339C27.3254 27.2266 27.6426 27.5306 27.6426 27.9056C27.6427 28.2806 27.3254 28.5846 26.9339 28.5846Z" fill="#C9C0C7"/>
<path d="M9.14028 36.7049H5.52359C4.96584 36.7049 4.51367 36.2717 4.51367 35.7373V32.2723C4.51367 31.7379 4.96584 31.3047 5.52359 31.3047H9.14019C9.69794 31.3047 10.1501 31.7379 10.1501 32.2723V35.7373C10.1501 36.2717 9.69803 36.7049 9.14028 36.7049Z" fill="#FEE265"/>
<path d="M10.1514 32.2723V35.7371C10.1514 36.2712 9.69899 36.7047 9.14152 36.7047H6.53906C7.09654 36.7047 7.54898 36.2712 7.54898 35.7371V32.2723C7.54898 31.7382 7.09654 31.3047 6.53906 31.3047H9.14152C9.69899 31.3047 10.1514 31.7382 10.1514 32.2723Z" fill="#FDD330"/>
<path d="M16.4717 34.86H14.2361C13.8446 34.86 13.5273 34.556 13.5273 34.181C13.5273 33.806 13.8447 33.502 14.2361 33.502H16.4717C16.8632 33.502 17.1804 33.806 17.1804 34.181C17.1805 34.5559 16.8632 34.86 16.4717 34.86Z" fill="#C9C0C7"/>
<path d="M26.9339 37.3835H14.2361C13.8446 37.3835 13.5273 37.0795 13.5273 36.7044C13.5273 36.3294 13.8447 36.0254 14.2361 36.0254H26.9339C27.3254 36.0254 27.6426 36.3294 27.6426 36.7044C27.6426 37.0795 27.3254 37.3835 26.9339 37.3835Z" fill="#C9C0C7"/>
<path d="M33.0559 41.705C41.0119 41.705 47.4615 35.5258 47.4615 27.9033C47.4615 20.2808 41.0119 14.1016 33.0559 14.1016C25.1 14.1016 18.6504 20.2808 18.6504 27.9033C18.6504 35.5258 25.1 41.705 33.0559 41.705Z" fill="#5591D6"/>
<path d="M47.4605 27.9033C47.4612 35.5257 41.0115 41.705 33.0558 41.705C32.5235 41.705 31.9982 41.6771 31.4813 41.6235C38.6963 40.8718 44.3116 35.0158 44.3116 27.9033C44.3116 20.7908 38.6955 14.9348 31.4805 14.1831C31.9974 14.1295 32.5227 14.1016 33.0549 14.1016C41.0108 14.1016 47.4605 20.2809 47.4605 27.9033Z" fill="#1475CB"/>
<path d="M33.0565 38.4769C39.1521 38.4769 44.0936 33.7426 44.0936 27.9025C44.0936 22.0624 39.1521 17.3281 33.0565 17.3281C26.961 17.3281 22.0195 22.0624 22.0195 27.9025C22.0195 33.7426 26.961 38.4769 33.0565 38.4769Z" fill="#F8F3F1"/>
<path d="M44.0941 27.9042C44.0941 33.744 39.1527 38.4783 33.0566 38.4783C32.6068 38.4783 32.1627 38.4525 31.7267 38.4023C37.1952 37.7732 41.4334 33.313 41.4334 27.9042C41.4334 22.4954 37.1951 18.0352 31.7266 17.4061C32.1626 17.3559 32.6067 17.3301 33.0566 17.3301C39.1526 17.3301 44.0941 22.0644 44.0941 27.9042Z" fill="#E5E1E5"/>
<path d="M34.4928 32.2748L32.1719 28.5672L34.0936 27.4629L36.4145 31.1706C36.5603 31.4036 36.4814 31.7059 36.2382 31.8456L35.1974 32.4437C34.9541 32.5835 34.6387 32.5079 34.4928 32.2748Z" fill="#FEE265"/>
<path d="M33.0798 27.5138C32.6883 27.5138 32.3711 27.2098 32.3711 26.8348V22.6087C32.3711 22.2337 32.6884 21.9297 33.0798 21.9297C33.4713 21.9297 33.7886 22.2337 33.7886 22.6087V26.8348C33.7887 27.2098 33.4714 27.5138 33.0798 27.5138Z" fill="#5591D6"/>
<path d="M33.0551 29.4243C33.9323 29.4243 34.6434 28.743 34.6434 27.9026C34.6434 27.0622 33.9323 26.3809 33.0551 26.3809C32.1779 26.3809 31.4668 27.0622 31.4668 27.9026C31.4668 28.743 32.1779 29.4243 33.0551 29.4243Z" fill="#FB9927"/>
<path d="M41.3112 28.5652C41.3101 28.5652 41.3091 28.5652 41.308 28.5652H41.2974C40.906 28.5635 40.5901 28.2582 40.5918 27.8832C40.5935 27.5091 40.9106 27.207 41.3005 27.207H41.3037L41.3142 27.2071C41.7057 27.2088 42.0216 27.5141 42.0199 27.8892C42.0181 28.2631 41.7011 28.5652 41.3112 28.5652Z" fill="#B9AFB9"/>
<path d="M24.8111 28.5651H24.8005C24.409 28.5651 24.0918 28.2611 24.0918 27.8861C24.0918 27.511 24.4091 27.207 24.8005 27.207H24.8111C25.2026 27.207 25.5199 27.511 25.5199 27.8861C25.5199 28.261 25.2025 28.5651 24.8111 28.5651Z" fill="#B9AFB9"/>
<path d="M33.031 20.6651C32.6395 20.6651 32.3223 20.3611 32.3223 19.986V19.9759C32.3223 19.6009 32.6396 19.2969 33.031 19.2969C33.4225 19.2969 33.7398 19.6009 33.7398 19.9759V19.986C33.7399 20.3611 33.4225 20.6651 33.031 20.6651Z" fill="#B9AFB9"/>
<path d="M33.0798 36.4717C32.6883 36.4717 32.3711 36.1677 32.3711 35.7927V35.7826C32.3711 35.4075 32.6884 35.1035 33.0798 35.1035C33.4713 35.1035 33.7886 35.4075 33.7886 35.7826V35.7927C33.7887 36.1676 33.4714 36.4717 33.0798 36.4717Z" fill="#B9AFB9"/>
<path d="M28.914 21.7344C28.6687 21.7344 28.4303 21.6123 28.2991 21.394L28.2939 21.3852C28.0986 21.0602 28.2152 20.645 28.5545 20.4578C28.8936 20.2708 29.327 20.3824 29.5224 20.7075L29.5276 20.7163C29.7229 21.0413 29.6062 21.4565 29.267 21.6437C29.1556 21.7051 29.034 21.7344 28.914 21.7344Z" fill="#B9AFB9"/>
<path d="M25.9031 24.635C25.7832 24.635 25.6617 24.6058 25.5504 24.5445L25.5412 24.5394C25.2018 24.3524 25.0849 23.9373 25.28 23.6121C25.4752 23.2869 25.9086 23.1751 26.2477 23.3619L26.257 23.367C26.5963 23.5539 26.7133 23.9691 26.5181 24.2943C26.3871 24.5127 26.1484 24.635 25.9031 24.635Z" fill="#B9AFB9"/>
<path d="M40.2155 32.5001C40.0955 32.5001 39.9739 32.4709 39.8625 32.4094L39.8533 32.4044C39.5141 32.2173 39.3974 31.8021 39.5927 31.4771C39.7882 31.152 40.2216 31.0403 40.5606 31.2274L40.5698 31.2324C40.909 31.4195 41.0257 31.8347 40.8304 32.1597C40.6992 32.3779 40.4607 32.5001 40.2155 32.5001Z" fill="#B9AFB9"/>
<path d="M37.1985 21.7344C37.0789 21.7344 36.9579 21.7054 36.8468 21.6444C36.5072 21.458 36.3895 21.043 36.5841 20.7176L36.5893 20.7088C36.784 20.3833 37.2171 20.2708 37.5567 20.4571C37.8963 20.6435 38.0139 21.0584 37.8193 21.3839L37.8141 21.3927C37.6831 21.6117 37.4442 21.7344 37.1985 21.7344Z" fill="#B9AFB9"/>
<path d="M28.9075 35.4023C28.7875 35.4023 28.6658 35.3732 28.5545 35.3116C28.2152 35.1245 28.0986 34.7093 28.2939 34.3843L28.2991 34.3755C28.4947 34.0504 28.9281 33.9388 29.267 34.1258C29.6062 34.3129 29.7229 34.7281 29.5276 35.0531L29.5224 35.0619C29.3912 35.2803 29.1528 35.4023 28.9075 35.4023Z" fill="#B9AFB9"/>
<path d="M40.2076 24.635C39.9622 24.635 39.7236 24.5127 39.5925 24.2943C39.3974 23.9691 39.5143 23.554 39.8537 23.3671L39.8629 23.362C40.2022 23.175 40.6355 23.2871 40.8306 23.6122C41.0258 23.9374 40.9088 24.3525 40.5695 24.5394L40.5602 24.5445C40.4488 24.6058 40.3273 24.635 40.2076 24.635Z" fill="#B9AFB9"/>
<path d="M25.8951 32.5002C25.6508 32.5002 25.413 32.379 25.2815 32.162C25.0849 31.8376 25.2 31.422 25.5385 31.2337L25.5477 31.2286C25.8861 31.0404 26.3199 31.1505 26.5165 31.4748C26.7131 31.7991 26.598 32.2148 26.2595 32.403L26.2504 32.4081C26.1383 32.4705 26.0158 32.5002 25.8951 32.5002Z" fill="#B9AFB9"/>
<path d="M37.205 35.4024C36.9597 35.4024 36.7213 35.2803 36.5901 35.062L36.5849 35.0532C36.3896 34.7282 36.5063 34.313 36.8455 34.1258C37.1846 33.9387 37.6181 34.0504 37.8134 34.3755L37.8186 34.3843C38.0139 34.7094 37.8972 35.1246 37.558 35.3117C37.4466 35.3731 37.325 35.4024 37.205 35.4024Z" fill="#B9AFB9"/>
</g>
<defs>
<clipPath id="clip0_17823_953">
<rect width="46.9688" height="45" fill="white" transform="translate(0.492188)"/>
</clipPath>
</defs>
</svg>
