<svg width="12" height="14" viewBox="0 0 12 14" fill="none" xmlns="http://www.w3.org/2000/svg">
<path d="M9.83827 1.24847L6.18368 0.0298905C6.06403 -0.00996349 5.93467 -0.00996349 5.81502 0.0298905L2.16043 1.24847C1.57938 1.44149 1.07393 1.81271 0.715892 2.30939C0.357859 2.80607 0.165455 3.40295 0.166017 4.01522V7.00014C0.166017 11.4119 5.53268 13.8485 5.76252 13.95C5.83708 13.9831 5.91776 14.0002 5.99935 14.0002C6.08094 14.0002 6.16162 13.9831 6.23618 13.95C6.46602 13.8485 11.8327 11.4119 11.8327 7.00014V4.01522C11.8332 3.40295 11.6408 2.80607 11.2828 2.30939C10.9248 1.81271 10.4193 1.44149 9.83827 1.24847ZM8.75152 5.66839L6.25952 8.16039C6.15754 8.26305 6.03619 8.34443 5.9025 8.39981C5.76882 8.45518 5.62547 8.48345 5.48077 8.48297H5.46152C5.31387 8.48071 5.16821 8.44853 5.03336 8.38837C4.89851 8.32821 4.77725 8.24133 4.67693 8.13297L3.33177 6.73297C3.27351 6.67892 3.22691 6.61354 3.19483 6.54083C3.16275 6.46813 3.14586 6.38964 3.14521 6.31017C3.14455 6.2307 3.16014 6.15194 3.19101 6.07872C3.22188 6.00549 3.26739 5.93934 3.32475 5.88434C3.3821 5.82933 3.45009 5.78662 3.52454 5.75884C3.599 5.73105 3.67834 5.71877 3.75771 5.72274C3.83708 5.72672 3.9148 5.74687 3.9861 5.78196C4.0574 5.81705 4.12078 5.86634 4.17235 5.92681L5.48135 7.29181L7.92435 4.84181C8.03437 4.73555 8.18172 4.67675 8.33467 4.67808C8.48761 4.67941 8.63392 4.74076 8.74208 4.84891C8.85023 4.95707 8.91158 5.10338 8.91291 5.25632C8.91424 5.40927 8.85544 5.55662 8.74918 5.66664L8.75152 5.66839Z" fill="#E50914"/>
</svg>
