<svg width="64" height="64" viewBox="0 0 64 64" fill="none" xmlns="http://www.w3.org/2000/svg">
<rect width="64" height="64" rx="10" fill="#E50914"/>
<path d="M18.0625 27.5915C19.5991 27.5915 21.8937 26.0799 23.8197 24.5498C26.3049 22.5824 28.4731 20.2315 30.1278 17.5361C31.3683 15.5152 32.5591 13.0652 32.5591 11.0938M32.5591 11.0938C32.5591 13.0652 33.7499 15.5172 34.9904 17.5361C36.6471 20.2315 38.8154 22.5824 41.2964 24.5498C43.2245 26.0799 45.5232 27.5915 47.0557 27.5915M32.5591 11.0938V53.3338Z" fill="#E50914"/>
<path d="M18.0625 27.5915C19.5991 27.5915 21.8937 26.0799 23.8197 24.5498C26.3049 22.5824 28.4731 20.2315 30.1278 17.5361C31.3683 15.5152 32.5591 13.0652 32.5591 11.0938M32.5591 11.0938C32.5591 13.0652 33.7499 15.5172 34.9904 17.5361C36.6471 20.2315 38.8154 22.5824 41.2964 24.5498C43.2245 26.0799 45.5232 27.5915 47.0557 27.5915M32.5591 11.0938V53.3338" stroke="white" stroke-width="3"/>
</svg>
