<svg width="21" height="24" viewBox="0 0 21 24" fill="none" xmlns="http://www.w3.org/2000/svg">
<path d="M17.2958 2.14024L11.0308 0.0512408C10.8257 -0.0170803 10.604 -0.0170803 10.3988 0.0512408L4.13385 2.14024C3.13775 2.47112 2.27126 3.1075 1.65749 3.95895C1.04372 4.8104 0.713882 5.83363 0.714846 6.88324V12.0002C0.714846 19.5632 9.91484 23.7402 10.3088 23.9142C10.4367 23.971 10.575 24.0004 10.7148 24.0004C10.8547 24.0004 10.993 23.971 11.1208 23.9142C11.5148 23.7402 20.7148 19.5632 20.7148 12.0002V6.88324C20.7158 5.83363 20.386 4.8104 19.7722 3.95895C19.1584 3.1075 18.2919 2.47112 17.2958 2.14024ZM15.4328 9.71724L11.1608 13.9892C10.986 14.1652 10.778 14.3047 10.5488 14.3997C10.3196 14.4946 10.0739 14.5431 9.82584 14.5422H9.79284C9.53974 14.5384 9.29004 14.4832 9.05886 14.3801C8.82768 14.2769 8.61982 14.128 8.44784 13.9422L6.14185 11.5422C6.04198 11.4496 5.96209 11.3375 5.9071 11.2129C5.8521 11.0882 5.82315 10.9537 5.82203 10.8174C5.8209 10.6812 5.84762 10.5462 5.90055 10.4207C5.95347 10.2951 6.03149 10.1817 6.12981 10.0874C6.22814 9.99314 6.34469 9.91993 6.47232 9.87229C6.59995 9.82466 6.73597 9.8036 6.87203 9.81042C7.00809 9.81724 7.14133 9.85178 7.26356 9.91194C7.38579 9.97209 7.49444 10.0566 7.58284 10.1602L9.82685 12.5002L14.0148 8.30024C14.2034 8.11808 14.456 8.01729 14.7182 8.01957C14.9804 8.02185 15.2313 8.12701 15.4167 8.31242C15.6021 8.49783 15.7072 8.74864 15.7095 9.01084C15.7118 9.27304 15.611 9.52564 15.4288 9.71424L15.4328 9.71724Z" fill="#00A538"/>
</svg>
