<svg width="20" height="20" viewBox="0 0 20 20" fill="none" xmlns="http://www.w3.org/2000/svg">
<g id="check 1" clip-path="url(#clip0_11907_21245)">
<g id="check">
<path id="Vector" d="M10 20C15.5228 20 20 15.5228 20 10C20 4.47715 15.5228 0 10 0C4.47715 0 0 4.47715 0 10C0 15.5228 4.47715 20 10 20Z" fill="#00A538"/>
<path id="Vector_2" fill-rule="evenodd" clip-rule="evenodd" d="M14.9839 8.13558C14.9754 8.14472 14.9668 8.15385 14.9579 8.16275L9.20558 13.915C9.08259 14.038 8.93432 14.1221 8.77676 14.1672C8.43424 14.2695 8.04456 14.1873 7.77763 13.9205L4.38054 10.5234C3.99472 10.1375 3.99117 9.49865 4.38054 9.10921C4.76999 8.71984 5.40535 8.71976 5.7948 9.10913L8.48842 11.8027L14.2089 6.08228C14.5983 5.69283 15.2357 5.69503 15.623 6.08228C16.0102 6.46952 16.0103 7.10921 15.6231 7.49645L14.9839 8.13558Z" fill="white"/>
</g>
</g>
<defs>
<clipPath id="clip0_11907_21245">
<rect width="20" height="20" fill="white"/>
</clipPath>
</defs>
</svg>
