<svg width="20" height="20" viewBox="0 0 20 20" fill="none" xmlns="http://www.w3.org/2000/svg">
<g id="error 1" clip-path="url(#clip0_11907_21255)">
<g id="Layer 2">
<g id="Layer 1">
<path id="Vector" d="M9.9987 19.1673C15.0613 19.1673 19.1654 15.0633 19.1654 10.0007C19.1654 4.93804 15.0613 0.833984 9.9987 0.833984C4.93609 0.833984 0.832031 4.93804 0.832031 10.0007C0.832031 15.0633 4.93609 19.1673 9.9987 19.1673Z" fill="#E50914"/>
<path id="Vector_2" d="M11.185 9.99975L13.8767 7.30808C13.9639 7.23338 14.0348 7.14145 14.0848 7.03806C14.1348 6.93467 14.1629 6.82206 14.1674 6.70729C14.1718 6.59253 14.1525 6.47809 14.1106 6.37115C14.0687 6.26421 14.0051 6.16709 13.9239 6.08587C13.8427 6.00466 13.7456 5.94111 13.6386 5.89922C13.5317 5.85732 13.4173 5.83798 13.3025 5.84242C13.1877 5.84685 13.0751 5.87496 12.9717 5.92498C12.8683 5.975 12.7764 6.04585 12.7017 6.13308L10.0017 8.82475L7.31837 6.13308C7.16255 5.97616 6.95079 5.88757 6.72965 5.88679C6.50851 5.88601 6.29612 5.9731 6.1392 6.12892C5.98228 6.28473 5.89369 6.4965 5.89291 6.71764C5.89212 6.93877 5.97922 7.15116 6.13504 7.30808L8.8267 9.99975L6.13504 12.6914C6.0478 12.7661 5.97695 12.8581 5.92693 12.9614C5.87691 13.0648 5.8488 13.1774 5.84437 13.2922C5.83994 13.407 5.85928 13.5214 5.90117 13.6284C5.94307 13.7353 6.00662 13.8324 6.08783 13.9136C6.16904 13.9948 6.26616 14.0584 6.3731 14.1003C6.48004 14.1422 6.59448 14.1615 6.70925 14.1571C6.82401 14.1526 6.93662 14.1245 7.04001 14.0745C7.1434 14.0245 7.23533 13.9537 7.31004 13.8664L10.0017 11.1831L12.6934 13.8747C12.8528 14.0113 13.0579 14.0826 13.2676 14.0745C13.4773 14.0664 13.6763 13.9795 13.8247 13.8311C13.9731 13.6826 14.06 13.4837 14.0681 13.274C14.0762 13.0642 14.0049 12.8592 13.8684 12.6997L11.185 9.99975Z" fill="white"/>
</g>
</g>
</g>
<defs>
<clipPath id="clip0_11907_21255">
<rect width="20" height="20" fill="white"/>
</clipPath>
</defs>
</svg>
