<svg width="45" height="45" viewBox="0 0 45 45" fill="none" xmlns="http://www.w3.org/2000/svg">
<path d="M31.6612 24.2004C31.4087 24.2004 31.204 23.9956 31.204 23.7432C31.204 23.4907 31.4087 23.2859 31.6612 23.2859C37.1326 23.2859 41.5838 18.8347 41.5838 13.3634C41.5838 7.89204 37.1326 3.44084 31.6612 3.44084C26.1899 3.44084 21.7387 7.89204 21.7387 13.3634C21.7387 13.6158 21.534 13.8206 21.2815 13.8206C21.0289 13.8206 20.8242 13.6158 20.8242 13.3634C20.8242 7.38777 25.6856 2.52637 31.6612 2.52637C37.6369 2.52637 42.4983 7.38777 42.4983 13.3634C42.4983 19.339 37.6369 24.2004 31.6612 24.2004Z" fill="#BDC8FF"/>
<path d="M40.2408 13.3636C40.197 18.1286 36.3208 21.9911 31.6614 21.943C26.9234 21.894 23.082 18.1019 23.082 13.3636C23.082 8.62531 26.9232 4.78418 31.6614 4.78418C36.3997 4.78418 40.2844 8.62551 40.2408 13.3636Z" fill="#BDC8FF"/>
<path d="M32.4069 22.9236V24.8391C32.4069 25.0484 32.1755 25.1751 31.9992 25.0623L30.5011 24.1039C30.3381 23.9997 30.3382 23.7616 30.5012 23.6575L31.9993 22.7003C32.1756 22.5876 32.4069 22.7143 32.4069 22.9236Z" fill="#BDC8FF"/>
<path d="M36.4392 13.9736H31.6604C31.3238 13.9736 31.0508 13.7007 31.0508 13.364V7.96707C31.0508 7.63039 31.3238 7.35742 31.6604 7.35742C31.9971 7.35742 32.2701 7.63039 32.2701 7.96707V12.7544H36.4392C36.7759 12.7544 37.0489 13.0273 37.0489 13.364C37.0489 13.7007 36.7759 13.9736 36.4392 13.9736Z" fill="white"/>
<path d="M25.4309 41.3524H32.5166L31.2413 31.4254L24.7534 30.7148L23.3984 37.3175L24.9079 41.241L25.4309 41.3524Z" fill="#FDC7B4"/>
<path d="M26.1398 22.6826L27.0419 22.6849C28.6312 22.6891 30.0018 23.8025 30.3315 25.3572L31.6615 31.6299L24.3516 33.6908L25.8425 22.692L26.1398 22.6826Z" fill="#FDDF8C"/>
<path d="M10.3982 41.3524L10.9212 41.241L12.4307 37.3175L11.0757 30.7148L4.58781 31.4254L3.3125 41.3524H10.3982Z" fill="#FDC7B4"/>
<path d="M9.68971 22.6826L8.78764 22.6849C7.19832 22.6891 5.82768 23.8025 5.49801 25.3572L4.16797 31.6299L11.4779 33.6908L9.98703 22.692L9.68971 22.6826Z" fill="#FDDF8C"/>
<path d="M26.4282 20.9944C23.2418 19.5343 26.2566 16.4461 25.6753 11.4109C25.0906 6.37563 21.6381 3.53253 18.3537 4.13828C15.1183 4.73705 15.0938 6.21115 15.0938 6.25663C15.0938 6.25663 12.7338 4.84559 11.3752 8.44508C10.0131 12.0445 12.3206 17.444 10.913 19.1948C9.50188 20.9455 8.50395 21.3342 8.50395 21.3342C8.47269 25.1023 26.0561 28.9965 26.4282 20.9944Z" fill="#373754"/>
<path d="M9.12891 22.6826H26.7002V41.3526H9.12891V22.6826Z" fill="#FDDF8C"/>
<path d="M15.3906 18.4854H20.4269V22.6829H15.3906V18.4854Z" fill="#FDC7B4"/>
<path d="M20.4266 18.4736V21.0919C18.6434 21.1758 16.9733 20.7491 15.3906 19.8958V18.4736H20.4266Z" fill="#EFB5A3"/>
<path d="M23.2753 15.366C23.2467 15.366 23.2184 15.3543 23.1978 15.3313C23.1602 15.2885 23.1638 15.223 23.2067 15.185C23.3541 15.0545 23.4353 14.8893 23.4353 14.7196C23.4353 14.5495 23.3541 14.3842 23.2071 14.2541C23.1642 14.2161 23.1602 14.1511 23.1978 14.1082C23.2357 14.0654 23.3016 14.0614 23.3436 14.099C23.5364 14.2691 23.6422 14.4893 23.6422 14.7196C23.6422 14.9495 23.5364 15.1697 23.344 15.3402C23.3242 15.3575 23.2996 15.366 23.2753 15.366Z" fill="#EFB5A3"/>
<path d="M22.7841 16.1539C23.463 16.1539 24.0134 15.5117 24.0134 14.7195C24.0134 13.9273 23.463 13.2852 22.7841 13.2852C22.1051 13.2852 21.5547 13.9273 21.5547 14.7195C21.5547 15.5117 22.1051 16.1539 22.7841 16.1539Z" fill="#FDC7B4"/>
<path d="M13.0341 16.1539C13.713 16.1539 14.2634 15.5117 14.2634 14.7195C14.2634 13.9273 13.713 13.2852 13.0341 13.2852C12.3551 13.2852 11.8047 13.9273 11.8047 14.7195C11.8047 15.5117 12.3551 16.1539 13.0341 16.1539Z" fill="#FDC7B4"/>
<path d="M12.5387 15.366C12.5674 15.366 12.5957 15.3543 12.6163 15.3313C12.6539 15.2885 12.6503 15.223 12.6074 15.185C12.46 15.0545 12.3787 14.8893 12.3787 14.7196C12.3787 14.5495 12.46 14.3842 12.607 14.2541C12.6499 14.2161 12.6539 14.1511 12.6163 14.1082C12.5783 14.0654 12.5125 14.0614 12.4705 14.099C12.2777 14.2691 12.1719 14.4893 12.1719 14.7196C12.1719 14.9495 12.2777 15.1697 12.4701 15.3402C12.4899 15.3575 12.5145 15.366 12.5387 15.366Z" fill="#EFB5A3"/>
<path d="M22.9865 12.5099V15.1498C22.9865 17.9561 20.7103 20.227 17.9093 20.227C15.103 20.227 12.832 17.9561 12.832 15.1498V12.5099C12.832 9.70354 15.103 7.43262 17.9093 7.43262C19.3124 7.43262 20.5804 7.99898 21.5003 8.91883C22.4201 9.83866 22.9865 11.1066 22.9865 12.5099Z" fill="#FDC7B4"/>
<path d="M16.1708 14.4512C16.1708 14.8484 15.9528 15.1681 15.6815 15.1681C15.4103 15.1681 15.1875 14.8484 15.1875 14.4512C15.1875 14.054 15.4103 13.7295 15.6815 13.7295C15.9528 13.7295 16.1708 14.054 16.1708 14.4512Z" fill="#373754"/>
<path d="M20.6356 14.4512C20.6356 14.8484 20.4176 15.1681 20.1464 15.1681C19.8751 15.1681 19.6523 14.8484 19.6523 14.4512C19.6523 14.054 19.8751 13.7295 20.1464 13.7295C20.4176 13.7295 20.6356 14.054 20.6356 14.4512Z" fill="#373754"/>
<path d="M16.1405 17.1104C16.1394 17.1362 16.1328 17.1605 16.1328 17.1866C16.1328 18.1695 16.9296 18.9663 17.9124 18.9663C18.8953 18.9663 19.6921 18.1695 19.6921 17.1866C19.6921 17.1605 19.6855 17.1362 19.6844 17.1104H16.1405Z" fill="white"/>
<path d="M24.187 12.9131C20.9179 14.3813 17.2338 12.7991 15.9628 9.37828L15.5117 8.16573C16.2614 6.95123 18.8137 6.21998 21.4337 5.50684L24.187 12.9131Z" fill="#373754"/>
<path d="M16.003 6.34863L11.9023 8.28983V11.3412L12.7718 13.2856L13.6118 12.974C16.0031 11.8424 17.0735 8.87464 16.003 6.34863Z" fill="#373754"/>
<path d="M21.1431 22.6846L17.9608 27.4918L14.6836 22.6846H21.1431Z" fill="#F2CF77"/>
<path d="M20.4347 22.6855L17.9506 26.5627L15.3945 22.6855H20.4347Z" fill="#FDC7B4"/>
<path d="M36.6532 41.625L22.8973 42.2222L22.0797 42.4737H17.3588L16.545 42.2222L2.78906 41.625C2.78906 41.625 2.82675 41.5974 2.88703 41.5464C3.07164 41.3852 3.46725 39.401 3.6029 38.7448C3.6029 38.7448 6.80809 37.8431 8.31253 37.232C11.5097 35.9332 15.6972 36.1867 19.0354 40.8509C19.058 40.8824 19.0806 40.9177 19.1032 40.9491C19.1711 41.0513 19.2653 41.1299 19.3707 41.1849C19.4763 41.2399 19.6006 41.2714 19.7211 41.2714C19.8417 41.2714 19.9623 41.2399 20.0715 41.1849C20.177 41.1299 20.2675 41.0513 20.339 40.9491C20.3579 40.9216 20.373 40.8981 20.3956 40.8745C20.3993 40.8706 20.3993 40.8706 20.3993 40.8666C23.6207 36.3322 28.3521 36.1928 31.126 37.232C32.9513 37.9158 35.8356 38.7448 35.8356 38.7448C35.9713 39.401 36.3706 41.3852 36.5552 41.5464C36.6155 41.5974 36.6532 41.625 36.6532 41.625Z" fill="#E8EFFF"/>
<path d="M3.60156 38.2789C5.09785 37.6219 6.62301 37.0117 8.05735 36.2775C8.78884 35.8921 9.59262 35.5675 10.4264 35.3981C11.2622 35.231 12.1335 35.2054 12.9893 35.3409C13.8452 35.4816 14.6674 35.802 15.4257 36.2273C16.1942 36.6451 16.8569 37.2208 17.4849 37.8197C18.0774 38.4536 18.6346 39.1229 19.1038 39.8478L19.4601 40.3887C19.49 40.433 19.5194 40.4789 19.5474 40.5282L19.5865 40.5945L19.5992 40.6133C19.6138 40.6328 19.6358 40.6518 19.6586 40.6646C19.6756 40.6746 19.7019 40.6816 19.7147 40.6816C19.7229 40.6824 19.7352 40.683 19.7609 40.6735C19.7909 40.6609 19.7946 40.6582 19.8206 40.6344C19.8306 40.6242 19.8412 40.6118 19.8519 40.5958L19.8949 40.5285L19.9349 40.4688L19.9554 40.4394C19.9572 40.4365 19.9659 40.4252 19.9622 40.4293C19.8851 40.5198 19.8335 40.6701 19.8379 40.7904L19.9232 40.482C20.7362 39.1448 21.7679 37.9045 23.0601 37.0044C23.6905 36.5342 24.4033 36.1907 25.1269 35.9071C25.8598 35.6366 26.6303 35.5011 27.3981 35.4443C28.1684 35.4006 28.941 35.4718 29.6862 35.6527C30.0601 35.7379 30.4244 35.8633 30.7814 36.0034C31.1433 36.156 31.4709 36.3159 31.7981 36.476C33.1234 37.1061 34.4823 37.6818 35.8343 38.2789C34.4068 37.9141 32.9979 37.4867 31.6008 36.9903C31.4259 36.9286 31.2514 36.864 31.0781 36.7956L30.5756 36.6195C30.2386 36.5187 29.8977 36.4312 29.5504 36.3823C28.8583 36.2815 28.1573 36.251 27.467 36.3331C26.0895 36.5072 24.7686 37.0372 23.6602 37.8977C22.5484 38.7483 21.6046 39.8476 20.8728 41.1016L20.958 40.7934C20.9599 40.9197 20.9059 41.0762 20.8264 41.1727C20.8192 41.1824 20.8243 41.1764 20.8227 41.1791L20.8221 41.1828L20.8199 41.189L20.7793 41.2542C20.7331 41.3257 20.6792 41.3954 20.6179 41.4602C20.5016 41.5872 20.3325 41.7035 20.1733 41.7674C20.0107 41.8352 19.8181 41.8734 19.6239 41.8563C19.4346 41.8389 19.263 41.7811 19.1036 41.687C18.9501 41.5954 18.8155 41.4736 18.7071 41.3249C18.6809 41.2894 18.6532 41.2462 18.6338 41.2131L18.5939 41.1437C18.5709 41.1017 18.5444 41.0594 18.5164 41.017L18.1891 40.5086C17.7585 39.825 17.253 39.2083 16.7218 38.624C16.1643 38.0758 15.5938 37.5281 14.9285 37.1418C14.2728 36.743 13.5659 36.4459 12.826 36.2697C11.3345 35.945 9.75577 36.1838 8.29136 36.8235C6.74518 37.4267 5.18545 37.8798 3.60156 38.2789Z" fill="#E8EFFF"/>
<path d="M36.9423 42.0095C36.9423 42.265 36.7533 42.4732 36.5216 42.4732H2.92072C2.68541 42.4732 2.5 42.265 2.5 42.0095C2.5 41.7542 2.68541 41.5459 2.92072 41.5459H36.5216C36.7533 41.5459 36.9423 41.7542 36.9423 42.0095Z" fill="#FF7581"/>
</svg>
