<svg width="45" height="45" viewBox="0 0 45 45" fill="none" xmlns="http://www.w3.org/2000/svg">
<g clip-path="url(#clip0_9479_8521)">
<path d="M33.7152 44.9998C35.684 44.9998 36.8881 42.8465 35.8597 41.1678L16.0756 8.89435C15.9789 8.72736 15.9789 8.534 16.058 8.36701C16.9017 6.67951 16.9105 4.62287 15.891 2.86506C14.9418 1.21271 13.2894 0.201971 11.5228 -0.000177627C11.2592 -0.0265448 11.0746 0.245916 11.2064 0.474432L13.7289 4.8426C14.0013 5.3172 13.8431 5.93244 13.3685 6.2049L11.4086 7.33869C10.934 7.61115 10.3187 7.45295 10.0463 6.96955L7.52381 2.60138C7.39197 2.37287 7.05798 2.39924 6.95252 2.63654C6.2406 4.26252 6.29334 6.19611 7.25134 7.85724C8.26209 9.61506 10.0551 10.6346 11.9359 10.7488C12.1205 10.7576 12.2963 10.8631 12.3929 11.0301L31.5531 43.7606C32.0013 44.5252 32.8275 44.9998 33.7152 44.9998Z" fill="#D8ECFE"/>
<path d="M35.861 41.1678L16.0768 8.89435C15.9802 8.72736 15.9802 8.534 16.0593 8.36701C16.903 6.67951 16.9118 4.62287 15.8923 2.86506C14.9431 1.21271 13.2907 0.201971 11.5241 -0.000177627C11.2604 -0.0265448 11.0759 0.245916 11.2077 0.474432L11.5417 1.05451C12.1921 1.52033 12.7546 2.12678 13.1765 2.86506C14.1872 4.62287 14.1784 6.67951 13.3434 8.36701C13.2556 8.534 13.2643 8.73615 13.361 8.89435L33.154 41.1678C33.9099 42.407 33.4528 43.9012 32.3718 44.6043C32.7673 44.8592 33.2419 44.9998 33.7253 44.9998C35.6852 44.9998 36.8893 42.8465 35.861 41.1678Z" fill="#C1DEF4"/>
<path d="M11.2858 44.9998C9.31701 44.9998 8.11291 42.8465 9.14123 41.1678L28.9342 8.89435C29.0309 8.72736 29.0309 8.534 28.9518 8.36701C28.108 6.67951 28.0992 4.62287 29.1188 2.86506C30.0592 1.21271 31.7115 0.201971 33.4781 -0.000177627C33.7418 -0.0265448 33.9264 0.245916 33.7945 0.474432L31.2721 4.8426C30.9996 5.3172 31.1578 5.93244 31.6324 6.2049L33.5924 7.33869C34.067 7.61115 34.6822 7.45295 34.9547 6.96955L37.4772 2.60138C37.609 2.37287 37.943 2.39924 38.0485 2.63654C38.7604 4.26252 38.7076 6.19611 37.7496 7.85724C36.7389 9.61506 34.9459 10.6346 33.0651 10.7488C32.8805 10.7576 32.7047 10.8631 32.608 11.0301L13.4479 43.7606C12.9996 44.5252 12.1735 44.9998 11.2858 44.9998Z" fill="#D8ECFE"/>
<path d="M38.0478 2.63638C37.9424 2.39908 37.6084 2.37271 37.4766 2.60122L35.7803 5.53677C35.7012 6.32779 35.4551 7.1188 35.0332 7.85708C34.0225 9.6149 32.2295 10.6344 30.3486 10.7487C30.1641 10.7575 29.9883 10.8629 29.8916 11.0299L10.7314 43.7604C10.5293 44.112 10.248 44.3932 9.91406 44.6042C10.3008 44.8502 10.7578 44.9997 11.2764 44.9997C12.1729 44.9997 12.999 44.5251 13.4473 43.7516L32.6074 11.0211C32.7041 10.8542 32.8711 10.7575 33.0645 10.7399C34.9453 10.6256 36.7383 9.60611 37.749 7.84829C38.707 6.19595 38.751 4.27115 38.0478 2.63638Z" fill="#C1DEF4"/>
<path d="M22.9756 9.33398C22.7383 9.01758 22.2637 9.01758 22.0264 9.33398C21.1475 10.5381 19.4775 12.3926 16.7617 13.5967C13.1934 15.1875 9.87109 14.7393 8.27148 14.3701C7.90234 14.2822 7.55078 14.5635 7.55078 14.9414V26.9648C7.55078 35.8418 13.8965 43.251 22.3428 44.9912C22.4395 45.0088 22.5449 45.0088 22.6416 44.9912C31.0967 43.251 37.4424 35.8418 37.4424 26.9561V14.9326C37.4424 14.5547 37.0908 14.2822 36.7217 14.3613C35.1221 14.7305 31.8086 15.1787 28.2314 13.5879C25.5244 12.3838 23.8545 10.5293 22.9756 9.33398Z" fill="#FF224A"/>
<path d="M36.7236 14.3614C36.2051 14.4844 35.502 14.6075 34.667 14.6778C34.7021 14.7569 34.7285 14.8448 34.7285 14.9327V26.9561C34.7285 35.4024 28.9805 42.5215 21.1406 44.6924C21.5361 44.8067 21.9404 44.9034 22.3535 44.9825C22.4502 45 22.5557 45 22.6523 44.9825C31.0986 43.251 37.4443 35.8418 37.4443 26.9561V14.9327C37.4443 14.5547 37.0928 14.2823 36.7236 14.3614Z" fill="#DD0735"/>
<path d="M22.7285 41.2471C22.5791 41.2822 22.4209 41.2822 22.2715 41.2471C19.2744 40.4561 16.5586 38.7246 14.5723 36.334C12.3838 33.7061 11.1797 30.375 11.1797 26.9561V18.5625C11.1797 18.4395 11.2764 18.334 11.4082 18.334C13.7988 18.334 16.0928 17.8506 18.2373 16.9014C19.8984 16.1631 21.2607 15.2314 22.3594 14.2822C22.4473 14.2119 22.5703 14.2119 22.6494 14.2822C23.748 15.2314 25.1104 16.1631 26.7715 16.9014C28.916 17.8506 31.21 18.334 33.6006 18.334C33.7236 18.334 33.8203 18.4307 33.8203 18.5537V26.9473C33.8203 30.3574 32.6162 33.6885 30.4277 36.3252C28.4414 38.7334 25.7256 40.4561 22.7285 41.2471Z" fill="#D8ECFE"/>
<path d="M22.499 35.4111C26.6298 35.4111 29.9785 32.0624 29.9785 27.9316C29.9785 23.8008 26.6298 20.4521 22.499 20.4521C18.3682 20.4521 15.0195 23.8008 15.0195 27.9316C15.0195 32.0624 18.3682 35.4111 22.499 35.4111Z" fill="#FF224A"/>
<path d="M22.499 20.4521C22.0332 20.4521 21.585 20.4961 21.1367 20.5752C24.6172 21.2168 27.2627 24.2666 27.2627 27.9316C27.2627 31.5967 24.626 34.6465 21.1367 35.2881C21.5762 35.3672 22.0332 35.4111 22.499 35.4111C26.6299 35.4111 29.9785 32.0625 29.9785 27.9316C29.9785 23.8008 26.6299 20.4521 22.499 20.4521Z" fill="#DD0735"/>
<path d="M19.8813 30.8579L18.3696 29.3462C18.106 29.0825 18.106 28.6519 18.3696 28.3882C18.6333 28.1245 19.064 28.1245 19.3276 28.3882L20.7339 29.7944L25.6733 24.855C25.937 24.5913 26.3677 24.5913 26.6313 24.855C26.895 25.1187 26.895 25.5493 26.6313 25.813L21.5864 30.8579C21.1294 31.3237 20.3384 31.3237 19.8813 30.8579Z" fill="white"/>
</g>
<defs>
<clipPath id="clip0_9479_8521">
<rect width="45" height="45" fill="white"/>
</clipPath>
</defs>
</svg>
