<svg width="45" height="45" viewBox="0 0 45 45" fill="none" xmlns="http://www.w3.org/2000/svg">
<path fill-rule="evenodd" clip-rule="evenodd" d="M15.8706 32.791H29.1295V40.3433H15.8706V32.791Z" fill="#A79BA7"/>
<path fill-rule="evenodd" clip-rule="evenodd" d="M28.1011 32.791H29.1293V40.3433H28.1011V32.791Z" fill="#837683"/>
<path fill-rule="evenodd" clip-rule="evenodd" d="M8.16797 43.5641H36.8316V41.3543C36.8316 40.1389 35.5871 39.1445 34.0659 39.1445H10.9337C9.4125 39.1445 8.16797 40.1389 8.16797 41.3543V43.5641Z" fill="#9FACBA"/>
<path fill-rule="evenodd" clip-rule="evenodd" d="M8.16797 43.5642H36.8316V41.3544C36.8316 40.6321 36.392 39.9878 35.7161 39.584C35.868 39.8571 35.9527 40.1587 35.9527 40.4755V42.6853H8.16797V43.5642Z" fill="#8D9CA8"/>
<path fill-rule="evenodd" clip-rule="evenodd" d="M4.6495 5.19336H40.3506C42.1343 5.19336 43.5938 6.65287 43.5938 8.43661V30.7483C43.5938 32.532 42.1344 33.9915 40.3506 33.9915H4.6495C2.86576 33.9915 1.40625 32.5321 1.40625 30.7483V8.43661C1.40625 6.65278 2.86567 5.19336 4.6495 5.19336Z" fill="#9FACBA"/>
<path fill-rule="evenodd" clip-rule="evenodd" d="M42.1595 5.74805C43.023 6.33234 43.5936 7.32076 43.5936 8.43609V30.7477C43.5936 32.5315 42.1341 33.991 40.3504 33.991H4.64938C3.53414 33.991 2.54572 33.4205 1.96143 32.5569C2.47901 32.907 3.10198 33.112 3.77048 33.112H39.4716C41.2553 33.112 42.7148 31.6526 42.7148 29.8688V7.5571C42.7147 6.8886 42.5097 6.26572 42.1595 5.74805Z" fill="#8D9CA8"/>
<path fill-rule="evenodd" clip-rule="evenodd" d="M4.56799 7.90625H40.4318C40.6792 7.90625 40.8816 8.10884 40.8816 8.35599V28.5527H4.11816V8.35607C4.11816 8.10866 4.32058 7.90625 4.56799 7.90625Z" fill="#D8ECFE"/>
<path fill-rule="evenodd" clip-rule="evenodd" d="M38.6738 7.90625H40.4317C40.6791 7.90625 40.8816 8.10884 40.8816 8.35607V28.5526H39.1237V8.35607C39.1237 8.10875 38.9212 7.90625 38.6738 7.90625Z" fill="#C4E2FF"/>
<path fill-rule="evenodd" clip-rule="evenodd" d="M7.6717 18.1321C8.06 18.1321 8.37482 18.4469 8.37482 18.8352C8.37482 19.2235 8.06 19.5383 7.6717 19.5383H6.79297C6.40467 19.5383 6.08984 19.2235 6.08984 18.8352C6.08984 18.4469 6.40467 18.1321 6.79297 18.1321H7.6717ZM16.3368 21.0026C16.7251 21.0026 17.04 21.3175 17.04 21.7058C17.04 22.0941 16.7251 22.4089 16.3368 22.4089H9.49903C9.11073 22.4089 8.79591 22.0941 8.79591 21.7058C8.79591 21.3175 9.11073 21.0026 9.49903 21.0026H16.3368ZM7.6717 21.0026C8.06 21.0026 8.37482 21.3175 8.37482 21.7058C8.37482 22.0941 8.06 22.4089 7.6717 22.4089H6.79297C6.40467 22.4089 6.08984 22.0941 6.08984 21.7058C6.08984 21.3175 6.40467 21.0026 6.79297 21.0026H7.6717ZM16.3368 15.2617C16.7251 15.2617 17.04 15.5765 17.04 15.9648C17.04 16.3531 16.7251 16.668 16.3368 16.668H9.49903C9.11073 16.668 8.79591 16.3531 8.79591 15.9648C8.79591 15.5765 9.11073 15.2617 9.49903 15.2617H16.3368ZM7.6717 15.2617C8.06 15.2617 8.37482 15.5765 8.37482 15.9648C8.37482 16.3531 8.06 16.668 7.6717 16.668H6.79297C6.40467 16.668 6.08984 16.3531 6.08984 15.9648C6.08984 15.5765 6.40467 15.2617 6.79297 15.2617H7.6717ZM16.3368 18.1321C16.7251 18.1321 17.04 18.4469 17.04 18.8352C17.04 19.2235 16.7251 19.5383 16.3368 19.5383H9.49903C9.11073 19.5383 8.79591 19.2235 8.79591 18.8352C8.79591 18.4469 9.11073 18.1321 9.49903 18.1321H16.3368Z" fill="#A79BA7"/>
<path fill-rule="evenodd" clip-rule="evenodd" d="M33.0598 10.957L34.5431 11.7651V16.0338L33.0598 14.9813L31.5767 16.0338V11.7651L33.0598 10.957Z" fill="#FFE177"/>
<path fill-rule="evenodd" clip-rule="evenodd" d="M32.3564 4.67188H33.7627V13.0007H32.3564V4.67188Z" fill="#FFE177"/>
<path fill-rule="evenodd" clip-rule="evenodd" d="M34.5431 15.5401V16.0342L33.0599 14.9818L33.4081 14.7347L34.5431 15.5401ZM32.273 15.5401L31.5767 16.0342V11.7655L32.3568 11.3406V4.67188H33.0531V11.3405L32.273 11.7654V15.5401Z" fill="#FFD064"/>
<path fill-rule="evenodd" clip-rule="evenodd" d="M22.5 4.13086L30.8252 4.33564V11.741C30.8252 12.0938 30.579 12.3898 30.232 12.4537C21.2067 14.1253 23.7933 14.1253 14.7681 12.4537C14.4211 12.3898 14.1748 12.0938 14.1748 11.741V4.33564L22.5 4.13086Z" fill="#837683"/>
<path fill-rule="evenodd" clip-rule="evenodd" d="M30.8252 10.4464V11.7416C30.8252 12.0944 30.579 12.3902 30.232 12.4542C21.2067 14.1257 23.7933 14.1257 14.7681 12.4542C14.4211 12.3902 14.1748 12.0944 14.1748 11.7416V4.3361L15.2928 4.30859V11.2568C23.6932 12.8297 21.3868 12.7972 30.2321 11.1591C30.579 11.0951 30.8252 10.7992 30.8252 10.4464Z" fill="#685E68"/>
<path fill-rule="evenodd" clip-rule="evenodd" d="M22.4999 1.4375L34.1466 4.53125C34.2899 4.56939 34.2899 4.77392 34.1466 4.81197L22.4999 7.90572L10.8531 4.81197C10.7098 4.77392 10.7098 4.56939 10.8531 4.53125L22.4999 1.4375Z" fill="#837683"/>
<path fill-rule="evenodd" clip-rule="evenodd" d="M31.9479 3.94735L34.1465 4.53139C34.2897 4.56953 34.2898 4.77414 34.1465 4.8122L22.4997 7.90586L10.8531 4.81211C10.7097 4.77405 10.7098 4.56944 10.8531 4.5313L13.0517 3.94727L22.4998 6.45698L31.9479 3.94735Z" fill="#685E68"/>
<path fill-rule="evenodd" clip-rule="evenodd" d="M41.5567 22.3301C42.6785 22.3301 43.5936 23.2451 43.5936 24.3669V38.4432C43.5936 39.0041 43.3936 39.4868 42.997 39.8834L39.9127 42.9677C39.516 43.3643 39.0333 43.5643 38.4724 43.5643H20.3733C19.2515 43.5643 18.3364 42.6493 18.3364 41.5274V24.3669C18.3364 23.2451 19.2514 22.3301 20.3733 22.3301H41.5567Z" fill="#ECEFF1"/>
<path fill-rule="evenodd" clip-rule="evenodd" d="M41.5567 22.3301C42.6786 22.3301 43.5936 23.2451 43.5936 24.3669V38.4432C43.5936 39.0041 43.3936 39.4868 42.997 39.8834H42.0149V38.4432V35.0785V24.3669C42.0149 23.2451 41.0999 22.3301 39.978 22.3301H41.5567Z" fill="#D1D1D6"/>
<path fill-rule="evenodd" clip-rule="evenodd" d="M39.3164 39.7963V43.388C39.5327 43.2892 39.7319 43.1491 39.913 42.968L42.9973 39.8837C43.1784 39.7026 43.3185 39.5034 43.4173 39.2871H39.8256C39.5451 39.2871 39.3164 39.5159 39.3164 39.7963Z" fill="#D1D1D6"/>
<path fill-rule="evenodd" clip-rule="evenodd" d="M42.0151 40.8657L42.9972 39.8837C43.1784 39.7026 43.3185 39.5034 43.4173 39.2871H42.0151V40.8657Z" fill="#B1B1B5"/>
<path fill-rule="evenodd" clip-rule="evenodd" d="M18.3364 26.7752H43.5936V24.3669C43.5936 23.2451 42.6785 22.3301 41.5567 22.3301C34.5456 22.3301 27.3845 22.3301 20.3733 22.3301C19.2515 22.3301 18.3364 23.2451 18.3364 24.3669V26.7752Z" fill="#D1D1D6"/>
<path fill-rule="evenodd" clip-rule="evenodd" d="M42.0149 26.7752H43.5935V24.3669C43.5935 23.2451 42.6785 22.3301 41.5566 22.3301H39.978C41.0999 22.3301 42.0149 23.2451 42.0149 24.3669V26.7752Z" fill="#B1B1B5"/>
<path fill-rule="evenodd" clip-rule="evenodd" d="M24.289 29.8691H22.3641C22.0742 29.8691 21.8379 30.1055 21.8379 30.3953V32.3201C21.8379 32.61 22.0742 32.8463 22.3641 32.8463H24.289C24.5788 32.8463 24.8152 32.61 24.8152 32.3201V30.3953C24.8152 30.1055 24.5788 29.8691 24.289 29.8691Z" fill="#FE646F"/>
<path fill-rule="evenodd" clip-rule="evenodd" d="M24.2889 29.8691V31.7939C24.2889 32.0837 24.0526 32.3201 23.7627 32.3201H21.8379C21.8379 32.61 22.0742 32.8463 22.3641 32.8463H24.289C24.5788 32.8463 24.8152 32.61 24.8152 32.3201V30.3953C24.8151 30.1055 24.5788 29.8691 24.2889 29.8691Z" fill="#FD4755"/>
<path fill-rule="evenodd" clip-rule="evenodd" d="M28.1083 29.8691H26.1834C25.8937 29.8691 25.6572 30.1055 25.6572 30.3953V32.3201C25.6572 32.61 25.8936 32.8463 26.1834 32.8463H28.1083C28.3982 32.8463 28.6345 32.61 28.6345 32.3201V30.3953C28.6345 30.1055 28.3982 29.8691 28.1083 29.8691Z" fill="#8AC9FE"/>
<path fill-rule="evenodd" clip-rule="evenodd" d="M28.1082 29.8691V31.7939C28.1082 32.0837 27.8719 32.3201 27.582 32.3201H25.6572C25.6572 32.61 25.8936 32.8463 26.1834 32.8463H28.1083C28.3982 32.8463 28.6345 32.61 28.6345 32.3201V30.3953C28.6344 30.1055 28.3981 29.8691 28.1082 29.8691Z" fill="#60B7FF"/>
<path fill-rule="evenodd" clip-rule="evenodd" d="M31.9276 29.8691H30.0028C29.7129 29.8691 29.4766 30.1055 29.4766 30.3953V32.3201C29.4766 32.61 29.7129 32.8463 30.0028 32.8463H31.9276C32.2174 32.8463 32.4538 32.61 32.4538 32.3201V30.3953C32.4538 30.1055 32.2174 29.8691 31.9276 29.8691Z" fill="#8AC9FE"/>
<path fill-rule="evenodd" clip-rule="evenodd" d="M31.9276 29.8691V31.7939C31.9276 32.0837 31.6912 32.3201 31.4014 32.3201H29.4766C29.4766 32.61 29.7129 32.8463 30.0028 32.8463H31.9276C32.2174 32.8463 32.4538 32.61 32.4538 32.3201V30.3953C32.4538 30.1055 32.2174 29.8691 31.9276 29.8691Z" fill="#60B7FF"/>
<path fill-rule="evenodd" clip-rule="evenodd" d="M35.7464 29.8691H33.8215C33.5317 29.8691 33.2954 30.1055 33.2954 30.3953V32.3201C33.2954 32.61 33.5317 32.8463 33.8215 32.8463H35.7464C36.0363 32.8463 36.2726 32.61 36.2726 32.3201V30.3953C36.2726 30.1055 36.0363 29.8691 35.7464 29.8691Z" fill="#8AC9FE"/>
<path fill-rule="evenodd" clip-rule="evenodd" d="M35.7464 29.8691V31.7939C35.7464 32.0837 35.5101 32.3201 35.2202 32.3201H33.2954C33.2954 32.61 33.5317 32.8463 33.8215 32.8463H35.7464C36.0363 32.8463 36.2726 32.61 36.2726 32.3201V30.3953C36.2726 30.1055 36.0363 29.8691 35.7464 29.8691Z" fill="#60B7FF"/>
<path fill-rule="evenodd" clip-rule="evenodd" d="M39.5654 29.8691H37.6405C37.3507 29.8691 37.1143 30.1055 37.1143 30.3953V32.3201C37.1143 32.61 37.3507 32.8463 37.6405 32.8463H39.5654C39.8551 32.8463 40.0916 32.61 40.0916 32.3201V30.3953C40.0916 30.1055 39.8552 29.8691 39.5654 29.8691Z" fill="#8AC9FE"/>
<path fill-rule="evenodd" clip-rule="evenodd" d="M39.5654 29.8691V31.7939C39.5654 32.0837 39.3289 32.3201 39.0392 32.3201H37.1143C37.1143 32.61 37.3507 32.8463 37.6405 32.8463H39.5654C39.8551 32.8463 40.0916 32.61 40.0916 32.3201V30.3953C40.0916 30.1055 39.8552 29.8691 39.5654 29.8691Z" fill="#60B7FF"/>
<path fill-rule="evenodd" clip-rule="evenodd" d="M39.5654 33.6895H37.6405C37.3507 33.6895 37.1143 33.9259 37.1143 34.2157V36.1405C37.1143 36.4303 37.3507 36.6667 37.6405 36.6667H39.5654C39.8551 36.6667 40.0916 36.4304 40.0916 36.1405V34.2157C40.0916 33.9258 39.8552 33.6895 39.5654 33.6895Z" fill="#8AC9FE"/>
<path fill-rule="evenodd" clip-rule="evenodd" d="M39.5654 33.6895V35.6143C39.5654 35.9041 39.3289 36.1405 39.0392 36.1405H37.1143C37.1143 36.4303 37.3507 36.6667 37.6405 36.6667H39.5654C39.8551 36.6667 40.0916 36.4304 40.0916 36.1405V34.2157C40.0916 33.9258 39.8552 33.6895 39.5654 33.6895Z" fill="#60B7FF"/>
<path fill-rule="evenodd" clip-rule="evenodd" d="M35.7464 33.6895H33.8215C33.5317 33.6895 33.2954 33.9259 33.2954 34.2157V36.1405C33.2954 36.4303 33.5317 36.6667 33.8215 36.6667H35.7464C36.0363 36.6667 36.2726 36.4304 36.2726 36.1405V34.2157C36.2726 33.9258 36.0363 33.6895 35.7464 33.6895Z" fill="#8AC9FE"/>
<path fill-rule="evenodd" clip-rule="evenodd" d="M35.7464 33.6895V35.6143C35.7464 35.9041 35.5101 36.1405 35.2202 36.1405H33.2954C33.2954 36.4303 33.5317 36.6667 33.8215 36.6667H35.7464C36.0363 36.6667 36.2726 36.4304 36.2726 36.1405V34.2157C36.2726 33.9258 36.0363 33.6895 35.7464 33.6895Z" fill="#60B7FF"/>
<path fill-rule="evenodd" clip-rule="evenodd" d="M31.9276 33.6895H30.0028C29.7129 33.6895 29.4766 33.9259 29.4766 34.2157V36.1405C29.4766 36.4303 29.7129 36.6667 30.0028 36.6667H31.9276C32.2174 36.6667 32.4538 36.4304 32.4538 36.1405V34.2157C32.4538 33.9258 32.2174 33.6895 31.9276 33.6895Z" fill="#8AC9FE"/>
<path fill-rule="evenodd" clip-rule="evenodd" d="M31.9276 33.6895V35.6143C31.9276 35.9041 31.6912 36.1405 31.4014 36.1405H29.4766C29.4766 36.4303 29.7129 36.6667 30.0028 36.6667H31.9276C32.2174 36.6667 32.4538 36.4304 32.4538 36.1405V34.2157C32.4538 33.9258 32.2174 33.6895 31.9276 33.6895Z" fill="#60B7FF"/>
<path fill-rule="evenodd" clip-rule="evenodd" d="M28.1083 33.6895H26.1834C25.8937 33.6895 25.6572 33.9259 25.6572 34.2157V36.1405C25.6572 36.4303 25.8936 36.6667 26.1834 36.6667H28.1083C28.3982 36.6667 28.6345 36.4304 28.6345 36.1405V34.2157C28.6345 33.9258 28.3982 33.6895 28.1083 33.6895Z" fill="#8AC9FE"/>
<path fill-rule="evenodd" clip-rule="evenodd" d="M28.1082 33.6895V35.6143C28.1082 35.9041 27.8719 36.1405 27.582 36.1405H25.6572C25.6572 36.4303 25.8936 36.6667 26.1834 36.6667H28.1083C28.3982 36.6667 28.6345 36.4304 28.6345 36.1405V34.2157C28.6344 33.9258 28.3981 33.6895 28.1082 33.6895Z" fill="#60B7FF"/>
<path fill-rule="evenodd" clip-rule="evenodd" d="M24.289 33.6895H22.3641C22.0742 33.6895 21.8379 33.9259 21.8379 34.2157V36.1405C21.8379 36.4303 22.0742 36.6667 22.3641 36.6667H24.289C24.5788 36.6667 24.8152 36.4304 24.8152 36.1405V34.2157C24.8152 33.9258 24.5788 33.6895 24.289 33.6895Z" fill="#FE646F"/>
<path fill-rule="evenodd" clip-rule="evenodd" d="M24.2889 33.6895V35.6143C24.2889 35.9041 24.0526 36.1405 23.7627 36.1405H21.8379C21.8379 36.4303 22.0742 36.6667 22.3641 36.6667H24.289C24.5788 36.6667 24.8152 36.4304 24.8152 36.1405V34.2157C24.8151 33.9258 24.5788 33.6895 24.2889 33.6895Z" fill="#FD4755"/>
<path fill-rule="evenodd" clip-rule="evenodd" d="M24.289 37.5078H22.3641C22.0742 37.5078 21.8379 37.7442 21.8379 38.034V39.9589C21.8379 40.2488 22.0742 40.4851 22.3641 40.4851H24.289C24.5788 40.4851 24.8152 40.2488 24.8152 39.9589V38.034C24.8152 37.7442 24.5788 37.5078 24.289 37.5078Z" fill="#FE646F"/>
<path fill-rule="evenodd" clip-rule="evenodd" d="M24.2894 37.5078V39.4326C24.2894 39.7225 24.053 39.9588 23.7632 39.9588H21.8384C21.8384 40.2487 22.0747 40.485 22.3646 40.485H24.2895C24.5792 40.485 24.8157 40.2487 24.8157 39.9588V38.0339C24.8156 37.7441 24.5792 37.5078 24.2894 37.5078Z" fill="#FD4755"/>
<path fill-rule="evenodd" clip-rule="evenodd" d="M28.1083 37.5078H26.1834C25.8937 37.5078 25.6572 37.7442 25.6572 38.034V39.9589C25.6572 40.2488 25.8936 40.4851 26.1834 40.4851H28.1083C28.3982 40.4851 28.6345 40.2488 28.6345 39.9589V38.034C28.6345 37.7442 28.3982 37.5078 28.1083 37.5078Z" fill="#8AC9FE"/>
<path fill-rule="evenodd" clip-rule="evenodd" d="M28.1082 37.5078V39.4326C28.1082 39.7225 27.8719 39.9588 27.582 39.9588H25.6572C25.6572 40.2487 25.8936 40.485 26.1834 40.485H28.1083C28.3982 40.485 28.6345 40.2487 28.6345 39.9588V38.0339C28.6344 37.7441 28.3981 37.5078 28.1082 37.5078Z" fill="#60B7FF"/>
<path fill-rule="evenodd" clip-rule="evenodd" d="M31.9276 37.5078H30.0028C29.7129 37.5078 29.4766 37.7442 29.4766 38.034V39.9589C29.4766 40.2488 29.7129 40.4851 30.0028 40.4851H31.9276C32.2174 40.4851 32.4538 40.2488 32.4538 39.9589V38.034C32.4538 37.7442 32.2174 37.5078 31.9276 37.5078Z" fill="#8AC9FE"/>
<path fill-rule="evenodd" clip-rule="evenodd" d="M31.9276 37.5078V39.4326C31.9276 39.7225 31.6912 39.9588 31.4014 39.9588H29.4766C29.4766 40.2487 29.7129 40.485 30.0028 40.485H31.9276C32.2174 40.485 32.4538 40.2487 32.4538 39.9588V38.0339C32.4538 37.7441 32.2174 37.5078 31.9276 37.5078Z" fill="#60B7FF"/>
<path fill-rule="evenodd" clip-rule="evenodd" d="M35.7464 37.5078H33.8215C33.5317 37.5078 33.2954 37.7442 33.2954 38.034V39.9589C33.2954 40.2488 33.5317 40.4851 33.8215 40.4851H35.7464C36.0363 40.4851 36.2726 40.2488 36.2726 39.9589V38.034C36.2726 37.7442 36.0363 37.5078 35.7464 37.5078Z" fill="#8AC9FE"/>
<path fill-rule="evenodd" clip-rule="evenodd" d="M35.7464 37.5078V39.4326C35.7464 39.7225 35.5101 39.9588 35.2202 39.9588H33.2954C33.2954 40.2487 33.5317 40.485 33.8215 40.485H35.7464C36.0363 40.485 36.2726 40.2487 36.2726 39.9588V38.0339C36.2726 37.7441 36.0363 37.5078 35.7464 37.5078Z" fill="#60B7FF"/>
<path fill-rule="evenodd" clip-rule="evenodd" d="M21.9672 20.6309H22.9769C23.2574 20.6309 23.4862 20.8596 23.4862 21.14V24.2288C23.4862 24.5093 23.2574 24.7381 22.9769 24.7381H21.9672C21.6868 24.7381 21.458 24.5093 21.458 24.2288V21.14C21.458 20.8596 21.6868 20.6309 21.9672 20.6309ZM38.9529 20.6309H39.9627C40.2431 20.6309 40.4718 20.8596 40.4718 21.14V24.2288C40.4718 24.5093 40.243 24.7381 39.9627 24.7381H38.9529C38.6724 24.7381 38.4438 24.5093 38.4438 24.2288V21.14C38.4438 20.8596 38.6724 20.6309 38.9529 20.6309ZM33.2911 20.6309H34.3008C34.5812 20.6309 34.81 20.8596 34.81 21.14V24.2288C34.81 24.5093 34.5813 24.7381 34.3008 24.7381H33.2911C33.0106 24.7381 32.7818 24.5093 32.7818 24.2288V21.14C32.7818 20.8596 33.0106 20.6309 33.2911 20.6309ZM27.6292 20.6309H28.6388C28.9193 20.6309 29.1481 20.8596 29.1481 21.14V24.2288C29.1481 24.5093 28.9193 24.7381 28.6388 24.7381H27.6292C27.3487 24.7381 27.1199 24.5093 27.1199 24.2288V21.14C27.1199 20.8596 27.3487 20.6309 27.6292 20.6309Z" fill="#837683"/>
<path fill-rule="evenodd" clip-rule="evenodd" d="M38.4438 24.2289C38.4438 24.5094 38.6725 24.7382 38.9529 24.7382H39.9627C40.2431 24.7382 40.4718 24.5094 40.4718 24.2289V22.3785V22.3298V21.1401C40.4718 20.8596 40.243 20.6309 39.9626 20.6309V22.3298V23.7197C39.9626 24.0001 39.7338 24.2289 39.4534 24.2289H38.4438ZM28.1296 24.2289H27.1199C27.1199 24.5094 27.3486 24.7382 27.6291 24.7382H28.6388C28.9193 24.7382 29.1481 24.5094 29.1481 24.2289V22.3298V21.1401C29.1481 20.8596 28.9193 20.6309 28.6388 20.6309V22.3298V23.7197C28.6388 24.0001 28.4101 24.2289 28.1296 24.2289ZM22.9769 24.7382C23.2574 24.7382 23.4862 24.5094 23.4862 24.2289V22.3298V21.1401C23.4862 20.8596 23.2574 20.6309 22.9769 20.6309V22.3298V23.7197C22.9769 24.0001 22.7482 24.2289 22.4677 24.2289H21.458C21.458 24.5094 21.6868 24.7382 21.9672 24.7382H22.9769ZM34.3008 24.7382C34.5812 24.7382 34.81 24.5094 34.81 24.2289V22.3298V21.1401C34.81 20.8596 34.5812 20.6309 34.3008 20.6309V22.3298V23.7197C34.3008 24.0001 34.072 24.2289 33.7915 24.2289H32.7818C32.7818 24.5094 33.0105 24.7382 33.2911 24.7382H34.3008Z" fill="#685E68"/>
</svg>
