<svg xmlns="http://www.w3.org/2000/svg" width="44" height="44" viewBox="0 0 44 44"><defs><style>.a{fill:#ddd;opacity:0;}.b{fill:#3b3a39;}</style></defs><g transform="translate(-726 -1200)"><g transform="translate(-241 -16)"><rect class="a" width="44" height="44" transform="translate(967 1216)"/></g><g transform="translate(627.128 1033.846)"><g transform="translate(106.872 169.154)"><path class="b" d="M119.162,203.582a.445.445,0,0,0-.63,0c-.292.29-.71.707-.909.907a.437.437,0,0,0-.125.277l-.223,2.9a.447.447,0,0,0,.5.479l2.783-.32a.447.447,0,0,0,.265-.128l.909-.909a.446.446,0,0,0,0-.633Zm12.011-6.876-2.566-2.567a.448.448,0,0,0-.633,0l-7.191,7.19a.449.449,0,0,0,0,.634l2.567,2.566a.448.448,0,0,0,.633,0l7.19-7.19A.446.446,0,0,0,131.173,196.706Zm-1.93-18.282a1.79,1.79,0,0,0-1.79-1.79h-.972a.448.448,0,0,0-.447.447v2.685a.447.447,0,0,1-.447.447H110.443a.447.447,0,0,1-.447-.447v-2.685a.448.448,0,0,0-.447-.447h-.887a1.79,1.79,0,0,0-1.79,1.79V201.69a1.789,1.789,0,0,0,1.79,1.79h6.956a2.651,2.651,0,0,1,.419-.57c.324-.326,1.229-1.226,1.229-1.226l11.978-11.978ZM118.952,191.29h-6.264a1.119,1.119,0,1,1,0-2.237h6.264a1.119,1.119,0,0,1,0,2.237Zm4.474-4.474H112.688a1.119,1.119,0,0,1,0-2.237h10.738a1.119,1.119,0,1,1,0,2.237Z" transform="translate(-106.872 -169.941)"/><path class="b" d="M122.061,172.918a1.638,1.638,0,0,1-1.136-1.541,2.191,2.191,0,0,0-2.191-2.223h-.093a2.14,2.14,0,0,0-2.191,2.126,1.661,1.661,0,0,1-1.13,1.636c-1.423.48-2.456.92-2.456,2.5v1.342a.448.448,0,0,0,.447.447h10.746a.448.448,0,0,0,.447-.447v-1.342C124.5,173.838,123.478,173.4,122.061,172.918Zm13.279,19.465-2.566-2.566a.448.448,0,0,0-.633,0l-1.349,1.349a.448.448,0,0,0,0,.633l2.566,2.567a.448.448,0,0,0,.633,0l1.349-1.349A.447.447,0,0,0,135.34,192.382Z" transform="translate(-107.502 -169.154)"/></g></g></g></svg>