<svg xmlns="http://www.w3.org/2000/svg" width="975" height="304" viewBox="0 0 975 304"><defs><style>.a{fill:none;stroke:#ddd;stroke-width:2px;}.b{fill:#ddd;}</style></defs><g transform="translate(-191 -4227)"><path class="a" d="M200,3977h966" transform="translate(0 402)"/><g transform="translate(0 402)"><path class="a" d="M200,3968V3826h22"/><circle class="b" cx="9" cy="9" r="9" transform="translate(191 3966)"/></g><g transform="translate(312 402)"><path class="a" d="M200,3968V3826h22"/><circle class="b" cx="9" cy="9" r="9" transform="translate(191 3966)"/></g><g transform="translate(627 402)"><path class="a" d="M200,3968V3826h22"/><circle class="b" cx="9" cy="9" r="9" transform="translate(191 3966)"/></g><g transform="translate(346 4368)"><path class="a" d="M200,3823v145h22" transform="translate(-189 -3806)"/><circle class="b" cx="9" cy="9" r="9" transform="translate(2)"/></g><g transform="translate(657 4368)"><path class="a" d="M200,3822v146h22" transform="translate(-189 -3806)"/><circle class="b" cx="9" cy="9" r="9" transform="translate(2)"/></g><g transform="translate(975 4368)"><path class="a" d="M200,3823v145h22" transform="translate(-189 -3806)"/><circle class="b" cx="9" cy="9" r="9" transform="translate(2)"/></g></g></svg>