<svg width="16" height="17" viewBox="0 0 16 17" fill="none" xmlns="http://www.w3.org/2000/svg">
<g id="Group">
<path id="Vector" d="M12.9167 1.72916H12.3196V1.125C12.3196 0.779813 12.0398 0.5 11.6946 0.5C11.3494 0.5 11.0696 0.779813 11.0696 1.125V1.72916H4.9375V1.125C4.9375 0.779813 4.65769 0.5 4.3125 0.5C3.96731 0.5 3.6875 0.779813 3.6875 1.125V1.72916H3.09047C1.38637 1.72916 0 3.11553 0 4.81959V13.4095C0 15.1136 1.38637 16.5 3.09047 16.5H12.9167C14.6208 16.5 16.0071 15.1136 16.0071 13.4095V4.81959C16.0071 3.11553 14.6208 1.72916 12.9167 1.72916ZM3.09047 2.97916H3.6875V4.19791C3.6875 4.54309 3.96731 4.82291 4.3125 4.82291C4.65769 4.82291 4.9375 4.54309 4.9375 4.19791V2.97916H11.0696V4.19791C11.0696 4.54309 11.3494 4.82291 11.6946 4.82291C12.0398 4.82291 12.3196 4.54309 12.3196 4.19791V2.97916H12.9167C13.9315 2.97916 14.7571 3.80478 14.7571 4.81959V5.41666H1.25V4.81959C1.25 3.80478 2.07562 2.97916 3.09047 2.97916ZM12.9167 15.25H3.09047C2.07562 15.25 1.25 14.4244 1.25 13.4095V6.66666H14.7571V13.4095C14.7571 14.4244 13.9315 15.25 12.9167 15.25ZM5.55209 9.125C5.55209 9.47019 5.27228 9.75 4.92709 9.75H3.69794C3.35275 9.75 3.07294 9.47019 3.07294 9.125C3.07294 8.77981 3.35275 8.5 3.69794 8.5H4.92709C5.27225 8.5 5.55209 8.77981 5.55209 9.125ZM12.9342 9.125C12.9342 9.47019 12.6544 9.75 12.3092 9.75H11.0801C10.7349 9.75 10.4551 9.47019 10.4551 9.125C10.4551 8.77981 10.7349 8.5 11.0801 8.5H12.3092C12.6544 8.5 12.9342 8.77981 12.9342 9.125ZM9.23959 9.125C9.23959 9.47019 8.95978 9.75 8.61459 9.75H7.38544C7.04025 9.75 6.76044 9.47019 6.76044 9.125C6.76044 8.77981 7.04025 8.5 7.38544 8.5H8.61459C8.95975 8.5 9.23959 8.77981 9.23959 9.125ZM5.55209 12.8125C5.55209 13.1577 5.27228 13.4375 4.92709 13.4375H3.69794C3.35275 13.4375 3.07294 13.1577 3.07294 12.8125C3.07294 12.4673 3.35275 12.1875 3.69794 12.1875H4.92709C5.27225 12.1875 5.55209 12.4673 5.55209 12.8125ZM12.9342 12.8125C12.9342 13.1577 12.6544 13.4375 12.3092 13.4375H11.0801C10.7349 13.4375 10.4551 13.1577 10.4551 12.8125C10.4551 12.4673 10.7349 12.1875 11.0801 12.1875H12.3092C12.6544 12.1875 12.9342 12.4673 12.9342 12.8125ZM9.23959 12.8125C9.23959 13.1577 8.95978 13.4375 8.61459 13.4375H7.38544C7.04025 13.4375 6.76044 13.1577 6.76044 12.8125C6.76044 12.4673 7.04025 12.1875 7.38544 12.1875H8.61459C8.95975 12.1875 9.23959 12.4673 9.23959 12.8125Z" fill="#E50914"/>
</g>
</svg>
