<svg width="17" height="17" viewBox="0 0 17 17" fill="none" xmlns="http://www.w3.org/2000/svg">
<g id="Notebook" clip-path="url(#clip0_19395_665)">
<g id="Group">
<path id="Vector" d="M7.17256 3.90203L6.952 4.12481C6.70653 3.90878 6.33212 3.918 6.09762 4.15246C5.85353 4.39656 5.85353 4.79228 6.09762 5.03634L6.51315 5.4519C6.63037 5.56915 6.78937 5.63497 6.95512 5.63497H6.95665C7.12296 5.63453 7.28221 5.5679 7.39925 5.44971L8.06084 4.78153C8.30371 4.53621 8.30175 4.1405 8.05646 3.89765C7.81118 3.65481 7.4154 3.65678 7.17256 3.90203Z" fill="#E50914"/>
<path id="Vector_2" d="M7.34054 7.72625L7.11997 7.949C6.8745 7.73306 6.50007 7.74228 6.26557 7.97671C6.0215 8.22081 6.0215 8.61653 6.26557 8.86059L6.6811 9.27612C6.79832 9.39334 6.95729 9.45915 7.12304 9.45915H7.12457C7.29088 9.45871 7.45013 9.39209 7.56716 9.2739L8.22875 8.60575C8.4716 8.36047 8.46966 7.96475 8.22438 7.72187C7.97916 7.47903 7.58341 7.481 7.34054 7.72625Z" fill="#E50914"/>
<path id="Vector_3" d="M6.68109 13.1004C6.79831 13.2176 6.95728 13.2834 7.12306 13.2834H7.12459C7.2909 13.283 7.45015 13.2164 7.56718 13.0982L8.22878 12.43C8.47165 12.1847 8.46968 11.789 8.2244 11.5461C7.97912 11.3032 7.58337 11.3052 7.34053 11.5505L7.11996 11.7733C6.87453 11.5573 6.50009 11.5665 6.26559 11.8009C6.0215 12.045 6.0215 12.4408 6.26559 12.6848L6.68109 13.1004Z" fill="#E50914"/>
<path id="Vector_4" d="M11.8097 3.99414H10.1934C9.84817 3.99414 9.56836 4.27395 9.56836 4.61914C9.56836 4.96433 9.84817 5.24414 10.1934 5.24414H11.8097C12.1549 5.24414 12.4347 4.96433 12.4347 4.61914C12.4347 4.27395 12.1549 3.99414 11.8097 3.99414Z" fill="#E50914"/>
<path id="Vector_5" d="M11.8097 7.9502H10.1934C9.84817 7.9502 9.56836 8.23001 9.56836 8.5752C9.56836 8.92038 9.84817 9.2002 10.1934 9.2002H11.8097C12.1549 9.2002 12.4347 8.92038 12.4347 8.5752C12.4347 8.23001 12.1549 7.9502 11.8097 7.9502Z" fill="#E50914"/>
<path id="Vector_6" d="M11.8097 11.7559H10.1934C9.84817 11.7559 9.56836 12.0357 9.56836 12.3809C9.56836 12.726 9.84817 13.0059 10.1934 13.0059H11.8097C12.1549 13.0059 12.4347 12.726 12.4347 12.3809C12.4347 12.0357 12.1549 11.7559 11.8097 11.7559Z" fill="#E50914"/>
<path id="Vector_7" d="M14.4144 11.5412C14.7596 11.5412 15.0394 11.2614 15.0394 10.9162V3C15.0394 1.6215 13.9179 0.5 12.5394 0.5H5.13554C3.75704 0.5 2.63554 1.6215 2.63554 3V3.21731H2.58545C2.24026 3.21731 1.96045 3.49713 1.96045 3.84231C1.96045 4.1875 2.24026 4.46731 2.58545 4.46731H2.63554V6.32244H2.58545C2.24026 6.32244 1.96045 6.60225 1.96045 6.94744C1.96045 7.29262 2.24026 7.57244 2.58545 7.57244H2.63554V9.42753H2.58545C2.24026 9.42753 1.96045 9.70734 1.96045 10.0525C1.96045 10.3977 2.24026 10.6775 2.58545 10.6775H2.63554V12.5327H2.58545C2.24026 12.5327 1.96045 12.8125 1.96045 13.1577C1.96045 13.5028 2.24026 13.7827 2.58545 13.7827H2.63554V14C2.63554 15.3785 3.75704 16.5 5.13554 16.5H12.5394C13.9107 16.5 15.0322 15.3844 15.0394 14.0133C15.0411 13.6681 14.7628 13.3868 14.4176 13.385H14.4143C14.0706 13.385 13.7912 13.6627 13.7894 14.0068C13.7858 14.6923 13.225 15.25 12.5394 15.25H5.13554C4.44629 15.25 3.88554 14.6892 3.88554 14V13.7827H4.02332C4.36851 13.7827 4.64832 13.5029 4.64832 13.1577C4.64832 12.8125 4.36851 12.5327 4.02332 12.5327H3.88554V10.6776H4.02332C4.36851 10.6776 4.64832 10.3977 4.64832 10.0526C4.64832 9.70738 4.36851 9.42756 4.02332 9.42756H3.88554V7.57247H4.02332C4.36851 7.57247 4.64832 7.29266 4.64832 6.94747C4.64832 6.60228 4.36851 6.32247 4.02332 6.32247H3.88554V4.46734H4.02332C4.36851 4.46734 4.64832 4.18753 4.64832 3.84234C4.64832 3.49716 4.36851 3.21734 4.02332 3.21734H3.88554V3C3.88554 2.31075 4.44629 1.75 5.13554 1.75H12.5394C13.2286 1.75 13.7894 2.31075 13.7894 3V10.9162C13.7894 11.2614 14.0692 11.5412 14.4144 11.5412Z" fill="#E50914"/>
</g>
</g>
<defs>
<clipPath id="clip0_19395_665">
<rect width="16" height="16" fill="white" transform="translate(0.5 0.5)"/>
</clipPath>
</defs>
</svg>
