<svg width="17" height="17" viewBox="0 0 17 17" fill="none" xmlns="http://www.w3.org/2000/svg">
<g id="Share link" clip-path="url(#clip0_19395_698)">
<path id="Vector" d="M16.5 8.59375V14C16.5 15.3785 15.3785 16.5 14 16.5H3C1.62146 16.5 0.5 15.3785 0.5 14V3C0.5 1.62146 1.62146 0.5 3 0.5H8.4375C8.78271 0.5 9.0625 0.779785 9.0625 1.125C9.0625 1.47021 8.78271 1.75 8.4375 1.75H3C2.31079 1.75 1.75 2.31079 1.75 3V14C1.75 14.6892 2.31079 15.25 3 15.25H14C14.6892 15.25 15.25 14.6892 15.25 14V8.59375C15.25 8.24854 15.5298 7.96875 15.875 7.96875C16.2202 7.96875 16.5 8.24854 16.5 8.59375ZM9.0365 6.30579C9.04834 6.33032 9.06165 6.35425 9.07642 6.37695C9.12378 6.44983 9.23425 6.61707 9.35901 6.78833L7.30811 8.83923C7.06396 9.08337 7.06396 9.47913 7.30811 9.72314C7.43005 9.84521 7.59009 9.90625 7.75 9.90625C7.90991 9.90625 8.06995 9.84521 8.19189 9.72327L9.32349 8.59167C9.35034 8.64075 9.37634 8.69019 9.40051 8.73816C9.51257 8.97461 9.56934 9.21301 9.56934 9.44702C9.56934 10.0864 9.20398 10.7927 8.51233 11.4904L8.45471 11.5403C8.43188 11.5601 8.41052 11.5814 8.39075 11.6042L8.34106 11.6616C7.64282 12.3534 6.93665 12.7188 6.29761 12.7188C5.94519 12.7188 5.61926 12.6101 5.30261 12.387C5.29126 12.377 5.27954 12.3672 5.26758 12.3579L5.20679 12.3114C5.11646 12.2422 5.0271 12.1636 4.94128 12.0778C4.51819 11.6553 4.3125 11.2156 4.3125 10.7336C4.3125 10.0941 4.67798 9.38782 5.36963 8.69006L5.42737 8.64014C5.44995 8.62048 5.47119 8.59937 5.49072 8.57678L5.54065 8.51917C6.08789 7.97681 6.61829 7.63989 7.11743 7.5177C7.45264 7.43567 7.65796 7.09729 7.57581 6.76196C7.49377 6.42676 7.15552 6.22144 6.82019 6.30347C6.09143 6.48193 5.35864 6.93481 4.64197 7.65002C4.63123 7.66077 4.62085 7.67175 4.61096 7.68323L4.5752 7.72449L4.53394 7.76025C4.52246 7.77014 4.51135 7.78052 4.50073 7.79114C3.55981 8.73352 3.0625 9.75098 3.0625 10.7336C3.0625 11.5529 3.39746 12.3027 4.05798 12.9623C4.18225 13.0864 4.31287 13.2012 4.44629 13.3035L4.46643 13.3188C4.48413 13.3354 4.50293 13.3511 4.52258 13.3655C5.06628 13.7659 5.66345 13.9688 6.29761 13.9688C7.27966 13.9688 8.29712 13.4714 9.23999 12.5306C9.25085 12.5198 9.26123 12.5085 9.27124 12.4969L9.30664 12.4561L9.34778 12.4205C9.35925 12.4105 9.37048 12.4001 9.38123 12.3894C10.322 11.447 10.8193 10.4296 10.8193 9.44702C10.8193 9.02332 10.7206 8.60181 10.5259 8.19421C10.5243 8.1908 10.5227 8.18738 10.521 8.18408C10.4769 8.09595 10.3696 7.88794 10.2377 7.67737L12.2544 5.66064C12.4984 5.41663 12.4984 5.02087 12.2544 4.77673C12.0103 4.53271 11.6145 4.53271 11.3705 4.77673L10.2559 5.89136C10.2186 5.83752 10.1819 5.78308 10.1478 5.73157C10.045 5.50513 9.99304 5.27698 9.99304 5.05286C9.99304 4.41345 10.3585 3.70728 11.05 3.00952L11.1078 2.95959C11.1306 2.93982 11.152 2.91858 11.1716 2.89575L11.2212 2.83826C11.9196 2.14661 12.6259 1.78113 13.2648 1.78113C13.6172 1.78113 13.9432 1.88977 14.2599 2.11304C14.2712 2.12305 14.2828 2.13269 14.2949 2.14197L14.3556 2.18848C14.4458 2.25769 14.5352 2.3363 14.6212 2.42212C15.0443 2.8446 15.25 3.2843 15.25 3.76636C15.25 4.40576 14.8845 5.11206 14.1929 5.80981L14.1351 5.85986C14.1125 5.87939 14.0913 5.90063 14.0718 5.92322L14.022 5.98071C13.4852 6.51208 12.9392 6.84082 12.3989 6.95789C12.0616 7.03088 11.8473 7.36365 11.9204 7.70093C11.9838 7.99377 12.2428 8.19373 12.5306 8.19373C12.5745 8.19373 12.6189 8.18921 12.6635 8.17944C13.447 8.00989 14.2064 7.5625 14.9207 6.84985C14.9314 6.83923 14.9417 6.82812 14.9517 6.81665L14.9873 6.77539L15.0287 6.73962C15.04 6.72974 15.0511 6.71936 15.0618 6.70874C16.0027 5.76648 16.5 4.74902 16.5 3.76636C16.5 2.94714 16.165 2.19727 15.5045 1.53772C15.3801 1.41345 15.2495 1.29871 15.1162 1.19653L15.0959 1.18091C15.0782 1.16443 15.0594 1.14893 15.0399 1.13452C14.4963 0.734131 13.899 0.531128 13.2649 0.531128C12.283 0.531128 11.2655 1.02844 10.3225 1.96936C10.3118 1.9801 10.3013 1.99133 10.2913 2.00293L10.2559 2.04395L10.2146 2.07959C10.2031 2.08948 10.192 2.09985 10.1813 2.1106C9.24048 3.05286 8.74316 4.07043 8.74316 5.05298C8.74316 5.47668 8.8418 5.89819 9.0365 6.30579Z" fill="#E50914"/>
</g>
<defs>
<clipPath id="clip0_19395_698">
<rect width="16" height="16" fill="white" transform="translate(0.5 0.5)"/>
</clipPath>
</defs>
</svg>
