<svg width="17" height="17" viewBox="0 0 17 17" fill="none" xmlns="http://www.w3.org/2000/svg">
<g id="Group">
<path id="Vector" d="M8.5 0.5C4.07863 0.5 0.5 4.07803 0.5 8.5C0.5 12.9214 4.07803 16.5 8.5 16.5C12.9214 16.5 16.5 12.922 16.5 8.5C16.5 4.07863 12.922 0.5 8.5 0.5ZM9.125 15.2212V14.6458C9.125 14.3007 8.84519 14.0208 8.5 14.0208C8.15481 14.0208 7.875 14.3007 7.875 14.6458V15.2212C4.64497 14.9266 2.07337 12.3546 1.77878 9.125H2.35419C2.69937 9.125 2.97919 8.84519 2.97919 8.5C2.97919 8.15481 2.69937 7.875 2.35419 7.875H1.77878C2.07341 4.64497 4.64544 2.07337 7.875 1.77875V2.35416C7.875 2.69934 8.15481 2.97916 8.5 2.97916C8.84519 2.97916 9.125 2.69934 9.125 2.35416V1.77875C12.355 2.07341 14.9266 4.64544 15.2212 7.875H14.6458C14.3006 7.875 14.0208 8.15481 14.0208 8.5C14.0208 8.84519 14.3006 9.125 14.6458 9.125H15.2212C14.9266 12.355 12.3546 14.9266 9.125 15.2212ZM11.4003 10.5164C11.6444 10.7605 11.6444 11.1562 11.4003 11.4003C11.1562 11.6443 10.7605 11.6443 10.5164 11.4003L8.05806 8.94191C7.94084 8.82475 7.875 8.66575 7.875 8.5V4.8125C7.875 4.46731 8.15481 4.1875 8.5 4.1875C8.84519 4.1875 9.125 4.46731 9.125 4.8125V8.24113L11.4003 10.5164Z" fill="#E50914"/>
</g>
</svg>
