<svg xmlns="http://www.w3.org/2000/svg" width="16.629" height="16.63" viewBox="0 0 16.629 16.63"><defs><style>.a{fill:#ff1046;fill-rule:evenodd;}</style></defs><g transform="translate(-364.872 -593.689)"><path class="a" d="M371.953,602.486h0l-1.5-1.376a1.106,1.106,0,0,0-.779-.3,1.15,1.15,0,0,0-.8.3l-.58.531a1.018,1.018,0,0,0,0,1.477l2.894,2.645a1.2,1.2,0,0,0,.8.328,1.078,1.078,0,0,0,.8-.34l5.2-5.172a.953.953,0,0,0-.05-1.442l-.592-.53a1.309,1.309,0,0,0-.8-.286,1.16,1.16,0,0,0-.767.341Zm1.223-8.8a8.315,8.315,0,1,1-8.3,8.3,8.314,8.314,0,0,1,8.3-8.3Z" transform="translate(0 0)"/></g></svg>