<svg width="20" height="20" viewBox="0 0 20 20" fill="none" xmlns="http://www.w3.org/2000/svg">
<rect width="20" height="20" fill="#1E1E1E"/>
<g id="Training Calendar Landing Page_Desktop" clip-path="url(#clip0_3434_514)">
<rect width="1440" height="5684" transform="translate(-193 -845)" fill="white"/>
<g id="Frame 26086278">
<g id="calendar" filter="url(#filter0_d_3434_514)">
<mask id="path-1-inside-1_3434_514" fill="white">
<path d="M-33 -23C-33 -28.5229 -28.5228 -33 -23 -33H1077C1082.52 -33 1087 -28.5228 1087 -23V926C1087 931.523 1082.52 936 1077 936H-23C-28.5228 936 -33 931.523 -33 926V-23Z"/>
</mask>
<path d="M-33 -23C-33 -28.5229 -28.5228 -33 -23 -33H1077C1082.52 -33 1087 -28.5228 1087 -23V926C1087 931.523 1082.52 936 1077 936H-23C-28.5228 936 -33 931.523 -33 926V-23Z" fill="white" shape-rendering="crispEdges"/>
<path d="M-23 -32H1077V-34H-23V-32ZM1086 -23V926H1088V-23H1086ZM1077 935H-23V937H1077V935ZM-32 926V-23H-34V926H-32ZM-23 935C-27.9705 935 -32 930.971 -32 926H-34C-34 932.075 -29.0751 937 -23 937V935ZM1086 926C1086 930.971 1081.97 935 1077 935V937C1083.08 937 1088 932.075 1088 926H1086ZM1077 -32C1081.97 -32 1086 -27.9706 1086 -23H1088C1088 -29.0751 1083.08 -34 1077 -34V-32ZM-23 -34C-29.0751 -34 -34 -29.0752 -34 -23H-32C-32 -27.9706 -27.9706 -32 -23 -32V-34Z" fill="#D9D9D9" mask="url(#path-1-inside-1_3434_514)"/>
<g id="customer navi">
<path d="M-33 -23C-33 -28.5228 -28.5228 -33 -23 -33H1077C1082.52 -33 1087 -28.5228 1087 -23V53H-33V-23Z" fill="#080808"/>
<g id="Frame 1000002548">
<g id="filter-list 1">
<path id="Vector" d="M15 4.93366C15 3.13199 13.535 1.66699 11.7333 1.66699H3.26667C1.465 1.66699 0 3.13199 0 4.93366C0 5.71283 0.279167 6.46783 0.786667 7.05949L5 11.9753V15.0003C5 15.2628 5.12333 15.5095 5.33333 15.667L8.66667 18.167C8.81417 18.277 8.99 18.3337 9.16667 18.3337C9.29333 18.3337 9.42167 18.3045 9.53917 18.2462C9.82167 18.1053 10 17.8162 10 17.5003V11.9753L14.2133 7.05949C14.7208 6.46783 15 5.71283 15 4.93366ZM12.9483 5.97533L8.53417 11.1253C8.405 11.2762 8.33333 11.4687 8.33333 11.6678V15.8345L6.66667 14.5845V11.6678C6.66667 11.4687 6.59583 11.2762 6.46583 11.1253L2.05167 5.97449C1.80333 5.68449 1.66667 5.31449 1.66667 4.93283C1.66667 4.05033 2.38417 3.33283 3.26667 3.33283H11.7333C12.6158 3.33283 13.3333 4.05033 13.3333 4.93283C13.3333 5.31449 13.1967 5.68533 12.9483 5.97533ZM20 16.6678C20 17.1278 19.6267 17.5012 19.1667 17.5012H12.5C12.04 17.5012 11.6667 17.1278 11.6667 16.6678C11.6667 16.2078 12.04 15.8345 12.5 15.8345H19.1667C19.6267 15.8345 20 16.2078 20 16.6678ZM20 13.3345C20 13.7945 19.6267 14.1678 19.1667 14.1678H12.5C12.04 14.1678 11.6667 13.7945 11.6667 13.3345C11.6667 12.8745 12.04 12.5012 12.5 12.5012H19.1667C19.6267 12.5012 20 12.8745 20 13.3345ZM15 9.16783H19.1667C19.6267 9.16783 20 9.54116 20 10.0012C20 10.4612 19.6267 10.8345 19.1667 10.8345H15C14.54 10.8345 14.1667 10.4612 14.1667 10.0012C14.1667 9.54116 14.54 9.16783 15 9.16783Z" fill="#AFAFAF"/>
</g>
</g>
</g>
</g>
</g>
</g>
<defs>
<filter id="filter0_d_3434_514" x="-43" y="-38" width="1140" height="989" filterUnits="userSpaceOnUse" color-interpolation-filters="sRGB">
<feFlood flood-opacity="0" result="BackgroundImageFix"/>
<feColorMatrix in="SourceAlpha" type="matrix" values="0 0 0 0 0 0 0 0 0 0 0 0 0 0 0 0 0 0 127 0" result="hardAlpha"/>
<feOffset dy="5"/>
<feGaussianBlur stdDeviation="5"/>
<feComposite in2="hardAlpha" operator="out"/>
<feColorMatrix type="matrix" values="0 0 0 0 0 0 0 0 0 0 0 0 0 0 0 0 0 0 0.1 0"/>
<feBlend mode="normal" in2="BackgroundImageFix" result="effect1_dropShadow_3434_514"/>
<feBlend mode="normal" in="SourceGraphic" in2="effect1_dropShadow_3434_514" result="shape"/>
</filter>
<clipPath id="clip0_3434_514">
<rect width="1440" height="5684" fill="white" transform="translate(-193 -845)"/>
</clipPath>
</defs>
</svg>
