<svg width="47" height="45" viewBox="0 0 47 45" fill="none" xmlns="http://www.w3.org/2000/svg">
<path d="M0.9375 7.08869C0.9375 3.13897 4.20821 -0.056289 8.22056 0.00075201C12.1072 0.0559473 15.2674 3.20401 15.292 7.0429C15.3058 9.19279 14.3502 11.1223 12.8319 12.431C12.6716 12.5691 12.6948 12.8212 12.8778 12.9281L14.2302 13.7185C14.4488 13.8462 14.3571 14.1772 14.103 14.1772L7.97895 14.1758C4.07775 14.1041 0.9375 10.9588 0.9375 7.08869Z" fill="#7ACAA6"/>
<path d="M14.2327 13.7185L12.8803 12.9282C12.6982 12.8218 12.6729 12.5701 12.8323 12.4328C14.368 11.1102 15.3286 9.15258 15.2938 6.97412C15.2335 3.20599 12.1456 0.112854 8.33142 0.00307849C7.79054 -0.0124782 7.26266 0.0312035 6.75391 0.127795C10.0507 0.751995 12.5632 3.62206 12.5851 7.04285C12.5957 8.6995 12.0307 10.2253 11.0762 11.437C10.4998 12.1687 10.6871 13.2297 11.495 13.7019L11.5233 13.7184C11.7395 13.8448 11.6518 14.1695 11.4041 14.1765L14.1055 14.1771C14.3596 14.1773 14.4514 13.8462 14.2327 13.7185Z" fill="#57BE92"/>
<path d="M35.9132 25.7304H19.6312C15.5645 25.7304 13.3391 21.0497 15.9364 17.9591L16.0808 17.7872C17.2251 16.4257 17.8514 14.7119 17.8514 12.9425V9.84146C17.8515 4.40613 22.3127 0 27.8159 0C33.3192 0 37.7804 4.40613 37.7804 9.84146V13.0472C37.7804 14.8351 38.4199 16.5656 39.586 17.9333C42.2157 21.0175 39.9958 25.7304 35.9132 25.7304Z" fill="#C59191"/>
<path d="M44.4698 33.6996V44.3309H11.0703V33.7796C11.0703 31.3907 12.5199 29.2348 14.7482 28.3084L20.1401 25.9934L21.9555 25.2138C23.333 24.6223 24.2238 23.2802 24.2238 21.7966V21.1084H31.3154V21.7614C31.3154 23.2512 32.2151 24.5985 33.6024 25.1856L40.8951 28.2732C43.0682 29.2242 44.4698 31.3512 44.4698 33.6996Z" fill="white"/>
<path d="M20.1412 28.5279C21.9814 29.071 24.69 29.6502 27.9916 29.5932C31.0894 29.5397 33.6323 28.9448 35.4018 28.3866L36.281 26.3188L33.6037 25.1855C32.2167 24.5983 31.3174 23.2513 31.3174 21.7609V21.1084H24.2258V21.7964C24.2258 23.2798 23.3348 24.6218 21.9576 25.2133L19.7891 26.1445L20.1412 28.5279Z" fill="#FFCEBF"/>
<path d="M40.8929 28.2728L35.3994 25.9473L35.3984 25.9474V44.3306H44.468V33.6997C44.468 31.3515 43.0666 29.2241 40.8929 28.2728Z" fill="#8795DE"/>
<path d="M20.1401 25.9932V44.3307H11.0703V33.7794C11.0703 31.3905 12.5199 29.2346 14.7482 28.3082L20.1401 25.9932Z" fill="#8795DE"/>
<path d="M30.2328 24.9536C31.0486 24.9536 31.826 24.7918 32.5347 24.4998C31.7745 23.8068 31.3203 22.8207 31.3203 21.7619V21.1094H24.2288V21.7973C24.2288 22.3332 24.1119 22.8504 23.8984 23.3206C24.9723 24.3316 26.425 24.9535 28.0257 24.9535L30.2328 24.9536Z" fill="#FFB09E"/>
<path d="M34.8591 10.5726V16.3668C34.8591 19.631 32.1798 22.2771 28.8749 22.2771H26.6679C23.3628 22.2771 20.6836 19.6309 20.6836 16.3668V10.5726C20.6836 8.44905 22.4265 6.72754 24.5767 6.72754H30.9661C33.1162 6.72763 34.8591 8.44905 34.8591 10.5726Z" fill="#FFCEBF"/>
<path d="M34.8594 13.5869C34.8567 13.5949 34.8534 13.6026 34.851 13.6108C34.6347 14.3487 34.0669 15.7424 32.6949 16.7874C32.056 17.274 31.3273 17.6256 30.5291 17.8325C30.1673 17.9262 29.9508 18.292 30.0458 18.6493C30.1257 18.9498 30.4 19.1487 30.7006 19.1487C30.7574 19.1487 30.8153 19.1416 30.8729 19.1267C31.8475 18.8741 32.7389 18.4435 33.5222 17.847C34.0632 17.4349 34.501 16.9798 34.8555 16.5223C34.8568 16.4704 34.8595 16.4188 34.8595 16.3666V13.5869H34.8594Z" fill="#7A6D79"/>
<path d="M29.7862 19.6818H28.1989C27.4764 19.6818 26.8906 19.1033 26.8906 18.3897C26.8906 17.6762 27.4764 17.0977 28.1989 17.0977H29.7862C30.5087 17.0977 31.0944 17.6762 31.0944 18.3897C31.0943 19.1034 30.5087 19.6818 29.7862 19.6818Z" fill="#685E68"/>
<path d="M29.1859 5.19386C29.3379 3.30069 31.1731 2.0443 32.9295 1.39355C35.8349 3.11296 37.78 6.2525 37.78 9.84116V10.5177C37.6194 10.5511 37.4595 10.5802 37.3015 10.6035C36.3339 10.7463 35.51 10.6845 34.947 10.6035C31.3196 10.1263 29.0024 7.48033 29.1859 5.19386Z" fill="#B98080"/>
<path d="M27.816 0C30.0663 0 32.1423 0.737051 33.8104 1.97974C32.9782 3.4098 31.0674 6.23725 27.4845 8.33045C24.8246 9.88444 22.3165 10.4066 20.772 10.6037H17.8516V9.84138C17.8515 4.40613 22.3127 0 27.816 0Z" fill="#C59191"/>
<path d="M38.9526 44.3313H17.27L16.0741 33.189C15.9893 32.3987 16.6166 31.71 17.4212 31.71H38.8015C39.6062 31.71 40.2334 32.3987 40.1486 33.189L38.9526 44.3313Z" fill="#EFEDEF"/>
<path d="M38.8031 31.71H36.0938C36.8984 31.71 37.5257 32.3987 37.4409 33.189L36.2449 44.3314H38.9543L40.1502 33.189C40.2351 32.3987 39.6078 31.71 38.8031 31.71Z" fill="#E5E1E5"/>
<path d="M45.4966 45H1.26898C0.900299 45 0.601562 44.7049 0.601562 44.3408C0.601562 43.9768 0.900299 43.6816 1.26898 43.6816H45.4966C45.8653 43.6816 46.1641 43.9768 46.1641 44.3408C46.1641 44.7049 45.8653 45 45.4966 45Z" fill="#C9BFC8"/>
<path d="M28.1114 39.8937C29.1588 39.8937 30.0079 39.0551 30.0079 38.0206C30.0079 36.9861 29.1588 36.1475 28.1114 36.1475C27.064 36.1475 26.2148 36.9861 26.2148 38.0206C26.2148 39.0551 27.064 39.8937 28.1114 39.8937Z" fill="#C9BFC8"/>
<path d="M5.40777 7.75779C5.78183 7.75779 6.08506 7.4583 6.08506 7.08886C6.08506 6.71941 5.78183 6.41992 5.40777 6.41992C5.03371 6.41992 4.73047 6.71941 4.73047 7.08886C4.73047 7.4583 5.03371 7.75779 5.40777 7.75779Z" fill="white"/>
<path d="M8.1148 7.75779C8.48886 7.75779 8.79209 7.4583 8.79209 7.08886C8.79209 6.71941 8.48886 6.41992 8.1148 6.41992C7.74074 6.41992 7.4375 6.71941 7.4375 7.08886C7.4375 7.4583 7.74074 7.75779 8.1148 7.75779Z" fill="white"/>
<path d="M10.8257 7.75779C11.1998 7.75779 11.503 7.4583 11.503 7.08886C11.503 6.71941 11.1998 6.41992 10.8257 6.41992C10.4517 6.41992 10.1484 6.71941 10.1484 7.08886C10.1484 7.4583 10.4517 7.75779 10.8257 7.75779Z" fill="white"/>
</svg>
