<svg width="45" height="45" viewBox="0 0 45 45" fill="none" xmlns="http://www.w3.org/2000/svg">
<g id="online-learning 1" clip-path="url(#clip0_12381_7969)">
<g id="Group">
<path id="Vector" d="M43.1209 14.1854V41.7218H1.88281V14.1854C1.88281 12.7712 3.02996 11.624 4.44518 11.624H40.5586C41.9738 11.624 43.1209 12.7712 43.1209 14.1854Z" fill="#DFEAEF"/>
<path id="Vector_2" d="M1.88281 37.6318H43.1209V41.7216H1.88281V37.6318Z" fill="#B4D0D5"/>
<path id="Vector_3" d="M39.9531 14.793V36.0918H5.05316V14.793H39.9531Z" fill="#6EC17D"/>
<path id="Vector_4" d="M44.9992 39.2607H0V40.7658C0 42.823 1.66772 44.4908 3.72498 44.4908H41.2742C43.3315 44.4908 44.9992 42.823 44.9992 40.7658V39.2607Z" fill="#DFEAEF"/>
<path id="Vector_5" d="M24.9425 41.8758H20.0618C18.66 41.8758 17.5234 40.7393 17.5234 39.3374V39.2607H27.4807V39.3374C27.4807 40.7393 26.3443 41.8758 24.9425 41.8758Z" fill="#B4D0D5"/>
<path id="Vector_6" d="M7.79651 44.4904H3.72577C1.66781 44.4904 0 42.8227 0 40.7655V39.2607H4.07074V40.7655C4.07074 42.8227 5.73855 44.4904 7.79651 44.4904Z" fill="#B4D0D5"/>
<path id="Vector_7" d="M32.511 14.208V18.0334C32.511 20.3177 31.1465 22.392 29.036 23.2685C24.8584 25.0051 20.1448 25.0051 15.9672 23.2685C13.8567 22.392 12.4922 20.3177 12.4922 18.0334V14.208H32.511Z" fill="#665E66"/>
<path id="Vector_8" d="M25.1255 24.3676C22.0543 24.8457 18.8809 24.48 15.9672 23.2685C13.8567 22.392 12.4922 20.3177 12.4922 18.0334V14.208H17.7391V18.0334C17.7391 20.3177 19.1036 22.392 21.2141 23.2685C22.4789 23.7945 23.7927 24.1612 25.1255 24.3676Z" fill="#454045"/>
<path id="Vector_9" d="M32.5109 14.208V15.7418L24.3178 20.0824C23.1814 20.6835 21.8215 20.6835 20.6853 20.0824L12.4922 15.7418V14.208H32.5109Z" fill="#454045"/>
<path id="Vector_10" d="M37.4495 7.9173L24.3183 0.961106C23.1824 0.359319 21.8222 0.359319 20.6862 0.961106L7.55512 7.9173C6.08058 8.69838 6.08058 10.8108 7.55512 11.5919L20.6862 18.5482C21.8221 19.15 23.1823 19.15 24.3183 18.5482L37.4495 11.5919C38.924 10.8108 38.924 8.69847 37.4495 7.9173Z" fill="#665E66"/>
<path id="Vector_11" d="M28.3416 25.9851C28.0416 25.9851 27.7984 25.7418 27.7984 25.4419V16.6198L22.0918 10.1124C21.894 9.88679 21.9165 9.54358 22.1421 9.34574C22.3675 9.1479 22.7109 9.17048 22.9087 9.39601L28.7501 16.0572C28.837 16.1563 28.885 16.2836 28.885 16.4153V25.4418C28.8849 25.7419 28.6417 25.9851 28.3416 25.9851Z" fill="#EAB14D"/>
<g id="Group_2">
<path id="Vector_12" d="M27.5705 25.5659L26.4824 27.4506C25.8111 28.6133 26.6502 30.0666 27.9928 30.0666H28.6924C30.0349 30.0666 30.874 28.6133 30.2028 27.4506L29.1146 25.5659C28.7715 24.9715 27.9137 24.9715 27.5705 25.5659Z" fill="#F4DD45"/>
</g>
<g id="Group_3">
<path id="Vector_13" d="M22.0274 33.6022H8.43295C8.05792 33.6022 7.75391 33.2982 7.75391 32.9232C7.75391 32.5482 8.05792 32.2441 8.43295 32.2441H22.0273C22.4024 32.2441 22.7064 32.5482 22.7064 32.9232C22.7064 33.2982 22.4025 33.6022 22.0274 33.6022Z" fill="#665E66"/>
<path id="Vector_14" d="M17.5224 30.7458H8.43295C8.05792 30.7458 7.75391 30.4418 7.75391 30.0667C7.75391 29.6917 8.05792 29.3877 8.43295 29.3877H17.5224C17.8975 29.3877 18.2015 29.6917 18.2015 30.0667C18.2015 30.4418 17.8975 30.7458 17.5224 30.7458Z" fill="#665E66"/>
</g>
</g>
</g>
<defs>
<clipPath id="clip0_12381_7969">
<rect width="45" height="45" fill="white"/>
</clipPath>
</defs>
</svg>
