<svg width="46" height="45" viewBox="0 0 46 45" fill="none" xmlns="http://www.w3.org/2000/svg">
<g clip-path="url(#clip0_12355_3792)">
<path d="M12.3792 44.9994H1.58089C0.865023 44.9994 0.356927 44.3017 0.574105 43.6197C1.31748 41.285 3.90261 39.5605 6.9801 39.5605C10.0543 39.5605 12.6416 41.2849 13.3857 43.6194C13.6033 44.3015 13.0952 44.9994 12.3792 44.9994Z" fill="#FFCE29"/>
<path d="M8.19759 38.7991C8.50327 38.7991 8.79401 38.6585 8.97665 38.4133C9.65358 37.5044 10.0853 36.2708 10.0853 35.3191C10.0853 33.6028 8.69338 32.2158 6.98206 32.2158C5.27074 32.2158 3.87891 33.6028 3.87891 35.3191C3.87891 36.2708 4.31063 37.5044 4.98747 38.4133C5.17011 38.6585 5.46085 38.7991 5.76653 38.7991H8.19759Z" fill="#6D6D6D"/>
<path d="M27.5979 44.9994H16.7996C16.0838 44.9994 15.5757 44.3017 15.7929 43.6197C16.5362 41.285 19.1214 39.5605 22.1989 39.5605C25.273 39.5605 27.8603 41.2849 28.6045 43.6194C28.822 44.3015 28.3138 44.9994 27.5979 44.9994Z" fill="#13BD79"/>
<path d="M23.4163 38.7991C23.722 38.7991 24.0128 38.6585 24.1954 38.4133C24.8723 37.5044 25.3041 36.2708 25.3041 35.3191C25.3041 33.6028 23.9121 32.2158 22.2008 32.2158C20.4895 32.2158 19.0977 33.6028 19.0977 35.3191C19.0977 36.2708 19.5294 37.5044 20.2062 38.4133C20.3889 38.6585 20.6796 38.7991 20.9853 38.7991H23.4163Z" fill="#6D6D6D"/>
<path d="M42.8166 44.9994H32.0184C31.3025 44.9994 30.7944 44.3017 31.0116 43.6197C31.755 41.285 34.3401 39.5605 37.4176 39.5605C40.4918 39.5605 43.0791 41.2849 43.8232 43.6194C44.0408 44.3015 43.5326 44.9994 42.8166 44.9994Z" fill="#E5E3E5"/>
<path d="M38.6312 38.7991C38.9369 38.7991 39.2276 38.6585 39.4102 38.4133C40.0872 37.5044 40.5189 36.2708 40.5189 35.3191C40.5189 33.6028 39.127 32.2158 37.4157 32.2158C35.7044 32.2158 34.3125 33.6028 34.3125 35.3191C34.3125 36.2708 34.7442 37.5044 35.4211 38.4133C35.6037 38.6585 35.8944 38.7991 36.2001 38.7991H38.6312Z" fill="#6D6D6D"/>
<path d="M41.0483 26.8732V6.84646C41.0483 5.96043 40.33 5.24219 39.444 5.24219H4.95192C4.0659 5.24219 3.34766 5.96043 3.34766 6.84646V26.8732C3.34766 27.7592 4.0659 28.4775 4.95192 28.4775H39.444C40.33 28.4775 41.0483 27.7592 41.0483 26.8732Z" fill="#6D6D6D"/>
<path d="M4.95312 6.84668H39.4452V26.8733H4.95312V6.84668Z" fill="#66D5F2"/>
<g opacity="0.08">
<path d="M36.4297 6.84668H39.4417V26.8721H36.4297V6.84668Z" fill="black"/>
</g>
<path d="M25.4501 17.0316L24.6768 16.6751V14.2168H19.714V16.6751L18.9375 17.0101L19.1442 23.9814H19.714V25.0504H24.6768V23.9814H25.2433L25.4501 17.0316Z" fill="#F2B816"/>
<path d="M28.4984 26.8734C28.487 23.4516 28.0871 19.0047 26.2204 17.458C26.0062 17.2808 25.7748 17.1429 25.5213 17.0469L25.4204 17.421C25.3909 17.517 25.3515 17.6303 25.3048 17.7509C25.0315 18.45 24.453 19.484 23.328 19.9295C23.3083 19.9394 23.2862 19.9467 23.264 19.9566C22.9342 20.0773 22.56 20.1486 22.1341 20.1486C21.7452 20.1486 21.4029 20.0896 21.1002 19.9862C21.0977 19.9862 21.0952 19.9837 21.0928 19.9813C19.9998 19.6095 19.4262 18.6765 19.1382 17.9627C19.1062 17.8864 19.0791 17.8125 19.0545 17.7411L18.8698 17.047C18.6163 17.1429 18.3849 17.2808 18.1707 17.4581C16.2908 19.0021 15.8231 23.4507 15.7578 26.8735H28.4984V26.8734Z" fill="white"/>
<path d="M23.3879 19.9228L22.9251 20.9393H21.4776L21 19.9228L22.194 18.832L23.3879 19.9228Z" fill="#EA4E4E"/>
<path d="M19.6878 16.5146L22.1964 18.8325L20.6694 20.4413L18.0625 17.3218L19.6878 16.5146Z" fill="#E5E3E5"/>
<path d="M26.3292 17.3273L23.7223 20.4359L22.1953 18.8325L24.0878 17.0818L24.7041 16.5146C24.7041 16.5146 26.3292 17.3218 26.3292 17.3273Z" fill="#E5E3E5"/>
<path d="M23.1063 26.873L23.1001 26.667L22.9253 20.9385H21.4778L21.2982 26.7064L21.293 26.873H23.1063Z" fill="#EA4E4E"/>
<path d="M34.4882 26.8733V24.0516C34.4882 21.9946 33.2751 20.1349 31.3935 19.3038C29.6736 18.5441 27.4889 17.6125 25.5177 16.8721L25.5078 16.9164L25.301 17.7509L25.0204 18.8857L23.0978 26.6672L23.0469 26.8732H34.4882V26.8733Z" fill="#6D6D6D"/>
<g opacity="0.08">
<path d="M34.495 24.0521V26.8717H32.4444V24.0521C32.4444 21.9961 31.2337 20.1364 29.3522 19.3019C28.1633 18.7784 26.7508 18.173 25.3438 17.6004L25.5128 16.9187L25.5238 16.875C27.4926 17.6113 29.6795 18.5439 31.3974 19.3019C33.2789 20.1364 34.495 21.9961 34.495 24.0521Z" fill="black"/>
</g>
<path d="M21.3399 26.8733L21.2987 26.7067L19.3663 18.8857L19.1373 17.9626L18.8788 16.9164L18.869 16.8721C16.8978 17.6125 14.7131 18.5442 12.9932 19.3038C11.1115 20.1349 9.89844 21.9946 9.89844 24.0516V26.8733H21.3399Z" fill="#6D6D6D"/>
<path d="M24.1832 26.8737L26.7994 22.2455C26.9048 22.059 26.8913 21.828 26.7648 21.6551L26.3552 21.0953C26.1845 20.8618 26.2256 20.5358 26.4489 20.3521L27.0451 19.8617C27.166 19.7622 27.2384 19.6156 27.2436 19.4591L27.3043 17.6795C27.3115 17.4686 27.1963 17.2725 27.0087 17.176L25.8619 16.5861C25.5423 16.4218 25.154 16.606 25.0791 16.9574L22.9648 26.8738H24.1832V26.8737Z" fill="#5B5B5B"/>
<path d="M17.3454 19.8618L17.9416 20.3522C18.1649 20.5359 18.2061 20.8619 18.0353 21.0954L17.6257 21.6552C17.4993 21.828 17.4857 22.059 17.5911 22.2456L20.2073 26.8738H21.4257L19.3115 16.9574C19.2365 16.6059 18.8481 16.4218 18.5286 16.5862L17.3818 17.176C17.1942 17.2725 17.0791 17.4686 17.0863 17.6795L17.1469 19.4591C17.1523 19.6157 17.2246 19.7624 17.3454 19.8618Z" fill="#5B5B5B"/>
<path d="M28.3693 5.7746L28.2276 8.40156H16.2511L16.1094 5.82311C16.1094 2.38765 18.9726 0.000976562 22.2394 0.000976562C25.5061 0.000976562 28.3693 2.38765 28.3693 5.7746Z" fill="#6D6D6D"/>
<g opacity="0.08">
<path d="M28.3685 5.77653L28.2267 8.3998H26.7051L26.8469 5.77653C26.8469 2.65703 24.4201 0.382773 21.4805 0.0446582C21.7259 0.0174121 21.9822 0.000976562 22.2385 0.000976562C25.5052 0.00106445 28.3685 2.38976 28.3685 5.77653Z" fill="black"/>
</g>
<path d="M27.6539 7.89727L27.6194 7.83057C27.1482 6.91835 26.1352 6.47116 25.1221 6.63771C22.473 7.07321 22.0921 3.92725 18.4458 5.69737C18.0138 5.90708 17.6677 6.26251 17.4471 6.68913L16.8234 7.89516C16.6636 7.93366 16.5195 8.00696 16.3991 8.11006C16.1758 8.30034 16.0352 8.58159 16.0352 8.89791V9.97316C16.0352 10.5417 16.493 11.0029 17.0627 11.0065C17.0627 13.7032 20.3029 16.2595 22.2387 16.2595C24.1746 16.2595 27.4148 13.7036 27.4148 11.0068C27.9824 11.0028 28.4414 10.5422 28.4414 9.9736V8.89835C28.4413 8.41275 28.1053 8.00828 27.6539 7.89727Z" fill="#FFCE29"/>
<path d="M26.5583 14.4567H22.7109V13.978H26.5583C27.329 13.978 27.9562 13.3509 27.9562 12.58V9.33008H28.4349V12.58C28.4348 13.6147 27.5932 14.4567 26.5583 14.4567Z" fill="#F2F0F0"/>
<path d="M28.9973 8.80239V9.85699C28.9973 10.5359 28.4469 11.0862 27.768 11.0862C27.5638 11.0862 27.3984 10.9207 27.3984 10.7167V7.94282C27.3984 7.73865 27.5639 7.57324 27.768 7.57324C28.4469 7.57324 28.9973 8.12353 28.9973 8.80239Z" fill="#5B5B5B"/>
<path d="M23.9645 14.2133C23.9645 14.733 23.3668 15.1576 22.6307 15.1576C21.8947 15.1576 21.2969 14.733 21.2969 14.2133C21.2969 13.6937 21.8946 13.2754 22.6307 13.2754C23.3668 13.2754 23.9645 13.6937 23.9645 14.2133Z" fill="#5B5B5B"/>
<path d="M37.5604 0.00200372C33.6324 0.0145721 30.454 2.36538 30.4633 5.25145C30.4678 6.66473 31.2358 7.94336 32.4777 8.88036C32.114 9.71796 31.515 10.4997 30.6436 11.111C30.2337 11.3987 30.4046 12.0334 30.9043 12.0653C32.7976 12.1859 34.7789 11.6366 36.3933 10.3863C36.7839 10.4338 37.1845 10.4594 37.5939 10.4581C41.5256 10.4455 44.7039 8.09462 44.6946 5.20601C44.6854 2.31994 41.4921 -0.0105646 37.5604 0.00200372Z" fill="#F96464"/>
<g opacity="0.08">
<path d="M44.6939 5.2052C44.7051 8.0939 41.5264 10.445 37.5938 10.4583C37.3395 10.4583 37.0874 10.4494 36.8398 10.4315C40.4356 10.1571 43.2396 7.91759 43.2306 5.20511C43.2218 2.50599 40.4311 0.295449 36.8577 0.0278225C37.0897 0.012178 37.3239 0.00101589 37.5604 0.00101589C41.4929 -0.0100583 44.685 2.31878 44.6939 5.2052Z" fill="black"/>
</g>
<path d="M42.1476 3.58654C42.1476 3.75731 42.0092 3.89574 41.8384 3.89574H33.3248C33.1541 3.89574 33.0156 3.75731 33.0156 3.58654C33.0156 3.41577 33.1541 3.27734 33.3248 3.27734H41.8384C42.0092 3.27734 42.1476 3.41577 42.1476 3.58654Z" fill="#F2F0F0"/>
<path d="M42.1476 5.22912C42.1476 5.39989 42.0092 5.53832 41.8384 5.53832H33.3248C33.1541 5.53832 33.0156 5.39989 33.0156 5.22912C33.0156 5.05835 33.1541 4.91992 33.3248 4.91992H41.8384C42.0092 4.92001 42.1476 5.05835 42.1476 5.22912Z" fill="#F2F0F0"/>
<path d="M39.7205 6.87268C39.7205 7.04345 39.5821 7.18187 39.4113 7.18187H33.3248C33.1541 7.18187 33.0156 7.04345 33.0156 6.87268C33.0156 6.7019 33.1541 6.56348 33.3248 6.56348H39.4113C39.5821 6.56348 39.7205 6.7019 39.7205 6.87268Z" fill="#F2F0F0"/>
</g>
<defs>
<clipPath id="clip0_12355_3792">
<rect width="45" height="45" fill="white" transform="translate(0.109375)"/>
</clipPath>
</defs>
</svg>
