<svg width="46" height="45" viewBox="0 0 46 45" fill="none" xmlns="http://www.w3.org/2000/svg">
<g id="schedule">
<g id="Group">
<g id="Group_2">
<path id="Vector" fill-rule="evenodd" clip-rule="evenodd" d="M15.9805 32.791H29.2394V40.3433H15.9805V32.791Z" fill="#A79BA7"/>
<path id="Vector_2" fill-rule="evenodd" clip-rule="evenodd" d="M28.2109 32.791H29.2392V40.3433H28.2109V32.791Z" fill="#837683"/>
<path id="Vector_3" fill-rule="evenodd" clip-rule="evenodd" d="M8.27734 43.5641H36.941V41.3543C36.941 40.1389 35.6965 39.1445 34.1753 39.1445H11.0431C9.52188 39.1445 8.27734 40.1389 8.27734 41.3543V43.5641Z" fill="#9FACBA"/>
<path id="Vector_4" fill-rule="evenodd" clip-rule="evenodd" d="M8.27734 43.5642H36.941V41.3544C36.941 40.6321 36.5014 39.9878 35.8254 39.584C35.9774 39.8571 36.062 40.1587 36.062 40.4755V42.6853H8.27734V43.5642Z" fill="#8D9CA8"/>
<path id="Vector_5" fill-rule="evenodd" clip-rule="evenodd" d="M4.75888 5.19336H40.46C42.2437 5.19336 43.7032 6.65287 43.7032 8.43661V30.7483C43.7032 32.532 42.2438 33.9915 40.46 33.9915H4.75888C2.97514 33.9915 1.51562 32.5321 1.51562 30.7483V8.43661C1.51562 6.65278 2.97505 5.19336 4.75888 5.19336Z" fill="#9FACBA"/>
<path id="Vector_6" fill-rule="evenodd" clip-rule="evenodd" d="M42.2684 5.74805C43.1319 6.33234 43.7025 7.32076 43.7025 8.43609V30.7477C43.7025 32.5315 42.243 33.991 40.4593 33.991H4.75827C3.64303 33.991 2.65461 33.4205 2.07031 32.5569C2.5879 32.907 3.21087 33.112 3.87937 33.112H39.5805C41.3642 33.112 42.8237 31.6526 42.8237 29.8688V7.5571C42.8236 6.8886 42.6186 6.26572 42.2684 5.74805Z" fill="#8D9CA8"/>
<path id="Vector_7" fill-rule="evenodd" clip-rule="evenodd" d="M4.67639 7.90625H40.5402C40.7876 7.90625 40.99 8.10884 40.99 8.35599V28.5527H4.22656V8.35607C4.22656 8.10866 4.42897 7.90625 4.67639 7.90625Z" fill="#D8ECFE"/>
<path id="Vector_8" fill-rule="evenodd" clip-rule="evenodd" d="M38.7852 7.90625H40.5431C40.7905 7.90625 40.9929 8.10884 40.9929 8.35607V28.5526H39.235V8.35607C39.235 8.10875 39.0326 7.90625 38.7852 7.90625Z" fill="#C4E2FF"/>
</g>
<path id="Vector_9" fill-rule="evenodd" clip-rule="evenodd" d="M7.78107 18.1321C8.16938 18.1321 8.4842 18.4469 8.4842 18.8352C8.4842 19.2235 8.16938 19.5383 7.78107 19.5383H6.90234C6.51404 19.5383 6.19922 19.2235 6.19922 18.8352C6.19922 18.4469 6.51404 18.1321 6.90234 18.1321H7.78107ZM16.4462 21.0026C16.8345 21.0026 17.1493 21.3175 17.1493 21.7058C17.1493 22.0941 16.8345 22.4089 16.4462 22.4089H9.60841C9.22011 22.4089 8.90528 22.0941 8.90528 21.7058C8.90528 21.3175 9.22011 21.0026 9.60841 21.0026H16.4462ZM7.78107 21.0026C8.16938 21.0026 8.4842 21.3175 8.4842 21.7058C8.4842 22.0941 8.16938 22.4089 7.78107 22.4089H6.90234C6.51404 22.4089 6.19922 22.0941 6.19922 21.7058C6.19922 21.3175 6.51404 21.0026 6.90234 21.0026H7.78107ZM16.4462 15.2617C16.8345 15.2617 17.1493 15.5765 17.1493 15.9648C17.1493 16.3531 16.8345 16.668 16.4462 16.668H9.60841C9.22011 16.668 8.90528 16.3531 8.90528 15.9648C8.90528 15.5765 9.22011 15.2617 9.60841 15.2617H16.4462ZM7.78107 15.2617C8.16938 15.2617 8.4842 15.5765 8.4842 15.9648C8.4842 16.3531 8.16938 16.668 7.78107 16.668H6.90234C6.51404 16.668 6.19922 16.3531 6.19922 15.9648C6.19922 15.5765 6.51404 15.2617 6.90234 15.2617H7.78107ZM16.4462 18.1321C16.8345 18.1321 17.1493 18.4469 17.1493 18.8352C17.1493 19.2235 16.8345 19.5383 16.4462 19.5383H9.60841C9.22011 19.5383 8.90528 19.2235 8.90528 18.8352C8.90528 18.4469 9.22011 18.1321 9.60841 18.1321H16.4462Z" fill="#A79BA7"/>
<g id="Group_3">
<path id="Vector_10" fill-rule="evenodd" clip-rule="evenodd" d="M33.1707 10.957L34.6539 11.7651V16.0338L33.1707 14.9813L31.6875 16.0338V11.7651L33.1707 10.957Z" fill="#FFE177"/>
<path id="Vector_11" fill-rule="evenodd" clip-rule="evenodd" d="M32.4688 4.67188H33.875V13.0007H32.4688V4.67188Z" fill="#FFE177"/>
<path id="Vector_12" fill-rule="evenodd" clip-rule="evenodd" d="M34.6539 15.5401V16.0342L33.1707 14.9818L33.519 14.7347L34.6539 15.5401ZM32.3839 15.5401L31.6875 16.0342V11.7655L32.4676 11.3406V4.67188H33.164V11.3405L32.3839 11.7654V15.5401Z" fill="#FFD064"/>
<path id="Vector_13" fill-rule="evenodd" clip-rule="evenodd" d="M22.6103 4.13086L30.9356 4.33564V11.741C30.9356 12.0938 30.6893 12.3898 30.3423 12.4537C21.317 14.1253 23.9036 14.1253 14.8784 12.4537C14.5314 12.3898 14.2852 12.0938 14.2852 11.741V4.33564L22.6103 4.13086Z" fill="#837683"/>
<path id="Vector_14" fill-rule="evenodd" clip-rule="evenodd" d="M30.9356 10.4464V11.7416C30.9356 12.0944 30.6893 12.3902 30.3423 12.4542C21.317 14.1257 23.9036 14.1257 14.8784 12.4542C14.5314 12.3902 14.2852 12.0944 14.2852 11.7416V4.3361L15.4031 4.30859V11.2568C23.8035 12.8297 21.4971 12.7972 30.3424 11.1591C30.6893 11.0951 30.9356 10.7992 30.9356 10.4464Z" fill="#685E68"/>
<path id="Vector_15" fill-rule="evenodd" clip-rule="evenodd" d="M22.6097 1.4375L34.2565 4.53125C34.3998 4.56939 34.3998 4.77392 34.2565 4.81197L22.6097 7.90572L10.963 4.81197C10.8196 4.77392 10.8196 4.56939 10.963 4.53125L22.6097 1.4375Z" fill="#837683"/>
<path id="Vector_16" fill-rule="evenodd" clip-rule="evenodd" d="M32.0578 3.94735L34.2563 4.53139C34.3996 4.56953 34.3997 4.77414 34.2563 4.8122L22.6096 7.90586L10.9629 4.81211C10.8196 4.77405 10.8197 4.56944 10.9629 4.5313L13.1615 3.94727L22.6097 6.45698L32.0578 3.94735Z" fill="#685E68"/>
</g>
<g id="Group_4">
<path id="Vector_17" fill-rule="evenodd" clip-rule="evenodd" d="M41.6656 22.3301C42.7874 22.3301 43.7024 23.2451 43.7024 24.3669V38.4432C43.7024 39.0041 43.5025 39.4868 43.1058 39.8834L40.0216 42.9677C39.6249 43.3643 39.1422 43.5643 38.5813 43.5643H20.4822C19.3603 43.5643 18.4453 42.6493 18.4453 41.5274V24.3669C18.4453 23.2451 19.3603 22.3301 20.4822 22.3301H41.6656Z" fill="#ECEFF1"/>
<path id="Vector_18" fill-rule="evenodd" clip-rule="evenodd" d="M41.6646 22.3301C42.7865 22.3301 43.7015 23.2451 43.7015 24.3669V38.4432C43.7015 39.0041 43.5015 39.4868 43.1049 39.8834H42.1228V38.4432V35.0785V24.3669C42.1228 23.2451 41.2078 22.3301 40.0859 22.3301H41.6646Z" fill="#D1D1D6"/>
<path id="Vector_19" fill-rule="evenodd" clip-rule="evenodd" d="M39.4258 39.7963V43.388C39.6421 43.2892 39.8412 43.1491 40.0224 42.968L43.1066 39.8837C43.2878 39.7026 43.4279 39.5034 43.5267 39.2871H39.935C39.6545 39.2871 39.4258 39.5159 39.4258 39.7963Z" fill="#D1D1D6"/>
<path id="Vector_20" fill-rule="evenodd" clip-rule="evenodd" d="M42.125 40.8657L43.1071 39.8837C43.2882 39.7026 43.4283 39.5034 43.5271 39.2871H42.125V40.8657Z" fill="#B1B1B5"/>
<path id="Vector_21" fill-rule="evenodd" clip-rule="evenodd" d="M18.4453 26.7752H43.7024V24.3669C43.7024 23.2451 42.7874 22.3301 41.6656 22.3301C34.6545 22.3301 27.4934 22.3301 20.4822 22.3301C19.3603 22.3301 18.4453 23.2451 18.4453 24.3669V26.7752Z" fill="#D1D1D6"/>
<path id="Vector_22" fill-rule="evenodd" clip-rule="evenodd" d="M42.1228 26.7752H43.7014V24.3669C43.7014 23.2451 42.7864 22.3301 41.6645 22.3301H40.0859C41.2078 22.3301 42.1228 23.2451 42.1228 24.3669V26.7752Z" fill="#B1B1B5"/>
<path id="Vector_23" fill-rule="evenodd" clip-rule="evenodd" d="M24.3964 29.8691H22.4715C22.1817 29.8691 21.9453 30.1055 21.9453 30.3953V32.3201C21.9453 32.61 22.1817 32.8463 22.4715 32.8463H24.3964C24.6862 32.8463 24.9226 32.61 24.9226 32.3201V30.3953C24.9226 30.1055 24.6863 29.8691 24.3964 29.8691Z" fill="#FE646F"/>
<path id="Vector_24" fill-rule="evenodd" clip-rule="evenodd" d="M24.3963 29.8691V31.7939C24.3963 32.0837 24.16 32.3201 23.8701 32.3201H21.9453C21.9453 32.61 22.1817 32.8463 22.4715 32.8463H24.3964C24.6862 32.8463 24.9226 32.61 24.9226 32.3201V30.3953C24.9225 30.1055 24.6862 29.8691 24.3963 29.8691Z" fill="#FD4755"/>
<path id="Vector_25" fill-rule="evenodd" clip-rule="evenodd" d="M28.2167 29.8691H26.2918C26.0021 29.8691 25.7656 30.1055 25.7656 30.3953V32.3201C25.7656 32.61 26.002 32.8463 26.2918 32.8463H28.2167C28.5066 32.8463 28.7429 32.61 28.7429 32.3201V30.3953C28.7429 30.1055 28.5066 29.8691 28.2167 29.8691Z" fill="#8AC9FE"/>
<path id="Vector_26" fill-rule="evenodd" clip-rule="evenodd" d="M28.2166 29.8691V31.7939C28.2166 32.0837 27.9803 32.3201 27.6904 32.3201H25.7656C25.7656 32.61 26.002 32.8463 26.2918 32.8463H28.2167C28.5066 32.8463 28.7429 32.61 28.7429 32.3201V30.3953C28.7428 30.1055 28.5065 29.8691 28.2166 29.8691Z" fill="#60B7FF"/>
<path id="Vector_27" fill-rule="evenodd" clip-rule="evenodd" d="M32.0369 29.8691H30.1121C29.8223 29.8691 29.5859 30.1055 29.5859 30.3953V32.3201C29.5859 32.61 29.8223 32.8463 30.1121 32.8463H32.0369C32.3268 32.8463 32.5631 32.61 32.5631 32.3201V30.3953C32.5631 30.1055 32.3268 29.8691 32.0369 29.8691Z" fill="#8AC9FE"/>
<path id="Vector_28" fill-rule="evenodd" clip-rule="evenodd" d="M32.0369 29.8691V31.7939C32.0369 32.0837 31.8006 32.3201 31.5107 32.3201H29.5859C29.5859 32.61 29.8223 32.8463 30.1121 32.8463H32.0369C32.3268 32.8463 32.5631 32.61 32.5631 32.3201V30.3953C32.5631 30.1055 32.3268 29.8691 32.0369 29.8691Z" fill="#60B7FF"/>
<path id="Vector_29" fill-rule="evenodd" clip-rule="evenodd" d="M35.8573 29.8691H33.9324C33.6426 29.8691 33.4062 30.1055 33.4062 30.3953V32.3201C33.4062 32.61 33.6426 32.8463 33.9324 32.8463H35.8573C36.1471 32.8463 36.3835 32.61 36.3835 32.3201V30.3953C36.3835 30.1055 36.1471 29.8691 35.8573 29.8691Z" fill="#8AC9FE"/>
<path id="Vector_30" fill-rule="evenodd" clip-rule="evenodd" d="M35.8573 29.8691V31.7939C35.8573 32.0837 35.6209 32.3201 35.3311 32.3201H33.4062C33.4062 32.61 33.6426 32.8463 33.9324 32.8463H35.8573C36.1471 32.8463 36.3835 32.61 36.3835 32.3201V30.3953C36.3835 30.1055 36.1471 29.8691 35.8573 29.8691Z" fill="#60B7FF"/>
<path id="Vector_31" fill-rule="evenodd" clip-rule="evenodd" d="M39.6737 29.8691H37.7489C37.4591 29.8691 37.2227 30.1055 37.2227 30.3953V32.3201C37.2227 32.61 37.4591 32.8463 37.7489 32.8463H39.6737C39.9635 32.8463 40.2 32.61 40.2 32.3201V30.3953C40.2 30.1055 39.9636 29.8691 39.6737 29.8691Z" fill="#8AC9FE"/>
<path id="Vector_32" fill-rule="evenodd" clip-rule="evenodd" d="M39.6737 29.8691V31.7939C39.6737 32.0837 39.4373 32.3201 39.1475 32.3201H37.2227C37.2227 32.61 37.4591 32.8463 37.7489 32.8463H39.6737C39.9635 32.8463 40.2 32.61 40.2 32.3201V30.3953C40.2 30.1055 39.9636 29.8691 39.6737 29.8691Z" fill="#60B7FF"/>
<path id="Vector_33" fill-rule="evenodd" clip-rule="evenodd" d="M39.6737 33.6895H37.7489C37.4591 33.6895 37.2227 33.9259 37.2227 34.2157V36.1405C37.2227 36.4303 37.4591 36.6667 37.7489 36.6667H39.6737C39.9635 36.6667 40.2 36.4304 40.2 36.1405V34.2157C40.2 33.9258 39.9636 33.6895 39.6737 33.6895Z" fill="#8AC9FE"/>
<path id="Vector_34" fill-rule="evenodd" clip-rule="evenodd" d="M39.6737 33.6895V35.6143C39.6737 35.9041 39.4373 36.1405 39.1475 36.1405H37.2227C37.2227 36.4303 37.4591 36.6667 37.7489 36.6667H39.6737C39.9635 36.6667 40.2 36.4304 40.2 36.1405V34.2157C40.2 33.9258 39.9636 33.6895 39.6737 33.6895Z" fill="#60B7FF"/>
<path id="Vector_35" fill-rule="evenodd" clip-rule="evenodd" d="M35.8573 33.6895H33.9324C33.6426 33.6895 33.4062 33.9259 33.4062 34.2157V36.1405C33.4062 36.4303 33.6426 36.6667 33.9324 36.6667H35.8573C36.1471 36.6667 36.3835 36.4304 36.3835 36.1405V34.2157C36.3835 33.9258 36.1471 33.6895 35.8573 33.6895Z" fill="#8AC9FE"/>
<path id="Vector_36" fill-rule="evenodd" clip-rule="evenodd" d="M35.8573 33.6895V35.6143C35.8573 35.9041 35.6209 36.1405 35.3311 36.1405H33.4062C33.4062 36.4303 33.6426 36.6667 33.9324 36.6667H35.8573C36.1471 36.6667 36.3835 36.4304 36.3835 36.1405V34.2157C36.3835 33.9258 36.1471 33.6895 35.8573 33.6895Z" fill="#60B7FF"/>
<path id="Vector_37" fill-rule="evenodd" clip-rule="evenodd" d="M32.0369 33.6895H30.1121C29.8223 33.6895 29.5859 33.9259 29.5859 34.2157V36.1405C29.5859 36.4303 29.8223 36.6667 30.1121 36.6667H32.0369C32.3268 36.6667 32.5631 36.4304 32.5631 36.1405V34.2157C32.5631 33.9258 32.3268 33.6895 32.0369 33.6895Z" fill="#8AC9FE"/>
<path id="Vector_38" fill-rule="evenodd" clip-rule="evenodd" d="M32.0369 33.6895V35.6143C32.0369 35.9041 31.8006 36.1405 31.5107 36.1405H29.5859C29.5859 36.4303 29.8223 36.6667 30.1121 36.6667H32.0369C32.3268 36.6667 32.5631 36.4304 32.5631 36.1405V34.2157C32.5631 33.9258 32.3268 33.6895 32.0369 33.6895Z" fill="#60B7FF"/>
<path id="Vector_39" fill-rule="evenodd" clip-rule="evenodd" d="M28.2167 33.6895H26.2918C26.0021 33.6895 25.7656 33.9259 25.7656 34.2157V36.1405C25.7656 36.4303 26.002 36.6667 26.2918 36.6667H28.2167C28.5066 36.6667 28.7429 36.4304 28.7429 36.1405V34.2157C28.7429 33.9258 28.5066 33.6895 28.2167 33.6895Z" fill="#8AC9FE"/>
<path id="Vector_40" fill-rule="evenodd" clip-rule="evenodd" d="M28.2166 33.6895V35.6143C28.2166 35.9041 27.9803 36.1405 27.6904 36.1405H25.7656C25.7656 36.4303 26.002 36.6667 26.2918 36.6667H28.2167C28.5066 36.6667 28.7429 36.4304 28.7429 36.1405V34.2157C28.7428 33.9258 28.5065 33.6895 28.2166 33.6895Z" fill="#60B7FF"/>
<path id="Vector_41" fill-rule="evenodd" clip-rule="evenodd" d="M24.3964 33.6895H22.4715C22.1817 33.6895 21.9453 33.9259 21.9453 34.2157V36.1405C21.9453 36.4303 22.1817 36.6667 22.4715 36.6667H24.3964C24.6862 36.6667 24.9226 36.4304 24.9226 36.1405V34.2157C24.9226 33.9258 24.6863 33.6895 24.3964 33.6895Z" fill="#FE646F"/>
<path id="Vector_42" fill-rule="evenodd" clip-rule="evenodd" d="M24.3963 33.6895V35.6143C24.3963 35.9041 24.16 36.1405 23.8701 36.1405H21.9453C21.9453 36.4303 22.1817 36.6667 22.4715 36.6667H24.3964C24.6862 36.6667 24.9226 36.4304 24.9226 36.1405V34.2157C24.9225 33.9258 24.6862 33.6895 24.3963 33.6895Z" fill="#FD4755"/>
<path id="Vector_43" fill-rule="evenodd" clip-rule="evenodd" d="M24.3964 37.5078H22.4715C22.1817 37.5078 21.9453 37.7442 21.9453 38.034V39.9589C21.9453 40.2488 22.1817 40.4851 22.4715 40.4851H24.3964C24.6862 40.4851 24.9226 40.2488 24.9226 39.9589V38.034C24.9226 37.7442 24.6863 37.5078 24.3964 37.5078Z" fill="#FE646F"/>
<path id="Vector_44" fill-rule="evenodd" clip-rule="evenodd" d="M24.3963 37.5078V39.4326C24.3963 39.7225 24.16 39.9588 23.8701 39.9588H21.9453C21.9453 40.2487 22.1817 40.485 22.4715 40.485H24.3964C24.6862 40.485 24.9226 40.2487 24.9226 39.9588V38.0339C24.9225 37.7441 24.6862 37.5078 24.3963 37.5078Z" fill="#FD4755"/>
<path id="Vector_45" fill-rule="evenodd" clip-rule="evenodd" d="M28.2167 37.5078H26.2918C26.0021 37.5078 25.7656 37.7442 25.7656 38.034V39.9589C25.7656 40.2488 26.002 40.4851 26.2918 40.4851H28.2167C28.5066 40.4851 28.7429 40.2488 28.7429 39.9589V38.034C28.7429 37.7442 28.5066 37.5078 28.2167 37.5078Z" fill="#8AC9FE"/>
<path id="Vector_46" fill-rule="evenodd" clip-rule="evenodd" d="M28.2166 37.5078V39.4326C28.2166 39.7225 27.9803 39.9588 27.6904 39.9588H25.7656C25.7656 40.2487 26.002 40.485 26.2918 40.485H28.2167C28.5066 40.485 28.7429 40.2487 28.7429 39.9588V38.0339C28.7428 37.7441 28.5065 37.5078 28.2166 37.5078Z" fill="#60B7FF"/>
<path id="Vector_47" fill-rule="evenodd" clip-rule="evenodd" d="M32.0369 37.5078H30.1121C29.8223 37.5078 29.5859 37.7442 29.5859 38.034V39.9589C29.5859 40.2488 29.8223 40.4851 30.1121 40.4851H32.0369C32.3268 40.4851 32.5631 40.2488 32.5631 39.9589V38.034C32.5631 37.7442 32.3268 37.5078 32.0369 37.5078Z" fill="#8AC9FE"/>
<path id="Vector_48" fill-rule="evenodd" clip-rule="evenodd" d="M32.0369 37.5078V39.4326C32.0369 39.7225 31.8006 39.9588 31.5107 39.9588H29.5859C29.5859 40.2487 29.8223 40.485 30.1121 40.485H32.0369C32.3268 40.485 32.5631 40.2487 32.5631 39.9588V38.0339C32.5631 37.7441 32.3268 37.5078 32.0369 37.5078Z" fill="#60B7FF"/>
<path id="Vector_49" fill-rule="evenodd" clip-rule="evenodd" d="M35.8573 37.5078H33.9324C33.6426 37.5078 33.4062 37.7442 33.4062 38.034V39.9589C33.4062 40.2488 33.6426 40.4851 33.9324 40.4851H35.8573C36.1471 40.4851 36.3835 40.2488 36.3835 39.9589V38.034C36.3835 37.7442 36.1471 37.5078 35.8573 37.5078Z" fill="#8AC9FE"/>
<path id="Vector_50" fill-rule="evenodd" clip-rule="evenodd" d="M35.8573 37.5078V39.4326C35.8573 39.7225 35.6209 39.9588 35.3311 39.9588H33.4062C33.4062 40.2487 33.6426 40.485 33.9324 40.485H35.8573C36.1471 40.485 36.3835 40.2487 36.3835 39.9588V38.0339C36.3835 37.7441 36.1471 37.5078 35.8573 37.5078Z" fill="#60B7FF"/>
<path id="Vector_51" fill-rule="evenodd" clip-rule="evenodd" d="M22.0756 20.6309H23.0853C23.3658 20.6309 23.5946 20.8596 23.5946 21.14V24.2288C23.5946 24.5093 23.3658 24.7381 23.0853 24.7381H22.0756C21.7952 24.7381 21.5664 24.5093 21.5664 24.2288V21.14C21.5664 20.8596 21.7952 20.6309 22.0756 20.6309ZM39.0613 20.6309H40.0711C40.3515 20.6309 40.5802 20.8596 40.5802 21.14V24.2288C40.5802 24.5093 40.3514 24.7381 40.0711 24.7381H39.0613C38.7808 24.7381 38.5521 24.5093 38.5521 24.2288V21.14C38.5521 20.8596 38.7808 20.6309 39.0613 20.6309ZM33.3995 20.6309H34.4092C34.6896 20.6309 34.9184 20.8596 34.9184 21.14V24.2288C34.9184 24.5093 34.6897 24.7381 34.4092 24.7381H33.3995C33.119 24.7381 32.8902 24.5093 32.8902 24.2288V21.14C32.8902 20.8596 33.119 20.6309 33.3995 20.6309ZM27.7376 20.6309H28.7472C29.0277 20.6309 29.2565 20.8596 29.2565 21.14V24.2288C29.2565 24.5093 29.0277 24.7381 28.7472 24.7381H27.7376C27.4571 24.7381 27.2283 24.5093 27.2283 24.2288V21.14C27.2283 20.8596 27.4571 20.6309 27.7376 20.6309Z" fill="#837683"/>
<path id="Vector_52" fill-rule="evenodd" clip-rule="evenodd" d="M38.5521 24.2289C38.5521 24.5094 38.7809 24.7382 39.0613 24.7382H40.0711C40.3515 24.7382 40.5802 24.5094 40.5802 24.2289V22.3785V22.3298V21.1401C40.5802 20.8596 40.3514 20.6309 40.071 20.6309V22.3298V23.7197C40.071 24.0001 39.8422 24.2289 39.5617 24.2289H38.5521ZM28.238 24.2289H27.2283C27.2283 24.5094 27.457 24.7382 27.7375 24.7382H28.7472C29.0277 24.7382 29.2565 24.5094 29.2565 24.2289V22.3298V21.1401C29.2565 20.8596 29.0277 20.6309 28.7472 20.6309V22.3298V23.7197C28.7472 24.0001 28.5185 24.2289 28.238 24.2289ZM23.0853 24.7382C23.3658 24.7382 23.5946 24.5094 23.5946 24.2289V22.3298V21.1401C23.5946 20.8596 23.3658 20.6309 23.0853 20.6309V22.3298V23.7197C23.0853 24.0001 22.8566 24.2289 22.5761 24.2289H21.5664C21.5664 24.5094 21.7952 24.7382 22.0756 24.7382H23.0853ZM34.4092 24.7382C34.6896 24.7382 34.9184 24.5094 34.9184 24.2289V22.3298V21.1401C34.9184 20.8596 34.6896 20.6309 34.4092 20.6309V22.3298V23.7197C34.4092 24.0001 34.1804 24.2289 33.8999 24.2289H32.8902C32.8902 24.5094 33.1189 24.7382 33.3995 24.7382H34.4092Z" fill="#685E68"/>
</g>
</g>
</g>
</svg>
