<svg width="45" height="45" viewBox="0 0 45 45" fill="none" xmlns="http://www.w3.org/2000/svg">
<g id="time" clip-path="url(#clip0_12355_3680)">
<g id="Group">
<g id="Group_2">
<g id="Group_3">
<path id="Vector" d="M29.1362 1.5966V43.4041C29.1362 43.8993 28.74 44.2996 28.2517 44.2996H1.18928C0.700928 44.2995 0.304688 43.8993 0.304688 43.4041V1.5966C0.304688 1.10134 0.700928 0.701172 1.18928 0.701172H28.2517C28.74 0.701172 29.1362 1.10134 29.1362 1.5966Z" fill="#F8F3F1"/>
<g id="Group_4">
<path id="Vector_2" d="M29.139 18.1436V43.4033C29.139 43.8986 28.7428 44.2988 28.2544 44.2988H25.336C20.7013 42.095 17.4922 37.3261 17.4922 31.7993C17.4923 24.8601 22.5509 19.1169 29.139 18.1436Z" fill="#E5E1E5"/>
<path id="Vector_3" d="M29.1386 1.59563V43.4038C29.1386 43.8981 28.7432 44.2992 28.2541 44.2992H24.9609C25.4492 44.2992 25.8454 43.8981 25.8454 43.4038V1.59563C25.8454 1.10133 25.4492 0.700195 24.9609 0.700195H28.2541C28.7432 0.700107 29.1386 1.10133 29.1386 1.59563Z" fill="#E5E1E5"/>
</g>
</g>
<g id="Group_5">
<g id="Group_6">
<path id="Vector_4" d="M8.48799 10.3026H5.06516C4.5373 10.3026 4.10938 9.86939 4.10938 9.33502V5.86993C4.10938 5.33556 4.5373 4.90234 5.06516 4.90234H8.48791C9.01576 4.90234 9.4437 5.33556 9.4437 5.86993V9.33493C9.4437 9.86939 9.01585 10.3026 8.48799 10.3026Z" fill="#35BCC7"/>
<path id="Vector_5" d="M9.44219 5.86993V9.33476C9.44219 9.86887 9.014 10.3023 8.4864 10.3023H6.02344C6.55104 10.3023 6.97923 9.86887 6.97923 9.33476V5.86993C6.97923 5.33582 6.55104 4.90234 6.02344 4.90234H8.4864C9.014 4.90234 9.44219 5.33582 9.44219 5.86993Z" fill="#20ABB9"/>
<g id="Group_7">
<path id="Vector_6" d="M6.74611 8.90615C6.57447 8.90615 6.40274 8.83979 6.27173 8.70725L5.54801 7.9746C5.28608 7.70943 5.28608 7.27947 5.54801 7.01422C5.81003 6.74905 6.23466 6.74905 6.49677 7.01422L6.74611 7.26673L9.57389 4.40395C9.8359 4.13879 10.2605 4.13879 10.5226 4.40395C10.7846 4.66912 10.7846 5.09908 10.5226 5.36433L7.22049 8.70725C7.08948 8.83988 6.91775 8.90615 6.74611 8.90615Z" fill="#FDD330"/>
</g>
</g>
<g id="Group_8">
<path id="Vector_7" d="M15.4272 8.45867H13.3114C12.9408 8.45867 12.6406 8.15466 12.6406 7.77963C12.6406 7.4046 12.9409 7.10059 13.3114 7.10059H15.4272C15.7977 7.10059 16.0979 7.4046 16.0979 7.77963C16.098 8.15466 15.7977 8.45867 15.4272 8.45867Z" fill="#C9C0C7"/>
</g>
<g id="Group_9">
<path id="Vector_8" d="M25.3286 10.9811H13.3114C12.9408 10.9811 12.6406 10.6771 12.6406 10.3021C12.6406 9.92706 12.9409 9.62305 13.3114 9.62305H25.3286C25.6991 9.62305 25.9993 9.92706 25.9993 10.3021C25.9994 10.677 25.6991 10.9811 25.3286 10.9811Z" fill="#C9C0C7"/>
</g>
</g>
<g id="Group_10">
<g id="Group_11">
<path id="Vector_9" d="M8.48799 19.1043H5.06516C4.5373 19.1043 4.10938 18.6711 4.10938 18.1367V14.6717C4.10938 14.1373 4.5373 13.7041 5.06516 13.7041H8.48791C9.01576 13.7041 9.4437 14.1373 9.4437 14.6717V18.1367C9.4437 18.6711 9.01585 19.1043 8.48799 19.1043Z" fill="#35BCC7"/>
<path id="Vector_10" d="M9.44219 14.6717V18.1365C9.44219 18.6706 9.014 19.1041 8.4864 19.1041H6.02344C6.55104 19.1041 6.97923 18.6706 6.97923 18.1365V14.6717C6.97923 14.1376 6.55104 13.7041 6.02344 13.7041H8.4864C9.014 13.7041 9.44219 14.1376 9.44219 14.6717Z" fill="#20ABB9"/>
<g id="Group_12">
<path id="Vector_11" d="M6.7461 17.708C6.57446 17.708 6.40273 17.6417 6.27181 17.5091L5.54809 16.7764C5.28607 16.5113 5.28607 16.0813 5.548 15.8161C5.81002 15.5509 6.23474 15.5508 6.49667 15.8161L6.7461 16.0685L9.57387 13.2057C9.83589 12.9405 10.2605 12.9405 10.5226 13.2057C10.7846 13.4709 10.7846 13.9008 10.5226 14.1661L7.22048 17.509C7.08947 17.6417 6.91774 17.708 6.7461 17.708Z" fill="#FDD330"/>
</g>
</g>
<g id="Group_13">
<path id="Vector_12" d="M15.4272 17.2604H13.3114C12.9408 17.2604 12.6406 16.9564 12.6406 16.5814C12.6406 16.2064 12.9409 15.9023 13.3114 15.9023H15.4272C15.7977 15.9023 16.0979 16.2064 16.0979 16.5814C16.0979 16.9564 15.7977 17.2604 15.4272 17.2604Z" fill="#C9C0C7"/>
</g>
<g id="Group_14">
<path id="Vector_13" d="M25.3286 19.7829H13.3114C12.9408 19.7829 12.6406 19.4789 12.6406 19.1038C12.6406 18.7288 12.9409 18.4248 13.3114 18.4248H25.3286C25.6991 18.4248 25.9993 18.7288 25.9993 19.1038C25.9993 19.4789 25.6991 19.7829 25.3286 19.7829Z" fill="#C9C0C7"/>
</g>
</g>
<g id="Group_15">
<g id="Group_16">
<path id="Vector_14" d="M8.48799 27.906H5.06516C4.5373 27.906 4.10938 27.4728 4.10938 26.9384V23.4734C4.10938 22.9391 4.5373 22.5059 5.06516 22.5059H8.48791C9.01576 22.5059 9.4437 22.9391 9.4437 23.4734V26.9384C9.4437 27.4729 9.01585 27.906 8.48799 27.906Z" fill="#FCA62F"/>
<path id="Vector_15" d="M9.44219 23.4734V26.9383C9.44219 27.4724 9.014 27.9059 8.4864 27.9059H6.02344C6.55104 27.9059 6.97923 27.4724 6.97923 26.9383V23.4734C6.97923 22.9393 6.55104 22.5059 6.02344 22.5059H8.4864C9.014 22.5059 9.44219 22.9393 9.44219 23.4734Z" fill="#F98824"/>
</g>
<g id="Group_17">
<path id="Vector_16" d="M15.4272 26.0622H13.3114C12.9408 26.0622 12.6406 25.7582 12.6406 25.3831C12.6406 25.0081 12.9409 24.7041 13.3114 24.7041H15.4272C15.7977 24.7041 16.0979 25.0081 16.0979 25.3831C16.098 25.7581 15.7977 26.0622 15.4272 26.0622Z" fill="#C9C0C7"/>
</g>
<g id="Group_18">
<path id="Vector_17" d="M25.3286 28.5856H13.3114C12.9408 28.5856 12.6406 28.2816 12.6406 27.9066C12.6406 27.5316 12.9409 27.2275 13.3114 27.2275H25.3286C25.6991 27.2275 25.9993 27.5316 25.9993 27.9066C25.9994 28.2816 25.6991 28.5856 25.3286 28.5856Z" fill="#C9C0C7"/>
</g>
</g>
<g id="Group_19">
<g id="Group_20">
<path id="Vector_18" d="M8.48799 36.7068H5.06516C4.5373 36.7068 4.10938 36.2736 4.10938 35.7392V32.2742C4.10938 31.7399 4.5373 31.3066 5.06516 31.3066H8.48791C9.01576 31.3066 9.4437 31.7399 9.4437 32.2742V35.7392C9.4437 36.2736 9.01585 36.7068 8.48799 36.7068Z" fill="#FEE265"/>
<path id="Vector_19" d="M9.44219 32.2742V35.7391C9.44219 36.2732 9.014 36.7066 8.4864 36.7066H6.02344C6.55104 36.7066 6.97923 36.2732 6.97923 35.7391V32.2742C6.97923 31.7401 6.55104 31.3066 6.02344 31.3066H8.4864C9.014 31.3066 9.44219 31.7401 9.44219 32.2742Z" fill="#FDD330"/>
</g>
<g id="Group_21">
<path id="Vector_20" d="M15.4272 34.863H13.3114C12.9408 34.863 12.6406 34.559 12.6406 34.1839C12.6406 33.8089 12.9409 33.5049 13.3114 33.5049H15.4272C15.7977 33.5049 16.0979 33.8089 16.0979 34.1839C16.098 34.5589 15.7977 34.863 15.4272 34.863Z" fill="#C9C0C7"/>
</g>
<g id="Group_22">
<path id="Vector_21" d="M25.3286 37.3854H13.3114C12.9408 37.3854 12.6406 37.0814 12.6406 36.7064C12.6406 36.3314 12.9409 36.0273 13.3114 36.0273H25.3286C25.6991 36.0273 25.9993 36.3314 25.9993 36.7064C25.9993 37.0814 25.6991 37.3854 25.3286 37.3854Z" fill="#C9C0C7"/>
</g>
</g>
</g>
<g id="Group_23">
<g id="Group_24">
<g id="Group_25">
<g id="Group_26">
<g id="Group_27">
<g id="Group_28">
<path id="Vector_22" d="M31.1217 41.707C38.6512 41.707 44.7551 35.5277 44.7551 27.9052C44.7551 20.2828 38.6512 14.1035 31.1217 14.1035C23.5922 14.1035 17.4883 20.2828 17.4883 27.9052C17.4883 35.5277 23.5922 41.707 31.1217 41.707Z" fill="#5591D6"/>
<path id="Vector_23" d="M44.7563 27.9052C44.757 35.5276 38.653 41.707 31.1237 41.707C30.6199 41.707 30.1228 41.679 29.6336 41.6254C36.4619 40.8738 41.7762 35.0177 41.7762 27.9052C41.7762 20.7928 36.4611 14.9367 29.6328 14.1851C30.122 14.1315 30.6192 14.1035 31.1229 14.1035C38.6523 14.1035 44.7563 20.2828 44.7563 27.9052Z" fill="#1475CB"/>
<path id="Vector_24" d="M31.1212 38.4798C36.8901 38.4798 41.5666 33.7455 41.5666 27.9054C41.5666 22.0654 36.8901 17.3311 31.1212 17.3311C25.3524 17.3311 20.6758 22.0654 20.6758 27.9054C20.6758 33.7455 25.3524 38.4798 31.1212 38.4798Z" fill="#F8F3F1"/>
<path id="Vector_25" d="M41.5679 27.9052C41.5679 33.745 36.8913 38.4793 31.1221 38.4793C30.6963 38.4793 30.276 38.4535 29.8634 38.4033C35.0388 37.7741 39.0498 33.314 39.0498 27.9052C39.0498 22.4964 35.0387 18.0362 29.8633 17.4071C30.2759 17.3569 30.6962 17.3311 31.122 17.3311C36.8913 17.3311 41.5679 22.0654 41.5679 27.9052Z" fill="#E5E1E5"/>
</g>
</g>
</g>
<g id="Group_29">
<g id="Group_30">
<g id="Group_31">
<path id="Vector_26" d="M32.4817 32.2768L30.2852 28.5691L32.1038 27.4648L34.3004 31.1725C34.4384 31.4056 34.3637 31.7079 34.1335 31.8476L33.1485 32.4456C32.9183 32.5854 32.6197 32.5099 32.4817 32.2768Z" fill="#FEE265"/>
</g>
</g>
</g>
<g id="Group_32">
<g id="Group_33">
<path id="Vector_27" d="M31.1434 27.5148C30.7729 27.5148 30.4727 27.2108 30.4727 26.8358V22.6097C30.4727 22.2347 30.773 21.9307 31.1434 21.9307C31.5139 21.9307 31.8142 22.2347 31.8142 22.6097V26.8358C31.8143 27.2108 31.514 27.5148 31.1434 27.5148Z" fill="#5591D6"/>
</g>
</g>
<g id="Group_34">
<path id="Vector_28" d="M31.1204 29.4273C31.9506 29.4273 32.6235 28.746 32.6235 27.9055C32.6235 27.0651 31.9506 26.3838 31.1204 26.3838C30.2902 26.3838 29.6172 27.0651 29.6172 27.9055C29.6172 28.746 30.2902 29.4273 31.1204 29.4273Z" fill="#FB9927"/>
</g>
</g>
<g id="Group_35">
<g id="Group_36">
<g id="Group_37">
<g id="XMLID_944_">
<path id="Vector_29" d="M38.9308 28.5672C38.9298 28.5672 38.9288 28.5672 38.9278 28.5672H38.9178C38.5474 28.5655 38.2484 28.2602 38.25 27.8851C38.2517 27.5111 38.5517 27.209 38.9207 27.209H38.9237L38.9337 27.2091C39.3042 27.2107 39.6032 27.5161 39.6015 27.8911C39.5999 28.2651 39.2998 28.5672 38.9308 28.5672Z" fill="#B9AFB9"/>
</g>
</g>
<g id="Group_38">
<g id="XMLID_943_">
<path id="Vector_30" d="M23.3175 28.5671H23.3075C22.9369 28.5671 22.6367 28.2631 22.6367 27.888C22.6367 27.513 22.937 27.209 23.3075 27.209H23.3175C23.688 27.209 23.9882 27.513 23.9882 27.888C23.9882 28.263 23.6879 28.5671 23.3175 28.5671Z" fill="#B9AFB9"/>
</g>
</g>
</g>
<g id="Group_39">
<g id="Group_40">
<g id="XMLID_942_">
<path id="Vector_31" d="M31.0965 20.668C30.726 20.668 30.4258 20.364 30.4258 19.989V19.9788C30.4258 19.6038 30.7261 19.2998 31.0965 19.2998C31.467 19.2998 31.7673 19.6038 31.7673 19.9788V19.989C31.7674 20.364 31.4671 20.668 31.0965 20.668Z" fill="#B9AFB9"/>
</g>
</g>
</g>
<g id="Group_41">
<g id="Group_42">
<g id="XMLID_941_">
<path id="Vector_32" d="M31.1395 36.4756C30.769 36.4756 30.4688 36.1716 30.4688 35.7966V35.7865C30.4688 35.4114 30.7691 35.1074 31.1395 35.1074C31.51 35.1074 31.8103 35.4114 31.8103 35.7865V35.7966C31.8104 36.1715 31.5101 36.4756 31.1395 36.4756Z" fill="#B9AFB9"/>
</g>
</g>
</g>
<g id="Group_43">
<g id="Group_44">
<g id="XMLID_940_">
<path id="Vector_33" d="M27.1999 21.7373C26.9677 21.7373 26.7421 21.6152 26.618 21.3969L26.613 21.3881C26.4282 21.0631 26.5386 20.6479 26.8597 20.4608C27.1806 20.2737 27.5908 20.3854 27.7757 20.7105L27.7806 20.7193C27.9655 21.0443 27.855 21.4595 27.534 21.6466C27.4286 21.708 27.3135 21.7373 27.1999 21.7373Z" fill="#B9AFB9"/>
</g>
</g>
</g>
<g id="Group_45">
<g id="Group_46">
<g id="XMLID_939_">
<path id="Vector_34" d="M24.3509 24.637C24.2375 24.637 24.1225 24.6078 24.0172 24.5464L24.0084 24.5413C23.6873 24.3544 23.5766 23.9393 23.7613 23.6141C23.946 23.2889 24.3561 23.1771 24.6771 23.3639L24.6859 23.369C25.007 23.5559 25.1177 23.971 24.933 24.2962C24.809 24.5147 24.5832 24.637 24.3509 24.637Z" fill="#B9AFB9"/>
</g>
</g>
<g id="Group_47">
<g id="XMLID_938_">
<path id="Vector_35" d="M37.8977 32.5011C37.7842 32.5011 37.6691 32.4719 37.5637 32.4104L37.555 32.4054C37.2339 32.2182 37.1235 31.803 37.3083 31.478C37.4933 31.153 37.9035 31.0413 38.2243 31.2283L38.233 31.2333C38.5541 31.4205 38.6645 31.8357 38.4797 32.1607C38.3555 32.3789 38.1298 32.5011 37.8977 32.5011Z" fill="#B9AFB9"/>
</g>
</g>
</g>
<g id="Group_48">
<g id="Group_49">
<g id="XMLID_937_">
<path id="Vector_36" d="M35.0375 21.7373C34.9243 21.7373 34.8097 21.7083 34.7046 21.6473C34.3832 21.4609 34.2719 21.046 34.456 20.7205L34.461 20.7117C34.6452 20.3862 35.0551 20.2737 35.3765 20.46C35.6979 20.6464 35.8092 21.0613 35.6251 21.3868L35.6201 21.3956C35.4961 21.6146 35.2701 21.7373 35.0375 21.7373Z" fill="#B9AFB9"/>
</g>
</g>
<g id="Group_50">
<g id="XMLID_936_">
<path id="Vector_37" d="M27.1937 35.4043C27.0802 35.4043 26.9651 35.3751 26.8597 35.3136C26.5386 35.1265 26.4282 34.7113 26.613 34.3862L26.618 34.3775C26.8031 34.0524 27.2133 33.9407 27.534 34.1278C27.855 34.3149 27.9655 34.7301 27.7806 35.0551L27.7757 35.0639C27.6515 35.2822 27.4259 35.4043 27.1937 35.4043Z" fill="#B9AFB9"/>
</g>
</g>
</g>
<g id="Group_51">
<g id="Group_52">
<g id="XMLID_935_">
<path id="Vector_38" d="M37.8902 24.6369C37.658 24.6369 37.4322 24.5147 37.3081 24.2963C37.1235 23.9711 37.2342 23.556 37.5553 23.369L37.5641 23.3639C37.8851 23.177 38.2953 23.289 38.4799 23.6141C38.6646 23.9393 38.5539 24.3544 38.2327 24.5414L38.224 24.5465C38.1186 24.6077 38.0035 24.6369 37.8902 24.6369Z" fill="#B9AFB9"/>
</g>
</g>
<g id="Group_53">
<g id="XMLID_934_">
<path id="Vector_39" d="M24.3434 32.5011C24.1122 32.5011 23.8871 32.38 23.7627 32.1629C23.5767 31.8386 23.6855 31.423 24.0059 31.2347L24.0146 31.2296C24.3349 31.0414 24.7454 31.1515 24.9315 31.4758C25.1175 31.8001 25.0086 32.2158 24.6883 32.404L24.6796 32.4091C24.5736 32.4715 24.4576 32.5011 24.3434 32.5011Z" fill="#B9AFB9"/>
</g>
</g>
</g>
</g>
<g id="Group_54">
<g id="Group_55">
<g id="Group_56">
<g id="XMLID_932_">
<path id="Vector_40" d="M35.0476 35.4043C34.8154 35.4043 34.5898 35.2822 34.4656 35.0639L34.4607 35.0551C34.2758 34.7301 34.3863 34.3149 34.7073 34.1278C35.0283 33.9407 35.4385 34.0524 35.6233 34.3775L35.6283 34.3863C35.8131 34.7113 35.7027 35.1265 35.3816 35.3136C35.2762 35.3751 35.1611 35.4043 35.0476 35.4043Z" fill="#B9AFB9"/>
</g>
</g>
</g>
</g>
</g>
</g>
</g>
</g>
<defs>
<clipPath id="clip0_12355_3680">
<rect width="44.4512" height="45" fill="white" transform="translate(0.304688)"/>
</clipPath>
</defs>
</svg>
