<svg width="47" height="45" viewBox="0 0 47 45" fill="none" xmlns="http://www.w3.org/2000/svg">
<g id="customer-service (1) 1" clip-path="url(#clip0_12355_3961)">
<g id="Group">
<g id="Group_2">
<g id="Group_3">
<path id="Vector" d="M1.04688 7.08869C1.04688 3.13897 4.31759 -0.056289 8.32993 0.00075201C12.2165 0.0559473 15.3768 3.20401 15.4014 7.0429C15.4152 9.19279 14.4596 11.1223 12.9413 12.431C12.781 12.5691 12.8041 12.8212 12.9872 12.9281L14.3396 13.7185C14.5582 13.8462 14.4665 14.1772 14.2124 14.1772L8.08833 14.1758C4.18713 14.1041 1.04688 10.9588 1.04688 7.08869Z" fill="#7ACAA6"/>
</g>
</g>
<path id="Vector_2" d="M14.3421 13.7185L12.9897 12.9282C12.8076 12.8218 12.7823 12.5701 12.9417 12.4328C14.4774 11.1102 15.4379 9.15258 15.4031 6.97412C15.3429 3.20599 12.255 0.112854 8.44079 0.00307849C7.89992 -0.0124782 7.37203 0.0312035 6.86328 0.127795C10.1601 0.751995 12.6726 3.62206 12.6945 7.04285C12.7051 8.6995 12.1401 10.2253 11.1856 11.437C10.6092 12.1687 10.7965 13.2297 11.6044 13.7019L11.6327 13.7184C11.8489 13.8448 11.7612 14.1695 11.5135 14.1765L14.2149 14.1771C14.4689 14.1773 14.5608 13.8462 14.3421 13.7185Z" fill="#57BE92"/>
<g id="Group_4">
<g id="Group_5">
<path id="Vector_3" d="M36.0225 25.7304H19.7405C15.6739 25.7304 13.4485 21.0497 16.0458 17.9591L16.1902 17.7872C17.3344 16.4257 17.9607 14.7119 17.9607 12.9425V9.84146C17.9608 4.40613 22.422 0 27.9253 0C33.4286 0 37.8898 4.40613 37.8898 9.84146V13.0472C37.8898 14.8351 38.5293 16.5656 39.6954 17.9333C42.3251 21.0175 40.1052 25.7304 36.0225 25.7304Z" fill="#C59191"/>
<path id="Vector_4" d="M44.5791 33.6996V44.3309H11.1797V33.7796C11.1797 31.3907 12.6293 29.2348 14.8576 28.3084L20.2495 25.9934L22.0649 25.2138C23.4424 24.6223 24.3332 23.2802 24.3332 21.7966V21.1084H31.4247V21.7614C31.4247 23.2512 32.3244 24.5985 33.7118 25.1856L41.0044 28.2732C43.1776 29.2242 44.5791 31.3512 44.5791 33.6996Z" fill="white"/>
<path id="Vector_5" d="M20.2506 28.5279C22.0908 29.071 24.7993 29.6502 28.1009 29.5932C31.1987 29.5397 33.7417 28.9448 35.5112 28.3866L36.3904 26.3188L33.713 25.1855C32.3261 24.5983 31.4267 23.2513 31.4267 21.7609V21.1084H24.3352V21.7964C24.3352 23.2798 23.4442 24.6218 22.0669 25.2133L19.8984 26.1445L20.2506 28.5279Z" fill="#FFCEBF"/>
<g id="Group_6">
<path id="Vector_6" d="M41.0023 28.2728L35.5088 25.9473L35.5078 25.9474V44.3306H44.5774V33.6997C44.5774 31.3515 43.1759 29.2241 41.0023 28.2728Z" fill="#8795DE"/>
<path id="Vector_7" d="M20.2495 25.9932V44.3307H11.1797V33.7794C11.1797 31.3905 12.6293 29.2346 14.8576 28.3082L20.2495 25.9932Z" fill="#8795DE"/>
</g>
</g>
<g id="Group_7">
<path id="Vector_8" d="M30.3422 24.9536C31.158 24.9536 31.9354 24.7918 32.644 24.4998C31.8839 23.8068 31.4297 22.8207 31.4297 21.7619V21.1094H24.3381V21.7973C24.3381 22.3332 24.2213 22.8504 24.0078 23.3206C25.0816 24.3316 26.5344 24.9535 28.135 24.9535L30.3422 24.9536Z" fill="#FFB09E"/>
<path id="Vector_9" d="M34.9685 10.5726V16.3668C34.9685 19.631 32.2892 22.2771 28.9843 22.2771H26.7772C23.4722 22.2771 20.793 19.6309 20.793 16.3668V10.5726C20.793 8.44905 22.5359 6.72754 24.6861 6.72754H31.0755C33.2256 6.72763 34.9685 8.44905 34.9685 10.5726Z" fill="#FFCEBF"/>
<path id="Vector_10" d="M34.9688 13.5869C34.9661 13.5949 34.9628 13.6026 34.9604 13.6108C34.7441 14.3487 34.1763 15.7424 32.8043 16.7874C32.1654 17.274 31.4367 17.6256 30.6385 17.8325C30.2766 17.9262 30.0602 18.292 30.1552 18.6493C30.2351 18.9498 30.5094 19.1487 30.8099 19.1487C30.8668 19.1487 30.9246 19.1416 30.9823 19.1267C31.9569 18.8741 32.8482 18.4435 33.6316 17.847C34.1726 17.4349 34.6104 16.9798 34.9648 16.5223C34.9662 16.4704 34.9689 16.4188 34.9689 16.3666V13.5869H34.9688Z" fill="#7A6D79"/>
<path id="Vector_11" d="M29.8955 19.6818H28.3082C27.5857 19.6818 27 19.1033 27 18.3897C27 17.6762 27.5857 17.0977 28.3082 17.0977H29.8955C30.618 17.0977 31.2038 17.6762 31.2038 18.3897C31.2037 19.1034 30.618 19.6818 29.8955 19.6818Z" fill="#685E68"/>
<g id="Group_8">
<path id="Vector_12" d="M29.2953 5.19386C29.4473 3.30069 31.2825 2.0443 33.0388 1.39355C35.9442 3.11296 37.8894 6.2525 37.8894 9.84116V10.5177C37.7287 10.5511 37.5689 10.5802 37.4109 10.6035C36.4433 10.7463 35.6193 10.6845 35.0564 10.6035C31.4289 10.1263 29.1117 7.48033 29.2953 5.19386Z" fill="#B98080"/>
<path id="Vector_13" d="M27.9253 0C30.1757 0 32.2516 0.737051 33.9197 1.97974C33.0876 3.4098 31.1768 6.23725 27.5938 8.33045C24.934 9.88444 22.4259 10.4066 20.8814 10.6037H17.9609V9.84138C17.9608 4.40613 22.4221 0 27.9253 0Z" fill="#C59191"/>
</g>
</g>
</g>
<path id="Vector_14" d="M39.062 44.3313H17.3794L16.1835 33.189C16.0987 32.3987 16.726 31.71 17.5306 31.71H38.9109C39.7155 31.71 40.3428 32.3987 40.258 33.189L39.062 44.3313Z" fill="#EFEDEF"/>
<path id="Vector_15" d="M38.9125 31.71H36.2031C37.0078 31.71 37.6351 32.3987 37.5502 33.189L36.3543 44.3314H39.0637L40.2596 33.189C40.3445 32.3987 39.7172 31.71 38.9125 31.71Z" fill="#E5E1E5"/>
<g id="Group_9">
<path id="Vector_16" d="M45.606 45H1.37836C1.00967 45 0.710938 44.7049 0.710938 44.3408C0.710938 43.9768 1.00967 43.6816 1.37836 43.6816H45.606C45.9747 43.6816 46.2734 43.9768 46.2734 44.3408C46.2734 44.7049 45.9747 45 45.606 45Z" fill="#C9BFC8"/>
</g>
<path id="Vector_17" d="M28.2208 39.8937C29.2682 39.8937 30.1173 39.0551 30.1173 38.0206C30.1173 36.9861 29.2682 36.1475 28.2208 36.1475C27.1733 36.1475 26.3242 36.9861 26.3242 38.0206C26.3242 39.0551 27.1733 39.8937 28.2208 39.8937Z" fill="#C9BFC8"/>
<g id="Group_10">
<path id="Vector_18" d="M5.51714 7.75779C5.8912 7.75779 6.19444 7.4583 6.19444 7.08886C6.19444 6.71941 5.8912 6.41992 5.51714 6.41992C5.14308 6.41992 4.83984 6.71941 4.83984 7.08886C4.83984 7.4583 5.14308 7.75779 5.51714 7.75779Z" fill="white"/>
<path id="Vector_19" d="M8.22417 7.75779C8.59823 7.75779 8.90147 7.4583 8.90147 7.08886C8.90147 6.71941 8.59823 6.41992 8.22417 6.41992C7.85011 6.41992 7.54688 6.71941 7.54688 7.08886C7.54688 7.4583 7.85011 7.75779 8.22417 7.75779Z" fill="white"/>
<path id="Vector_20" d="M10.9351 7.75779C11.3092 7.75779 11.6124 7.4583 11.6124 7.08886C11.6124 6.71941 11.3092 6.41992 10.9351 6.41992C10.561 6.41992 10.2578 6.71941 10.2578 7.08886C10.2578 7.4583 10.561 7.75779 10.9351 7.75779Z" fill="white"/>
</g>
</g>
</g>
<defs>
<clipPath id="clip0_12355_3961">
<rect width="45.5625" height="45" fill="white" transform="translate(0.710938)"/>
</clipPath>
</defs>
</svg>
