<svg width="22" height="23" viewBox="0 0 22 23" fill="none" xmlns="http://www.w3.org/2000/svg">
<path d="M0.921875 20.5588V17.0332H3.31426V20.5588H0.921875Z" fill="#E50914" stroke="#E50914"/>
<path d="M6.96094 20.5592V15.1426H9.35333V20.5592H6.96094Z" fill="#E50914" stroke="#E50914"/>
<path d="M12.9961 20.5606V12.8848H15.3885V20.5606H12.9961Z" fill="#E50914" stroke="#E50914"/>
<path d="M18.6543 20.5602V9.10938H21.0467V20.5602H18.6543Z" fill="#E50914" stroke="#E50914"/>
<path d="M18.1042 2.69777L17.3347 1.92825L21.4887 1.73794L21.2918 5.91417L20.3201 4.94252L19.9383 4.56072L19.5869 4.97067C17.5101 7.39368 14.9522 9.35827 12.0752 10.7579L12.0752 10.7578L12.0707 10.7601C8.92511 12.3297 4.61008 13.0777 1.35667 13.0433C1.45766 13.0185 1.56592 12.9914 1.68086 12.9621C2.42512 12.7725 3.45236 12.4889 4.60527 12.1122C6.89893 11.3628 9.73578 10.2304 11.8216 8.71128C14.0518 7.11502 16.1501 5.3371 18.1022 3.40686L18.4598 3.05331L18.1042 2.69777Z" fill="#E50914" stroke="#E50914"/>
</svg>
