<svg width="56" height="56" viewBox="0 0 56 56" fill="none" xmlns="http://www.w3.org/2000/svg">
<rect width="56" height="56" rx="10" fill="#FFEEEE"/>
<path d="M46.5518 39.7784L41.548 31.1134C42.5244 29.1607 43.0126 26.9639 43.0126 24.6451C43.0126 16.5903 36.4222 10 28.3674 10C20.3126 10 13.7223 16.5903 13.7223 24.6451C13.7223 26.9639 14.2105 29.1607 15.1868 31.1134L10.1831 39.7784C9.93898 40.1446 9.93898 40.6327 10.1831 40.9988C10.4271 41.365 10.7933 41.6091 11.2814 41.6091L16.5293 41.2429L18.8481 45.8806C19.0922 46.3687 19.4583 46.6128 19.9465 46.6128C20.4347 46.6128 20.8008 46.3687 21.0449 46.0026L25.0723 38.9241C26.1707 39.1682 27.147 39.2903 28.2454 39.2903C29.3438 39.2903 30.4422 39.1682 31.5405 38.9241L35.69 46.0026C35.9341 46.3687 36.3002 46.6128 36.7884 46.6128C37.2765 46.6128 37.6427 46.3687 37.8868 45.8806L40.2056 41.2429L45.4534 41.6091C45.9416 41.6091 46.3077 41.365 46.5518 40.9988C46.7959 40.6327 46.6738 40.1446 46.5518 39.7784ZM20.0685 42.8295L18.3599 39.4123C18.1158 38.9241 17.6277 38.68 17.1395 38.8021L13.3562 39.0462L16.5293 33.4322C18.1158 35.5069 20.1906 37.0935 22.6314 38.1919L20.0685 42.8295ZM16.1632 24.6451C16.1632 17.9328 21.6551 12.4409 28.3674 12.4409C35.0798 12.4409 40.5717 17.9328 40.5717 24.6451C40.5717 31.3575 35.0798 36.8494 28.3674 36.8494C21.6551 36.8494 16.1632 31.3575 16.1632 24.6451ZM39.4733 38.8021C38.9851 38.8021 38.497 39.0462 38.2529 39.4123L36.5443 42.8295L33.8594 38.1919C36.3002 37.2155 38.3749 35.5069 39.9615 33.4322L43.1346 39.0462L39.4733 38.8021Z" fill="#E50914"/>
<path d="M33.9849 24.812C33.0732 23.8149 32.6409 22.2124 32.6409 20.8613C32.6409 18.5425 30.6882 16.5898 28.3694 16.5898C26.0506 16.5898 24.0979 18.5425 24.0979 20.8613C24.0979 22.2146 23.6611 23.814 22.7539 24.8182C21.7023 25.9821 21.0469 27.5566 21.0469 29.2823C21.0469 31.235 22.6334 32.8215 24.5861 32.8215H32.2748C34.2275 32.8215 35.814 31.235 35.814 29.2823C35.7355 27.5535 35.0497 25.9766 33.9849 24.812ZM28.3694 19.0307C29.3458 19.0307 30.2001 19.885 30.2001 20.8613C30.2001 21.8377 29.3458 22.692 28.3694 22.692C27.3931 22.692 26.5388 21.8377 26.5388 20.8613C26.5388 19.885 27.3931 19.0307 28.3694 19.0307ZM32.1528 30.2586H24.4641C23.8539 30.2586 23.3657 29.7705 23.3657 29.1602C23.3657 26.8414 25.1963 25.0108 27.5151 25.0108H29.1017C31.4205 25.0108 33.2511 26.8414 33.2511 29.1602C33.2511 29.7705 32.763 30.2586 32.1528 30.2586Z" fill="#E50914"/>
</svg>
