<svg width="56" height="56" viewBox="0 0 56 56" fill="none" xmlns="http://www.w3.org/2000/svg">
<rect width="56" height="56" rx="10" fill="#FFEEEE"/>
<g clip-path="url(#clip0_11050_1624)">
<path d="M39.5166 15.0117C38.7867 11.8745 35.6514 9.92307 32.5142 10.6531C32.4178 10.6756 32.3214 10.7002 32.2264 10.7276L29.7125 11.4466C29.0755 11.6298 28.489 11.9558 27.9976 12.4001C27.5062 11.9558 26.9197 11.6298 26.2827 11.4466L23.7688 10.7276C20.6719 9.84242 17.443 11.6352 16.5579 14.7322C16.5312 14.8245 16.5073 14.9174 16.4854 15.011C13.0248 15.6412 10.5075 18.6521 10.5 22.17V32.3767C10.5048 36.4012 13.7664 39.6629 17.7909 39.6676H26.5397V42.5841H22.1653C21.3601 42.5841 20.7074 43.2369 20.7074 44.042C20.7074 44.8472 21.3601 45.4999 22.1653 45.4999H33.8306C34.6358 45.4999 35.2885 44.8472 35.2885 44.042C35.2885 43.2369 34.6358 42.5841 33.8306 42.5841H29.4562V39.6676H38.205C42.2294 39.6629 45.4911 36.4012 45.4959 32.3767V22.17C45.4891 18.6548 42.9751 15.6447 39.5173 15.0117H39.5166ZM29.4555 15.6535C29.4555 15.0028 29.8868 14.4314 30.5129 14.2524L33.0282 13.5333C34.577 13.0904 36.1907 13.9865 36.6336 15.5353C36.7081 15.7964 36.7464 16.0664 36.7464 16.3377V22.0798C36.7423 23.3798 35.8811 24.5206 34.6323 24.8808L29.4562 26.3592V15.6535H29.4555ZM20.4155 14.0043C21.1448 13.4554 22.0901 13.2804 22.967 13.5333L25.4823 14.2524C26.1077 14.4314 26.539 15.0028 26.5397 15.6535V26.3592L21.3636 24.8808C20.1148 24.5206 19.2536 23.3791 19.2495 22.0798V16.3377C19.2468 15.4191 19.6794 14.5538 20.4162 14.0049L20.4155 14.0043ZM42.5787 32.3767C42.5787 34.7929 40.6205 36.7511 38.2043 36.7511H17.7909C15.3747 36.7511 13.4165 34.7929 13.4165 32.3767V22.17C13.424 20.3232 14.5914 18.6794 16.333 18.0642V22.0798C16.3405 24.6805 18.0629 26.9648 20.5618 27.6866L25.5937 29.126C27.1665 29.5744 28.8328 29.5744 30.4056 29.126L35.4375 27.6866C37.935 26.9634 39.6561 24.6798 39.6629 22.0798V18.0642C41.4045 18.6801 42.5712 20.3232 42.5794 22.17V32.3767H42.5787Z" fill="#E50914"/>
</g>
<defs>
<clipPath id="clip0_11050_1624">
<rect width="34.9952" height="35" fill="white" transform="translate(10.5 10.5)"/>
</clipPath>
</defs>
</svg>
