<svg width="14" height="14" viewBox="0 0 14 14" fill="none" xmlns="http://www.w3.org/2000/svg">
<g clip-path="url(#clip0_8951_4973)">
<path d="M10.8383 1.24847L7.18368 0.0298905C7.06403 -0.00996349 6.93467 -0.00996349 6.81502 0.0298905L3.16043 1.24847C2.57938 1.44149 2.07393 1.81271 1.71589 2.30939C1.35786 2.80607 1.16545 3.40295 1.16602 4.01522V7.00014C1.16602 11.4119 6.53268 13.8485 6.76252 13.95C6.83708 13.9831 6.91776 14.0002 6.99935 14.0002C7.08094 14.0002 7.16162 13.9831 7.23618 13.95C7.46602 13.8485 12.8327 11.4119 12.8327 7.00014V4.01522C12.8332 3.40295 12.6408 2.80607 12.2828 2.30939C11.9248 1.81271 11.4193 1.44149 10.8383 1.24847ZM9.75152 5.66839L7.25952 8.16039C7.15754 8.26305 7.03619 8.34443 6.9025 8.39981C6.76882 8.45518 6.62547 8.48345 6.48077 8.48297H6.46152C6.31387 8.48071 6.16821 8.44853 6.03336 8.38837C5.89851 8.32821 5.77725 8.24133 5.67693 8.13297L4.33177 6.73297C4.27351 6.67892 4.22691 6.61354 4.19483 6.54083C4.16275 6.46813 4.14586 6.38964 4.14521 6.31017C4.14455 6.2307 4.16014 6.15194 4.19101 6.07872C4.22188 6.00549 4.26739 5.93934 4.32475 5.88434C4.3821 5.82933 4.45009 5.78662 4.52454 5.75884C4.599 5.73105 4.67834 5.71877 4.75771 5.72274C4.83708 5.72672 4.9148 5.74687 4.9861 5.78196C5.0574 5.81705 5.12078 5.86634 5.17235 5.92681L6.48135 7.29181L8.92435 4.84181C9.03437 4.73555 9.18172 4.67675 9.33467 4.67808C9.48761 4.67941 9.63392 4.74076 9.74208 4.84891C9.85023 4.95707 9.91158 5.10338 9.91291 5.25632C9.91424 5.40927 9.85544 5.55662 9.74918 5.66664L9.75152 5.66839Z" fill="#EE224A"/>
</g>
<defs>
<clipPath id="clip0_8951_4973">
<rect width="14" height="14" fill="white"/>
</clipPath>
</defs>
</svg>
