<svg width="47" height="45" viewBox="0 0 47 45" fill="none" xmlns="http://www.w3.org/2000/svg">
<path fill-rule="evenodd" clip-rule="evenodd" d="M33.0526 36.4448H5.97167C5.72766 36.4448 5.52734 36.2482 5.52734 36.0055V2.72452C5.52734 2.48186 5.72775 2.28516 5.97167 2.28516H33.0526C33.2966 2.28516 33.4969 2.48177 33.4969 2.72452V36.0055C33.497 36.2481 33.2966 36.4448 33.0526 36.4448Z" fill="#CACBCD"/>
<path fill-rule="evenodd" clip-rule="evenodd" d="M32.883 36.4448H5.97167C5.72766 36.4448 5.52734 36.2482 5.52734 36.0055V2.86523H32.4387C32.6827 2.86523 32.883 3.06185 32.883 3.3046V36.4448Z" fill="#ECEFF0"/>
<path fill-rule="evenodd" clip-rule="evenodd" d="M23.6796 17.5808H18.2686C18.0246 17.5808 17.8242 17.3842 17.8242 17.1415C17.8242 16.8984 18.0246 16.7017 18.2686 16.7017H23.6796C23.928 16.7017 24.124 16.8984 24.124 17.1415C24.124 17.3842 23.928 17.5808 23.6796 17.5808ZM29.2474 7.4161H20.0114C19.7674 7.4161 19.567 7.21949 19.567 6.97639C19.567 6.73372 19.7674 6.53711 20.0114 6.53711H29.2475C29.4915 6.53711 29.6919 6.73372 29.6919 6.97639C29.6918 7.21949 29.4914 7.4161 29.2474 7.4161ZM26.9471 9.54139H22.6776C22.4336 9.54139 22.2333 9.34434 22.2333 9.10202C22.2333 8.85892 22.4337 8.66222 22.6776 8.66222H26.9471C27.1911 8.66222 27.3915 8.85883 27.3915 9.10202C27.3915 9.34425 27.1911 9.54139 26.9471 9.54139ZM29.9793 20.2744H18.2687C18.0247 20.2744 17.8243 20.0778 17.8243 19.835C17.8243 19.5923 18.0247 19.3958 18.2687 19.3958H29.9794C30.2234 19.3958 30.4238 19.5924 30.4238 19.835C30.4238 20.0777 30.2234 20.2744 29.9793 20.2744ZM29.9793 22.968H18.2687C18.0247 22.968 17.8243 22.7714 17.8243 22.5287C17.8243 22.2861 18.0247 22.0894 18.2687 22.0894H29.9794C30.2234 22.0894 30.4238 22.286 30.4238 22.5287C30.4238 22.7714 30.2234 22.968 29.9793 22.968ZM23.6796 27.2007H18.2686C18.0246 27.2007 17.8242 27.0041 17.8242 26.7614C17.8242 26.5187 18.0246 26.322 18.2686 26.322H23.6796C23.928 26.322 24.124 26.5186 24.124 26.7614C24.124 27.0041 23.928 27.2007 23.6796 27.2007ZM29.9793 29.8947H18.2687C18.0247 29.8947 17.8243 29.6981 17.8243 29.4549C17.8243 29.2123 18.0247 29.0157 18.2687 29.0157H29.9794C30.2234 29.0157 30.4238 29.2123 30.4238 29.4549C30.4238 29.6981 30.2234 29.8947 29.9793 29.8947ZM29.9793 32.5884H18.2687C18.0247 32.5884 17.8243 32.3918 17.8243 32.1491C17.8243 31.9064 18.0247 31.7097 18.2687 31.7097H29.9794C30.2234 31.7097 30.4238 31.9063 30.4238 32.1491C30.4238 32.3917 30.2234 32.5884 29.9793 32.5884Z" fill="#615260"/>
<path fill-rule="evenodd" clip-rule="evenodd" d="M15.434 22.9673H9.97948C9.7312 22.9673 9.53516 22.7707 9.53516 22.5281V17.1409C9.53516 16.8978 9.7312 16.7012 9.97948 16.7012H15.434C15.6779 16.7012 15.8784 16.8978 15.8784 17.1409V22.5281C15.8783 22.7707 15.6779 22.9673 15.434 22.9673Z" fill="#CF515A"/>
<path fill-rule="evenodd" clip-rule="evenodd" d="M15.3445 22.9674H9.97948C9.7312 22.9674 9.53516 22.7708 9.53516 22.5281V17.2021H14.9001C15.1441 17.2021 15.3446 17.3988 15.3446 17.6419L15.3445 22.9674Z" fill="#EF525F"/>
<path fill-rule="evenodd" clip-rule="evenodd" d="M15.434 32.5886H9.97948C9.7312 32.5886 9.53516 32.392 9.53516 32.1492V26.7616C9.53516 26.519 9.7312 26.3223 9.97948 26.3223H15.434C15.6779 26.3223 15.8784 26.5189 15.8784 26.7616V32.1492C15.8783 32.3919 15.6779 32.5886 15.434 32.5886Z" fill="#5CA882"/>
<path fill-rule="evenodd" clip-rule="evenodd" d="M15.3445 32.5886H9.97948C9.7312 32.5886 9.53516 32.392 9.53516 32.1492V26.8232H14.9001C15.1441 26.8232 15.3446 27.0199 15.3446 27.2626L15.3445 32.5886Z" fill="#60C090"/>
<path fill-rule="evenodd" clip-rule="evenodd" d="M12.3404 20.9967C12.2227 20.9967 12.1094 20.9506 12.0267 20.868L11.2947 20.1455C11.1205 19.9739 11.1205 19.6959 11.2947 19.5242C11.4646 19.3525 11.7479 19.3525 11.9221 19.5242L12.3404 19.936L13.4906 18.8013C13.6604 18.63 13.9436 18.63 14.1179 18.8013C14.2922 18.973 14.2922 19.2514 14.1179 19.4231L12.6541 20.868C12.5713 20.9506 12.458 20.9967 12.3404 20.9967Z" fill="#615260"/>
<path fill-rule="evenodd" clip-rule="evenodd" d="M12.3404 30.617C12.2227 30.617 12.1094 30.571 12.0267 30.4884L11.2947 29.7655C11.1205 29.5942 11.1205 29.3158 11.2947 29.1442C11.4646 28.9725 11.7479 28.9725 11.9221 29.1442L12.3404 29.5564L13.4906 28.4217C13.6604 28.2501 13.9436 28.2501 14.1179 28.4217C14.2922 28.5934 14.2922 28.8714 14.1179 29.043L12.6541 30.4884C12.5713 30.571 12.458 30.617 12.3404 30.617Z" fill="#615260"/>
<path fill-rule="evenodd" clip-rule="evenodd" d="M17.2863 13.9799H9.5576C9.3136 13.9799 9.11328 13.7833 9.11328 13.5405C9.11328 11.1933 11.0476 9.28418 13.422 9.28418C15.8006 9.28418 17.7307 11.1933 17.7307 13.5405C17.7307 13.7832 17.5347 13.9799 17.2863 13.9799Z" fill="#6E9FC1"/>
<path fill-rule="evenodd" clip-rule="evenodd" d="M17.0751 13.9799H9.5576C9.3136 13.9799 9.11328 13.7833 9.11328 13.5405C9.11328 12.4021 9.56837 11.3667 10.308 10.6022C11.0061 10.1207 11.8543 9.83789 12.7679 9.83789C15.1079 9.83789 17.0136 11.6854 17.0751 13.9799Z" fill="#76B4E2"/>
<path fill-rule="evenodd" clip-rule="evenodd" d="M13.4207 10.1628C12.1355 10.1628 11.0898 9.12921 11.0898 7.85945C11.0898 6.58926 12.1355 5.55566 13.4207 5.55566C14.7058 5.55566 15.7515 6.58926 15.7515 7.85945C15.7515 9.12921 14.7059 10.1628 13.4207 10.1628Z" fill="#CEAFA6"/>
<path fill-rule="evenodd" clip-rule="evenodd" d="M13.4207 10.1633C12.1355 10.1633 11.0898 9.1297 11.0898 7.85994C11.0898 7.08782 11.4761 6.40324 12.0677 5.98506C12.3445 5.87027 12.6483 5.80664 12.9668 5.80664C14.252 5.80664 15.2976 6.84023 15.2976 8.11043C15.2976 8.88229 14.9112 9.56669 14.3196 9.98487C14.0429 10.0997 13.7392 10.1633 13.4207 10.1633Z" fill="#F0CCBE"/>
<path fill-rule="evenodd" clip-rule="evenodd" d="M35.278 42.715C35.2431 42.715 35.2127 42.7115 35.1778 42.7047C35.0166 42.669 34.8903 42.5472 34.8467 42.3893L33.0517 35.7744L31.2567 42.3893C31.2131 42.5472 31.0869 42.6689 30.9257 42.7047C30.7602 42.7399 30.5946 42.684 30.4856 42.5588L29.0828 40.9112L27.0308 41.6435C26.8739 41.699 26.6997 41.6646 26.5777 41.554C26.4557 41.4435 26.4078 41.2748 26.447 41.1164L28.7081 32.7856C28.7386 32.6707 28.817 32.5731 28.9216 32.515C29.0305 32.4573 29.1525 32.4444 29.2658 32.4789L33.0517 33.617L36.8377 32.4789C36.951 32.4444 37.073 32.4573 37.1819 32.515C37.2865 32.5731 37.3649 32.6707 37.3954 32.7856L39.6565 41.1164C39.6957 41.2748 39.6478 41.4435 39.5258 41.554C39.4038 41.6646 39.2296 41.6995 39.0727 41.6435L37.0207 40.9112L35.6178 42.5588C35.5307 42.6591 35.4043 42.715 35.278 42.715Z" fill="#D9B667"/>
<path fill-rule="evenodd" clip-rule="evenodd" d="M34.92 42.5385C34.887 42.4945 34.8618 42.444 34.8467 42.3892L33.0518 35.7743L32.8439 36.5404L32.5914 35.6101L30.7964 42.2249C30.7532 42.3815 30.6286 42.5026 30.4692 42.5395L28.8682 40.6592L26.5705 41.4793C26.5546 41.4849 26.5385 41.4896 26.5223 41.4934C26.442 41.3868 26.4144 41.2481 26.447 41.1164L28.7081 32.7856C28.7386 32.6707 28.817 32.5731 28.9216 32.515C29.0305 32.4573 29.1525 32.4444 29.2658 32.4789L33.0518 33.617L36.8377 32.4789C36.8457 32.4764 36.8538 32.4742 36.8619 32.4723C36.8955 32.5166 36.9207 32.5671 36.9351 32.6214L39.1962 40.9522C39.2354 41.1106 39.1875 41.2793 39.0655 41.3898C38.9442 41.4998 38.7713 41.5349 38.6152 41.4804L36.5603 40.747L35.1575 42.3946C35.0941 42.4676 35.0099 42.517 34.92 42.5385Z" fill="#FFD46D"/>
<path fill-rule="evenodd" clip-rule="evenodd" d="M31.2403 37.5321C30.8308 37.5321 30.4343 37.3583 30.1599 37.0382L29.3583 36.1191C29.2711 36.0193 29.1797 35.9668 29.0489 35.9423L27.8421 35.7185C27.2584 35.6105 26.814 35.1681 26.7007 34.5916L26.4741 33.401C26.4523 33.2719 26.4001 33.1802 26.2955 33.0951L25.3675 32.3054C24.9144 31.9237 24.7532 31.3197 24.9493 30.7663L25.3545 29.623C25.3981 29.4995 25.3981 29.3937 25.3545 29.2698L24.9493 28.127C24.7532 27.5736 24.9144 26.9695 25.3675 26.5874L26.2955 25.7982C26.4001 25.7129 26.4523 25.6214 26.4741 25.4923L26.7007 24.3017C26.814 23.7251 27.2584 23.2828 27.8421 23.1748L29.0489 22.951C29.1797 22.9269 29.2711 22.8739 29.3583 22.7741L30.1599 21.8551C30.5432 21.4102 31.1575 21.2479 31.7152 21.4424L32.8741 21.8444C33.0004 21.8878 33.105 21.8878 33.2313 21.8444L34.3902 21.4424C34.9479 21.2479 35.5621 21.4102 35.9456 21.8551L36.7472 22.7741C36.8343 22.874 36.9258 22.9269 37.0565 22.951L38.2633 23.1748C38.8471 23.2828 39.2915 23.725 39.4048 24.3017L39.6314 25.4923C39.6532 25.6214 39.7054 25.713 39.81 25.7982L40.7379 26.5874C41.1911 26.9694 41.3522 27.5736 41.1562 28.127L40.751 29.2698C40.7075 29.3937 40.7075 29.4995 40.751 29.623L41.1562 30.7667C41.3522 31.3197 41.1911 31.9237 40.7379 32.3054L39.81 33.0951C39.7054 33.1802 39.6531 33.2719 39.6314 33.401L39.4048 34.5916C39.2915 35.1681 38.8471 35.6105 38.2633 35.7185L37.0565 35.9423C36.9258 35.9664 36.8343 36.0193 36.7472 36.1191L35.9456 37.0382C35.5622 37.4831 34.9479 37.6458 34.3902 37.4508L33.2313 37.0489C33.105 37.0055 33.0004 37.0055 32.8741 37.0489L31.7152 37.4508C31.5583 37.5055 31.3971 37.5321 31.2403 37.5321Z" fill="#CF515A"/>
<path fill-rule="evenodd" clip-rule="evenodd" d="M31.0655 37.5216C30.7197 37.4794 30.395 37.3126 30.1599 37.0383L29.3583 36.1192C29.2711 36.0194 29.1797 35.9669 29.0489 35.9424L27.8421 35.7186C27.2584 35.6106 26.814 35.1683 26.7007 34.5917L26.4741 33.4011C26.4523 33.272 26.4001 33.1804 26.2955 33.0952L25.3675 32.3056C24.9144 31.9239 24.7532 31.3198 24.9493 30.7664L25.3545 29.6232C25.3981 29.4997 25.3981 29.3938 25.3545 29.2699L24.9493 28.1271C24.7532 27.5737 24.9144 26.9696 25.3675 26.5875L26.2955 25.7983C26.4001 25.7131 26.4523 25.6215 26.4741 25.4924L26.7007 24.3018C26.814 23.7253 27.2584 23.2829 27.8421 23.1749L29.0489 22.9511C29.1797 22.927 29.2711 22.874 29.3583 22.7743L30.1599 21.8552C30.3962 21.5809 30.7204 21.4141 31.065 21.3721C31.1668 21.3845 31.2684 21.4078 31.3682 21.4426L32.5271 21.8445C32.6517 21.8874 32.7552 21.8879 32.8792 21.8462C33.0033 21.8879 33.1068 21.8874 33.2313 21.8445L34.3902 21.4426C34.49 21.4078 34.5916 21.3845 34.6934 21.3721C35.038 21.4141 35.3621 21.5809 35.5985 21.8552L36.4002 22.7743C36.4873 22.8741 36.5788 22.927 36.7095 22.9511L37.9163 23.1749C38.5 23.2829 38.9444 23.7252 39.0577 24.3018L39.2843 25.4924C39.3061 25.6215 39.3583 25.7132 39.4629 25.7983L40.3909 26.5875C40.844 26.9696 41.0052 27.5737 40.8091 28.1271L40.404 29.2699C40.3604 29.3938 40.3604 29.4997 40.404 29.6232L40.8091 30.7669C41.0052 31.3198 40.844 31.9239 40.3909 32.3056L39.4629 33.0952C39.3583 33.1804 39.306 33.272 39.2843 33.4011L39.0577 34.5917C38.9444 35.1683 38.5 35.6106 37.9163 35.7186L36.7095 35.9424C36.5788 35.9665 36.4873 36.0194 36.4002 36.1192L35.5985 37.0383C35.3622 37.3126 35.0381 37.4795 34.6935 37.5216C34.5917 37.5092 34.4901 37.4858 34.3902 37.451L33.2313 37.049C33.1067 37.0061 33.0033 37.0056 32.8792 37.0473C32.7552 37.0055 32.6517 37.0061 32.5271 37.049L31.3682 37.451C31.2682 37.4858 31.1666 37.5092 31.0655 37.5216Z" fill="#EF525F"/>
<path d="M33.0526 34.9501C36.13 34.9501 38.6248 32.4861 38.6248 29.4467C38.6248 26.4073 36.13 23.9434 33.0526 23.9434C29.9752 23.9434 27.4805 26.4073 27.4805 29.4467C27.4805 32.4861 29.9752 34.9501 33.0526 34.9501Z" fill="#D9B667"/>
<path d="M32.8123 34.9441C35.7571 34.9441 38.1442 32.4826 38.1442 29.4462C38.1442 26.4097 35.7571 23.9482 32.8123 23.9482C29.8676 23.9482 27.4805 26.4097 27.4805 29.4462C27.4805 32.4826 29.8676 34.9441 32.8123 34.9441Z" fill="#FFD46D"/>
<path fill-rule="evenodd" clip-rule="evenodd" d="M32.2945 31.3821C32.1812 31.3821 32.0679 31.3391 31.9808 31.2535L30.4647 29.7574C30.2904 29.5857 30.2904 29.3077 30.4647 29.1361C30.639 28.9644 30.9222 28.9644 31.0964 29.1361L32.2945 30.3211L35.0086 27.6405C35.1829 27.4688 35.466 27.4688 35.6404 27.6405C35.8146 27.8117 35.8146 28.0901 35.6404 28.2618L32.6082 31.2536C32.521 31.3391 32.4077 31.3821 32.2945 31.3821Z" fill="#ECEFF0"/>
</svg>
