<svg width="45" height="45" viewBox="0 0 45 45" fill="none" xmlns="http://www.w3.org/2000/svg">
<g clip-path="url(#clip0_8830_4363)">
<path d="M22.4997 40.9154C32.6704 40.9154 40.9154 32.6704 40.9154 22.4997C40.9154 12.329 32.6704 4.08398 22.4997 4.08398C12.329 4.08398 4.08398 12.329 4.08398 22.4997C4.08398 32.6704 12.329 40.9154 22.4997 40.9154Z" fill="#FEE45A"/>
<path d="M40.9154 22.4997C40.9154 32.6708 32.6711 40.9152 22.5 40.9152C20.5461 40.9152 18.6628 40.6107 16.8965 40.047C18.0484 40.2736 19.2383 40.3914 20.4554 40.3914C30.6256 40.3914 38.8709 32.1461 38.8709 21.9759C38.8709 13.7596 33.4904 6.80044 26.0616 4.42871C34.528 6.08712 40.9154 13.5467 40.9154 22.4997Z" fill="#FED402"/>
<path d="M22.4995 37.752C30.9232 37.752 37.752 30.9232 37.752 22.4995C37.752 14.0758 30.9232 7.24707 22.4995 7.24707C14.0758 7.24707 7.24707 14.0758 7.24707 22.4995C7.24707 30.9232 14.0758 37.752 22.4995 37.752Z" fill="#FAF7F7"/>
<path d="M37.7527 22.4992C37.7527 30.923 30.9239 37.7518 22.5001 37.7518C20.162 37.7518 17.9471 37.2261 15.9668 36.2854C17.4921 36.7966 19.1243 37.0739 20.8208 37.0739C29.2446 37.0739 36.0734 30.2451 36.0734 21.8213C36.0734 15.7348 32.5081 10.4811 27.3523 8.03418C33.3972 10.0616 37.7527 15.772 37.7527 22.4992Z" fill="#EDE1DD"/>
<path d="M14.8361 14.2656C14.6662 14.2657 14.5667 14.0723 14.6672 13.9353C16.4356 11.5254 19.2884 9.96094 22.5067 9.96094C25.7159 9.96094 28.5618 11.5166 30.3313 13.915C30.4322 14.0518 30.3331 14.2455 30.1632 14.2458L14.8361 14.2656Z" fill="#FEE45A"/>
<path d="M14.8361 30.7344C14.6662 30.7341 14.5667 30.9276 14.6672 31.0647C16.4356 33.4745 19.2884 35.039 22.5067 35.039C25.7159 35.039 28.5618 33.4833 30.3313 31.0849C30.4322 30.9481 30.3331 30.7544 30.1632 30.7542L14.8361 30.7344Z" fill="#FEE45A"/>
<path d="M30.3317 31.0845C28.5617 33.4825 25.716 35.0385 22.5069 35.0385C21.23 35.0385 20.011 34.792 18.8945 34.3443C19.4057 34.4277 19.9304 34.4712 20.466 34.4712C23.5691 34.4712 26.3332 33.0166 28.1122 30.751L30.1632 30.7537C30.3335 30.7538 30.4323 30.9477 30.3317 31.0845Z" fill="#FED402"/>
<path d="M30.3317 13.915C28.5617 11.517 25.716 9.96094 22.5069 9.96094C21.23 9.96094 20.011 10.2075 18.8945 10.6552C19.4057 10.5718 19.9304 10.5283 20.466 10.5283C23.5691 10.5283 26.3332 11.9829 28.1122 14.2485L30.1632 14.2458C30.3335 14.2458 30.4323 14.0518 30.3317 13.915Z" fill="#FED402"/>
<path d="M43.036 22.8616C42.932 22.6317 42.932 22.3682 43.036 22.1383L44.9208 17.97C45.1835 17.3889 44.7586 16.7305 44.1209 16.7305H0.878861C0.241127 16.7305 -0.183736 17.3889 0.0789687 17.97L1.96378 22.1383C2.06776 22.3682 2.06776 22.6317 1.96378 22.8616L0.0790566 27.0299C-0.183648 27.611 0.241215 28.2695 0.878949 28.2695H44.121C44.7587 28.2695 45.1836 27.611 44.9209 27.0299L43.036 22.8616Z" fill="#FEA613"/>
<path d="M13.3899 19.5952C13.3876 19.5889 13.3852 19.5828 13.3826 19.5766C13.2581 19.2738 12.966 19.0781 12.6377 19.0781C12.31 19.0784 12.0179 19.2746 11.8938 19.578C11.8917 19.5831 11.8897 19.5883 11.8877 19.5935L9.82893 24.9991C9.69516 25.3502 9.87146 25.7432 10.2225 25.877C10.5735 26.0106 10.9667 25.8345 11.1004 25.4833L11.4463 24.5752H13.8149L14.1569 25.4814C14.2597 25.7538 14.5186 25.9216 14.7934 25.9217C15.2613 25.9218 15.5949 25.4382 15.4298 25.0011L13.3899 19.5952ZM11.9646 23.2146L12.6362 21.4513L13.3016 23.2146H11.9646Z" fill="#E57505"/>
<path d="M33.032 20.4887C33.4078 20.4887 33.7123 20.184 33.7123 19.8083C33.7123 19.4326 33.4078 19.1279 33.032 19.1279H30.7429C30.367 19.1279 30.0625 19.4326 30.0625 19.8083V25.241C30.0625 25.6167 30.367 25.9213 30.7429 25.9213H33.032C33.4078 25.9213 33.7123 25.6167 33.7123 25.241C33.7123 24.8653 33.4078 24.5606 33.032 24.5606H31.4232V23.2049H32.8631C33.2389 23.2049 33.5435 22.9003 33.5435 22.5246C33.5435 22.1488 33.239 21.8442 32.8631 21.8442H31.4232V20.4885H33.032V20.4887Z" fill="#E57505"/>
<path d="M37.4568 19.2402H35.9499C35.7693 19.2402 35.596 19.312 35.4683 19.4399C35.3408 19.5678 35.2692 19.7411 35.2695 19.9218L35.2803 25.2435C35.2809 25.424 35.3532 25.5968 35.4813 25.7239C35.6087 25.8505 35.7811 25.9214 35.9606 25.9214H35.9632C36.0087 25.9212 37.0833 25.9171 37.5127 25.9096C39.1195 25.8816 40.2857 24.4816 40.2857 22.5809C40.2857 20.5827 39.1489 19.2402 37.4568 19.2402ZM37.4889 24.5492C37.2934 24.5526 36.9504 24.5553 36.6386 24.5573C36.6366 23.9294 36.6325 21.2542 36.6314 20.6009H37.4567C37.7019 20.6009 38.925 20.6963 38.925 22.5809C38.9251 23.5481 38.481 24.5319 37.4889 24.5492Z" fill="#E57505"/>
<path d="M20.5964 21.9047C19.9221 21.656 19.2944 21.3851 19.1027 21.3011C18.951 21.1796 18.956 21.01 18.9662 20.9393C18.9801 20.8416 19.0511 20.6028 19.4058 20.4959C20.1804 20.2627 20.8971 20.8279 20.9192 20.8456C21.2067 21.0841 21.6335 21.0463 21.8743 20.7597C22.1161 20.4722 22.0789 20.043 21.7913 19.8012C21.7395 19.7578 20.5085 18.7427 19.0134 19.1931C18.2585 19.4206 17.7243 20.0156 17.6194 20.7459C17.521 21.4311 17.818 22.0903 18.3945 22.4661C18.4246 22.4857 18.456 22.5029 18.4888 22.5176C18.5206 22.5317 19.2754 22.8677 20.1256 23.1814C20.3672 23.2705 20.9211 23.5221 20.8476 23.9334C20.7926 24.2418 20.4175 24.5608 19.885 24.5608C19.3385 24.5608 18.8129 24.3406 18.4785 23.9716C18.2261 23.6932 17.7957 23.6722 17.5175 23.9244C17.239 24.1768 17.2178 24.607 17.4702 24.8854C18.0582 25.5342 18.961 25.9216 19.885 25.9216C21.038 25.9216 22.0061 25.186 22.1871 24.1725C22.3232 23.41 21.9768 22.4138 20.5964 21.9047Z" fill="#E57505"/>
<path d="M26.9801 21.9046C26.3058 21.6559 25.6781 21.385 25.4864 21.3011C25.3347 21.1795 25.3397 21.0099 25.3499 20.9392C25.3638 20.8415 25.4348 20.6027 25.7894 20.4959C26.5634 20.2626 27.2807 20.828 27.3029 20.8456C27.5904 21.0842 28.0172 21.0463 28.258 20.7598C28.4998 20.4722 28.4626 20.043 28.175 19.8012C28.1233 19.7579 26.8928 18.7427 25.3971 19.1931C24.6421 19.4206 24.1079 20.0156 24.0031 20.746C23.9047 21.4312 24.2017 22.0903 24.7782 22.4662C24.8083 22.4858 24.8397 22.5029 24.8725 22.5176C24.9043 22.5317 25.6591 22.8677 26.5093 23.1814C26.7509 23.2705 27.3048 23.5222 27.2313 23.9334C27.1762 24.2419 26.8011 24.561 26.2686 24.561C25.7223 24.561 25.1966 24.3407 24.8622 23.9717C24.6098 23.6933 24.1794 23.6723 23.9012 23.9245C23.6228 24.1769 23.6016 24.6071 23.854 24.8855C24.442 25.5343 25.3448 25.9217 26.2687 25.9217C27.4217 25.9217 28.3899 25.1861 28.5709 24.1726C28.7069 23.4099 28.3606 22.4138 26.9801 21.9046Z" fill="#E57505"/>
<path d="M6.92178 19.0781H5.39512C5.18181 19.0781 4.98766 19.1754 4.85863 19.3411C4.76758 19.458 4.71484 19.6099 4.71484 19.7584V25.2411C4.71484 25.6168 5.01938 25.9215 5.39521 25.9215C5.77103 25.9215 6.07557 25.6168 6.07557 25.2411V23.5362C6.38406 23.5346 6.72517 23.5331 6.92187 23.5331C8.16684 23.5331 9.17969 22.5339 9.17969 21.3055C9.1796 20.0774 8.16666 19.0781 6.92178 19.0781ZM6.92178 22.1726C6.72648 22.1726 6.38951 22.1741 6.08233 22.1756C6.08075 21.8579 6.07926 21.5064 6.07926 21.3056C6.07926 21.1355 6.07838 20.7713 6.0775 20.4388H6.92178C7.40808 20.4388 7.81897 20.8358 7.81897 21.3056C7.81888 21.7756 7.40808 22.1726 6.92178 22.1726Z" fill="#E57505"/>
<path d="M44.9208 27.0293C45.1836 27.6112 44.7586 28.2691 44.1206 28.2691H41.9491C42.5871 28.2691 43.0122 27.6112 42.7494 27.0293L40.8643 22.8614C40.7601 22.6312 40.7601 22.3684 40.8643 22.1382L42.7494 17.9703C43.0122 17.3884 42.5871 16.7305 41.9491 16.7305H44.1206C44.7586 16.7305 45.1836 17.3884 44.9208 17.9703L43.0357 22.1382C42.9315 22.3684 42.9315 22.6312 43.0357 22.8614L44.9208 27.0293Z" fill="#FB8801"/>
</g>
<defs>
<clipPath id="clip0_8830_4363">
<rect width="45" height="45" fill="white"/>
</clipPath>
</defs>
</svg>
