<svg width="36" height="36" viewBox="0 0 36 36" fill="none" xmlns="http://www.w3.org/2000/svg">
<g id="Business Continuity 1">
<g id="Group">
<g id="Group_2">
<path id="Vector" fill-rule="evenodd" clip-rule="evenodd" d="M29.203 2.60624C29.7636 2.73965 30.2988 2.96151 30.789 3.26356L31.8196 2.80636L33.0338 4.02062L32.5766 5.0512C32.8787 5.54137 33.1006 6.07657 33.234 6.63718L34.2855 7.04193V8.75984L33.234 9.16459C33.1006 9.7245 32.8787 10.2597 32.5766 10.7499L33.0338 11.7805L31.8196 12.9955L30.789 12.5375C30.2988 12.8396 29.7636 13.0622 29.203 13.1956L28.7983 14.2465H27.0803L26.6756 13.1948C26.1157 13.0614 25.5805 12.8396 25.0903 12.5375L24.0597 12.9955L22.8447 11.7805L23.3027 10.7506C23.0006 10.2597 22.778 9.7245 22.6446 9.16459L21.5938 8.75984V7.04193L22.6446 6.63718C22.778 6.07657 23.0006 5.54137 23.3027 5.0512L22.8447 4.02062L24.0597 2.80636L25.0896 3.26356C25.5805 2.96151 26.1157 2.73965 26.6756 2.60624L27.0803 1.55469H28.7983L29.203 2.60624Z" fill="#FFE177"/>
<path id="Vector_2" fill-rule="evenodd" clip-rule="evenodd" d="M31.4734 2.96003L31.8198 2.80636L33.034 4.02062L32.5768 5.0512C32.8789 5.54137 33.1007 6.07657 33.2341 6.63718L34.2857 7.04193V8.75984L33.2341 9.16459C33.1007 9.7245 32.8789 10.2597 32.5768 10.7499L33.034 11.7805L31.8198 12.9955L31.4734 12.8418L32.5348 11.7805L32.0768 10.7499C32.3789 10.2597 32.6007 9.7245 32.7342 9.16459L33.7858 8.75984V7.04193L32.7342 6.63718C32.6007 6.07657 32.3789 5.54137 32.0768 5.0512L32.5348 4.02062L31.4734 2.96003ZM23.9062 2.96003L24.0599 2.80636L25.0897 3.26356C25.017 3.30408 24.9451 3.346 24.8746 3.39026L23.9062 2.96003ZM29.2032 2.60624C29.7638 2.73965 30.2989 2.96151 30.7892 3.26356L30.5051 3.39026C30.0149 3.08822 29.2639 2.73965 28.7032 2.60624L28.2985 1.55469H28.7984L29.2032 2.60624ZM25.0905 12.5375L24.0599 12.9955L23.9062 12.8418L24.8746 12.4116C24.9451 12.4551 25.017 12.497 25.0905 12.5375ZM30.7892 12.5375C30.2989 12.8396 29.7638 13.0622 29.2032 13.1956L28.7984 14.2465H28.2985L28.7032 13.1956C29.2639 13.0622 30.0149 12.7136 30.5058 12.4116L30.7892 12.5375Z" fill="#FFD064"/>
<path id="Vector_3" fill-rule="evenodd" clip-rule="evenodd" d="M27.9415 4.90234C29.5967 4.90234 30.9383 6.24394 30.9383 7.8991C30.9383 9.55361 29.5967 10.8953 27.9415 10.8953C26.287 10.8953 24.9453 9.55361 24.9453 7.8991C24.9453 6.24394 26.287 4.90234 27.9415 4.90234Z" fill="#ECEFF1"/>
<path id="Vector_4" fill-rule="evenodd" clip-rule="evenodd" d="M27.9415 4.90234C28.0097 4.90234 28.0772 4.90474 28.1448 4.90961C26.5847 5.01373 25.3508 6.31213 25.3508 7.8991C25.3508 9.48543 26.5847 10.7838 28.1448 10.8886C28.0772 10.8928 28.0097 10.8953 27.9415 10.8953C26.287 10.8953 24.9453 9.55361 24.9453 7.8991C24.9453 6.24394 26.287 4.90234 27.9415 4.90234Z" fill="#D1D1D6"/>
</g>
<path id="Vector_5" fill-rule="evenodd" clip-rule="evenodd" d="M17.145 7.10343C17.0877 6.95068 17.0966 6.77442 17.1844 6.62223C17.3403 6.3523 17.6859 6.25969 17.9559 6.41548L19.2783 7.17903C19.453 7.27997 19.5607 7.46639 19.5607 7.66814C19.5607 7.86988 19.453 8.0563 19.2783 8.15717L17.9559 8.92072C17.6859 9.07658 17.3403 8.9839 17.1844 8.71404C17.0966 8.56185 17.0877 8.38559 17.145 8.23284H14.7898C14.4781 8.23284 14.2251 7.97978 14.2251 7.66814C14.2251 7.35642 14.4781 7.10343 14.7898 7.10343H17.145ZM17.601 28.7562H19.9563C20.2679 28.7562 20.521 29.0092 20.521 29.3209C20.521 29.6326 20.2679 29.8856 19.9563 29.8856H17.601C17.6584 30.0384 17.6495 30.2147 17.5616 30.3668C17.4058 30.6367 17.0602 30.7294 16.7902 30.5735L15.4677 29.81C15.293 29.7091 15.1854 29.5227 15.1854 29.3209C15.1854 29.1192 15.293 28.9328 15.4677 28.8319L16.7902 28.0683C17.0602 27.9125 17.4058 28.0051 17.5616 28.275C17.6495 28.4272 17.6584 28.6035 17.601 28.7562ZM27.3773 18.44V16.3527C27.3773 16.041 27.6303 15.788 27.942 15.788C28.2537 15.788 28.5067 16.041 28.5067 16.3527V18.44C28.6429 18.4069 28.7915 18.4241 28.9223 18.4996C29.1923 18.6554 29.2849 19.0011 29.129 19.271L28.4311 20.4799C28.3302 20.6546 28.1437 20.7623 27.942 20.7623C27.7402 20.7623 27.5538 20.6546 27.453 20.4799L26.755 19.271C26.5992 19.0011 26.6918 18.6554 26.9617 18.4996C27.0925 18.4241 27.2411 18.4069 27.3773 18.44ZM7.83521 18.4665V20.5538C7.83521 20.8655 7.58215 21.1185 7.27051 21.1185C6.95886 21.1185 6.7058 20.8655 6.7058 20.5538V18.4665C6.56964 18.4996 6.42098 18.4825 6.29018 18.4069C6.02025 18.2511 5.92764 17.9054 6.0835 17.6355L6.78147 16.4266C6.88234 16.2519 7.06877 16.1442 7.27051 16.1442C7.47225 16.1442 7.65867 16.2519 7.75954 16.4266L8.45752 17.6355C8.61331 17.9054 8.52069 18.2511 8.25084 18.4069C8.11997 18.4825 7.97138 18.4996 7.83521 18.4665Z" fill="#A79BA7"/>
<g id="Group_3">
<path id="Vector_6" fill-rule="evenodd" clip-rule="evenodd" d="M12.0633 3.04297C12.3817 3.04297 12.6415 3.30273 12.6415 3.62116V14.2627C12.6415 14.5819 12.3817 14.8417 12.0633 14.8417H3.15709C2.83789 14.8417 2.57812 14.5819 2.57812 14.2627V3.62116C2.57812 3.30273 2.83789 3.04297 3.15709 3.04297H12.0633Z" fill="#ECEFF1"/>
<path id="Vector_7" fill-rule="evenodd" clip-rule="evenodd" d="M11.3594 3.04297H12.0653C12.3837 3.04297 12.6434 3.30273 12.6434 3.62116V14.2627C12.6434 14.5819 12.3837 14.8417 12.0653 14.8417H11.3594C11.6778 14.8417 11.9376 14.5819 11.9376 14.2627V3.62116C11.9376 3.30273 11.6778 3.04297 11.3594 3.04297Z" fill="#D1D1D6"/>
<path id="Vector_8" fill-rule="evenodd" clip-rule="evenodd" d="M4.92969 2.31612C4.92969 2.12116 5.08766 1.96318 5.28263 1.96318H6.45926C6.58392 1.44443 7.05129 1.05859 7.60851 1.05859C8.16573 1.05859 8.6331 1.44443 8.75868 1.96318H9.93439C10.1294 1.96318 10.2873 2.12116 10.2873 2.31612V3.77229H5.28263C5.08766 3.77229 4.92969 3.61424 4.92969 3.41935C4.92969 3.10078 4.92969 2.63462 4.92969 2.31612Z" fill="#A79BA7"/>
<path id="Vector_9" fill-rule="evenodd" clip-rule="evenodd" d="M9.60156 1.96484H9.93799C10.133 1.96484 10.2909 2.12282 10.2909 2.31778V3.77395H9.9545V2.31778C9.9545 2.12282 9.79646 1.96484 9.60156 1.96484Z" fill="#837683"/>
<path id="Vector_10" fill-rule="evenodd" clip-rule="evenodd" d="M6.92239 6.13978C6.92239 6.03884 6.84051 5.95703 6.73957 5.95703H5.11244C5.0115 5.95703 4.92969 6.03884 4.92969 6.13978V7.76698C4.92969 7.86793 5.0115 7.94974 5.11244 7.94974H6.73957C6.84051 7.94974 6.92239 7.86793 6.92239 7.76698V6.13978Z" fill="#8AC9FE"/>
<path id="Vector_11" fill-rule="evenodd" clip-rule="evenodd" d="M6.46094 7.94974C6.56188 7.94974 6.64376 7.86793 6.64376 7.76698V6.13978C6.64376 6.03884 6.56188 5.95703 6.46094 5.95703H6.73771C6.83865 5.95703 6.92054 6.03884 6.92054 6.13978V7.76698C6.92054 7.86793 6.83865 7.94974 6.73771 7.94974H6.46094Z" fill="#60B7FF"/>
<path id="Vector_12" fill-rule="evenodd" clip-rule="evenodd" d="M6.92239 10.7921C6.92239 10.6912 6.84051 10.6094 6.73957 10.6094H5.11244C5.0115 10.6094 4.92969 10.6912 4.92969 10.7921V12.4193C4.92969 12.5202 5.0115 12.6021 5.11244 12.6021H6.73957C6.84051 12.6021 6.92239 12.5202 6.92239 12.4193V10.7921Z" fill="#FFE177"/>
<path id="Vector_13" fill-rule="evenodd" clip-rule="evenodd" d="M6.50781 12.6021C6.60875 12.6021 6.69057 12.5202 6.69057 12.4193V10.7921C6.69057 10.6912 6.60875 10.6094 6.50781 10.6094H6.73758C6.83852 10.6094 6.9204 10.6912 6.9204 10.7921V12.4193C6.9204 12.5202 6.83852 12.6021 6.73758 12.6021H6.50781Z" fill="#FFD064"/>
<path id="Vector_14" fill-rule="evenodd" clip-rule="evenodd" d="M8.52564 6.64113C8.214 6.64113 7.96094 6.38807 7.96094 6.07642C7.96094 5.76471 8.214 5.51172 8.52564 5.51172H10.7362C11.0478 5.51172 11.3009 5.76471 11.3009 6.07642C11.3009 6.38807 11.0478 6.64113 10.7362 6.64113H8.52564ZM8.52564 8.39574C8.214 8.39574 7.96094 8.14268 7.96094 7.83104C7.96094 7.51932 8.214 7.26633 8.52564 7.26633H10.7362C11.0478 7.26633 11.3009 7.51932 11.3009 7.83104C11.3009 8.14268 11.0478 8.39574 10.7362 8.39574H8.52564ZM8.52564 11.2939C8.214 11.2939 7.96094 11.0409 7.96094 10.7292C7.96094 10.4175 8.214 10.1645 8.52564 10.1645H10.7362C11.0478 10.1645 11.3009 10.4175 11.3009 10.7292C11.3009 11.0409 11.0478 11.2939 10.7362 11.2939H8.52564ZM8.52564 13.0485C8.214 13.0485 7.96094 12.7955 7.96094 12.4838C7.96094 12.1721 8.214 11.9191 8.52564 11.9191H10.7362C11.0478 11.9191 11.3009 12.1721 11.3009 12.4838C11.3009 12.7955 11.0478 13.0485 10.7362 13.0485H8.52564Z" fill="#A79BA7"/>
</g>
<g id="Group_4">
<path id="Vector_15" fill-rule="evenodd" clip-rule="evenodd" d="M27.9416 34.9398C31.4374 34.9398 34.2876 32.0898 34.2876 28.5939C34.2876 25.0981 31.4374 22.2461 27.9416 22.2461C24.4457 22.2461 21.5938 25.0981 21.5938 28.5939C21.5938 32.0898 24.4457 34.9398 27.9416 34.9398Z" fill="#8AC9FE"/>
<path id="Vector_16" fill-rule="evenodd" clip-rule="evenodd" d="M27.5859 34.9301C30.9186 34.746 33.5789 31.9713 33.5789 28.5939C33.5789 25.2164 30.9186 22.44 27.5859 22.2558C27.7028 22.2493 27.8204 22.2461 27.9389 22.2461C31.4347 22.2461 34.2848 25.0981 34.2848 28.5939C34.2848 32.0898 31.4347 34.9398 27.9389 34.9398C27.8204 34.9398 27.7028 34.9366 27.5859 34.9301Z" fill="#60B7FF"/>
<path id="Vector_17" fill-rule="evenodd" clip-rule="evenodd" d="M27.1112 29.1517L30.1961 26.0346C30.5616 25.6672 31.1582 25.6652 31.5256 26.0308C31.8929 26.3963 31.8948 26.9909 31.5293 27.3601C30.2776 28.6232 29.0353 29.894 27.7778 31.1514C27.4104 31.5188 26.8139 31.5188 26.4465 31.1514L24.3615 29.0645C23.9941 28.6972 23.9941 28.1025 24.3615 27.7332C24.7289 27.3659 25.3255 27.3659 25.6928 27.7332L27.1112 29.1517Z" fill="#ECEFF1"/>
</g>
<g id="Group_5">
<path id="Vector_18" fill-rule="evenodd" clip-rule="evenodd" d="M7.94463 34.8267C11.3742 34.8267 14.1705 32.029 14.1705 28.6009C14.1705 25.1713 11.3742 22.375 7.94463 22.375C4.51651 22.375 1.71875 25.1713 1.71875 28.6009C1.71875 32.029 4.51651 34.8267 7.94463 34.8267Z" fill="#FE646F"/>
<path id="Vector_19" fill-rule="evenodd" clip-rule="evenodd" d="M7.59375 34.8168C10.8602 34.6327 13.4666 31.9106 13.4666 28.6009C13.4666 25.2897 10.8602 22.5689 7.59375 22.3849C7.71057 22.3783 7.82824 22.375 7.94662 22.375C11.3762 22.375 14.1725 25.1713 14.1725 28.6009C14.1725 32.029 11.3762 34.8267 7.94662 34.8267C7.82824 34.8267 7.71057 34.8234 7.59375 34.8168Z" fill="#FD4755"/>
<path id="Vector_20" fill-rule="evenodd" clip-rule="evenodd" d="M7.94625 32.6034C10.1501 32.6034 11.9472 30.8049 11.9472 28.6025C11.9472 26.3987 10.1501 24.6016 7.94625 24.6016C5.74383 24.6016 3.94531 26.3987 3.94531 28.6025C3.94531 30.8049 5.74383 32.6034 7.94625 32.6034Z" fill="#ECEFF1"/>
<path id="Vector_21" fill-rule="evenodd" clip-rule="evenodd" d="M8.29934 24.617C6.26089 24.7967 4.65119 26.5176 4.65119 28.6025C4.65119 30.6861 6.26089 32.4081 8.29934 32.5879C8.18301 32.5981 8.06519 32.6034 7.94625 32.6034C5.74383 32.6034 3.94531 30.8049 3.94531 28.6025C3.94531 26.3987 5.74383 24.6016 7.94625 24.6016C8.06519 24.6016 8.18301 24.6068 8.29934 24.617Z" fill="#D1D1D6"/>
<path id="Vector_22" fill-rule="evenodd" clip-rule="evenodd" d="M7.94646 26.8242C8.92736 26.8242 9.72246 27.6194 9.72246 28.6003C9.72246 29.5811 8.92736 30.3749 7.94646 30.3749C6.96564 30.3749 6.17188 29.5811 6.17188 28.6003C6.17188 27.6194 6.96564 26.8242 7.94646 26.8242Z" fill="#FE646F"/>
<path id="Vector_23" fill-rule="evenodd" clip-rule="evenodd" d="M8.12265 30.3663C8.0647 30.3719 8.00597 30.3749 7.94646 30.3749C6.96564 30.3749 6.17188 29.5811 6.17188 28.6003C6.17188 27.6194 6.96564 26.8242 7.94646 26.8242C8.00597 26.8242 8.0647 26.8272 8.12265 26.8329C7.22463 26.9213 6.52425 27.6788 6.52425 28.6003C6.52425 29.5217 7.22463 30.278 8.12265 30.3663Z" fill="#FD4755"/>
<path id="Vector_24" fill-rule="evenodd" clip-rule="evenodd" d="M11.5266 24.2396C11.7469 24.0191 12.1048 24.0191 12.3252 24.2396C12.5456 24.4599 12.5456 24.8177 12.3252 25.0381L8.35454 29.0088C8.13417 29.2292 7.77628 29.2292 7.55591 29.0088C7.33553 28.7884 7.33553 28.4305 7.55591 28.2101L11.5266 24.2396Z" fill="#837683"/>
<path id="Vector_25" fill-rule="evenodd" clip-rule="evenodd" d="M15.4726 23.1621C15.5157 23.1713 15.5502 23.2034 15.5626 23.2456C15.575 23.2878 15.5634 23.3334 15.5323 23.3645L13.2591 25.6377C13.2302 25.6666 13.1887 25.6788 13.1488 25.6702L11.3691 25.2866C11.3229 25.2766 11.2869 25.2406 11.2769 25.1945L10.8933 23.4161C10.8847 23.3762 10.8969 23.3347 10.9258 23.3058L13.199 21.0313C13.2301 21.0002 13.2757 20.9885 13.3179 21.001C13.3601 21.0135 13.3922 21.048 13.4015 21.091L13.7524 22.719C13.7623 22.7652 13.7984 22.8012 13.8445 22.8111L15.4726 23.1621Z" fill="#E3A76F"/>
<path id="Vector_26" fill-rule="evenodd" clip-rule="evenodd" d="M15.2908 23.125L15.4694 23.1635C15.5124 23.1728 15.5469 23.2048 15.5594 23.247C15.5718 23.2893 15.5601 23.3349 15.529 23.366L13.2559 25.6391C13.227 25.668 13.1855 25.6802 13.1456 25.6716L11.3659 25.288C11.3197 25.2781 11.2836 25.242 11.2737 25.1959L11.2422 25.0497L12.9255 25.4126C12.9654 25.4212 13.007 25.4089 13.0358 25.38L15.2908 23.125Z" fill="#C48958"/>
</g>
</g>
</g>
</svg>
