<svg width="36" height="36" viewBox="0 0 36 36" fill="none" xmlns="http://www.w3.org/2000/svg">
<g clip-path="url(#clip0_19768_366)">
<path d="M15.7159 8.87617C15.8292 9.94151 15.6873 11.0185 15.3019 12.0182C14.9165 13.0178 14.2987 13.9113 13.4996 14.6249C12.4689 15.5101 11.6923 16.6536 11.2496 17.938C11.2159 18.028 11.7109 17.9999 6.7496 17.9999C6.29571 16.667 5.50057 15.4762 4.44335 14.5462C3.63151 13.8103 3.01101 12.8879 2.63545 11.8585C2.25988 10.8292 2.14055 9.72388 2.28776 8.63809C2.43496 7.55231 2.84428 6.51868 3.48035 5.62649C4.11642 4.7343 4.96013 4.01036 5.9386 3.51721C6.91707 3.02407 8.00088 2.77653 9.09642 2.79599C10.192 2.81544 11.2663 3.10131 12.2266 3.62889C13.187 4.15647 14.0045 4.90991 14.6085 5.82412C15.2124 6.73834 15.5848 7.78585 15.6934 8.87617H15.7159Z" fill="#D9D9D9"/>
<path d="M8.4384 19.8502L6.18839 12.5377C6.16223 12.4516 6.15708 12.3606 6.17336 12.2721C6.18965 12.1837 6.2269 12.1005 6.282 12.0294C6.33709 11.9583 6.40842 11.9015 6.49001 11.8637C6.57159 11.8259 6.66105 11.8082 6.7509 11.8121H11.2509C11.3407 11.8082 11.4302 11.8259 11.5118 11.8637C11.5934 11.9015 11.6647 11.9583 11.7198 12.0294C11.7749 12.1005 11.8121 12.1837 11.8284 12.2721C11.8447 12.3606 11.8396 12.4516 11.8134 12.5377L9.5634 19.8502C9.5634 19.9994 9.50413 20.1424 9.39864 20.2479C9.29315 20.3534 9.15008 20.4127 9.0009 20.4127C8.85171 20.4127 8.70864 20.3534 8.60315 20.2479C8.49766 20.1424 8.4384 19.9994 8.4384 19.8502ZM7.51027 12.937L9.0009 17.7746L10.4915 12.937H7.51027Z" fill="#F3F3F3"/>
<path d="M31.5 7.875V19.125H20.25V5.625C20.25 5.32663 20.3685 5.04048 20.5795 4.82951C20.7905 4.61853 21.0766 4.5 21.375 4.5H28.125L31.5 7.875Z" fill="#F3F3F3"/>
<path d="M27 15.7894V14.5856C27.0008 14.4429 26.9732 14.3014 26.9189 14.1693C26.8646 14.0373 26.7847 13.9173 26.6837 13.8163C26.5827 13.7154 26.4628 13.6354 26.3307 13.5811C26.1987 13.5268 26.0572 13.4993 25.9144 13.5C25.689 13.4988 25.4697 13.4271 25.2871 13.2949C25.1045 13.1628 24.9679 12.9768 24.8963 12.7631C24.8062 12.5122 24.7029 12.2663 24.5869 12.0263C24.4872 11.8237 24.4531 11.5951 24.4894 11.3723C24.5257 11.1495 24.6306 10.9436 24.7894 10.7831C24.9917 10.5788 25.1052 10.3029 25.1052 10.0153C25.1052 9.72778 24.9917 9.45185 24.7894 9.24751L23.94 8.39814C23.7357 8.19582 23.4598 8.08232 23.1722 8.08232C22.8847 8.08232 22.6087 8.19582 22.4044 8.39814C22.244 8.55695 22.038 8.6618 21.8152 8.69809C21.5924 8.73439 21.3638 8.70032 21.1613 8.60064C20.9213 8.48462 20.6753 8.38135 20.4244 8.29126C20.2107 8.21966 20.0247 8.083 19.8926 7.90043C19.7605 7.71785 19.6888 7.49851 19.6875 7.27314C19.686 6.98567 19.5712 6.71039 19.3679 6.50712C19.1646 6.30385 18.8894 6.18899 18.6019 6.18751H17.3981C17.2554 6.18677 17.1139 6.21434 16.9818 6.26863C16.8498 6.32293 16.7298 6.40287 16.6288 6.50382C16.5279 6.60478 16.4479 6.72476 16.3936 6.85681C16.3393 6.98886 16.3118 7.13037 16.3125 7.27314C16.3113 7.49851 16.2396 7.71785 16.1074 7.90043C15.9753 8.083 15.7893 8.21966 15.5756 8.29126C15.3247 8.38135 15.0788 8.48462 14.8388 8.60064C14.6362 8.70032 14.4076 8.73439 14.1848 8.69809C13.962 8.6618 13.7561 8.55695 13.5956 8.39814C13.3913 8.19582 13.1154 8.08232 12.8278 8.08232C12.5403 8.08232 12.2643 8.19582 12.06 8.39814L11.2106 9.24751C11.0083 9.45185 10.8948 9.72778 10.8948 10.0153C10.8948 10.3029 11.0083 10.5788 11.2106 10.7831C11.3695 10.9436 11.4743 11.1495 11.5106 11.3723C11.5469 11.5951 11.5128 11.8237 11.4131 12.0263C11.2971 12.2663 11.1939 12.5122 11.1038 12.7631C11.0322 12.9768 10.8955 13.1628 10.7129 13.2949C10.5304 13.4271 10.311 13.4988 10.0856 13.5C9.79817 13.5015 9.52289 13.6163 9.31962 13.8196C9.11635 14.0229 9.00149 14.2982 9.00001 14.5856V15.7894C8.99927 15.9322 9.02684 16.0737 9.08113 16.2057C9.13543 16.3378 9.21537 16.4577 9.31632 16.5587C9.41728 16.6597 9.53726 16.7396 9.66931 16.7939C9.80136 16.8482 9.94287 16.8758 10.0856 16.875C10.311 16.8763 10.5304 16.948 10.7129 17.0801C10.8955 17.2122 11.0322 17.3982 11.1038 17.6119C11.1939 17.8628 11.2971 18.1088 11.4131 18.3488C11.5128 18.5513 11.5469 18.7799 11.5106 19.0027C11.4743 19.2255 11.3695 19.4315 11.2106 19.5919C11.0083 19.7962 10.8948 20.0722 10.8948 20.3597C10.8948 20.6473 11.0083 20.9232 11.2106 21.1275L12.06 21.9769C12.2643 22.1792 12.5403 22.2927 12.8278 22.2927C13.1154 22.2927 13.3913 22.1792 13.5956 21.9769C13.7561 21.8181 13.962 21.7132 14.1848 21.6769C14.4076 21.6406 14.6362 21.6747 14.8388 21.7744C15.0788 21.8904 15.3247 21.9937 15.5756 22.0838C15.7893 22.1554 15.9753 22.292 16.1074 22.4746C16.2396 22.6572 16.3113 22.8765 16.3125 23.1019C16.314 23.3894 16.4288 23.6646 16.6321 23.8679C16.8354 24.0712 17.1107 24.186 17.3981 24.1875H18.6019C18.7447 24.1883 18.8862 24.1607 19.0182 24.1064C19.1503 24.0521 19.2702 23.9722 19.3712 23.8712C19.4722 23.7702 19.5521 23.6503 19.6064 23.5182C19.6607 23.3862 19.6883 23.2447 19.6875 23.1019C19.6888 22.8765 19.7605 22.6572 19.8926 22.4746C20.0247 22.292 20.2107 22.1554 20.4244 22.0838C20.6753 21.9937 20.9213 21.8904 21.1613 21.7744C21.3638 21.6747 21.5924 21.6406 21.8152 21.6769C22.038 21.7132 22.244 21.8181 22.4044 21.9769C22.6127 22.1714 22.8872 22.2796 23.1722 22.2796C23.4573 22.2796 23.7317 22.1714 23.94 21.9769L24.7894 21.1275C24.9917 20.9232 25.1052 20.6473 25.1052 20.3597C25.1052 20.0722 24.9917 19.7962 24.7894 19.5919C24.6306 19.4315 24.5257 19.2255 24.4894 19.0027C24.4531 18.7799 24.4872 18.5513 24.5869 18.3488C24.7029 18.1088 24.8062 17.8628 24.8963 17.6119C24.9679 17.3982 25.1045 17.2122 25.2871 17.0801C25.4697 16.948 25.689 16.8763 25.9144 16.875C26.2019 16.8735 26.4771 16.7587 26.6804 16.5554C26.8837 16.3521 26.9985 16.0769 27 15.7894Z" fill="#FFAC00"/>
<path d="M18 19.125C20.1746 19.125 21.9375 17.3621 21.9375 15.1875C21.9375 13.0129 20.1746 11.25 18 11.25C15.8254 11.25 14.0625 13.0129 14.0625 15.1875C14.0625 17.3621 15.8254 19.125 18 19.125Z" fill="#F3F3F3"/>
<path d="M3.375 16.875H18V36H4.5C4.20163 36 3.91548 35.8815 3.7045 35.6705C3.49353 35.4595 3.375 35.1734 3.375 34.875V16.875Z" fill="#93E6E5"/>
<path d="M18 16.875H32.625V34.875C32.625 35.1734 32.5065 35.4595 32.2955 35.6705C32.0845 35.8815 31.7984 36 31.5 36H18V16.875Z" fill="#50D9D7"/>
<path d="M3.38097 16.875L0.7991 19.8844C0.729205 19.9661 0.684198 20.0661 0.669408 20.1726C0.654619 20.2791 0.670668 20.3877 0.715655 20.4853C0.760641 20.583 0.832679 20.6657 0.923235 20.7237C1.01379 20.7817 1.11907 20.8125 1.2266 20.8125H13.1347C13.4303 20.8127 13.723 20.7547 13.9961 20.6418C14.2693 20.5289 14.5175 20.3633 14.7266 20.1544L18.006 16.875H3.38097Z" fill="#50D9D7"/>
<path d="M32.625 16.875L35.2069 19.8844C35.2768 19.9661 35.3218 20.0661 35.3366 20.1726C35.3514 20.2791 35.3353 20.3877 35.2903 20.4853C35.2453 20.583 35.1733 20.6657 35.0827 20.7237C34.9922 20.7817 34.8869 20.8125 34.7794 20.8125H22.8713C22.5757 20.8127 22.283 20.7547 22.0098 20.6418C21.7367 20.5289 21.4885 20.3633 21.2794 20.1544L18 16.875H32.625Z" fill="#00BEBD"/>
<path d="M9 32.0625H5.625C5.31434 32.0625 5.0625 32.3143 5.0625 32.625V33.75C5.0625 34.0607 5.31434 34.3125 5.625 34.3125H9C9.31066 34.3125 9.5625 34.0607 9.5625 33.75V32.625C9.5625 32.3143 9.31066 32.0625 9 32.0625Z" fill="#F3F3F3"/>
<path d="M20.8125 34.3125C21.4338 34.3125 21.9375 33.8088 21.9375 33.1875C21.9375 32.5662 21.4338 32.0625 20.8125 32.0625C20.1912 32.0625 19.6875 32.5662 19.6875 33.1875C19.6875 33.8088 20.1912 34.3125 20.8125 34.3125Z" fill="#F3F3F3"/>
<path d="M24.75 34.3125C25.3713 34.3125 25.875 33.8088 25.875 33.1875C25.875 32.5662 25.3713 32.0625 24.75 32.0625C24.1287 32.0625 23.625 32.5662 23.625 33.1875C23.625 33.8088 24.1287 34.3125 24.75 34.3125Z" fill="#F3F3F3"/>
<path d="M31.5 7.875H29.25C28.9516 7.875 28.6655 7.75647 28.4545 7.5455C28.2435 7.33452 28.125 7.04837 28.125 6.75V4.5L31.5 7.875Z" fill="#D9D9D9"/>
<path d="M33.1908 15.7503C33.079 15.751 32.9697 15.7184 32.8766 15.6566C32.7834 15.5948 32.7108 15.5067 32.668 15.4036C32.6252 15.3004 32.614 15.1868 32.636 15.0772C32.658 14.9677 32.7121 14.8672 32.7914 14.7885L35.0414 12.5385C35.1473 12.4326 35.291 12.373 35.4408 12.373C35.5906 12.373 35.7342 12.4326 35.8401 12.5385C35.9461 12.6444 36.0056 12.7881 36.0056 12.9378C36.0056 13.0876 35.9461 13.2313 35.8401 13.3372L33.5901 15.5872C33.5376 15.6394 33.4753 15.6806 33.4067 15.7086C33.3382 15.7366 33.2648 15.7508 33.1908 15.7503Z" fill="#FFAC00"/>
<path d="M33.1908 12.3753C33.079 12.376 32.9697 12.3434 32.8766 12.2816C32.7834 12.2198 32.7108 12.1317 32.668 12.0286C32.6252 11.9254 32.614 11.8118 32.636 11.7022C32.658 11.5927 32.7121 11.4922 32.7914 11.4135L33.9164 10.2885C34.0223 10.1826 34.166 10.123 34.3158 10.123C34.4656 10.123 34.6092 10.1826 34.7151 10.2885C34.8211 10.3944 34.8806 10.5381 34.8806 10.6878C34.8806 10.8376 34.8211 10.9813 34.7151 11.0872C33.4889 12.3135 33.4945 12.3753 33.1908 12.3753Z" fill="#FFAC00"/>
<path d="M2.8148 15.7503C2.74077 15.7508 2.66739 15.7366 2.59885 15.7086C2.53032 15.6806 2.46799 15.6394 2.41543 15.5872L0.165427 13.3372C0.0595057 13.2313 0 13.0876 0 12.9378C0 12.7881 0.0595057 12.6444 0.165427 12.5385C0.271347 12.4326 0.415007 12.373 0.564802 12.373C0.714596 12.373 0.858256 12.4326 0.964177 12.5385L3.21418 14.7885C3.29351 14.8672 3.34761 14.9677 3.36958 15.0772C3.39156 15.1868 3.38042 15.3004 3.33757 15.4036C3.29473 15.5067 3.22213 15.5948 3.12902 15.6566C3.03592 15.7184 2.92653 15.751 2.8148 15.7503Z" fill="#FFAC00"/>
<path d="M33.1875 6.1875C33.4982 6.1875 33.75 5.93566 33.75 5.625C33.75 5.31434 33.4982 5.0625 33.1875 5.0625C32.8768 5.0625 32.625 5.31434 32.625 5.625C32.625 5.93566 32.8768 6.1875 33.1875 6.1875Z" fill="#50D9D7"/>
<path d="M1.125 7.3125C1.43566 7.3125 1.6875 7.06066 1.6875 6.75C1.6875 6.43934 1.43566 6.1875 1.125 6.1875C0.81434 6.1875 0.5625 6.43934 0.5625 6.75C0.5625 7.06066 0.81434 7.3125 1.125 7.3125Z" fill="#50D9D7"/>
<path d="M7.3125 1.125C7.62316 1.125 7.875 0.87316 7.875 0.5625C7.875 0.25184 7.62316 0 7.3125 0C7.00184 0 6.75 0.25184 6.75 0.5625C6.75 0.87316 7.00184 1.125 7.3125 1.125Z" fill="#50D9D7"/>
<path d="M18 2.8125C18.3107 2.8125 18.5625 2.56066 18.5625 2.25C18.5625 1.93934 18.3107 1.6875 18 1.6875C17.6893 1.6875 17.4375 1.93934 17.4375 2.25C17.4375 2.56066 17.6893 2.8125 18 2.8125Z" fill="#50D9D7"/>
<path d="M25.875 2.8125C26.1857 2.8125 26.4375 2.56066 26.4375 2.25C26.4375 1.93934 26.1857 1.6875 25.875 1.6875C25.5643 1.6875 25.3125 1.93934 25.3125 2.25C25.3125 2.56066 25.5643 2.8125 25.875 2.8125Z" fill="#50D9D7"/>
</g>
<defs>
<clipPath id="clip0_19768_366">
<rect width="36" height="36" fill="white"/>
</clipPath>
</defs>
</svg>
