<svg width="36" height="36" viewBox="0 0 36 36" fill="none" xmlns="http://www.w3.org/2000/svg">
<g clip-path="url(#clip0_21273_75)">
<path d="M28.2016 21.0784V3.60039C28.2006 3.28242 28.0739 2.97775 27.849 2.75291C27.6242 2.52807 27.3195 2.40134 27.0016 2.40039H1.80156C1.48359 2.40134 1.17892 2.52807 0.954083 2.75291C0.729245 2.97775 0.602512 3.28242 0.601562 3.60039V33.0004C0.602512 33.3184 0.729245 33.623 0.954083 33.8479C1.17892 34.0727 1.48359 34.1994 1.80156 34.2004H17.8636L28.2016 21.0784Z" fill="#EAB065"/>
<path d="M17.562 31.7998H3.6C3.44087 31.7998 3.28826 31.7366 3.17574 31.6241C3.06321 31.5115 3 31.3589 3 31.1998V5.3998C3 5.24067 3.06321 5.08806 3.17574 4.97554C3.28826 4.86302 3.44087 4.7998 3.6 4.7998H25.2C25.3591 4.7998 25.5117 4.86302 25.6243 4.97554C25.7368 5.08806 25.8 5.24067 25.8 5.3998V20.4718L17.562 31.7998Z" fill="#F4F9F9"/>
<path d="M9.59844 8.40039H6.59844C5.9357 8.40039 5.39844 8.93765 5.39844 9.60039V12.6004C5.39844 13.2631 5.9357 13.8004 6.59844 13.8004H9.59844C10.2612 13.8004 10.7984 13.2631 10.7984 12.6004V9.60039C10.7984 8.93765 10.2612 8.40039 9.59844 8.40039Z" fill="#6AC579"/>
<path d="M9.59844 16.2002H6.59844C5.9357 16.2002 5.39844 16.7375 5.39844 17.4002V20.4002C5.39844 21.0629 5.9357 21.6002 6.59844 21.6002H9.59844C10.2612 21.6002 10.7984 21.0629 10.7984 20.4002V17.4002C10.7984 16.7375 10.2612 16.2002 9.59844 16.2002Z" fill="#6AC579"/>
<path d="M9.59844 24H6.59844C5.9357 24 5.39844 24.5373 5.39844 25.2V28.2C5.39844 28.8627 5.9357 29.4 6.59844 29.4H9.59844C10.2612 29.4 10.7984 28.8627 10.7984 28.2V25.2C10.7984 24.5373 10.2612 24 9.59844 24Z" fill="#6AC579"/>
<path d="M28.6742 21.6266L34.9574 31.2362C35.2225 31.644 35.3724 32.1159 35.391 32.602C35.4096 33.0881 35.2962 33.5701 35.063 33.997C34.8298 34.4238 34.4854 34.7796 34.0664 35.0265C33.6473 35.2735 33.1692 35.4024 32.6828 35.3996H20.1164C19.63 35.4024 19.1519 35.2735 18.7328 35.0265C18.3138 34.7796 17.9694 34.4238 17.7361 33.997C17.5029 33.5701 17.3896 33.0881 17.4082 32.602C17.4268 32.1159 17.5766 31.644 17.8418 31.2362L24.125 21.6266C24.3727 21.2495 24.7103 20.94 25.1073 20.7258C25.5044 20.5116 25.9484 20.3994 26.3996 20.3994C26.8507 20.3994 27.2948 20.5116 27.6918 20.7258C28.0889 20.94 28.4265 21.2495 28.6742 21.6266Z" fill="#D8415E"/>
<path d="M18.6031 2.40017V4.80018C18.6031 4.9593 18.5399 5.11192 18.4274 5.22444C18.3149 5.33696 18.1623 5.40018 18.0031 5.40018H10.8031C10.644 5.40018 10.4914 5.33696 10.3789 5.22444C10.2663 5.11192 10.2031 4.9593 10.2031 4.80018V2.40017C10.2031 2.24105 10.2663 2.08843 10.3789 1.97591C10.4914 1.86339 10.644 1.80017 10.8031 1.80017H11.6971C12.022 1.40143 12.4364 1.08495 12.9066 0.876447C13.3767 0.66794 13.8895 0.573286 14.4031 0.600175C14.9168 0.573286 15.4295 0.66794 15.8997 0.876447C16.3699 1.08495 16.7842 1.40143 17.1091 1.80017H18.0031C18.1623 1.80017 18.3149 1.86339 18.4274 1.97591C18.5399 2.08843 18.6031 2.24105 18.6031 2.40017Z" fill="#D4E6E7"/>
<path d="M8.40356 12.0002C8.24445 12.0002 8.09186 11.937 7.97936 11.8244L7.37936 11.2244C7.27007 11.1113 7.20959 10.9597 7.21096 10.8024C7.21233 10.6451 7.27543 10.4946 7.38667 10.3834C7.49792 10.2721 7.64841 10.209 7.80572 10.2076C7.96304 10.2063 8.1146 10.2667 8.22776 10.376L8.40356 10.5518L10.9794 7.97604C11.0925 7.86675 11.2441 7.80627 11.4014 7.80764C11.5587 7.80901 11.7092 7.87211 11.8205 7.98335C11.9317 8.0946 11.9948 8.24509 11.9962 8.4024C11.9975 8.55972 11.9371 8.71128 11.8278 8.82444L8.82776 11.8244C8.71527 11.937 8.56268 12.0002 8.40356 12.0002Z" fill="#55A060"/>
<path d="M8.40356 19.8C8.24445 19.8 8.09186 19.7368 7.97936 19.6243L7.37936 19.0243C7.27007 18.9111 7.20959 18.7595 7.21096 18.6022C7.21233 18.4449 7.27543 18.2944 7.38667 18.1832C7.49792 18.0719 7.64841 18.0088 7.80572 18.0074C7.96304 18.0061 8.1146 18.0666 8.22776 18.1758L8.40356 18.3516L10.9794 15.7758C11.0925 15.6666 11.2441 15.6061 11.4014 15.6074C11.5587 15.6088 11.7092 15.6719 11.8205 15.7832C11.9317 15.8944 11.9948 16.0449 11.9962 16.2022C11.9975 16.3595 11.9371 16.5111 11.8278 16.6242L8.82776 19.6243C8.71527 19.7368 8.56268 19.8 8.40356 19.8Z" fill="#55A060"/>
<path d="M8.40356 27.5999C8.24445 27.5998 8.09186 27.5366 7.97936 27.4241L7.37936 26.8241C7.27007 26.7109 7.20959 26.5593 7.21096 26.402C7.21233 26.2447 7.27543 26.0942 7.38667 25.983C7.49792 25.8717 7.64841 25.8086 7.80572 25.8072C7.96304 25.8059 8.1146 25.8664 8.22776 25.9757L8.40356 26.1515L10.9794 23.5757C11.0925 23.4664 11.2441 23.4059 11.4014 23.4072C11.5587 23.4086 11.7092 23.4717 11.8205 23.583C11.9317 23.6942 11.9948 23.8447 11.9962 24.002C11.9975 24.1593 11.9371 24.3109 11.8278 24.4241L8.82776 27.4241C8.71527 27.5366 8.56268 27.5998 8.40356 27.5999Z" fill="#55A060"/>
<path d="M17.4031 10.2H13.8031C13.644 10.2 13.4914 10.1368 13.3789 10.0243C13.2663 9.91174 13.2031 9.75913 13.2031 9.6C13.2031 9.44087 13.2663 9.28826 13.3789 9.17574C13.4914 9.06321 13.644 9 13.8031 9H17.4031C17.5623 9 17.7149 9.06321 17.8274 9.17574C17.9399 9.28826 18.0031 9.44087 18.0031 9.6C18.0031 9.75913 17.9399 9.91174 17.8274 10.0243C17.7149 10.1368 17.5623 10.2 17.4031 10.2Z" fill="#AAC7C8"/>
<path d="M22.8031 13.2H13.8031C13.644 13.2 13.4914 13.1368 13.3789 13.0243C13.2663 12.9117 13.2031 12.7591 13.2031 12.6C13.2031 12.4409 13.2663 12.2883 13.3789 12.1757C13.4914 12.0632 13.644 12 13.8031 12H22.8031C22.9623 12 23.1149 12.0632 23.2274 12.1757C23.3399 12.2883 23.4031 12.4409 23.4031 12.6C23.4031 12.7591 23.3399 12.9117 23.2274 13.0243C23.1149 13.1368 22.9623 13.2 22.8031 13.2Z" fill="#AAC7C8"/>
<path d="M17.4031 17.9998H13.8031C13.644 17.9998 13.4914 17.9366 13.3789 17.8241C13.2663 17.7115 13.2031 17.5589 13.2031 17.3998C13.2031 17.2407 13.2663 17.0881 13.3789 16.9755C13.4914 16.863 13.644 16.7998 13.8031 16.7998H17.4031C17.5623 16.7998 17.7149 16.863 17.8274 16.9755C17.9399 17.0881 18.0031 17.2407 18.0031 17.3998C18.0031 17.5589 17.9399 17.7115 17.8274 17.8241C17.7149 17.9366 17.5623 17.9998 17.4031 17.9998Z" fill="#AAC7C8"/>
<path d="M21.6031 20.9998H13.8031C13.644 20.9998 13.4914 20.9366 13.3789 20.8241C13.2663 20.7115 13.2031 20.5589 13.2031 20.3998C13.2031 20.2407 13.2663 20.0881 13.3789 19.9755C13.4914 19.863 13.644 19.7998 13.8031 19.7998H21.6031C21.7623 19.7998 21.9149 19.863 22.0274 19.9755C22.1399 20.0881 22.2031 20.2407 22.2031 20.3998C22.2031 20.5589 22.1399 20.7115 22.0274 20.8241C21.9149 20.9366 21.7623 20.9998 21.6031 20.9998Z" fill="#AAC7C8"/>
<path d="M17.4031 25.7996H13.8031C13.644 25.7996 13.4914 25.7364 13.3789 25.6239C13.2663 25.5114 13.2031 25.3587 13.2031 25.1996C13.2031 25.0405 13.2663 24.8879 13.3789 24.7753C13.4914 24.6628 13.644 24.5996 13.8031 24.5996H17.4031C17.5623 24.5996 17.7149 24.6628 17.8274 24.7753C17.9399 24.8879 18.0031 25.0405 18.0031 25.1996C18.0031 25.3587 17.9399 25.5114 17.8274 25.6239C17.7149 25.7364 17.5623 25.7996 17.4031 25.7996Z" fill="#AAC7C8"/>
<path d="M16.8031 28.7996H13.8031C13.644 28.7996 13.4914 28.7364 13.3789 28.6239C13.2663 28.5114 13.2031 28.3587 13.2031 28.1996C13.2031 28.0405 13.2663 27.8879 13.3789 27.7753C13.4914 27.6628 13.644 27.5996 13.8031 27.5996H16.8031C16.9623 27.5996 17.1149 27.6628 17.2274 27.7753C17.3399 27.8879 17.4031 28.0405 17.4031 28.1996C17.4031 28.3587 17.3399 28.5114 17.2274 28.6239C17.1149 28.7364 16.9623 28.7996 16.8031 28.7996Z" fill="#AAC7C8"/>
<path d="M26.3969 29.9998C26.2377 29.9998 26.0851 29.9366 25.9726 29.8241C25.8601 29.7115 25.7969 29.5589 25.7969 29.3998V23.3998C25.7969 23.2407 25.8601 23.0881 25.9726 22.9755C26.0851 22.863 26.2377 22.7998 26.3969 22.7998C26.556 22.7998 26.7086 22.863 26.8211 22.9755C26.9337 23.0881 26.9969 23.2407 26.9969 23.3998V29.3998C26.9969 29.5589 26.9337 29.7115 26.8211 29.8241C26.7086 29.9366 26.556 29.9998 26.3969 29.9998Z" fill="white"/>
<path d="M26.3969 33.0002C26.2377 33.0002 26.0851 32.937 25.9726 32.8245C25.8601 32.7119 25.7969 32.5593 25.7969 32.4002V31.8002C25.7969 31.6411 25.8601 31.4885 25.9726 31.3759C26.0851 31.2634 26.2377 31.2002 26.3969 31.2002C26.556 31.2002 26.7086 31.2634 26.8211 31.3759C26.9337 31.4885 26.9969 31.6411 26.9969 31.8002V32.4002C26.9969 32.5593 26.9337 32.7119 26.8211 32.8245C26.7086 32.937 26.556 33.0002 26.3969 33.0002Z" fill="white"/>
</g>
<defs>
<clipPath id="clip0_21273_75">
<rect width="36" height="36" fill="white"/>
</clipPath>
</defs>
</svg>
