<svg width="45" height="45" viewBox="0 0 45 45" fill="none" xmlns="http://www.w3.org/2000/svg">
<g clip-path="url(#clip0_8837_4846)">
<path d="M12.2689 44.9994H1.47054C0.754671 44.9994 0.246575 44.3017 0.463753 43.6197C1.20713 41.285 3.79226 39.5605 6.86975 39.5605C9.9439 39.5605 12.5312 41.2849 13.2754 43.6194C13.4929 44.3015 12.9848 44.9994 12.2689 44.9994Z" fill="#FFCE29"/>
<path d="M8.08528 38.7991C8.39097 38.7991 8.68171 38.6585 8.86435 38.4133C9.54128 37.5044 9.973 36.2708 9.973 35.3191C9.973 33.6028 8.58107 32.2158 6.86976 32.2158C5.15844 32.2158 3.7666 33.6028 3.7666 35.3191C3.7666 36.2708 4.19832 37.5044 4.87517 38.4133C5.0578 38.6585 5.34855 38.7991 5.65423 38.7991H8.08528Z" fill="#6D6D6D"/>
<path d="M27.4866 44.9994H16.6883C15.9724 44.9994 15.4643 44.3017 15.6815 43.6197C16.4249 41.285 19.01 39.5605 22.0875 39.5605C25.1617 39.5605 27.749 41.2849 28.4932 43.6194C28.7107 44.3015 28.2025 44.9994 27.4866 44.9994Z" fill="#13BD79"/>
<path d="M23.3031 38.7991C23.6087 38.7991 23.8995 38.6585 24.0821 38.4133C24.7591 37.5044 25.1908 36.2708 25.1908 35.3191C25.1908 33.6028 23.7988 32.2158 22.0875 32.2158C20.3762 32.2158 18.9844 33.6028 18.9844 35.3191C18.9844 36.2708 19.4161 37.5044 20.0929 38.4133C20.2756 38.6585 20.5663 38.7991 20.872 38.7991H23.3031Z" fill="#6D6D6D"/>
<path d="M42.7053 44.9994H31.9071C31.1912 44.9994 30.6831 44.3017 30.9003 43.6197C31.6437 41.285 34.2288 39.5605 37.3063 39.5605C40.3804 39.5605 42.9677 41.2849 43.7119 43.6194C43.9294 44.3015 43.4213 44.9994 42.7053 44.9994Z" fill="#E5E3E5"/>
<path d="M38.5218 38.7991C38.8275 38.7991 39.1182 38.6585 39.3009 38.4133C39.9778 37.5044 40.4095 36.2708 40.4095 35.3191C40.4095 33.6028 39.0176 32.2158 37.3063 32.2158C35.595 32.2158 34.2031 33.6028 34.2031 35.3191C34.2031 36.2708 34.6348 37.5044 35.3117 38.4133C35.4943 38.6585 35.7851 38.7991 36.0908 38.7991H38.5218Z" fill="#6D6D6D"/>
<path d="M40.9379 26.8732V6.84646C40.9379 5.96043 40.2197 5.24219 39.3336 5.24219H4.84157C3.95555 5.24219 3.2373 5.96043 3.2373 6.84646V26.8732C3.2373 27.7592 3.95555 28.4775 4.84157 28.4775H39.3336C40.2197 28.4775 40.9379 27.7592 40.9379 26.8732Z" fill="#6D6D6D"/>
<path d="M4.8418 6.84668H39.3339V26.8733H4.8418V6.84668Z" fill="#66D5F2"/>
<g opacity="0.08">
<path d="M36.3213 6.84668H39.3333V26.8721H36.3213V6.84668Z" fill="black"/>
</g>
<path d="M25.3427 17.0316L24.5694 16.6751V14.2168H19.6066V16.6751L18.8301 17.0101L19.0368 23.9814H19.6066V25.0504H24.5694V23.9814H25.1359L25.3427 17.0316Z" fill="#F2B816"/>
<path d="M28.3891 26.8734C28.3776 23.4516 27.9777 19.0047 26.111 17.458C25.8968 17.2808 25.6654 17.1429 25.4119 17.0469L25.311 17.421C25.2815 17.517 25.2421 17.6303 25.1954 17.7509C24.9221 18.45 24.3436 19.484 23.2186 19.9295C23.1989 19.9394 23.1768 19.9467 23.1546 19.9566C22.8248 20.0773 22.4506 20.1486 22.0247 20.1486C21.6358 20.1486 21.2936 20.0896 20.9908 19.9862C20.9883 19.9862 20.9859 19.9837 20.9834 19.9813C19.8904 19.6095 19.3168 18.6765 19.0288 17.9627C18.9968 17.8864 18.9697 17.8125 18.9451 17.7411L18.7605 17.047C18.5069 17.1429 18.2755 17.2808 18.0613 17.4581C16.1814 19.0021 15.7137 23.4507 15.6484 26.8735H28.3891V26.8734Z" fill="white"/>
<path d="M23.2805 19.9228L22.8176 20.9393H21.3702L20.8926 19.9228L22.0866 18.832L23.2805 19.9228Z" fill="#EA4E4E"/>
<path d="M19.5774 16.5146L22.0861 18.8325L20.5591 20.4413L17.9521 17.3218L19.5774 16.5146Z" fill="#E5E3E5"/>
<path d="M26.2208 17.3273L23.6139 20.4359L22.0869 18.8325L23.9794 17.0818L24.5957 16.5146C24.5957 16.5146 26.2208 17.3218 26.2208 17.3273Z" fill="#E5E3E5"/>
<path d="M22.9989 26.873L22.9927 26.667L22.8179 20.9385H21.3704L21.1907 26.7064L21.1855 26.873H22.9989Z" fill="#EA4E4E"/>
<path d="M34.3827 26.8733V24.0516C34.3827 21.9946 33.1697 20.1349 31.288 19.3038C29.5681 18.5441 27.3834 17.6125 25.4122 16.8721L25.4023 16.9164L25.1955 17.7509L24.9149 18.8857L22.9923 26.6672L22.9414 26.8732H34.3827V26.8733Z" fill="#6D6D6D"/>
<g opacity="0.08">
<path d="M34.3847 24.0521V26.8717H32.3341V24.0521C32.3341 21.9961 31.1234 20.1364 29.2418 19.3019C28.0529 18.7784 26.6404 18.173 25.2334 17.6004L25.4025 16.9187L25.4134 16.875C27.3822 17.6113 29.5691 18.5439 31.287 19.3019C33.1685 20.1364 34.3847 21.9961 34.3847 24.0521Z" fill="black"/>
</g>
<path d="M21.2315 26.8733L21.1903 26.7067L19.2579 18.8857L19.0289 17.9626L18.7704 16.9164L18.7606 16.8721C16.7894 17.6125 14.6047 18.5442 12.8848 19.3038C11.0031 20.1349 9.79004 21.9946 9.79004 24.0516V26.8733H21.2315Z" fill="#6D6D6D"/>
<path d="M24.0738 26.8737L26.69 22.2455C26.7954 22.059 26.7819 21.828 26.6554 21.6551L26.2459 21.0953C26.0751 20.8618 26.1162 20.5358 26.3395 20.3521L26.9357 19.8617C27.0566 19.7622 27.129 19.6156 27.1342 19.4591L27.1949 17.6795C27.2021 17.4686 27.087 17.2725 26.8993 17.176L25.7525 16.5861C25.433 16.4218 25.0446 16.606 24.9697 16.9574L22.8555 26.8738H24.0738V26.8737Z" fill="#5B5B5B"/>
<path d="M17.238 19.8618L17.8342 20.3522C18.0575 20.5359 18.0987 20.8619 17.9279 21.0954L17.5183 21.6552C17.3918 21.828 17.3783 22.059 17.4837 22.2456L20.0999 26.8738H21.3183L19.2041 16.9574C19.1291 16.6059 18.7407 16.4218 18.4212 16.5862L17.2744 17.176C17.0868 17.2725 16.9716 17.4686 16.9788 17.6795L17.0395 19.4591C17.0448 19.6157 17.1172 19.7624 17.238 19.8618Z" fill="#5B5B5B"/>
<path d="M28.26 5.7746L28.1182 8.40156H16.1418L16 5.82311C16 2.38765 18.8632 0.000976562 22.13 0.000976562C25.3967 0.000976562 28.26 2.38765 28.26 5.7746Z" fill="#6D6D6D"/>
<g opacity="0.08">
<path d="M28.2601 5.77653L28.1183 8.3998H26.5967L26.7385 5.77653C26.7385 2.65703 24.3117 0.382773 21.3721 0.0446582C21.6175 0.0174121 21.8738 0.000976562 22.1301 0.000976562C25.3968 0.00106445 28.2601 2.38976 28.2601 5.77653Z" fill="black"/>
</g>
<path d="M27.5445 7.89727L27.51 7.83057C27.0388 6.91835 26.0258 6.47116 25.0127 6.63771C22.3636 7.07321 21.9827 3.92725 18.3364 5.69737C17.9045 5.90708 17.5583 6.26251 17.3377 6.68913L16.714 7.89516C16.5542 7.93366 16.4101 8.00696 16.2897 8.11006C16.0664 8.30034 15.9258 8.58159 15.9258 8.89791V9.97316C15.9258 10.5417 16.3836 11.0029 16.9533 11.0065C16.9533 13.7032 20.1935 16.2595 22.1294 16.2595C24.0652 16.2595 27.3054 13.7036 27.3054 11.0068C27.873 11.0028 28.3321 10.5422 28.3321 9.9736V8.89835C28.3319 8.41275 27.9959 8.00828 27.5445 7.89727Z" fill="#FFCE29"/>
<path d="M26.4519 14.4567H22.6045V13.978H26.4519C27.2225 13.978 27.8497 13.3509 27.8497 12.58V9.33008H28.3285V12.58C28.3284 13.6147 27.4867 14.4567 26.4519 14.4567Z" fill="#F2F0F0"/>
<path d="M28.8879 8.80239V9.85699C28.8879 10.5359 28.3375 11.0862 27.6586 11.0862C27.4545 11.0862 27.2891 10.9207 27.2891 10.7167V7.94282C27.2891 7.73865 27.4546 7.57324 27.6586 7.57324C28.3375 7.57324 28.8879 8.12353 28.8879 8.80239Z" fill="#5B5B5B"/>
<path d="M23.8561 14.2133C23.8561 14.733 23.2584 15.1576 22.5223 15.1576C21.7863 15.1576 21.1885 14.733 21.1885 14.2133C21.1885 13.6937 21.7862 13.2754 22.5223 13.2754C23.2584 13.2754 23.8561 13.6937 23.8561 14.2133Z" fill="#5B5B5B"/>
<path d="M37.4529 0.00200372C33.5249 0.0145721 30.3465 2.36538 30.3559 5.25145C30.3603 6.66473 31.1283 7.94336 32.3702 8.88036C32.0066 9.71796 31.4076 10.4997 30.5362 11.111C30.1263 11.3987 30.2972 12.0334 30.7969 12.0653C32.6902 12.1859 34.6715 11.6366 36.2858 10.3863C36.6764 10.4338 37.0771 10.4594 37.4864 10.4581C41.4181 10.4455 44.5964 8.09462 44.5872 5.20601C44.578 2.31994 41.3846 -0.0105646 37.4529 0.00200372Z" fill="#F96464"/>
<g opacity="0.08">
<path d="M44.5865 5.2052C44.5977 8.0939 41.419 10.445 37.4863 10.4583C37.2321 10.4583 36.98 10.4494 36.7324 10.4315C40.3282 10.1571 43.1322 7.91759 43.1232 5.20511C43.1143 2.50599 40.3237 0.295449 36.7503 0.0278225C36.9823 0.012178 37.2164 0.00101589 37.4529 0.00101589C41.3855 -0.0100583 44.5775 2.31878 44.5865 5.2052Z" fill="black"/>
</g>
<path d="M42.0373 3.58654C42.0373 3.75731 41.8989 3.89574 41.7281 3.89574H33.2145C33.0437 3.89574 32.9053 3.75731 32.9053 3.58654C32.9053 3.41577 33.0437 3.27734 33.2145 3.27734H41.7281C41.8989 3.27734 42.0373 3.41577 42.0373 3.58654Z" fill="#F2F0F0"/>
<path d="M42.0373 5.22912C42.0373 5.39989 41.8989 5.53832 41.7281 5.53832H33.2145C33.0437 5.53832 32.9053 5.39989 32.9053 5.22912C32.9053 5.05835 33.0437 4.91992 33.2145 4.91992H41.7281C41.8989 4.92001 42.0373 5.05835 42.0373 5.22912Z" fill="#F2F0F0"/>
<path d="M39.6102 6.87268C39.6102 7.04345 39.4718 7.18187 39.301 7.18187H33.2145C33.0437 7.18187 32.9053 7.04345 32.9053 6.87268C32.9053 6.7019 33.0437 6.56348 33.2145 6.56348H39.301C39.4718 6.56348 39.6102 6.7019 39.6102 6.87268Z" fill="#F2F0F0"/>
</g>
<defs>
<clipPath id="clip0_8837_4846">
<rect width="45" height="45" fill="white"/>
</clipPath>
</defs>
</svg>
