<svg width="47" height="45" viewBox="0 0 47 45" fill="none" xmlns="http://www.w3.org/2000/svg">
<g clip-path="url(#clip0_8951_5745)">
<path d="M2.29609 7.49259C1.54796 7.49259 0.941406 6.89353 0.941406 6.15463V4.01388C0.941406 1.80062 2.76444 0 5.00546 0H7.17297C7.9211 0 8.52765 0.599063 8.52765 1.33796C8.52765 2.07686 7.9211 2.67592 7.17297 2.67592H5.00546C4.25848 2.67592 3.65077 3.27612 3.65077 4.01388V6.15463C3.65077 6.89353 3.04422 7.49259 2.29609 7.49259Z" fill="#D8ECFE"/>
<path d="M44.4737 7.49259C43.7256 7.49259 43.1191 6.89353 43.1191 6.15463V4.01388C43.1191 3.27612 42.5114 2.67592 41.7644 2.67592H39.5969C38.8487 2.67592 38.2422 2.07686 38.2422 1.33796C38.2422 0.599063 38.8487 0 39.5969 0H41.7644C44.0053 0 45.8284 1.80062 45.8284 4.01388V6.15463C45.8284 6.89353 45.222 7.49259 44.4737 7.49259Z" fill="#D8ECFE"/>
<path d="M7.17297 44.3315H5.00546C2.76453 44.3315 0.941406 42.5308 0.941406 40.3176V38.1768C0.941406 37.4379 1.54796 36.8389 2.29609 36.8389C3.04422 36.8389 3.65077 37.4379 3.65077 38.1768V40.3176C3.65077 41.0553 4.25848 41.6555 5.00546 41.6555H7.17297C7.9211 41.6555 8.52765 42.2546 8.52765 42.9935C8.52765 43.7325 7.9211 44.3315 7.17297 44.3315Z" fill="#D8ECFE"/>
<path d="M41.7644 44.3315H39.5969C38.8487 44.3315 38.2422 43.7324 38.2422 42.9935C38.2422 42.2546 38.8487 41.6555 39.5969 41.6555H41.7644C42.5114 41.6555 43.1191 41.0553 43.1191 40.3176V38.1768C43.1191 37.4379 43.7256 36.8389 44.4737 36.8389C45.2219 36.8389 45.8284 37.4379 45.8284 38.1768V40.3176C45.8284 42.5308 44.0054 44.3315 41.7644 44.3315Z" fill="#D8ECFE"/>
<path d="M26.4326 2.04783C26.8067 2.04783 27.11 1.7483 27.11 1.3789C27.11 1.00949 26.8068 0.709961 26.4326 0.709961H24.5289C24.1548 0.709961 23.8516 1.00949 23.8516 1.3789V5.8411C23.8516 6.2106 24.1547 6.51004 24.5289 6.51004H26.4326C26.8067 6.51004 27.11 6.21051 27.11 5.8411C27.11 5.4717 26.8068 5.17217 26.4326 5.17217H25.2062V4.27894H26.2922C26.6663 4.27894 26.9695 3.9794 26.9695 3.61C26.9695 3.2406 26.6663 2.94106 26.2922 2.94106H25.2062V2.04783H26.4326Z" fill="#F58A97"/>
<path d="M32.9303 4.69293C32.5245 4.35684 32.1768 4.61541 31.8595 4.89455C31.65 5.07877 31.3806 5.1722 31.0588 5.1722C30.1752 5.1722 29.4563 4.46222 29.4563 3.58955C29.4563 2.71688 30.1752 2.0069 31.0588 2.0069C31.3799 2.0069 31.6896 2.10024 31.9543 2.27682C32.2642 2.48371 32.6853 2.40312 32.8947 2.0969C33.1041 1.79069 33.0226 1.37488 32.7125 1.16808C32.2231 0.841475 31.6512 0.668945 31.0587 0.668945C29.4281 0.668945 28.1016 1.97913 28.1016 3.58955C28.1016 5.19997 29.4281 6.51016 31.0587 6.51016C31.7135 6.51016 32.3019 6.29693 32.7604 5.89369C33.1174 5.57983 33.3732 5.05979 32.9303 4.69293Z" fill="#F58A97"/>
<path d="M22.8589 2.50832C22.8589 1.49406 21.9934 0.668945 20.9295 0.668945H19.7179C19.7176 0.668945 19.7173 0.668945 19.7172 0.668945C19.7169 0.668945 19.7167 0.668945 19.7164 0.668945C19.3423 0.668945 19.0391 0.968477 19.0391 1.33788V5.84122C19.0391 6.21071 19.3422 6.51016 19.7164 6.51016C20.0906 6.51016 20.3937 6.21062 20.3937 5.84122V4.84753L21.6732 6.28331C21.9212 6.56157 22.3494 6.58671 22.6292 6.34352C22.91 6.09944 22.9372 5.67669 22.6901 5.39939L21.6371 4.21779C22.3516 3.94806 22.8589 3.28422 22.8589 2.50832ZM20.9295 2.0069C21.241 2.0069 21.5042 2.23647 21.5042 2.50832C21.5042 2.78017 21.2411 3.00974 20.9295 3.00974C20.8031 3.00974 20.6019 3.01044 20.3999 3.01141C20.3989 2.81849 20.3977 2.20976 20.3972 2.00699L20.9295 2.0069Z" fill="#F58A97"/>
<path d="M15.6242 4.92787C16.3724 4.92787 16.9789 4.32885 16.9789 3.58991C16.9789 2.85098 16.3724 2.25195 15.6242 2.25195C14.876 2.25195 14.2695 2.85098 14.2695 3.58991C14.2695 4.32885 14.876 4.92787 15.6242 4.92787Z" fill="#F58A97"/>
<path d="M11.433 44.9999C11.0839 44.9999 10.8008 44.7204 10.8008 44.3756V36.5407C10.8008 35.0159 11.7632 33.6506 13.2171 33.1127L19.2541 30.8794C19.5207 30.7808 19.7483 30.6169 19.9212 30.4104C20.1496 30.1375 21.6371 29.7901 21.6371 29.4207V27.0371H25.1308V29.4207C25.1308 29.7901 26.6182 30.1375 26.8467 30.4104C27.0196 30.617 27.2472 30.7809 27.5138 30.8794L33.5508 33.1127C35.0047 33.6506 35.9671 35.0159 35.9671 36.5407V44.3756C35.9671 44.7204 35.684 44.9999 35.3349 44.9999H11.433Z" fill="#AEE69C"/>
<path d="M33.552 33.1127L27.515 30.8794C27.2485 30.7808 27.0208 30.6169 26.8479 30.4104C26.6195 30.1375 25.132 29.7901 25.132 29.4207V27.0371H23.7773V30.7587C23.7773 31.4075 24.1869 31.9885 24.8056 32.2174L30.8426 34.4507C32.2966 34.9886 33.259 36.3539 33.259 37.8787V44.9999H35.3362C35.6853 44.9999 35.9683 44.7204 35.9683 44.3756V36.5407C35.9682 35.0159 35.0059 33.6506 33.552 33.1127Z" fill="#89DAA4"/>
<path d="M23.3849 32.3978C24.8714 32.3978 26.1664 31.5963 26.8479 30.4102C26.6195 30.1372 25.1318 29.7901 25.1318 29.4207V27.0371H20.2833V29.4207C20.2833 29.7901 20.1503 30.1372 19.9219 30.4102C20.6034 31.5963 21.8984 32.3978 23.3849 32.3978Z" fill="#FFCEBF"/>
<path d="M24.7069 32.1766C25.6195 31.8605 26.3792 31.2265 26.8482 30.4102C26.6171 30.1343 26.4869 29.779 26.4867 29.4207V27.0371H23.7773V30.7587C23.7773 31.3723 24.1439 31.9248 24.7069 32.1766Z" fill="#FFB09E"/>
<path d="M29.6408 20.0799H17.127V12.6621C17.127 11.1401 18.3762 9.90625 19.9172 9.90625H26.8505C28.3915 9.90625 29.6407 11.1401 29.6407 12.6621V20.0799H29.6408Z" fill="#E19974"/>
<path d="M26.85 9.90625H24.1406C25.6817 9.90625 26.9309 11.1401 26.9309 12.6621V20.0799H29.6402V12.6621C29.6402 11.1401 28.391 9.90625 26.85 9.90625Z" fill="#DC8758"/>
<path d="M29.6407 18.0471C29.309 17.4349 28.7473 16.6519 27.8462 16.3891C26.765 16.0737 26.1991 16.7999 24.7305 16.795C23.0604 16.7895 22.6652 15.8469 21.3183 15.7432C20.3499 15.6687 18.9514 16.0327 17.127 18.0471V22.3766C17.127 25.7689 19.9282 28.5189 23.3839 28.5189C26.8395 28.5189 29.6408 25.7689 29.6408 22.3766V18.0471H29.6407Z" fill="#FFCEBF"/>
<path d="M29.6407 18.0471C29.309 17.4349 28.7473 16.6519 27.8462 16.3891C26.765 16.0737 26.1991 16.7999 24.7305 16.795C23.0604 16.7895 22.6652 15.8469 21.3183 15.7432C20.3499 15.6687 18.9514 16.0327 17.127 18.0471V22.3766C17.127 24.6629 18.3994 26.6575 20.2871 27.7151C21.2002 28.2267 23.3839 28.079 23.3839 28.079C24.5096 28.079 25.5659 28.2271 26.4785 27.7163C28.3674 26.6591 29.6408 24.6639 29.6408 22.3766V18.0471H29.6407Z" fill="#FFCEBF"/>
<path d="M29.64 22.3765V18.047C29.3083 17.4348 28.7465 16.6518 27.8454 16.389C27.0567 16.1589 26.5417 16.4831 25.7508 16.6734C25.7854 16.6959 25.8192 16.7191 25.8525 16.7431C26.5439 17.2414 26.9306 18.0539 26.9306 18.8991V22.3765C26.9493 22.7605 27.0039 24.6985 25.531 26.2475C23.4915 28.3923 20.463 27.7538 20.2871 27.7134C21.2002 28.225 22.2564 28.5189 23.383 28.5189C26.8387 28.519 29.64 25.7689 29.64 22.3765Z" fill="#FFB09E"/>
<path d="M20.3648 22.1005C19.9907 22.1005 19.6875 21.801 19.6875 21.4316V20.2461C19.6875 19.8766 19.9907 19.5771 20.3648 19.5771C20.7389 19.5771 21.0421 19.8767 21.0421 20.2461V21.4316C21.0422 21.801 20.7389 22.1005 20.3648 22.1005Z" fill="#3D6D93"/>
<path d="M26.4019 22.1005C26.0278 22.1005 25.7246 21.801 25.7246 21.4316V20.2461C25.7246 19.8766 26.0278 19.5771 26.4019 19.5771C26.776 19.5771 27.0793 19.8767 27.0793 20.2461V21.4316C27.0792 21.801 26.776 22.1005 26.4019 22.1005Z" fill="#3D6D93"/>
<path d="M23.385 25.8777C23.3739 25.8777 23.3628 25.8777 23.3516 25.8775C22.8297 25.8721 22.3116 25.7388 21.8532 25.4918C21.5248 25.315 21.4037 24.9086 21.5828 24.5842C21.7618 24.2599 22.1732 24.1402 22.5018 24.3172C22.6861 24.4164 22.9856 24.5357 23.3658 24.5395C23.7666 24.5423 24.0756 24.4209 24.2683 24.3171C24.5968 24.1403 25.0082 24.2599 25.1872 24.5843C25.3662 24.9087 25.2451 25.315 24.9167 25.4918C24.5881 25.6688 24.0577 25.8777 23.385 25.8777Z" fill="#FFB09E"/>
<path d="M30.5184 21.2654H29.6406V17.9951H30.5184C31.4328 17.9951 32.174 18.7272 32.174 19.6303C32.1741 20.5334 31.4328 21.2654 30.5184 21.2654Z" fill="#FFCEBF"/>
<path d="M16.2493 21.2654H17.1271V17.9951H16.2493C15.3349 17.9951 14.5938 18.7272 14.5938 19.6303C14.5937 20.5334 15.3349 21.2654 16.2493 21.2654Z" fill="#FFB09E"/>
<path d="M30.5484 45.0004C30.1743 45.0004 29.8711 44.7009 29.8711 44.3314V40.9464C29.8711 40.5769 30.1743 40.2773 30.5484 40.2773C30.9225 40.2773 31.2258 40.5769 31.2258 40.9464V44.3314C31.2258 44.7009 30.9226 45.0004 30.5484 45.0004Z" fill="#89DAA4"/>
<path d="M16.2183 45.0004C15.8442 45.0004 15.541 44.7009 15.541 44.3314V40.9464C15.541 40.5769 15.8442 40.2773 16.2183 40.2773C16.5924 40.2773 16.8956 40.5769 16.8956 40.9464V44.3314C16.8956 44.7009 16.5924 45.0004 16.2183 45.0004Z" fill="#89DAA4"/>
<path d="M45.1939 18.6773H40.6102C40.4425 18.6773 40.2817 18.7431 40.1632 18.8602L38.2557 20.7442C38.0282 20.9689 37.639 20.8097 37.639 20.4919V19.3017C37.639 18.9569 37.3559 18.6773 37.0068 18.6773H35.4994C35.1503 18.6773 34.8672 18.3978 34.8672 18.053V12.4769C34.8672 12.1321 35.1503 11.8525 35.4994 11.8525H45.1939C45.543 11.8525 45.8261 12.1321 45.8261 12.4769V18.053C45.8261 18.3978 45.5431 18.6773 45.1939 18.6773Z" fill="#AEE69C"/>
<path d="M45.1937 11.8525H42.4844C42.8335 11.8525 43.1166 12.1321 43.1166 12.4769V18.053C43.1166 18.3978 42.8335 18.6773 42.4844 18.6773H45.1937C45.5428 18.6773 45.8259 18.3978 45.8259 18.053V12.4769C45.8259 12.1321 45.5429 11.8525 45.1937 11.8525Z" fill="#89DAA4"/>
<path d="M42.2632 15.9336H38.4293C38.0552 15.9336 37.752 15.634 37.752 15.2646C37.752 14.8951 38.0551 14.5957 38.4293 14.5957H42.2632C42.6373 14.5957 42.9406 14.8952 42.9406 15.2646C42.9405 15.6341 42.6373 15.9336 42.2632 15.9336Z" fill="white"/>
</g>
<defs>
<clipPath id="clip0_8951_5745">
<rect width="45.5625" height="45" fill="white" transform="translate(0.601562)"/>
</clipPath>
</defs>
</svg>
