<svg width="47" height="45" viewBox="0 0 47 45" fill="none" xmlns="http://www.w3.org/2000/svg">
<g clip-path="url(#clip0_9479_7807)">
<path d="M43.099 16.9248C43.5726 16.9248 43.9564 17.3039 43.9564 17.7716V41.4975C43.9564 43.4318 42.3687 45 40.4102 45H6.35878C4.40024 45 2.8125 43.4318 2.8125 41.4975V17.7716C2.8125 17.3039 3.19635 16.9248 3.6699 16.9248H43.099Z" fill="#B3E5EE"/>
<path d="M5.41016 16.9248V40.8638C5.41016 42.4483 6.71485 43.7372 8.31865 43.7372H38.5383C40.142 43.7372 41.4468 42.4482 41.4468 40.8638V16.9248H5.41016Z" fill="#86D7E5"/>
<path d="M38.8854 15.2139H7.97896C7.57592 15.2139 7.25 15.5367 7.25 15.9347V37.5943L17.2097 41.1873L23.4322 41.8941L38.3457 39.2352L39.6143 37.5943V15.9347C39.6143 15.5367 39.2884 15.2139 38.8854 15.2139Z" fill="#F9F7F7"/>
<path d="M22.7422 15.2139H24.1193V41.924H22.7422V15.2139Z" fill="#F8F3F2"/>
<path d="M14.9336 15.2139L18.9722 21.4235V21.9052C18.9722 22.7029 19.3745 23.4091 19.989 23.8375V24.595C19.989 26.1801 21.2947 27.4697 22.8996 27.4697H23.965C25.5699 27.4697 26.8756 26.1801 26.8756 24.595V23.8375C27.49 23.4091 27.8924 22.7029 27.8924 21.9052V21.4235L31.931 15.2139H14.9336Z" fill="#F8F3F2"/>
<path d="M11.0723 38.3584V15.2139H7.97896C7.57592 15.2139 7.25 15.5367 7.25 15.9347V37.5943L11.1963 39.0179C11.1174 38.8127 11.0723 38.591 11.0723 38.3584Z" fill="#F8F3F2"/>
<path d="M23.4322 41.8945V41.9245H8.32232C7.73016 41.9245 7.25 41.4502 7.25 40.8645V37.5947H19.0786C21.4831 37.5947 23.4322 39.5198 23.4322 41.8945Z" fill="#F2EAE7"/>
<path d="M39.6118 37.5947V40.8645C39.6118 41.4502 39.1317 41.9245 38.5395 41.9245H23.4297V41.8945C23.4297 39.5198 25.3788 37.5947 27.7832 37.5947H39.6118Z" fill="#F2EAE7"/>
<path d="M25.4993 21.8213H21.3672V24.5949C21.3672 25.4312 22.0537 26.1093 22.9006 26.1093H23.9659C24.8128 26.1093 25.4993 25.4312 25.4993 24.5949V21.8213Z" fill="#A59CA6"/>
<path d="M25.4993 21.8213H22.5492H22.2001H21.3672V24.5949C21.3672 25.4312 22.0537 26.1093 22.9006 26.1093H23.9659C24.5594 26.1093 25.0731 25.7757 25.328 25.2885C25.2689 25.2953 25.209 25.2999 25.148 25.2999H24.0826C23.4089 25.2999 22.8374 24.8705 22.6319 24.2738C22.5546 24.0494 22.7231 23.816 22.9632 23.816H25.4994V21.8213H25.4993Z" fill="#8F8390"/>
<path d="M32.5879 9.0442C32.5879 4.04918 28.488 0 23.4307 0C18.3733 0 14.2734 4.04918 14.2734 9.0442C14.2734 10.982 14.8908 12.7772 15.9414 14.2491L20.3478 21.0242V21.9052C20.3478 22.4598 20.803 22.9095 21.3646 22.9095H25.4967C26.0583 22.9095 26.5136 22.4598 26.5136 21.9052V21.0242L30.92 14.2491C31.9705 12.7772 32.5879 10.982 32.5879 9.0442Z" fill="#FBE88C"/>
<path d="M19.8031 15.4031C18.7046 13.8121 18.0592 11.8714 18.0592 9.77667C18.0592 5.11661 21.2514 1.2184 25.5252 0.238022C24.8522 0.0823329 24.1517 0 23.4307 0C18.3733 0 14.2734 4.04918 14.2734 9.0442C14.2734 10.982 14.8908 12.7772 15.9414 14.2491L20.3478 21.0242V21.9052C20.3478 22.4598 20.803 22.9095 21.3646 22.9095H23.9816L19.8031 15.4031Z" fill="#FBE372"/>
<path d="M24.0372 22.9092H25.4146L25.8938 14.8776H26.6783C27.8007 14.8776 28.7138 13.9758 28.7138 12.8673V12.7848C28.7138 11.6763 27.8007 10.7744 26.6783 10.7744C25.6022 10.7744 24.7096 11.6055 24.6463 12.6665L24.5955 13.5175H22.1808L22.1301 12.6665C22.0668 11.6055 21.1742 10.7744 20.0981 10.7744C18.9756 10.7744 18.0625 11.6763 18.0625 12.7848V12.8673C18.0625 13.9758 18.9756 14.8776 20.0981 14.8776H20.8825L21.3616 22.9089C21.3637 22.9089 21.3659 22.9092 21.368 22.9092H22.7391C22.7391 22.8958 22.262 14.8776 22.262 14.8776H24.5143C24.5144 14.8775 24.0373 22.8958 24.0372 22.9092ZM26.021 12.7465C26.0415 12.4033 26.3302 12.1344 26.6783 12.1344C27.0414 12.1344 27.3367 12.4261 27.3367 12.7847V12.8672C27.3367 13.2257 27.0414 13.5174 26.6783 13.5174H25.975L26.021 12.7465ZM20.0982 13.5174C19.7351 13.5174 19.4397 13.2257 19.4397 12.8672V12.7847C19.4397 12.4261 19.7351 12.1344 20.0982 12.1344C20.4463 12.1344 20.735 12.4033 20.7554 12.7465L20.8014 13.5174H20.0982Z" fill="#F9DE58"/>
<path d="M35.4935 4.48421C35.3023 4.48421 35.112 4.40596 34.9758 4.25281C34.7249 3.97062 34.7532 3.54083 35.039 3.2931L36.5413 1.99028C36.8271 1.74256 37.2622 1.7704 37.513 2.05267C37.764 2.33485 37.7357 2.76465 37.4499 3.01237L35.9475 4.31519C35.8169 4.42853 35.6548 4.48421 35.4935 4.48421Z" fill="#FBE88C"/>
<path d="M36.9954 10.0576C36.834 10.0576 36.6721 10.002 36.5413 9.88857L35.0389 8.58566C34.7532 8.33784 34.7249 7.90813 34.9758 7.62595C35.2268 7.34377 35.6618 7.31566 35.9475 7.56357L37.4499 8.86648C37.7356 9.11429 37.7639 9.544 37.513 9.82618C37.3769 9.97933 37.1866 10.0576 36.9954 10.0576Z" fill="#FBE88C"/>
<path d="M11.3703 4.48425C11.209 4.48425 11.047 4.42867 10.9163 4.31523L9.41396 3.01241C9.12816 2.76469 9.09997 2.33489 9.35079 2.05271C9.60161 1.77053 10.0368 1.74242 10.3225 1.99033L11.8248 3.29314C12.1106 3.54087 12.1388 3.97067 11.888 4.25285C11.752 4.406 11.5616 4.48425 11.3703 4.48425Z" fill="#FBE88C"/>
<path d="M9.86855 10.0575C9.67731 10.0575 9.48699 9.97929 9.35084 9.82614C9.09993 9.54396 9.1282 9.11425 9.41391 8.86643L10.9163 7.56353C11.2021 7.3158 11.6371 7.34364 11.888 7.62591C12.1389 7.90809 12.1106 8.3378 11.8249 8.58561L10.3225 9.88852C10.1919 10.0019 10.0299 10.0575 9.86855 10.0575Z" fill="#FBE88C"/>
<path d="M16.651 23.5896H9.86825C9.48798 23.5896 9.17969 23.2852 9.17969 22.9096C9.17969 22.5339 9.48798 22.2295 9.86825 22.2295H16.651C17.0312 22.2295 17.3395 22.5339 17.3395 22.9096C17.3395 23.2852 17.0312 23.5896 16.651 23.5896Z" fill="#F2EAE7"/>
<path d="M18.747 27.0486H11.1104C10.7302 27.0486 10.4219 26.7442 10.4219 26.3685C10.4219 25.9929 10.7302 25.6885 11.1104 25.6885H18.747C19.1272 25.6885 19.4355 25.9929 19.4355 26.3685C19.4355 26.7442 19.1272 27.0486 18.747 27.0486Z" fill="#F2EAE7"/>
<path d="M18.747 30.3621H11.1104C10.7302 30.3621 10.4219 30.0577 10.4219 29.682C10.4219 29.3063 10.7302 29.002 11.1104 29.002H18.747C19.1272 29.002 19.4355 29.3063 19.4355 29.682C19.4355 30.0577 19.1272 30.3621 18.747 30.3621Z" fill="#F2EAE7"/>
<path d="M18.747 33.6756H11.1104C10.7302 33.6756 10.4219 33.3712 10.4219 32.9955C10.4219 32.6198 10.7302 32.3154 11.1104 32.3154H18.747C19.1272 32.3154 19.4355 32.6198 19.4355 32.9955C19.4355 33.3712 19.1272 33.6756 18.747 33.6756Z" fill="#F2EAE7"/>
<path d="M36.9947 23.5896H30.212C29.8317 23.5896 29.5234 23.2852 29.5234 22.9096C29.5234 22.5339 29.8317 22.2295 30.212 22.2295H36.9947C37.375 22.2295 37.6833 22.5339 37.6833 22.9096C37.6833 23.2852 37.375 23.5896 36.9947 23.5896Z" fill="#F2EAE7"/>
<path d="M35.7509 27.0486H28.1143C27.7341 27.0486 27.4258 26.7442 27.4258 26.3685C27.4258 25.9929 27.7341 25.6885 28.1143 25.6885H35.7509C36.1311 25.6885 36.4394 25.9929 36.4394 26.3685C36.4394 26.7442 36.1312 27.0486 35.7509 27.0486Z" fill="#F2EAE7"/>
<path d="M35.7509 30.3621H28.1143C27.7341 30.3621 27.4258 30.0577 27.4258 29.682C27.4258 29.3063 27.7341 29.002 28.1143 29.002H35.7509C36.1311 29.002 36.4394 29.3063 36.4394 29.682C36.4394 30.0577 36.1312 30.3621 35.7509 30.3621Z" fill="#F2EAE7"/>
<path d="M35.7509 33.6756H28.1143C27.7341 33.6756 27.4258 33.3712 27.4258 32.9955C27.4258 32.6198 27.7341 32.3154 28.1143 32.3154H35.7509C36.1311 32.3154 36.4394 32.6198 36.4394 32.9955C36.4394 33.3712 36.1312 33.6756 35.7509 33.6756Z" fill="#F2EAE7"/>
<path d="M23.7726 40.2178C23.5519 40.7326 23.4297 41.2988 23.4297 41.8932V41.9231H38.5395C39.1317 41.9231 39.6118 41.4489 39.6118 40.8631V40.2179H23.7726V40.2178Z" fill="#EDE2DD"/>
<path d="M12.9558 40.2182C11.9155 40.2182 11.0723 39.3853 11.0723 38.3579V37.5938H7.25V40.8635C7.25 41.4493 7.73016 41.9235 8.32232 41.9235H23.4322V41.8936C23.4322 41.2992 23.31 40.7331 23.0892 40.2182H12.9558Z" fill="#EDE2DD"/>
</g>
<defs>
<clipPath id="clip0_9479_7807">
<rect width="45.5625" height="45" fill="white" transform="translate(0.601562)"/>
</clipPath>
</defs>
</svg>
