<svg width="43" height="43" viewBox="0 0 43 43" fill="none" xmlns="http://www.w3.org/2000/svg">
<path fill-rule="evenodd" clip-rule="evenodd" d="M15.3701 42.0517H23.8837C24.1162 42.0517 24.2883 41.8437 24.2419 41.6187C23.8042 39.497 21.9044 37.9004 19.6269 37.9004C17.3494 37.9004 15.4497 39.497 15.012 41.6187C14.9655 41.8437 15.1377 42.0517 15.3701 42.0517Z" fill="#8AC9FE"/>
<path fill-rule="evenodd" clip-rule="evenodd" d="M23.0515 42.0517H23.8839C24.1164 42.0517 24.2885 41.8437 24.2421 41.6187C23.8044 39.497 21.9046 37.9004 19.6271 37.9004C19.4869 37.9004 19.3481 37.9065 19.2109 37.9184C21.3006 38.0991 22.9989 39.6276 23.4097 41.6187C23.4561 41.8437 23.284 42.0517 23.0515 42.0517Z" fill="#60B7FF"/>
<path d="M19.627 37.0213C20.9421 37.0213 22.0083 35.9683 22.0083 34.6693C22.0083 33.3704 20.9421 32.3174 19.627 32.3174C18.3118 32.3174 17.2456 33.3704 17.2456 34.6693C17.2456 35.9683 18.3118 37.0213 19.627 37.0213Z" fill="#F6DCCD"/>
<path fill-rule="evenodd" clip-rule="evenodd" d="M19.6272 32.3174C20.9423 32.3174 22.0085 33.3704 22.0085 34.6693C22.0085 35.9683 20.9423 37.0213 19.6272 37.0213C19.5146 37.0213 19.4038 37.0134 19.2954 36.9984C20.4535 36.839 21.345 35.857 21.345 34.6693C21.345 33.4816 20.4535 32.4997 19.2954 32.3402C19.4038 32.3253 19.5145 32.3174 19.6272 32.3174Z" fill="#F1CBBC"/>
<path fill-rule="evenodd" clip-rule="evenodd" d="M16.7262 3.53556C16.7262 2.1119 17.9054 0.947266 19.347 0.947266H40.1191C41.5605 0.947266 42.7397 2.11243 42.7397 3.53556V19.0787C42.7397 20.5019 41.5599 21.667 40.119 21.667H19.3469C17.9063 21.667 16.7261 20.5024 16.7261 19.0787L16.7262 3.53556Z" fill="#ECEFF1"/>
<path fill-rule="evenodd" clip-rule="evenodd" d="M39.229 0.947266H40.1189C41.5603 0.947266 42.7395 2.11243 42.7395 3.53556V19.0787C42.7395 20.5019 41.5598 21.667 40.1189 21.667H39.229C40.6699 21.667 41.8496 20.5019 41.8496 19.0787V3.53556C41.8496 2.11243 40.6704 0.947266 39.229 0.947266Z" fill="#D1D1D6"/>
<path fill-rule="evenodd" clip-rule="evenodd" d="M21.2695 19.2882C20.8764 19.2882 20.5576 18.9734 20.5576 18.585C20.5576 18.1967 20.8764 17.8819 21.2695 17.8819H39.3745C39.7676 17.8819 40.0864 18.1967 40.0864 18.585C40.0864 18.9734 39.7676 19.2882 39.3745 19.2882H21.2695ZM21.2695 16.6514C20.8764 16.6514 20.5576 16.3365 20.5576 15.9482C20.5576 15.5599 20.8764 15.2451 21.2695 15.2451H34.8444C35.2376 15.2451 35.5563 15.5599 35.5563 15.9482C35.5563 16.3365 35.2376 16.6514 34.8444 16.6514H21.2695Z" fill="#A79BA7"/>
<path fill-rule="evenodd" clip-rule="evenodd" d="M4.55797 40.8543H12.269C12.7428 40.8542 13.1292 40.473 13.13 40.0051L13.1684 16.5547L15.1486 14.1893H20.147C20.5102 14.1893 20.8406 14.0508 21.0871 13.8243L24.9035 10.8789C25.5022 10.4169 25.6086 9.56306 25.1408 8.97164C24.6731 8.38023 23.8086 8.27528 23.2098 8.73724L19.6798 11.4616H4.3524C2.44759 11.4616 0.0785155 12.6686 0.0676588 14.7985L0.0249438 23.2203C0.015511 25.0551 1.61607 26.5567 3.63079 26.5567L3.69673 40.0079C3.69904 40.4749 4.08508 40.8543 4.55797 40.8543Z" fill="#8AC9FE"/>
<path fill-rule="evenodd" clip-rule="evenodd" d="M3.01181 26.5091C3.16781 26.5337 3.32727 26.5491 3.48977 26.5548H4.38963V14.7947C4.38963 14.419 4.08119 14.1143 3.70067 14.1143C3.32016 14.1143 3.01172 14.4189 3.01172 14.7947L3.01181 26.5091Z" fill="#60B7FF"/>
<path fill-rule="evenodd" clip-rule="evenodd" d="M4.55804 40.8542H12.269C12.7428 40.8542 13.1293 40.473 13.1301 40.005L13.1521 26.5566H3.63086L3.6968 40.0079C3.69911 40.4748 4.08515 40.8542 4.55804 40.8542Z" fill="#837683"/>
<path fill-rule="evenodd" clip-rule="evenodd" d="M7.7334 40.8543H9.11131V30.0408C9.11131 29.665 8.80287 29.3604 8.42235 29.3604C8.04183 29.3604 7.7334 29.665 7.7334 30.0408V40.8543Z" fill="#685E68"/>
<path fill-rule="evenodd" clip-rule="evenodd" d="M15.1197 14.2694H20.1182C20.4813 14.2694 20.8117 14.1309 21.0582 13.9044L24.8746 10.9589C25.4734 10.497 25.5797 9.64314 25.112 9.05172C24.6442 8.4603 23.7797 8.35536 23.1809 8.81732L19.651 11.5417H14.2905V15.26L15.1197 14.2694Z" fill="#8AC9FE"/>
<path fill-rule="evenodd" clip-rule="evenodd" d="M8.42526 2.25391C10.4755 2.25391 12.1375 3.40791 12.1375 6.06924C12.1375 8.73057 10.4754 10.888 8.42526 10.888C6.37494 10.888 4.71289 8.73048 4.71289 6.06924C4.71289 3.408 6.37503 2.25391 8.42526 2.25391Z" fill="#F6DCCD"/>
<path fill-rule="evenodd" clip-rule="evenodd" d="M8.42535 2.25391C10.4756 2.25391 12.1376 3.40791 12.1376 6.06924C12.1376 8.73057 10.4755 10.888 8.42535 10.888C8.32906 10.888 8.23358 10.8832 8.13916 10.8739C10.0556 10.6842 11.5652 8.6055 11.5652 6.06924C11.5652 3.53289 10.0556 2.3657 8.13916 2.26164C8.23367 2.25646 8.32906 2.25391 8.42535 2.25391Z" fill="#F1CBBC"/>
<path fill-rule="evenodd" clip-rule="evenodd" d="M34.9374 3.50801C35.4627 3.63149 35.9646 3.83716 36.4243 4.11683L37.3905 3.69302L38.5292 4.81767L38.1002 5.77163C38.3835 6.22585 38.5917 6.72155 38.7167 7.24055L39.7025 7.61531V9.20587L38.7165 9.58064C38.5914 10.0995 38.3832 10.5951 38.1 11.0491L38.5291 12.0034L37.3904 13.1281L36.4245 12.7044C35.9646 12.9841 35.4628 13.1898 34.9373 13.3133L34.5578 14.2868H32.9474L32.5678 13.313C32.0425 13.1895 31.5407 12.9838 31.081 12.7042L30.1148 13.128L28.976 12.0033L29.405 11.0494C29.1217 10.5952 28.9135 10.0994 28.7885 9.58046L27.8027 9.20569V7.61531L28.7886 7.24055C28.9137 6.72164 29.1219 6.22603 29.4052 5.77189L28.9761 4.81775L30.1149 3.69302L31.081 4.11683C31.5408 3.83716 32.0425 3.63149 32.5679 3.50801L32.9475 2.53418H34.5578L34.9374 3.50801Z" fill="#FFE177"/>
<path fill-rule="evenodd" clip-rule="evenodd" d="M31.0813 12.7043L30.1151 13.1281L29.9663 12.9811L30.8722 12.5838C30.941 12.6256 31.0107 12.6658 31.0813 12.7043ZM34.9376 3.50792C35.4629 3.63141 35.9647 3.83707 36.4244 4.11674L36.1498 4.23724C35.69 3.95766 34.9792 3.63149 34.4539 3.50801L34.0743 2.53418H34.5581L34.9376 3.50792ZM36.4248 12.7044C35.9649 12.9841 35.463 13.1898 34.9375 13.3133L34.5581 14.2868H34.0743L34.4538 13.3133C34.9793 13.1898 35.6903 12.8636 36.1501 12.5839L36.4248 12.7044ZM29.9663 3.83979L30.1151 3.69284L31.0813 4.11665C31.0107 4.15515 30.9409 4.19531 30.8721 4.23715L29.9663 3.83979ZM37.0557 3.83979L37.3907 3.69284L38.5294 4.81749L38.1004 5.77145C38.3836 6.22567 38.5919 6.72138 38.7169 7.24037L39.7026 7.61514V9.20569L38.7166 9.58046C38.5916 10.0993 38.3834 10.5949 38.1002 11.0489L38.5293 12.0033L37.3906 13.1279L37.0556 12.9809L38.0456 12.0032L37.6165 11.0488C37.8997 10.5947 38.1079 10.0992 38.233 9.58037L39.219 9.20561V7.61522L38.2332 7.24046C38.1082 6.72147 37.8999 6.22576 37.6167 5.77154L38.0457 4.81758L37.0557 3.83979Z" fill="#FFD064"/>
<path d="M34.4668 11.4095C36.1501 11.0165 37.1921 9.35018 36.7942 7.68768C36.3963 6.02518 34.7092 4.99604 33.0259 5.38902C31.3426 5.78201 30.3006 7.44831 30.6985 9.1108C31.0964 10.7733 32.7835 11.8024 34.4668 11.4095Z" fill="#ECEFF1"/>
<path fill-rule="evenodd" clip-rule="evenodd" d="M33.7529 5.31641C32.0228 5.31641 30.6206 6.70139 30.6206 8.41016C30.6206 10.1189 32.0229 11.5038 33.7529 11.5038C33.8369 11.5038 33.9199 11.5005 34.0021 11.4941C32.3886 11.3686 31.1189 10.036 31.1189 8.41007C31.1189 6.78409 32.3886 5.45149 34.0021 5.32607C33.9199 5.31975 33.8368 5.31641 33.7529 5.31641Z" fill="#D1D1D6"/>
<path fill-rule="evenodd" clip-rule="evenodd" d="M31.9063 8.98706C31.6283 8.71249 31.6283 8.26732 31.9063 7.99284C32.1843 7.71827 32.635 7.71827 32.9129 7.99284L33.2175 8.29369L34.6171 7.03922C34.9074 6.77837 35.3569 6.7992 35.621 7.08589C35.8851 7.37259 35.8641 7.81653 35.5738 8.07739L33.7001 9.75671L33.6962 9.76067C33.4182 10.0352 32.9675 10.0352 32.6894 9.76067L31.9063 8.98706Z" fill="#8AC9FE"/>
<path fill-rule="evenodd" clip-rule="evenodd" d="M24.6152 42.0517H33.1288C33.3613 42.0517 33.5334 41.8437 33.487 41.6187C33.0493 39.497 31.1495 37.9004 28.8721 37.9004C26.5946 37.9004 24.6949 39.497 24.2571 41.6187C24.2107 41.8437 24.3828 42.0517 24.6152 42.0517Z" fill="#8AC9FE"/>
<path fill-rule="evenodd" clip-rule="evenodd" d="M32.2966 42.0517H33.129C33.3614 42.0517 33.5335 41.8437 33.4872 41.6187C33.0494 39.497 31.1497 37.9004 28.8723 37.9004C28.732 37.9004 28.5932 37.9065 28.4561 37.9184C30.5457 38.0991 32.2441 39.6276 32.6548 41.6187C32.7011 41.8437 32.529 42.0517 32.2966 42.0517Z" fill="#60B7FF"/>
<path d="M29.7994 36.8382C31.0146 36.3407 31.5914 34.9644 31.0877 33.7642C30.584 32.564 29.1905 31.9943 27.9753 32.4918C26.76 32.9893 26.1832 34.3656 26.687 35.5658C27.1907 36.766 28.5842 37.3357 29.7994 36.8382Z" fill="#F6DCCD"/>
<path fill-rule="evenodd" clip-rule="evenodd" d="M28.8718 32.3184C30.187 32.3184 31.2531 33.3714 31.2531 34.6703C31.2531 35.9692 30.187 37.0223 28.8718 37.0223C28.7592 37.0223 28.6484 37.0144 28.54 36.9994C29.6981 36.84 30.5896 35.858 30.5896 34.6703C30.5896 33.4826 29.6981 32.5006 28.54 32.3412C28.6484 32.3263 28.7592 32.3184 28.8718 32.3184Z" fill="#F1CBBC"/>
<path fill-rule="evenodd" clip-rule="evenodd" d="M33.8604 42.0517H42.374C42.6064 42.0517 42.7785 41.8437 42.7322 41.6187C42.2944 39.497 40.3947 37.9004 38.1172 37.9004C35.8397 37.9004 33.9399 39.497 33.5022 41.6187C33.4558 41.8437 33.628 42.0517 33.8604 42.0517Z" fill="#8AC9FE"/>
<path fill-rule="evenodd" clip-rule="evenodd" d="M41.5418 42.0517H42.3742C42.6066 42.0517 42.7787 41.8437 42.7324 41.6187C42.2946 39.497 40.3949 37.9004 38.1174 37.9004C37.9771 37.9004 37.8383 37.9065 37.7012 37.9184C39.7909 38.0991 41.4892 39.6276 41.9 41.6187C41.9464 41.8437 41.7743 42.0517 41.5418 42.0517Z" fill="#60B7FF"/>
<path d="M38.1172 37.0213C39.4324 37.0213 40.4985 35.9683 40.4985 34.6693C40.4985 33.3704 39.4324 32.3174 38.1172 32.3174C36.802 32.3174 35.7358 33.3704 35.7358 34.6693C35.7358 35.9683 36.802 37.0213 38.1172 37.0213Z" fill="#F6DCCD"/>
<path fill-rule="evenodd" clip-rule="evenodd" d="M38.1174 32.3174C39.4326 32.3174 40.4987 33.3704 40.4987 34.6693C40.4987 35.9683 39.4326 37.0213 38.1174 37.0213C38.0048 37.0213 37.894 37.0134 37.7856 36.9984C38.9438 36.839 39.8352 35.857 39.8352 34.6693C39.8352 33.4816 38.9438 32.4997 37.7856 32.3402C37.894 32.3253 38.0047 32.3174 38.1174 32.3174Z" fill="#F1CBBC"/>
</svg>
