<svg width="46" height="45" viewBox="0 0 46 45" fill="none" xmlns="http://www.w3.org/2000/svg">
<g clip-path="url(#clip0_10836_1945)">
<path d="M44.6516 2.78493C44.3642 2.49021 43.9693 2.32498 43.5577 2.32717H1.66112C1.24946 2.32498 0.854582 2.49021 0.567155 2.78493C0.272437 3.07236 0.107206 3.46723 0.109397 3.87889V36.4651C0.107206 36.8768 0.272437 37.2716 0.567155 37.5591C0.854582 37.8538 1.24946 38.019 1.66112 38.0168H42.7818C44.0673 38.0168 45.1094 36.9747 45.1094 35.6892V3.87889C45.1116 3.46723 44.9464 3.07236 44.6516 2.78493Z" fill="#F3D55B"/>
<path d="M45.1098 3.87912V35.6895C45.1098 36.3067 44.8642 36.8985 44.427 37.3343L41.2305 34.1377V6.20671L44.652 2.78516C44.9467 3.07258 45.112 3.46746 45.1098 3.87912Z" fill="#F0C419"/>
<path d="M3.98871 6.20671V34.1377L0.567155 37.5593C0.272437 37.2719 0.107206 36.877 0.109397 36.4653V3.87912C0.107206 3.46746 0.272437 3.07258 0.567155 2.78516L3.98871 6.20671Z" fill="#F0C419"/>
<path d="M44.4259 37.3342C43.9901 37.7714 43.3983 38.0171 42.7811 38.017H1.66037C1.24871 38.0192 0.853833 37.854 0.566406 37.5592L3.98796 34.1377H41.2293L44.4259 37.3342Z" fill="#F29C1F"/>
<path d="M3.98828 6.20605H41.2297V34.1371H3.98828V6.20605Z" fill="#ECF0F1"/>
<path d="M41.2297 6.20605C41.2297 6.20605 3.98828 6.20605 3.98828 34.1371V6.20605H41.2297Z" fill="white"/>
<path d="M28.0403 11.6377H17.1782C16.7497 11.6377 16.4023 11.2903 16.4023 10.8618C16.4023 10.4333 16.7497 10.0859 17.1782 10.0859H28.0403C28.4688 10.0859 28.8161 10.4333 28.8161 10.8618C28.8161 11.2903 28.4688 11.6377 28.0403 11.6377Z" fill="#BDC3C7"/>
<path d="M20.2825 28.706H9.42039C8.9919 28.706 8.64453 28.3587 8.64453 27.9302C8.64453 27.5017 8.9919 27.1543 9.42039 27.1543H20.2825C20.711 27.1543 21.0583 27.5017 21.0583 27.9302C21.0583 28.3587 20.711 28.706 20.2825 28.706Z" fill="#95A5A5"/>
<path d="M30.3673 15.5166H14.8501C14.4216 15.5166 14.0742 15.1692 14.0742 14.7407C14.0742 14.3122 14.4216 13.9648 14.8501 13.9648H30.3673C30.7958 13.9648 31.1432 14.3122 31.1432 14.7407C31.1432 15.1692 30.7958 15.5166 30.3673 15.5166Z" fill="#BDC3C7"/>
<path d="M27.2656 31.3447L27.2656 41.4154C27.2638 41.6857 27.4027 41.9375 27.6323 42.08C27.862 42.2226 28.1493 42.2353 28.3906 42.1137L30.4079 41.0973C30.628 40.9887 30.8861 40.9887 31.1062 41.0973L33.1234 42.1137C33.3648 42.2353 33.6521 42.2226 33.8817 42.08C34.1114 41.9375 34.2503 41.6857 34.2484 41.4154L34.2484 31.3447H27.2656Z" fill="#FF5364"/>
<path d="M20.2825 25.6029C18.3827 25.6029 16.515 25.1128 14.86 24.1799C13.2022 25.1212 11.3267 25.6118 9.42039 25.6029C8.9919 25.6029 8.64453 25.2555 8.64453 24.827C8.64453 24.3985 8.9919 24.0512 9.42039 24.0512C10.8111 24.0573 12.1858 23.755 13.4456 23.1659C12.6403 22.5486 12.1253 21.6265 12.0219 20.6172C12.0219 20.1517 12.2259 18.6201 14.8514 18.6201C17.4769 18.6201 17.681 20.1486 17.681 20.6172C17.5781 21.6278 17.0634 22.5514 16.2581 23.1705C17.5183 23.757 18.8925 24.0577 20.2825 24.0512C20.711 24.0512 21.0583 24.3985 21.0583 24.827C21.0583 25.2555 20.711 25.6029 20.2825 25.6029ZM14.8514 20.1718C14.2618 20.1718 13.5736 20.2882 13.5736 20.6172C13.5736 20.9462 13.9219 21.6087 14.8452 22.3194C15.6707 21.6879 16.1293 21.0276 16.1293 20.6172C16.1293 20.2882 15.4411 20.1718 14.8514 20.1718Z" fill="#95A5A5"/>
<path d="M38.1242 25.9908C38.1242 26.8854 36.4538 27.4401 36.131 28.2183C35.7966 29.0244 36.5725 30.5955 35.965 31.203C35.3575 31.8105 33.7863 31.0347 32.981 31.3683C32.2028 31.6911 31.6481 33.3615 30.7535 33.3615C29.8589 33.3615 29.3042 31.6911 28.526 31.3683C27.7199 31.0339 26.1488 31.8098 25.5413 31.2023C24.9338 30.5948 25.7096 29.0237 25.376 28.2183C25.0532 27.4401 23.3828 26.8854 23.3828 25.9908C23.3828 25.0962 25.0532 24.5415 25.376 23.7633C25.7104 22.9572 24.9345 21.3861 25.542 20.7786C26.1495 20.1711 27.7207 20.9469 28.526 20.6133C29.3019 20.2905 29.8589 18.6201 30.7535 18.6201C31.6481 18.6201 32.2028 20.2905 32.981 20.6133C33.7871 20.9477 35.3582 20.1718 35.9657 20.7793C36.5732 21.3868 35.7974 22.958 36.131 23.7633C36.4538 24.5415 38.1242 25.0962 38.1242 25.9908Z" fill="#FB7B76"/>
<path d="M30.7546 28.7064C32.2543 28.7064 33.4701 27.4906 33.4701 25.9909C33.4701 24.4912 32.2543 23.2754 30.7546 23.2754C29.2548 23.2754 28.0391 24.4912 28.0391 25.9909C28.0391 27.4906 29.2548 28.7064 30.7546 28.7064Z" fill="#DF4D60"/>
</g>
<defs>
<clipPath id="clip0_10836_1945">
<rect width="45" height="45" fill="white" transform="translate(0.109375)"/>
</clipPath>
</defs>
</svg>
