<svg width="47" height="45" viewBox="0 0 47 45" fill="none" xmlns="http://www.w3.org/2000/svg">
<path fill-rule="evenodd" clip-rule="evenodd" d="M17.4829 43.0517H25.9965C26.229 43.0517 26.4011 42.8437 26.3547 42.6187C25.917 40.497 24.0172 38.9004 21.7397 38.9004C19.4622 38.9004 17.5625 40.497 17.1248 42.6187C17.0783 42.8437 17.2505 43.0517 17.4829 43.0517Z" fill="#8AC9FE"/>
<path fill-rule="evenodd" clip-rule="evenodd" d="M25.1648 43.0517H25.9972C26.2297 43.0517 26.4018 42.8437 26.3554 42.6187C25.9177 40.497 24.0179 38.9004 21.7404 38.9004C21.6002 38.9004 21.4614 38.9065 21.3242 38.9184C23.4139 39.0991 25.1122 40.6276 25.523 42.6187C25.5694 42.8437 25.3973 43.0517 25.1648 43.0517Z" fill="#60B7FF"/>
<path d="M21.7407 38.0213C23.0559 38.0213 24.1221 36.9683 24.1221 35.6693C24.1221 34.3704 23.0559 33.3174 21.7407 33.3174C20.4255 33.3174 19.3594 34.3704 19.3594 35.6693C19.3594 36.9683 20.4255 38.0213 21.7407 38.0213Z" fill="#F6DCCD"/>
<path fill-rule="evenodd" clip-rule="evenodd" d="M21.738 33.3174C23.0532 33.3174 24.1194 34.3704 24.1194 35.6693C24.1194 36.9683 23.0532 38.0213 21.738 38.0213C21.6254 38.0213 21.5146 38.0134 21.4062 37.9984C22.5644 37.839 23.4559 36.857 23.4559 35.6693C23.4559 34.4816 22.5644 33.4997 21.4062 33.3402C21.5146 33.3253 21.6253 33.3174 21.738 33.3174Z" fill="#F1CBBC"/>
<path fill-rule="evenodd" clip-rule="evenodd" d="M18.8399 4.53556C18.8399 3.1119 20.0191 1.94727 21.4608 1.94727H42.2329C43.6743 1.94727 44.8535 3.11243 44.8535 4.53556V20.0787C44.8535 21.5019 43.6737 22.667 42.2328 22.667H21.4607C20.0201 22.667 18.8398 21.5024 18.8398 20.0787L18.8399 4.53556Z" fill="#ECEFF1"/>
<path fill-rule="evenodd" clip-rule="evenodd" d="M41.3438 1.94727H42.2336C43.6751 1.94727 44.8543 3.11243 44.8543 4.53556V20.0787C44.8543 21.5019 43.6746 22.667 42.2336 22.667H41.3438C42.7847 22.667 43.9644 21.5019 43.9644 20.0787V4.53556C43.9643 3.11243 42.7851 1.94727 41.3438 1.94727Z" fill="#D1D1D6"/>
<path fill-rule="evenodd" clip-rule="evenodd" d="M23.3838 20.2882C22.9906 20.2882 22.6719 19.9734 22.6719 19.585C22.6719 19.1967 22.9906 18.8819 23.3838 18.8819H41.4887C41.8819 18.8819 42.2007 19.1967 42.2007 19.585C42.2007 19.9734 41.8819 20.2882 41.4887 20.2882H23.3838ZM23.3838 17.6514C22.9906 17.6514 22.6719 17.3365 22.6719 16.9482C22.6719 16.5599 22.9906 16.2451 23.3838 16.2451H36.9587C37.3518 16.2451 37.6706 16.5599 37.6706 16.9482C37.6706 17.3365 37.3518 17.6514 36.9587 17.6514H23.3838Z" fill="#A79BA7"/>
<path fill-rule="evenodd" clip-rule="evenodd" d="M6.66978 41.8543H14.3808C14.8546 41.8542 15.2411 41.473 15.2419 41.0051L15.2802 17.5547L17.2604 15.1893H22.2588C22.622 15.1893 22.9524 15.0508 23.1989 14.8243L27.0153 11.8789C27.614 11.4169 27.7204 10.5631 27.2526 9.97164C26.7849 9.38023 25.9204 9.27528 25.3216 9.73724L21.7916 12.4616H6.46422C4.5594 12.4616 2.19033 13.6686 2.17948 15.7985L2.13676 24.2203C2.12733 26.0551 3.72789 27.5567 5.74261 27.5567L5.80855 41.0079C5.81086 41.4749 6.1969 41.8543 6.66978 41.8543Z" fill="#8AC9FE"/>
<path fill-rule="evenodd" clip-rule="evenodd" d="M5.12509 27.5091C5.28109 27.5337 5.44056 27.5491 5.60305 27.5548H6.50291V15.7947C6.50291 15.419 6.19447 15.1143 5.81395 15.1143C5.43344 15.1143 5.125 15.4189 5.125 15.7947L5.12509 27.5091Z" fill="#60B7FF"/>
<path fill-rule="evenodd" clip-rule="evenodd" d="M6.66937 41.8542H14.3804C14.8542 41.8542 15.2406 41.473 15.2414 41.005L15.2634 27.5566H5.74219L5.80813 41.0079C5.81044 41.4748 6.19648 41.8542 6.66937 41.8542Z" fill="#837683"/>
<path fill-rule="evenodd" clip-rule="evenodd" d="M9.84375 41.8543H11.2217V31.0408C11.2217 30.665 10.9132 30.3604 10.5327 30.3604C10.1522 30.3604 9.84375 30.665 9.84375 31.0408V41.8543Z" fill="#685E68"/>
<path fill-rule="evenodd" clip-rule="evenodd" d="M17.2315 15.2694H22.23C22.5931 15.2694 22.9236 15.1309 23.1701 14.9044L26.9865 11.9589C27.5853 11.497 27.6915 10.6431 27.2238 10.0517C26.7561 9.4603 25.8915 9.35536 25.2927 9.81732L21.7628 12.5417H16.4023V16.26L17.2315 15.2694Z" fill="#8AC9FE"/>
<path fill-rule="evenodd" clip-rule="evenodd" d="M10.5366 3.25391C12.5868 3.25391 14.2489 4.40791 14.2489 7.06924C14.2489 9.73057 12.5867 11.888 10.5366 11.888C8.48627 11.888 6.82422 9.73048 6.82422 7.06924C6.82422 4.408 8.48636 3.25391 10.5366 3.25391Z" fill="#F6DCCD"/>
<path fill-rule="evenodd" clip-rule="evenodd" d="M10.5362 3.25391C12.5864 3.25391 14.2485 4.40791 14.2485 7.06924C14.2485 9.73057 12.5863 11.888 10.5362 11.888C10.4399 11.888 10.3444 11.8832 10.25 11.8739C12.1665 11.6842 13.6761 9.6055 13.6761 7.06924C13.6761 4.53289 12.1665 3.3657 10.25 3.26164C10.3445 3.25646 10.4399 3.25391 10.5362 3.25391Z" fill="#F1CBBC"/>
<path fill-rule="evenodd" clip-rule="evenodd" d="M37.0488 4.50801C37.5741 4.63149 38.0759 4.83716 38.5356 5.11683L39.5019 4.69302L40.6406 5.81767L40.2115 6.77163C40.4948 7.22585 40.703 7.72155 40.8281 8.24055L41.8138 8.61531V10.2059L40.8278 10.5806C40.7028 11.0995 40.4945 11.5951 40.2114 12.0491L40.6405 13.0034L39.5018 14.1281L38.5359 13.7044C38.076 13.9841 37.5741 14.1898 37.0486 14.3133L36.6691 15.2868H35.0587L34.6792 14.313C34.1539 14.1895 33.6521 13.9838 33.1923 13.7042L32.2261 14.128L31.0873 13.0033L31.5163 12.0494C31.2331 11.5952 31.0248 11.0994 30.8998 10.5805L29.9141 10.2057V8.61531L30.9 8.24055C31.025 7.72164 31.2332 7.22603 31.5165 6.77189L31.0874 5.81775L32.2262 4.69302L33.1923 5.11683C33.6521 4.83716 34.1539 4.63149 34.6793 4.50801L35.0588 3.53418H36.6691L37.0488 4.50801Z" fill="#FFE177"/>
<path fill-rule="evenodd" clip-rule="evenodd" d="M33.1932 13.7043L32.2269 14.1281L32.0781 13.9811L32.984 13.5838C33.0528 13.6256 33.1225 13.6658 33.1932 13.7043ZM37.0494 4.50792C37.5747 4.63141 38.0765 4.83707 38.5363 5.11674L38.2616 5.23724C37.8018 4.95766 37.091 4.63149 36.5657 4.50801L36.1861 3.53418H36.6699L37.0494 4.50792ZM38.5366 13.7044C38.0767 13.9841 37.5748 14.1898 37.0493 14.3133L36.6699 15.2868H36.1861L36.5656 14.3133C37.0911 14.1898 37.8021 13.8636 38.2619 13.5839L38.5366 13.7044ZM32.0781 4.83979L32.2269 4.69284L33.1931 5.11665C33.1225 5.15515 33.0527 5.19531 32.9839 5.23715L32.0781 4.83979ZM39.1675 4.83979L39.5025 4.69284L40.6412 5.81749L40.2122 6.77145C40.4954 7.22567 40.7037 7.72138 40.8287 8.24037L41.8144 8.61514V10.2057L40.8284 10.5805C40.7034 11.0993 40.4952 11.5949 40.212 12.0489L40.6411 13.0033L39.5024 14.1279L39.1675 13.9809L40.1575 13.0032L39.7284 12.0488C40.0115 11.5947 40.2198 11.0992 40.3448 10.5804L41.3308 10.2056V8.61522L40.345 8.24046C40.22 7.72147 40.0117 7.22576 39.7285 6.77154L40.1575 5.81758L39.1675 4.83979Z" fill="#FFD064"/>
<path d="M36.5786 12.4095C38.2619 12.0165 39.3039 10.3502 38.906 8.68768C38.5081 7.02518 36.821 5.99604 35.1377 6.38902C33.4544 6.78201 32.4124 8.44831 32.8103 10.1108C33.2082 11.7733 34.8953 12.8024 36.5786 12.4095Z" fill="#ECEFF1"/>
<path fill-rule="evenodd" clip-rule="evenodd" d="M35.8667 6.31641C34.1366 6.31641 32.7344 7.70139 32.7344 9.41016C32.7344 11.1189 34.1367 12.5038 35.8667 12.5038C35.9506 12.5038 36.0337 12.5005 36.1159 12.4941C34.5023 12.3686 33.2326 11.036 33.2326 9.41007C33.2326 7.78409 34.5023 6.45149 36.1159 6.32607C36.0337 6.31975 35.9505 6.31641 35.8667 6.31641Z" fill="#D1D1D6"/>
<path fill-rule="evenodd" clip-rule="evenodd" d="M34.0171 9.98706C33.7391 9.71249 33.7391 9.26732 34.0171 8.99284C34.2951 8.71827 34.7458 8.71827 35.0237 8.99284L35.3284 9.29369L36.728 8.03922C37.0183 7.77837 37.4677 7.7992 37.7319 8.08589C37.996 8.37259 37.9749 8.81653 37.6846 9.07739L35.8109 10.7567L35.807 10.7607C35.529 11.0352 35.0783 11.0352 34.8003 10.7607L34.0171 9.98706Z" fill="#8AC9FE"/>
<path fill-rule="evenodd" clip-rule="evenodd" d="M26.7251 43.0517H35.2387C35.4711 43.0517 35.6432 42.8437 35.5969 42.6187C35.1591 40.497 33.2594 38.9004 30.982 38.9004C28.7045 38.9004 26.8047 40.497 26.367 42.6187C26.3205 42.8437 26.4926 43.0517 26.7251 43.0517Z" fill="#8AC9FE"/>
<path fill-rule="evenodd" clip-rule="evenodd" d="M34.4069 43.0517H35.2393C35.4718 43.0517 35.6439 42.8437 35.5975 42.6187C35.1598 40.497 33.26 38.9004 30.9826 38.9004C30.8424 38.9004 30.7035 38.9065 30.5664 38.9184C32.6561 39.0991 34.3544 40.6276 34.7652 42.6187C34.8115 42.8437 34.6394 43.0517 34.4069 43.0517Z" fill="#60B7FF"/>
<path d="M31.9073 37.8382C33.1225 37.3407 33.6993 35.9644 33.1956 34.7642C32.6919 33.564 31.2984 32.9943 30.0832 33.4918C28.868 33.9893 28.2912 35.3656 28.7949 36.5658C29.2986 37.766 30.6921 38.3357 31.9073 37.8382Z" fill="#F6DCCD"/>
<path fill-rule="evenodd" clip-rule="evenodd" d="M30.9802 33.3184C32.2954 33.3184 33.3615 34.3714 33.3615 35.6703C33.3615 36.9692 32.2954 38.0223 30.9802 38.0223C30.8676 38.0223 30.7568 38.0144 30.6484 37.9994C31.8065 37.84 32.698 36.858 32.698 35.6703C32.698 34.4826 31.8065 33.5006 30.6484 33.3412C30.7568 33.3263 30.8676 33.3184 30.9802 33.3184Z" fill="#F1CBBC"/>
<path fill-rule="evenodd" clip-rule="evenodd" d="M35.9751 43.0517H44.4887C44.7212 43.0517 44.8933 42.8437 44.8469 42.6187C44.4092 40.497 42.5094 38.9004 40.2319 38.9004C37.9544 38.9004 36.0547 40.497 35.617 42.6187C35.5706 42.8437 35.7427 43.0517 35.9751 43.0517Z" fill="#8AC9FE"/>
<path fill-rule="evenodd" clip-rule="evenodd" d="M43.657 43.0517H44.4894C44.7218 43.0517 44.894 42.8437 44.8476 42.6187C44.4099 40.497 42.5101 38.9004 40.2326 38.9004C40.0924 38.9004 39.9535 38.9065 39.8164 38.9184C41.9061 39.0991 43.6044 40.6276 44.0152 42.6187C44.0616 42.8437 43.8895 43.0517 43.657 43.0517Z" fill="#60B7FF"/>
<path d="M40.2329 38.0213C41.5481 38.0213 42.6143 36.9683 42.6143 35.6693C42.6143 34.3704 41.5481 33.3174 40.2329 33.3174C38.9177 33.3174 37.8516 34.3704 37.8516 35.6693C37.8516 36.9683 38.9177 38.0213 40.2329 38.0213Z" fill="#F6DCCD"/>
<path fill-rule="evenodd" clip-rule="evenodd" d="M40.2302 33.3174C41.5454 33.3174 42.6115 34.3704 42.6115 35.6693C42.6115 36.9683 41.5454 38.0213 40.2302 38.0213C40.1176 38.0213 40.0068 38.0134 39.8984 37.9984C41.0565 37.839 41.948 36.857 41.948 35.6693C41.948 34.4816 41.0565 33.4997 39.8984 33.3402C40.0068 33.3253 40.1175 33.3174 40.2302 33.3174Z" fill="#F1CBBC"/>
</svg>
