<svg width="47" height="45" viewBox="0 0 47 45" fill="none" xmlns="http://www.w3.org/2000/svg">
<g clip-path="url(#clip0_10836_1893)">
<g clip-path="url(#clip1_10836_1893)">
<path d="M43.2084 16.9248C43.682 16.9248 44.0658 17.3039 44.0658 17.7716V41.4975C44.0658 43.4318 42.4781 45 40.5195 45H6.46816C4.50961 45 2.92188 43.4318 2.92188 41.4975V17.7716C2.92188 17.3039 3.30573 16.9248 3.77927 16.9248H43.2084Z" fill="#B3E5EE"/>
<path d="M5.51953 16.9248V40.8638C5.51953 42.4483 6.82422 43.7372 8.42802 43.7372H38.6477C40.2514 43.7372 41.5562 42.4482 41.5562 40.8638V16.9248H5.51953Z" fill="#86D7E5"/>
<path d="M38.9947 15.2139H8.08833C7.6853 15.2139 7.35938 15.5367 7.35938 15.9347V37.5943L17.3191 41.1873L23.5415 41.8941L38.4551 39.2352L39.7237 37.5943V15.9347C39.7237 15.5367 39.3978 15.2139 38.9947 15.2139Z" fill="#F9F7F7"/>
<path d="M22.8516 15.2139H24.2287V41.924H22.8516V15.2139Z" fill="#F8F3F2"/>
<path d="M15.043 15.2139L19.0815 21.4235V21.9052C19.0815 22.7029 19.4839 23.4091 20.0984 23.8375V24.595C20.0984 26.1801 21.4041 27.4697 23.009 27.4697H24.0743C25.6792 27.4697 26.9849 26.1801 26.9849 24.595V23.8375C27.5994 23.4091 28.0018 22.7029 28.0018 21.9052V21.4235L32.0404 15.2139H15.043Z" fill="#F8F3F2"/>
<path d="M11.1816 38.3584V15.2139H8.08833C7.6853 15.2139 7.35938 15.5367 7.35938 15.9347V37.5943L11.3057 39.0179C11.2268 38.8127 11.1816 38.591 11.1816 38.3584Z" fill="#F8F3F2"/>
<path d="M23.5415 41.8945V41.9245H8.4317C7.83953 41.9245 7.35938 41.4502 7.35938 40.8645V37.5947H19.188C21.5924 37.5947 23.5415 39.5198 23.5415 41.8945Z" fill="#F2EAE7"/>
<path d="M39.7212 37.5947V40.8645C39.7212 41.4502 39.2411 41.9245 38.6489 41.9245H23.5391V41.8945C23.5391 39.5198 25.4882 37.5947 27.8926 37.5947H39.7212Z" fill="#F2EAE7"/>
<path d="M25.6087 21.8213H21.4766V24.5949C21.4766 25.4312 22.1631 26.1093 23.0099 26.1093H24.0753C24.9222 26.1093 25.6087 25.4312 25.6087 24.5949V21.8213Z" fill="#A59CA6"/>
<path d="M25.6087 21.8213H22.6586H22.3094H21.4766V24.5949C21.4766 25.4312 22.1631 26.1093 23.0099 26.1093H24.0753C24.6687 26.1093 25.1825 25.7757 25.4374 25.2885C25.3782 25.2953 25.3184 25.2999 25.2573 25.2999H24.192C23.5183 25.2999 22.9468 24.8705 22.7413 24.2738C22.664 24.0494 22.8325 23.816 23.0726 23.816H25.6088V21.8213H25.6087Z" fill="#8F8390"/>
<path d="M32.6973 9.0442C32.6973 4.04918 28.5974 0 23.5401 0C18.4827 0 14.3828 4.04918 14.3828 9.0442C14.3828 10.982 15.0001 12.7772 16.0508 14.2491L20.4571 21.0242V21.9052C20.4571 22.4598 20.9124 22.9095 21.474 22.9095H25.6061C26.1677 22.9095 26.623 22.4598 26.623 21.9052V21.0242L31.0293 14.2491C32.0799 12.7772 32.6973 10.982 32.6973 9.0442Z" fill="#FBE88C"/>
<path d="M19.9124 15.4031C18.8139 13.8121 18.1685 11.8714 18.1685 9.77667C18.1685 5.11661 21.3608 1.2184 25.6346 0.238022C24.9616 0.0823329 24.261 0 23.5401 0C18.4827 0 14.3828 4.04918 14.3828 9.0442C14.3828 10.982 15.0001 12.7772 16.0508 14.2491L20.4571 21.0242V21.9052C20.4571 22.4598 20.9124 22.9095 21.474 22.9095H24.091L19.9124 15.4031Z" fill="#FBE372"/>
<path d="M24.1466 22.9092H25.524L26.0032 14.8776H26.7876C27.9101 14.8776 28.8232 13.9758 28.8232 12.8673V12.7848C28.8232 11.6763 27.9101 10.7744 26.7876 10.7744C25.7116 10.7744 24.819 11.6055 24.7556 12.6665L24.7049 13.5175H22.2902L22.2394 12.6665C22.1762 11.6055 21.2835 10.7744 20.2075 10.7744C19.085 10.7744 18.1719 11.6763 18.1719 12.7848V12.8673C18.1719 13.9758 19.085 14.8776 20.2075 14.8776H20.9919L21.471 22.9089C21.4731 22.9089 21.4752 22.9092 21.4773 22.9092H22.8485C22.8485 22.8958 22.3714 14.8776 22.3714 14.8776H24.6237C24.6238 14.8775 24.1467 22.8958 24.1466 22.9092ZM26.1304 12.7465C26.1509 12.4033 26.4396 12.1344 26.7876 12.1344C27.1507 12.1344 27.4461 12.4261 27.4461 12.7847V12.8672C27.4461 13.2257 27.1507 13.5174 26.7876 13.5174H26.0844L26.1304 12.7465ZM20.2075 13.5174C19.8444 13.5174 19.5491 13.2257 19.5491 12.8672V12.7847C19.5491 12.4261 19.8444 12.1344 20.2075 12.1344C20.5557 12.1344 20.8443 12.4033 20.8648 12.7465L20.9108 13.5174H20.2075Z" fill="#F9DE58"/>
<path d="M35.6029 4.48421C35.4117 4.48421 35.2214 4.40596 35.0852 4.25281C34.8343 3.97062 34.8626 3.54083 35.1484 3.2931L36.6507 1.99028C36.9365 1.74256 37.3716 1.7704 37.6224 2.05267C37.8733 2.33485 37.8451 2.76465 37.5593 3.01237L36.0569 4.31519C35.9263 4.42853 35.7642 4.48421 35.6029 4.48421Z" fill="#FBE88C"/>
<path d="M37.1047 10.0576C36.9434 10.0576 36.7815 10.002 36.6506 9.88857L35.1483 8.58566C34.8626 8.33784 34.8343 7.90813 35.0852 7.62595C35.3361 7.34377 35.7712 7.31566 36.0569 7.56357L37.5593 8.86648C37.845 9.11429 37.8733 9.544 37.6223 9.82618C37.4863 9.97933 37.296 10.0576 37.1047 10.0576Z" fill="#FBE88C"/>
<path d="M11.4797 4.48425C11.3184 4.48425 11.1564 4.42867 11.0257 4.31523L9.52333 3.01241C9.23753 2.76469 9.20935 2.33489 9.46017 2.05271C9.71099 1.77053 10.1462 1.74242 10.4319 1.99033L11.9342 3.29314C12.22 3.54087 12.2482 3.97067 11.9974 4.25285C11.8613 4.406 11.671 4.48425 11.4797 4.48425Z" fill="#FBE88C"/>
<path d="M9.97792 10.0575C9.78669 10.0575 9.59637 9.97929 9.46021 9.82614C9.2093 9.54396 9.23758 9.11425 9.52329 8.86643L11.0256 7.56353C11.3114 7.3158 11.7465 7.34364 11.9973 7.62591C12.2483 7.90809 12.22 8.3378 11.9343 8.58561L10.4319 9.88852C10.3013 10.0019 10.1392 10.0575 9.97792 10.0575Z" fill="#FBE88C"/>
<path d="M16.7603 23.5896H9.97763C9.59736 23.5896 9.28906 23.2852 9.28906 22.9096C9.28906 22.5339 9.59736 22.2295 9.97763 22.2295H16.7603C17.1406 22.2295 17.4489 22.5339 17.4489 22.9096C17.4489 23.2852 17.1406 23.5896 16.7603 23.5896Z" fill="#F2EAE7"/>
<path d="M18.8563 27.0486H11.2198C10.8395 27.0486 10.5312 26.7442 10.5312 26.3685C10.5312 25.9929 10.8395 25.6885 11.2198 25.6885H18.8563C19.2366 25.6885 19.5449 25.9929 19.5449 26.3685C19.5449 26.7442 19.2366 27.0486 18.8563 27.0486Z" fill="#F2EAE7"/>
<path d="M18.8563 30.3621H11.2198C10.8395 30.3621 10.5312 30.0577 10.5312 29.682C10.5312 29.3063 10.8395 29.002 11.2198 29.002H18.8563C19.2366 29.002 19.5449 29.3063 19.5449 29.682C19.5449 30.0577 19.2366 30.3621 18.8563 30.3621Z" fill="#F2EAE7"/>
<path d="M18.8563 33.6756H11.2198C10.8395 33.6756 10.5312 33.3712 10.5312 32.9955C10.5312 32.6198 10.8395 32.3154 11.2198 32.3154H18.8563C19.2366 32.3154 19.5449 32.6198 19.5449 32.9955C19.5449 33.3712 19.2366 33.6756 18.8563 33.6756Z" fill="#F2EAE7"/>
<path d="M37.1041 23.5896H30.3214C29.9411 23.5896 29.6328 23.2852 29.6328 22.9096C29.6328 22.5339 29.9411 22.2295 30.3214 22.2295H37.1041C37.4844 22.2295 37.7927 22.5339 37.7927 22.9096C37.7927 23.2852 37.4844 23.5896 37.1041 23.5896Z" fill="#F2EAE7"/>
<path d="M35.8603 27.0486H28.2237C27.8434 27.0486 27.5352 26.7442 27.5352 26.3685C27.5352 25.9929 27.8434 25.6885 28.2237 25.6885H35.8603C36.2405 25.6885 36.5488 25.9929 36.5488 26.3685C36.5488 26.7442 36.2406 27.0486 35.8603 27.0486Z" fill="#F2EAE7"/>
<path d="M35.8603 30.3621H28.2237C27.8434 30.3621 27.5352 30.0577 27.5352 29.682C27.5352 29.3063 27.8434 29.002 28.2237 29.002H35.8603C36.2405 29.002 36.5488 29.3063 36.5488 29.682C36.5488 30.0577 36.2406 30.3621 35.8603 30.3621Z" fill="#F2EAE7"/>
<path d="M35.8603 33.6756H28.2237C27.8434 33.6756 27.5352 33.3712 27.5352 32.9955C27.5352 32.6198 27.8434 32.3154 28.2237 32.3154H35.8603C36.2405 32.3154 36.5488 32.6198 36.5488 32.9955C36.5488 33.3712 36.2406 33.6756 35.8603 33.6756Z" fill="#F2EAE7"/>
<path d="M23.882 40.2178C23.6613 40.7326 23.5391 41.2988 23.5391 41.8932V41.9231H38.6489C39.2411 41.9231 39.7212 41.4489 39.7212 40.8631V40.2179H23.882V40.2178Z" fill="#EDE2DD"/>
<path d="M13.0652 40.2182C12.0249 40.2182 11.1816 39.3853 11.1816 38.3579V37.5938H7.35938V40.8635C7.35938 41.4493 7.83953 41.9235 8.4317 41.9235H23.5415V41.8936C23.5415 41.2992 23.4194 40.7331 23.1986 40.2182H13.0652Z" fill="#EDE2DD"/>
</g>
</g>
<defs>
<clipPath id="clip0_10836_1893">
<rect width="45.5625" height="45" fill="white" transform="translate(0.710938)"/>
</clipPath>
<clipPath id="clip1_10836_1893">
<rect width="45.5625" height="45" fill="white" transform="translate(0.710938)"/>
</clipPath>
</defs>
</svg>
