<svg width="22" height="23" viewBox="0 0 22 23" fill="none" xmlns="http://www.w3.org/2000/svg">
<g clip-path="url(#clip0_9159_6952)">
<path d="M15.0527 7.34937L14.802 8.02361H15.5213H19.6916C19.774 8.02361 19.8354 8.08509 19.8354 8.16744V21.8635C19.8354 21.9458 19.774 22.0073 19.6916 22.0073H4.15918C2.95012 22.0073 1.9668 21.024 1.9668 19.8149V10.216C1.9668 9.00694 2.95012 8.02361 4.15918 8.02361H5.73949H6.44719L6.21077 7.35658C6.02101 6.8212 5.91026 6.27815 5.91026 5.72381C5.91026 3.11643 8.0212 1 10.6268 1C13.2332 1 15.3506 3.11735 15.3506 5.72381C15.3506 6.28264 15.2454 6.83101 15.0527 7.34937ZM14.1386 8.02361H14.444L14.5834 7.75189C14.9056 7.12395 15.0702 6.43096 15.0702 5.72381C15.0702 3.28148 13.0872 1.29958 10.656 1.28772V1.28766H10.6341V1.28772C8.19449 1.29959 6.21987 3.28995 6.21987 5.72381C6.21987 6.43096 6.38445 7.12395 6.70668 7.75189L6.84612 8.02361H7.15153H8.85622H9.324L9.35511 7.55687C9.35742 7.5223 9.36131 7.49894 9.36547 7.48311C9.36766 7.47473 9.36962 7.46968 9.3708 7.46703C9.42119 7.39996 9.50751 7.38862 9.56892 7.42906L9.5689 7.42909L9.57408 7.43241C9.7294 7.53197 9.88094 7.61802 10.0721 7.66462C10.2485 7.70759 10.4306 7.70901 10.6194 7.70901C10.9486 7.70901 11.207 7.57439 11.3824 7.38595C11.5452 7.211 11.6252 7.00367 11.6535 6.84107L11.6536 6.84036C11.688 6.64051 11.6673 6.41821 11.5395 6.21775C11.416 6.02403 11.2311 5.91159 11.055 5.84699L11.055 5.84692L11.0471 5.84418C10.54 5.66779 10.0942 5.48535 9.79399 5.24991L9.79338 5.24943C9.55699 5.06461 9.42122 4.72058 9.49406 4.33036L9.49427 4.32919C9.56459 3.94749 9.81775 3.65403 10.1601 3.51808L10.4756 3.39282V3.05338V2.98021C10.4756 2.89786 10.5371 2.83638 10.6194 2.83638C10.7018 2.83638 10.7633 2.89786 10.7633 2.98021V3.00216V3.3708L11.1154 3.4798C11.3595 3.55536 11.524 3.66623 11.5931 3.73148L11.5985 3.73666L11.6042 3.74168C11.6497 3.78215 11.6647 3.86881 11.6067 3.93475C11.5466 3.99604 11.4611 3.99502 11.4052 3.94538L11.3955 3.93676L11.3854 3.92865C11.2875 3.85033 10.8923 3.57673 10.3122 3.75094C9.96365 3.84893 9.83096 4.14913 9.79313 4.29012C9.76464 4.39233 9.75516 4.49121 9.75981 4.57949C9.76214 4.62375 9.76844 4.6735 9.78201 4.72464L9.78241 4.72618C9.78968 4.7537 9.82074 4.87132 9.92202 4.9726L9.94527 4.99585L9.97136 5.01586C10.131 5.13826 10.3433 5.24372 10.5351 5.32766C10.7343 5.41488 10.9476 5.49427 11.1329 5.55861C11.7225 5.77225 12.023 6.28897 11.9265 6.87526C11.8995 7.02455 11.8522 7.15604 11.7821 7.28547L11.3822 8.02361H12.2217H14.1386ZM4.61528 8.81127V8.2965L4.10073 8.31148C3.08008 8.34121 2.25446 9.17404 2.25446 10.2087V19.8076C2.25446 20.8423 3.08008 21.6751 4.10073 21.7048L4.61528 21.7198V21.205V8.81127ZM5.40295 8.31127H4.90295V8.81127V20.705V21.205V21.2123H5.40295V21.705H19.0478H19.5478V21.205V18.1541V17.6541H19.0478H14.6214C14.0473 17.6541 13.5777 17.1887 13.5777 16.6104V13.4059C13.5777 12.8318 14.0431 12.3622 14.6214 12.3622H19.0478H19.5478V11.8622V8.81127V8.31127H19.0478H5.40295ZM19.0405 17.3738H19.5405V16.8738V13.1571V12.6571H19.0405H14.6141C14.199 12.6571 13.8581 12.9981 13.8581 13.4132V16.6177C13.8581 17.0329 14.199 17.3738 14.6141 17.3738H19.0405Z" fill="#E50914" stroke="#E50914"/>
<path d="M16.1549 15.0091C16.1549 15.0914 16.0934 15.1529 16.011 15.1529C15.9287 15.1529 15.8672 15.0914 15.8672 15.0091C15.8672 14.9267 15.9287 14.8652 16.011 14.8652C16.0934 14.8652 16.1549 14.9267 16.1549 15.0091Z" fill="#E50914" stroke="#E50914"/>
</g>
<defs>
<clipPath id="clip0_9159_6952">
<rect width="22" height="22" fill="white" transform="translate(0 0.5)"/>
</clipPath>
</defs>
</svg>
