<svg width="22" height="23" viewBox="0 0 22 23" fill="none" xmlns="http://www.w3.org/2000/svg">
<g clip-path="url(#clip0_9159_6945)">
<path d="M15.2083 21.1396L15.9761 20.6277L16.1125 20.5368L16.1686 20.3827L16.5899 19.2254L17.7041 18.7083L17.8582 18.6368L17.9368 18.4863L19.1708 16.1242L19.3913 15.7022L18.9805 15.4614L17.1362 14.38L16.1981 13.3181L16.0715 13.1747L15.8815 13.1525L15.3314 13.0881L14.1944 12.7857L14.17 12.7792L14.1451 12.7752L13.1355 12.6132L13.0262 12.5956L12.9198 12.6258L12.3413 12.79L12.0075 12.4178L11.9115 12.3108L11.7734 12.2711L11.6138 12.2252L11.6347 11.8369H12.1027H12.4965L12.5888 11.4541L12.7297 10.8695L13.9037 9.46177L15.5001 8.65541L16.4008 8.77266L16.8727 8.83409L16.9574 8.36576L17.0508 7.84848L17.097 7.59323L16.9149 7.40852L15.6622 6.13799L15.2055 5.21866L15.1973 5.2023L15.3041 5.14592L15.3264 5.2192L15.3669 5.35187L15.4699 5.44476L16.8659 6.70368L16.9475 6.77731L17.0525 6.80989L17.414 6.92208L17.7828 7.03653L17.9868 6.70864L18.3474 6.12897L19.8501 5.99527L19.9056 5.99034L19.9471 5.977C20.9518 7.58648 21.5308 9.48567 21.5308 11.5176C21.5308 15.8295 18.9294 19.5245 15.2083 21.1396ZM14.9139 4.01322L14.9156 4.01783L14.9049 4.00518L14.9139 4.01322ZM12.734 4.44189L12.7293 4.54678L12.6934 4.54146L12.6873 4.54055L12.7122 4.43289L12.734 4.44189ZM12.0151 5.59606L11.9272 5.57923L12.0218 5.55755L12.0151 5.59606Z" fill="#E50914" stroke="#E50914"/>
<path d="M11.0104 15.5655L10.9 15.7956L11.0216 16.02L11.8005 17.457L11.8073 17.4799L11.8643 17.6738C11.9115 17.8347 11.9744 18.0496 12.0373 18.2666C12.1003 18.4839 12.1628 18.7019 12.2095 18.8691C12.2294 18.9404 12.2459 19.0008 12.2581 19.0473C12.2452 19.1032 12.2271 19.1788 12.2053 19.2688C12.1584 19.4616 12.0956 19.7138 12.0326 19.9651C11.9696 20.2162 11.9066 20.4654 11.8594 20.652L11.8023 20.877L11.7863 20.9399L11.7821 20.9564L11.781 20.9606L11.7807 20.9617L11.7806 20.9619L11.7806 20.962L12.2652 21.0854L11.7806 20.962L11.7599 21.0435L11.7669 21.1273L11.8379 21.9713C11.5574 21.9961 11.2787 22.0126 11 22.0126C5.19966 22.0126 0.5 17.313 0.5 11.5126C0.5 9.90103 0.8678 8.3806 1.5216 7.01561L1.86518 7.23894L1.98946 7.31972H2.13768H3.37167H3.41555L3.45876 7.31208L4.95557 7.04733L5.85694 8.51876V10.1353V10.2998L5.95456 10.4321L7.53133 12.5698L7.68121 12.773H7.93371H8.2017H8.24437L8.35468 13.005L8.45921 13.2248L8.69671 13.2781L10.3865 13.6575L11.1063 14.3827L11.1964 14.4735L11.319 14.5098L11.4921 14.5612L11.0104 15.5655Z" fill="#E50914" stroke="#E50914"/>
<path d="M7.58636 2.95555L7.1633 2.70755L6.46273 2.29688L7.58636 2.95555ZM7.58636 2.95555L7.08727 2.81164L6.8899 2.75473L6.70953 2.853L5.88566 3.30187L4.16558 3.5429C5.13981 2.70537 6.2704 2.04318 7.50817 1.60475C7.49763 1.61255 7.48691 1.62043 7.47601 1.62838C7.39346 1.68858 7.31029 1.74583 7.24704 1.78846C7.21562 1.80963 7.18959 1.82689 7.17161 1.83872L7.1511 1.85215L7.14606 1.85543L7.14496 1.85615L7.14485 1.85622L7.1448 1.85625L7.14478 1.85626L7.58636 2.95555ZM11.0069 1C11.1752 1.00002 11.3425 1.00418 11.5088 1.01237L11.22 1.17124L11.2077 1.17796L11.1959 1.18535L10.5478 1.59045L9.99664 1.9349L9.71183 1.44521L9.51655 1.10947C10.0033 1.03916 10.5008 1.00189 11.0069 1ZM8.82002 3.0382L9.37772 2.8918L9.30112 3.0123L8.82002 3.0382ZM9.12839 1.22002L8.69158 1.35862L8.7058 1.25909C8.94812 1.20449 9.19363 1.15819 9.44201 1.12051L9.12839 1.22002Z" fill="#E50914" stroke="#E50914"/>
</g>
<defs>
<clipPath id="clip0_9159_6945">
<rect width="22" height="22" fill="white" transform="translate(0 0.5)"/>
</clipPath>
</defs>
</svg>
