<svg width="47" height="45" viewBox="0 0 47 45" fill="none" xmlns="http://www.w3.org/2000/svg">
<path fill-rule="evenodd" clip-rule="evenodd" d="M17.3696 43.0517H25.8832C26.1157 43.0517 26.2878 42.8437 26.2414 42.6187C25.8037 40.497 23.9039 38.9004 21.6264 38.9004C19.3489 38.9004 17.4492 40.497 17.0115 42.6187C16.965 42.8437 17.1372 43.0517 17.3696 43.0517Z" fill="#8AC9FE"/>
<path fill-rule="evenodd" clip-rule="evenodd" d="M25.0515 43.0517H25.8839C26.1164 43.0517 26.2885 42.8437 26.2421 42.6187C25.8044 40.497 23.9046 38.9004 21.6271 38.9004C21.4869 38.9004 21.3481 38.9065 21.2109 38.9184C23.3006 39.0991 24.9989 40.6276 25.4097 42.6187C25.4561 42.8437 25.284 43.0517 25.0515 43.0517Z" fill="#60B7FF"/>
<path d="M21.6255 38.0213C22.9407 38.0213 24.0068 36.9683 24.0068 35.6693C24.0068 34.3704 22.9407 33.3174 21.6255 33.3174C20.3103 33.3174 19.2441 34.3704 19.2441 35.6693C19.2441 36.9683 20.3103 38.0213 21.6255 38.0213Z" fill="#F6DCCD"/>
<path fill-rule="evenodd" clip-rule="evenodd" d="M21.6267 33.3174C22.9418 33.3174 24.008 34.3704 24.008 35.6693C24.008 36.9683 22.9418 38.0213 21.6267 38.0213C21.5141 38.0213 21.4033 38.0134 21.2949 37.9984C22.453 37.839 23.3445 36.857 23.3445 35.6693C23.3445 34.4816 22.453 33.4997 21.2949 33.3402C21.4033 33.3253 21.514 33.3174 21.6267 33.3174Z" fill="#F1CBBC"/>
<path fill-rule="evenodd" clip-rule="evenodd" d="M18.7267 4.53556C18.7267 3.1119 19.9058 1.94727 21.3475 1.94727H42.1196C43.561 1.94727 44.7402 3.11243 44.7402 4.53556V20.0787C44.7402 21.5019 43.5604 22.667 42.1195 22.667H21.3474C19.9068 22.667 18.7266 21.5024 18.7266 20.0787L18.7267 4.53556Z" fill="#ECEFF1"/>
<path fill-rule="evenodd" clip-rule="evenodd" d="M41.2305 1.94727H42.1204C43.5618 1.94727 44.741 3.11243 44.741 4.53556V20.0787C44.741 21.5019 43.5613 22.667 42.1204 22.667H41.2305C42.6714 22.667 43.8511 21.5019 43.8511 20.0787V4.53556C43.851 3.11243 42.6718 1.94727 41.2305 1.94727Z" fill="#D1D1D6"/>
<path fill-rule="evenodd" clip-rule="evenodd" d="M23.2705 20.2882C22.8774 20.2882 22.5586 19.9734 22.5586 19.585C22.5586 19.1967 22.8774 18.8819 23.2705 18.8819H41.3755C41.7686 18.8819 42.0874 19.1967 42.0874 19.585C42.0874 19.9734 41.7686 20.2882 41.3755 20.2882H23.2705ZM23.2705 17.6514C22.8774 17.6514 22.5586 17.3365 22.5586 16.9482C22.5586 16.5599 22.8774 16.2451 23.2705 16.2451H36.8454C37.2385 16.2451 37.5573 16.5599 37.5573 16.9482C37.5573 17.3365 37.2385 17.6514 36.8454 17.6514H23.2705Z" fill="#A79BA7"/>
<path fill-rule="evenodd" clip-rule="evenodd" d="M6.55846 41.8543H14.2695C14.7432 41.8542 15.1297 41.473 15.1305 41.0051L15.1689 17.5547L17.1491 15.1893H22.1475C22.5107 15.1893 22.8411 15.0508 23.0876 14.8243L26.904 11.8789C27.5027 11.4169 27.609 10.5631 27.1413 9.97164C26.6736 9.38023 25.8091 9.27528 25.2103 9.73724L21.6803 12.4616H6.35289C4.44808 12.4616 2.079 13.6686 2.06815 15.7985L2.02543 24.2203C2.016 26.0551 3.61656 27.5567 5.63128 27.5567L5.69722 41.0079C5.69953 41.4749 6.08557 41.8543 6.55846 41.8543Z" fill="#8AC9FE"/>
<path fill-rule="evenodd" clip-rule="evenodd" d="M5.01181 27.5091C5.16781 27.5337 5.32727 27.5491 5.48977 27.5548H6.38963V15.7947C6.38963 15.419 6.08119 15.1143 5.70067 15.1143C5.32016 15.1143 5.01172 15.4189 5.01172 15.7947L5.01181 27.5091Z" fill="#60B7FF"/>
<path fill-rule="evenodd" clip-rule="evenodd" d="M6.55804 41.8542H14.269C14.7428 41.8542 15.1293 41.473 15.1301 41.005L15.1521 27.5566H5.63086L5.6968 41.0079C5.69911 41.4748 6.08515 41.8542 6.55804 41.8542Z" fill="#837683"/>
<path fill-rule="evenodd" clip-rule="evenodd" d="M9.73438 41.8543H11.1123V31.0408C11.1123 30.665 10.8038 30.3604 10.4233 30.3604C10.0428 30.3604 9.73438 30.665 9.73438 31.0408V41.8543Z" fill="#685E68"/>
<path fill-rule="evenodd" clip-rule="evenodd" d="M17.1202 15.2694H22.1187C22.4818 15.2694 22.8122 15.1309 23.0587 14.9044L26.8751 11.9589C27.4739 11.497 27.5802 10.6431 27.1125 10.0517C26.6447 9.4603 25.7802 9.35536 25.1814 9.81732L21.6515 12.5417H16.291V16.26L17.1202 15.2694Z" fill="#8AC9FE"/>
<path fill-rule="evenodd" clip-rule="evenodd" d="M10.4253 3.25391C12.4755 3.25391 14.1375 4.40791 14.1375 7.06924C14.1375 9.73057 12.4754 11.888 10.4253 11.888C8.37494 11.888 6.71289 9.73048 6.71289 7.06924C6.71289 4.408 8.37503 3.25391 10.4253 3.25391Z" fill="#F6DCCD"/>
<path fill-rule="evenodd" clip-rule="evenodd" d="M10.4249 3.25391C12.4751 3.25391 14.1371 4.40791 14.1371 7.06924C14.1371 9.73057 12.475 11.888 10.4249 11.888C10.3286 11.888 10.2331 11.8832 10.1387 11.8739C12.0551 11.6842 13.5648 9.6055 13.5648 7.06924C13.5648 4.53289 12.0551 3.3657 10.1387 3.26164C10.2332 3.25646 10.3286 3.25391 10.4249 3.25391Z" fill="#F1CBBC"/>
<path fill-rule="evenodd" clip-rule="evenodd" d="M36.9374 4.50801C37.4627 4.63149 37.9646 4.83716 38.4243 5.11683L39.3905 4.69302L40.5292 5.81767L40.1002 6.77163C40.3835 7.22585 40.5917 7.72155 40.7167 8.24055L41.7025 8.61531V10.2059L40.7165 10.5806C40.5914 11.0995 40.3832 11.5951 40.1 12.0491L40.5291 13.0034L39.3904 14.1281L38.4245 13.7044C37.9646 13.9841 37.4628 14.1898 36.9373 14.3133L36.5578 15.2868H34.9474L34.5678 14.313C34.0425 14.1895 33.5407 13.9838 33.081 13.7042L32.1148 14.128L30.976 13.0033L31.405 12.0494C31.1217 11.5952 30.9135 11.0994 30.7885 10.5805L29.8027 10.2057V8.61531L30.7886 8.24055C30.9137 7.72164 31.1219 7.22603 31.4052 6.77189L30.9761 5.81775L32.1149 4.69302L33.081 5.11683C33.5408 4.83716 34.0425 4.63149 34.5679 4.50801L34.9475 3.53418H36.5578L36.9374 4.50801Z" fill="#FFE177"/>
<path fill-rule="evenodd" clip-rule="evenodd" d="M33.0818 13.7043L32.1156 14.1281L31.9668 13.9811L32.8727 13.5838C32.9415 13.6256 33.0112 13.6658 33.0818 13.7043ZM36.9381 4.50792C37.4634 4.63141 37.9652 4.83707 38.4249 5.11674L38.1503 5.23724C37.6905 4.95766 36.9796 4.63149 36.4543 4.50801L36.0748 3.53418H36.5586L36.9381 4.50792ZM38.4253 13.7044C37.9654 13.9841 37.4635 14.1898 36.938 14.3133L36.5586 15.2868H36.0748L36.4543 14.3133C36.9797 14.1898 37.6908 13.8636 38.1506 13.5839L38.4253 13.7044ZM31.9668 4.83979L32.1156 4.69284L33.0817 5.11665C33.0112 5.15515 32.9414 5.19531 32.8726 5.23715L31.9668 4.83979ZM39.0562 4.83979L39.3912 4.69284L40.5299 5.81749L40.1009 6.77145C40.3841 7.22567 40.5923 7.72138 40.7174 8.24037L41.7031 8.61514V10.2057L40.7171 10.5805C40.5921 11.0993 40.3838 11.5949 40.1007 12.0489L40.5298 13.0033L39.3911 14.1279L39.0561 13.9809L40.0461 13.0032L39.617 12.0488C39.9002 11.5947 40.1084 11.0992 40.2335 10.5804L41.2195 10.2056V8.61522L40.2337 8.24046C40.1087 7.72147 39.9004 7.22576 39.6172 6.77154L40.0462 5.81758L39.0562 4.83979Z" fill="#FFD064"/>
<path d="M36.4673 12.4095C38.1506 12.0165 39.1926 10.3502 38.7947 8.68768C38.3968 7.02518 36.7096 5.99604 35.0264 6.38902C33.3431 6.78201 32.3011 8.44831 32.699 10.1108C33.0969 11.7733 34.784 12.8024 36.4673 12.4095Z" fill="#ECEFF1"/>
<path fill-rule="evenodd" clip-rule="evenodd" d="M35.7534 6.31641C34.0233 6.31641 32.6211 7.70139 32.6211 9.41016C32.6211 11.1189 34.0234 12.5038 35.7534 12.5038C35.8373 12.5038 35.9204 12.5005 36.0026 12.4941C34.389 12.3686 33.1193 11.036 33.1193 9.41007C33.1193 7.78409 34.389 6.45149 36.0026 6.32607C35.9204 6.31975 35.8373 6.31641 35.7534 6.31641Z" fill="#D1D1D6"/>
<path fill-rule="evenodd" clip-rule="evenodd" d="M33.9058 9.98706C33.6278 9.71249 33.6278 9.26732 33.9058 8.99284C34.1838 8.71827 34.6345 8.71827 34.9124 8.99284L35.217 9.29369L36.6166 8.03922C36.9069 7.77837 37.3564 7.7992 37.6205 8.08589C37.8847 8.37259 37.8636 8.81653 37.5733 9.07739L35.6996 10.7567L35.6957 10.7607C35.4177 11.0352 34.967 11.0352 34.689 10.7607L33.9058 9.98706Z" fill="#8AC9FE"/>
<path fill-rule="evenodd" clip-rule="evenodd" d="M26.6157 43.0517H35.1293C35.3617 43.0517 35.5338 42.8437 35.4875 42.6187C35.0497 40.497 33.15 38.9004 30.8726 38.9004C28.5951 38.9004 26.6953 40.497 26.2576 42.6187C26.2112 42.8437 26.3833 43.0517 26.6157 43.0517Z" fill="#8AC9FE"/>
<path fill-rule="evenodd" clip-rule="evenodd" d="M34.2975 43.0517H35.1299C35.3624 43.0517 35.5345 42.8437 35.4881 42.6187C35.0504 40.497 33.1506 38.9004 30.8732 38.9004C30.733 38.9004 30.5942 38.9065 30.457 38.9184C32.5467 39.0991 34.245 40.6276 34.6558 42.6187C34.7021 42.8437 34.53 43.0517 34.2975 43.0517Z" fill="#60B7FF"/>
<path d="M31.7999 37.8382C33.0151 37.3407 33.5919 35.9644 33.0882 34.7642C32.5845 33.564 31.191 32.9943 29.9758 33.4918C28.7605 33.9893 28.1837 35.3656 28.6874 36.5658C29.1912 37.766 30.5846 38.3357 31.7999 37.8382Z" fill="#F6DCCD"/>
<path fill-rule="evenodd" clip-rule="evenodd" d="M30.8728 33.3184C32.1879 33.3184 33.2541 34.3714 33.2541 35.6703C33.2541 36.9692 32.1879 38.0223 30.8728 38.0223C30.7602 38.0223 30.6494 38.0144 30.541 37.9994C31.6991 37.84 32.5906 36.858 32.5906 35.6703C32.5906 34.4826 31.6991 33.5006 30.541 33.3412C30.6494 33.3263 30.7602 33.3184 30.8728 33.3184Z" fill="#F1CBBC"/>
<path fill-rule="evenodd" clip-rule="evenodd" d="M35.8619 43.0517H44.3755C44.6079 43.0517 44.78 42.8437 44.7336 42.6187C44.2959 40.497 42.3962 38.9004 40.1187 38.9004C37.8412 38.9004 35.9414 40.497 35.5037 42.6187C35.4573 42.8437 35.6294 43.0517 35.8619 43.0517Z" fill="#8AC9FE"/>
<path fill-rule="evenodd" clip-rule="evenodd" d="M43.5437 43.0517H44.3761C44.6086 43.0517 44.7807 42.8437 44.7343 42.6187C44.2966 40.497 42.3968 38.9004 40.1193 38.9004C39.9791 38.9004 39.8403 38.9065 39.7031 38.9184C41.7929 39.0991 43.4911 40.6276 43.9019 42.6187C43.9484 42.8437 43.7763 43.0517 43.5437 43.0517Z" fill="#60B7FF"/>
<path d="M40.1196 38.0213C41.4348 38.0213 42.501 36.9683 42.501 35.6693C42.501 34.3704 41.4348 33.3174 40.1196 33.3174C38.8044 33.3174 37.7383 34.3704 37.7383 35.6693C37.7383 36.9683 38.8044 38.0213 40.1196 38.0213Z" fill="#F6DCCD"/>
<path fill-rule="evenodd" clip-rule="evenodd" d="M40.1189 33.3174C41.434 33.3174 42.5002 34.3704 42.5002 35.6693C42.5002 36.9683 41.434 38.0213 40.1189 38.0213C40.0063 38.0213 39.8955 38.0134 39.7871 37.9984C40.9452 37.839 41.8367 36.857 41.8367 35.6693C41.8367 34.4816 40.9452 33.4997 39.7871 33.3402C39.8955 33.3253 40.0062 33.3174 40.1189 33.3174Z" fill="#F1CBBC"/>
</svg>
