<svg width="16" height="16" viewBox="0 0 16 16" fill="none" xmlns="http://www.w3.org/2000/svg">
<g clip-path="url(#clip0_21826_609)">
<path d="M13.5727 9.66667L13.416 9.63067C13.0739 8.85714 12.4872 8.21742 11.7461 7.80993C11.0049 7.40244 10.1504 7.24974 9.314 7.37533C8.43624 7.51529 7.63553 7.95909 7.05164 8.62924C6.46774 9.2994 6.13777 10.1533 6.11933 11.042C6.11772 11.1773 6.12618 11.3126 6.14467 11.4467C5.68248 11.632 5.29086 11.9589 5.02601 12.3806C4.76116 12.8023 4.63669 13.297 4.67045 13.7938C4.70422 14.2907 4.89448 14.764 5.21394 15.146C5.53341 15.528 5.96565 15.7989 6.44867 15.92C6.64247 15.9695 6.84134 15.9966 7.04133 16.0007H12.786C13.0178 15.9964 13.2485 15.9684 13.4747 15.9173C14.1814 15.7621 14.815 15.3729 15.2728 14.8126C15.7307 14.2523 15.9859 13.5539 15.9973 12.8304C16.0086 12.107 15.7754 11.4009 15.3353 10.8266C14.8953 10.2522 14.2742 9.84328 13.5727 9.666V9.66667ZM13.962 13.078C13.9047 13.2965 13.7883 13.495 13.6255 13.6517C13.4627 13.8084 13.2599 13.9171 13.0393 13.966C12.95 13.9867 12.8589 13.9985 12.7673 14.0013H7.07C7.02791 14.0004 6.98607 13.9946 6.94533 13.984C6.88327 13.9672 6.82638 13.9351 6.77982 13.8908C6.73326 13.8464 6.69849 13.7912 6.67867 13.73C6.62 13.5127 6.846 13.3073 7.024 13.248C7.40651 13.1118 7.72889 12.8453 7.93464 12.4952C8.14039 12.1451 8.21639 11.7338 8.14933 11.3333C8.13178 11.2504 8.12173 11.1661 8.11933 11.0813C8.12171 10.9464 8.13938 10.8122 8.172 10.6813C8.24925 10.3428 8.42622 10.0352 8.68006 9.7982C8.9339 9.56124 9.25294 9.40582 9.596 9.352C10.0008 9.28924 10.415 9.36137 10.7747 9.55726C11.1344 9.75315 11.4198 10.0619 11.5867 10.436C11.7137 10.7401 11.9164 11.0066 12.1754 11.2103C12.4344 11.4141 12.7412 11.5482 13.0667 11.6C13.381 11.6775 13.6518 11.8764 13.8196 12.1532C13.9874 12.4301 14.0387 12.7621 13.962 13.0767V13.078ZM4.91867 9.16133L3.26667 10.8113C3.07603 10.9804 2.82802 11.0704 2.5733 11.0628C2.31858 11.0552 2.07637 10.9507 1.89613 10.7705C1.7159 10.5904 1.61124 10.3482 1.60353 10.0935C1.59583 9.83877 1.68565 9.59072 1.85467 9.4L2.886 8.368C2.69636 8.04494 2.5536 7.69657 2.462 7.33333H1C0.734784 7.33333 0.48043 7.22798 0.292893 7.04044C0.105357 6.8529 0 6.59855 0 6.33333C0 6.06812 0.105357 5.81376 0.292893 5.62623C0.48043 5.43869 0.734784 5.33333 1 5.33333H2.46667C2.56017 4.97242 2.70379 4.62639 2.89333 4.30533L1.85467 3.26667C1.68565 3.07595 1.59583 2.8279 1.60353 2.57318C1.61124 2.31847 1.7159 2.07631 1.89613 1.89615C2.07637 1.716 2.31858 1.61146 2.5733 1.60387C2.82802 1.59628 3.07603 1.68623 3.26667 1.85533L4.30533 2.89133C4.6265 2.70248 4.97252 2.55954 5.33333 2.46667V1C5.33333 0.734784 5.43869 0.48043 5.62623 0.292893C5.81376 0.105357 6.06812 0 6.33333 0C6.59855 0 6.8529 0.105357 7.04044 0.292893C7.22798 0.48043 7.33333 0.734784 7.33333 1V2.46667C7.69517 2.55867 8.04217 2.70141 8.364 2.89067L9.4 1.85533C9.59064 1.68623 9.83864 1.59628 10.0934 1.60387C10.3481 1.61146 10.5903 1.716 10.7705 1.89615C10.9508 2.07631 11.0554 2.31847 11.0631 2.57318C11.0708 2.8279 10.981 3.07595 10.812 3.26667L9.77267 4.308C9.82067 4.39067 9.87467 4.46867 9.91733 4.55533C10.0353 4.79297 10.054 5.06772 9.96933 5.31914C9.88469 5.57057 9.70363 5.77807 9.466 5.896C9.22837 6.01393 8.95362 6.03264 8.70219 5.94799C8.45077 5.86335 8.24327 5.6823 8.12533 5.44467C6.62533 2.75667 2.85267 5.468 4.91933 7.748C5.10651 7.93559 5.21158 8.18981 5.21145 8.45481C5.21133 8.71981 5.10602 8.97392 4.91867 9.16133Z" fill="url(#paint0_linear_21826_609)"/>
</g>
<defs>
<linearGradient id="paint0_linear_21826_609" x1="0" y1="16.0007" x2="15.9977" y2="16.0007" gradientUnits="userSpaceOnUse">
<stop stop-color="#FF8A00"/>
<stop offset="1" stop-color="#E50914"/>
</linearGradient>
<clipPath id="clip0_21826_609">
<rect width="16" height="16" fill="white"/>
</clipPath>
</defs>
</svg>
