<svg width="16" height="16" viewBox="0 0 16 16" fill="none" xmlns="http://www.w3.org/2000/svg">
<g clip-path="url(#clip0_21815_59)">
<path d="M1.00012 12C1.00012 11.2633 1.59679 10.6667 2.33345 10.6667C3.07012 10.6667 3.66679 11.2633 3.66679 12C3.66679 12.7367 3.07012 13.3333 2.33345 13.3333C1.59679 13.3333 1.00012 12.7367 1.00012 12ZM8.00012 10.6667C7.26345 10.6667 6.66679 11.2633 6.66679 12C6.66679 12.7367 7.26345 13.3333 8.00012 13.3333C8.73679 13.3333 9.33345 12.7367 9.33345 12C9.33345 11.2633 8.73679 10.6667 8.00012 10.6667ZM8.00012 2.66667C8.73679 2.66667 9.33345 2.07 9.33345 1.33333C9.33345 0.596667 8.73679 0 8.00012 0C7.26345 0 6.66679 0.596667 6.66679 1.33333C6.66679 2.07 7.26345 2.66667 8.00012 2.66667ZM13.6668 10.6667C12.9301 10.6667 12.3335 11.2633 12.3335 12C12.3335 12.7367 12.9301 13.3333 13.6668 13.3333C14.4035 13.3333 15.0001 12.7367 15.0001 12C15.0001 11.2633 14.4035 10.6667 13.6668 10.6667ZM2.33345 10C2.88612 10 3.33345 9.552 3.33345 9C3.33345 8.448 3.78212 8 4.33345 8H7.00012V9C7.00012 9.552 7.44745 10 8.00012 10C8.55279 10 9.00012 9.552 9.00012 9V8H11.6668C12.2181 8 12.6668 8.44867 12.6668 9C12.6668 9.55133 13.1141 10 13.6668 10C14.2195 10 14.6668 9.552 14.6668 9C14.6668 7.346 13.3208 6 11.6668 6H4.33345C2.67945 6 1.33345 7.346 1.33345 9C1.33345 9.552 1.78079 10 2.33345 10ZM15.9795 15.5433C15.6381 14.6447 14.7355 14 13.6668 14C12.5981 14 11.6955 14.644 11.3541 15.5433C11.2695 15.7653 11.4548 16 11.7041 16H15.6288C15.8788 16 16.0641 15.7653 15.9795 15.5433ZM2.33345 14C1.26479 14 0.362121 14.644 0.0207875 15.5433C-0.0638791 15.7653 0.121454 16 0.370787 16H4.29545C4.54545 16 4.73012 15.7653 4.64545 15.5433C4.30412 14.6447 3.40212 14 2.33345 14ZM8.00012 14C6.93145 14 6.02879 14.644 5.68745 15.5433C5.60279 15.7653 5.78812 16 6.03745 16H9.96212C10.2121 16 10.3968 15.7653 10.3121 15.5433C9.97079 14.6447 9.06812 14 7.99945 14H8.00012ZM6.03745 5.33333H9.96212C10.2121 5.33333 10.3968 5.09867 10.3121 4.87667C9.97079 3.978 9.06812 3.33333 7.99945 3.33333C6.93079 3.33333 6.02812 3.97733 5.68679 4.87667C5.60212 5.09867 5.78812 5.33333 6.03745 5.33333Z" fill="url(#paint0_linear_21815_59)"/>
</g>
<defs>
<linearGradient id="paint0_linear_21815_59" x1="0" y1="16" x2="15.9996" y2="16" gradientUnits="userSpaceOnUse">
<stop stop-color="#FF8A00"/>
<stop offset="1" stop-color="#E50914"/>
</linearGradient>
<clipPath id="clip0_21815_59">
<rect width="16" height="16" fill="white"/>
</clipPath>
</defs>
</svg>
