<svg width="25" height="24" viewBox="0 0 25 24" fill="none" xmlns="http://www.w3.org/2000/svg">
<g clip-path="url(#clip0_20779_858)">
<path d="M24.375 7.5V16.854C24.375 18.195 23.887 19.487 23 20.492C22.451 21.114 21.505 21.173 20.883 20.625C20.262 20.077 20.202 19.129 20.75 18.508C21.153 18.051 21.375 17.464 21.375 16.855V7.5C21.375 6.122 20.254 5 18.875 5H5.875C4.496 5 3.375 6.122 3.375 7.5V16.5C3.375 17.878 4.496 19 5.875 19H8.875C9.703 19 10.375 19.671 10.375 20.5C10.375 21.329 9.703 22 8.875 22H5.875C2.843 22 0.375 19.533 0.375 16.5V7.5C0.375 4.467 2.843 2 5.875 2H18.875C21.907 2 24.375 4.467 24.375 7.5ZM19.375 8.5C19.375 7.671 18.703 7 17.875 7H6.875C6.047 7 5.375 7.671 5.375 8.5C5.375 9.329 6.047 10 6.875 10H17.875C18.703 10 19.375 9.329 19.375 8.5ZM19.875 16.5C19.875 18.057 19.08 19.43 17.875 20.238V23.347C17.875 23.97 17.084 24.237 16.706 23.742L15.375 21.999L14.044 23.742C13.666 24.237 12.875 23.97 12.875 23.347V20.238C11.67 19.43 10.875 18.056 10.875 16.5C10.875 14.019 12.894 12 15.375 12C17.856 12 19.875 14.019 19.875 16.5ZM13.875 16.5C13.875 17.327 14.548 18 15.375 18C16.202 18 16.875 17.327 16.875 16.5C16.875 15.673 16.202 15 15.375 15C14.548 15 13.875 15.673 13.875 16.5ZM6.875 12C6.047 12 5.375 12.671 5.375 13.5C5.375 14.329 6.047 15 6.875 15H7.875C8.703 15 9.375 14.329 9.375 13.5C9.375 12.671 8.703 12 7.875 12H6.875Z" fill="url(#paint0_linear_20779_858)"/>
</g>
<defs>
<linearGradient id="paint0_linear_20779_858" x1="0.375" y1="23.9993" x2="24.375" y2="23.9993" gradientUnits="userSpaceOnUse">
<stop stop-color="#FF8A00"/>
<stop offset="1" stop-color="#E50914"/>
</linearGradient>
<clipPath id="clip0_20779_858">
<rect width="24" height="24" fill="white" transform="translate(0.375)"/>
</clipPath>
</defs>
</svg>
