<svg width="25" height="24" viewBox="0 0 25 24" fill="none" xmlns="http://www.w3.org/2000/svg">
<path fill-rule="evenodd" clip-rule="evenodd" d="M20.1077 16.8693H20.6817V7.90907C20.6817 7.45724 20.3155 7.09103 19.8637 7.09103C18.5767 7.09103 16.9999 7.09103 16.9999 7.09103C16.5485 7.09103 16.1818 6.72442 16.1818 6.27278C16.1818 5.82115 16.5485 5.45454 16.9999 5.45454H19.8637C21.2191 5.45454 22.3182 6.55358 22.3182 7.90907V16.8693H23.1362C23.5883 16.8693 23.9545 17.2355 23.9545 17.6874V18.5455C23.9545 19.1964 23.6959 19.8208 23.2356 20.2811C22.7753 20.7414 22.1509 21 21.4999 21H3.49995C2.849 21 2.22477 20.7414 1.76429 20.2811C1.30402 19.8208 1.04541 19.1964 1.04541 18.5455V17.6874C1.04541 17.2355 1.41182 16.8693 1.86365 16.8693H2.6819V7.90907C2.6819 6.55358 3.78075 5.45454 5.13644 5.45454H8C8.45163 5.45454 8.81824 5.82115 8.81824 6.27278C8.81824 6.72442 8.45163 7.09103 8 7.09103C8 7.09103 6.4232 7.09103 5.13644 7.09103C4.68441 7.09103 4.31819 7.45724 4.31819 7.90907V16.8693H4.89216L5.50383 14.1758C6.08487 11.6174 8.35895 9.80182 10.9824 9.80182H11.9384C11.9489 9.80162 11.9595 9.80162 11.9699 9.80182H13.03C13.0406 9.80162 13.051 9.80162 13.0614 9.80182H14.0175C16.6409 9.80182 18.9152 11.6174 19.4961 14.1758L20.1077 16.8693ZM13.3181 18.5056V19.3637H21.4999C21.7169 19.3637 21.9251 19.2775 22.0784 19.1239C22.232 18.9706 22.3182 18.7624 22.3182 18.5455V18.5056H13.3181ZM11.6818 18.5056H2.6819V18.5455C2.6819 18.7624 2.7681 18.9706 2.92146 19.1239C3.07482 19.2775 3.28297 19.3637 3.49995 19.3637H11.6818V18.5056ZM10.9056 11.4389C9.07881 11.4738 7.50575 12.75 7.09967 14.5381L6.57028 16.8693H12.406C12.2803 16.8548 12.157 16.811 12.0472 16.7379L10.4107 15.6507C10.1223 15.4588 9.98581 15.1062 10.0701 14.7702L10.9056 11.4389ZM14.0943 11.4389L14.9298 14.7702C15.0143 15.1062 14.8778 15.4588 14.5892 15.6507L12.9529 16.7379C12.8429 16.811 12.7198 16.8548 12.5939 16.8693H18.4296L17.9004 14.5381C17.4943 12.75 15.9211 11.4738 14.0943 11.4389ZM11.7979 14.6076L12.5 15.0742L13.202 14.6076L12.5 11.8084L11.7979 14.6076ZM12.5 3C10.719 3 9.26654 4.4629 9.26654 6.27278C9.26654 8.08266 10.719 9.54556 12.5 9.54556C14.2809 9.54556 15.7336 8.08266 15.7336 6.27278C15.7336 4.4629 14.2809 3 12.5 3ZM12.5 4.63649C13.3851 4.63649 14.0971 5.37324 14.0971 6.27278C14.0971 7.17232 13.3851 7.90907 12.5 7.90907C11.6148 7.90907 10.9028 7.17232 10.9028 6.27278C10.9028 5.37324 11.6148 4.63649 12.5 4.63649Z" fill="url(#paint0_linear_21857_1037)"/>
<defs>
<linearGradient id="paint0_linear_21857_1037" x1="1.04541" y1="21" x2="23.9545" y2="21" gradientUnits="userSpaceOnUse">
<stop stop-color="#FF8A00"/>
<stop offset="1" stop-color="#E50914"/>
</linearGradient>
</defs>
</svg>
