<svg width="25" height="24" viewBox="0 0 25 24" fill="none" xmlns="http://www.w3.org/2000/svg">
<g clip-path="url(#clip0_20752_517)">
<path d="M4.142 20.202C4.858 19.787 5.777 20.032 6.192 20.749C6.283 20.906 6.445 20.999 6.626 20.999H13.626C13.901 20.999 14.126 20.775 14.126 20.499V19.499C14.126 18.67 14.798 17.999 15.626 17.999H16.235C17.492 17.999 18.558 17.059 18.715 15.812L19.03 13.311C19.125 12.561 19.762 11.998 20.518 11.998H20.908C20.294 10.527 18.6 7.463 17.606 6.233C16.154 4.296 13.949 3.12 11.554 3.007C10.727 2.968 10.087 2.266 10.126 1.438C10.164 0.611 10.889 -0.038 11.694 0.01C14.986 0.165 18.015 1.777 19.971 4.39C20.989 5.647 24.123 10.881 24.123 12.543C24.123 13.689 23.324 14.906 21.84 14.993L21.69 16.186C21.381 18.638 19.473 20.551 17.097 20.929C16.883 22.656 15.408 23.997 13.623 23.997H6.623C5.377 23.997 4.216 23.327 3.592 22.248C3.178 21.531 3.423 20.613 4.14 20.199L4.142 20.202ZM8.125 2V6C8.125 7.105 7.23 8 6.125 8H2.125C1.02 8 0.125 7.105 0.125 6V2C0.125 0.895 1.02 0 2.125 0H6.125C7.23 0 8.125 0.895 8.125 2ZM6.84 2.11C6.446 1.707 5.798 1.709 5.407 2.114L3.579 4.006L2.802 3.185C2.41 2.771 1.752 2.768 1.357 3.179C0.987 3.563 0.985 4.171 1.351 4.558L2.12 5.371C2.907 6.203 4.229 6.21 5.025 5.386L6.845 3.503C7.221 3.114 7.219 2.496 6.841 2.109L6.84 2.11ZM0.125 12V16C0.125 17.105 1.02 18 2.125 18H6.125C7.23 18 8.125 17.105 8.125 16V12C8.125 10.895 7.23 10 6.125 10H2.125C1.02 10 0.125 10.895 0.125 12Z" fill="url(#paint0_linear_20752_517)"/>
</g>
<defs>
<linearGradient id="paint0_linear_20752_517" x1="0.125" y1="23.997" x2="24.123" y2="23.997" gradientUnits="userSpaceOnUse">
<stop stop-color="#FF8A00"/>
<stop offset="1" stop-color="#E50914"/>
</linearGradient>
<clipPath id="clip0_20752_517">
<rect width="24" height="24" fill="white" transform="translate(0.125)"/>
</clipPath>
</defs>
</svg>
