<svg width="36" height="36" viewBox="0 0 36 36" fill="none" xmlns="http://www.w3.org/2000/svg">
<g clip-path="url(#clip0_20752_69)">
<path fill-rule="evenodd" clip-rule="evenodd" d="M0 5.21883C0 4.73859 0.390938 4.34766 0.871172 4.34766H22.8431C23.3234 4.34766 23.7143 4.73859 23.7143 5.21883V34.2621C23.7143 34.7423 23.3234 35.1333 22.8431 35.1333H0.871172C0.390938 35.134 0 34.743 0 34.2628L0 5.21883Z" fill="#FFD400"/>
<path fill-rule="evenodd" clip-rule="evenodd" d="M2.31906 4.34766H22.844C23.3242 4.34766 23.7152 4.73859 23.7152 5.21883V32.8151H10.7854C10.237 32.8151 9.73492 32.6077 9.3482 32.2209L2.9125 25.7852C2.52578 25.3985 2.31836 24.8965 2.31836 24.348V4.34766H2.31906Z" fill="#E6BF00"/>
<path fill-rule="evenodd" clip-rule="evenodd" d="M26.3237 31.6549H10.7854C10.5463 31.6549 10.3389 31.5691 10.1695 31.3997L3.73375 24.964C3.5643 24.7945 3.47852 24.5871 3.47852 24.348V1.73836C3.47852 1.25812 3.87086 0.867188 4.34969 0.867188H26.3237C26.8019 0.867188 27.1949 1.25812 27.1949 1.73836V30.7838C27.1949 31.2626 26.8026 31.6549 26.3237 31.6549Z" fill="#E2E7F0"/>
<path fill-rule="evenodd" clip-rule="evenodd" d="M10.423 31.5792C10.3295 31.537 10.2458 31.4759 10.1677 31.3999L3.73203 24.9642C3.65609 24.8862 3.59422 24.8025 3.55273 24.709H10.423V31.5792Z" fill="#B7BBC2"/>
<path fill-rule="evenodd" clip-rule="evenodd" d="M33.8715 9.51454L35.3642 10.3773C35.9401 10.7084 36.1672 11.4038 35.8684 11.9199L27.0849 27.1334C27.0631 27.1693 27.0371 27.1953 26.9971 27.2129L24.077 28.6121C24.0053 28.6459 23.9237 28.6402 23.8478 28.5981C23.7739 28.5545 23.7303 28.4863 23.724 28.4068L23.473 25.1781C23.4709 25.1359 23.4786 25.1 23.499 25.0627L32.2824 9.84922C32.582 9.33313 33.2956 9.18196 33.8715 9.51454Z" fill="#FFD400"/>
<path d="M25.9575 26.0996L25.6699 26.6003L24.668 26.0237L24.9548 25.5238L32.4649 12.5146L32.7539 12.0146L33.7566 12.5905L33.4676 13.0925L25.9575 26.0996Z" fill="#FEA832"/>
<path fill-rule="evenodd" clip-rule="evenodd" d="M6.87937 3.29297H13.6962C13.8734 3.29297 14.0189 3.43852 14.0189 3.6157V10.4318C14.0189 10.609 13.8734 10.7545 13.6962 10.7545H6.87937C6.70219 10.7545 6.55664 10.609 6.55664 10.4318V3.6157C6.55664 3.43852 6.70219 3.29297 6.87937 3.29297Z" fill="#0593FC"/>
<path fill-rule="evenodd" clip-rule="evenodd" d="M9.86008 7.02832H10.7172C11.7037 7.02832 12.5109 7.83551 12.5109 8.82199V10.7556H8.06641V8.82199C8.06641 7.83551 8.87359 7.02832 9.86008 7.02832Z" fill="#FEA832"/>
<path fill-rule="evenodd" clip-rule="evenodd" d="M9.85789 7.02832H10.715C11.229 7.02832 11.6938 7.2477 12.0228 7.59645C11.6642 8.18074 11.0202 8.56887 10.2868 8.56887C9.55344 8.56887 8.90937 8.18004 8.55078 7.59645C8.87914 7.2477 9.34391 7.02832 9.85789 7.02832Z" fill="#E5972D"/>
<path fill-rule="evenodd" clip-rule="evenodd" d="M10.2886 5.08203C11.0916 5.08203 11.7413 5.73383 11.7413 6.53469C11.7413 7.33766 11.0916 7.98945 10.2886 7.98945C9.48563 7.98945 8.83594 7.33766 8.83594 6.53469C8.83523 5.73383 9.48492 5.08203 10.2886 5.08203Z" fill="#FBBD80"/>
<path d="M6.55875 22.3273C6.23812 22.3273 5.97656 22.0678 5.97656 21.7472C5.97656 21.4266 6.23742 21.1671 6.55875 21.1671H15.6136C15.9342 21.1671 16.1937 21.4266 16.1937 21.7472C16.1937 22.0678 15.9342 22.3273 15.6136 22.3273H6.55875ZM16.413 10.2806C16.0924 10.2806 15.833 10.0212 15.833 9.70055C15.833 9.37992 16.0924 9.12047 16.413 9.12047H20.2655C20.5861 9.12047 20.8455 9.37992 20.8455 9.70055C20.8455 10.0212 20.5861 10.2806 20.2655 10.2806H16.413ZM16.413 7.60383C16.0924 7.60383 15.833 7.34437 15.833 7.02375C15.833 6.70312 16.0924 6.44367 16.413 6.44367H24.1165C24.4371 6.44367 24.6987 6.70312 24.6987 7.02375C24.6987 7.34437 24.4378 7.60383 24.1165 7.60383H16.413ZM16.413 4.92773C16.0924 4.92773 15.833 4.66828 15.833 4.34766C15.833 4.02703 16.0924 3.76758 16.413 3.76758H24.1165C24.4371 3.76758 24.6987 4.02703 24.6987 4.34766C24.6987 4.66828 24.4378 4.92773 24.1165 4.92773H16.413ZM6.55875 14.299C6.23812 14.299 5.97656 14.0381 5.97656 13.7168C5.97656 13.3962 6.23742 13.1367 6.55875 13.1367H24.1158C24.4364 13.1367 24.698 13.3962 24.698 13.7168C24.698 14.0374 24.4371 14.299 24.1158 14.299H6.55875ZM6.55875 16.9737C6.23812 16.9737 5.97656 16.7142 5.97656 16.3936C5.97656 16.073 6.23742 15.8135 6.55875 15.8135H15.6136C15.9342 15.8135 16.1937 16.073 16.1937 16.3936C16.1937 16.7142 15.9342 16.9737 15.6136 16.9737H6.55875ZM6.55875 19.6505C6.23812 19.6505 5.97656 19.391 5.97656 19.0704C5.97656 18.7498 6.23742 18.4903 6.55875 18.4903H24.1158C24.4364 18.4903 24.698 18.7498 24.698 19.0704C24.698 19.391 24.4371 19.6505 24.1158 19.6505H6.55875Z" fill="#70DA40"/>
<path d="M16.9633 29.2039C16.6483 29.2637 16.3453 29.0563 16.2876 28.7413C16.2278 28.4284 16.4353 28.1253 16.7503 28.0655C17.1771 27.9861 17.5532 27.8884 17.8865 27.7723C17.7213 27.5213 17.6017 27.2204 17.542 26.8632C17.3191 25.5216 17.9983 24.4873 18.8118 23.9431C19.1943 23.6858 19.6169 23.5346 19.998 23.5086C20.4684 23.4748 20.891 23.6225 21.1701 23.9748C21.4774 24.3636 21.5646 24.9613 21.2601 25.7846C20.9908 26.506 20.6723 27.0882 20.2638 27.5607C20.5985 27.4932 20.8896 27.3413 21.0428 27.1381C21.2341 26.8808 21.5969 26.8273 21.8542 27.0207C21.9717 27.1086 22.0476 27.2316 22.0757 27.3652C22.0778 27.3772 22.0814 27.387 22.0835 27.3955C22.1032 27.451 22.1496 27.4988 22.229 27.5291C22.3942 27.5867 22.6516 27.5888 23.02 27.5094C23.1698 27.4756 23.3287 27.4313 23.5003 27.3716C23.8033 27.2696 24.1338 27.4313 24.2357 27.7344C24.3391 28.0395 24.176 28.3679 23.8729 28.4698C23.6535 28.5458 23.4524 28.6013 23.2647 28.6435C22.6685 28.7729 22.1967 28.749 21.8339 28.6175C21.6546 28.5514 21.5027 28.4642 21.3775 28.3566C21.0822 28.5338 20.7377 28.6597 20.377 28.7195C20.0444 28.7736 19.6957 28.775 19.3603 28.7117C19.2105 28.6836 19.065 28.6442 18.9257 28.5901C18.378 28.8629 17.7346 29.0584 16.9633 29.2039ZM18.9285 27.2302L18.9764 27.1944C19.4946 26.7859 19.8651 26.2058 20.1682 25.3866C20.3158 24.9943 20.3278 24.777 20.2617 24.6934C20.242 24.6673 20.1717 24.6596 20.0746 24.6652C19.8876 24.6793 19.6682 24.7609 19.4545 24.9043C18.9623 25.2355 18.5496 25.8627 18.6853 26.6783C18.7232 26.9117 18.8111 27.0931 18.9285 27.2302Z" fill="#FF4646"/>
<path fill-rule="evenodd" clip-rule="evenodd" d="M27.0466 27.1829C27.0326 27.1949 27.0164 27.2047 26.9967 27.2146L24.0766 28.6138C24.0049 28.6475 23.9234 28.6419 23.8474 28.5997C23.7736 28.5561 23.73 28.4879 23.7237 28.4085L23.4727 25.1797C23.4727 25.16 23.4727 25.1396 23.4769 25.1221L27.0466 27.1829Z" fill="#FBBD80"/>
<path fill-rule="evenodd" clip-rule="evenodd" d="M33.8714 9.51454L35.3641 10.3773C35.94 10.7084 36.1671 11.4038 35.8683 11.9199L34.9395 13.5301L31.3535 11.4594L32.2823 9.84922C32.5819 9.33313 33.2955 9.18196 33.8714 9.51454Z" fill="#FF4646"/>
</g>
<defs>
<clipPath id="clip0_20752_69">
<rect width="36" height="36" fill="white"/>
</clipPath>
</defs>
</svg>
