<svg width="36" height="36" viewBox="0 0 36 36" fill="none" xmlns="http://www.w3.org/2000/svg">
<g clip-path="url(#clip0_21859_1044)">
<path d="M18.9064 11.5918H6.29407L5.01495 15.2384C4.93781 15.4583 4.89844 15.6897 4.89844 15.9227V20.1736L4.91939 20.2439H11.394C11.4785 20.2439 11.5586 20.2804 11.6141 20.344C11.6696 20.4077 11.6947 20.4921 11.6832 20.5757L9.57288 35.8381L9.6214 36.0006H25.447V17.0799C22.4235 16.5414 19.9436 14.4122 18.9064 11.5918Z" fill="#FFE5C2"/>
<path d="M31.0523 33.2227H29.9186L29.7397 33.1523H15.464L15.2721 33.2227H14.1384C13.7383 33.2227 13.4141 33.5469 13.4141 33.947V36.0002H31.0523C31.4524 36.0002 31.7767 35.6759 31.7767 35.2759V33.947C31.7767 33.547 31.4524 33.2227 31.0523 33.2227Z" fill="#F6A96C"/>
<path d="M8.67872 20.1736V15.9227C8.67872 15.6897 8.71809 15.4584 8.79523 15.2384L10.0497 11.6621H6.26939L5.01495 15.2384C4.93781 15.4583 4.89844 15.6897 4.89844 15.9227V20.1736H8.67872Z" fill="#FED2A4"/>
<path d="M11.3939 20.1729H0.766508C0.546781 20.1729 0.37768 20.367 0.407774 20.5846L0.850461 23.786L0.981594 23.8563H11.1841L11.31 23.786L11.7527 20.5846C11.7827 20.367 11.6136 20.1729 11.3939 20.1729Z" fill="#8AC9FE"/>
<path d="M18.3816 8.64068C18.3816 8.13795 18.4256 7.64527 18.5089 7.16602H5.6239C5.42386 7.16602 5.26172 7.32816 5.26172 7.52819V11.2988C5.26172 11.4989 5.42386 11.661 5.6239 11.661H18.9317C18.5766 10.7212 18.3816 9.70331 18.3816 8.64068Z" fill="#FED2A4"/>
<path d="M10.5658 11.2988V7.52819C10.5658 7.32816 10.728 7.16602 10.928 7.16602H5.6239C5.42386 7.16602 5.26172 7.32816 5.26172 7.52819V11.2988C5.26172 11.4989 5.42386 11.661 5.6239 11.661H10.928C10.728 11.661 10.5658 11.4989 10.5658 11.2988Z" fill="#FFBD86"/>
<path d="M14.5892 27.5967L14.1836 27.667V29.358C14.1836 29.9581 14.67 30.4445 15.2701 30.4445L15.6384 30.5149H29.5527L29.9165 30.4445C30.5166 30.4445 31.003 29.9581 31.003 29.358V27.667L30.5881 27.5967H14.5892Z" fill="#00C27A"/>
<path d="M22.3262 23.1054C22.142 23.1054 21.9648 23.0753 21.7988 23.0205V24.9601H22.8535V23.0205C22.6875 23.0753 22.5103 23.1054 22.3262 23.1054Z" fill="#A44F3E"/>
<path d="M22.3262 23.1758C23.297 23.1758 24.084 22.3888 24.084 21.418C24.084 20.4472 23.297 19.6602 22.3262 19.6602C21.3554 19.6602 20.5684 20.4472 20.5684 21.418C20.5684 22.3888 21.3554 23.1758 22.3262 23.1758Z" fill="#FE6C55"/>
<path d="M22.0082 21.418C22.0082 20.7038 22.4344 20.0896 23.0461 19.8144C22.8263 19.7156 22.5827 19.6602 22.3262 19.6602C21.3554 19.6602 20.5684 20.4472 20.5684 21.418C20.5684 22.3888 21.3554 23.1758 22.3262 23.1758C22.5828 23.1758 22.8263 23.1203 23.0461 23.0215C22.4344 22.7464 22.0082 22.1321 22.0082 21.418Z" fill="#FD544D"/>
<path d="M17.1662 33.2227H14.1384C13.7383 33.2227 13.4141 33.5469 13.4141 33.947V36.0002H16.4419V33.947C16.4419 33.547 16.7662 33.2227 17.1662 33.2227Z" fill="#EA9B58"/>
<path d="M17.2008 29.358V27.667H14.1836V29.358C14.1836 29.9581 14.67 30.4445 15.2701 30.4445H18.2873C17.6872 30.4445 17.2008 29.9581 17.2008 29.358Z" fill="#09A755"/>
<path d="M29.9166 33.2219H15.2701C14.6701 33.2219 14.1836 32.7355 14.1836 32.1354V31.5309C14.1836 30.9308 14.67 30.4443 15.2701 30.4443H29.9166C30.5166 30.4443 31.0031 30.9308 31.0031 31.5309V32.1354C31.0031 32.7355 30.5167 33.2219 29.9166 33.2219Z" fill="#BB5D4C"/>
<path d="M17.2008 32.1354V31.5309C17.2008 31.3556 17.2432 31.1906 17.317 31.0439L16.54 30.4443H15.2701C14.6701 30.4443 14.1836 30.9308 14.1836 31.5309V32.1354C14.1836 32.7354 14.67 33.2219 15.2701 33.2219H18.2873C17.6872 33.2218 17.2008 32.7354 17.2008 32.1354Z" fill="#A44F3E"/>
<path d="M21.0714 33.5855L25.1424 30.4443H16.543L20.614 33.5855C20.7487 33.6894 20.9366 33.6894 21.0714 33.5855Z" fill="#FED402"/>
<path d="M18.7973 30.4443H16.543L20.614 33.5855C20.7487 33.6894 20.9367 33.6894 21.0714 33.5855L21.9699 32.8922L18.7973 30.4443Z" fill="#FAC600"/>
<path d="M31.0523 27.6672H14.1384C13.7383 27.6672 13.4141 27.3429 13.4141 26.9428V25.614C13.4141 25.2139 13.7383 24.8896 14.1384 24.8896H31.0523C31.4524 24.8896 31.7767 25.2139 31.7767 25.614V26.9428C31.7767 27.3429 31.4524 27.6672 31.0523 27.6672Z" fill="#F6A96C"/>
<path d="M16.4419 26.9428V25.614C16.4419 25.214 16.7661 24.8896 17.1662 24.8896H14.1384C13.7383 24.8896 13.4141 25.2139 13.4141 25.614V26.9428C13.4141 27.3429 13.7383 27.6672 14.1384 27.6672H17.1662C16.7661 27.6672 16.4419 27.3429 16.4419 26.9428Z" fill="#EA9B58"/>
<path d="M0.850461 23.785H3.88655L3.44387 20.5836C3.41377 20.3659 3.58287 20.1719 3.8026 20.1719H0.766508C0.546781 20.1719 0.37768 20.366 0.407774 20.5836L0.850461 23.785Z" fill="#60B7FF"/>
<path d="M0.849609 23.7852L2.45203 35.3739C2.5016 35.7322 2.80781 35.999 3.16957 35.999H9.62039L11.3092 23.7852H0.849609Z" fill="#EAF6FF"/>
<path d="M5.48813 35.3739L3.8857 23.7852H0.849609L2.45203 35.3739C2.5016 35.7322 2.80781 35.999 3.16957 35.999H6.20566C5.84398 35.999 5.5377 35.7322 5.48813 35.3739Z" fill="#D8ECFE"/>
<path d="M26.9537 17.2824C31.7261 17.2824 35.5949 13.4136 35.5949 8.6412C35.5949 3.8688 31.7261 0 26.9537 0C22.1813 0 18.3125 3.8688 18.3125 8.6412C18.3125 13.4136 22.1813 17.2824 26.9537 17.2824Z" fill="#FE6C55"/>
<path d="M19.9109 8.6412C19.9109 5.54147 21.9239 2.9032 24.7111 1.96453C25.8063 1.06446 27.1258 0.427711 28.5718 0.152578C28.0475 0.0528047 27.5066 0 26.9537 0C22.1889 0 18.3125 3.8764 18.3125 8.6412C18.3125 13.406 22.1889 17.2824 26.9537 17.2824C27.5067 17.2824 28.0475 17.2295 28.5719 17.1298C27.1258 16.8547 25.8063 16.218 24.7112 15.3179C21.9239 14.3792 19.9109 11.7409 19.9109 8.6412Z" fill="#FD544D"/>
<path d="M26.9549 15.1559C30.5533 15.1559 33.4703 12.2388 33.4703 8.64044C33.4703 5.04206 30.5533 2.125 26.9549 2.125C23.3565 2.125 20.4395 5.04206 20.4395 8.64044C20.4395 12.2388 23.3565 15.1559 26.9549 15.1559Z" fill="white"/>
<path d="M27.4186 2.67203C27.2654 2.66022 27.1111 2.65234 26.9549 2.65234C23.653 2.65234 20.9668 5.33863 20.9668 8.64044C20.9668 11.9422 23.653 14.6285 26.9549 14.6285C27.1111 14.6285 27.2654 14.6207 27.4186 14.6088C25.1218 13.6006 23.5131 11.3054 23.5131 8.64044C23.5131 5.97552 25.1218 3.68017 27.4186 2.67203Z" fill="#F3F0F3"/>
<path d="M26.955 9.16821C26.9036 9.16821 26.8514 9.16069 26.8004 9.14494C26.579 9.07702 26.4277 8.87248 26.4277 8.6408V5.49023C26.4277 5.199 26.6638 4.96289 26.9551 4.96289C27.2464 4.96289 27.4824 5.199 27.4824 5.49023V6.92215L27.7438 6.53641C27.907 6.29531 28.2351 6.23231 28.4761 6.39558C28.7172 6.55891 28.7803 6.88685 28.6169 7.12795L27.3916 8.9366C27.2917 9.08412 27.1266 9.16821 26.955 9.16821Z" fill="#FD544D"/>
<path d="M26.9551 2.58203C26.7773 2.58203 26.6017 2.59131 26.4277 2.60643V3.50622C26.4277 3.79745 26.6638 4.03356 26.9551 4.03356C27.2464 4.03356 27.4824 3.79745 27.4824 3.50622V2.60643C27.3085 2.59138 27.1328 2.58203 26.9551 2.58203Z" fill="#A79BA7"/>
<path d="M26.9551 13.2471C26.6638 13.2471 26.4277 13.4832 26.4277 13.7744V14.6742C26.6017 14.6892 26.7773 14.6986 26.9551 14.6986C27.1329 14.6986 27.3085 14.6893 27.4824 14.6742V13.7744C27.4824 13.4832 27.2463 13.2471 26.9551 13.2471Z" fill="#A79BA7"/>
<path d="M22.348 8.64062C22.348 8.34939 22.112 8.11328 21.8207 8.11328H20.9209C20.9058 8.28723 20.8965 8.4628 20.8965 8.64062C20.8965 8.81845 20.9058 8.99402 20.9209 9.16797H21.8207C22.112 9.16797 22.348 8.93193 22.348 8.64062Z" fill="#A79BA7"/>
<path d="M32.9877 8.11328H32.0879C31.7966 8.11328 31.5605 8.34939 31.5605 8.64062C31.5605 8.93186 31.7966 9.16797 32.0879 9.16797H32.9877C33.0027 8.99402 33.0121 8.81845 33.0121 8.64062C33.0121 8.4628 33.0027 8.28723 32.9877 8.11328Z" fill="#A79BA7"/>
<path d="M26.9529 15.6832C23.0696 15.6832 19.9102 12.5239 19.9102 8.64044C19.9102 4.75701 23.0695 1.59766 26.9529 1.59766C30.8364 1.59766 33.9957 4.75708 33.9957 8.64044C33.9957 12.5238 30.8363 15.6832 26.9529 15.6832ZM26.9529 2.65234C23.6511 2.65234 20.9648 5.33863 20.9648 8.64044C20.9648 11.9422 23.6511 14.6285 26.9529 14.6285C30.2548 14.6285 32.941 11.9423 32.941 8.64044C32.941 5.33856 30.2548 2.65234 26.9529 2.65234Z" fill="#FFA799"/>
</g>
<defs>
<clipPath id="clip0_21859_1044">
<rect width="36" height="36" fill="white"/>
</clipPath>
</defs>
</svg>
