<svg width="16" height="16" viewBox="0 0 16 16" fill="none" xmlns="http://www.w3.org/2000/svg">
<g clip-path="url(#clip0_20752_1313)">
<path d="M10.692 12.0676C11.9187 12.7289 12.882 13.8209 13.3007 15.1689C13.3317 15.2687 13.3388 15.3744 13.3215 15.4775C13.3042 15.5805 13.2629 15.6781 13.2009 15.7622C13.1389 15.8464 13.0581 15.9148 12.9648 15.9619C12.8715 16.0091 12.7685 16.0336 12.664 16.0336H3.33132C3.22672 16.0339 3.12352 16.0095 3.0301 15.9625C2.93668 15.9154 2.85568 15.847 2.79366 15.7628C2.73164 15.6785 2.69035 15.5809 2.67315 15.4777C2.65594 15.3745 2.66331 15.2687 2.69465 15.1689C3.11465 13.8183 4.08065 12.7249 5.31065 12.0636C5.46321 11.9806 5.63978 11.9528 5.81048 11.985C5.98117 12.0172 6.13549 12.1074 6.24732 12.2403L7.54665 13.7989C7.60233 13.8658 7.67205 13.9196 7.75085 13.9566C7.82966 13.9935 7.91562 14.0127 8.00265 14.0127C8.08968 14.0127 8.17565 13.9935 8.25445 13.9566C8.33325 13.9196 8.40297 13.8658 8.45865 13.7989L9.75465 12.2436C9.8666 12.1106 10.0211 12.0205 10.1919 11.9884C10.3628 11.9563 10.5394 11.9843 10.692 12.0676ZM13.7733 1.76694L9.46398 0.246271C8.53595 -0.0807128 7.52426 -0.0821235 6.59532 0.242271L2.23332 1.76894C1.96984 1.85851 1.7413 2.02888 1.5802 2.2558C1.41911 2.48272 1.33365 2.75466 1.33598 3.03294C1.33598 3.61094 1.68865 4.10694 2.23398 4.29694L6.57198 5.81027C7.49488 6.13119 8.49909 6.13119 9.42198 5.81027L13.3313 4.44694V7.36627C13.3313 7.54308 13.4016 7.71265 13.5266 7.83768C13.6516 7.9627 13.8212 8.03294 13.998 8.03294C14.1748 8.03294 14.3444 7.9627 14.4694 7.83768C14.5944 7.71265 14.6647 7.54308 14.6647 7.36627L14.6673 3.0316C14.6699 2.75366 14.585 2.48193 14.4247 2.25485C14.2644 2.02778 14.0368 1.85686 13.774 1.76627L13.7733 1.76694ZM11.9973 6.32427L9.86065 7.06961C8.65314 7.48762 7.34016 7.48762 6.13265 7.06961L3.99732 6.32427V6.69961C3.99732 8.90561 5.79132 10.6996 7.99732 10.6996C10.2033 10.6996 11.9973 8.90561 11.9973 6.69961V6.32361V6.32427Z" fill="#E50914"/>
</g>
<defs>
<clipPath id="clip0_20752_1313">
<rect width="16" height="16" fill="white"/>
</clipPath>
</defs>
</svg>
