<svg width="125" height="126" viewBox="0 0 125 126" fill="none" xmlns="http://www.w3.org/2000/svg">
<g clip-path="url(#clip0_7_72)">
<path d="M1.7304 126C0.366883 125.234 -0.00303845 124.044 1.87518e-05 122.515C0.033648 104.759 0.0214192 87.0034 0.0214192 69.2446C0.0214192 66.6576 0.813235 65.8332 3.3446 65.8301C10.1377 65.8239 16.9308 65.8178 23.7239 65.8332C27.4965 65.8424 29.34 67.7158 29.3523 71.4964C29.3553 72.6376 29.3523 73.7758 29.3523 75.077C29.8903 75.077 30.3244 75.077 30.7555 75.077C36.3685 75.077 41.9816 75.0955 47.5946 75.0709C52.0551 75.0524 55.8338 76.6028 58.9644 79.8267C62.3487 83.315 65.7911 86.748 69.1907 90.221C69.5025 90.5379 69.6952 90.9716 69.9428 91.35C75.244 88.2646 80.2333 85.3607 85.5498 82.2691C84.8558 82.2322 84.489 82.1984 84.1252 82.1984C79.0808 82.1953 74.0364 82.2015 68.995 82.1953C65.4395 82.1892 63.4921 80.2266 63.489 76.6367C63.486 53.1378 63.5135 29.642 63.4554 6.14312C63.4462 3.09463 64.4918 1.01206 67.3931 0C85.293 0 103.193 0 121.096 0C123.059 0.645996 124.361 1.95645 125.003 3.9375C125.003 28.7099 125.003 53.4854 125.003 78.2578C123.997 81.1863 121.934 82.2722 118.907 82.2291C111.423 82.1246 103.936 82.183 96.4518 82.2168C95.8404 82.2199 95.1586 82.3953 94.6267 82.6998C88.5551 86.1913 82.5079 89.7258 76.4577 93.2511C76.1642 93.4233 75.886 93.6233 75.3021 94.0078C76.0511 94.0078 76.4424 94.0078 76.8307 94.0078C79.3529 94.0078 81.8751 93.9771 84.3973 94.017C88.1912 94.0755 91.386 96.2903 92.5386 99.6003C94.5747 105.448 90.5575 111.157 84.2933 111.216C78.3134 111.274 72.3335 111.241 66.3536 111.222C63.8712 111.213 61.511 110.65 59.3771 109.327C57.5428 108.192 55.7329 107.011 53.9291 105.823C52.8071 105.085 51.6546 104.378 50.6243 103.525C49.649 102.716 49.5757 101.415 50.2513 100.419C50.8872 99.4803 52.0581 99.1266 53.1679 99.5788C53.5776 99.7449 53.9658 99.9817 54.3388 100.225C56.592 101.692 58.8482 103.156 61.0861 104.648C62.7278 105.74 64.5071 106.312 66.479 106.309C72.3763 106.297 78.2767 106.316 84.1741 106.3C86.5801 106.294 88.1821 104.808 88.1882 102.63C88.1943 100.446 86.5954 98.9451 84.2047 98.9297C81.3981 98.9143 78.5916 98.8866 75.7851 98.9358C72.5047 98.9943 69.7899 97.8253 67.497 95.4628C63.5716 91.4177 59.5544 87.4617 55.632 83.4135C53.3666 81.0756 50.6671 79.9712 47.4448 79.9866C41.8715 80.0143 36.2982 79.9928 30.7249 79.9928C30.2969 79.9928 29.8689 79.9928 29.4684 79.9928C29.4103 80.3004 29.3675 80.4204 29.3675 80.5373C29.3614 90.5041 29.3492 100.468 29.392 110.435C29.3951 110.838 29.8078 111.382 30.1808 111.616C33.1462 113.48 36.1423 115.295 39.1384 117.11C43.1158 119.522 47.4265 120.989 52.0642 121.023C64.6752 121.112 77.2862 121.097 89.8972 121.035C94.7123 121.01 99.3562 119.82 103.251 116.981C108.613 113.071 113.707 108.78 118.852 104.574C120.167 103.501 120.433 101.929 119.855 100.305C118.87 97.5331 115.382 96.6441 112.842 98.5421C109.476 101.055 106.143 103.615 102.796 106.153C101.722 106.965 100.677 107.82 99.5641 108.567C98.1363 109.527 96.5221 109.069 95.8832 107.608C95.3818 106.457 95.712 105.377 96.9715 104.418C101.349 101.077 105.7 97.6992 110.142 94.4508C114.395 91.3408 119.989 92.1344 123.074 96.2688C123.924 97.407 124.37 98.8497 125.003 100.154C125.003 101.055 125.003 101.96 125.003 102.861C124.416 106.097 122.359 108.244 119.885 110.179C116.385 112.917 112.985 115.787 109.543 118.599C105.96 121.524 101.976 123.684 97.5035 124.853C95.7089 125.323 93.8685 125.619 92.0494 125.994C78.2186 125.994 64.3848 125.994 50.554 125.994C50.2849 125.92 50.0129 125.843 49.7438 125.775C46.9954 125.102 44.0819 124.8 41.5322 123.665C37.8024 122.007 34.3324 119.749 30.7555 117.747C30.3458 117.519 29.9423 117.279 29.3614 116.944C29.3614 118.263 29.4715 119.371 29.3309 120.448C29.1811 121.595 29.0588 122.887 28.4473 123.791C27.8145 124.726 26.613 125.274 25.6592 125.988C17.6768 126 9.70359 126 1.7304 126ZM120.063 5.00801C102.792 5.00801 85.614 5.00801 68.4631 5.00801C68.4631 29.1375 68.4631 53.1809 68.4631 77.2088C85.7088 77.2088 102.857 77.2088 120.063 77.2088C120.063 53.1316 120.063 29.116 120.063 5.00801ZM4.96798 121.001C11.4951 121.001 17.9366 121.001 24.369 121.001C24.369 104.227 24.369 87.5294 24.369 70.8196C17.8541 70.8196 11.4431 70.8196 4.96798 70.8196C4.96798 87.5571 4.96798 104.23 4.96798 121.001Z" fill="#F6EFEF"/>
<path d="M34.3294 28.5776C39.3432 37.3324 44.2775 45.9488 49.2118 54.5621C51.2021 58.0381 53.1923 61.5111 55.1765 64.9903C55.3966 65.3779 55.6136 65.7778 55.7634 66.1992C56.1762 67.3651 55.7268 68.5556 54.6873 69.1524C53.6754 69.7337 52.3852 69.4753 51.624 68.5064C51.3488 68.1557 51.1348 67.7558 50.9117 67.3651C44.1094 55.488 37.304 43.6078 30.5048 31.7276C28.6032 28.4054 29.2911 25.7906 32.5684 23.8834C39.3554 19.9305 46.1455 15.9807 52.9355 12.034C53.2871 11.831 53.6356 11.6156 54.0086 11.4587C55.2804 10.9235 56.5522 11.3357 57.1698 12.4585C57.7567 13.5229 57.4694 14.8118 56.4238 15.6208C56.008 15.9438 55.5372 16.1961 55.0817 16.4637C48.5759 20.2504 42.0672 24.0341 35.5584 27.8209C35.1762 28.0424 34.8063 28.2823 34.3294 28.5776Z" fill="#F6EFEF"/>
<path d="M76.1856 28.0239C76.1978 18.0048 84.3667 9.81294 94.3056 9.84986C104.208 9.88677 112.291 18.0509 112.303 28.0239C112.316 38.0522 104.183 46.2625 94.2445 46.2625C84.3055 46.2625 76.1734 38.0491 76.1856 28.0239ZM87.8427 31.14C85.8586 26.9072 86.9745 22.336 89.57 20.2842C92.0678 18.3093 95.7364 17.9402 98.2861 19.8966C99.454 20.7918 100.518 22.1207 101.071 23.4804C102.126 26.0674 101.814 28.7591 100.64 31.137C102.276 32.4997 103.82 33.7886 105.357 35.0745C109.078 29.1713 107.733 21.9946 102.019 17.3865C97.1213 13.4367 89.405 14.0396 84.8895 18.7308C80.5024 23.2835 79.7533 30.8324 83.1988 35.0222C84.7152 33.7486 86.2346 32.4813 87.8427 31.14ZM101.759 38.8489C99.778 36.0219 97.1458 34.6253 93.8257 34.7699C90.8204 34.9022 88.4419 36.2896 86.7543 38.852C91.0191 42.1158 97.3262 42.122 101.759 38.8489ZM96.7331 26.6304C96.727 24.9754 96.1186 23.9326 94.9354 23.6496C93.9143 23.4065 92.9972 23.6219 92.3154 24.4924C91.652 25.3353 91.5236 27.4948 92.0861 28.4853C92.6242 29.4297 93.4496 29.8696 94.5227 29.7619C95.9688 29.6173 96.7392 28.513 96.7331 26.6304Z" fill="#F6EFEF"/>
<path d="M95.2106 52.1718C99.6435 52.1718 104.08 52.1657 108.512 52.178C109.035 52.178 109.583 52.1964 110.078 52.341C111.181 52.664 111.775 53.4977 111.781 54.6236C111.787 55.7494 111.197 56.5892 110.096 56.9184C109.601 57.066 109.054 57.0876 108.531 57.0876C99.6619 57.0968 90.796 57.0937 81.927 57.0937C81.6824 57.0937 81.4379 57.1029 81.1963 57.0876C79.6953 56.9891 78.6466 55.9863 78.6405 54.6451C78.6344 53.3039 79.6769 52.258 81.178 52.1903C82.2755 52.1411 83.3731 52.1749 84.4737 52.1749C88.0506 52.1718 91.6306 52.1718 95.2106 52.1718Z" fill="#F6EFEF"/>
<path d="M90.1326 63C92.9727 63 95.8159 62.9908 98.6561 63.0031C100.487 63.0123 101.554 63.9044 101.585 65.4025C101.615 66.9621 100.533 67.9127 98.6469 67.9157C92.9635 67.925 87.2802 67.925 81.5968 67.9157C79.8114 67.9127 78.6772 66.9714 78.6375 65.5163C78.5947 64.0213 79.7686 63.0093 81.606 63.0031C84.4523 62.9908 87.2924 63 90.1326 63Z" fill="#F6EFEF"/>
<path d="M111.799 65.5563C111.738 66.8391 110.533 67.9619 109.283 67.9004C108.011 67.8389 106.898 66.6269 106.956 65.3656C107.018 64.0829 108.222 62.9601 109.472 63.0216C110.744 63.0831 111.86 64.2951 111.799 65.5563Z" fill="#F6EFEF"/>
<path d="M17.1234 98.016C17.1234 99.5295 17.1479 101.046 17.1142 102.556C17.0776 104.159 16.0748 105.224 14.6838 105.214C13.3355 105.205 12.2961 104.202 12.2655 102.658C12.2074 99.548 12.2074 96.438 12.2625 93.328C12.293 91.7099 13.3416 90.7163 14.7663 90.7532C16.1849 90.7901 17.0898 91.8083 17.1173 93.4756C17.1448 94.986 17.1265 96.5026 17.1234 98.016Z" fill="#F6EFEF"/>
<path d="M17.1081 111.314C17.0745 112.609 15.9189 113.723 14.641 113.689C13.3569 113.655 12.2319 112.471 12.2747 111.197C12.3175 109.915 13.5037 108.77 14.7571 108.807C16.035 108.847 17.1387 110.025 17.1081 111.314Z" fill="#F6EFEF"/>
</g>
<defs>
<clipPath id="clip0_7_72">
<rect width="125" height="126" fill="white"/>
</clipPath>
</defs>
</svg>
