<svg width="111" height="111" viewBox="0 0 111 111" fill="none" xmlns="http://www.w3.org/2000/svg">
<path d="M9.52941 109.697C9.37305 109.697 9.21669 109.697 9.06033 109.688C6.78438 109.59 4.91672 108.729 3.3502 107.061C2.28751 105.932 1.76631 104.498 1.30301 103V53.0107C1.36961 52.9412 1.43621 52.8745 1.50281 52.805C1.87923 52.4198 2.2325 52.0549 2.60024 51.8029C4.64164 50.4098 6.82203 48.9356 9.06612 47.6091C10.9222 46.5114 10.8324 45.1241 10.4994 43.9105C8.56807 36.8755 6.65408 29.7043 4.8009 22.7706L3.33283 17.2792C3.15909 16.6334 3.13592 16.1584 3.26623 15.9412C3.34441 15.8108 3.6108 15.5531 4.52581 15.3098C8.35669 14.2874 12.1876 13.2563 16.0185 12.2252C18.7693 11.4867 21.5172 10.7452 24.2883 9.99798L29.0429 8.71783V7.71861C29.0429 7.23783 29.0487 6.75994 29.0545 6.28495C29.066 5.20174 29.0776 4.08088 29.0255 2.9716C28.9792 1.99266 29.2571 1.58139 29.7697 1.30334H81.1985C81.711 1.58139 81.9889 1.99556 81.9426 2.9745C81.8905 4.08667 81.9021 5.20464 81.9137 6.28495C81.9195 6.75704 81.9252 7.22624 81.9252 7.70123V8.69176L83.3007 9.07696C83.5815 9.15516 83.8363 9.22757 84.0941 9.29708C86.1934 9.86475 88.2956 10.4266 90.3949 10.9914C95.688 12.4135 101.161 13.8848 106.535 15.359C107.971 15.7529 107.971 15.7529 107.603 17.1895C106.364 22.0378 105.073 26.9296 103.749 31.9344C102.933 35.0219 102.105 38.1064 101.277 41.1967C100.909 42.5667 99.9359 46.2015 99.9359 46.2015L100.7 46.7228L101.051 46.9632C101.291 47.1283 101.517 47.2847 101.746 47.4353L103.512 48.5938C105.249 49.735 107.045 50.9138 108.825 52.0607C109.48 52.4835 109.7 52.9064 109.697 53.7434C109.668 65.6356 109.668 77.7275 109.671 89.4227C109.671 93.3153 109.671 97.2079 109.671 101.103C109.671 106.407 106.382 109.7 101.091 109.702L9.52941 109.697ZM5.38002 107.524L8.51306 107.539C28.0989 107.635 45.7534 107.71 63.5121 107.71C77.8077 107.71 90.6323 107.658 102.721 107.553L105.837 107.527L74.7326 76.5372L73.612 77.2612C73.3948 77.4032 73.1342 77.5711 72.8736 77.7391C71.4837 78.6457 70.0938 79.5522 68.7039 80.4587C64.6877 83.077 60.5325 85.7821 56.47 88.4814C56.1081 88.7218 55.8069 88.8377 55.5492 88.8377C55.3407 88.8377 55.1149 88.7624 54.8514 88.6031C54.5763 88.438 54.2983 88.2787 54.0203 88.1194C53.5426 87.8471 53.0937 87.5894 52.6623 87.3055C48.6635 84.6844 44.6704 82.0575 40.7961 79.5087L36.3977 76.6154L5.38002 107.524ZM77.0317 75.0311L107.682 106.128V55.1278L77.0317 75.0311ZM3.43996 106.126L34.0494 75.0137L3.43996 55.1423V106.126ZM31.1161 4.57904C31.1074 4.70358 31.0988 4.82233 31.0901 4.93239C31.0698 5.18726 31.0495 5.43055 31.0495 5.69411V20.8822C31.0495 36.9537 31.0466 53.0251 31.035 69.0966C31.035 70.2088 31.4578 71.0024 32.367 71.5932C39.6871 76.3431 46.9753 81.1046 54.029 85.7415C54.5242 86.0688 55.0048 86.2252 55.4913 86.2252C56.1457 86.2252 56.664 85.9356 56.9941 85.7184C64.8759 80.5427 71.9007 75.955 78.4766 71.6946C79.4958 71.0342 79.9476 70.1856 79.9476 68.9402C79.9302 52.3358 79.9302 35.4563 79.9302 19.13V5.86209C79.9302 5.56667 79.9128 5.27704 79.8983 4.999C79.8925 4.87156 79.8838 4.74123 79.8781 4.60511L79.823 3.3597H31.1943L31.1161 4.57904ZM82.0295 69.4123L84.0477 68.0858C84.7803 67.605 85.5071 67.13 86.2252 66.6608C88.3593 65.2677 90.3746 63.9499 92.4015 62.5626C93.1254 62.0673 93.7451 61.1927 93.9796 60.3354C96.6783 50.4417 99.3857 40.3713 102.003 30.634L103.063 26.6922C103.567 24.8212 104.065 22.9502 104.569 21.0589L105.608 17.1547L81.9774 10.8205V18.2929L82.9387 18.5536C83.7263 18.7679 84.511 18.9794 85.2957 19.1908C87.1229 19.6831 89.0108 20.1958 90.8582 20.7142C91.8253 20.9865 91.9788 21.2095 91.889 22.2087C91.6805 24.5113 92.3407 25.5974 94.5008 26.5097C95.3695 26.8775 95.3377 27.3177 95.2276 27.7377C94.0694 32.224 92.8735 36.722 91.6718 41.104C91.5415 41.5848 91.1796 41.8716 90.7105 41.8716C90.6236 41.8716 90.5339 41.86 90.447 41.8397C90.1893 41.7789 89.9982 41.6485 89.8766 41.4516C89.7028 41.1649 89.6768 40.7478 89.7984 40.2786C90.6034 37.2143 91.5647 33.5882 92.5666 29.9447C92.6969 29.4726 93.0415 28.2185 91.7906 27.1874C90.8292 26.3938 90.2154 25.3106 89.9171 23.8712C89.8302 23.4599 89.5349 22.4752 88.6257 22.2087C87.3429 21.8322 86.0399 21.4875 84.7774 21.1545L83.6626 20.859L82.0237 20.4217V69.4123H82.0295ZM5.50742 17.1257L5.70432 18.2958C5.71591 18.3567 5.7217 18.4117 5.73038 18.4638C5.75065 18.5999 5.77092 18.739 5.81436 18.9012L6.63092 21.9307C10.0506 34.6338 13.5862 47.7684 17.0898 60.68C17.307 61.4765 17.9238 62.1253 18.4276 62.467C20.5414 63.892 22.7044 65.3112 24.7979 66.6811L26.1183 67.5471C26.3355 67.689 26.5498 67.8049 26.7553 67.9178C26.8422 67.9642 26.9291 68.0134 27.0217 68.0655L28.9676 69.169V20.4188L27.3316 20.8503C26.9117 20.9604 26.4947 21.0676 26.0836 21.1747C24.9195 21.4759 23.8221 21.7569 22.7102 22.0986C21.9631 22.3275 21.2595 23.0805 21.0713 23.848C20.7093 25.328 20.1215 26.3707 19.221 27.1295C18.057 28.1113 18.1988 29.2177 18.4073 29.9649C19.1776 32.7396 19.9246 35.575 20.6456 38.3207L21.1118 40.0875C21.1784 40.3365 21.2479 40.6204 21.2537 40.8434C21.2653 41.3184 20.9497 41.7267 20.4893 41.831C20.4198 41.8455 20.3503 41.8542 20.2808 41.8542C19.8986 41.8542 19.5424 41.6167 19.3745 41.2518C19.2673 41.0229 19.192 40.7391 19.1139 40.4437C18.0599 36.3947 17.0088 32.3486 15.9634 28.2996C15.6333 27.0223 15.6855 26.9123 16.864 26.3475C18.4392 25.5945 19.2123 24.2361 19.0444 22.5215C18.9112 21.1545 18.9546 21.0849 20.2808 20.72C22.0963 20.219 23.909 19.7121 25.7071 19.2082L28.9676 18.2987V10.835L5.50742 17.1257ZM96.1571 60.1297L106.813 53.1902L99.3162 48.2897L96.1571 60.1297ZM4.16676 53.1873L14.8284 60.121L11.649 48.3013L4.16676 53.1873Z" fill="white"/>
<path d="M90.447 21.9567C90.4673 21.9625 90.4876 21.9683 90.5078 21.9741C90.5426 21.9828 90.5715 21.9915 90.6005 22.0002C90.5976 22.0291 90.5976 22.061 90.5918 22.0957C90.5889 22.1131 90.5889 22.1305 90.586 22.145C90.5426 22.0813 90.4962 22.0175 90.447 21.9567ZM20.6485 21.9712C20.5385 22.0957 20.4343 22.229 20.3416 22.3651C20.33 22.2492 20.3242 22.1508 20.3184 22.0697C20.4024 22.0407 20.5067 22.0117 20.6312 21.977C20.637 21.9741 20.6427 21.9741 20.6485 21.9712ZM93.7277 27.5958C93.7856 27.6218 93.8436 27.6479 93.9015 27.674C93.8812 27.7493 93.8609 27.8246 93.8436 27.8999C93.8088 27.7956 93.7712 27.6942 93.7277 27.5958ZM17.252 27.6103C17.2259 27.6682 17.2028 27.7261 17.1825 27.7869C17.1709 27.7406 17.1622 27.7 17.1564 27.6624C17.1825 27.645 17.2144 27.6276 17.252 27.6103ZM11.8285 46.2247C11.8604 46.3405 11.8893 46.4535 11.9212 46.5664L11.6316 46.7547C11.7098 46.5838 11.7764 46.4071 11.8285 46.2247ZM75.4073 75.2367L77.2257 77.0817L82.6405 82.573L76.3976 76.3518L75.3291 75.286C75.3522 75.2715 75.3812 75.2541 75.4073 75.2367ZM35.6304 75.2657C35.6854 75.3004 35.7404 75.3381 35.7954 75.3728L34.727 76.4358L21.8792 89.2402L30.1924 80.7889L33.8583 77.0643L35.6304 75.2657ZM81.4967 0C64.1579 0 46.8161 0 29.4772 0C28.1424 0.579256 27.6588 1.60454 27.7254 3.03241C27.7978 4.57613 27.7428 6.12853 27.7428 7.71859C23.6744 8.81339 19.6785 9.8937 15.6826 10.9682C11.8546 11.9993 8.02371 13.0275 4.19283 14.0499C2.11379 14.606 1.52888 15.5704 2.07615 17.6152C4.45344 26.4981 6.81335 35.3839 9.24566 44.2523C9.5439 45.3413 9.40781 45.8887 8.40593 46.4824C6.17053 47.8031 4.0133 49.2571 1.86766 50.7226C1.17272 51.1976 0.619659 51.8753 0 52.4633C0 69.3746 0 86.2831 0 103.195C0.527 104.918 1.12639 106.598 2.40045 107.953C4.19573 109.865 6.39059 110.875 9.00243 110.988C9.17906 110.997 9.35279 110.997 9.52942 110.997C9.64235 110.997 9.75528 110.997 9.86821 110.997C26.5585 110.997 43.2458 110.997 59.9361 110.997C73.6525 110.997 87.3719 110.997 101.088 110.997C107.088 110.997 110.971 107.107 110.971 101.098C110.974 85.3129 110.959 69.5281 110.997 53.7434C111 52.4633 110.554 51.6233 109.526 50.9601C107.16 49.4366 104.812 47.8842 102.458 46.3405C102.131 46.1262 101.809 45.9003 101.433 45.6425C102.629 41.1707 103.83 36.7191 105.009 32.2646C106.309 27.3496 107.606 22.4346 108.866 17.508C109.407 15.3879 109.022 14.6841 106.88 14.0962C99.406 12.0456 91.918 10.0501 84.4328 8.03139C84.0564 7.93002 83.68 7.82286 83.2254 7.69542C83.2254 6.12564 83.1704 4.57323 83.2428 3.02951C83.3123 1.60744 82.8287 0.579256 81.4967 0ZM55.4884 84.9219C55.2568 84.9219 55.0222 84.835 54.7414 84.6525C47.5342 79.9142 40.3097 75.1991 33.0736 70.5013C32.5118 70.1364 32.3352 69.7454 32.3352 69.0995C32.3497 47.9653 32.3468 26.8312 32.3497 5.69409C32.3497 5.3784 32.3873 5.0598 32.4134 4.66301C47.8527 4.66301 63.1589 4.66301 78.5693 4.66301C78.5895 5.09456 78.6214 5.47977 78.6214 5.86207C78.6243 26.8891 78.6185 47.9161 78.6416 68.9402C78.6416 69.7135 78.4274 70.1711 77.7672 70.5998C70.589 75.2512 63.4282 79.9316 56.2789 84.6294C55.9865 84.8176 55.7403 84.9219 55.4884 84.9219ZM90.7134 43.1778C91.724 43.1778 92.6332 42.5406 92.9314 41.4516C94.1505 37 95.3377 32.5368 96.4901 28.065C96.8202 26.7819 96.2498 25.8348 95.0076 25.3106C93.3774 24.6213 93.0299 24.0565 93.1863 22.3274C93.331 20.72 92.7982 19.909 91.2115 19.4601C88.5765 18.7187 85.9328 18.0178 83.2804 17.2937C83.2804 15.7036 83.2804 14.1628 83.2804 12.5177C90.2067 14.3742 97.0577 16.2105 104.016 18.0757C103.269 20.8735 102.542 23.6134 101.806 26.3533C98.7892 37.5677 95.7778 48.785 92.723 59.9907C92.5695 60.5497 92.1438 61.1579 91.6661 61.4852C88.9558 63.3417 86.1934 65.1171 83.3325 66.9968C83.3325 52.0143 83.3325 37.1332 83.3325 22.1218C84.9685 22.5562 86.6248 22.9791 88.2637 23.4599C88.4462 23.512 88.5938 23.8885 88.646 24.1376C88.9818 25.7451 89.6971 27.1469 90.9653 28.1924C91.4923 28.6269 91.4749 29.0178 91.3157 29.6C90.3688 33.0437 89.4538 36.4932 88.5446 39.9484C88.1363 41.5037 88.8139 42.8013 90.1574 43.1112C90.3428 43.1575 90.531 43.1778 90.7134 43.1778ZM27.6646 66.9302C27.3663 66.7593 27.0884 66.6232 26.8335 66.4552C24.268 64.7725 21.6967 63.0984 19.1544 61.3838C18.804 61.1463 18.4537 60.735 18.3465 60.3354C14.5707 46.4158 10.8238 32.4876 7.07396 18.5594C7.03921 18.4261 7.02473 18.2842 6.98998 18.0757C13.8699 16.2308 20.7209 14.3945 27.6646 12.5322C27.6646 14.1454 27.6646 15.6718 27.6646 17.3082C25.1222 18.0178 22.5307 18.7447 19.9362 19.463C17.9991 19.9988 17.5531 20.6418 17.75 22.6489C17.8659 23.8277 17.3939 24.6474 16.3022 25.1716C14.5649 26.0028 14.2145 26.7443 14.701 28.624C15.7463 32.673 16.7974 36.722 17.8514 40.771C17.9411 41.1185 18.0396 41.4719 18.1902 41.7962C18.5811 42.6449 19.4092 43.1575 20.2808 43.1575C20.4458 43.1575 20.6138 43.1401 20.7817 43.0996C21.8357 42.8592 22.5828 41.9179 22.5567 40.8115C22.548 40.4582 22.4641 40.099 22.3714 39.7515C21.4796 36.3686 20.5993 32.9829 19.6611 29.6145C19.4816 28.9715 19.5279 28.5747 20.0607 28.1229C21.2885 27.086 21.9545 25.7074 22.3338 24.155C22.412 23.8335 22.7768 23.4367 23.0895 23.3411C24.5663 22.8864 26.072 22.5244 27.6588 22.1073C27.6646 37.0637 27.6646 51.9477 27.6646 66.9302ZM98.2912 57.1842C98.9311 54.789 99.4987 52.6631 100.113 50.3663C101.598 51.3366 102.959 52.2258 104.43 53.1873C102.374 54.5283 100.454 55.7766 98.2912 57.1842ZM12.6827 57.1726C10.5197 55.765 8.60283 54.5196 6.55275 53.1844C8.00055 52.2402 9.34121 51.3627 10.8556 50.375C11.4608 52.6283 12.037 54.7687 12.6827 57.1726ZM106.379 102.948C97.1503 93.5847 88.1363 84.4411 79.0818 75.2541C87.9568 69.4905 97.104 63.5531 106.379 57.5289C106.379 72.6909 106.379 87.656 106.379 102.948ZM4.743 102.943C4.743 87.6878 4.743 72.7083 4.743 57.5404C13.9684 63.5299 23.1127 69.4644 32.0022 75.2367C22.9476 84.4411 13.9452 93.5905 4.743 102.943ZM55.5463 90.1381C56.0849 90.1381 56.6177 89.9411 57.1881 89.5646C62.6319 85.953 68.1161 82.4021 73.5859 78.831C73.9479 78.5935 74.3127 78.3618 74.5588 78.2025C83.9203 87.5314 93.2529 96.8285 102.71 106.253C89.6333 106.366 76.5655 106.409 63.5121 106.409C45.1511 106.409 26.8133 106.325 8.52176 106.239C17.8108 96.982 27.1231 87.7023 36.5686 78.2865C41.5171 81.5419 46.7292 84.9769 51.95 88.3974C52.6739 88.8724 53.4412 89.2779 54.1825 89.721C54.6516 90.002 55.1004 90.1381 55.5463 90.1381Z" fill="white"/>
<path d="M55.4392 68.0713C46.0632 68.0713 38.3841 60.4425 38.3204 51.0672C38.2885 46.3984 40.078 42.0077 43.3558 38.703C46.5758 35.4563 50.8439 33.6693 55.3726 33.6664C60.0113 33.6664 64.3432 35.4418 67.5833 38.6683C70.8264 41.8947 72.6246 46.2189 72.6478 50.85C72.6999 60.2919 65.0236 68.0192 55.5376 68.0742L55.4392 68.0713ZM55.4363 35.7198C47.1491 35.7198 40.3676 42.4334 40.3126 50.6878C40.2576 59.0957 47.0159 65.9918 55.3755 66.0613H55.5029C63.8104 66.0613 70.6064 59.3072 70.6556 51.0064C70.7048 42.6304 63.9204 35.7749 55.5347 35.7198H55.4363Z" fill="white"/>
<path d="M55.3842 32.363C55.3813 32.363 55.3755 32.363 55.3726 32.363C45.2003 32.3688 36.9479 40.7854 37.0174 51.0759C37.0869 61.1724 45.3538 69.3746 55.4392 69.3746C55.4739 69.3746 55.5116 69.3746 55.5463 69.3746C65.7707 69.3167 74.0058 61.0217 73.9537 50.8413C73.8958 40.5537 65.6636 32.3601 55.3842 32.363ZM55.5029 64.7579C55.4653 64.7579 55.4247 64.7579 55.3871 64.7579C47.7079 64.6942 41.5693 58.4209 41.6185 50.6965C41.6677 43.172 47.8933 37.0261 55.4363 37.0261C55.4653 37.0261 55.4971 37.0261 55.5261 37.0261C63.2602 37.0753 69.396 43.282 69.3526 51.0035C69.3091 58.5657 63.0633 64.7579 55.5029 64.7579Z" fill="white"/>
<path d="M39.3165 31.0395C39.2586 31.0395 39.1978 31.0366 39.137 31.0279C38.775 30.9845 38.3494 30.7412 38.3465 30.1938C38.3117 25.3251 38.3146 20.5549 38.3494 16.0165C38.3552 15.4343 38.8735 15.2374 39.3078 15.1737C41.6069 14.8406 42.6175 13.8472 42.9128 11.6286C43.0084 10.9045 43.2198 10.5773 44.2159 10.5744C45.8171 10.5686 47.4184 10.5657 49.0197 10.5657L55.4797 10.5686L61.9977 10.5657C63.5092 10.5657 65.0179 10.5657 66.5294 10.5715C67.7426 10.5744 67.8816 10.6207 68.0843 11.9617C68.3478 13.7081 69.5611 14.9014 71.3303 15.1534C72.5319 15.3243 72.6565 15.4633 72.6565 16.645C72.6651 20.4941 72.6651 24.7111 72.6565 29.5363C72.6536 31.0308 72.0397 31.0337 71.6748 31.0366C71.672 31.0366 71.6719 31.0366 71.6691 31.0366C71.3592 31.0366 70.6643 31.0279 70.6614 29.5653L70.6585 27.9723C70.6527 25.0529 70.6469 22.0321 70.6759 19.0692C70.6817 18.2987 70.5311 17.2011 69.1325 16.561C68.0438 16.0628 67.1896 15.1939 66.5265 13.908C66.15 13.181 65.235 12.6047 64.4416 12.6018C61.4678 12.5844 58.4477 12.5757 55.4595 12.5757C52.5118 12.5757 49.5119 12.5844 46.5497 12.6018C45.7476 12.6076 44.8268 13.1752 44.4533 13.8935C43.8047 15.1447 42.881 16.0715 41.6243 16.7261C40.8309 17.1402 40.3473 18.1655 40.3386 18.9186C40.3126 21.0415 40.3126 23.1993 40.3126 25.2846C40.3126 26.8138 40.3126 28.3431 40.3039 29.8723C40.301 30.2198 40.2025 31.0395 39.3165 31.0395Z" fill="white"/>
<path d="M66.3325 11.8777C66.3962 11.8777 66.4599 11.8777 66.5265 11.8777C66.6104 11.8777 66.6857 11.8806 66.7494 11.8835C66.7639 11.9588 66.7813 12.0515 66.7986 12.1615C66.8015 12.1818 66.8044 12.205 66.8073 12.2253C66.6568 12.0978 66.4975 11.982 66.3325 11.8777ZM44.6328 11.8806C44.4562 11.9907 44.2882 12.1152 44.1319 12.2484C44.155 12.1297 44.1753 12.008 44.1927 11.8835C44.2014 11.8835 44.2101 11.8835 44.2216 11.8835C44.3577 11.8806 44.4967 11.8806 44.6328 11.8806ZM40.0172 16.3785C39.8782 16.5407 39.7537 16.7145 39.6437 16.8941C39.6437 16.7435 39.6466 16.5929 39.6466 16.4451C39.774 16.4249 39.8985 16.4017 40.0172 16.3785ZM71.116 16.4422C71.1276 16.4451 71.1363 16.4451 71.1478 16.448C71.226 16.4596 71.2955 16.4712 71.3534 16.4828C71.3563 16.532 71.3563 16.59 71.3563 16.6537C71.3563 16.6913 71.3563 16.729 71.3563 16.7666C71.281 16.6479 71.2 16.5407 71.116 16.4422ZM49.0428 9.26526C47.4329 9.26526 45.8229 9.26816 44.21 9.27395C42.6406 9.27974 41.8154 10.0067 41.6214 11.4577C41.4013 13.097 40.8483 13.6357 39.1196 13.8877C37.9092 14.0615 37.0521 14.8406 37.0434 16.0107C37.0058 20.7432 37.0058 25.4757 37.0405 30.2083C37.0492 31.361 37.9034 32.198 38.9806 32.3255C39.0935 32.3399 39.2065 32.3457 39.3136 32.3457C40.6369 32.3457 41.5953 31.3697 41.604 29.8781C41.6272 26.2288 41.5953 22.5795 41.6388 18.933C41.6417 18.571 41.9196 18.0381 42.2237 17.8817C43.7236 17.0997 44.8326 15.9904 45.6057 14.493C45.7563 14.2034 46.2283 13.908 46.5526 13.9051C49.5206 13.8877 52.4857 13.879 55.4537 13.879C58.4448 13.879 61.4389 13.8877 64.43 13.9051C64.7514 13.908 65.2147 14.215 65.3653 14.5075C66.1037 15.9383 67.1287 17.0794 68.5881 17.7485C69.2252 18.041 69.3786 18.403 69.3728 19.0605C69.341 22.565 69.3526 26.0695 69.3584 29.574C69.3612 31.3291 70.2155 32.3486 71.6661 32.3486C71.6719 32.3486 71.6777 32.3486 71.6806 32.3486C73.1429 32.3428 73.9566 31.3552 73.9595 29.5479C73.9682 25.2498 73.9682 20.9489 73.9595 16.6508C73.9566 14.8145 73.3369 14.131 71.5127 13.8732C70.3052 13.7024 69.5495 12.9638 69.3699 11.7792C69.0804 9.859 68.4404 9.28553 66.5293 9.27974C65.0265 9.27684 63.5266 9.27395 62.0238 9.27395C59.8405 9.27395 57.6572 9.27684 55.4768 9.27684C55.3987 9.27684 55.3205 9.27684 55.2423 9.27684C53.1777 9.26815 51.1103 9.26526 49.0428 9.26526Z" fill="white"/>
<path d="M55.4855 24.1144C54.9325 24.1144 54.4894 23.6945 54.475 23.1586C54.4692 22.9038 54.5763 22.6431 54.7674 22.4433C54.9614 22.2434 55.222 22.1276 55.4826 22.1276C55.7461 22.1276 56.0067 22.2434 56.2036 22.4462C56.3947 22.6431 56.5019 22.9009 56.4961 23.15C56.4845 23.6887 56.0415 24.1115 55.4855 24.1144Z" fill="white"/>
<path d="M55.4855 20.8242C54.2086 20.8271 53.1401 21.919 53.1748 23.1905C53.2067 24.433 54.2288 25.4177 55.4884 25.4177C55.4913 25.4177 55.4913 25.4177 55.4942 25.4177C56.7538 25.4148 57.7731 24.4301 57.8049 23.1818C57.831 21.9161 56.7596 20.8242 55.4855 20.8242Z" fill="white"/>
</svg>
