<svg width="135" height="135" viewBox="0 0 135 135" fill="none" xmlns="http://www.w3.org/2000/svg">
<path d="M63.3048 134.648C62.5123 134.539 61.7198 134.437 60.9273 134.335C59.2402 134.116 57.4967 133.891 55.7919 133.613C43.1083 131.552 30.7664 125.283 21.038 115.967C11.3061 106.644 4.51872 94.5812 1.92635 81.9969C-2.03969 62.7278 1.56004 44.8463 12.6234 28.8491C13.1693 28.0637 13.1975 27.4614 12.7326 26.6267C10.6509 22.8969 11.2039 18.4626 14.1415 15.3315C15.9449 13.412 18.502 12.3096 21.1613 12.3096C22.5807 12.3096 23.9544 12.6125 25.2365 13.2147C29.0722 15.0075 31.2349 18.9346 30.7418 23.2174C30.2698 27.3382 27.0117 30.7757 22.9999 31.3921C22.5455 31.4625 22.0559 31.4942 21.5029 31.4942C20.6928 31.4942 19.8475 31.4202 18.9528 31.3427C18.2449 31.2829 17.5122 31.2195 16.7374 31.1878L16.5542 31.1843L16.4415 31.3357C14.2366 34.3224 12.162 37.9255 10.4431 41.7539C-3.33939 72.4134 9.33009 108.229 39.2832 123.289C48.3353 127.843 57.7362 130.15 67.2145 130.15C74.6218 130.15 82.2404 128.742 89.859 125.959C89.9999 125.906 90.1408 125.854 90.2817 125.797C90.4648 125.723 90.648 125.653 90.8346 125.589C91.1833 125.473 91.5321 125.413 91.8631 125.413C92.8635 125.413 93.6524 125.952 93.9765 126.85C94.1949 127.456 94.1737 128.083 93.9166 128.615C93.6419 129.185 93.1241 129.615 92.4232 129.855C91.8913 130.034 91.3595 130.217 90.8276 130.404C88.2951 131.277 85.6781 132.183 83.047 132.774C80.6483 133.317 78.1511 133.651 75.7348 133.975C74.6464 134.123 73.5229 134.275 72.4204 134.44C72.1738 134.479 71.9308 134.535 71.6948 134.588C71.6032 134.609 71.5081 134.63 71.4165 134.652H63.3048V134.648ZM21.1402 16.8601C18.3717 16.8742 16.0893 19.1388 16.047 21.9036C16.0259 23.2491 16.5436 24.5276 17.5017 25.4997C18.4738 26.4858 19.7735 27.0318 21.1578 27.0318C23.9861 27.0247 26.2086 24.8234 26.2298 22.0199C26.2403 20.6287 25.712 19.3255 24.7434 18.3499C23.7889 17.3884 22.5209 16.8601 21.1719 16.8601H21.1402Z" fill="white"/>
<path d="M21.1613 12.6653C22.5315 12.6653 23.8523 12.9577 25.0886 13.5353C28.787 15.2646 30.8686 19.0473 30.3931 23.1787C29.9387 27.1445 26.8075 30.4517 22.9471 31.0434C22.5103 31.1103 22.0383 31.142 21.503 31.142C20.7069 31.142 19.8687 31.0681 18.9846 30.9941C18.2731 30.9342 17.5334 30.8673 16.755 30.8356L16.3816 30.8215L16.1597 31.1209C13.9407 34.1287 11.852 37.7529 10.1226 41.6025C-3.73386 72.4346 9.00607 108.451 39.1282 123.596C48.2297 128.175 57.6834 130.496 67.2181 130.496C74.6641 130.496 82.325 129.08 89.9823 126.283C90.1267 126.23 90.2711 126.174 90.412 126.118C90.5987 126.044 90.7748 125.973 90.9474 125.917C91.2609 125.811 91.5708 125.758 91.8632 125.758C92.7191 125.758 93.3672 126.199 93.6454 126.963C93.8356 127.488 93.818 128.002 93.5996 128.456C93.3672 128.942 92.9198 129.309 92.307 129.517C91.7751 129.696 91.2468 129.879 90.7149 130.062C88.1895 130.932 85.583 131.834 82.9695 132.422C80.585 132.961 78.0947 133.296 75.6855 133.62C74.5972 133.768 73.47 133.919 72.3641 134.088C72.1034 134.127 71.8533 134.187 71.6138 134.243C71.5328 134.261 71.4553 134.282 71.3743 134.299H63.3295C62.5476 134.194 61.7621 134.092 60.9767 133.99C59.2895 133.771 57.5495 133.546 55.8483 133.268C49.4449 132.229 43.1823 130.15 37.2333 127.1C31.4286 124.124 26.0643 120.292 21.2846 115.714C16.5049 111.135 12.4473 105.936 9.22445 100.266C5.92059 94.451 3.58183 88.2803 2.27508 81.9265C0.306148 72.3747 0.196959 63.0976 1.94047 54.3524C3.69806 45.5472 7.38937 37.0344 12.9122 29.0499C13.5321 28.1553 13.5674 27.4051 13.039 26.4577C11.0349 22.8617 11.5667 18.593 14.3986 15.5746C16.1351 13.7255 18.6006 12.6653 21.1613 12.6653ZM21.1578 27.384H21.1719C24.1834 27.377 26.5574 25.0207 26.582 22.0199C26.5926 20.5371 26.029 19.1424 24.9935 18.0999C23.9756 17.0714 22.616 16.5079 21.1719 16.5079H21.1402C18.1815 16.5255 15.7406 18.9416 15.6983 21.9002C15.6772 23.3407 16.2302 24.7072 17.2552 25.7498C18.2907 26.8029 19.6784 27.384 21.1578 27.384ZM21.1613 11.9609C18.4598 11.9609 15.804 13.0493 13.8844 15.0956C10.8693 18.3077 10.26 22.9251 12.4262 26.8029C12.8312 27.5284 12.796 27.9828 12.3346 28.6519C1.08808 44.9062 -2.39189 62.756 1.58472 82.0674C6.97374 108.236 29.3787 129.675 55.7391 133.961C58.2434 134.37 60.7689 134.659 63.2837 135C66.0099 135 68.7326 135 71.4589 135C71.797 134.926 72.1351 134.835 72.4768 134.782C76.0307 134.24 79.6304 133.898 83.128 133.109C86.3227 132.391 89.4293 131.239 92.5394 130.182C94.1632 129.629 94.8289 128.161 94.3111 126.727C93.9272 125.663 92.9938 125.058 91.8667 125.058C91.5004 125.058 91.1164 125.121 90.7255 125.255C90.3944 125.368 90.0704 125.508 89.7428 125.628C82.17 128.393 74.657 129.798 67.2181 129.798C57.8243 129.798 48.5537 127.555 39.4452 122.976C9.68586 108.011 -2.88852 72.2655 10.7637 41.8949C12.4755 38.0875 14.5501 34.4915 16.7268 31.5436C18.4703 31.6175 20.0307 31.85 21.5065 31.85C22.0348 31.85 22.5491 31.8183 23.0563 31.7408C27.3358 31.0822 30.615 27.4263 31.094 23.2562C31.6012 18.8466 29.3399 14.7398 25.388 12.8943C24.0355 12.2638 22.5949 11.9609 21.1613 11.9609ZM21.1578 26.6796C18.5161 26.6796 16.364 24.5241 16.4028 21.9107C16.4415 19.3502 18.583 17.2264 21.1437 17.2123C21.1543 17.2123 21.1613 17.2123 21.1684 17.2123C23.7889 17.2123 25.8952 19.3608 25.8741 22.0164C25.8529 24.6262 23.7854 26.6726 21.1684 26.6796C21.1648 26.6796 21.1613 26.6796 21.1578 26.6796Z" fill="white"/>
<path d="M113.821 122.677C112.391 122.677 111.017 122.37 109.742 121.764C105.91 119.943 103.758 116.013 104.261 111.744C104.748 107.613 108.013 104.182 112.021 103.587C112.465 103.52 112.944 103.488 113.479 103.488C114.303 103.488 115.159 103.566 116.068 103.643C116.769 103.707 117.494 103.77 118.259 103.802L118.445 103.809L118.558 103.657C121.489 99.6564 123.905 95.2398 125.55 90.8865C133.119 70.8601 131.238 51.4924 119.964 33.3186C119.46 32.5085 119.16 31.5857 119.157 30.8531C119.153 29.8388 119.995 29.2894 120.784 29.1097C120.996 29.0604 121.203 29.0358 121.401 29.0358C122.183 29.0358 122.838 29.4302 123.355 30.2051C126.138 34.3822 128.428 38.7954 130.16 43.3142C132.534 49.4989 133.968 55.8808 134.429 62.2839C134.451 62.5974 134.514 62.9038 134.577 63.1997C134.602 63.3194 134.627 63.4427 134.648 63.5625V71.4201C134.542 72.2197 134.443 73.0192 134.345 73.8187C134.134 75.541 133.912 77.3231 133.623 79.056C132.02 88.6853 128.283 97.7299 122.517 105.936C121.859 106.873 121.813 107.542 122.334 108.493C124.356 112.167 123.718 116.693 120.753 119.76C118.963 121.613 116.438 122.677 113.821 122.677ZM113.821 107.954C111.01 107.965 108.795 110.17 108.777 112.977C108.766 114.365 109.298 115.664 110.267 116.64C111.218 117.598 112.486 118.126 113.835 118.126H113.874C116.642 118.105 118.924 115.837 118.96 113.068C118.977 111.723 118.46 110.448 117.505 109.483C116.533 108.497 115.233 107.954 113.845 107.954H113.821Z" fill="white"/>
<path d="M121.401 29.3915C122.066 29.3915 122.609 29.7226 123.063 30.4059C125.832 34.5619 128.107 38.9504 129.833 43.4481C132.193 49.6011 133.623 55.9478 134.077 62.3157C134.102 62.6538 134.165 62.9708 134.229 63.2772C134.25 63.3864 134.274 63.4921 134.292 63.6012V71.4026C134.186 72.1951 134.091 72.9875 133.993 73.78C133.781 75.4987 133.559 77.2774 133.274 79.0032C131.682 88.5832 127.963 97.575 122.228 105.736C121.619 106.606 121.348 107.437 122.024 108.666C123.968 112.202 123.355 116.562 120.495 119.517C118.77 121.3 116.336 122.321 113.817 122.321C112.44 122.321 111.116 122.025 109.89 121.44C106.199 119.686 104.124 115.893 104.607 111.779C105.075 107.803 108.213 104.503 112.07 103.929C112.5 103.865 112.958 103.834 113.476 103.834C114.286 103.834 115.135 103.908 116.033 103.989C116.737 104.052 117.47 104.115 118.238 104.151L118.615 104.168L118.836 103.865C121.785 99.8396 124.218 95.3948 125.874 91.0134C133.482 70.8813 131.594 51.4079 120.256 33.1355C119.787 32.3782 119.506 31.5259 119.502 30.8532C119.502 30.0466 120.2 29.6029 120.855 29.4549C121.052 29.4127 121.232 29.3915 121.401 29.3915ZM113.831 118.478H113.874C116.832 118.457 119.27 116.031 119.308 113.072C119.326 111.631 118.773 110.268 117.752 109.233C116.713 108.18 115.325 107.602 113.842 107.602H113.821C110.813 107.613 108.442 109.973 108.425 112.973C108.414 114.456 108.981 115.844 110.017 116.886C111.031 117.911 112.387 118.478 113.831 118.478ZM121.401 28.6871C121.179 28.6871 120.946 28.7153 120.707 28.7681C119.622 29.0147 118.801 29.786 118.805 30.8567C118.808 31.7478 119.182 32.734 119.664 33.5088C130.942 51.6861 132.774 70.7827 125.222 90.7668C123.447 95.4617 120.953 99.7939 118.273 103.453C116.536 103.376 114.966 103.136 113.479 103.136C112.968 103.136 112.465 103.164 111.968 103.238C107.706 103.872 104.399 107.539 103.909 111.702C103.391 116.104 105.632 120.201 109.591 122.081C110.936 122.719 112.38 123.029 113.821 123.029C116.473 123.029 119.097 121.979 121.006 120.01C124.067 116.848 124.764 112.181 122.644 108.331C122.165 107.461 122.257 106.93 122.806 106.148C128.547 97.98 132.33 88.9847 133.971 79.1229C134.394 76.58 134.662 74.0089 135 71.4519C135 68.8139 135 66.1794 135 63.5414C134.926 63.1187 134.81 62.6961 134.782 62.2699C134.31 55.6978 132.848 49.344 130.492 43.198C128.709 38.5489 126.409 34.1639 123.648 30.0185C123.077 29.152 122.323 28.6871 121.401 28.6871ZM113.831 117.774C111.218 117.774 109.112 115.629 109.129 112.98C109.147 110.364 111.2 108.321 113.824 108.31C113.831 108.31 113.838 108.31 113.842 108.31C116.487 108.31 118.636 110.455 118.604 113.068C118.572 115.625 116.427 117.76 113.87 117.777C113.852 117.774 113.842 117.774 113.831 117.774Z" fill="white"/>
<path d="M79.6727 104.284C77.6439 104.284 75.6186 104.281 73.5898 104.281C71.561 104.277 69.5357 104.277 67.5069 104.277L55.3446 104.281C52.7839 104.281 50.2268 104.281 47.6661 104.277C41.6713 104.27 37.7968 100.393 37.7933 94.4016C37.7898 90.323 37.7933 86.248 37.7933 82.1695C37.7968 75.2064 37.7968 68.0038 37.7827 60.9209C37.7757 57.0044 39.3854 54.1515 42.7103 52.1898C43.214 51.8904 43.5627 51.0451 43.5663 50.4393C43.5698 50.0589 43.5733 49.675 43.5768 49.2946C43.598 45.991 43.6226 42.5746 44.6018 39.3026C47.571 29.4091 57.0635 22.2277 67.1793 22.2277C67.7781 22.2277 68.3839 22.2523 68.9757 22.3051C80.7857 23.3089 89.9048 31.9133 91.1552 43.2297C91.3806 45.2654 91.3771 47.3716 91.3736 49.4073V50.4252C91.3736 51.3656 91.6765 51.8869 92.4831 52.3588C95.6073 54.1762 97.1923 56.9199 97.1993 60.5159C97.2205 71.9978 97.2205 83.5255 97.1993 94.7855C97.1888 100.252 93.2087 104.242 87.7316 104.267C85.0476 104.281 82.3602 104.284 79.6727 104.284ZM55.8518 55.7541C53.1009 55.7541 50.3501 55.7541 47.5957 55.7576C44.1756 55.7611 42.3652 57.5574 42.3652 60.9491C42.3616 72.107 42.3616 83.2613 42.3652 94.4192C42.3652 97.8743 44.2038 99.7023 47.6767 99.7023C54.2175 99.7058 60.7583 99.7058 67.2991 99.7058C73.9772 99.7058 80.6554 99.7058 87.3371 99.7023C90.803 99.7023 92.6381 97.8708 92.6381 94.4051C92.6416 83.293 92.6416 72.1809 92.6381 61.0653C92.6381 57.5433 90.8699 55.7576 87.3864 55.7541C84.6426 55.7506 81.8952 55.7506 79.1514 55.7506L67.4893 55.7541H55.8518ZM67.5104 37.6366C65.9606 37.6366 64.4285 38.0804 63.083 38.9222C58.9303 41.5179 58.5181 45.1104 59.2085 50.8373L59.2473 51.1472H76.0166V50.795C76.0166 50.2421 76.0237 49.7032 76.0272 49.1714C76.0378 48.0197 76.0483 46.9278 76.0061 45.8254C75.8229 41.2327 72.0928 37.6366 67.5104 37.6366ZM67.5386 26.831C66.2318 26.831 64.9145 26.9683 63.6254 27.2431C54.7423 29.1309 46.5672 37.1506 48.3283 50.8056L48.3671 51.112H54.4218V50.7598C54.4218 50.1857 54.4183 49.6257 54.4112 49.0728C54.4007 47.8929 54.3901 46.7799 54.4288 45.6564C54.6578 38.7214 60.5047 33.0791 67.4682 33.0791C68.5213 33.0791 69.578 33.2129 70.61 33.4736C76.4675 34.9528 80.4722 40.014 80.5814 46.072C80.599 47.1356 80.5955 48.2239 80.592 49.2735C80.5885 49.7666 80.5885 50.2597 80.5885 50.7528V51.105H86.8158V50.7528C86.8158 50.1575 86.8228 49.5729 86.8264 48.9882C86.8369 47.7168 86.851 46.5193 86.8052 45.2936C86.4354 35.1113 77.7918 26.831 67.5386 26.831Z" fill="white"/>
<path d="M67.1829 22.5799C67.7711 22.5799 68.3663 22.6046 68.951 22.6539C74.5584 23.1293 79.8171 25.4433 83.7656 29.1626C87.714 32.8854 90.2148 37.8938 90.81 43.2649C91.0319 45.2831 91.0284 47.3787 91.0249 49.4039C91.0249 49.742 91.0249 50.0836 91.0249 50.4217C91.0249 51.4819 91.3983 52.1299 92.307 52.6582C95.315 54.4087 96.8401 57.0502 96.8471 60.5124C96.8683 71.9908 96.8683 83.522 96.8471 94.782C96.8366 100.047 93.0044 103.886 87.7316 103.915C85.3541 103.925 82.7969 103.932 79.6903 103.932C77.6686 103.932 75.6468 103.929 73.625 103.929C71.6033 103.925 69.578 103.925 67.5562 103.925H67.4365H61.6494C59.5467 103.925 57.4439 103.925 55.3376 103.925C52.7804 103.925 50.2233 103.925 47.6662 103.922C41.8862 103.915 38.1491 100.178 38.1456 94.3946C38.142 90.3195 38.1456 86.241 38.1456 82.166C38.1491 75.1994 38.1491 67.9968 38.135 60.9139C38.1279 57.1348 39.6812 54.377 42.89 52.4892C43.5275 52.1158 43.915 51.1543 43.922 50.4393C43.9255 50.059 43.9291 49.6751 43.9326 49.2947C43.9537 45.8642 43.9784 42.6239 44.9435 39.4012C47.8669 29.6522 57.222 22.5799 67.1829 22.5799ZM48.0571 51.4643H48.677H54.0696H54.774V50.7598C54.774 50.1857 54.7705 49.6222 54.7635 49.0693C54.7529 47.8929 54.7423 46.7834 54.7811 45.667C55.003 38.9187 60.6949 33.4313 67.4682 33.4313C68.4931 33.4313 69.5216 33.5581 70.5255 33.8117C76.2244 35.2522 80.1271 40.1796 80.2328 46.072C80.2504 47.1321 80.2468 48.2169 80.2433 49.2665C80.2398 49.7596 80.2398 50.2527 80.2398 50.7493V51.4537H80.9442H86.4671H87.1716V50.7493C87.1716 50.1541 87.1786 49.5694 87.1821 48.9883C87.1927 47.7133 87.2068 46.5087 87.161 45.276C86.7841 34.9071 77.982 26.4718 67.5421 26.4718C66.2107 26.4718 64.8688 26.6126 63.5585 26.8909C54.5169 28.8139 46.1974 36.9675 47.9832 50.8444L48.0571 51.4643ZM58.9303 51.4995H59.5537H75.6609H76.3653V50.7951C76.3653 50.2456 76.3724 49.7067 76.3759 49.1749C76.3865 48.0162 76.397 46.9243 76.3548 45.8114C76.1681 41.0319 72.2831 37.2845 67.5104 37.2845C65.8937 37.2845 64.2982 37.7494 62.8963 38.6229C58.6062 41.3031 58.1659 45.1457 58.8563 50.8796L58.9303 51.4995ZM67.5492 100.058C74.1428 100.058 80.74 100.058 87.3336 100.054C91.0319 100.054 92.9868 98.0998 92.9868 94.4051C92.9903 83.2931 92.9903 72.181 92.9868 61.0654C92.9868 57.3637 91.0495 55.4054 87.3829 55.4019C84.6285 55.3984 81.8741 55.3984 79.1197 55.3984H73.2869H67.4893H61.6847H55.88C53.1186 55.3984 50.3536 55.3984 47.5922 55.4019C43.9396 55.4054 42.0094 57.325 42.0094 60.9456C42.0059 72.1035 42.0059 83.2578 42.0094 94.4157C42.0094 98.0505 44.0206 100.051 47.6732 100.051C54.3021 100.058 60.9274 100.058 67.5492 100.058ZM67.1829 21.8755C56.9684 21.8755 47.3034 29.0887 44.2707 39.2005C43.1647 42.8916 43.2598 46.6567 43.2211 50.4323C43.2176 50.9289 42.9252 51.6544 42.5378 51.8834C39.0754 53.9262 37.4305 56.9164 37.4376 60.9174C37.4587 72.0788 37.4411 83.2367 37.4481 94.3981C37.4517 100.593 41.4741 104.619 47.6732 104.626C50.2303 104.63 52.7875 104.63 55.3446 104.63C59.3776 104.63 63.4106 104.626 67.4435 104.626C67.4823 104.626 67.521 104.626 67.5633 104.626C71.6068 104.626 75.6539 104.637 79.6974 104.637C82.3778 104.637 85.0617 104.633 87.7422 104.619C93.4376 104.591 97.5516 100.467 97.5586 94.7855C97.5798 83.36 97.5763 71.938 97.5586 60.5124C97.5516 56.779 95.8891 53.9262 92.6663 52.0524C91.9583 51.6404 91.7329 51.2248 91.7329 50.4217C91.7293 48.0091 91.7787 45.5789 91.5145 43.1874C90.25 31.7231 80.9196 22.9638 69.0144 21.9495C68.398 21.9001 67.7887 21.8755 67.1829 21.8755ZM48.677 50.7598C46.9828 37.6296 54.6191 29.5148 63.6994 27.5847C64.9885 27.31 66.2706 27.1797 67.5386 27.1797C77.3727 27.1797 86.0832 35.0832 86.453 45.3042C86.5164 47.0899 86.4636 48.8826 86.4636 50.7493C84.6179 50.7493 82.8815 50.7493 80.9407 50.7493C80.9407 49.182 80.9654 47.6217 80.9372 46.0614C80.8245 39.8344 76.7105 34.65 70.6981 33.1284C69.6167 32.8537 68.5319 32.7234 67.4682 32.7234C60.4941 32.7234 54.3197 38.3094 54.0766 45.6423C54.0203 47.3047 54.0696 48.9706 54.0696 50.7563C52.1394 50.7598 50.4029 50.7598 48.677 50.7598ZM59.5572 50.7951C58.9021 45.357 59.2191 41.754 63.2697 39.2216C64.6257 38.3728 66.0839 37.9889 67.5104 37.9889C71.635 37.9889 75.4707 41.2151 75.6538 45.836C75.7172 47.4456 75.6644 49.0622 75.6644 50.7951C70.1486 50.7951 64.8512 50.7951 59.5572 50.7951ZM67.5492 99.3536C60.9239 99.3536 54.2985 99.3536 47.6767 99.3501C44.394 99.3501 42.7174 97.6806 42.7174 94.4192C42.7139 83.2613 42.7139 72.107 42.7174 60.9491C42.7174 57.7406 44.3553 56.1134 47.5957 56.1098C50.3571 56.1063 53.1186 56.1063 55.8835 56.1063C59.7545 56.1063 63.6219 56.1098 67.4928 56.1098C71.3708 56.1098 75.2488 56.1063 79.1233 56.1063C81.8776 56.1063 84.632 56.1063 87.3864 56.1098C90.6762 56.1134 92.2859 57.7511 92.2859 61.0689C92.2894 72.181 92.2894 83.293 92.2859 94.4086C92.2859 97.6912 90.6269 99.3501 87.3371 99.3536C80.74 99.3536 74.1463 99.3536 67.5492 99.3536Z" fill="white"/>
<path d="M104.917 16.6558C104.342 16.6558 103.73 16.4444 103.145 16.0394C94.6211 10.1822 85.185 6.59677 75.0973 5.37814C72.5261 5.0682 69.9337 4.90971 67.3942 4.90971C59.9165 4.90971 52.4811 6.27627 45.2887 8.97064C45.1478 9.02347 45.0069 9.07982 44.866 9.13617C44.6441 9.22422 44.4222 9.31227 44.1932 9.38976C43.8269 9.51303 43.4677 9.57643 43.126 9.57643C42.1327 9.57643 41.3684 9.06221 41.0267 8.16409C40.7978 7.55829 40.8119 6.92785 41.069 6.38545C41.3367 5.8184 41.858 5.37814 42.5378 5.14569L43.436 4.83927C46.1974 3.89888 49.0539 2.92327 51.914 2.19068C56.8064 0.936834 61.9418 0.352173 68.081 0.352173C68.715 0.352173 69.3561 0.359217 70.0077 0.369783C82.5715 0.714944 94.9346 4.83927 105.755 12.299C107.072 13.2077 107.439 14.532 106.695 15.6731C106.28 16.3071 105.649 16.6558 104.917 16.6558Z" fill="white"/>
<path d="M68.0811 0.704411C68.7045 0.704411 69.3491 0.711455 69.9936 0.722021C82.4941 1.06718 94.7902 5.17037 105.554 12.5913C106.716 13.3944 107.041 14.5003 106.399 15.4829C106.047 16.0218 105.537 16.3071 104.917 16.3071C104.416 16.3071 103.871 16.1169 103.346 15.7541C94.7761 9.86175 85.2872 6.25517 75.1396 5.03301C72.5543 4.71955 69.9478 4.56458 67.3977 4.56458C59.8778 4.56458 52.4001 5.93818 45.1689 8.64664C45.0245 8.69947 44.8836 8.75583 44.7392 8.81218C44.5138 8.90375 44.2989 8.98828 44.0841 9.05872C43.7565 9.1679 43.4324 9.22426 43.1295 9.22426C42.2912 9.22426 41.6467 8.79105 41.3614 8.04085C41.1676 7.52663 41.1782 6.99128 41.3931 6.53693C41.622 6.05089 42.0588 5.68459 42.654 5.48032L43.5522 5.1739C46.3066 4.23351 49.1596 3.26142 52.0056 2.53236C56.8627 1.28555 61.9735 0.704411 68.0811 0.704411ZM68.0811 0C62.0616 0 56.8909 0.54944 51.8295 1.8526C48.6524 2.66972 45.5387 3.75803 42.4286 4.81465C40.826 5.36057 40.1638 6.86096 40.7027 8.29091C41.1007 9.34049 42.013 9.92867 43.1295 9.92867C43.5029 9.92867 43.9009 9.86175 44.3095 9.72439C44.6828 9.5976 45.0456 9.44263 45.4155 9.30174C52.5832 6.61794 59.906 5.26547 67.3977 5.26547C69.9302 5.26547 72.4839 5.42044 75.0551 5.73038C85.2308 6.95958 94.5084 10.5309 102.944 16.3318C103.606 16.7861 104.286 17.008 104.913 17.008C105.751 17.008 106.495 16.617 106.984 15.8633C107.826 14.5743 107.431 13.0316 105.949 12.0067C94.8078 4.32508 82.4553 0.359249 70.0148 0.0176103C69.3596 0.00704411 68.7186 0 68.0811 0Z" fill="white"/>
<path d="M113.782 24.3901C112.539 24.3514 111.577 23.3335 111.595 22.0691C111.612 20.8011 112.577 19.8431 113.842 19.8431C115.075 19.8467 116.121 20.8716 116.131 22.0832C116.138 22.6643 115.888 23.249 115.452 23.6927C115.011 24.1365 114.427 24.3901 113.845 24.3901H113.782Z" fill="white"/>
<path d="M113.842 19.4945L113.849 20.1989C114.885 20.2024 115.769 21.0688 115.779 22.0902C115.783 22.5763 115.575 23.0729 115.202 23.4498C114.828 23.8266 114.335 24.045 113.845 24.045H113.793C112.743 24.0133 111.933 23.1504 111.947 22.0797C111.961 21.009 112.775 20.2024 113.842 20.2024V19.4945ZM113.842 19.4945C112.398 19.4945 111.264 20.6145 111.243 22.0656C111.225 23.5132 112.341 24.6966 113.771 24.7423C113.796 24.7423 113.821 24.7423 113.845 24.7423C115.254 24.7423 116.498 23.4991 116.484 22.0797C116.47 20.6709 115.275 19.498 113.852 19.491C113.849 19.4945 113.845 19.4945 113.842 19.4945Z" fill="white"/>
<path d="M67.4647 93.4541C63.2979 93.4259 59.9976 90.0377 59.9483 85.7372C59.9342 84.6595 59.9412 83.5606 59.9448 82.497L59.9483 82.0497C59.9553 79.8836 59.8637 77.7633 58.6697 75.5937C56.8522 72.2971 57.6166 67.9157 60.5259 64.943C62.3892 63.0376 64.8618 61.988 67.4788 61.988C68.7468 61.988 69.9937 62.2346 71.1913 62.7206C74.8614 64.2105 77.2248 67.7712 77.2143 71.7899C77.2354 73.5087 76.7493 75.2063 75.7244 76.9885C75.344 77.6471 75.1115 78.4572 75.0868 79.2109C75.0411 80.5598 75.0481 81.9264 75.0551 83.2507C75.0587 84.0607 75.0622 84.8673 75.0551 85.6774C75.0164 90.0341 71.702 93.447 67.514 93.447L67.4647 93.4541ZM67.5035 66.5667C66.2319 66.5667 65.0168 67.0281 64.0763 67.8699C62.0264 69.7049 61.6883 72.6845 63.3014 74.6533C64.2454 75.8051 64.6223 77.0413 64.5201 78.6544C64.4779 79.3025 64.4884 79.9611 64.499 80.595C64.5025 80.8768 64.5096 81.1621 64.5096 81.4439C64.5096 81.863 64.5096 82.2821 64.506 82.7012C64.5025 83.6451 64.499 84.5891 64.5131 85.533C64.5377 87.5018 65.7635 88.8754 67.4964 88.8754C69.2399 88.8754 70.4657 87.4983 70.4798 85.5294L70.4903 84.4834C70.5079 82.578 70.5256 80.6091 70.4692 78.6685C70.4199 76.9673 70.7862 75.7663 71.6949 74.6569C73.2835 72.7127 72.9383 69.6696 70.92 67.8699C69.9867 67.0246 68.7715 66.5667 67.5035 66.5667Z" fill="white"/>
<path d="M67.4788 62.3438C68.701 62.3438 69.9056 62.5798 71.0609 63.0482C74.5972 64.4852 76.8761 67.9157 76.862 71.8005C76.8831 73.47 76.4252 75.0619 75.4214 76.8124C75.0163 77.5203 74.7663 78.3903 74.7381 79.1968C74.6923 80.5528 74.6993 81.9264 74.7064 83.2507C74.7099 84.0467 74.7134 84.8673 74.7064 85.6739C74.6676 89.8334 71.5117 93.0949 67.521 93.0949H67.4717C63.4986 93.0667 60.3498 89.8334 60.304 85.7267C60.2899 84.6525 60.2969 83.5536 60.3004 82.4935L60.304 82.0462C60.311 79.8343 60.2194 77.6612 58.9831 75.4212C57.2396 72.2584 57.9828 68.0495 60.783 65.1861C62.5758 63.3546 64.9533 62.3438 67.4788 62.3438ZM67.4999 89.2241C69.4477 89.2241 70.8178 87.7026 70.8355 85.526L70.846 84.4799C70.8636 82.571 70.8812 80.5986 70.8249 78.6509C70.7756 77.0202 71.1067 75.9249 71.9696 74.8718C73.6779 72.7867 73.3116 69.5218 71.156 67.5987C70.1557 66.7041 68.856 66.2146 67.5034 66.2146C66.1438 66.2146 64.8441 66.7076 63.8438 67.6058C61.653 69.5675 61.2972 72.7585 63.0337 74.8753C63.9283 75.9671 64.27 77.0907 64.1749 78.6298C64.1326 79.2919 64.1432 79.9541 64.1538 80.5986C64.1573 80.8804 64.1643 81.1621 64.1643 81.4404C64.1643 81.8595 64.1643 82.2786 64.1608 82.6978C64.1573 83.6276 64.1538 84.5856 64.1679 85.533C64.189 87.6709 65.5944 89.2241 67.4999 89.2241ZM67.4788 61.6394C64.8195 61.6394 62.2306 62.6995 60.2723 64.7001C57.4122 67.6234 56.3872 72.188 58.3562 75.7664C59.5079 77.8549 59.5995 79.8766 59.5889 82.0497C59.5854 83.2789 59.5784 84.5116 59.5925 85.7408C59.6453 90.249 63.0865 93.7746 67.4611 93.8063C67.4788 93.8063 67.4964 93.8063 67.5175 93.8063C71.9062 93.8063 75.365 90.2631 75.4073 85.688C75.4284 83.536 75.365 81.3805 75.439 79.2285C75.4637 78.5312 75.682 77.7739 76.0308 77.1681C76.9923 75.4916 77.5911 73.7412 77.5664 71.7935C77.5805 67.6304 75.1291 63.9393 71.325 62.3966C70.0676 61.8895 68.7644 61.6394 67.4788 61.6394ZM67.4999 88.5197C65.9748 88.5197 64.8899 87.2976 64.8688 85.5224C64.8512 84.1629 64.8653 82.7999 64.8653 81.4404C64.8653 80.5176 64.8159 79.5948 64.8758 78.6756C64.9744 77.0871 64.6504 75.7382 63.5761 74.428C62.0404 72.5543 62.4877 69.7648 64.3123 68.1306C65.214 67.324 66.3587 66.919 67.5034 66.919C68.6446 66.919 69.7858 67.3205 70.6875 68.127C72.505 69.7507 72.9558 72.5578 71.4237 74.428C70.3529 75.7382 70.0711 77.0836 70.1204 78.6756C70.1874 80.9579 70.1521 83.2402 70.1345 85.526C70.1204 87.3046 69.0321 88.5197 67.4999 88.5197Z" fill="white"/>
</svg>
