<svg width="36" height="37" viewBox="0 0 36 37" fill="none" xmlns="http://www.w3.org/2000/svg">
<path d="M30.75 17.75H5.25C5.05109 17.75 4.86032 17.829 4.71967 17.9697C4.57902 18.1103 4.5 18.3011 4.5 18.5V32C4.5 32.5967 4.73705 33.169 5.15901 33.591C5.58097 34.0129 6.15326 34.25 6.75 34.25H29.25C29.8467 34.25 30.419 34.0129 30.841 33.591C31.2629 33.169 31.5 32.5967 31.5 32V18.5C31.5 18.3011 31.421 18.1103 31.2803 17.9697C31.1397 17.829 30.9489 17.75 30.75 17.75Z" fill="#FFC127"/>
<path d="M31.5 11H4.5C3.25736 11 2.25 12.0074 2.25 13.25V17C2.25 18.2426 3.25736 19.25 4.5 19.25H31.5C32.7426 19.25 33.75 18.2426 33.75 17V13.25C33.75 12.0074 32.7426 11 31.5 11Z" fill="#EE4D2D"/>
<path d="M22.0643 12.494C20.5426 12.494 18.8716 11.9555 18.1013 10.6258C17.3626 9.35075 17.5403 7.46 18.5626 5.69C19.6268 3.84875 21.2491 2.75 22.9043 2.75H22.9118C24.1799 2.7988 25.3829 3.32462 26.2799 4.22224C27.177 5.11987 27.7021 6.32311 27.7501 7.59125C27.7448 10.2425 25.3133 12.0583 23.0251 12.4205C22.7072 12.47 22.386 12.4946 22.0643 12.494ZM22.9043 4.25C21.5941 4.25 20.4751 5.381 19.8616 6.44C19.1296 7.7075 18.9436 9.0875 19.3988 9.87425C19.9313 10.7923 21.5408 11.138 22.7933 10.9393C24.2266 10.7143 26.2433 9.52175 26.2501 7.58825C26.1953 6.72034 25.8256 5.90226 25.2104 5.28761C24.5952 4.67295 23.7768 4.304 22.9088 4.25H22.9043Z" fill="#EE4D2D"/>
<path d="M13.9033 12.4604C13.4828 12.4621 13.0632 12.4237 12.65 12.3457C10.7818 11.9804 8.00002 10.4032 7.98877 7.55692C8.05197 6.30573 8.57616 5.12224 9.46028 4.23466C10.3444 3.34708 11.5258 2.81826 12.7768 2.75017C14.4928 2.73442 16.1848 3.81667 17.3233 5.70817C18.3875 7.47892 18.6095 9.35992 17.9038 10.6169C17.123 12.0097 15.3748 12.4604 13.9033 12.4604ZM9.48877 7.55017C9.49477 9.47917 11.6083 10.6109 12.9388 10.8712C14.2805 11.1352 16.0633 10.8314 16.5958 9.88117C17.018 9.13117 16.7885 7.72942 16.037 6.47917C15.3763 5.37967 14.162 4.18942 12.812 4.24792C11.9555 4.31115 11.1498 4.67849 10.5404 5.28365C9.931 5.8888 9.55801 6.69188 9.48877 7.54792V7.55017Z" fill="#EE4D2D"/>
<path d="M14.9881 31.0508C14.851 31.0506 14.7166 31.0128 14.5995 30.9416C14.4824 30.8704 14.3871 30.7684 14.3239 30.6468C14.2606 30.5252 14.2319 30.3886 14.2409 30.2518C14.2498 30.1151 14.2961 29.9834 14.3746 29.871L20.4001 21.2693C20.4566 21.1886 20.5284 21.1198 20.6115 21.0668C20.6946 21.0139 20.7872 20.9778 20.8843 20.9606C20.9813 20.9435 21.0807 20.9457 21.1769 20.967C21.2731 20.9883 21.3641 21.0283 21.4448 21.0848C21.5256 21.1413 21.5944 21.2131 21.6473 21.2962C21.7003 21.3792 21.7363 21.4719 21.7535 21.5689C21.7706 21.666 21.7685 21.7654 21.7472 21.8616C21.7259 21.9578 21.6858 22.0488 21.6293 22.1295L15.6038 30.7313C15.5345 30.8302 15.4423 30.9109 15.3351 30.9665C15.2279 31.0221 15.1089 31.051 14.9881 31.0508Z" fill="white"/>
<path d="M14.625 26C14.1058 26 13.5983 25.846 13.1666 25.5576C12.735 25.2692 12.3985 24.8592 12.1998 24.3795C12.0011 23.8999 11.9492 23.3721 12.0504 22.8629C12.1517 22.3537 12.4017 21.886 12.7688 21.5188C13.136 21.1517 13.6037 20.9017 14.1129 20.8004C14.6221 20.6992 15.1499 20.7511 15.6295 20.9498C16.1092 21.1485 16.5192 21.485 16.8076 21.9166C17.096 22.3483 17.25 22.8558 17.25 23.375C17.25 24.0712 16.9734 24.7389 16.4812 25.2312C15.9889 25.7234 15.3212 26 14.625 26ZM14.625 22.25C14.4025 22.25 14.185 22.316 14 22.4396C13.815 22.5632 13.6708 22.7389 13.5856 22.9445C13.5005 23.1501 13.4782 23.3762 13.5216 23.5945C13.565 23.8127 13.6722 24.0132 13.8295 24.1705C13.9868 24.3278 14.1873 24.435 14.4055 24.4784C14.6238 24.5218 14.85 24.4995 15.0555 24.4144C15.2611 24.3292 15.4368 24.185 15.5604 24C15.684 23.815 15.75 23.5975 15.75 23.375C15.75 23.0766 15.6315 22.7905 15.4205 22.5795C15.2095 22.3685 14.9234 22.25 14.625 22.25Z" fill="white"/>
<path d="M21.375 31.25C20.8558 31.25 20.3483 31.096 19.9166 30.8076C19.485 30.5192 19.1485 30.1092 18.9498 29.6295C18.7511 29.1499 18.6992 28.6221 18.8004 28.1129C18.9017 27.6037 19.1517 27.136 19.5188 26.7688C19.886 26.4017 20.3537 26.1517 20.8629 26.0504C21.3721 25.9492 21.8999 26.0011 22.3795 26.1998C22.8592 26.3985 23.2692 26.7349 23.5576 27.1666C23.846 27.5983 24 28.1058 24 28.625C24 29.3212 23.7234 29.9889 23.2312 30.4812C22.7389 30.9734 22.0712 31.25 21.375 31.25ZM21.375 27.5C21.1525 27.5 20.935 27.566 20.75 27.6896C20.565 27.8132 20.4208 27.9889 20.3356 28.1945C20.2505 28.4 20.2282 28.6262 20.2716 28.8445C20.315 29.0627 20.4222 29.2632 20.5795 29.4205C20.7368 29.5778 20.9373 29.685 21.1555 29.7284C21.3738 29.7718 21.6 29.7495 21.8055 29.6644C22.0111 29.5792 22.1868 29.435 22.3104 29.25C22.434 29.065 22.5 28.8475 22.5 28.625C22.5 28.3266 22.3815 28.0405 22.1705 27.8295C21.9595 27.6185 21.6734 27.5 21.375 27.5Z" fill="white"/>
</svg>
