<svg width="20" height="20" viewBox="0 0 20 20" fill="none" xmlns="http://www.w3.org/2000/svg">
<g clip-path="url(#clip0_11810_127)">
<path d="M5.83333 11.6667C7.675 11.6667 9.16667 10.175 9.16667 8.33333C9.16667 6.49167 7.675 5 5.83333 5C3.99167 5 2.5 6.49167 2.5 8.33333C2.5 10.175 3.99167 11.6667 5.83333 11.6667ZM5.83333 6.66667C6.75 6.66667 7.5 7.41667 7.5 8.33333C7.5 9.25 6.75 10 5.83333 10C4.91667 10 4.16667 9.25 4.16667 8.33333C4.16667 7.41667 4.91667 6.66667 5.83333 6.66667ZM11.6667 19.1667C11.6667 19.625 11.2917 20 10.8333 20C10.375 20 10 19.625 10 19.1667C10 16.8667 8.13333 15 5.83333 15C3.53333 15 1.66667 16.8667 1.66667 19.1667C1.66667 19.625 1.29167 20 0.833333 20C0.375 20 0 19.625 0 19.1667C0 15.95 2.61667 13.3333 5.83333 13.3333C9.05 13.3333 11.6667 15.95 11.6667 19.1667ZM20 4.16667V10.8333C20 13.1333 18.1333 15 15.8333 15H12.5C12.0417 15 11.6667 14.625 11.6667 14.1667C11.6667 13.7083 12.0417 13.3333 12.5 13.3333H15.8333C17.2083 13.3333 18.3333 12.2083 18.3333 10.8333V4.16667C18.3333 2.79167 17.2083 1.66667 15.8333 1.66667H7.88333C6.99167 1.66667 6.16667 2.15 5.71667 2.91667C5.48333 3.31667 4.975 3.45 4.575 3.225C4.175 2.99167 4.04167 2.48333 4.275 2.08333C5.025 0.8 6.40833 0 7.88333 0H15.8333C18.1333 0 20 1.86667 20 4.16667ZM11.3917 9.1L13.825 6.66667H12.5C12.0417 6.66667 11.6667 6.29167 11.6667 5.83333C11.6667 5.375 12.0417 5 12.5 5H15C15.9167 5 16.6667 5.75 16.6667 6.66667V9.16667C16.6667 9.625 16.2917 10 15.8333 10C15.375 10 15 9.625 15 9.16667V7.84167L12.5667 10.275C12.1833 10.6583 11.6667 10.8667 11.1417 10.8667C10.9583 10.8667 10.775 10.8417 10.5917 10.7917C10.15 10.6667 9.89167 10.2083 10.0167 9.76667C10.1417 9.325 10.6 9.06667 11.05 9.19167C11.15 9.21667 11.2833 9.20833 11.3917 9.1Z" fill="#E50914"/>
</g>
<defs>
<clipPath id="clip0_11810_127">
<rect width="20" height="20" fill="white"/>
</clipPath>
</defs>
</svg>
