<svg width="20" height="20" viewBox="0 0 20 20" fill="none" xmlns="http://www.w3.org/2000/svg">
<g id="skill-alt 1" clip-path="url(#clip0_11213_2401)">
<path id="Vector" d="M3.33333 16.6667C3.79417 16.6667 4.16667 17.04 4.16667 17.5C4.16667 17.9592 4.54 18.3333 5 18.3333H10.8333C11.2933 18.3333 11.6667 17.9592 11.6667 17.5V16.6667C11.6667 16.2067 12.0392 15.8333 12.5 15.8333H13.745C14.9942 15.8333 16.0592 14.8992 16.2242 13.6608L16.5025 11.5575C16.5567 11.1433 16.91 10.8333 17.3283 10.8333L18.3342 10.8533C18.265 10.1608 16.285 6.065 15.1658 4.68083C13.7308 2.765 11.5442 1.66583 9.16667 1.66583C8.70583 1.66583 8.33333 1.2925 8.33333 0.8325C8.33333 0.373333 8.70583 0 9.16667 0C12.0742 0 14.7467 1.34167 16.4808 3.6575C17.5567 4.98833 20 9.65 20 10.8333C20 11.6417 19.4158 12.5 18.3333 12.5H18.0583L17.8758 13.88C17.6025 15.9442 15.8267 17.5 13.745 17.5H13.3333C13.3333 18.8783 12.2117 20 10.8333 20H5C3.62167 20 2.5 18.8783 2.5 17.5C2.5 17.04 2.8725 16.6667 3.33333 16.6667ZM2.08333 8.33333H4.58333C5.7325 8.33333 6.66667 9.26833 6.66667 10.4167V12.9167C6.66667 14.065 5.7325 15 4.58333 15H2.08333C0.934167 15 0 14.065 0 12.9167V10.4167C0 9.26833 0.934167 8.33333 2.08333 8.33333ZM1.66667 12.9167C1.66667 13.1467 1.85417 13.3333 2.08333 13.3333H4.58333C4.8125 13.3333 5 13.1467 5 12.9167V10.4167C5 10.1867 4.8125 10 4.58333 10H2.08333C1.85417 10 1.66667 10.1867 1.66667 10.4167V12.9167ZM6.66667 1.66667V5C6.66667 5.92083 5.92083 6.66667 5 6.66667H1.66667C0.745833 6.66667 0 5.92083 0 5V1.66667C0 0.745833 0.745833 0 1.66667 0H5C5.92083 0 6.66667 0.745833 6.66667 1.66667ZM5.59583 1.75833C5.2675 1.4225 4.7275 1.42417 4.40167 1.76167L2.87833 3.33833L2.23083 2.65417C1.90417 2.30917 1.35583 2.30667 1.02667 2.64917C0.718333 2.96917 0.716667 3.47583 1.02167 3.79833L1.6625 4.47583C2.31833 5.16917 3.42 5.175 4.08333 4.48833L5.6 2.91917C5.91333 2.595 5.91167 2.08 5.59667 1.7575L5.59583 1.75833Z" fill="#E50914"/>
</g>
<defs>
<clipPath id="clip0_11213_2401">
<rect width="20" height="20" fill="white"/>
</clipPath>
</defs>
</svg>
