<svg width="20" height="20" viewBox="0 0 20 20" fill="none" xmlns="http://www.w3.org/2000/svg">
<g id="file-edit 1" clip-path="url(#clip0_11810_125)">
<path id="Vector" d="M15.6775 8.33333C15.935 8.33333 16.1783 8.21417 16.3358 8.01083C16.4933 7.8075 16.5483 7.5425 16.485 7.29333C16.2258 6.27917 15.6975 5.3525 14.9575 4.6125L12.0533 1.70833C10.9517 0.606667 9.48667 0 7.92833 0H4.16583C1.86917 0 0 1.86917 0 4.16667V15.8333C0 18.1308 1.86917 20 4.16667 20H6.66667C7.12667 20 7.5 19.6267 7.5 19.1667C7.5 18.7067 7.12667 18.3333 6.66667 18.3333H4.16667C2.78833 18.3333 1.66667 17.2117 1.66667 15.8333V4.16667C1.66667 2.78833 2.78833 1.66667 4.16667 1.66667H7.92917C8.065 1.66667 8.2 1.67333 8.33333 1.68583V5.83333C8.33333 7.21167 9.455 8.33333 10.8333 8.33333H15.6775ZM10 5.83333V2.21583C10.3158 2.3975 10.61 2.6225 10.875 2.8875L13.7792 5.79167C14.0408 6.05333 14.265 6.34833 14.4483 6.66667H10.8333C10.3742 6.66667 10 6.2925 10 5.83333ZM19.2683 9.89917C18.3233 8.95417 16.6767 8.95417 15.7325 9.89917L10.1433 15.4883C9.51417 16.1175 9.16667 16.955 9.16667 17.8458V19.1675C9.16667 19.6275 9.54 20.0008 10 20.0008H11.3217C12.2125 20.0008 13.0492 19.6533 13.6783 19.0242L19.2675 13.435C19.74 12.9625 20 12.335 20 11.6667C20 10.9983 19.74 10.3708 19.2683 9.89917ZM18.0892 12.2558L12.4992 17.845C12.185 18.16 11.7667 18.3333 11.3208 18.3333H10.8325V17.845C10.8325 17.4 11.0058 16.9817 11.3208 16.6667L16.9108 11.0775C17.225 10.7625 17.7742 10.7625 18.0892 11.0775C18.2467 11.2342 18.3333 11.4433 18.3333 11.6667C18.3333 11.89 18.2467 12.0983 18.0892 12.2558Z" fill="#E50914"/>
</g>
<defs>
<clipPath id="clip0_11810_125">
<rect width="20" height="20" fill="white"/>
</clipPath>
</defs>
</svg>
