<svg width="20" height="20" viewBox="0 0 20 20" fill="none" xmlns="http://www.w3.org/2000/svg">
<g id="badget-check-alt 1" clip-path="url(#clip0_11810_139)">
<path id="Vector" d="M13.5276 7.23583L10.8318 10.1325C10.3726 10.5933 9.78926 10.835 9.16759 10.835C8.54593 10.835 7.96343 10.5933 7.52426 10.1542L6.29426 8.92417C5.96843 8.59833 5.96843 8.07167 6.29426 7.74583C6.62009 7.42 7.14676 7.42 7.47259 7.74583L8.70259 8.97583C8.95093 9.22417 9.38426 9.22417 9.63176 8.97583L12.3076 6.10083C12.6218 5.76333 13.1493 5.74583 13.4851 6.05833C13.8218 6.37167 13.8409 6.89917 13.5276 7.23583ZM19.9384 16.7775C19.7501 17.23 19.3309 17.5108 18.8418 17.5108H17.5401V18.8125C17.5401 19.5567 16.9326 20.0017 16.3443 20.0017C16.0301 20.0017 15.7426 19.8808 15.5134 19.6517L11.8751 16.0133C11.8751 16.0133 11.8726 16.0083 11.8701 16.0058C11.7309 16.1175 11.5943 16.2317 11.4326 16.3217C10.9976 16.5633 10.5093 16.6842 10.0218 16.6842C9.53426 16.6842 9.04593 16.5633 8.6101 16.3217C8.44593 16.2308 8.30593 16.115 8.16426 16.0008C8.16093 16.005 8.15926 16.01 8.15593 16.0142L4.51759 19.6525C4.28926 19.8817 4.00176 20.0025 3.68676 20.0025C3.09926 20.0025 2.49176 19.5575 2.49176 18.8133V17.5117H1.19009C0.700928 17.5117 0.280928 17.2317 0.0934278 16.78C-0.0940722 16.3267 0.00509448 15.8317 0.350928 15.4858L3.30176 12.5358C3.25509 12.1842 3.26593 11.8333 3.34426 11.4892C3.39843 11.2517 3.28426 10.9958 3.06093 10.8517C2.64509 10.5833 2.30843 10.2192 2.05926 9.77083C1.82176 9.34167 1.69676 8.85 1.69926 8.34667C1.69676 7.85083 1.82093 7.35833 2.05926 6.92917C2.30759 6.48 2.64509 6.11583 3.06093 5.84833C3.28426 5.70417 3.39843 5.44833 3.34426 5.21167C3.23259 4.7175 3.24926 4.21167 3.39343 3.7075C3.66843 2.75083 4.43259 1.98667 5.38926 1.71167C5.89259 1.5675 6.39843 1.55083 6.89176 1.6625C7.13093 1.715 7.38509 1.60167 7.52926 1.37833C7.79676 0.963333 8.16093 0.626667 8.6101 0.3775C9.48009 -0.105 10.5618 -0.105 11.4326 0.3775C11.8818 0.626667 12.2451 0.963333 12.5126 1.37917C12.6568 1.6025 12.9151 1.7175 13.1501 1.6625C13.6426 1.55 14.1493 1.5675 14.6534 1.71167C15.6101 1.98667 16.3751 2.75083 16.6501 3.7075C16.7943 4.2125 16.8109 4.71917 16.6993 5.2125C16.6459 5.44917 16.7593 5.705 16.9826 5.84917C17.3984 6.1175 17.7359 6.48083 17.9843 6.93C18.2218 7.35917 18.3468 7.85083 18.3443 8.35417C18.3468 8.85 18.2226 9.3425 17.9843 9.77167C17.7359 10.22 17.3984 10.5842 16.9834 10.8525C16.7593 10.9967 16.6451 11.2525 16.6993 11.49C16.7784 11.8375 16.7901 12.1917 16.7409 12.5475L19.6809 15.4875C20.0268 15.8333 20.1251 16.3283 19.9384 16.78V16.7775ZM6.75426 15.0583C6.30509 15.1383 5.84676 15.1175 5.38926 14.9875C4.86759 14.8383 4.41259 14.5333 4.05343 14.14L2.34926 15.8442H3.32593C3.78593 15.8442 4.15926 16.2175 4.15926 16.6775V17.6533L6.75509 15.0575L6.75426 15.0583ZM13.5193 13.4108C13.7351 13.46 13.9626 13.4508 14.1951 13.385C14.5976 13.27 14.9326 12.935 15.0484 12.5325C15.1143 12.3008 15.1234 12.0733 15.0743 11.8567C14.8659 10.9392 15.2701 9.9725 16.0801 9.45C16.2626 9.33167 16.4134 9.1675 16.5276 8.96167C16.6268 8.7825 16.6793 8.57167 16.6784 8.3525C16.6793 8.12667 16.6268 7.91583 16.5276 7.73583C16.4134 7.52917 16.2634 7.365 16.0801 7.2475C15.2701 6.725 14.8668 5.75833 15.0743 4.84167C15.1234 4.625 15.1151 4.3975 15.0484 4.165C14.9334 3.76333 14.5976 3.42833 14.1951 3.3125C13.9643 3.24583 13.7368 3.23833 13.5193 3.28667C12.6051 3.49667 11.6368 3.09167 11.1134 2.28167C10.9959 2.09917 10.8318 1.94833 10.6259 1.83417C10.2593 1.63083 9.78509 1.63167 9.41926 1.83417C9.21259 1.94917 9.04843 2.09917 8.93093 2.28167C8.40926 3.09083 7.44343 3.49667 6.52426 3.2875C6.30676 3.23833 6.08093 3.24667 5.84926 3.31333C5.44676 3.42917 5.11093 3.76333 4.99593 4.16583C4.92926 4.3975 4.92093 4.625 4.97009 4.8425C5.17843 5.75833 4.77426 6.72583 3.96426 7.24833C3.78176 7.36583 3.63176 7.53 3.51759 7.73667C3.41759 7.91667 3.36509 8.1275 3.36676 8.34583C3.36593 8.57167 3.41843 8.7825 3.51759 8.9625C3.63259 9.16917 3.78259 9.33333 3.96593 9.45167C4.77509 9.97333 5.17926 10.9408 4.97093 11.8575C4.92176 12.0733 4.93093 12.3017 4.99759 12.5342C5.11343 12.9358 5.44759 13.2708 5.85009 13.3858C6.08093 13.4525 6.30843 13.4608 6.52426 13.4117C6.68509 13.3758 6.84759 13.3575 7.00843 13.3575C7.76676 13.3575 8.50093 13.7492 8.93176 14.4167C9.05009 14.5992 9.21426 14.7492 9.42009 14.8642C9.78593 15.0675 10.2593 15.0675 10.6268 14.8642C10.8326 14.75 10.9968 14.5992 11.1143 14.4167C11.6376 13.6075 12.6068 13.2025 13.5209 13.4108H13.5193ZM17.6834 15.8442L15.9851 14.1458C15.6268 14.5367 15.1734 14.8383 14.6534 14.9867C14.1909 15.1183 13.7284 15.1383 13.2759 15.0558L15.8734 17.6533V16.6775C15.8734 16.2175 16.2468 15.8442 16.7068 15.8442H17.6834Z" fill="#E50914"/>
</g>
<defs>
<clipPath id="clip0_11810_139">
<rect width="20" height="20" fill="white"/>
</clipPath>
</defs>
</svg>
