<svg width="20" height="20" viewBox="0 0 20 20" fill="none" xmlns="http://www.w3.org/2000/svg">
<g id="document 1" clip-path="url(#clip0_11810_135)">
<path id="Vector" d="M14.1641 11.6667C14.1641 11.8877 14.0763 12.0997 13.92 12.2559C13.7637 12.4122 13.5517 12.5 13.3307 12.5H6.66406C6.44305 12.5 6.23109 12.4122 6.07481 12.2559C5.91853 12.0997 5.83073 11.8877 5.83073 11.6667C5.83073 11.4457 5.91853 11.2337 6.07481 11.0774C6.23109 10.9211 6.44305 10.8334 6.66406 10.8334H13.3307C13.5517 10.8334 13.7637 10.9211 13.92 11.0774C14.0763 11.2337 14.1641 11.4457 14.1641 11.6667ZM10.8307 14.1667H6.66406C6.44305 14.1667 6.23109 14.2545 6.07481 14.4108C5.91853 14.567 5.83073 14.779 5.83073 15C5.83073 15.221 5.91853 15.433 6.07481 15.5893C6.23109 15.7456 6.44305 15.8334 6.66406 15.8334H10.8307C11.0517 15.8334 11.2637 15.7456 11.42 15.5893C11.5763 15.433 11.6641 15.221 11.6641 15C11.6641 14.779 11.5763 14.567 11.42 14.4108C11.2637 14.2545 11.0517 14.1667 10.8307 14.1667ZM18.3307 8.73752V15.8334C18.3294 16.938 17.89 17.9971 17.1089 18.7782C16.3278 19.5593 15.2687 19.9987 14.1641 20H5.83073C4.72607 19.9987 3.66703 19.5593 2.88591 18.7782C2.1048 17.9971 1.66539 16.938 1.66406 15.8334V4.16669C1.66539 3.06202 2.1048 2.00298 2.88591 1.22187C3.66703 0.440754 4.72607 0.00134242 5.83073 1.92072e-05H9.59323C10.3596 -0.00195323 11.1187 0.148009 11.8267 0.441235C12.5348 0.734461 13.1777 1.16513 13.7182 1.70835L16.6216 4.61335C17.1651 5.15355 17.596 5.79623 17.8894 6.50416C18.1828 7.2121 18.3328 7.9712 18.3307 8.73752ZM12.5399 2.88669C12.2776 2.63265 11.9832 2.41412 11.6641 2.23669V5.83335C11.6641 6.05437 11.7519 6.26633 11.9081 6.42261C12.0644 6.57889 12.2764 6.66669 12.4974 6.66669H16.0941C15.9165 6.34768 15.6977 6.05347 15.4432 5.79169L12.5399 2.88669ZM16.6641 8.73752C16.6641 8.60002 16.6374 8.46835 16.6249 8.33335H12.4974C11.8344 8.33335 11.1985 8.06996 10.7296 7.60112C10.2608 7.13228 9.9974 6.49639 9.9974 5.83335V1.70585C9.8624 1.69335 9.7299 1.66669 9.59323 1.66669H5.83073C5.16769 1.66669 4.5318 1.93008 4.06296 2.39892C3.59412 2.86776 3.33073 3.50364 3.33073 4.16669V15.8334C3.33073 16.4964 3.59412 17.1323 4.06296 17.6011C4.5318 18.07 5.16769 18.3334 5.83073 18.3334H14.1641C14.8271 18.3334 15.463 18.07 15.9318 17.6011C16.4007 17.1323 16.6641 16.4964 16.6641 15.8334V8.73752Z" fill="#E50914"/>
</g>
<defs>
<clipPath id="clip0_11810_135">
<rect width="20" height="20" fill="white"/>
</clipPath>
</defs>
</svg>
