<svg width="47" height="45" viewBox="0 0 47 45" fill="none" xmlns="http://www.w3.org/2000/svg">
<g clip-path="url(#clip0_8784_573)">
<path d="M2.29511 7.49259C1.54698 7.49259 0.94043 6.89353 0.94043 6.15463V4.01388C0.94043 1.80062 2.76346 0 5.00448 0H7.17199C7.92012 0 8.52667 0.599063 8.52667 1.33796C8.52667 2.07686 7.92012 2.67592 7.17199 2.67592H5.00448C4.2575 2.67592 3.6498 3.27612 3.6498 4.01388V6.15463C3.6498 6.89353 3.04325 7.49259 2.29511 7.49259Z" fill="#D8ECFE"/>
<path d="M44.4718 7.49259C43.7237 7.49259 43.1171 6.89353 43.1171 6.15463V4.01388C43.1171 3.27612 42.5094 2.67592 41.7624 2.67592H39.5949C38.8468 2.67592 38.2402 2.07686 38.2402 1.33796C38.2402 0.599063 38.8468 0 39.5949 0H41.7624C44.0034 0 45.8265 1.80062 45.8265 4.01388V6.15463C45.8265 6.89353 45.22 7.49259 44.4718 7.49259Z" fill="#D8ECFE"/>
<path d="M7.17199 44.3315H5.00448C2.76355 44.3315 0.94043 42.5308 0.94043 40.3176V38.1768C0.94043 37.4379 1.54698 36.8389 2.29511 36.8389C3.04325 36.8389 3.6498 37.4379 3.6498 38.1768V40.3176C3.6498 41.0553 4.2575 41.6555 5.00448 41.6555H7.17199C7.92012 41.6555 8.52667 42.2546 8.52667 42.9935C8.52667 43.7325 7.92012 44.3315 7.17199 44.3315Z" fill="#D8ECFE"/>
<path d="M41.7624 44.3315H39.5949C38.8468 44.3315 38.2402 43.7324 38.2402 42.9935C38.2402 42.2546 38.8468 41.6555 39.5949 41.6555H41.7624C42.5094 41.6555 43.1171 41.0553 43.1171 40.3176V38.1768C43.1171 37.4379 43.7237 36.8389 44.4718 36.8389C45.2199 36.8389 45.8265 37.4379 45.8265 38.1768V40.3176C45.8265 42.5308 44.0034 44.3315 41.7624 44.3315Z" fill="#D8ECFE"/>
<path d="M26.4326 2.04783C26.8067 2.04783 27.11 1.7483 27.11 1.3789C27.11 1.00949 26.8068 0.709961 26.4326 0.709961H24.5289C24.1548 0.709961 23.8516 1.00949 23.8516 1.3789V5.8411C23.8516 6.2106 24.1547 6.51004 24.5289 6.51004H26.4326C26.8067 6.51004 27.11 6.21051 27.11 5.8411C27.11 5.4717 26.8068 5.17217 26.4326 5.17217H25.2062V4.27894H26.2922C26.6663 4.27894 26.9695 3.9794 26.9695 3.61C26.9695 3.2406 26.6663 2.94106 26.2922 2.94106H25.2062V2.04783H26.4326Z" fill="#F58A97"/>
<path d="M32.9313 4.69293C32.5255 4.35684 32.1778 4.61541 31.8605 4.89455C31.651 5.07877 31.3816 5.1722 31.0597 5.1722C30.1762 5.1722 29.4573 4.46222 29.4573 3.58955C29.4573 2.71688 30.1762 2.0069 31.0597 2.0069C31.3809 2.0069 31.6906 2.10024 31.9552 2.27682C32.2652 2.48371 32.6863 2.40312 32.8957 2.0969C33.1051 1.79069 33.0236 1.37488 32.7135 1.16808C32.2241 0.841475 31.6521 0.668945 31.0597 0.668945C29.4291 0.668945 28.1025 1.97913 28.1025 3.58955C28.1025 5.19997 29.4291 6.51016 31.0597 6.51016C31.7145 6.51016 32.3029 6.29693 32.7614 5.89369C33.1183 5.57983 33.3742 5.05979 32.9313 4.69293Z" fill="#F58A97"/>
<path d="M22.8589 2.50832C22.8589 1.49406 21.9934 0.668945 20.9295 0.668945H19.7179C19.7176 0.668945 19.7173 0.668945 19.7172 0.668945C19.7169 0.668945 19.7167 0.668945 19.7164 0.668945C19.3423 0.668945 19.0391 0.968477 19.0391 1.33788V5.84122C19.0391 6.21071 19.3422 6.51016 19.7164 6.51016C20.0906 6.51016 20.3937 6.21062 20.3937 5.84122V4.84753L21.6732 6.28331C21.9212 6.56157 22.3494 6.58671 22.6292 6.34352C22.91 6.09944 22.9372 5.67669 22.6901 5.39939L21.6371 4.21779C22.3516 3.94806 22.8589 3.28422 22.8589 2.50832ZM20.9295 2.0069C21.241 2.0069 21.5042 2.23647 21.5042 2.50832C21.5042 2.78017 21.2411 3.00974 20.9295 3.00974C20.8031 3.00974 20.6019 3.01044 20.3999 3.01141C20.3989 2.81849 20.3977 2.20976 20.3972 2.00699L20.9295 2.0069Z" fill="#F58A97"/>
<path d="M15.6232 4.92787C16.3714 4.92787 16.9779 4.32885 16.9779 3.58991C16.9779 2.85098 16.3714 2.25195 15.6232 2.25195C14.8751 2.25195 14.2686 2.85098 14.2686 3.58991C14.2686 4.32885 14.8751 4.92787 15.6232 4.92787Z" fill="#F58A97"/>
<path d="M11.432 44.9999C11.0829 44.9999 10.7998 44.7204 10.7998 44.3756V36.5407C10.7998 35.0159 11.7622 33.6506 13.2161 33.1127L19.2532 30.8794C19.5197 30.7808 19.7473 30.6169 19.9202 30.4104C20.1487 30.1375 21.6361 29.7901 21.6361 29.4207V27.0371H25.1298V29.4207C25.1298 29.7901 26.6172 30.1375 26.8457 30.4104C27.0186 30.617 27.2463 30.7809 27.5128 30.8794L33.5498 33.1127C35.0037 33.6506 35.9661 35.0159 35.9661 36.5407V44.3756C35.9661 44.7204 35.6831 44.9999 35.334 44.9999H11.432Z" fill="#AEE69C"/>
<path d="M33.5501 33.1127L27.513 30.8794C27.2465 30.7808 27.0189 30.6169 26.846 30.4104C26.6175 30.1375 25.1301 29.7901 25.1301 29.4207V27.0371H23.7754V30.7587C23.7754 31.4075 24.1849 31.9885 24.8037 32.2174L30.8407 34.4507C32.2946 34.9886 33.257 36.3539 33.257 37.8787V44.9999H35.3342C35.6833 44.9999 35.9664 44.7204 35.9664 44.3756V36.5407C35.9663 35.0159 35.004 33.6506 33.5501 33.1127Z" fill="#89DAA4"/>
<path d="M23.3829 32.3978C24.8694 32.3978 26.1645 31.5963 26.846 30.4102C26.6175 30.1372 25.1298 29.7901 25.1298 29.4207V27.0371H20.2814V29.4207C20.2814 29.7901 20.1484 30.1372 19.9199 30.4102C20.6014 31.5963 21.8965 32.3978 23.3829 32.3978Z" fill="#FFCEBF"/>
<path d="M24.705 32.1766C25.6176 31.8605 26.3773 31.2265 26.8462 30.4102C26.6151 30.1343 26.4849 29.779 26.4848 29.4207V27.0371H23.7754V30.7587C23.7754 31.3723 24.1419 31.9248 24.705 32.1766Z" fill="#FFB09E"/>
<path d="M29.6398 20.0799H17.126V12.6621C17.126 11.1401 18.3752 9.90625 19.9162 9.90625H26.8495C28.3905 9.90625 29.6397 11.1401 29.6397 12.6621V20.0799H29.6398Z" fill="#E19974"/>
<path d="M26.85 9.90625H24.1406C25.6817 9.90625 26.9309 11.1401 26.9309 12.6621V20.0799H29.6402V12.6621C29.6402 11.1401 28.391 9.90625 26.85 9.90625Z" fill="#DC8758"/>
<path d="M29.6397 18.0471C29.3081 17.4349 28.7463 16.6519 27.8452 16.3891C26.764 16.0737 26.1981 16.7999 24.7295 16.795C23.0594 16.7895 22.6642 15.8469 21.3173 15.7432C20.3489 15.6687 18.9504 16.0327 17.126 18.0471V22.3766C17.126 25.7689 19.9273 28.5189 23.3829 28.5189C26.8385 28.5189 29.6398 25.7689 29.6398 22.3766V18.0471H29.6397Z" fill="#FFCEBF"/>
<path d="M29.6397 18.0471C29.3081 17.4349 28.7463 16.6519 27.8452 16.3891C26.764 16.0737 26.1981 16.7999 24.7295 16.795C23.0594 16.7895 22.6642 15.8469 21.3173 15.7432C20.3489 15.6687 18.9504 16.0327 17.126 18.0471V22.3766C17.126 24.6629 18.3984 26.6575 20.2861 27.7151C21.1992 28.2267 23.3829 28.079 23.3829 28.079C24.5086 28.079 25.5649 28.2271 26.4775 27.7163C28.3664 26.6591 29.6398 24.6639 29.6398 22.3766V18.0471H29.6397Z" fill="#FFCEBF"/>
<path d="M29.64 22.3765V18.047C29.3083 17.4348 28.7465 16.6518 27.8454 16.389C27.0567 16.1589 26.5417 16.4831 25.7508 16.6734C25.7854 16.6959 25.8192 16.7191 25.8525 16.7431C26.5439 17.2414 26.9306 18.0539 26.9306 18.8991V22.3765C26.9493 22.7605 27.0039 24.6985 25.531 26.2475C23.4915 28.3923 20.463 27.7538 20.2871 27.7134C21.2002 28.225 22.2564 28.5189 23.383 28.5189C26.8387 28.519 29.64 25.7689 29.64 22.3765Z" fill="#FFB09E"/>
<path d="M20.3638 22.1005C19.9897 22.1005 19.6865 21.801 19.6865 21.4316V20.2461C19.6865 19.8766 19.9897 19.5771 20.3638 19.5771C20.7379 19.5771 21.0411 19.8767 21.0411 20.2461V21.4316C21.0412 21.801 20.7379 22.1005 20.3638 22.1005Z" fill="#3D6D93"/>
<path d="M26.4019 22.1005C26.0278 22.1005 25.7246 21.801 25.7246 21.4316V20.2461C25.7246 19.8766 26.0278 19.5771 26.4019 19.5771C26.776 19.5771 27.0793 19.8767 27.0793 20.2461V21.4316C27.0792 21.801 26.776 22.1005 26.4019 22.1005Z" fill="#3D6D93"/>
<path d="M23.383 25.8777C23.372 25.8777 23.3609 25.8777 23.3497 25.8775C22.8277 25.8721 22.3096 25.7388 21.8513 25.4918C21.5228 25.315 21.4018 24.9086 21.5808 24.5842C21.7599 24.2599 22.1713 24.1402 22.4998 24.3172C22.6841 24.4164 22.9836 24.5357 23.3638 24.5395C23.7646 24.5423 24.0737 24.4209 24.2663 24.3171C24.5949 24.1403 25.0063 24.2599 25.1852 24.5843C25.3643 24.9087 25.2432 25.315 24.9147 25.4918C24.5862 25.6688 24.0557 25.8777 23.383 25.8777Z" fill="#FFB09E"/>
<path d="M30.5174 21.2654H29.6396V17.9951H30.5174C31.4318 17.9951 32.173 18.7272 32.173 19.6303C32.1731 20.5334 31.4318 21.2654 30.5174 21.2654Z" fill="#FFCEBF"/>
<path d="M16.2483 21.2654H17.1261V17.9951H16.2483C15.334 17.9951 14.5928 18.7272 14.5928 19.6303C14.5927 20.5334 15.334 21.2654 16.2483 21.2654Z" fill="#FFB09E"/>
<path d="M30.5474 45.0004C30.1733 45.0004 29.8701 44.7009 29.8701 44.3314V40.9464C29.8701 40.5769 30.1733 40.2773 30.5474 40.2773C30.9215 40.2773 31.2248 40.5769 31.2248 40.9464V44.3314C31.2248 44.7009 30.9216 45.0004 30.5474 45.0004Z" fill="#89DAA4"/>
<path d="M16.2183 45.0004C15.8442 45.0004 15.541 44.7009 15.541 44.3314V40.9464C15.541 40.5769 15.8442 40.2773 16.2183 40.2773C16.5924 40.2773 16.8956 40.5769 16.8956 40.9464V44.3314C16.8956 44.7009 16.5924 45.0004 16.2183 45.0004Z" fill="#89DAA4"/>
<path d="M45.1939 18.6773H40.6102C40.4425 18.6773 40.2817 18.7431 40.1632 18.8602L38.2557 20.7442C38.0282 20.9689 37.639 20.8097 37.639 20.4919V19.3017C37.639 18.9569 37.3559 18.6773 37.0068 18.6773H35.4994C35.1503 18.6773 34.8672 18.3978 34.8672 18.053V12.4769C34.8672 12.1321 35.1503 11.8525 35.4994 11.8525H45.1939C45.543 11.8525 45.8261 12.1321 45.8261 12.4769V18.053C45.8261 18.3978 45.5431 18.6773 45.1939 18.6773Z" fill="#AEE69C"/>
<path d="M45.1937 11.8525H42.4844C42.8335 11.8525 43.1166 12.1321 43.1166 12.4769V18.053C43.1166 18.3978 42.8335 18.6773 42.4844 18.6773H45.1937C45.5428 18.6773 45.8259 18.3978 45.8259 18.053V12.4769C45.8259 12.1321 45.5429 11.8525 45.1937 11.8525Z" fill="#89DAA4"/>
<path d="M42.2632 15.9336H38.4293C38.0552 15.9336 37.752 15.634 37.752 15.2646C37.752 14.8951 38.0551 14.5957 38.4293 14.5957H42.2632C42.6373 14.5957 42.9406 14.8952 42.9406 15.2646C42.9405 15.6341 42.6373 15.9336 42.2632 15.9336Z" fill="white"/>
</g>
<defs>
<clipPath id="clip0_8784_573">
<rect width="45.5625" height="45" fill="white" transform="translate(0.601562)"/>
</clipPath>
</defs>
</svg>
