<svg width="43" height="36" viewBox="0 0 43 36" fill="none" xmlns="http://www.w3.org/2000/svg">
<path id="Header" d="M24.8675 36V23.9114C24.8675 19.2177 25.6446 14.9668 27.1988 11.1587C28.753 7.43911 31.3865 3.71956 35.0994 0L41.7048 5.31366C39.6325 7.61624 38.0351 9.74169 36.9127 11.69C35.7902 13.6384 35.0562 15.631 34.7108 17.6679H43V36H24.8675ZM0 36V23.9114C0 19.2177 0.777107 14.9668 2.33132 11.1587C3.88554 7.43911 6.51907 3.71956 10.2319 0L16.8373 5.31366C14.7651 7.61624 13.1677 9.74169 12.0452 11.69C10.9227 13.6384 10.1888 15.631 9.84337 17.6679H18.1325V36H0Z" fill="#F0F0F0"/>
</svg>
