<svg width="22" height="23" viewBox="0 0 22 23" fill="none" xmlns="http://www.w3.org/2000/svg">
<path d="M11.7517 4.8829L11.7916 4.41347L12.1772 4.60963C12.3474 4.27515 12.5724 3.96598 12.8368 3.68935C13.5667 2.93604 14.5798 2.4668 15.7047 2.4668C17.8984 2.4668 19.6812 4.24965 19.6812 6.44331C19.6812 7.71727 19.0743 8.85638 18.1362 9.58541L17.5003 10.0795L18.2252 10.4303C18.7987 10.7078 19.33 11.0845 19.7941 11.5485C20.8883 12.6428 21.5 14.1196 21.5 15.6648V16.8594C21.5 17.8853 20.6702 18.7151 19.6443 18.7151H17.3154H16.8154V19.2151C16.8154 20.241 15.9856 21.0708 14.9597 21.0708H7.04027C6.0144 21.0708 5.18456 20.241 5.18456 19.2151V18.7151H4.68456H2.3557C1.32983 18.7151 0.5 17.8853 0.5 16.8594V15.6648C0.5 14.1196 1.11169 12.6428 2.2059 11.5485C2.66998 11.0845 3.20134 10.7078 3.77483 10.4303L4.49973 10.0795L3.86384 9.58541C2.92566 8.85638 2.31879 7.71727 2.31879 6.44331C2.31879 4.2489 4.09539 2.46755 6.29395 2.47351H6.2953C7.42191 2.47351 8.44101 2.944 9.16285 3.69567L9.16284 3.69569L9.16607 3.69899C9.42964 3.96842 9.65063 4.28326 9.83271 4.6292L10.0049 4.95633L10.3681 4.88761C10.5512 4.85297 10.7424 4.83467 10.9429 4.83027L10.9162 4.8829H11.7315H11.7517ZM16.2584 18.0272V17.5272H16.2278C16.1126 16.3225 15.5835 15.1855 14.716 14.3179L14.7146 14.3166C13.7295 13.3389 12.3954 12.7822 11.0067 12.7822C9.61967 12.7822 8.28426 13.3311 7.29745 14.3179C6.31799 15.2974 5.76174 16.6325 5.76174 18.0272V19.2218C5.76174 19.9342 6.3346 20.5071 7.04698 20.5071H14.9732C15.6855 20.5071 16.2584 19.9342 16.2584 19.2218V18.0272ZM15.0515 10.4681L15.6711 9.84847C15.6863 9.84902 15.7021 9.84935 15.7181 9.84935C17.5983 9.84935 19.1242 8.32348 19.1242 6.44331C19.1242 4.56163 17.5968 3.04398 15.7181 3.04398C14.7575 3.04398 13.8843 3.44589 13.2641 4.08969L13.2625 4.09136C13.1003 4.26126 12.9504 4.44988 12.8225 4.65777L12.5519 5.09743L13 5.35381C14.1996 6.04015 15.0034 7.32773 15.0034 8.80572C15.0034 8.96287 14.9917 9.12426 14.9731 9.28532L14.8328 10.5012L14.6401 10.5333L14.5229 10.7436C14.2613 11.2133 13.9036 11.6252 13.479 11.9541L12.8413 12.4481L13.5675 12.7994C14.1409 13.0769 14.6723 13.4536 15.1364 13.9177C16.1435 14.9248 16.7432 16.266 16.8298 17.6819L17.3221 17.6518V18.1514H17.3289H17.8604H19.6644C20.3768 18.1514 20.9497 17.5785 20.9497 16.8661V15.6715C20.9497 14.2768 20.3934 12.9417 19.414 11.9622C18.4271 10.9754 17.0917 10.4265 15.7047 10.4265C15.4887 10.4265 15.2676 10.4403 15.0515 10.4681ZM7.62752 10.8569V10.5668L7.21371 10.4944C6.91294 10.4418 6.6153 10.4198 6.31544 10.4198C4.9197 10.4198 3.59234 10.9768 2.60751 11.9542L2.60618 11.9555C1.61937 12.9423 1.07047 14.2777 1.07047 15.6648V16.8594C1.07047 17.5718 1.64332 18.1446 2.3557 18.1446H4.69799H5.16835L5.19705 17.6752C5.28361 16.2593 5.88336 14.9181 6.89047 13.911C7.36044 13.441 7.90396 13.0583 8.48921 12.7811L9.22095 12.4345L8.58332 11.9355C8.20659 11.6406 7.88281 11.2737 7.62752 10.8569ZM9.02388 5.37176L9.47042 5.11109L9.19493 4.67354C9.06908 4.47367 8.92152 4.27 8.74387 4.08427L8.74263 4.08298C8.12283 3.43964 7.25649 3.03727 6.28859 3.03727C4.40917 3.03727 2.88255 4.56239 2.88255 6.4366C2.88255 8.3093 4.40767 9.84264 6.28859 9.84264L6.29893 9.84264C6.39343 9.84266 6.52266 9.8427 6.65668 9.82483L7.14362 9.7599L7.08731 9.2719C7.06862 9.10989 7.05705 8.95546 7.05705 8.79901C7.05705 7.33929 7.8493 6.05743 9.02388 5.37176ZM14.4329 8.79901C14.4329 6.92631 12.9145 5.39968 11.0336 5.39968C9.16085 5.39968 7.63423 6.91809 7.63423 8.79901C7.63423 10.6784 9.15935 12.2051 11.0336 12.2051C12.9085 12.2051 14.4329 10.671 14.4329 8.79901Z" fill="#E50914" stroke="#E50914"/>
</svg>
