<svg width="47" height="45" viewBox="0 0 47 45" fill="none" xmlns="http://www.w3.org/2000/svg">
<g clip-path="url(#clip0_10836_1779)">
<path d="M2.40546 7.49259C1.65733 7.49259 1.05078 6.89353 1.05078 6.15463V4.01388C1.05078 1.80062 2.87382 0 5.11483 0H7.28234C8.03048 0 8.63703 0.599063 8.63703 1.33796C8.63703 2.07686 8.03048 2.67592 7.28234 2.67592H5.11483C4.36786 2.67592 3.76015 3.27612 3.76015 4.01388V6.15463C3.76015 6.89353 3.1536 7.49259 2.40546 7.49259Z" fill="#D8ECFE"/>
<path d="M44.5831 7.49259C43.835 7.49259 43.2284 6.89353 43.2284 6.15463V4.01388C43.2284 3.27612 42.6207 2.67592 41.8738 2.67592H39.7062C38.9581 2.67592 38.3516 2.07686 38.3516 1.33796C38.3516 0.599063 38.9581 0 39.7062 0H41.8738C44.1147 0 45.9378 1.80062 45.9378 4.01388V6.15463C45.9378 6.89353 45.3313 7.49259 44.5831 7.49259Z" fill="#D8ECFE"/>
<path d="M7.28234 44.3315H5.11483C2.8739 44.3315 1.05078 42.5308 1.05078 40.3176V38.1768C1.05078 37.4379 1.65733 36.8389 2.40546 36.8389C3.1536 36.8389 3.76015 37.4379 3.76015 38.1768V40.3176C3.76015 41.0553 4.36786 41.6555 5.11483 41.6555H7.28234C8.03048 41.6555 8.63703 42.2546 8.63703 42.9935C8.63703 43.7325 8.03048 44.3315 7.28234 44.3315Z" fill="#D8ECFE"/>
<path d="M41.8738 44.3315H39.7062C38.9581 44.3315 38.3516 43.7324 38.3516 42.9935C38.3516 42.2546 38.9581 41.6555 39.7062 41.6555H41.8738C42.6207 41.6555 43.2284 41.0553 43.2284 40.3176V38.1768C43.2284 37.4379 43.835 36.8389 44.5831 36.8389C45.3313 36.8389 45.9378 37.4379 45.9378 38.1768V40.3176C45.9378 42.5308 44.1148 44.3315 41.8738 44.3315Z" fill="#D8ECFE"/>
<path d="M26.542 2.04783C26.9161 2.04783 27.2194 1.7483 27.2194 1.3789C27.2194 1.00949 26.9162 0.709961 26.542 0.709961H24.6383C24.2642 0.709961 23.9609 1.00949 23.9609 1.3789V5.8411C23.9609 6.2106 24.2641 6.51004 24.6383 6.51004H26.542C26.9161 6.51004 27.2194 6.21051 27.2194 5.8411C27.2194 5.4717 26.9162 5.17217 26.542 5.17217H25.3156V4.27894H26.4016C26.7757 4.27894 27.0789 3.9794 27.0789 3.61C27.0789 3.2406 26.7757 2.94106 26.4016 2.94106H25.3156V2.04783H26.542Z" fill="#F58A97"/>
<path d="M33.0397 4.69293C32.6339 4.35684 32.2862 4.61541 31.9689 4.89455C31.7594 5.07877 31.49 5.1722 31.1681 5.1722C30.2846 5.1722 29.5657 4.46222 29.5657 3.58955C29.5657 2.71688 30.2846 2.0069 31.1681 2.0069C31.4893 2.0069 31.799 2.10024 32.0636 2.27682C32.3736 2.48371 32.7947 2.40312 33.0041 2.0969C33.2135 1.79069 33.132 1.37488 32.8219 1.16808C32.3325 0.841475 31.7605 0.668945 31.168 0.668945C29.5375 0.668945 28.2109 1.97913 28.2109 3.58955C28.2109 5.19997 29.5375 6.51016 31.168 6.51016C31.8229 6.51016 32.4113 6.29693 32.8698 5.89369C33.2267 5.57983 33.4826 5.05979 33.0397 4.69293Z" fill="#F58A97"/>
<path d="M22.9683 2.50832C22.9683 1.49406 22.1028 0.668945 21.0388 0.668945H19.8272C19.827 0.668945 19.8267 0.668945 19.8265 0.668945C19.8263 0.668945 19.8261 0.668945 19.8258 0.668945C19.4517 0.668945 19.1484 0.968477 19.1484 1.33788V5.84122C19.1484 6.21071 19.4516 6.51016 19.8258 6.51016C20.2 6.51016 20.5031 6.21062 20.5031 5.84122V4.84753L21.7826 6.28331C22.0305 6.56157 22.4587 6.58671 22.7385 6.34352C23.0194 6.09944 23.0466 5.67669 22.7995 5.39939L21.7465 4.21779C22.461 3.94806 22.9683 3.28422 22.9683 2.50832ZM21.0388 2.0069C21.3504 2.0069 21.6136 2.23647 21.6136 2.50832C21.6136 2.78017 21.3505 3.00974 21.0388 3.00974C20.9125 3.00974 20.7113 3.01044 20.5093 3.01141C20.5083 2.81849 20.5071 2.20976 20.5066 2.00699L21.0388 2.0069Z" fill="#F58A97"/>
<path d="M15.7336 4.92787C16.4818 4.92787 17.0883 4.32885 17.0883 3.58991C17.0883 2.85098 16.4818 2.25195 15.7336 2.25195C14.9854 2.25195 14.3789 2.85098 14.3789 3.58991C14.3789 4.32885 14.9854 4.92787 15.7336 4.92787Z" fill="#F58A97"/>
<path d="M11.5423 44.9999C11.1932 44.9999 10.9102 44.7204 10.9102 44.3756V36.5407C10.9102 35.0159 11.8726 33.6506 13.3265 33.1127L19.3635 30.8794C19.63 30.7808 19.8577 30.6169 20.0306 30.4104C20.259 30.1375 21.7465 29.7901 21.7465 29.4207V27.0371H25.2402V29.4207C25.2402 29.7901 26.7276 30.1375 26.9561 30.4104C27.129 30.617 27.3566 30.7809 27.6231 30.8794L33.6602 33.1127C35.1141 33.6506 36.0765 35.0159 36.0765 36.5407V44.3756C36.0765 44.7204 35.7934 44.9999 35.4443 44.9999H11.5423Z" fill="#AEE69C"/>
<path d="M33.6614 33.1127L27.6244 30.8794C27.3578 30.7808 27.1302 30.6169 26.9573 30.4104C26.7289 30.1375 25.2414 29.7901 25.2414 29.4207V27.0371H23.8867V30.7587C23.8867 31.4075 24.2962 31.9885 24.915 32.2174L30.952 34.4507C32.4059 34.9886 33.3683 36.3539 33.3683 37.8787V44.9999H35.4455C35.7946 44.9999 36.0777 44.7204 36.0777 44.3756V36.5407C36.0776 35.0159 35.1153 33.6506 33.6614 33.1127Z" fill="#89DAA4"/>
<path d="M23.4943 32.3978C24.9807 32.3978 26.2758 31.5963 26.9573 30.4102C26.7288 30.1372 25.2411 29.7901 25.2411 29.4207V27.0371H20.3927V29.4207C20.3927 29.7901 20.2597 30.1372 20.0312 30.4102C20.7127 31.5963 22.0078 32.3978 23.4943 32.3978Z" fill="#FFCEBF"/>
<path d="M24.8163 32.1766C25.7289 31.8605 26.4886 31.2265 26.9576 30.4102C26.7265 30.1343 26.5963 29.779 26.5961 29.4207V27.0371H23.8867V30.7587C23.8867 31.3723 24.2533 31.9248 24.8163 32.1766Z" fill="#FFB09E"/>
<path d="M29.7521 20.0799H17.2383V12.6621C17.2383 11.1401 18.4875 9.90625 20.0285 9.90625H26.9618C28.5028 9.90625 29.752 11.1401 29.752 12.6621V20.0799H29.7521Z" fill="#E19974"/>
<path d="M26.9594 9.90625H24.25C25.791 9.90625 27.0403 11.1401 27.0403 12.6621V20.0799H29.7496V12.6621C29.7496 11.1401 28.5004 9.90625 26.9594 9.90625Z" fill="#DC8758"/>
<path d="M29.752 18.0471C29.4204 17.4349 28.8586 16.6519 27.9575 16.3891C26.8764 16.0737 26.3104 16.7999 24.8418 16.795C23.1717 16.7895 22.7765 15.8469 21.4296 15.7432C20.4612 15.6687 19.0627 16.0327 17.2383 18.0471V22.3766C17.2383 25.7689 20.0396 28.5189 23.4952 28.5189C26.9508 28.5189 29.7521 25.7689 29.7521 22.3766V18.0471H29.752Z" fill="#FFCEBF"/>
<path d="M29.752 18.0471C29.4204 17.4349 28.8586 16.6519 27.9575 16.3891C26.8764 16.0737 26.3104 16.7999 24.8418 16.795C23.1717 16.7895 22.7765 15.8469 21.4296 15.7432C20.4612 15.6687 19.0627 16.0327 17.2383 18.0471V22.3766C17.2383 24.6629 18.5107 26.6575 20.3984 27.7151C21.3115 28.2267 23.4952 28.079 23.4952 28.079C24.6209 28.079 25.6772 28.2271 26.5898 27.7163C28.4787 26.6591 29.7521 24.6639 29.7521 22.3766V18.0471H29.752Z" fill="#FFCEBF"/>
<path d="M29.7513 22.3765V18.047C29.4196 17.4348 28.8578 16.6518 27.9567 16.389C27.168 16.1589 26.653 16.4831 25.8621 16.6734C25.8967 16.6959 25.9305 16.7191 25.9638 16.7431C26.6552 17.2414 27.0419 18.0539 27.0419 18.8991V22.3765C27.0606 22.7605 27.1153 24.6985 25.6423 26.2475C23.6029 28.3923 20.5744 27.7538 20.3984 27.7134C21.3116 28.225 22.3677 28.5189 23.4944 28.5189C26.95 28.519 29.7513 25.7689 29.7513 22.3765Z" fill="#FFB09E"/>
<path d="M20.4781 22.1005C20.104 22.1005 19.8008 21.801 19.8008 21.4316V20.2461C19.8008 19.8766 20.104 19.5771 20.4781 19.5771C20.8522 19.5771 21.1554 19.8767 21.1554 20.2461V21.4316C21.1555 21.801 20.8522 22.1005 20.4781 22.1005Z" fill="#3D6D93"/>
<path d="M26.5132 22.1005C26.1391 22.1005 25.8359 21.801 25.8359 21.4316V20.2461C25.8359 19.8766 26.1391 19.5771 26.5132 19.5771C26.8873 19.5771 27.1906 19.8767 27.1906 20.2461V21.4316C27.1905 21.801 26.8873 22.1005 26.5132 22.1005Z" fill="#3D6D93"/>
<path d="M23.4944 25.8777C23.4833 25.8777 23.4722 25.8777 23.461 25.8775C22.9391 25.8721 22.421 25.7388 21.9626 25.4918C21.6341 25.315 21.5131 24.9086 21.6921 24.5842C21.8712 24.2599 22.2826 24.1402 22.6111 24.3172C22.7954 24.4164 23.095 24.5357 23.4751 24.5395C23.8759 24.5423 24.185 24.4209 24.3777 24.3171C24.7062 24.1403 25.1176 24.2599 25.2966 24.5843C25.4756 24.9087 25.3545 25.315 25.026 25.4918C24.6975 25.6688 24.167 25.8777 23.4944 25.8777Z" fill="#FFB09E"/>
<path d="M30.6278 21.2654H29.75V17.9951H30.6278C31.5422 17.9951 32.2833 18.7272 32.2833 19.6303C32.2834 20.5334 31.5422 21.2654 30.6278 21.2654Z" fill="#FFCEBF"/>
<path d="M16.3587 21.2654H17.2365V17.9951H16.3587C15.4443 17.9951 14.7031 18.7272 14.7031 19.6303C14.703 20.5334 15.4443 21.2654 16.3587 21.2654Z" fill="#FFB09E"/>
<path d="M30.6578 45.0004C30.2837 45.0004 29.9805 44.7009 29.9805 44.3314V40.9464C29.9805 40.5769 30.2837 40.2773 30.6578 40.2773C31.0319 40.2773 31.3352 40.5769 31.3352 40.9464V44.3314C31.3352 44.7009 31.032 45.0004 30.6578 45.0004Z" fill="#89DAA4"/>
<path d="M16.3257 45.0004C15.9516 45.0004 15.6484 44.7009 15.6484 44.3314V40.9464C15.6484 40.5769 15.9516 40.2773 16.3257 40.2773C16.6998 40.2773 17.003 40.5769 17.003 40.9464V44.3314C17.003 44.7009 16.6998 45.0004 16.3257 45.0004Z" fill="#89DAA4"/>
<path d="M45.3033 18.6773H40.7196C40.5519 18.6773 40.3911 18.7431 40.2726 18.8602L38.3651 20.7442C38.1375 20.9689 37.7484 20.8097 37.7484 20.4919V19.3017C37.7484 18.9569 37.4653 18.6773 37.1162 18.6773H35.6087C35.2596 18.6773 34.9766 18.3978 34.9766 18.053V12.4769C34.9766 12.1321 35.2596 11.8525 35.6087 11.8525H45.3033C45.6524 11.8525 45.9355 12.1321 45.9355 12.4769V18.053C45.9355 18.3978 45.6525 18.6773 45.3033 18.6773Z" fill="#AEE69C"/>
<path d="M45.3031 11.8525H42.5938C42.9429 11.8525 43.2259 12.1321 43.2259 12.4769V18.053C43.2259 18.3978 42.9429 18.6773 42.5938 18.6773H45.3031C45.6522 18.6773 45.9353 18.3978 45.9353 18.053V12.4769C45.9353 12.1321 45.6523 11.8525 45.3031 11.8525Z" fill="#89DAA4"/>
<path d="M42.3706 15.9336H38.5368C38.1627 15.9336 37.8594 15.634 37.8594 15.2646C37.8594 14.8951 38.1626 14.5957 38.5368 14.5957H42.3706C42.7447 14.5957 43.048 14.8952 43.048 15.2646C43.0479 15.6341 42.7447 15.9336 42.3706 15.9336Z" fill="white"/>
</g>
<defs>
<clipPath id="clip0_10836_1779">
<rect width="45.5625" height="45" fill="white" transform="translate(0.710938)"/>
</clipPath>
</defs>
</svg>
