<svg width="14" height="15" viewBox="0 0 14 15" fill="none" xmlns="http://www.w3.org/2000/svg">
<g id="shield-check" clip-path="url(#clip0_10836_2005)">
<path id="Vector" d="M10.8363 1.49847L7.18173 0.27989C7.06207 0.240037 6.93272 0.240037 6.81306 0.27989L3.15848 1.49847C2.57742 1.69149 2.07197 2.06271 1.71394 2.55939C1.35591 3.05607 1.1635 3.65295 1.16406 4.26522V7.25014C1.16406 11.6619 6.53073 14.0985 6.76056 14.2C6.83513 14.2331 6.91581 14.2502 6.9974 14.2502C7.07899 14.2502 7.15967 14.2331 7.23423 14.2C7.46406 14.0985 12.8307 11.6619 12.8307 7.25014V4.26522C12.8313 3.65295 12.6389 3.05607 12.2809 2.55939C11.9228 2.06271 11.4174 1.69149 10.8363 1.49847ZM9.74956 5.91839L7.25756 8.41039C7.15559 8.51305 7.03423 8.59443 6.90055 8.64981C6.76686 8.70518 6.62351 8.73345 6.47881 8.73297H6.45956C6.31192 8.73071 6.16626 8.69853 6.03141 8.63837C5.89655 8.57821 5.7753 8.49133 5.67498 8.38297L4.32981 6.98297C4.27156 6.92892 4.22496 6.86354 4.19288 6.79083C4.1608 6.71813 4.14391 6.63964 4.14325 6.56017C4.1426 6.4807 4.15818 6.40194 4.18906 6.32872C4.21993 6.25549 4.26544 6.18934 4.3228 6.13434C4.38015 6.07933 4.44814 6.03662 4.52259 6.00884C4.59704 5.98105 4.67639 5.96877 4.75576 5.97274C4.83513 5.97672 4.91285 5.99687 4.98415 6.03196C5.05545 6.06705 5.11883 6.11634 5.1704 6.17681L6.4794 7.54181L8.9224 5.09181C9.03241 4.98555 9.17977 4.92675 9.33271 4.92808C9.48566 4.92941 9.63197 4.99076 9.74012 5.09891C9.84828 5.20707 9.90963 5.35338 9.91096 5.50632C9.91229 5.65927 9.85349 5.80662 9.74723 5.91664L9.74956 5.91839Z" fill="#E50914"/>
</g>
<defs>
<clipPath id="clip0_10836_2005">
<rect width="14" height="14" fill="white" transform="translate(0 0.25)"/>
</clipPath>
</defs>
</svg>
