<svg width="14" height="14" viewBox="0 0 14 14" fill="none" xmlns="http://www.w3.org/2000/svg">
<rect width="14" height="14" fill="#1E1E1E"/>
<g id="Home --&#62;Desktop Design 3.0--&#62; Final">
<rect width="1440" height="4104" transform="translate(-464 -1047)" fill="white"/>
<g id="left area">
<g id="Frame 1000002665">
<g id="left">
<g id="Frame 1000002662">
<g id="topics cover">
<g id="points">
<g id="shield-check" clip-path="url(#clip0_3434_514)">
<path id="Vector" d="M10.8363 1.24847L7.18173 0.0298905C7.06207 -0.00996349 6.93272 -0.00996349 6.81306 0.0298905L3.15848 1.24847C2.57742 1.44149 2.07197 1.81271 1.71394 2.30939C1.35591 2.80607 1.1635 3.40295 1.16406 4.01522V7.00014C1.16406 11.4119 6.53073 13.8485 6.76056 13.95C6.83513 13.9831 6.91581 14.0002 6.9974 14.0002C7.07899 14.0002 7.15967 13.9831 7.23423 13.95C7.46406 13.8485 12.8307 11.4119 12.8307 7.00014V4.01522C12.8313 3.40295 12.6389 2.80607 12.2809 2.30939C11.9228 1.81271 11.4174 1.44149 10.8363 1.24847ZM9.74956 5.66839L7.25756 8.16039C7.15559 8.26305 7.03423 8.34443 6.90055 8.39981C6.76686 8.45518 6.62351 8.48345 6.47881 8.48297H6.45956C6.31192 8.48071 6.16626 8.44853 6.03141 8.38837C5.89655 8.32821 5.7753 8.24133 5.67498 8.13297L4.32981 6.73297C4.27156 6.67892 4.22496 6.61354 4.19288 6.54083C4.1608 6.46813 4.14391 6.38964 4.14325 6.31017C4.1426 6.2307 4.15818 6.15194 4.18906 6.07872C4.21993 6.00549 4.26544 5.93934 4.3228 5.88434C4.38015 5.82933 4.44814 5.78662 4.52259 5.75884C4.59704 5.73105 4.67639 5.71877 4.75576 5.72274C4.83513 5.72672 4.91285 5.74687 4.98415 5.78196C5.05545 5.81705 5.11883 5.86634 5.1704 5.92681L6.4794 7.29181L8.9224 4.84181C9.03241 4.73555 9.17977 4.67675 9.33271 4.67808C9.48566 4.67941 9.63197 4.74076 9.74012 4.84891C9.84828 4.95707 9.90963 5.10338 9.91096 5.25632C9.91229 5.40927 9.85349 5.55662 9.74723 5.66664L9.74956 5.66839Z" fill="#E50914"/>
</g>
</g>
</g>
</g>
</g>
</g>
</g>
</g>
<defs>
<clipPath id="clip0_3434_514">
<rect width="14" height="14" fill="white"/>
</clipPath>
</defs>
</svg>
