<svg width="44" height="40" viewBox="0 0 44 40" fill="none" xmlns="http://www.w3.org/2000/svg">
<g id="direction" clip-path="url(#clip0_7784_298)">
<g id="Group">
<path id="Vector" d="M24.1196 27.7344H19.8438V38.6654H24.1196V27.7344Z" fill="url(#paint0_linear_7784_298)"/>
<path id="Vector_2" d="M24.1196 14.2305H19.8438V17.5523H24.1196V14.2305Z" fill="url(#paint1_linear_7784_298)"/>
<path id="Vector_3" d="M24.1196 0.792969H19.8438V4.11481H24.1196V0.792969Z" fill="url(#paint2_linear_7784_298)"/>
<path id="Vector_4" d="M38.8195 17.6092C38.5551 17.3448 38.8195 17.4368 25.1528 17.4368V14.3448H28.5206C29.5436 14.3448 30.3827 13.5172 30.3827 12.4943V5.7931C30.3827 4.77012 29.5436 3.94253 28.5206 3.94253H25.1528V1.86207C25.1528 0.839081 24.3137 0 23.2907 0H20.67C19.647 0 18.808 0.839081 18.808 1.86207V3.94253H5.55509C5.21026 3.94253 5.50911 3.74713 0.589574 8.74713C0.371184 8.96552 0.371184 9.33333 0.589574 9.55172L5.1413 14.1724C5.40567 14.4368 5.1413 14.3448 18.808 14.3448V17.4368H15.4401C14.4172 17.4368 13.5781 18.2759 13.5781 19.2988V25.9885C13.5781 27.0115 14.4172 27.8506 15.4401 27.8506H18.808V38.8506H11.1988C10.4401 38.8506 10.4401 40 11.1988 40H32.762C33.5206 40 33.5206 38.8506 32.762 38.8506H25.1528V27.8506H38.4057C38.7505 27.8506 38.4516 28.046 43.3712 23.046C43.9114 22.4943 43.5896 22.4713 38.8195 17.6092ZM24.0034 38.5517H19.9574V27.8506H24.0034V38.5517ZM19.9574 1.86207C19.9574 1.47126 20.2792 1.14943 20.67 1.14943H23.2907C23.6815 1.14943 24.0034 1.47126 24.0034 1.86207V3.94253H19.9574V1.86207ZM28.5206 5.09195C28.9114 5.09195 29.2332 5.4023 29.2332 5.7931V12.4943C29.2332 12.8851 28.9114 13.1954 28.5206 13.1954H5.79647L1.80796 9.14943L5.79647 5.09195H28.5206ZM19.9574 14.3448H24.0034V17.4368H19.9574V14.3448Z" fill="#181818"/>
<path id="Vector_5" d="M15.4392 26.7009C15.0484 26.7009 14.7266 26.379 14.7266 25.9882V19.2986C14.7266 18.9078 15.0484 18.5859 15.4392 18.5859H38.1633L42.1518 22.6434L38.1633 26.7009H15.4392Z" fill="url(#paint3_linear_7784_298)"/>
</g>
</g>
<defs>
<linearGradient id="paint0_linear_7784_298" x1="19.8438" y1="38.6654" x2="24.1196" y2="38.6654" gradientUnits="userSpaceOnUse">
<stop stop-color="#FF8A00"/>
<stop offset="1" stop-color="#EE224A"/>
</linearGradient>
<linearGradient id="paint1_linear_7784_298" x1="19.8438" y1="17.5523" x2="24.1196" y2="17.5523" gradientUnits="userSpaceOnUse">
<stop stop-color="#FF8A00"/>
<stop offset="1" stop-color="#EE224A"/>
</linearGradient>
<linearGradient id="paint2_linear_7784_298" x1="19.8438" y1="4.11481" x2="24.1196" y2="4.11481" gradientUnits="userSpaceOnUse">
<stop stop-color="#FF8A00"/>
<stop offset="1" stop-color="#EE224A"/>
</linearGradient>
<linearGradient id="paint3_linear_7784_298" x1="14.7266" y1="26.7009" x2="42.1518" y2="26.7009" gradientUnits="userSpaceOnUse">
<stop stop-color="#FF8A00"/>
<stop offset="1" stop-color="#EE224A"/>
</linearGradient>
<clipPath id="clip0_7784_298">
<rect width="43.1379" height="40" fill="white" transform="translate(0.429688)"/>
</clipPath>
</defs>
</svg>
