<svg width="38" height="40" viewBox="0 0 38 40" fill="none" xmlns="http://www.w3.org/2000/svg">
<g id="goal" clip-path="url(#clip0_7784_266)">
<g id="Group">
<path id="Vector" d="M29.3516 8.43501L32.2358 5.55078L35.6486 5.87253L32.7299 8.79123L29.3516 8.43501Z" fill="url(#paint0_linear_7784_266)"/>
<path id="Vector_2" d="M28.3398 4.53866L31.2585 1.5625L31.6033 4.81444L28.6846 7.7906L28.3398 4.53866Z" fill="url(#paint1_linear_7784_266)"/>
<path id="Vector_3" d="M25.7785 38.9412L23.0781 34.4713L23.1815 34.4138C23.8021 34.0806 24.3881 33.7014 24.9512 33.2877L25.0546 33.2188L28.4904 38.9298H25.7785V38.9412Z" fill="url(#paint2_linear_7784_266)"/>
<path id="Vector_4" d="M16.0457 35.334C8.18584 35.334 1.79688 28.945 1.79688 21.0967C1.79688 12.2946 9.23152 6.85938 16.1261 6.85938C19.6768 6.85938 22.9747 8.16934 25.6636 10.6629L25.7555 10.7433L22.5725 13.9263L22.4921 13.8574C20.6765 12.2371 18.4702 11.3753 16.1031 11.3753C11.3918 11.3753 6.30133 15.0984 6.30133 21.1082C6.30133 26.4744 10.6679 30.8295 16.0342 30.8295C19.9181 30.8295 23.3194 28.6232 24.9052 25.061C26.4909 21.5103 25.8704 17.5345 23.2964 14.6617L23.2275 14.5813L26.4105 11.3983L26.4909 11.4902C29.5475 14.8226 30.846 19.2696 30.0301 23.6821C29.2143 28.1176 26.3875 31.8407 22.2508 33.9091C20.2743 34.8513 18.1945 35.334 16.0457 35.334Z" fill="url(#paint3_linear_7784_266)"/>
<path id="Vector_5" d="M16.0242 24.4152C14.1972 24.4152 12.7148 22.9214 12.7148 21.0943C12.7148 19.2673 14.2087 17.7734 16.0357 17.7734C16.7022 17.7734 17.3572 17.9803 17.9202 18.3825L18.0352 18.4629L17.9432 18.5548C17.5066 18.9915 17.1389 19.3477 16.8286 19.658C15.9438 20.5083 15.5071 20.9449 15.5071 21.2207C15.5071 21.3127 15.5531 21.3931 15.6565 21.4965C15.7599 21.5999 15.8519 21.6459 15.9323 21.6459C16.2081 21.6459 16.6333 21.1977 17.4951 20.3244C17.7938 20.0142 18.1616 19.6465 18.5867 19.2098L18.6901 19.1179L18.7706 19.2328C19.483 20.267 19.552 21.5425 18.9659 22.6456C18.3684 23.7487 17.2768 24.4152 16.0242 24.4152Z" fill="url(#paint4_linear_7784_266)"/>
<path id="Vector_6" d="M6.78553 33.1484L6.88895 33.2289C7.42903 33.6311 8.02656 34.0218 8.64707 34.3665L8.75049 34.4239L6.0731 38.8939L3.46465 38.9514H3.25781L6.78553 33.1484Z" fill="url(#paint5_linear_7784_266)"/>
<path id="Vector_7" d="M37.2011 5.33044C37.0288 4.84782 36.9139 4.97422 32.6162 4.50309C31.9727 -1.42624 32.7426 -1.38028 27.4568 3.90556C27.1925 4.16985 27.2615 4.05494 27.7441 8.58238L26.3996 9.92682C23.5614 7.29539 19.9072 5.83604 16.0233 5.83604C1.9354 5.83604 -4.59146 23.3942 6.01469 32.587L2.0618 39.1023C1.83198 39.4815 2.10776 39.9757 2.55591 39.9757C6.31345 39.9757 6.64669 40.1135 6.89949 39.6999L9.72626 34.9771C13.6217 36.7352 18.0572 36.8731 22.2054 35.0345L24.9518 39.6999C25.1816 40.0791 25.1356 39.9871 29.2954 39.9871C29.7435 39.9871 30.0193 39.5045 29.7895 39.1138L25.9285 32.6789C32.5473 27.0254 33.1218 17.1316 27.2155 10.7427L28.5714 9.38674L32.9035 9.85787C33.2482 9.85787 33.0529 9.93831 37.0632 5.93946C37.2241 5.7671 37.2816 5.53728 37.2011 5.33044ZM25.7791 38.8266L23.2396 34.5175C23.8716 34.1727 24.4577 33.7935 25.0207 33.3913L28.2841 38.8266H25.7791ZM24.8369 32.1158C19.4821 36.402 12.0245 36.0802 7.11782 32.0354C0.625432 26.7726 0.131321 17.0282 6.04916 11.1219C11.3695 5.79008 19.9762 5.54877 25.5838 10.7427L22.5617 13.7648C16.2646 8.11125 6.17556 12.6272 6.17556 21.096C6.17556 26.5198 10.5881 30.9323 16.0233 30.9323C24.5151 30.9323 29.0081 20.8432 23.3775 14.5692L26.3996 11.547C31.9842 17.6258 31.2028 27.0139 24.8369 32.1158ZM3.57861 38.8266L6.92247 33.3109C7.47404 33.7246 8.06008 34.1038 8.69208 34.4485L6.08363 38.8151L3.57861 38.8266ZM15.5637 21.5672C16.1037 22.1072 16.4255 21.5212 18.6547 19.2805C20.1141 21.4063 18.5743 24.2905 16.0118 24.2905C14.2537 24.2905 12.8173 22.8541 12.8173 21.0845C12.8173 18.5106 15.713 16.9708 17.8389 18.4646C15.6096 20.7168 15.0236 21.0271 15.5637 21.5672ZM18.6662 17.6602C15.7705 15.431 11.6797 17.5223 11.6797 21.096C11.6797 23.4976 13.6332 25.4511 16.0233 25.4511C19.597 25.4511 21.6768 21.3718 19.4821 18.4761L22.5731 15.385C27.4798 20.9352 23.5039 29.7832 16.0348 29.7832C11.2431 29.7832 7.33615 25.8878 7.33615 21.096C7.33615 13.5924 16.2416 9.67402 21.7573 14.5807L18.6662 17.6602ZM29.6171 8.34107L32.329 5.6292L35.4085 5.96244L32.6967 8.67431L29.6171 8.34107ZM28.7897 7.5367L28.468 4.52607L31.1799 1.81421L31.5016 4.82484L28.7897 7.5367Z" fill="#181818"/>
</g>
</g>
<defs>
<linearGradient id="paint0_linear_7784_266" x1="29.3516" y1="8.79123" x2="35.6486" y2="8.79123" gradientUnits="userSpaceOnUse">
<stop stop-color="#FF8A00"/>
<stop offset="1" stop-color="#EE224A"/>
</linearGradient>
<linearGradient id="paint1_linear_7784_266" x1="28.3398" y1="7.7906" x2="31.6033" y2="7.7906" gradientUnits="userSpaceOnUse">
<stop stop-color="#FF8A00"/>
<stop offset="1" stop-color="#EE224A"/>
</linearGradient>
<linearGradient id="paint2_linear_7784_266" x1="23.0781" y1="38.9412" x2="28.4904" y2="38.9412" gradientUnits="userSpaceOnUse">
<stop stop-color="#FF8A00"/>
<stop offset="1" stop-color="#EE224A"/>
</linearGradient>
<linearGradient id="paint3_linear_7784_266" x1="1.79688" y1="35.334" x2="30.2689" y2="35.334" gradientUnits="userSpaceOnUse">
<stop stop-color="#FF8A00"/>
<stop offset="1" stop-color="#EE224A"/>
</linearGradient>
<linearGradient id="paint4_linear_7784_266" x1="12.7148" y1="24.4152" x2="19.3602" y2="24.4152" gradientUnits="userSpaceOnUse">
<stop stop-color="#FF8A00"/>
<stop offset="1" stop-color="#EE224A"/>
</linearGradient>
<linearGradient id="paint5_linear_7784_266" x1="3.25781" y1="38.9514" x2="8.75049" y2="38.9514" gradientUnits="userSpaceOnUse">
<stop stop-color="#FF8A00"/>
<stop offset="1" stop-color="#EE224A"/>
</linearGradient>
<clipPath id="clip0_7784_266">
<rect width="36.4723" height="40" fill="white" transform="translate(0.765625)"/>
</clipPath>
</defs>
</svg>
