<svg width="44" height="40" viewBox="0 0 44 40" fill="none" xmlns="http://www.w3.org/2000/svg">
<g id="mentoring" clip-path="url(#clip0_7784_287)">
<g id="Group">
<path id="Vector" d="M12.1098 38.9082V28.4604C12.1098 28.1504 11.8802 28.0012 11.6506 28.0012C11.421 28.0012 11.1913 28.139 11.1913 28.4604V38.9082H9.52658C8.83772 38.9082 8.71143 38.8967 8.4244 38.8163C7.54036 38.5523 6.93186 37.7486 6.93186 36.876V19.4478C6.93186 19.1378 6.70224 18.9886 6.47262 18.9886C6.243 18.9886 6.01338 19.1263 6.01338 19.4478V25.2113L4.36011 25.2228C3.61384 25.2228 3.32681 25.1883 2.93646 25.0046C2.31648 24.7061 1.8802 24.1436 1.77687 23.5006C1.75391 23.3169 1.75391 23.3169 1.75391 20.3548V15.705C1.75391 13.9025 3.29237 12.4214 5.17526 12.4214C5.96745 12.4214 6.57595 12.4099 7.05815 12.4099C7.37962 12.4099 7.64369 12.3984 7.87331 12.3984C8.99845 12.3984 9.20511 12.5018 10.3417 13.0758C10.6402 13.2251 10.9962 13.4088 11.4554 13.6269L11.7424 13.6728L11.6735 13.8106C11.3521 14.4421 11.2028 15.0161 11.2028 15.6935C11.2028 17.3238 11.2028 18.6326 11.1913 19.6774C11.1799 23.5925 11.1684 23.9139 11.5243 24.4765C11.5358 24.488 11.5587 24.5339 11.6047 24.6028C11.7654 24.8669 12.1213 25.4754 12.902 25.8083C13.4531 26.0724 13.9812 26.1298 14.8193 26.1298L16.3808 26.1183V32.7543C16.3808 37.1631 16.3808 37.1631 16.3119 37.3927C15.8526 38.8163 14.6471 38.9312 13.5679 38.9312C13.3383 38.9312 12.1098 38.9082 12.1098 38.9082Z" fill="url(#paint0_linear_7784_287)"/>
<path id="Vector_2" d="M30.4498 38.9277C29.3017 38.9277 28.1536 38.8129 27.7173 37.3778C27.6484 37.1482 27.6484 37.1482 27.6484 32.5557V26.1264L29.2902 26.1378C30.1283 26.1378 30.5072 26.1034 31.0124 25.8738C31.9653 25.4719 32.6312 24.6223 32.8034 23.6235C32.8379 23.3824 32.8379 23.3824 32.8379 20.0069V15.7016C32.8379 15.0242 32.6886 14.4386 32.3672 13.8187L32.2983 13.6809L32.459 13.6579C32.5623 13.6464 32.5968 13.635 33.5841 13.1528L35.0652 12.4409C35.7426 12.4295 37.7862 12.418 37.7862 12.418C39.6232 12.418 40.3006 12.5328 41.2305 13.3365C41.7013 13.7727 42.0342 14.3123 42.1949 14.8979C42.1949 16.953 42.2523 18.5489 42.2983 19.8233C42.4131 23.279 42.459 24.4501 41.0354 25.0357C40.6794 25.1964 40.3924 25.2193 39.6921 25.2193L38.0388 25.2079V19.4444C38.0388 19.1344 37.8092 18.9851 37.5796 18.9851C37.3499 18.9851 37.1203 19.1229 37.1203 19.4444V30.1906C37.1318 37.1137 37.1318 37.1137 37.0285 37.4467L37.017 37.4926L36.9481 37.5385C36.9596 37.5385 36.9366 37.5959 36.9137 37.6304C36.7874 37.9174 36.5348 38.5259 35.6048 38.8129C35.3293 38.8933 35.157 38.9048 34.5141 38.9048H32.8264V28.457C32.8264 28.147 32.5968 27.9978 32.3672 27.9978C32.1375 27.9978 31.9079 28.1355 31.9079 28.457V38.9048C31.9194 38.9048 30.668 38.9277 30.4498 38.9277Z" fill="url(#paint1_linear_7784_287)"/>
<path id="Vector_3" d="M22.4715 38.9082V28.4604C22.4715 28.1504 22.2419 28.0012 22.0122 28.0012C21.7826 28.0012 21.553 28.139 21.553 28.4604V38.9082H19.4175C18.3957 38.9082 17.282 38.1275 17.282 36.8761V19.4478C17.282 19.1952 17.0754 18.9886 16.8228 18.9886C16.5702 18.9886 16.3636 19.1952 16.3636 19.4478V25.2113H14.7677C13.964 25.2113 13.6655 25.1769 13.2752 24.9932C12.5519 24.6372 12.0926 23.9484 12.0926 23.1792C12.0926 21.6751 12.0926 20.4352 12.0811 19.4248C12.0582 15.0046 12.0582 14.7406 12.6552 13.9025C13.6196 12.6395 14.6644 12.3984 16.1454 12.3984C16.4325 12.3984 16.7195 12.4099 17.0295 12.4099C17.3624 12.4214 17.7298 12.4329 18.0972 12.4329H18.9812C19.2683 12.4329 19.3027 12.4444 19.3946 12.4903L20.8527 13.2021C21.7711 13.6499 21.8056 13.6614 21.863 13.6614L21.9893 13.7876V13.6728C22.0926 13.6728 22.3337 13.558 23.367 13.0643L24.6414 12.4444C25.3073 12.4329 25.8469 12.4329 26.3176 12.4214H27.328C29.2568 12.4214 29.8653 12.5247 30.8067 13.3399C31.2775 13.7762 31.6104 14.3158 31.7711 14.9013C31.7711 16.9335 31.84 18.5408 31.886 19.8152C32.0122 23.1562 32.0696 24.4076 30.6116 25.0391C30.2442 25.1998 29.9801 25.2228 29.2568 25.2228L27.615 25.2113V19.4478C27.615 19.1952 27.4083 18.9886 27.1558 18.9886C26.9032 18.9886 26.6965 19.1952 26.6965 19.4478V26.612C26.6965 33.7532 26.6965 37.0138 26.6736 37.1975C26.398 38.8164 25.0662 38.9426 23.8377 38.9426C23.6655 38.9312 22.4715 38.9082 22.4715 38.9082Z" fill="url(#paint2_linear_7784_287)"/>
<path id="Vector_4" d="M16.1083 5.55474C16.1083 4.03924 16.2461 2.65003 14.7994 1.24934C11.9981 -1.43722 7.1875 0.480112 7.1875 4.3033V5.55474C7.1875 7.93132 9.1852 9.86013 11.6422 9.86013C14.1106 9.86013 16.1083 7.93132 16.1083 5.55474ZM8.33561 4.3033C8.33561 1.46748 11.9292 0.0897557 13.9958 2.07598C15.1209 3.1552 14.9602 4.3033 14.9602 5.55474C14.9602 7.29986 13.4791 8.71203 11.6536 8.71203C9.82814 8.71203 8.34709 7.28838 8.34709 5.55474V4.3033H8.33561Z" fill="#181818"/>
<path id="Vector_5" d="M37.9795 37.7932C38.1861 37.1847 38.1287 37.6898 38.1287 26.2432C39.805 26.2432 40.6086 26.3351 41.4238 25.9792C42.4226 25.6003 43.3182 24.4866 43.3182 23.1778C43.3182 15.0492 43.4789 14.9229 42.7786 13.637C42.5719 13.3959 42.526 13.0859 41.7797 12.443C41.6649 12.3626 41.2171 11.9723 40.9416 11.8919C40.2872 11.5589 39.5983 11.3982 38.852 11.3982C33.8807 11.3982 35.4766 11.0882 32.3767 12.5808C29.4146 11.1571 30.2986 11.3982 28.4961 11.3982C23.5937 11.3982 25.1551 11.0767 22.0208 12.5808C18.8635 11.0653 20.379 11.3982 15.5455 11.3982C13.72 11.3982 14.6155 11.1571 11.6534 12.5808C8.55353 11.0882 10.1494 11.3982 5.1781 11.3982C3.6626 11.3982 2.36524 12.133 1.58452 13.1548C0.356052 13.924 0.711964 18.2983 0.711964 23.1893C0.711964 24.4063 1.45823 25.451 2.46857 25.9332C3.26076 26.3121 3.65112 26.2547 5.88992 26.2547C5.88992 36.0366 5.77511 37.7587 6.17695 38.1606C6.17695 38.4017 6.85433 39.3431 8.11725 39.8253C8.41575 39.9172 8.73722 39.9631 9.04721 39.9631C13.697 39.9631 15.5455 40.4108 16.8199 38.6428C17.3825 39.4235 18.3124 39.9631 19.4146 39.9631C24.0185 39.9631 25.9129 40.4108 27.1873 38.6428C28.0139 39.7909 28.852 39.699 28.852 39.8368C29.1505 39.9286 29.472 39.9746 29.782 39.9746C35.7177 39.9746 35.1551 40.0205 35.9014 39.8368C35.9014 39.5727 37.1643 39.8253 37.9795 37.7932ZM31.8027 28.4591V38.792C29.9887 38.792 28.3698 39.0905 27.8302 37.3454C27.7384 37.0239 27.7728 37.8391 27.7728 26.2432C29.4491 26.2432 30.2527 26.3351 31.0679 25.9792C32.0093 25.5773 32.7441 24.7162 32.9163 23.637C32.9737 23.2581 32.9508 23.5222 32.9508 15.6921C32.9508 14.9229 32.7671 14.3259 32.4686 13.7518C32.6523 13.7174 32.2964 13.8781 35.0977 12.5234C39.0702 12.5234 39.8509 12.2937 41.1368 13.3959C41.5845 13.8092 41.906 14.3259 42.0552 14.8999C42.0552 17.575 42.4686 23.1548 41.8945 24.1077C41.2171 25.2099 40.3446 25.0722 38.1287 25.0722V19.4235C38.1287 18.6657 36.9806 18.6657 36.9806 19.4235V36.8632C36.9806 37.6095 36.4984 38.4131 35.5685 38.6887C35.1781 38.8035 35.0863 38.7805 32.9508 38.7805V28.4476C32.9508 27.7013 31.8027 27.7013 31.8027 28.4591ZM21.4353 28.4591V38.792C19.8509 38.792 17.7613 39.1594 17.4284 37.1617C17.3939 36.8976 17.4054 32.1674 17.4054 19.435C17.4054 19.1135 17.1528 18.8609 16.8314 18.8609C16.5099 18.8609 16.2573 19.1135 16.2573 19.435V25.0836C14.2022 25.0836 13.8922 25.1525 13.3411 24.877C11.8256 24.1422 12.2275 23.063 12.2275 15.6921C12.2275 14.5555 12.7786 14.0618 12.7786 13.947C14.2481 12.0067 16.0162 12.5234 19.2998 12.5234C22.3423 13.9929 21.8371 13.924 22.7786 13.4648C25.1896 12.3052 24.4548 12.5234 25.9014 12.5234C28.3698 12.5234 29.472 12.2708 30.7808 13.3959C32.1701 14.6933 31.8027 15.2099 31.8027 23.1548C31.8027 24.234 30.8727 25.0722 29.782 25.0722H27.7613V19.4235C27.7613 19.102 27.5088 18.8494 27.1873 18.8494C26.8658 18.8494 26.6132 19.102 26.6132 19.4235C26.6132 31.4097 26.6247 36.9091 26.5903 37.1502C26.4181 38.1146 25.5799 38.7805 24.5926 38.7805H22.5719V28.4476C22.5834 27.7013 21.4353 27.7013 21.4353 28.4591ZM11.0794 28.4591V38.792C9.28831 38.792 7.63504 39.0905 7.10691 37.3454C7.01506 36.9895 7.04951 37.3339 7.04951 19.435C7.04951 18.6772 5.9014 18.6772 5.9014 19.435V25.0836C3.84629 25.0836 3.52482 25.1525 2.98521 24.877C2.53745 24.6588 2.06673 24.1766 1.92896 23.6255C1.82563 23.2581 1.80266 15.5544 1.97488 14.8999C2.813 11.846 6.24583 12.5234 8.94388 12.5234C11.7108 13.8552 11.3893 13.7174 11.573 13.7518C10.9301 15.0033 11.0908 15.2099 11.0908 23.1663C11.0908 24.4981 11.9749 25.6347 13.1689 26.048C13.8922 26.3006 14.3974 26.2317 16.2688 26.2317C16.2688 32.9941 16.2803 36.9206 16.2458 37.1617C16.0966 38.0687 15.2699 38.792 14.2481 38.792H12.2275V28.4591C12.2275 27.7013 11.0794 27.7013 11.0794 28.4591Z" fill="#181818"/>
<path id="Vector_6" d="M32.3766 9.86223C34.8335 9.86223 36.8312 7.93341 36.8312 5.55683V4.3054C36.8312 1.88289 34.7991 0 32.3766 0C29.9196 0 27.9219 1.92882 27.9219 4.3054V5.55683C27.9104 7.93341 29.9196 9.86223 32.3766 9.86223ZM29.0585 4.3054C29.0585 1.46958 32.6521 0.0918486 34.7187 2.07807C35.8553 3.16877 35.6831 4.32836 35.6831 5.55683C35.6831 7.30195 34.2021 8.71412 32.3766 8.71412C30.5511 8.71412 29.07 7.29047 29.07 5.55683V4.3054H29.0585Z" fill="#181818"/>
<path id="Vector_7" d="M22.0093 9.86223C24.4663 9.86223 26.464 7.93341 26.464 5.55683V4.3054C26.464 1.91734 24.4663 0 22.0093 0C19.5524 0 17.5547 1.92882 17.5547 4.3054V5.55683C17.5547 7.93341 19.5524 9.86223 22.0093 9.86223ZM18.7028 4.3054C18.7028 1.46958 22.2964 0.0918486 24.363 2.07807C25.4881 3.15729 25.3274 4.3054 25.3274 5.55683C25.3274 7.30195 23.8463 8.71412 22.0208 8.71412C20.1953 8.71412 18.7143 7.29047 18.7143 5.55683V4.3054H18.7028Z" fill="#181818"/>
</g>
</g>
<defs>
<linearGradient id="paint0_linear_7784_287" x1="1.75391" y1="38.9312" x2="16.3808" y2="38.9312" gradientUnits="userSpaceOnUse">
<stop stop-color="#FF8A00"/>
<stop offset="1" stop-color="#EE224A"/>
</linearGradient>
<linearGradient id="paint1_linear_7784_287" x1="27.6484" y1="38.9277" x2="42.3497" y2="38.9277" gradientUnits="userSpaceOnUse">
<stop stop-color="#FF8A00"/>
<stop offset="1" stop-color="#EE224A"/>
</linearGradient>
<linearGradient id="paint2_linear_7784_287" x1="12.0742" y1="38.9427" x2="31.9452" y2="38.9427" gradientUnits="userSpaceOnUse">
<stop stop-color="#FF8A00"/>
<stop offset="1" stop-color="#EE224A"/>
</linearGradient>
<clipPath id="clip0_7784_287">
<rect width="42.6636" height="40" fill="white" transform="translate(0.667969)"/>
</clipPath>
</defs>
</svg>
