<svg width="44" height="40" viewBox="0 0 44 40" fill="none" xmlns="http://www.w3.org/2000/svg">
<g id="skill-building" clip-path="url(#clip0_7784_277)">
<g id="Group">
<path id="Vector" d="M32.2809 7.97656H30.4648V14.5513H32.2809V7.97656Z" fill="url(#paint0_linear_7784_277)"/>
<path id="Vector_2" d="M1.98438 31.1145V7.97656H3.80047V8.09151C3.80047 13.6317 3.78897 17.6892 3.77748 20.6662C3.75449 28.3674 3.75449 28.8271 4.03035 28.9766C4.11081 29.0225 4.17978 29.034 4.26024 29.034C4.35219 29.034 4.43265 29.011 4.51311 28.9536C6.40966 27.7122 8.42116 27.08 10.5016 27.08C13.2947 27.08 15.5131 28.2179 16.5821 28.7582C16.8579 28.8961 17.0648 29.011 17.1683 29.034C17.2602 29.034 17.4327 28.9191 17.697 28.7697C18.1453 28.4938 18.8235 28.0915 20.0189 27.6892L20.1568 27.6432L20.1683 27.7927C20.2028 28.3214 20.2487 28.6547 20.2947 28.8961C20.3867 29.4938 20.3522 29.5398 19.7545 29.8731L19.4786 30.034C19.1223 30.2409 18.8924 30.5973 18.8235 31.034L18.812 31.126H1.98438V31.1145Z" fill="url(#paint1_linear_7784_277)"/>
<path id="Vector_3" d="M4.71875 5.74479L4.78772 5.71031C5.32795 5.49192 5.93714 5.30801 6.66128 5.11261L6.8107 5.07812V21.8597C6.8107 22.1241 6.85668 22.1586 9.46588 23.9172C10.282 24.4689 11.3509 25.1816 12.7302 26.1241L12.6498 26.331C11.9946 26.2276 11.3279 26.1701 10.6728 26.1701C8.67277 26.1701 6.68427 26.6873 4.89116 27.6528L4.71875 27.7448V5.74479Z" fill="url(#paint2_linear_7784_277)"/>
<path id="Vector_4" d="M30.9709 38.9745C30.4421 38.9745 29.7985 38.963 28.9824 38.963C28.8329 38.963 28.7295 38.9285 28.649 38.8481C28.4881 38.6871 28.4996 38.4228 28.4996 38.009V37.7676C28.4996 36.894 28.0513 36.6986 27.1663 36.2963C26.4996 35.9975 25.5801 35.5952 24.5341 34.6986C24.2697 34.4802 23.9364 34.3538 23.5916 34.3538C23.3502 34.3538 23.1088 34.4113 22.9019 34.5377L22.2812 34.894C22.2123 34.94 22.1203 34.963 22.0398 34.963C21.8674 34.963 21.7065 34.871 21.626 34.7216C21.2008 33.986 20.8559 33.3998 20.5801 32.94C19.9134 31.8251 19.6605 31.4113 19.741 31.1009C19.7985 30.8825 20.0169 30.7561 20.3387 30.5722L20.5456 30.4573C21.3387 29.9975 21.2697 29.4228 21.1548 28.4687C21.0973 28.0205 21.0398 27.5032 21.0628 26.894C21.0743 26.5722 21.1088 26.2619 21.1548 25.986C21.2697 25.1009 21.3502 24.4688 20.5456 23.9975L20.3387 23.8825C20.0169 23.6986 19.7985 23.5722 19.741 23.3538C19.6605 23.0435 19.9134 22.6182 20.5916 21.4802C20.8674 21.0205 21.2123 20.4573 21.626 19.7331C21.718 19.5722 21.8444 19.4917 21.9939 19.4917C22.1893 19.4917 22.3962 19.6182 22.6835 19.7906L22.8904 19.917C23.1433 20.0665 23.3617 20.1354 23.5571 20.1354C23.9594 20.1354 24.3157 19.871 24.8214 19.5032C25.4077 19.0665 26.2237 18.4802 27.5226 18.009C28.4766 17.6642 28.4766 16.94 28.4766 16.1009V15.963C28.4766 15.7906 28.4766 15.6182 28.7295 15.5377C28.9249 15.4802 29.3042 15.4688 29.9824 15.4688L32.695 15.4802C32.8444 15.4802 32.9594 15.5147 33.0398 15.6067C33.1893 15.7561 33.1778 15.9975 33.1778 16.2848C33.1778 16.6182 33.1663 17.032 33.3962 17.3998C33.6375 17.8021 34.0169 17.963 34.5801 18.2044C35.2123 18.4687 36.0628 18.8366 37.1433 19.7561C37.4306 19.9975 37.718 20.1239 38.0169 20.1239C38.4421 20.1239 38.8444 19.8825 39.2697 19.6412L39.3962 19.5722C39.4881 19.5262 39.5571 19.4917 39.649 19.4917C39.9364 19.4917 40.1088 19.8021 40.9479 21.2848C41.2008 21.7446 41.5226 22.3078 41.9249 23.009C41.9939 23.1354 42.0169 23.2504 41.9939 23.3538C41.9364 23.5722 41.6835 23.7101 41.3502 23.9055L41.1318 24.0205C40.3387 24.4802 40.4077 25.0435 40.5226 25.963C40.5686 26.3423 40.6261 26.7676 40.6261 27.2504C40.6261 27.94 40.5571 28.4343 40.5111 28.8366C40.3847 29.8251 40.3502 30.032 41.7525 30.8366C41.9824 30.9745 42.0628 31.2619 41.9249 31.4917L40.8329 33.3883C39.9594 34.917 39.9594 34.917 39.764 34.963L39.626 34.986C39.4881 34.986 39.3732 34.917 39.0743 34.7331L38.7755 34.5607C38.5226 34.4113 38.3042 34.3423 38.1088 34.3423C37.7065 34.3423 37.3387 34.6067 36.8329 34.9745C36.2467 35.3998 35.4306 35.9975 34.1433 36.4573C33.1778 36.8021 33.1893 37.5262 33.1893 38.3538V38.4917C33.1893 38.94 32.9709 38.986 31.8329 38.986L30.9709 38.9745ZM30.8329 20.2504C26.9939 20.2504 23.8559 23.3883 23.8559 27.2504C23.8559 31.1124 26.9939 34.2504 30.8444 34.2504C35.1893 34.2504 37.4766 30.94 37.764 27.8596C38.0628 24.7216 36.4306 21.1929 32.1433 20.3768C31.718 20.2848 31.2697 20.2504 30.8329 20.2504Z" fill="url(#paint3_linear_7784_277)"/>
<path id="Vector_5" d="M42.2941 29.9183C41.6389 29.539 41.4435 29.4815 41.4895 29.1942C41.7423 27.8493 41.7423 26.585 41.4895 25.2402C41.432 24.9643 41.6504 24.8953 42.2941 24.5275C43.0182 24.1137 43.2596 23.1827 42.8458 22.4585L40.9722 19.2057C40.5584 18.4815 39.6274 18.2287 38.9032 18.6425C38.4435 18.9068 38.1446 19.2057 37.8458 18.9413C36.8573 18.1022 35.7308 17.4585 34.5124 17.0103C34.1676 16.8838 34.2481 16.6539 34.2481 15.9413C34.2481 15.3206 33.8688 14.7804 33.3285 14.5505V7.51601C33.3285 6.78038 32.6274 6.9413 30.5929 6.9413C30.5929 5.30912 30.6734 5.09073 30.2366 4.90682C26.1216 3.17119 21.4895 3.06774 17.1791 4.81486C6.73083 -0.323067 7.35152 -0.150653 6.96071 0.0907259C6.5814 0.332105 6.69635 0.412565 6.69635 4.04475C5.77681 4.26314 4.88025 4.5505 4.04117 4.90682C3.55841 5.11371 3.69635 5.61946 3.69635 6.9413C1.74232 6.9413 0.949219 6.75739 0.949219 7.51601V31.5735C0.949219 31.8953 1.20209 32.1482 1.52393 32.1482H18.9607L20.7423 35.2402C21.1561 35.9643 22.0872 36.2057 22.8113 35.7919C23.2481 35.539 23.5584 35.2287 23.8688 35.493C24.8573 36.3321 25.9837 36.9758 27.2021 37.4241C27.5469 37.5505 27.478 37.7919 27.478 38.493C27.478 39.3321 28.1561 40.0103 28.9837 40.0103H32.7308C33.5699 40.0103 34.2481 39.3321 34.2481 38.493C34.2481 37.9643 34.1446 37.562 34.5239 37.4241C35.7423 36.9758 36.8688 36.3321 37.8458 35.493C38.3515 35.0677 38.8803 36.2516 40.0527 35.9413C40.8458 35.7344 40.8573 35.447 42.8573 31.9758C43.2596 31.2631 43.0182 30.3436 42.2941 29.9183ZM39.7538 34.8379C39.5699 34.8838 39.5009 34.8149 38.8573 34.4356C37.409 33.5965 37.0872 35.2631 34.1216 36.3321C33.5009 36.5505 33.0872 37.1252 33.0872 37.7574V38.4815C33.0872 38.9643 32.9377 38.8493 28.9722 38.8493C28.5814 38.8493 28.6159 38.539 28.6159 37.7689C28.6159 36.1022 27.0067 36.6424 24.6044 34.608C24.1101 34.1827 23.3975 34.1137 22.8458 34.4356C21.6044 35.1597 22.1101 35.3091 19.9492 31.5735C19.6389 31.0218 19.9262 30.9528 20.6044 30.5505C22.0986 29.6884 20.7423 28.5735 21.34 25.447C21.455 24.8379 21.1561 24.2057 20.6044 23.8838L19.9837 23.5275C19.5584 23.2861 19.7423 23.2057 21.7193 19.7804C21.8228 19.608 22.0412 19.539 22.2136 19.6424L22.8343 19.9988C24.2826 20.8493 24.5929 19.1712 27.5699 18.1022C28.1906 17.8838 28.6044 17.2976 28.6044 16.6654C28.6044 15.4356 28.6274 15.585 29.4205 15.585H32.7193C33.409 15.585 32.7998 16.608 33.317 17.447C33.8918 18.3896 34.9607 18.0218 37.0986 19.8264C37.6044 20.2516 38.3055 20.3206 38.8573 19.9988C40.0872 19.2861 39.6619 19.2287 41.8458 23.0218C41.9492 23.1942 41.8918 23.4241 41.7193 23.5275C39.6849 24.6999 40.5354 24.8149 40.5354 27.2172C40.5354 28.8838 39.8918 29.8493 41.0986 30.5505C41.6504 30.8608 42.0757 31.0218 41.8573 31.4011C39.8343 34.9183 39.9607 34.7804 39.7538 34.8379ZM2.09864 30.9988V8.09073H3.68485C3.68485 28.1597 3.34002 29.8493 4.56991 29.0562C11.3515 24.5965 17.8917 29.6769 16.8458 29.0677C17.386 29.3896 17.8113 28.5505 20.0527 27.8034C20.1561 29.7114 20.5814 29.2516 19.4205 29.9298C19.0067 30.1712 18.7768 30.5735 18.7078 31.0103H2.09864V30.9988ZM16.5584 27.4815L7.84577 21.562V1.50452L16.5699 5.79188V27.4815H16.5584ZM32.1791 14.4356H30.5929V8.09073H32.1791V14.4356ZM29.432 14.4356H28.9722C28.1446 14.4356 27.4665 15.1137 27.4665 15.9528C27.4665 16.47 27.5699 16.8953 27.2021 17.0218C25.9837 17.4585 24.8573 18.1022 23.8573 18.9528C23.5814 19.1827 23.409 18.9988 22.7998 18.6425C22.0757 18.2287 21.1446 18.4815 20.7308 19.2057L18.8573 22.4585C18.4435 23.1827 18.6963 24.1137 19.4205 24.5275C20.5584 25.1942 20.1791 24.7229 20.0642 26.5965C19.1331 26.8838 18.34 27.2287 17.7193 27.5735V5.83785C21.6389 4.28613 25.7768 4.36659 29.4435 5.82636V14.4356H29.432ZM6.94922 22.3436L12.6734 26.2287C9.92623 25.7689 7.20209 26.2746 4.84577 27.562V5.81486C5.44347 5.57348 6.07566 5.38958 6.70784 5.22866C6.69635 22.3436 6.55841 22.0677 6.94922 22.3436Z" fill="#181818"/>
<path id="Vector_6" d="M33.3264 20.5854C28.9011 18.9302 24.177 22.0107 23.7862 26.6429C23.4414 30.8612 26.7862 34.3555 30.8552 34.3555C38.6942 34.367 40.7517 23.3555 33.3264 20.5854ZM30.8552 33.2176C27.5448 33.2176 24.9241 30.4704 24.9011 27.298C24.9011 23.39 28.5218 20.6199 32.177 21.4475C39.1195 23.0337 37.8322 33.2176 30.8552 33.2176Z" fill="#181818"/>
</g>
</g>
<defs>
<linearGradient id="paint0_linear_7784_277" x1="30.4648" y1="14.5513" x2="32.2809" y2="14.5513" gradientUnits="userSpaceOnUse">
<stop stop-color="#FF8A00"/>
<stop offset="1" stop-color="#EE224A"/>
</linearGradient>
<linearGradient id="paint1_linear_7784_277" x1="1.98438" y1="31.126" x2="20.3332" y2="31.126" gradientUnits="userSpaceOnUse">
<stop stop-color="#FF8A00"/>
<stop offset="1" stop-color="#EE224A"/>
</linearGradient>
<linearGradient id="paint2_linear_7784_277" x1="4.71875" y1="27.7448" x2="12.7302" y2="27.7448" gradientUnits="userSpaceOnUse">
<stop stop-color="#FF8A00"/>
<stop offset="1" stop-color="#EE224A"/>
</linearGradient>
<linearGradient id="paint3_linear_7784_277" x1="19.7266" y1="38.986" x2="42.0025" y2="38.986" gradientUnits="userSpaceOnUse">
<stop stop-color="#FF8A00"/>
<stop offset="1" stop-color="#EE224A"/>
</linearGradient>
<clipPath id="clip0_7784_277">
<rect width="42.1035" height="40" fill="white" transform="translate(0.949219)"/>
</clipPath>
</defs>
</svg>
