<svg width="34" height="40" viewBox="0 0 34 40" fill="none" xmlns="http://www.w3.org/2000/svg">
<g id="success" clip-path="url(#clip0_7784_325)">
<g id="Group">
<path id="Vector" d="M18.4911 39.2048C15.4888 39.2048 11.5627 39.1933 6.44719 39.1933C5.77744 39.1933 5.36174 38.9739 5.29245 38.8931L5.25781 36.0755C5.46566 35.6829 5.48876 35.6367 10.8929 35.6367H15.535C18.5488 35.6367 22.4634 35.6483 27.5673 35.6483C28.237 35.6483 28.6527 35.8677 28.722 35.9485L28.7451 38.7776C28.4795 39.1587 28.4449 39.1933 23.11 39.1933L18.4911 39.2048Z" fill="url(#paint0_linear_7784_325)"/>
<path id="Vector_2" d="M17.1154 21.4444C16.3649 21.4444 15.3256 21.1903 14.4826 20.8093C7.40412 17.5991 6.78056 3.71921 6.73438 0.970942V0.855469H27.2771V0.970942C27.2194 4.22729 26.4341 20.5437 17.1616 21.4444H17.1154ZM18.9746 14.2388C20.2101 15.0933 20.3949 15.2319 20.4757 15.2319C20.6258 15.2319 20.7298 15.1857 20.799 15.0933C20.8683 15.001 20.8799 14.897 20.8568 14.7816L19.679 10.9248L19.7482 10.8786C20.4642 10.3474 21.0184 9.92013 21.4688 9.58526C23.1085 8.37279 23.1085 8.36124 23.0277 8.1072C22.9468 7.84161 22.739 7.83006 20.9492 7.81852C20.3833 7.81852 19.6559 7.80697 18.7436 7.78388H18.6628C18.6628 7.78388 18.1201 6.20189 17.9353 5.67071C17.2771 3.7423 17.2771 3.74231 17.0115 3.74231C16.7344 3.74231 16.6651 3.92706 16.0877 5.63607C15.903 6.16725 15.6836 6.84854 15.3833 7.70304L15.3602 7.78388C15.3602 7.78388 13.6743 7.80697 13.1201 7.81852C11.0762 7.84161 11.0762 7.85316 10.9953 8.1072C10.9145 8.37279 11.0646 8.49981 12.508 9.55062C12.9699 9.88549 13.5473 10.3127 14.2748 10.867L14.3441 10.9132C14.3441 10.9132 13.8591 12.5067 13.6859 13.0379C13.0854 14.9894 13.0854 14.9894 13.2933 15.1511C13.3626 15.1973 13.3972 15.2204 13.4549 15.2204C13.6743 15.2204 14.1016 14.9086 15.1408 14.1696C15.6027 13.8347 16.1917 13.419 16.9538 12.8993L17.0231 12.8532L18.9746 14.2388Z" fill="url(#paint1_linear_7784_325)"/>
<path id="Vector_3" d="M18.2575 34.9433C15.7286 34.9433 12.4261 34.9318 8.11893 34.9318C7.62239 34.9318 7.25288 34.747 7.19514 34.6084L7.18359 31.7909C7.32216 31.4329 7.50692 31.3867 12.0335 31.3867L15.948 31.3983C18.4538 31.3983 21.6871 31.4098 25.8672 31.4098C26.3637 31.4098 26.7333 31.5946 26.791 31.7331L26.8025 34.5507C26.664 34.9087 26.6524 34.9549 22.1374 34.9549C22.1374 34.9433 18.2575 34.9433 18.2575 34.9433Z" fill="url(#paint2_linear_7784_325)"/>
<path id="Vector_4" d="M11.6758 30.717L11.8143 30.5323C15.1284 26.1789 14.7705 22.0334 14.7474 21.8602V21.814L14.782 21.7563L14.8167 21.7216L14.8859 21.7101C14.9321 21.7101 15.0014 21.7332 15.1053 21.7678C15.3594 21.8602 15.9021 22.0565 16.8605 22.1489C17.5072 22.1489 18.2116 21.9988 19.0776 21.7101L19.2508 21.6523L19.2393 21.8256C19.0545 23.8232 19.7243 27.3105 22.1723 30.5323L22.3109 30.717H11.6758Z" fill="url(#paint3_linear_7784_325)"/>
<path id="Vector_5" d="M13.0376 14.7607C12.9106 15.1764 13.384 15.5228 13.742 15.2688L16.9983 13.0055C20.1623 15.1995 20.3932 15.5459 20.7858 15.2573C21.1438 14.9917 21.0399 15.0379 19.8043 10.9732C22.8759 8.65217 23.2685 8.54825 23.1184 8.08635C22.9798 7.6591 22.9914 7.77457 18.7304 7.6822C17.4487 4.01014 17.4718 3.64062 16.9983 3.64062C16.548 3.64062 16.6634 3.66372 15.2547 7.6822C11.4094 7.76303 11.0168 7.62446 10.8667 8.08635C10.7281 8.5136 10.7858 8.40968 14.1923 10.9732L13.0376 14.7607ZM16.0283 8.2942L16.9983 5.51129L17.9683 8.2942C18.1069 8.69836 18.2223 8.59444 21.3517 8.66372C18.8574 10.5459 18.7189 10.5228 18.8343 10.9385L19.6888 13.7561L17.2639 12.0702C16.9059 11.8277 16.8828 11.9663 14.3078 13.7561L15.1623 10.9385C15.2893 10.5113 15.1046 10.5113 12.645 8.66372C15.9129 8.59444 15.8898 8.67527 16.0283 8.2942Z" fill="#181818"/>
<path id="Vector_6" d="M20.0952 21.4099C21.6541 20.6362 23.0167 19.3429 24.1483 17.5416C29.5409 14.8626 32.3123 9.57389 33.2592 7.40299C33.6402 6.51385 32.9936 5.52078 32.0236 5.52078H27.7626C28.086 2.65704 28.086 0.578513 28.086 0.486135C28.086 -0.229801 27.9359 0.024241 6.38851 0.024241C6.13447 0.024241 5.92662 0.232093 5.92662 0.486135C5.92662 0.578513 5.91507 2.65704 6.24994 5.52078C1.83886 5.52078 1.38851 5.31292 0.857334 6.13279C0.603292 6.51385 0.56865 6.98729 0.753408 7.40299C1.70029 9.57389 4.4832 14.8626 9.86426 17.53C10.9959 19.3314 12.3585 20.6132 13.9174 21.3984C14.2292 24.6663 12.855 28.0727 10.7419 30.5901H8.13216C7.13909 30.5901 6.38851 31.0981 6.38851 31.7679C6.38851 34.7933 6.36542 34.6316 6.44625 34.851C5.29151 34.851 4.46011 35.3476 4.46011 36.0289V38.8118C4.46011 39.4931 5.29151 39.9896 6.44625 39.9896H27.5548C28.7095 39.9896 29.5409 39.4931 29.5409 38.8118V36.0289C29.5409 35.6593 29.1714 34.851 27.5548 34.851C27.6356 34.6316 27.6125 34.8048 27.6125 31.7679C27.6125 31.0981 26.862 30.5901 25.8689 30.5901H23.2707C21.1576 28.0727 19.7834 24.6547 20.0952 21.4099ZM26.6887 34.5393C26.5271 34.9434 25.8458 34.8048 8.12061 34.8048C7.62408 34.8048 7.33539 34.6085 7.30075 34.5508V31.7794C7.46242 31.3753 8.17835 31.5138 25.8689 31.5138C26.3654 31.5138 26.6541 31.7102 26.6887 31.7679V34.5393ZM28.6171 38.7887C28.2938 39.2044 28.5941 39.0774 6.44625 39.0774C5.7996 39.0774 5.41854 38.8695 5.38389 38.8233L5.37235 36.0866C5.62639 35.6362 6.12292 35.7864 27.5548 35.7864C28.2014 35.7864 28.571 35.9942 28.6171 36.0404V38.7887ZM11.9081 30.6016C14.2407 27.53 15.0837 23.9503 14.8643 21.8141C15.6033 22.0681 16.4001 22.2644 17.1737 22.2644C18.6056 22.1259 19.1252 21.7217 19.1137 21.8603C19.0906 22.045 18.7442 26.2367 22.0814 30.6132H11.9081V30.6016ZM6.85041 0.971123H27.1506C27.0236 7.3799 25.407 18.015 19.4717 20.7055C19.3562 20.7055 18.2823 21.3175 16.9081 21.3291C9.15987 20.6016 6.98897 8.63856 6.85041 0.971123ZM32.0236 6.45611C32.3238 6.45611 32.5317 6.76789 32.4162 7.04503C31.5964 8.93879 29.31 13.3268 25.0144 16.0058C26.5155 12.9342 27.2661 9.27366 27.6472 6.45611H32.0236ZM1.58482 7.04503C1.46934 6.76789 1.66565 6.45611 1.97743 6.45611H6.35387C6.73493 9.27366 7.48551 12.9342 8.98667 16.0058C4.7026 13.3268 2.41623 8.93879 1.58482 7.04503Z" fill="#181818"/>
</g>
</g>
<defs>
<linearGradient id="paint0_linear_7784_325" x1="5.25781" y1="39.2048" x2="28.7451" y2="39.2048" gradientUnits="userSpaceOnUse">
<stop stop-color="#FF8A00"/>
<stop offset="1" stop-color="#EE224A"/>
</linearGradient>
<linearGradient id="paint1_linear_7784_325" x1="6.73438" y1="21.4444" x2="27.2771" y2="21.4444" gradientUnits="userSpaceOnUse">
<stop stop-color="#FF8A00"/>
<stop offset="1" stop-color="#EE224A"/>
</linearGradient>
<linearGradient id="paint2_linear_7784_325" x1="7.18359" y1="34.9549" x2="26.8025" y2="34.9549" gradientUnits="userSpaceOnUse">
<stop stop-color="#FF8A00"/>
<stop offset="1" stop-color="#EE224A"/>
</linearGradient>
<linearGradient id="paint3_linear_7784_325" x1="11.6758" y1="30.717" x2="22.3109" y2="30.717" gradientUnits="userSpaceOnUse">
<stop stop-color="#FF8A00"/>
<stop offset="1" stop-color="#EE224A"/>
</linearGradient>
<clipPath id="clip0_7784_325">
<rect width="32.7483" height="40" fill="white" transform="translate(0.625)"/>
</clipPath>
</defs>
</svg>
