<svg width="40" height="40" viewBox="0 0 40 40" fill="none" xmlns="http://www.w3.org/2000/svg">
<g id="support" clip-path="url(#clip0_7784_307)">
<g id="Group">
<path id="Vector" d="M3.63914 11.9777C3.63914 11.7248 3.43225 11.5179 3.17937 11.5179C2.17937 11.5179 1.36328 10.7018 1.36328 9.70182V2.85125C1.36328 1.85125 2.17937 1.03516 3.17937 1.03516H19.0644C20.0644 1.03516 20.869 1.85125 20.869 2.85125V9.69033C20.869 10.7018 20.0529 11.5179 19.0644 11.5179H8.48972C8.35179 11.5179 8.22535 11.5179 8.1334 11.5064L7.9265 11.4949C7.48972 11.4949 7.3288 11.6558 5.85753 13.1731C5.35179 13.6903 4.70811 14.357 3.84604 15.2191L3.65064 15.4145V11.9777H3.63914ZM16.1104 5.80527C15.7886 5.80527 15.4667 6.01217 15.3058 6.31102C15.2139 6.48343 15.0989 6.82826 15.3748 7.23056C15.5587 7.49493 15.823 7.64435 16.1219 7.64435C16.4208 7.64435 16.6851 7.49493 16.869 7.23056C17.1334 6.83975 17.0299 6.49493 16.938 6.32251C16.7656 6.01217 16.4322 5.80527 16.1104 5.80527ZM11.1104 5.80527C10.7771 5.80527 10.4552 6.01217 10.2943 6.32251C10.1334 6.63286 10.1679 6.96619 10.3748 7.25355C10.5587 7.50642 10.8231 7.64435 11.0989 7.64435C11.3978 7.64435 11.6621 7.49493 11.846 7.23056C12.1104 6.83975 12.007 6.49493 11.915 6.32251C11.7656 6.01217 11.4322 5.80527 11.1104 5.80527ZM6.11041 5.80527C5.82305 5.80527 5.59317 5.90872 5.43225 6.09263C5.28282 6.26504 5.20236 6.48343 5.20236 6.72481C5.20236 7.17309 5.48972 7.64435 6.11041 7.64435C6.7311 7.64435 7.01845 7.16159 7.01845 6.72481C7.01845 6.27654 6.74259 5.80527 6.11041 5.80527Z" fill="url(#paint0_linear_7784_307)"/>
<path id="Vector_2" d="M6.06281 6.93288L5.93638 6.86391L5.90189 6.82943L5.87891 6.72598C5.87891 6.59954 5.98235 6.49609 6.10879 6.49609C6.23523 6.49609 6.33868 6.59954 6.33868 6.72598C6.33868 6.84092 6.23523 6.93288 6.10879 6.93288H6.06281Z" fill="url(#paint1_linear_7784_307)"/>
<path id="Vector_3" d="M11.1244 6.93288C10.9865 6.93288 10.8945 6.84092 10.8945 6.71448C10.906 6.57655 10.998 6.49609 11.1244 6.49609C11.2509 6.49609 11.3428 6.58805 11.3543 6.71448C11.3428 6.81793 11.2279 6.93288 11.1244 6.93288Z" fill="url(#paint2_linear_7784_307)"/>
<path id="Vector_4" d="M16.1244 6.93288C15.9865 6.93288 15.8945 6.84092 15.8945 6.71448C15.906 6.57655 15.998 6.49609 16.1244 6.49609C16.2509 6.49609 16.3428 6.58805 16.3543 6.71448C16.3428 6.81793 16.2279 6.93288 16.1244 6.93288Z" fill="url(#paint3_linear_7784_307)"/>
<path id="Vector_5" d="M22.2812 38.967V35.1279C22.2812 33.013 24.0169 31.2888 26.1433 31.2888C26.5226 31.2888 27.5111 31.2773 27.5111 31.2773C28.2468 31.2773 28.3962 31.3578 29.2468 31.7946C29.4996 31.9325 29.833 32.0934 30.2583 32.3118C30.3272 32.3463 30.3732 32.3693 30.4307 32.3693C30.5916 32.3693 30.879 32.2199 31.6491 31.8291L32.7065 31.3003L34.787 31.2888C36.9134 31.2888 38.6491 33.013 38.6491 35.1279V38.967H22.2812Z" fill="url(#paint4_linear_7784_307)"/>
<path id="Vector_6" d="M2.48047 38.967V35.1279C2.48047 33.013 4.2161 31.2888 6.34254 31.2888C6.72185 31.2888 7.71035 31.2773 7.71035 31.2773C8.44598 31.2773 8.6069 31.3578 9.44599 31.7946C9.69886 31.9325 10.0322 32.1049 10.4575 32.3118C10.5264 32.3463 10.5724 32.3693 10.6299 32.3693C10.7908 32.3693 11.0782 32.2199 11.8483 31.8291L12.9058 31.3003L14.9862 31.2888C17.1127 31.2888 18.8483 33.013 18.8483 35.1279V38.967H2.48047Z" fill="url(#paint5_linear_7784_307)"/>
<path id="Vector_7" d="M24.2707 20.9425C24.7419 20.7471 24.627 20.6207 24.627 17.0115C25.7419 16.7471 26.5695 15.7471 26.5695 14.5402V8.67816C26.5695 7.27586 25.4431 6.13793 24.0523 6.13793H21.9028V2.85057C21.9028 1.27586 20.627 0 19.0638 0H3.1787C1.60399 0 0.328125 1.27586 0.328125 2.85057V9.68966C0.328125 11.069 1.30514 12.2184 2.60399 12.4943C2.60399 16.7931 2.47755 16.8736 2.96031 17.069C3.45456 17.2759 3.33962 17.1954 7.91433 12.5977V14.5402C7.91433 15.9425 9.04077 17.0805 10.4316 17.0805H19.9258C23.9718 21.1609 23.7879 21.1494 24.2707 20.9425ZM9.05226 14.5402V12.5517H19.0523C20.6155 12.5517 21.8913 11.2644 21.8913 9.68966V7.28736H24.0408C24.7994 7.28736 25.4086 7.90805 25.4086 8.67816V14.5402C25.4086 15.2988 24.7994 15.931 24.0408 15.931C23.2936 15.931 23.4661 16.6322 23.4661 19.023C20.3626 15.8966 20.4775 15.931 20.1442 15.931H10.4316C9.67295 15.931 9.05226 15.3103 9.05226 14.5402ZM3.75341 15.1494C3.75341 12.0345 3.93732 11.4138 3.1787 11.4138C2.24766 11.4138 1.47755 10.6437 1.47755 9.70115V2.85057C1.47755 1.91954 2.23617 1.14943 3.1787 1.14943H19.0638C19.9948 1.14943 20.7534 1.91954 20.7534 2.85057V9.68966C20.7534 10.6322 19.9948 11.4023 19.0638 11.4023H7.70743C7.3741 11.4023 7.55801 11.3218 3.75341 15.1494Z" fill="#181818"/>
<path id="Vector_8" d="M6.10789 5.69141C4.74008 5.69141 4.74008 7.76037 6.10789 7.76037C7.47571 7.76037 7.47571 5.69141 6.10789 5.69141ZM5.99295 6.72589C5.99295 6.57646 6.22284 6.57646 6.22284 6.72589C6.22284 6.85233 5.99295 6.85233 5.99295 6.72589Z" fill="#181818"/>
<path id="Vector_9" d="M10.2917 7.32359C10.7285 7.92129 11.5446 7.8983 11.9469 7.3006C12.4641 6.54198 11.809 5.69141 11.1078 5.69141C10.3952 5.69141 9.74 6.55348 10.2917 7.32359ZM10.9929 6.71439C11.0044 6.56497 11.2113 6.56497 11.2228 6.71439C11.2228 6.85233 10.9929 6.85233 10.9929 6.71439Z" fill="#181818"/>
<path id="Vector_10" d="M16.1107 7.7575C16.8119 7.7575 17.4785 6.91842 16.9383 6.1483C16.513 5.53911 15.6969 5.53911 15.2716 6.1483C14.7544 6.90692 15.4096 7.7575 16.1107 7.7575ZM16.2257 6.71152C16.2257 6.83796 15.9958 6.84945 15.9958 6.71152C16.0073 6.57359 16.2257 6.57359 16.2257 6.71152Z" fill="#181818"/>
<path id="Vector_11" d="M25.2578 24.2768C25.2578 30.8515 35.6601 31.6791 35.6601 23.6331C35.6601 20.7711 33.3268 18.4492 30.4647 18.4492C27.5911 18.4492 25.2693 20.7711 25.2693 23.6331V24.2768H25.2578ZM26.4072 23.6331C26.4072 21.4147 28.2233 19.5986 30.4532 19.5986C32.6831 19.5986 34.4992 21.4032 34.4992 23.6331C34.4992 30.1963 26.3957 29.2998 26.3957 24.2768V23.6331H26.4072Z" fill="#181818"/>
<path id="Vector_12" d="M21.8333 40.0003H39.1091C39.431 40.0003 39.6838 39.7474 39.6838 39.4256V35.1267C39.6838 32.4371 37.4884 30.2532 34.7873 30.2532C31.9022 30.2532 33.0172 29.9888 30.4655 31.2647C27.9252 30.0003 29.0402 30.2532 26.1436 30.2532C23.4425 30.2532 21.2471 32.4371 21.2471 35.1267C21.2586 39.483 21.0517 40.0003 21.8333 40.0003ZM22.408 35.1267C22.408 33.0693 24.0862 31.4026 26.1551 31.4026H28.1781C30.3505 32.483 30.385 32.5865 30.7298 32.4141C33.1781 31.1957 32.2471 31.4026 34.7873 31.4026C36.8563 31.4026 38.5344 33.0693 38.5344 35.1267V38.8509H22.408V35.1267Z" fill="#181818"/>
<path id="Vector_13" d="M10.6524 29.4607C13.526 29.4607 15.8478 27.1504 15.8478 24.2768V23.6331C15.8478 20.7711 13.5145 18.4492 10.6524 18.4492C7.77887 18.4492 5.45703 20.7711 5.45703 23.6331V24.2768C5.45703 27.1389 7.79036 29.4607 10.6524 29.4607ZM6.60646 23.6331C6.60646 21.4147 8.42255 19.5986 10.6524 19.5986C12.8823 19.5986 14.6984 21.4032 14.6984 23.6331C14.6984 30.1963 6.59496 29.2998 6.59496 24.2768V23.6331H6.60646Z" fill="#181818"/>
<path id="Vector_14" d="M19.8691 39.4256V35.1267C19.8691 32.4371 17.6737 30.2532 14.9725 30.2532C12.0875 30.2532 13.2024 29.9888 10.6507 31.2647C8.12195 30.0003 9.2254 30.2532 6.32885 30.2532C3.6277 30.2532 1.4323 32.4371 1.4323 35.1267C1.4323 39.483 1.2369 40.0003 2.00701 40.0003H19.2944C19.6047 40.0003 19.8691 39.7474 19.8691 39.4256ZM2.59322 35.1267C2.59322 33.0693 4.27138 31.4026 6.34034 31.4026H8.36333C10.5357 32.483 10.5702 32.5865 10.9151 32.4141C13.3633 31.1957 12.4323 31.4026 14.9725 31.4026C17.0415 31.4026 18.7197 33.0693 18.7197 35.1267V38.8509H2.59322V35.1267Z" fill="#181818"/>
</g>
</g>
<defs>
<linearGradient id="paint0_linear_7784_307" x1="1.36328" y1="15.4145" x2="20.869" y2="15.4145" gradientUnits="userSpaceOnUse">
<stop stop-color="#FF8A00"/>
<stop offset="1" stop-color="#EE224A"/>
</linearGradient>
<linearGradient id="paint1_linear_7784_307" x1="5.87891" y1="6.93288" x2="6.33868" y2="6.93288" gradientUnits="userSpaceOnUse">
<stop stop-color="#FF8A00"/>
<stop offset="1" stop-color="#EE224A"/>
</linearGradient>
<linearGradient id="paint2_linear_7784_307" x1="10.8945" y1="6.93288" x2="11.3543" y2="6.93288" gradientUnits="userSpaceOnUse">
<stop stop-color="#FF8A00"/>
<stop offset="1" stop-color="#EE224A"/>
</linearGradient>
<linearGradient id="paint3_linear_7784_307" x1="15.8945" y1="6.93288" x2="16.3543" y2="6.93288" gradientUnits="userSpaceOnUse">
<stop stop-color="#FF8A00"/>
<stop offset="1" stop-color="#EE224A"/>
</linearGradient>
<linearGradient id="paint4_linear_7784_307" x1="22.2813" y1="38.967" x2="38.6491" y2="38.967" gradientUnits="userSpaceOnUse">
<stop stop-color="#FF8A00"/>
<stop offset="1" stop-color="#EE224A"/>
</linearGradient>
<linearGradient id="paint5_linear_7784_307" x1="2.48047" y1="38.967" x2="18.8483" y2="38.967" gradientUnits="userSpaceOnUse">
<stop stop-color="#FF8A00"/>
<stop offset="1" stop-color="#EE224A"/>
</linearGradient>
<clipPath id="clip0_7784_307">
<rect width="39.3448" height="40" fill="white" transform="translate(0.328125)"/>
</clipPath>
</defs>
</svg>
