<svg width="40" height="40" viewBox="0 0 40 40" fill="none" xmlns="http://www.w3.org/2000/svg">
<g id="vision" clip-path="url(#clip0_7784_253)">
<g id="Group">
<path id="Vector" d="M19.9951 29.4926C13.0525 29.4926 6.58127 26.1478 1.79966 20.0788L1.74219 20.0099L1.79966 19.9409C6.59276 13.8605 13.0525 10.5156 19.9951 10.5156C26.9376 10.5156 33.4089 13.8605 38.1905 19.9409L38.2479 20.0099L38.1905 20.0788C33.3974 26.1478 26.9376 29.4926 19.9951 29.4926ZM19.9951 12.5041C15.8571 12.5041 12.4893 15.8719 12.4893 20.0099C12.4893 24.1478 15.8571 27.5041 19.9951 27.5041C24.133 27.5041 27.5008 24.1363 27.5008 20.0099C27.5008 15.8605 24.133 12.5041 19.9951 12.5041Z" fill="url(#paint0_linear_7784_253)"/>
<path id="Vector_2" d="M39.2965 20.3579C39.4574 20.151 39.4574 19.8637 39.2965 19.6568C28.9287 6.09357 11.0666 6.09357 0.698815 19.6568C0.537895 19.8637 0.537895 20.151 0.698815 20.3579C11.0666 33.9097 28.9172 33.9097 39.2965 20.3579ZM38.1126 20.0016C28.2505 32.4959 11.7563 32.4959 1.89422 20.0016C11.7448 7.50736 28.2505 7.50736 38.1126 20.0016Z" fill="#181818"/>
<path id="Vector_3" d="M19.9957 27.6205C24.2026 27.6205 27.6164 24.2067 27.6164 20.0113C27.6164 15.8159 24.2026 12.3906 19.9957 12.3906C15.7888 12.3906 12.375 15.8044 12.375 20.0113C12.375 24.1952 15.7888 27.6205 19.9957 27.6205ZM19.9957 13.5401C23.5589 13.5401 26.467 16.4366 26.467 20.0113C26.467 23.5745 23.5589 26.4711 19.9957 26.4711C16.4325 26.4711 13.5244 23.563 13.5244 19.9998C13.5244 16.4366 16.421 13.5401 19.9957 13.5401Z" fill="#181818"/>
<path id="Vector_4" d="M34.3546 9.6663L36.5615 7.51688C37.1018 6.98814 36.3087 6.16056 35.7569 6.68929L33.55 8.85021C33.0098 9.37895 33.8144 10.195 34.3546 9.6663Z" fill="#181818"/>
<path id="Vector_5" d="M19.9982 0C19.251 0 19.4234 0.62069 19.4234 3.6092C19.4234 4.36782 20.5729 4.36782 20.5729 3.6092C20.5729 0.735632 20.7683 0 19.9982 0Z" fill="#181818"/>
<path id="Vector_6" d="M4.22573 6.70239C3.6855 6.17365 2.88091 6.98974 3.42114 7.52997C5.83493 9.88629 5.70849 9.84032 6.03033 9.84032C6.53608 9.84032 6.80045 9.21963 6.43263 8.85181L4.22573 6.70239Z" fill="#181818"/>
<path id="Vector_7" d="M36.1592 33.4614C36.665 33.4614 36.9294 32.8407 36.5615 32.4729L34.3546 30.3235C33.8144 29.7947 33.0098 30.6108 33.55 31.1511C35.9753 33.5189 35.8374 33.4614 36.1592 33.4614Z" fill="#181818"/>
<path id="Vector_8" d="M20.5729 39.4256C20.5729 36.552 20.7683 35.8164 19.9982 35.8164C19.251 35.8164 19.4234 36.4371 19.4234 39.4256C19.4234 40.1842 20.5729 40.1842 20.5729 39.4256Z" fill="#181818"/>
<path id="Vector_9" d="M5.62948 30.3322L3.42259 32.4816C2.88236 33.0104 3.67546 33.838 4.22718 33.3092L6.43408 31.1483C6.97431 30.6196 6.18121 29.792 5.62948 30.3322Z" fill="#181818"/>
</g>
</g>
<defs>
<linearGradient id="paint0_linear_7784_253" x1="1.74219" y1="29.4926" x2="38.2479" y2="29.4926" gradientUnits="userSpaceOnUse">
<stop stop-color="#FF8A00"/>
<stop offset="1" stop-color="#EE224A"/>
</linearGradient>
<clipPath id="clip0_7784_253">
<rect width="38.8276" height="40" fill="white" transform="translate(0.585938)"/>
</clipPath>
</defs>
</svg>
