<svg width="48" height="45" viewBox="0 0 48 45" fill="none" xmlns="http://www.w3.org/2000/svg">
<g clip-path="url(#clip0_17823_1253)">
<g clip-path="url(#clip1_17823_1253)">
<path d="M23.956 2.9995L26.3411 5.67949L29.5702 4.11617C30.2628 3.7808 31.093 4.12468 31.3457 4.85166L32.5237 8.24042L36.1052 8.0319C36.8735 7.98717 37.5089 8.62251 37.4641 9.39077L37.2556 12.9723L40.6444 14.1503C41.3712 14.403 41.7151 15.2331 41.3798 15.9258L39.8165 19.155L42.4965 21.54C43.0714 22.0517 43.0714 22.9503 42.4965 23.4618L39.8165 25.8469L41.3798 29.076C41.7152 29.7687 41.3713 30.5989 40.6444 30.8515L37.2556 32.0295L37.4641 35.611C37.5088 36.3793 36.8735 37.0147 36.1052 36.9699L32.5237 36.7614L31.3457 40.1501C31.093 40.877 30.2629 41.2209 29.5702 40.8856L26.3411 39.3223L23.956 42.0023C23.4443 42.5771 22.5458 42.5771 22.0342 42.0023L19.6491 39.3223L16.42 40.8856C15.7273 41.221 14.8971 40.8771 14.6444 40.1501L13.4664 36.7614L9.88491 36.9699C9.11665 37.0146 8.48122 36.3793 8.52604 35.611L8.73456 32.0295L5.3458 30.8515C4.61892 30.5988 4.27503 29.7687 4.61031 29.076L6.17363 25.8469L3.49364 23.4618C2.91879 22.9502 2.91879 22.0516 3.49364 21.54L6.17363 19.155L4.61031 15.9258C4.27494 15.2332 4.61883 14.403 5.3458 14.1503L8.73456 12.9723L8.52604 9.39077C8.48131 8.62251 9.11665 7.98708 9.88491 8.0319L13.4664 8.24042L14.6444 4.85166C14.8971 4.12478 15.7272 3.78089 16.42 4.11617L19.6491 5.67949L22.0342 2.9995C22.5458 2.42464 23.4443 2.42464 23.956 2.9995Z" fill="#FFCF5D"/>
<path d="M42.4961 21.5392L39.8161 19.1541L41.3795 15.9249C41.7148 15.2323 41.371 14.4021 40.6441 14.1494L37.2553 12.9714L37.4638 9.38989C37.5086 8.62163 36.8732 7.98628 36.105 8.03101L32.5234 8.23953L31.3455 4.85077C31.0928 4.12389 30.2627 3.78001 29.5699 4.11538L28.4092 4.67729L29.9575 9.13147C30.3564 10.2788 31.4691 11.0225 32.6812 10.9513L34.6586 10.8362L34.5434 12.8137C34.4728 14.0264 35.2159 15.1385 36.3633 15.5373L38.2344 16.1877L37.3712 17.9706C36.8419 19.0639 37.1028 20.3757 38.0103 21.1832L39.4899 22.5001L38.0103 23.817C37.1028 24.6245 36.8419 25.9363 37.3712 27.0296L38.2344 28.8125L36.3633 29.4629C35.2159 29.8617 34.4728 30.9739 34.5434 32.1865L34.6586 34.164L32.6812 34.0489C31.4681 33.9794 30.3564 34.7214 29.9575 35.8688L29.3072 37.7397L27.5243 36.8766C26.4309 36.3473 25.1191 36.6083 24.3115 37.5157L22.9947 38.9954L21.6779 37.5156C20.8703 36.6082 19.5584 36.3471 18.4651 36.8766L16.6823 37.7396L16.0319 35.8687C15.633 34.7213 14.5212 33.9794 13.3082 34.0488L8.60063 34.3229L8.52566 35.6101C8.48094 36.3784 9.11628 37.0138 9.88454 36.9691L13.4661 36.7606L14.644 40.1493C14.8967 40.8763 15.7268 41.2201 16.4196 40.8848L19.6487 39.3216L22.0338 42.0016C22.5455 42.5764 23.444 42.5764 23.9556 42.0016L26.3407 39.3216L29.5698 40.8848C30.2625 41.2202 31.0927 40.8763 31.3454 40.1493L32.5233 36.7606L36.1049 36.9691C36.8731 37.0138 37.5086 36.3785 37.4637 35.6101L37.2552 32.0286L40.644 30.8506C41.3709 30.5979 41.7147 29.7678 41.3794 29.0751L39.8161 25.8459L42.496 23.4608C43.071 22.9494 43.071 22.0508 42.4961 21.5392Z" fill="#FFB545"/>
<path d="M22.9936 35.4248C30.131 35.4248 35.917 29.6388 35.917 22.5015C35.917 15.3641 30.131 9.57812 22.9936 9.57812C15.8563 9.57812 10.0703 15.3641 10.0703 22.5015C10.0703 29.6388 15.8563 35.4248 22.9936 35.4248Z" fill="#FFB545"/>
<path d="M17.53 19.8291C17.53 20.2042 17.226 20.5081 16.8509 20.5081H15.0403C14.6654 20.5081 14.3613 20.2042 14.3613 19.8291C14.3613 19.454 14.6653 19.1501 15.0403 19.1501H15.2667V17.3009C15.0278 17.3847 14.7513 17.3316 14.5602 17.1405C14.2951 16.8753 14.2951 16.4455 14.5602 16.1803L15.4656 15.275C15.6597 15.0807 15.9519 15.0229 16.2054 15.1278C16.4591 15.2329 16.6245 15.4806 16.6245 15.7551V19.1501H16.8508C17.226 19.1501 17.53 19.454 17.53 19.8291Z" fill="#3F5F94"/>
<path d="M22.3786 17.1151V18.473C22.3786 19.5961 21.4649 20.51 20.3415 20.51C19.2184 20.51 18.3047 19.5961 18.3047 18.473V17.1151C18.3047 15.9919 19.2184 15.0781 20.3415 15.0781C21.4648 15.078 22.3786 15.9917 22.3786 17.1151ZM21.0206 17.1151C21.0206 16.7406 20.716 16.4361 20.3415 16.4361C19.9672 16.4361 19.6627 16.7406 19.6627 17.1151V18.473C19.6627 18.8475 19.9672 19.152 20.3415 19.152C20.716 19.152 21.0206 18.8475 21.0206 18.473V17.1151Z" fill="#3F5F94"/>
<path d="M27.2302 17.1151V18.473C27.2302 19.5961 26.3165 20.51 25.1931 20.51C24.0699 20.51 23.1562 19.5961 23.1562 18.473V17.1151C23.1562 15.9919 24.0699 15.0781 25.1931 15.0781C26.3165 15.078 27.2302 15.9917 27.2302 17.1151ZM25.8722 17.1151C25.8722 16.7406 25.5676 16.4361 25.1931 16.4361C24.8188 16.4361 24.5142 16.7406 24.5142 17.1151V18.473C24.5142 18.8475 24.8188 19.152 25.1931 19.152C25.5676 19.152 25.8722 18.8475 25.8722 18.473V17.1151Z" fill="#3F5F94"/>
<path d="M31.5435 16.0851L29.2805 20.1586C29.1564 20.3819 28.9249 20.5079 28.6863 20.5079C28.5748 20.5079 28.4617 20.4805 28.3572 20.4226C28.0294 20.2404 27.9113 19.8271 28.0933 19.4993L30.3564 15.4256C30.5385 15.0977 30.9518 14.9796 31.2797 15.1617C31.6076 15.3439 31.7255 15.7572 31.5435 16.0851ZM28.0078 15.7552C28.0078 15.3801 28.3117 15.0763 28.6868 15.0763C29.0618 15.0763 29.3659 15.3801 29.3659 15.7552C29.3659 16.1303 29.0618 16.4342 28.6868 16.4342C28.3118 16.4342 28.0078 16.1302 28.0078 15.7552ZM30.2711 19.8291C30.2711 19.4541 30.5751 19.1502 30.9502 19.1502C31.3252 19.1502 31.6292 19.4541 31.6292 19.8291C31.6292 20.2042 31.3252 20.508 30.9502 20.508C30.5751 20.508 30.2711 20.2041 30.2711 19.8291Z" fill="#3F5F94"/>
<path d="M44.136 30.6489H1.85229C1.10223 30.6489 0.494141 30.0408 0.494141 29.2907V23.8581C0.494141 23.1081 1.10223 22.5 1.85229 22.5H44.136C44.8861 22.5 45.4941 23.1081 45.4941 23.8581V29.2907C45.4941 30.0408 44.8861 30.6489 44.136 30.6489Z" fill="#3F5F94"/>
<path d="M6.77376 26.5752C6.77376 27.3008 6.49117 27.9827 5.97815 28.4957C5.46514 29.0088 4.78316 29.2912 4.05782 29.2912C2.56024 29.2912 1.3418 28.0729 1.3418 26.5752C1.3418 25.0777 2.56024 23.8594 4.05782 23.8594H4.55608C4.9312 23.8594 5.23516 24.1632 5.23516 24.5383C5.23516 24.9135 4.93129 25.2173 4.55608 25.2173H4.05782C3.30894 25.2173 2.69986 25.8266 2.69986 26.5752C2.69986 27.3241 3.30903 27.9333 4.05782 27.9333C4.42045 27.9333 4.76143 27.7919 5.01812 27.5355C5.10324 27.4502 5.17585 27.3559 5.23452 27.2543H4.91844C4.54341 27.2543 4.23936 26.9504 4.23936 26.5752C4.23936 26.2002 4.54332 25.8963 4.91844 25.8963H6.09486C6.46999 25.8963 6.77376 26.2003 6.77376 26.5752Z" fill="#FFCF5D"/>
<path d="M11.9315 24.5383V26.9962C11.9315 28.2619 10.896 29.2912 9.62303 29.2912C8.34991 29.2912 7.31445 28.2619 7.31445 26.9962V24.5383C7.31445 24.1632 7.61841 23.8594 7.99344 23.8594C8.36838 23.8594 8.67251 24.1632 8.67251 24.5383V26.9962C8.67251 27.5129 9.09888 27.9333 9.62312 27.9333C10.1473 27.9333 10.5737 27.5129 10.5737 26.9962V24.5383C10.5737 24.1632 10.8777 23.8594 11.2528 23.8594C11.6275 23.8594 11.9315 24.1633 11.9315 24.5383Z" fill="#FFCF5D"/>
<path d="M16.2347 29.2479C16.1561 29.2774 16.0756 29.2912 15.9964 29.2912C15.7215 29.2912 15.4628 29.1232 15.3607 28.8506L15.2713 28.6122H13.6661L13.5767 28.8506C13.4449 29.2017 13.0538 29.3793 12.7025 29.2479C12.3515 29.1163 12.1734 28.725 12.3051 28.3738L13.8329 24.2998C13.9322 24.0348 14.1856 23.8594 14.4686 23.8594C14.7515 23.8594 15.0049 24.0348 15.1043 24.2998L16.6319 28.3738C16.7636 28.7249 16.5858 29.1162 16.2347 29.2479ZM14.7618 27.2542L14.4685 26.4719L14.1751 27.2542H14.7618Z" fill="#FFCF5D"/>
<path d="M21.2772 28.1342C21.5411 28.4004 21.5393 28.8304 21.2731 29.0944C21.1407 29.2256 20.9678 29.2912 20.7951 29.2912C20.6203 29.2912 20.4456 29.2243 20.3129 29.0903L19.1655 27.9333H18.8034V28.6123C18.8034 28.9874 18.4992 29.2912 18.1243 29.2912C17.7494 29.2912 17.4453 28.9874 17.4453 28.6123V24.5383C17.4453 24.1632 17.7493 23.8594 18.1243 23.8594H19.4485C20.5653 23.8594 21.474 24.7732 21.474 25.8963C21.474 26.5589 21.1576 27.1484 20.6687 27.5207L21.2772 28.1342ZM20.1161 25.8962C20.1161 25.5217 19.8165 25.2173 19.4486 25.2173H18.8035V26.5751H19.4486C19.8165 26.5751 20.1161 26.2706 20.1161 25.8962Z" fill="#FFCF5D"/>
<path d="M26.2152 29.2479C26.1366 29.2774 26.0561 29.2912 25.9769 29.2912C25.702 29.2912 25.4433 29.1232 25.3412 28.8506L25.2517 28.6122H23.6466L23.5572 28.8506C23.4254 29.2017 23.0342 29.3793 22.6829 29.2479C22.332 29.1163 22.1539 28.725 22.2856 28.3738L23.8134 24.2998C23.9127 24.0348 24.1661 23.8594 24.4491 23.8594C24.732 23.8594 24.9853 24.0348 25.0848 24.2998L26.6124 28.3738C26.7441 28.7249 26.5662 29.1162 26.2152 29.2479ZM24.7422 27.2542L24.449 26.4719L24.1556 27.2542H24.7422Z" fill="#FFCF5D"/>
<path d="M31.7715 24.5383V28.6123C31.7715 28.9058 31.5828 29.1663 31.3037 29.2576C31.234 29.2803 31.163 29.2913 31.0924 29.2913C30.8802 29.2913 30.6752 29.1916 30.5448 29.0139L28.7838 26.6126V28.6124C28.7838 28.9876 28.4797 29.2914 28.1048 29.2914C27.7298 29.2914 27.4258 28.9876 27.4258 28.6124V24.5384C27.4258 24.245 27.6144 23.9845 27.8935 23.8932C28.1726 23.8018 28.4786 23.9003 28.6523 24.1369L30.4133 26.5382V24.5383C30.4133 24.1632 30.7173 23.8594 31.0922 23.8594C31.4674 23.8594 31.7714 24.1633 31.7715 24.5383Z" fill="#FFCF5D"/>
<path d="M36.5945 24.5383C36.5945 24.9135 36.2905 25.2173 35.9155 25.2173H35.0553V28.6123C35.0553 28.9874 34.7514 29.2912 34.3763 29.2912C34.0014 29.2912 33.6973 28.9874 33.6973 28.6123V25.2173H32.8373C32.4622 25.2173 32.1582 24.9135 32.1582 24.5383C32.1582 24.1632 32.4622 23.8594 32.8373 23.8594H35.9154C36.2904 23.8594 36.5945 24.1632 36.5945 24.5383Z" fill="#FFCF5D"/>
<path d="M40.4343 28.6123C40.4343 28.9874 40.1305 29.2912 39.7553 29.2912H37.6731C37.2982 29.2912 36.9941 28.9874 36.9941 28.6123V24.5383C36.9941 24.1632 37.2981 23.8594 37.6731 23.8594H39.7553C40.1304 23.8594 40.4343 24.1632 40.4343 24.5383C40.4343 24.9135 40.1305 25.2173 39.7553 25.2173H38.3521V25.8963H39.2122C39.5872 25.8963 39.8911 26.2002 39.8911 26.5752C39.8911 26.9504 39.5872 27.2543 39.2122 27.2543H38.3521V27.9333H39.7553C40.1305 27.9333 40.4343 28.2371 40.4343 28.6123Z" fill="#FFCF5D"/>
<path d="M44.6472 28.6123C44.6472 28.9874 44.3434 29.2912 43.9682 29.2912H41.886C41.5111 29.2912 41.207 28.9874 41.207 28.6123V24.5383C41.207 24.1632 41.511 23.8594 41.886 23.8594H43.9682C44.3433 23.8594 44.6472 24.1632 44.6472 24.5383C44.6472 24.9135 44.3434 25.2173 43.9682 25.2173H42.565V25.8963H43.4251C43.8001 25.8963 44.104 26.2002 44.104 26.5752C44.104 26.9504 43.8001 27.2543 43.4251 27.2543H42.565V27.9333H43.9682C44.3433 27.9333 44.6472 28.2371 44.6472 28.6123Z" fill="#FFCF5D"/>
</g>
</g>
<defs>
<clipPath id="clip0_17823_1253">
<rect width="46.9688" height="45" fill="white" transform="translate(0.494141)"/>
</clipPath>
<clipPath id="clip1_17823_1253">
<rect width="45" height="45" fill="white" transform="translate(0.494141)"/>
</clipPath>
</defs>
</svg>
