<svg width="24" height="25" viewBox="0 0 24 25" fill="none" xmlns="http://www.w3.org/2000/svg">
<g id="e-learning (3) 1" clip-path="url(#clip0_18618_3401)">
<path id="Vector" d="M19.9 3.58949C19.7771 3.06114 19.5479 2.56333 19.2265 2.12631C18.9052 1.6893 18.4982 1.32222 18.0305 1.0474C17.5629 0.772581 17.0441 0.595764 16.506 0.527703C15.9678 0.459642 15.4214 0.501758 14.9 0.651491L13.176 1.14449C12.7393 1.27001 12.337 1.49371 12 1.79849C11.663 1.49371 11.2607 1.27001 10.824 1.14449L9.1 0.651491C8.57894 0.502538 8.03304 0.461022 7.49544 0.529463C6.95784 0.597903 6.43976 0.774872 5.97263 1.04963C5.50551 1.32439 5.09909 1.6912 4.77804 2.1278C4.45699 2.56441 4.22801 3.0617 4.105 3.58949C2.9548 3.79875 1.91429 4.40445 1.16433 5.30129C0.414377 6.19813 0.00239598 7.32941 0 8.49849L0 15.4985C0.00158786 16.8241 0.528882 18.0949 1.46622 19.0323C2.40356 19.9696 3.67441 20.4969 5 20.4985H11V22.4985H8C7.73478 22.4985 7.48043 22.6038 7.29289 22.7914C7.10536 22.9789 7 23.2333 7 23.4985C7 23.7637 7.10536 24.0181 7.29289 24.2056C7.48043 24.3931 7.73478 24.4985 8 24.4985H16C16.2652 24.4985 16.5196 24.3931 16.7071 24.2056C16.8946 24.0181 17 23.7637 17 23.4985C17 23.2333 16.8946 22.9789 16.7071 22.7914C16.5196 22.6038 16.2652 22.4985 16 22.4985H13V20.4985H19C20.3256 20.4969 21.5964 19.9696 22.5338 19.0323C23.4711 18.0949 23.9984 16.8241 24 15.4985V8.49849C23.9978 7.33013 23.5865 6.19942 22.8376 5.30268C22.0886 4.40594 21.0493 3.79979 19.9 3.58949ZM13 4.02949C13.0001 3.81231 13.0709 3.60106 13.2017 3.42768C13.3325 3.2543 13.5162 3.12822 13.725 3.06849L15.45 2.57549C15.7477 2.49035 16.0611 2.47548 16.3655 2.53206C16.6699 2.58864 16.957 2.71512 17.2042 2.90154C17.4514 3.08796 17.652 3.32924 17.7901 3.60636C17.9281 3.88347 18 4.18887 18 4.49849V8.43649C17.9986 8.87044 17.8565 9.29225 17.5951 9.63861C17.3337 9.98497 16.967 10.2372 16.55 10.3575L13 11.3715V4.02949ZM6.8 2.89849C7.04673 2.71274 7.33325 2.58688 7.63695 2.53082C7.94065 2.47477 8.25322 2.49006 8.55 2.57549L10.275 3.06849C10.4838 3.12822 10.6675 3.2543 10.7983 3.42768C10.9291 3.60106 10.9999 3.81231 11 4.02949V11.3715L7.45 10.3575C7.03305 10.2372 6.66634 9.98497 6.4049 9.63861C6.14346 9.29225 6.00139 8.87044 6 8.43649V4.49849C5.99898 4.18782 6.07083 3.88124 6.20976 3.60337C6.3487 3.3255 6.55086 3.08408 6.8 2.89849ZM22 15.4985C22 16.2941 21.6839 17.0572 21.1213 17.6198C20.5587 18.1824 19.7956 18.4985 19 18.4985H5C4.20435 18.4985 3.44129 18.1824 2.87868 17.6198C2.31607 17.0572 2 16.2941 2 15.4985V8.49849C2.00256 7.88023 2.19608 7.27786 2.55409 6.77379C2.91209 6.26972 3.41709 5.88857 4 5.68249V8.43649C4.00245 9.30483 4.28642 10.149 4.8093 10.8422C5.33218 11.5355 6.06577 12.0405 6.9 12.2815L10.351 13.2685C11.4295 13.5759 12.5725 13.5759 13.651 13.2685L17.102 12.2815C17.9359 12.0401 18.669 11.535 19.1915 10.8417C19.714 10.1485 19.9977 9.30457 20 8.43649V5.68249C20.5829 5.88857 21.0879 6.26972 21.4459 6.77379C21.8039 7.27786 21.9974 7.88023 22 8.49849V15.4985Z" fill="#E50914"/>
</g>
<defs>
<clipPath id="clip0_18618_3401">
<rect width="24" height="24" fill="white" transform="translate(0 0.5)"/>
</clipPath>
</defs>
</svg>
