<svg width="24" height="25" viewBox="0 0 24 25" fill="none" xmlns="http://www.w3.org/2000/svg">
<g id="document (2) 1" clip-path="url(#clip0_18618_3398)">
<path id="Vector" d="M17 14.5C17 14.7652 16.8946 15.0196 16.7071 15.2071C16.5196 15.3947 16.2652 15.5 16 15.5H8C7.73478 15.5 7.48043 15.3947 7.29289 15.2071C7.10536 15.0196 7 14.7652 7 14.5C7 14.2348 7.10536 13.9805 7.29289 13.7929C7.48043 13.6054 7.73478 13.5 8 13.5H16C16.2652 13.5 16.5196 13.6054 16.7071 13.7929C16.8946 13.9805 17 14.2348 17 14.5ZM13 17.5H8C7.73478 17.5 7.48043 17.6054 7.29289 17.7929C7.10536 17.9805 7 18.2348 7 18.5C7 18.7652 7.10536 19.0196 7.29289 19.2071C7.48043 19.3947 7.73478 19.5 8 19.5H13C13.2652 19.5 13.5196 19.3947 13.7071 19.2071C13.8946 19.0196 14 18.7652 14 18.5C14 18.2348 13.8946 17.9805 13.7071 17.7929C13.5196 17.6054 13.2652 17.5 13 17.5ZM22 10.985V19.5C21.9984 20.8256 21.4711 22.0965 20.5338 23.0338C19.5964 23.9711 18.3256 24.4984 17 24.5H7C5.67441 24.4984 4.40356 23.9711 3.46622 23.0338C2.52888 22.0965 2.00159 20.8256 2 19.5V5.50002C2.00159 4.17443 2.52888 2.90358 3.46622 1.96624C4.40356 1.0289 5.67441 0.501611 7 0.500023H11.515C12.4346 0.497656 13.3456 0.677611 14.1952 1.02948C15.0449 1.38135 15.8163 1.89816 16.465 2.55002L19.949 6.03602C20.6012 6.68426 21.1184 7.45548 21.4704 8.305C21.8225 9.15451 22.0025 10.0654 22 10.985ZM15.051 3.96402C14.7363 3.65918 14.3829 3.39695 14 3.18402V7.50002C14 7.76524 14.1054 8.01959 14.2929 8.20713C14.4804 8.39467 14.7348 8.50002 15 8.50002H19.316C19.103 8.11721 18.8404 7.76417 18.535 7.45002L15.051 3.96402ZM20 10.985C20 10.82 19.968 10.662 19.953 10.5H15C14.2044 10.5 13.4413 10.184 12.8787 9.62134C12.3161 9.05873 12 8.29567 12 7.50002V2.54702C11.838 2.53202 11.679 2.50002 11.515 2.50002H7C6.20435 2.50002 5.44129 2.81609 4.87868 3.3787C4.31607 3.94131 4 4.70437 4 5.50002V19.5C4 20.2957 4.31607 21.0587 4.87868 21.6213C5.44129 22.184 6.20435 22.5 7 22.5H17C17.7956 22.5 18.5587 22.184 19.1213 21.6213C19.6839 21.0587 20 20.2957 20 19.5V10.985Z" fill="#E50914"/>
</g>
<defs>
<clipPath id="clip0_18618_3398">
<rect width="24" height="24" fill="white" transform="translate(0 0.5)"/>
</clipPath>
</defs>
</svg>
