<svg width="46" height="45" viewBox="0 0 46 45" fill="none" xmlns="http://www.w3.org/2000/svg">
<g id="analysis 1" clip-path="url(#clip0_5555_7478)">
<path id="Vector" d="M28.1416 25.1532H2.54105C1.41393 25.1532 0.5 24.2393 0.5 23.1121V2.39262C0.5 1.26549 1.41393 0.351562 2.54105 0.351562H28.1416C29.2687 0.351562 30.1827 1.26549 30.1827 2.39262V23.1121C30.1827 24.2393 29.2687 25.1532 28.1416 25.1532Z" fill="#D9E0ED"/>
<path id="Vector_2" d="M28.1416 0.351563H26.0988V6.1187C26.0988 15.0011 18.898 22.202 10.0155 22.202H0.5V23.1121C0.5 24.2393 1.41393 25.1532 2.54105 25.1532H28.1413C29.2687 25.1532 30.1827 24.2393 30.1827 23.1121V2.39262C30.1827 1.26549 29.2687 0.351563 28.1416 0.351563Z" fill="#CFD6E5"/>
<path id="Vector_3" d="M26.9476 19.8662H3.73517C3.36026 19.8662 3.05676 19.5624 3.05676 19.1878C3.05676 18.8133 3.3606 18.5098 3.73517 18.5098H26.9476C27.3225 18.5098 27.626 18.8133 27.626 19.1878C27.626 19.5624 27.3221 19.8662 26.9476 19.8662Z" fill="#86A4B7"/>
<path id="Vector_4" d="M15.6842 22.4912H3.73517C3.36026 22.4912 3.05676 22.1877 3.05676 21.8132C3.05676 21.4386 3.3606 21.1348 3.73517 21.1348H15.6842C16.0591 21.1348 16.3626 21.4386 16.3626 21.8132C16.3626 22.1877 16.0591 22.4912 15.6842 22.4912Z" fill="#86A4B7"/>
<path id="Vector_5" d="M4.59931 12.7908C4.41769 12.7908 4.23711 12.7187 4.10355 12.5758C3.84778 12.3022 3.8622 11.8727 4.13582 11.6169L8.68863 7.35973C8.90114 7.16095 9.21666 7.12009 9.47278 7.25742L13.9267 9.6497L17.432 5.35644C17.5553 5.20573 17.7376 5.11475 17.9323 5.10754C18.1266 5.09998 18.3157 5.17757 18.45 5.31902L21.682 8.73096L25.898 3.50353C26.1329 3.21205 26.5599 3.16605 26.8518 3.40122C27.1433 3.6364 27.1889 4.06349 26.9537 4.35497L22.2509 10.1863C22.128 10.3387 21.9457 10.4304 21.75 10.4383C21.554 10.4462 21.3651 10.369 21.2306 10.2272L17.9951 6.81179L14.624 10.9406C14.4187 11.1922 14.064 11.263 13.7777 11.1092L9.25992 8.6829L5.06211 12.6078C4.93165 12.73 4.76514 12.7908 4.59931 12.7908Z" fill="#7885ED"/>
<g id="Group">
<path id="Vector_6" d="M5.84174 12.1126C5.84174 12.7989 5.28521 13.3554 4.59891 13.3554C3.91261 13.3554 3.35608 12.7989 3.35608 12.1126C3.35608 11.4263 3.91261 10.8701 4.59891 10.8701C5.28521 10.8701 5.84174 11.4263 5.84174 12.1126Z" fill="#FFA91E"/>
<path id="Vector_7" d="M10.3945 7.85611C10.3945 8.54241 9.83831 9.09859 9.15201 9.09859C8.46571 9.09859 7.90918 8.54241 7.90918 7.85611C7.90918 7.16981 8.46571 6.61328 9.15201 6.61328C9.83831 6.61328 10.3945 7.16981 10.3945 7.85611Z" fill="#FFA91E"/>
<path id="Vector_8" d="M15.3411 10.512C15.3411 11.1983 14.785 11.7548 14.0987 11.7548C13.4124 11.7548 12.8558 11.1983 12.8558 10.512C12.8558 9.82571 13.4124 9.26953 14.0987 9.26953C14.785 9.26953 15.3411 9.82571 15.3411 10.512Z" fill="#FFA91E"/>
<path id="Vector_9" d="M19.2 5.7858C19.2 6.4721 18.6435 7.02828 17.9572 7.02828C17.2709 7.02828 16.7147 6.4721 16.7147 5.7858C16.7147 5.09949 17.2709 4.54297 17.9572 4.54297C18.6435 4.54297 19.2 5.09949 19.2 5.7858Z" fill="#FFA91E"/>
<path id="Vector_10" d="M22.9657 9.76104C22.9657 10.4473 22.4091 11.0039 21.7228 11.0039C21.0365 11.0039 20.4803 10.4473 20.4803 9.76104C20.4803 9.07474 21.0365 8.51855 21.7228 8.51855C22.4091 8.51855 22.9657 9.07474 22.9657 9.76104Z" fill="#FFA91E"/>
<path id="Vector_11" d="M27.6616 3.9567C27.6616 4.643 27.1054 5.19918 26.4191 5.19918C25.7328 5.19918 25.1763 4.643 25.1763 3.9567C25.1763 3.27039 25.7328 2.71387 26.4191 2.71387C27.1054 2.71387 27.6616 3.27039 27.6616 3.9567Z" fill="#FFA91E"/>
</g>
<path id="Vector_12" d="M14.6487 41.1269V43.698C14.6487 44.2477 14.202 44.694 13.651 44.694H1.4977C0.946663 44.694 0.5 44.2477 0.5 43.698V41.1269C0.5 38.8733 2.32751 37.0479 4.58142 37.0479H10.5676C12.8212 37.0479 14.6487 38.8733 14.6487 41.1269Z" fill="#7885ED"/>
<path id="Vector_13" d="M5.08681 42.5256V44.6943H3.47217V42.5256C3.47217 42.0792 3.83403 41.7188 4.27932 41.7188C4.72495 41.7188 5.08681 42.0792 5.08681 42.5256Z" fill="#676FCE"/>
<path id="Vector_14" d="M10.2119 37.0479V37.3822C10.2119 38.2279 9.5253 38.9142 8.67935 38.9142H6.46973C5.62378 38.9142 4.93713 38.2279 4.93713 37.3822V37.0479H10.2119Z" fill="#5656B2"/>
<path id="Vector_15" d="M11.6421 42.5256V44.6943H10.0278V42.5256C10.0278 42.0792 10.3894 41.7188 10.835 41.7188C11.2816 41.7188 11.6421 42.0792 11.6421 42.5256Z" fill="#676FCE"/>
<path id="Vector_16" d="M8.3308 38.0963H6.81777C6.23859 38.0963 5.76892 37.6266 5.76892 37.0475V34.5439H9.37999V37.0475C9.37999 37.6266 8.91032 38.0963 8.3308 38.0963Z" fill="#FCC1B9"/>
<path id="Vector_17" d="M11.3652 27.8886V31.4986C11.3652 33.5908 9.6678 35.2872 7.57456 35.2872C5.48098 35.2872 3.78394 33.5908 3.78394 31.4986V27.8886C3.78394 26.3773 5.0096 25.1533 6.5209 25.1533H8.62822C10.1402 25.1533 11.3652 26.3773 11.3652 27.8886Z" fill="#FCC1B9"/>
<path id="Vector_18" d="M11.3652 27.8886V28.6676C11.3652 30.7594 9.6678 32.4558 7.57456 32.4558C5.48098 32.4558 3.78394 30.7594 3.78394 28.6676V27.8886C3.78394 26.3773 5.0096 25.1533 6.5209 25.1533H8.62822C10.1402 25.1533 11.3652 26.3773 11.3652 27.8886Z" fill="#354968"/>
<path id="Vector_19" d="M28.7974 41.1269V43.698C28.7974 44.2477 28.3507 44.694 27.7997 44.694H15.6464C15.0953 44.694 14.6487 44.2477 14.6487 43.698V41.1269C14.6487 38.8733 16.4762 37.0479 18.7298 37.0479H24.7163C26.9698 37.0479 28.7974 38.8733 28.7974 41.1269Z" fill="#48BBED"/>
<path id="Vector_20" d="M19.2355 42.5256V44.6943H17.6212V42.5256C17.6212 42.0792 17.9827 41.7188 18.4284 41.7188C18.874 41.7188 19.2355 42.0792 19.2355 42.5256Z" fill="#009BE6"/>
<path id="Vector_21" d="M24.3606 37.0479V37.3822C24.3606 38.2279 23.674 38.9142 22.828 38.9142H20.6184C19.7725 38.9142 19.0858 38.2279 19.0858 37.3822V37.0479H24.3606Z" fill="#0082BD"/>
<path id="Vector_22" d="M25.7908 42.5256V44.6943H24.1765V42.5256C24.1765 42.0792 24.5384 41.7188 24.9837 41.7188C25.4303 41.7188 25.7908 42.0792 25.7908 42.5256Z" fill="#009BE6"/>
<path id="Vector_23" d="M22.4795 38.0963H20.9665C20.3873 38.0963 19.9176 37.6266 19.9176 37.0475V34.5439H23.5287V37.0475C23.5287 37.6266 23.059 38.0963 22.4795 38.0963Z" fill="#FCC1B9"/>
<path id="Vector_24" d="M25.5139 27.8889V31.4986C25.5139 33.5908 23.8165 35.2872 21.7232 35.2872C19.6297 35.2872 17.9326 33.5908 17.9326 31.4986V27.8889C17.9326 26.3776 19.1583 25.1533 20.6696 25.1533H22.7769C24.2889 25.1533 25.5139 26.3776 25.5139 27.8889Z" fill="#FCC1B9"/>
<path id="Vector_25" d="M25.5139 27.8889V28.6676C25.5139 30.7598 23.8165 32.4561 21.7232 32.4561C19.6297 32.4561 17.9326 30.7598 17.9326 28.6676V27.8889C17.9326 26.3776 19.1583 25.1533 20.6696 25.1533H22.7769C24.2889 25.1533 25.5139 26.3776 25.5139 27.8889Z" fill="#354968"/>
<path id="Vector_26" d="M21.5782 11.4437V13.1771C21.5782 14.1093 22.3336 14.8646 23.265 14.8646H34.0628C34.2077 14.8646 34.3244 14.9813 34.3244 15.1262V25.1361H42.7098C44.2503 25.1361 45.4999 23.8864 45.4999 22.3459V14.3173C45.4999 12.7298 44.2128 11.4434 42.625 11.4434H21.5782V11.4437Z" fill="#48BBED"/>
<path id="Vector_27" d="M41.2325 16.5509V25.1361H42.645V16.5509C42.645 16.1613 42.3284 15.8447 41.9388 15.8447C41.5491 15.8447 41.2325 16.1613 41.2325 16.5509Z" fill="#009BE6"/>
<path id="Vector_28" d="M40.4274 9.1084V11.4183C40.4274 12.347 39.6741 13.1002 38.7444 13.1002C37.8154 13.1002 37.0621 12.347 37.0621 11.4183V9.1084H40.4274Z" fill="#FCC1B9"/>
<path id="Vector_29" d="M40.4274 9.1084V10.3021C39.9371 10.56 39.3792 10.7055 38.7866 10.7055C38.1601 10.7055 37.5723 10.5428 37.0621 10.2568V9.1084H40.4274Z" fill="#F2AA99"/>
<path id="Vector_30" d="M38.787 9.80083C40.7377 9.80083 42.3194 8.21915 42.3194 6.26839V2.19212C42.3194 1.17554 41.4954 0.351562 40.4789 0.351562H37.0951C36.0785 0.351562 35.2545 1.17554 35.2545 2.19212V6.26839C35.2545 8.21949 36.8359 9.80083 38.787 9.80083Z" fill="#FCC1B9"/>
<path id="Vector_31" d="M35.2539 2.19246V5.49213C35.2539 4.48551 36.0617 3.66806 37.0629 3.65192C37.0732 3.65089 37.0845 3.65089 37.0948 3.65089H40.4793C41.4952 3.65089 42.3191 4.47487 42.3191 5.49213V2.19246C42.3191 1.17554 41.4952 0.351562 40.4793 0.351562H37.0948C36.0789 0.351562 35.2539 1.17554 35.2539 2.19246Z" fill="#354968"/>
<path id="Vector_32" d="M37.0629 2.92204V3.6516C37.0732 3.65057 37.0845 3.65057 37.0948 3.65057H38.4753V2.92204C38.4753 2.53133 38.1591 2.21582 37.7691 2.21582C37.3794 2.21582 37.0629 2.53099 37.0629 2.92204Z" fill="#2A3A51"/>
<path id="Vector_33" d="M34.3256 25.1348H41.9387V44.3711H34.3256V25.1348Z" fill="#354968"/>
<path id="Vector_34" d="M40.5071 27.4961V31.1065C40.4999 32.5543 40.0975 33.4676 39.712 34.0447C39.3007 34.6603 38.9395 34.846 38.7623 35.5144C38.5038 36.4902 39.0329 37.001 38.6947 37.5493C38.3421 38.1199 37.352 38.2397 36.7158 38.0959C35.4331 37.8061 34.4498 36.1891 34.3256 34.0457V25.1348H39.1513C39.9626 25.6096 40.5071 26.4885 40.5071 27.4961Z" fill="#2A3A51"/>
<path id="Vector_35" d="M42.9464 41.1269V43.698C42.9464 44.2477 42.4997 44.694 41.9487 44.694H29.7951C29.244 44.694 28.7974 44.2477 28.7974 43.698V41.1269C28.7974 38.8733 30.6249 37.0479 32.8788 37.0479H38.865C41.1189 37.0479 42.9464 38.8733 42.9464 41.1269Z" fill="#7885ED"/>
<path id="Vector_36" d="M33.3842 42.5256V44.6943H31.7695V42.5256C31.7695 42.0792 32.1314 41.7188 32.577 41.7188C33.0223 41.7188 33.3842 42.0792 33.3842 42.5256Z" fill="#676FCE"/>
<path id="Vector_37" d="M38.5093 37.0479V37.3822C38.5093 38.2279 37.8227 38.9142 36.9767 38.9142H34.7671C33.9211 38.9142 33.2345 38.2279 33.2345 37.3822V37.0479H38.5093Z" fill="#5656B2"/>
<path id="Vector_38" d="M39.9395 42.5256V44.6943H38.3252V42.5256C38.3252 42.0792 38.6867 41.7188 39.1323 41.7188C39.579 41.7188 39.9395 42.0792 39.9395 42.5256Z" fill="#676FCE"/>
<path id="Vector_39" d="M36.6282 38.0963H35.1155C34.5359 38.0963 34.0663 37.6266 34.0663 37.0475V34.5439H37.6774V37.0475C37.6774 37.6266 37.2077 38.0963 36.6282 38.0963Z" fill="#FCC1B9"/>
<path id="Vector_40" d="M39.6624 27.8882V31.4983C39.6624 33.5905 37.965 35.2868 35.8718 35.2868C33.7786 35.2868 32.0812 33.5905 32.0812 31.4983V27.8882C32.0812 26.3769 33.3072 25.6113 34.8181 25.6113H36.9255C38.4378 25.6113 39.6624 26.3769 39.6624 27.8882Z" fill="#FCC1B9"/>
<path id="Vector_41" d="M39.6624 27.8886V28.6676C39.6624 30.7594 37.965 32.4558 35.8718 32.4558C33.7786 32.4558 32.0812 30.7594 32.0812 28.6676V27.8886C32.0812 26.3773 33.3072 25.1533 34.8181 25.1533H36.9255C38.4378 25.1533 39.6624 26.3773 39.6624 27.8886Z" fill="#354968"/>
</g>
<defs>
<clipPath id="clip0_5555_7478">
<rect width="45" height="45" fill="white" transform="translate(0.5)"/>
</clipPath>
</defs>
</svg>
