<svg width="17" height="17" viewBox="0 0 17 17" fill="none" xmlns="http://www.w3.org/2000/svg">
<g id="calendar (3) 1" clip-path="url(#clip0_12369_7506)">
<path id="Vector" d="M13.1667 1.83333H12.5V1.16667C12.5 0.989856 12.4298 0.820286 12.3047 0.695262C12.1797 0.570238 12.0101 0.5 11.8333 0.5C11.6565 0.5 11.487 0.570238 11.3619 0.695262C11.2369 0.820286 11.1667 0.989856 11.1667 1.16667V1.83333H5.83333V1.16667C5.83333 0.989856 5.7631 0.820286 5.63807 0.695262C5.51305 0.570238 5.34348 0.5 5.16667 0.5C4.98986 0.5 4.82029 0.570238 4.69526 0.695262C4.57024 0.820286 4.5 0.989856 4.5 1.16667V1.83333H3.83333C2.9496 1.83439 2.10237 2.18592 1.47748 2.81081C0.852588 3.43571 0.501059 4.28294 0.5 5.16667L0.5 13.1667C0.501059 14.0504 0.852588 14.8976 1.47748 15.5225C2.10237 16.1474 2.9496 16.4989 3.83333 16.5H13.1667C14.0504 16.4989 14.8976 16.1474 15.5225 15.5225C16.1474 14.8976 16.4989 14.0504 16.5 13.1667V5.16667C16.4989 4.28294 16.1474 3.43571 15.5225 2.81081C14.8976 2.18592 14.0504 1.83439 13.1667 1.83333ZM1.83333 5.16667C1.83333 4.63623 2.04405 4.12753 2.41912 3.75245C2.79419 3.37738 3.3029 3.16667 3.83333 3.16667H13.1667C13.6971 3.16667 14.2058 3.37738 14.5809 3.75245C14.956 4.12753 15.1667 4.63623 15.1667 5.16667V5.83333H1.83333V5.16667ZM13.1667 15.1667H3.83333C3.3029 15.1667 2.79419 14.956 2.41912 14.5809C2.04405 14.2058 1.83333 13.6971 1.83333 13.1667V7.16667H15.1667V13.1667C15.1667 13.6971 14.956 14.2058 14.5809 14.5809C14.2058 14.956 13.6971 15.1667 13.1667 15.1667Z" fill="#E50914"/>
<path id="Vector_2" d="M8.5 11.5C9.05228 11.5 9.5 11.0523 9.5 10.5C9.5 9.94772 9.05228 9.5 8.5 9.5C7.94772 9.5 7.5 9.94772 7.5 10.5C7.5 11.0523 7.94772 11.5 8.5 11.5Z" fill="#E50914"/>
<path id="Vector_3" d="M5.16797 11.5C5.72025 11.5 6.16797 11.0523 6.16797 10.5C6.16797 9.94772 5.72025 9.5 5.16797 9.5C4.61568 9.5 4.16797 9.94772 4.16797 10.5C4.16797 11.0523 4.61568 11.5 5.16797 11.5Z" fill="#E50914"/>
<path id="Vector_4" d="M11.832 11.5C12.3843 11.5 12.832 11.0523 12.832 10.5C12.832 9.94772 12.3843 9.5 11.832 9.5C11.2797 9.5 10.832 9.94772 10.832 10.5C10.832 11.0523 11.2797 11.5 11.832 11.5Z" fill="#E50914"/>
</g>
<defs>
<clipPath id="clip0_12369_7506">
<rect width="16" height="16" fill="white" transform="translate(0.5 0.5)"/>
</clipPath>
</defs>
</svg>
