<svg width="12" height="12" viewBox="0 0 12 12" fill="none" xmlns="http://www.w3.org/2000/svg">
<g id="tags 1" clip-path="url(#clip0_12362_7030)">
<path id="Vector" d="M10.7783 3.57707L7.65884 0.482571C7.27334 0.116571 6.74984 -0.0519292 6.22334 0.0155708L2.91034 0.453071C2.49984 0.507571 2.21084 0.884071 2.26484 1.29507C2.31884 1.70607 2.69834 1.99607 3.10684 1.94057L6.41984 1.50307C6.49484 1.49307 6.57034 1.51707 6.61384 1.55907L9.71434 4.63507C10.0928 5.02157 10.0923 5.65007 9.71784 6.03157L9.46183 6.28757C9.40534 6.21507 9.34383 6.14507 9.27833 6.07807L6.15934 2.98357C5.77384 2.61757 5.24984 2.44857 4.72384 2.51607L1.41084 2.95357C1.06034 3.00007 0.789836 3.28507 0.761336 3.63757L0.505836 6.83557C0.462836 7.36507 0.659336 7.87857 1.03284 8.23307L4.07584 11.2506C4.54934 11.7341 5.18284 12.0006 5.85934 12.0011H5.86184C6.53784 12.0011 7.17034 11.7361 7.64384 11.2541L9.28284 9.58757C9.74634 9.11557 9.98334 8.49857 9.99333 7.87707L10.7828 7.08757C11.7308 6.12307 11.7318 4.55157 10.7778 3.57757L10.7783 3.57707ZM8.21334 8.53557L6.57484 10.2021C6.38534 10.3951 6.13134 10.5011 5.86084 10.5011C5.58984 10.5011 5.33634 10.3941 5.13984 10.1931L2.07784 7.15707C2.02334 7.10507 1.99484 7.03207 2.00134 6.95607L2.20834 4.36157L4.92034 4.00357C4.99434 3.99157 5.07084 4.01757 5.11434 4.05957L8.21484 7.13557C8.59334 7.52207 8.59284 8.15057 8.21384 8.53657L8.21334 8.53557ZM4.49984 5.75057C4.48284 6.73657 3.01634 6.73607 2.99984 5.75057C3.01684 4.76457 4.48334 4.76507 4.49984 5.75057Z" fill="#00A538"/>
</g>
<defs>
<clipPath id="clip0_12362_7030">
<rect width="12" height="12" fill="white"/>
</clipPath>
</defs>
</svg>
