<svg width="17" height="17" viewBox="0 0 17 17" fill="none" xmlns="http://www.w3.org/2000/svg">
<g id="Layer_1">
<g id="Icon">
<g id="Group">
<path id="Vector" d="M12.0735 15.4998C11.8597 15.4998 11.7172 15.3573 11.5747 15.2148L10.8621 13.7895C10.7195 13.5045 10.8621 13.2194 11.0758 13.0769C11.3609 12.9344 11.6459 13.0769 11.7885 13.2907L12.5011 14.7159C12.6436 15.001 12.5011 15.286 12.2873 15.4286C12.216 15.4286 12.1448 15.4286 12.0735 15.4998Z" fill="#E50914" stroke="#E50914" stroke-width="0.5" stroke-linecap="round" stroke-linejoin="round"/>
<path id="Vector_2" d="M4.94805 15.5C4.87679 15.5 4.80553 15.5 4.73427 15.4288C4.44922 15.2862 4.37796 15.0012 4.52048 14.7161L5.2331 13.2909C5.37563 13.0059 5.66067 12.9346 5.94572 13.0771C6.23077 13.2196 6.30203 13.5047 6.15951 13.7897L5.44689 15.215C5.30436 15.3575 5.16184 15.5 4.94805 15.5Z" fill="#E50914" stroke="#E50914" stroke-width="0.5" stroke-linecap="round" stroke-linejoin="round"/>
<path id="Vector_3" d="M10.4346 9.799L8.36803 9.08638C8.15424 9.01512 8.01172 8.80133 8.01172 8.58755V5.6658C8.01172 5.38075 8.22551 5.0957 8.58182 5.0957C8.93813 5.0957 9.15191 5.30949 9.15191 5.6658V8.15997L10.9335 8.73007C11.076 8.80133 11.2185 8.94386 11.2898 9.08638V9.44269L11.076 9.65648C11.0047 9.72774 10.8622 9.799 10.7909 9.799C10.6484 9.87026 10.4346 9.799 10.4346 9.799Z" fill="#E50914" stroke="#E50914" stroke-width="0.5" stroke-linecap="round" stroke-linejoin="round"/>
<path id="Vector_4" d="M13.4269 6.16478C13.1419 6.16478 12.9281 5.95099 12.9281 5.7372C12.8568 5.45216 13.0706 5.16711 13.3556 5.09585C14.0683 5.02458 14.4958 4.38322 14.4246 3.6706C14.3533 2.95798 13.712 2.53041 12.9993 2.60167C12.4292 2.67293 12.0729 3.10051 11.9304 3.6706C11.8591 3.95565 11.6454 4.16944 11.289 4.09818C11.004 4.02691 10.7902 3.81313 10.8615 3.45682C11.0753 2.1741 12.2154 1.31895 13.4982 1.53274C14.7809 1.74653 15.636 2.88672 15.4222 4.16944C15.2797 5.16711 14.4958 5.95099 13.4982 6.09352L13.4269 6.16478Z" fill="#E50914" stroke="#E50914" stroke-width="0.5" stroke-linecap="round" stroke-linejoin="round"/>
<path id="Vector_5" d="M3.59441 6.1648C2.24043 5.95102 1.38528 4.81082 1.59907 3.52811C1.81285 2.24539 2.95305 1.39024 4.23577 1.60403C5.23344 1.74655 6.01732 2.53044 6.15984 3.52811C6.23111 3.81315 6.01732 4.0982 5.73227 4.0982C5.44722 4.16947 5.16217 3.95568 5.09091 3.67063C5.01965 2.95801 4.37829 2.53044 3.66567 2.6017C2.95305 2.67296 2.52548 3.31432 2.59674 4.02694C2.668 4.59704 3.09557 4.95335 3.66567 5.09587C3.95072 5.16714 4.1645 5.38092 4.09324 5.66597C4.09324 6.02228 3.87946 6.1648 3.59441 6.1648Z" fill="#E50914" stroke="#E50914" stroke-width="0.5" stroke-linecap="round" stroke-linejoin="round"/>
</g>
<path id="Vector_6" d="M8.57422 14.5C5.30149 14.5 2.57422 11.8257 2.57422 8.46571C2.57422 5.10571 5.30149 2.5 8.57422 2.5C11.8469 2.5 14.5742 5.17429 14.5742 8.53429C14.506 11.7571 11.8469 14.4314 8.57422 14.5ZM8.57422 3.52857C5.84695 3.52857 3.66513 5.72286 3.66513 8.46571C3.66513 11.2086 5.84695 13.4714 8.57422 13.4714C11.3015 13.4714 13.5515 11.2771 13.5515 8.46571C13.4833 5.72286 11.3015 3.52857 8.57422 3.52857Z" fill="#E50914" stroke="#E50914" stroke-width="0.5" stroke-linecap="round" stroke-linejoin="round"/>
</g>
</g>
</svg>
