<svg width="45" height="45" viewBox="0 0 45 45" fill="none" xmlns="http://www.w3.org/2000/svg">
<rect width="45" height="45" rx="5" fill="#027055"/>
<path d="M13.3204 34.09C12.627 34.09 12.0204 33.9433 11.5004 33.65C10.987 33.35 10.5904 32.9267 10.3104 32.38C10.037 31.8333 9.90035 31.1967 9.90035 30.47C9.90035 29.7433 10.037 29.11 10.3104 28.57C10.5904 28.0233 10.987 27.6033 11.5004 27.31C12.0204 27.01 12.627 26.86 13.3204 26.86C13.7937 26.86 14.2404 26.9333 14.6604 27.08C15.0804 27.2267 15.4337 27.4333 15.7204 27.7L15.2904 28.64C14.9704 28.3867 14.6537 28.2033 14.3404 28.09C14.027 27.97 13.6937 27.91 13.3404 27.91C12.6604 27.91 12.1337 28.13 11.7604 28.57C11.3937 29.01 11.2104 29.6433 11.2104 30.47C11.2104 31.3033 11.3937 31.94 11.7604 32.38C12.1337 32.82 12.6604 33.04 13.3404 33.04C13.6937 33.04 14.027 32.9833 14.3404 32.87C14.6537 32.75 14.9704 32.5633 15.2904 32.31L15.7204 33.25C15.4337 33.5167 15.0804 33.7233 14.6604 33.87C14.2404 34.0167 13.7937 34.09 13.3204 34.09ZM19.9707 34.09C19.2774 34.09 18.6707 33.9433 18.1507 33.65C17.6374 33.35 17.2407 32.9267 16.9607 32.38C16.6874 31.8333 16.5507 31.1967 16.5507 30.47C16.5507 29.7433 16.6874 29.11 16.9607 28.57C17.2407 28.0233 17.6374 27.6033 18.1507 27.31C18.6707 27.01 19.2774 26.86 19.9707 26.86C20.4441 26.86 20.8907 26.9333 21.3107 27.08C21.7307 27.2267 22.0841 27.4333 22.3707 27.7L21.9407 28.64C21.6207 28.3867 21.3041 28.2033 20.9907 28.09C20.6774 27.97 20.3441 27.91 19.9907 27.91C19.3107 27.91 18.7841 28.13 18.4107 28.57C18.0441 29.01 17.8607 29.6433 17.8607 30.47C17.8607 31.3033 18.0441 31.94 18.4107 32.38C18.7841 32.82 19.3107 33.04 19.9907 33.04C20.3441 33.04 20.6774 32.9833 20.9907 32.87C21.3041 32.75 21.6207 32.5633 21.9407 32.31L22.3707 33.25C22.0841 33.5167 21.7307 33.7233 21.3107 33.87C20.8907 34.0167 20.4441 34.09 19.9707 34.09ZM25.8111 34.09C25.2711 34.09 24.7645 34.0167 24.2911 33.87C23.8178 33.7233 23.4178 33.5167 23.0911 33.25L23.5211 32.31C23.8611 32.57 24.2178 32.76 24.5911 32.88C24.9711 33 25.3811 33.06 25.8211 33.06C26.3078 33.06 26.6811 32.9767 26.9411 32.81C27.2078 32.6367 27.3411 32.3967 27.3411 32.09C27.3411 31.8233 27.2178 31.62 26.9711 31.48C26.7311 31.34 26.3278 31.2067 25.7611 31.08C25.1745 30.9533 24.6978 30.8067 24.3311 30.64C23.9645 30.4733 23.6878 30.26 23.5011 30C23.3145 29.74 23.2211 29.41 23.2211 29.01C23.2211 28.5967 23.3345 28.2267 23.5611 27.9C23.7878 27.5733 24.1078 27.32 24.5211 27.14C24.9345 26.9533 25.4111 26.86 25.9511 26.86C26.4445 26.86 26.9145 26.9367 27.3611 27.09C27.8078 27.2367 28.1745 27.44 28.4611 27.7L28.0311 28.64C27.4045 28.14 26.7111 27.89 25.9511 27.89C25.4978 27.89 25.1378 27.9833 24.8711 28.17C24.6111 28.35 24.4811 28.6033 24.4811 28.93C24.4811 29.2033 24.5978 29.4133 24.8311 29.56C25.0645 29.7067 25.4611 29.8433 26.0211 29.97C26.6145 30.1033 27.0945 30.2533 27.4611 30.42C27.8345 30.58 28.1178 30.7867 28.3111 31.04C28.5111 31.2933 28.6111 31.6133 28.6111 32C28.6111 32.42 28.4978 32.79 28.2711 33.11C28.0511 33.4233 27.7278 33.6667 27.3011 33.84C26.8811 34.0067 26.3845 34.09 25.8111 34.09ZM29.7981 26.95H32.8781C33.6314 26.95 34.2181 27.14 34.6381 27.52C35.0581 27.8933 35.2681 28.42 35.2681 29.1C35.2681 29.78 35.0581 30.31 34.6381 30.69C34.2181 31.07 33.6314 31.26 32.8781 31.26H31.0881V34H29.7981V26.95ZM32.7181 30.27C33.6048 30.27 34.0481 29.8833 34.0481 29.11C34.0481 28.7167 33.9381 28.4267 33.7181 28.24C33.4981 28.0467 33.1648 27.95 32.7181 27.95H31.0881V30.27H32.7181Z" fill="white"/>
</svg>
