<svg width="47" height="45" viewBox="0 0 47 45" fill="none" xmlns="http://www.w3.org/2000/svg">
<path fill-rule="evenodd" clip-rule="evenodd" d="M17.3706 43.0517H25.8842C26.1166 43.0517 26.2888 42.8437 26.2424 42.6187C25.8047 40.497 23.9049 38.9004 21.6274 38.9004C19.3499 38.9004 17.4502 40.497 17.0125 42.6187C16.966 42.8437 17.1382 43.0517 17.3706 43.0517Z" fill="#8AC9FE"/>
<path fill-rule="evenodd" clip-rule="evenodd" d="M25.0515 43.0517H25.8839C26.1164 43.0517 26.2885 42.8437 26.2421 42.6187C25.8044 40.497 23.9046 38.9004 21.6271 38.9004C21.4869 38.9004 21.3481 38.9065 21.2109 38.9184C23.3006 39.0991 24.9989 40.6276 25.4097 42.6187C25.4561 42.8437 25.284 43.0517 25.0515 43.0517Z" fill="#60B7FF"/>
<path d="M21.6274 38.0213C22.9426 38.0213 24.0088 36.9683 24.0088 35.6693C24.0088 34.3704 22.9426 33.3174 21.6274 33.3174C20.3123 33.3174 19.2461 34.3704 19.2461 35.6693C19.2461 36.9683 20.3123 38.0213 21.6274 38.0213Z" fill="#F6DCCD"/>
<path fill-rule="evenodd" clip-rule="evenodd" d="M21.6277 33.3174C22.9428 33.3174 24.009 34.3704 24.009 35.6693C24.009 36.9683 22.9428 38.0213 21.6277 38.0213C21.5151 38.0213 21.4043 38.0134 21.2959 37.9984C22.454 37.839 23.3455 36.857 23.3455 35.6693C23.3455 34.4816 22.454 33.4997 21.2959 33.3402C21.4043 33.3253 21.515 33.3174 21.6277 33.3174Z" fill="#F1CBBC"/>
<path fill-rule="evenodd" clip-rule="evenodd" d="M18.7267 4.53556C18.7267 3.1119 19.9058 1.94727 21.3475 1.94727H42.1196C43.561 1.94727 44.7402 3.11243 44.7402 4.53556V20.0787C44.7402 21.5019 43.5604 22.667 42.1195 22.667H21.3474C19.9068 22.667 18.7266 21.5024 18.7266 20.0787L18.7267 4.53556Z" fill="#ECEFF1"/>
<path fill-rule="evenodd" clip-rule="evenodd" d="M41.2295 1.94727H42.1194C43.5608 1.94727 44.74 3.11243 44.74 4.53556V20.0787C44.74 21.5019 43.5603 22.667 42.1194 22.667H41.2295C42.6704 22.667 43.8501 21.5019 43.8501 20.0787V4.53556C43.85 3.11243 42.6709 1.94727 41.2295 1.94727Z" fill="#D1D1D6"/>
<path fill-rule="evenodd" clip-rule="evenodd" d="M23.2695 20.2882C22.8764 20.2882 22.5576 19.9734 22.5576 19.585C22.5576 19.1967 22.8764 18.8819 23.2695 18.8819H41.3745C41.7676 18.8819 42.0864 19.1967 42.0864 19.585C42.0864 19.9734 41.7676 20.2882 41.3745 20.2882H23.2695ZM23.2695 17.6514C22.8764 17.6514 22.5576 17.3365 22.5576 16.9482C22.5576 16.5599 22.8764 16.2451 23.2695 16.2451H36.8444C37.2376 16.2451 37.5563 16.5599 37.5563 16.9482C37.5563 17.3365 37.2376 17.6514 36.8444 17.6514H23.2695Z" fill="#A79BA7"/>
<path fill-rule="evenodd" clip-rule="evenodd" d="M6.55846 41.8543H14.2695C14.7432 41.8542 15.1297 41.473 15.1305 41.0051L15.1689 17.5547L17.1491 15.1893H22.1475C22.5107 15.1893 22.8411 15.0508 23.0876 14.8243L26.904 11.8789C27.5027 11.4169 27.609 10.5631 27.1413 9.97164C26.6736 9.38023 25.8091 9.27528 25.2103 9.73724L21.6803 12.4616H6.35289C4.44808 12.4616 2.079 13.6686 2.06815 15.7985L2.02543 24.2203C2.016 26.0551 3.61656 27.5567 5.63128 27.5567L5.69722 41.0079C5.69953 41.4749 6.08557 41.8543 6.55846 41.8543Z" fill="#8AC9FE"/>
<path fill-rule="evenodd" clip-rule="evenodd" d="M5.01278 27.5091C5.16878 27.5337 5.32825 27.5491 5.49075 27.5548H6.3906V15.7947C6.3906 15.419 6.08217 15.1143 5.70165 15.1143C5.32113 15.1143 5.0127 15.4189 5.0127 15.7947L5.01278 27.5091Z" fill="#60B7FF"/>
<path fill-rule="evenodd" clip-rule="evenodd" d="M6.55804 41.8542H14.269C14.7428 41.8542 15.1293 41.473 15.1301 41.005L15.1521 27.5566H5.63086L5.6968 41.0079C5.69911 41.4748 6.08515 41.8542 6.55804 41.8542Z" fill="#837683"/>
<path fill-rule="evenodd" clip-rule="evenodd" d="M9.7334 41.8543H11.1113V31.0408C11.1113 30.665 10.8029 30.3604 10.4224 30.3604C10.0418 30.3604 9.7334 30.665 9.7334 31.0408V41.8543Z" fill="#685E68"/>
<path fill-rule="evenodd" clip-rule="evenodd" d="M17.1202 15.2694H22.1187C22.4818 15.2694 22.8122 15.1309 23.0587 14.9044L26.8751 11.9589C27.4739 11.497 27.5802 10.6431 27.1125 10.0517C26.6447 9.4603 25.7802 9.35536 25.1814 9.81732L21.6515 12.5417H16.291V16.26L17.1202 15.2694Z" fill="#8AC9FE"/>
<path fill-rule="evenodd" clip-rule="evenodd" d="M10.4253 3.25391C12.4755 3.25391 14.1375 4.40791 14.1375 7.06924C14.1375 9.73057 12.4754 11.888 10.4253 11.888C8.37494 11.888 6.71289 9.73048 6.71289 7.06924C6.71289 4.408 8.37503 3.25391 10.4253 3.25391Z" fill="#F6DCCD"/>
<path fill-rule="evenodd" clip-rule="evenodd" d="M10.4258 3.25391C12.4761 3.25391 14.1381 4.40791 14.1381 7.06924C14.1381 9.73057 12.476 11.888 10.4258 11.888C10.3296 11.888 10.2341 11.8832 10.1396 11.8739C12.0561 11.6842 13.5657 9.6055 13.5657 7.06924C13.5657 4.53289 12.0561 3.3657 10.1396 3.26164C10.2342 3.25646 10.3296 3.25391 10.4258 3.25391Z" fill="#F1CBBC"/>
<path fill-rule="evenodd" clip-rule="evenodd" d="M36.9374 4.50801C37.4627 4.63149 37.9646 4.83716 38.4243 5.11683L39.3905 4.69302L40.5292 5.81767L40.1002 6.77163C40.3835 7.22585 40.5917 7.72155 40.7167 8.24055L41.7025 8.61531V10.2059L40.7165 10.5806C40.5914 11.0995 40.3832 11.5951 40.1 12.0491L40.5291 13.0034L39.3904 14.1281L38.4245 13.7044C37.9646 13.9841 37.4628 14.1898 36.9373 14.3133L36.5578 15.2868H34.9474L34.5678 14.313C34.0425 14.1895 33.5407 13.9838 33.081 13.7042L32.1148 14.128L30.976 13.0033L31.405 12.0494C31.1217 11.5952 30.9135 11.0994 30.7885 10.5805L29.8027 10.2057V8.61531L30.7886 8.24055C30.9137 7.72164 31.1219 7.22603 31.4052 6.77189L30.9761 5.81775L32.1149 4.69302L33.081 5.11683C33.5408 4.83716 34.0425 4.63149 34.5679 4.50801L34.9475 3.53418H36.5578L36.9374 4.50801Z" fill="#FFE177"/>
<path fill-rule="evenodd" clip-rule="evenodd" d="M33.0809 13.7043L32.1146 14.1281L31.9658 13.9811L32.8717 13.5838C32.9405 13.6256 33.0102 13.6658 33.0809 13.7043ZM36.9371 4.50792C37.4624 4.63141 37.9642 4.83707 38.4239 5.11674L38.1493 5.23724C37.6895 4.95766 36.9787 4.63149 36.4534 4.50801L36.0738 3.53418H36.5576L36.9371 4.50792ZM38.4243 13.7044C37.9644 13.9841 37.4625 14.1898 36.937 14.3133L36.5576 15.2868H36.0738L36.4533 14.3133C36.9788 14.1898 37.6898 13.8636 38.1496 13.5839L38.4243 13.7044ZM31.9658 4.83979L32.1146 4.69284L33.0808 5.11665C33.0102 5.15515 32.9404 5.19531 32.8716 5.23715L31.9658 4.83979ZM39.0552 4.83979L39.3902 4.69284L40.5289 5.81749L40.0999 6.77145C40.3831 7.22567 40.5914 7.72138 40.7164 8.24037L41.7021 8.61514V10.2057L40.7161 10.5805C40.5911 11.0993 40.3829 11.5949 40.0997 12.0489L40.5288 13.0033L39.3901 14.1279L39.0551 13.9809L40.0452 13.0032L39.616 12.0488C39.8992 11.5947 40.1074 11.0992 40.2325 10.5804L41.2185 10.2056V8.61522L40.2327 8.24046C40.1077 7.72147 39.8994 7.22576 39.6162 6.77154L40.0452 5.81758L39.0552 4.83979Z" fill="#FFD064"/>
<path d="M36.4663 12.4095C38.1496 12.0165 39.1916 10.3502 38.7937 8.68768C38.3958 7.02518 36.7087 5.99604 35.0254 6.38902C33.3421 6.78201 32.3001 8.44831 32.698 10.1108C33.0959 11.7733 34.783 12.8024 36.4663 12.4095Z" fill="#ECEFF1"/>
<path fill-rule="evenodd" clip-rule="evenodd" d="M35.7525 6.31641C34.0223 6.31641 32.6201 7.70139 32.6201 9.41016C32.6201 11.1189 34.0224 12.5038 35.7525 12.5038C35.8364 12.5038 35.9194 12.5005 36.0016 12.4941C34.3881 12.3686 33.1184 11.036 33.1184 9.41007C33.1184 7.78409 34.3881 6.45149 36.0016 6.32607C35.9194 6.31975 35.8363 6.31641 35.7525 6.31641Z" fill="#D1D1D6"/>
<path fill-rule="evenodd" clip-rule="evenodd" d="M33.9067 9.98706C33.6287 9.71249 33.6287 9.26732 33.9067 8.99284C34.1847 8.71827 34.6355 8.71827 34.9134 8.99284L35.218 9.29369L36.6176 8.03922C36.9079 7.77837 37.3574 7.7992 37.6215 8.08589C37.8856 8.37259 37.8645 8.81653 37.5743 9.07739L35.7006 10.7567L35.6967 10.7607C35.4187 11.0352 34.9679 11.0352 34.6899 10.7607L33.9067 9.98706Z" fill="#8AC9FE"/>
<path fill-rule="evenodd" clip-rule="evenodd" d="M26.6157 43.0517H35.1293C35.3617 43.0517 35.5338 42.8437 35.4875 42.6187C35.0497 40.497 33.15 38.9004 30.8726 38.9004C28.5951 38.9004 26.6953 40.497 26.2576 42.6187C26.2112 42.8437 26.3833 43.0517 26.6157 43.0517Z" fill="#8AC9FE"/>
<path fill-rule="evenodd" clip-rule="evenodd" d="M34.2966 43.0517H35.129C35.3614 43.0517 35.5335 42.8437 35.4872 42.6187C35.0494 40.497 33.1497 38.9004 30.8723 38.9004C30.732 38.9004 30.5932 38.9065 30.4561 38.9184C32.5457 39.0991 34.2441 40.6276 34.6548 42.6187C34.7011 42.8437 34.529 43.0517 34.2966 43.0517Z" fill="#60B7FF"/>
<path d="M31.7999 37.8382C33.0151 37.3407 33.5919 35.9644 33.0882 34.7642C32.5845 33.564 31.191 32.9943 29.9758 33.4918C28.7605 33.9893 28.1837 35.3656 28.6874 36.5658C29.1912 37.766 30.5846 38.3357 31.7999 37.8382Z" fill="#F6DCCD"/>
<path fill-rule="evenodd" clip-rule="evenodd" d="M30.8728 33.3184C32.1879 33.3184 33.2541 34.3714 33.2541 35.6703C33.2541 36.9692 32.1879 38.0223 30.8728 38.0223C30.7602 38.0223 30.6494 38.0144 30.541 37.9994C31.6991 37.84 32.5906 36.858 32.5906 35.6703C32.5906 34.4826 31.6991 33.5006 30.541 33.3412C30.6494 33.3263 30.7602 33.3184 30.8728 33.3184Z" fill="#F1CBBC"/>
<path fill-rule="evenodd" clip-rule="evenodd" d="M35.8609 43.0517H44.3745C44.6069 43.0517 44.779 42.8437 44.7327 42.6187C44.2949 40.497 42.3952 38.9004 40.1177 38.9004C37.8402 38.9004 35.9404 40.497 35.5027 42.6187C35.4563 42.8437 35.6284 43.0517 35.8609 43.0517Z" fill="#8AC9FE"/>
<path fill-rule="evenodd" clip-rule="evenodd" d="M43.5418 43.0517H44.3742C44.6066 43.0517 44.7787 42.8437 44.7324 42.6187C44.2946 40.497 42.3949 38.9004 40.1174 38.9004C39.9771 38.9004 39.8383 38.9065 39.7012 38.9184C41.7909 39.0991 43.4892 40.6276 43.9 42.6187C43.9464 42.8437 43.7743 43.0517 43.5418 43.0517Z" fill="#60B7FF"/>
<path d="M40.1177 38.0213C41.4329 38.0213 42.499 36.9683 42.499 35.6693C42.499 34.3704 41.4329 33.3174 40.1177 33.3174C38.8025 33.3174 37.7363 34.3704 37.7363 35.6693C37.7363 36.9683 38.8025 38.0213 40.1177 38.0213Z" fill="#F6DCCD"/>
<path fill-rule="evenodd" clip-rule="evenodd" d="M40.1179 33.3174C41.4331 33.3174 42.4992 34.3704 42.4992 35.6693C42.4992 36.9683 41.4331 38.0213 40.1179 38.0213C40.0053 38.0213 39.8945 38.0134 39.7861 37.9984C40.9442 37.839 41.8357 36.857 41.8357 35.6693C41.8357 34.4816 40.9442 33.4997 39.7861 33.3402C39.8945 33.3253 40.0052 33.3174 40.1179 33.3174Z" fill="#F1CBBC"/>
</svg>
