<svg width="24" height="25" viewBox="0 0 24 25" fill="none" xmlns="http://www.w3.org/2000/svg">
<g id="quiz-alt (1) 1" clip-path="url(#clip0_18618_3404)">
<path id="Vector" d="M14.881 12.5H15C17.206 12.5 19 10.706 19 8.5V4.5C19 2.294 17.206 0.5 15 0.5H9C6.795 0.5 5 2.294 5 4.5V8.5C5 10.706 6.794 12.5 9 12.5H9.154L10.989 14.117C11.279 14.373 11.641 14.501 12.003 14.501C12.362 14.501 12.72 14.375 13.002 14.125L14.881 12.5ZM10.193 10.75C10.01 10.589 9.776 10.5 9.532 10.5H9C7.897 10.5 7 9.603 7 8.5V4.5C7 3.397 7.897 2.5 9 2.5H15C16.103 2.5 17 3.397 17 4.5V8.5C17 9.603 16.103 10.5 15 10.5H14.508C14.268 10.5 14.036 10.587 13.854 10.743L12.002 12.345L10.193 10.75ZM15.234 6.18L12.702 8.914C12.311 9.301 11.807 9.492 11.308 9.492C10.824 9.492 10.344 9.311 9.976 8.952L8.774 7.688C8.394 7.288 8.41 6.655 8.81 6.275C9.21 5.894 9.843 5.911 10.224 6.311L11.319 7.463L13.765 4.819C14.14 4.413 14.773 4.389 15.178 4.765C15.583 5.14 15.608 5.773 15.233 6.178L15.234 6.18ZM6 14.5C3.239 14.5 1 16.739 1 19.5C1 22.261 3.239 24.5 6 24.5C8.761 24.5 11 22.261 11 19.5C11 16.739 8.761 14.5 6 14.5ZM8.041 22.278C7.809 22.278 7.602 22.13 7.527 21.91L7.273 21.167H4.729L4.475 21.91C4.4 22.13 4.193 22.278 3.96 22.278C3.588 22.278 3.326 21.913 3.445 21.561L4.799 17.527C5.092 16.86 5.492 16.723 6.001 16.723C6.51 16.723 6.91 16.86 7.195 17.507L8.557 21.562C8.675 21.914 8.413 22.279 8.042 22.279L8.041 22.278ZM6.16 17.916L6.892 20.055H5.108L5.833 17.934C5.856 17.887 5.945 17.832 6 17.832C6.057 17.832 6.142 17.88 6.16 17.916ZM18.556 18.944H16.889V18.388C16.889 18.081 17.138 17.832 17.445 17.832H18.531C18.821 17.832 19.08 18.043 19.109 18.331C19.142 18.662 18.881 18.944 18.556 18.944ZM19.664 20.667C19.635 20.955 19.377 21.166 19.087 21.166H17.444C17.137 21.166 16.889 20.917 16.889 20.61V20.054H19.111C19.436 20.054 19.697 20.336 19.664 20.667ZM18 14.5C15.239 14.5 13 16.739 13 19.5C13 22.261 15.239 24.5 18 24.5C20.761 24.5 23 22.261 23 19.5C23 16.739 20.761 14.5 18 14.5ZM19.067 22.278H17.555C16.573 22.278 15.777 21.482 15.777 20.5V18.5C15.777 17.518 16.573 16.722 17.66 16.722H18.508C19.419 16.722 20.197 17.433 20.221 18.344C20.229 18.658 20.15 18.953 20.007 19.207C20.505 19.526 20.824 20.103 20.772 20.748C20.702 21.621 19.942 22.278 19.067 22.278Z" fill="#E50914"/>
</g>
<defs>
<clipPath id="clip0_18618_3404">
<rect width="24" height="24" fill="white" transform="translate(0 0.5)"/>
</clipPath>
</defs>
</svg>
