<svg width="40" height="40" viewBox="0 0 40 40" fill="none" xmlns="http://www.w3.org/2000/svg">
<rect y="0.974609" width="40" height="38.6667" rx="19.3333" fill="#FFEEEE"/>
<path d="M24.6667 12.9746H15.3333C14.4496 12.9757 13.6024 13.3272 12.9775 13.9521C12.3526 14.577 12.0011 15.4242 12 16.3079V24.3079C12.0011 25.1917 12.3526 26.0389 12.9775 26.6638C13.6024 27.2887 14.4496 27.6402 15.3333 27.6413H24.6667C25.5504 27.6402 26.3976 27.2887 27.0225 26.6638C27.6474 26.0389 27.9989 25.1917 28 24.3079V16.3079C27.9989 15.4242 27.6474 14.577 27.0225 13.9521C26.3976 13.3272 25.5504 12.9757 24.6667 12.9746ZM15.3333 14.3079H24.6667C25.0659 14.3087 25.4557 14.429 25.786 14.6531C26.1163 14.8773 26.3719 15.1952 26.52 15.5659L21.4147 20.6719C21.039 21.0462 20.5303 21.2563 20 21.2563C19.4697 21.2563 18.961 21.0462 18.5853 20.6719L13.48 15.5659C13.6281 15.1952 13.8837 14.8773 14.214 14.6531C14.5443 14.429 14.9341 14.3087 15.3333 14.3079ZM24.6667 26.3079H15.3333C14.8029 26.3079 14.2942 26.0972 13.9191 25.7222C13.544 25.3471 13.3333 24.8384 13.3333 24.3079V17.3079L17.6427 21.6146C18.2684 22.2388 19.1162 22.5893 20 22.5893C20.8838 22.5893 21.7316 22.2388 22.3573 21.6146L26.6667 17.3079V24.3079C26.6667 24.8384 26.456 25.3471 26.0809 25.7222C25.7058 26.0972 25.1971 26.3079 24.6667 26.3079Z" fill="#E50914"/>
</svg>
