<svg width="40" height="40" viewBox="0 0 40 40" fill="none" xmlns="http://www.w3.org/2000/svg">
<rect width="39.9739" height="39.9737" rx="19.9869" fill="#FFEEEE"/>
<path d="M20.6406 12.6677C20.6406 12.4909 20.7109 12.3214 20.8359 12.1963C20.9609 12.0713 21.1305 12.0011 21.3073 12.0011C23.0748 12.003 24.7694 12.706 26.0192 13.9558C27.269 15.2057 27.972 16.9002 27.9739 18.6677C27.9739 18.8445 27.9037 19.0141 27.7787 19.1391C27.6537 19.2642 27.4841 19.3344 27.3073 19.3344C27.1305 19.3344 26.9609 19.2642 26.8359 19.1391C26.7109 19.0141 26.6406 18.8445 26.6406 18.6677C26.639 17.2537 26.0766 15.8981 25.0768 14.8982C24.0769 13.8984 22.7213 13.336 21.3073 13.3344C21.1305 13.3344 20.9609 13.2642 20.8359 13.1391C20.7109 13.0141 20.6406 12.8445 20.6406 12.6677ZM21.3073 16.0011C22.0145 16.0011 22.6928 16.282 23.1929 16.7821C23.693 17.2822 23.9739 17.9605 23.9739 18.6677C23.9739 18.8445 24.0442 19.0141 24.1692 19.1391C24.2942 19.2642 24.4638 19.3344 24.6406 19.3344C24.8174 19.3344 24.987 19.2642 25.112 19.1391C25.237 19.0141 25.3073 18.8445 25.3073 18.6677C25.3062 17.6072 24.8845 16.5904 24.1345 15.8405C23.3846 15.0906 22.3678 14.6688 21.3073 14.6677C21.1305 14.6677 20.9609 14.738 20.8359 14.863C20.7109 14.988 20.6406 15.1576 20.6406 15.3344C20.6406 15.5112 20.7109 15.6808 20.8359 15.8058C20.9609 15.9308 21.1305 16.0011 21.3073 16.0011ZM27.3693 23.1604C27.7556 23.5478 27.9726 24.0726 27.9726 24.6197C27.9726 25.1669 27.7556 25.6917 27.3693 26.0791L26.7626 26.7784C21.3026 32.0057 8.01595 18.7224 13.1626 13.2451L13.9293 12.5784C14.3171 12.2028 14.8372 11.9951 15.3771 12.0001C15.9169 12.0051 16.4331 12.2224 16.8139 12.6051C16.8346 12.6257 18.0699 14.2304 18.0699 14.2304C18.4365 14.6155 18.6406 15.127 18.6397 15.6587C18.6388 16.1903 18.4331 16.7012 18.0653 17.0851L17.2933 18.0557C17.7205 19.0938 18.3487 20.0372 19.1416 20.8318C19.9346 21.6264 20.8767 22.2564 21.9139 22.6857L22.8906 21.9091C23.2746 21.5415 23.7853 21.3361 24.3168 21.3353C24.8483 21.3346 25.3596 21.5386 25.7446 21.9051C25.7446 21.9051 27.3486 23.1397 27.3693 23.1604ZM26.4519 24.1297C26.4519 24.1297 24.8566 22.9024 24.8359 22.8817C24.6986 22.7456 24.513 22.6691 24.3196 22.6691C24.1262 22.6691 23.9406 22.7456 23.8033 22.8817C23.7853 22.9004 22.4406 23.9717 22.4406 23.9717C22.35 24.0439 22.2422 24.0911 22.1277 24.1089C22.0133 24.1267 21.8962 24.1143 21.7879 24.0731C20.4443 23.5728 19.2238 22.7896 18.2092 21.7765C17.1946 20.7633 16.4096 19.544 15.9073 18.2011C15.8627 18.0914 15.8482 17.9718 15.8652 17.8546C15.8822 17.7375 15.9301 17.6269 16.0039 17.5344C16.0039 17.5344 17.0753 16.1891 17.0933 16.1717C17.2295 16.0344 17.3059 15.8488 17.3059 15.6554C17.3059 15.462 17.2295 15.2764 17.0933 15.1391C17.0726 15.1191 15.8453 13.5224 15.8453 13.5224C15.7059 13.3974 15.524 13.3305 15.3368 13.3353C15.1496 13.3401 14.9714 13.4164 14.8386 13.5484L14.0719 14.2151C10.3106 18.7377 21.8246 29.6131 25.7879 25.8677L26.3953 25.1677C26.5376 25.0359 26.6231 24.8539 26.6337 24.6602C26.6442 24.4665 26.5791 24.2763 26.4519 24.1297Z" fill="#E50914"/>
</svg>
