<svg width="39" height="40" viewBox="0 0 39 40" fill="none" xmlns="http://www.w3.org/2000/svg">
<rect y="0.140625" width="38.4993" height="39" rx="19.2496" fill="#FFEEEE"/>
<path fill-rule="evenodd" clip-rule="evenodd" d="M14.8502 19.6406H14.6498C13.9557 19.6406 13.3643 20.121 13.1921 20.7876L12.0501 25.2076C11.803 26.1641 12.4982 27.1406 13.5078 27.1406H24.9915C26.0011 27.1406 26.6963 26.1641 26.4492 25.2076L25.3072 20.7876C25.135 20.121 24.5436 19.6406 23.8495 19.6406H23.6491C24.012 18.8558 24.2496 18.0155 24.2496 17.1585C24.2496 14.3891 22.0129 12.1406 19.2496 12.1406C16.4864 12.1406 14.2496 14.3891 14.2496 17.1585C14.2496 18.0155 14.4872 18.8558 14.8502 19.6406ZM15.2496 17.1585C15.2496 14.9376 17.0424 13.1406 19.2496 13.1406C21.4569 13.1406 23.2496 14.9376 23.2496 17.1585C23.2496 18.7284 22.232 20.3547 21.1209 21.6439C20.5758 22.2764 20.0292 22.8038 19.6184 23.1732C19.4771 23.3003 19.3523 23.4083 19.2496 23.4951C19.147 23.4083 19.0222 23.3003 18.8809 23.1732C18.4701 22.8038 17.9235 22.2764 17.3784 21.6439C16.2673 20.3547 15.2496 18.7284 15.2496 17.1585ZM18.9443 24.5365C18.8745 24.4826 18.8061 24.4269 18.7381 24.3708C18.6102 24.2653 18.429 24.1117 18.2122 23.9167C17.7792 23.5273 17.2008 22.9695 16.6209 22.2967C16.202 21.8106 15.7704 21.251 15.3922 20.6406H14.6498C14.4309 20.6406 14.2233 20.7938 14.1603 21.0377L13.0183 25.4577C12.9243 25.8217 13.1933 26.1406 13.5078 26.1406H24.9915C25.306 26.1406 25.575 25.8217 25.481 25.4577L24.339 21.0377C24.276 20.7938 24.0684 20.6406 23.8495 20.6406H23.1071C22.7289 21.251 22.2973 21.8106 21.8784 22.2967C21.2985 22.9695 20.7201 23.5273 20.2871 23.9167C20.0703 24.1117 19.889 24.2653 19.7612 24.3708C19.6929 24.4271 19.6244 24.483 19.5544 24.537C19.3776 24.673 19.1209 24.6722 18.9443 24.5365Z" fill="#E50914"/>
<path fill-rule="evenodd" clip-rule="evenodd" d="M19.25 15.1406C18.1454 15.1406 17.25 16.036 17.25 17.1406C17.25 18.2452 18.1454 19.1406 19.25 19.1406C20.3546 19.1406 21.25 18.2452 21.25 17.1406C21.25 16.036 20.3546 15.1406 19.25 15.1406ZM18.25 17.1406C18.25 16.5884 18.6977 16.1406 19.25 16.1406C19.8023 16.1406 20.25 16.5884 20.25 17.1406C20.25 17.6929 19.8023 18.1406 19.25 18.1406C18.6977 18.1406 18.25 17.6929 18.25 17.1406Z" fill="#FA1228"/>
</svg>
