<svg width="16" height="16" viewBox="0 0 16 16" fill="none" xmlns="http://www.w3.org/2000/svg">
<path d="M16 4.99967V11.2357C16 12.1297 15.6747 12.991 15.0833 13.661C14.7173 14.0757 14.0867 14.115 13.672 13.7497C13.258 13.3843 13.218 12.7523 13.5833 12.3383C13.852 12.0337 14 11.6423 14 11.2363V4.99967C14 4.08101 13.2527 3.33301 12.3333 3.33301H3.66667C2.74733 3.33301 2 4.08101 2 4.99967V10.9997C2 11.9183 2.74733 12.6663 3.66667 12.6663H5.66667C6.21867 12.6663 6.66667 13.1137 6.66667 13.6663C6.66667 14.219 6.21867 14.6663 5.66667 14.6663H3.66667C1.64533 14.6663 0 13.0217 0 10.9997V4.99967C0 2.97767 1.64533 1.33301 3.66667 1.33301H12.3333C14.3547 1.33301 16 2.97767 16 4.99967ZM12.6667 5.66634C12.6667 5.11367 12.2187 4.66634 11.6667 4.66634H4.33333C3.78133 4.66634 3.33333 5.11367 3.33333 5.66634C3.33333 6.21901 3.78133 6.66634 4.33333 6.66634H11.6667C12.2187 6.66634 12.6667 6.21901 12.6667 5.66634ZM13 10.9997C13 12.0377 12.47 12.953 11.6667 13.4917V15.5643C11.6667 15.9797 11.1393 16.1577 10.8873 15.8277L10 14.6657L9.11267 15.8277C8.86067 16.1577 8.33333 15.9797 8.33333 15.5643V13.4917C7.53 12.953 7 12.037 7 10.9997C7 9.34567 8.346 7.99967 10 7.99967C11.654 7.99967 13 9.34567 13 10.9997ZM9 10.9997C9 11.551 9.44867 11.9997 10 11.9997C10.5513 11.9997 11 11.551 11 10.9997C11 10.4483 10.5513 9.99967 10 9.99967C9.44867 9.99967 9 10.4483 9 10.9997ZM4.33333 7.99967C3.78133 7.99967 3.33333 8.44701 3.33333 8.99967C3.33333 9.55234 3.78133 9.99967 4.33333 9.99967H5C5.552 9.99967 6 9.55234 6 8.99967C6 8.44701 5.552 7.99967 5 7.99967H4.33333Z" fill="url(#paint0_linear_21815_51)"/>
<defs>
<linearGradient id="paint0_linear_21815_51" x1="0" y1="15.9992" x2="16" y2="15.9992" gradientUnits="userSpaceOnUse">
<stop stop-color="#FF8A00"/>
<stop offset="1" stop-color="#E50914"/>
</linearGradient>
</defs>
</svg>
