<svg width="24" height="25" viewBox="0 0 24 25" fill="none" xmlns="http://www.w3.org/2000/svg">
<g clip-path="url(#clip0_21826_612)">
<path d="M20.359 15L20.124 14.946C19.6109 13.7857 18.7308 12.8261 17.6191 12.2149C16.5074 11.6037 15.2256 11.3746 13.971 11.563C12.6544 11.7729 11.4533 12.4386 10.5775 13.4439C9.70162 14.4491 9.20666 15.73 9.179 17.063C9.17657 17.266 9.18928 17.4689 9.217 17.67C8.52371 17.948 7.93629 18.4384 7.53902 19.0709C7.14175 19.7035 6.95504 20.4456 7.00568 21.1908C7.05632 21.936 7.34172 22.646 7.82091 23.219C8.30011 23.7919 8.94848 24.1984 9.673 24.38C9.96371 24.4543 10.262 24.4949 10.562 24.501H19.179C19.5267 24.4946 19.8728 24.4527 20.212 24.376C21.2721 24.1432 22.2225 23.5593 22.9092 22.7189C23.596 21.8785 23.9789 20.8309 23.9959 19.7457C24.0129 18.6605 23.6631 17.6013 23.003 16.7398C22.3429 15.8783 21.4112 15.2649 20.359 14.999V15ZM20.943 20.117C20.8571 20.4448 20.6824 20.7426 20.4383 20.9776C20.1941 21.2126 19.8899 21.3757 19.559 21.449C19.4251 21.48 19.2884 21.4977 19.151 21.502H10.605C10.5419 21.5007 10.4791 21.4919 10.418 21.476C10.3249 21.4508 10.2396 21.4027 10.1697 21.3362C10.0999 21.2697 10.0477 21.1868 10.018 21.095C9.93 20.769 10.269 20.461 10.536 20.372C11.1098 20.1676 11.5933 19.7679 11.902 19.2428C12.2106 18.7177 12.3246 18.1007 12.224 17.5C12.1977 17.3756 12.1826 17.2491 12.179 17.122C12.1826 16.9197 12.2091 16.7184 12.258 16.522C12.3739 16.0142 12.6393 15.5527 13.0201 15.1973C13.4008 14.8419 13.8794 14.6087 14.394 14.528C15.0012 14.4339 15.6224 14.5421 16.1621 14.8359C16.7017 15.1297 17.1296 15.5929 17.38 16.154C17.5706 16.6101 17.8745 17.0099 18.2631 17.3155C18.6516 17.6211 19.1118 17.8223 19.6 17.9C20.0715 18.0162 20.4776 18.3146 20.7294 18.7299C20.9812 19.1451 21.058 19.6432 20.943 20.115V20.117ZM7.378 14.242L4.9 16.717C4.61404 16.9707 4.24203 17.1056 3.85995 17.0942C3.47788 17.0828 3.11456 16.926 2.8442 16.6558C2.57385 16.3855 2.41686 16.0223 2.4053 15.6402C2.39374 15.2582 2.52848 14.8861 2.782 14.6L4.329 13.052C4.04454 12.5674 3.8304 12.0449 3.693 11.5H1.5C1.10218 11.5 0.720644 11.342 0.43934 11.0607C0.158035 10.7794 0 10.3978 0 10C0 9.60218 0.158035 9.22064 0.43934 8.93934C0.720644 8.65804 1.10218 8.5 1.5 8.5H3.7C3.84025 7.95863 4.05568 7.43958 4.34 6.958L2.782 5.4C2.52848 5.11392 2.39374 4.74185 2.4053 4.35978C2.41686 3.9777 2.57385 3.61446 2.8442 3.34423C3.11456 3.07401 3.47788 2.91719 3.85995 2.90581C4.24203 2.89443 4.61404 3.02934 4.9 3.283L6.458 4.837C6.93974 4.55373 7.45878 4.33931 8 4.2V2C8 1.60218 8.15804 1.22064 8.43934 0.93934C8.72064 0.658035 9.10218 0.5 9.5 0.5C9.89782 0.5 10.2794 0.658035 10.5607 0.93934C10.842 1.22064 11 1.60218 11 2V4.2C11.5428 4.338 12.0633 4.55212 12.546 4.836L14.1 3.283C14.386 3.02934 14.758 2.89443 15.14 2.90581C15.5221 2.91719 15.8854 3.07401 16.1558 3.34423C16.4262 3.61446 16.5831 3.9777 16.5947 4.35978C16.6063 4.74185 16.4715 5.11392 16.218 5.4L14.659 6.962C14.731 7.086 14.812 7.203 14.876 7.333C15.0529 7.68945 15.081 8.10158 14.954 8.47871C14.827 8.85585 14.5555 9.1671 14.199 9.344C13.8425 9.5209 13.4304 9.54895 13.0533 9.42199C12.6762 9.29503 12.3649 9.02345 12.188 8.667C9.938 4.635 4.279 8.702 7.379 12.122C7.65977 12.4034 7.81737 12.7847 7.81718 13.1822C7.81699 13.5797 7.65903 13.9609 7.378 14.242Z" fill="#AFAFAF"/>
</g>
<defs>
<clipPath id="clip0_21826_612">
<rect width="24" height="24" fill="white" transform="translate(0 0.5)"/>
</clipPath>
</defs>
</svg>
