<svg width="36" height="37" viewBox="0 0 36 37" fill="none" xmlns="http://www.w3.org/2000/svg">
<g clip-path="url(#clip0_21877_2458)">
<path d="M26.7701 12.5447C24.6937 10.286 22.9016 8.26391 22.9016 5.20904C22.9016 3.47148 23.2476 1.78644 23.2507 1.76998C23.3156 1.45892 23.2374 1.13555 23.0365 0.889391C22.8367 0.643156 22.536 0.5 22.2188 0.5C20.4338 0.5 15.3385 1.82145 15.3385 7.69227C15.3385 11.4444 14.5784 12.6704 14.2509 12.9938C14.0665 13.1771 13.8203 13.2801 13.6205 13.2502C12.6493 13.2389 12.4659 11.8484 12.4597 11.7958C12.4206 11.4374 12.2002 11.1233 11.8757 10.9647C11.5513 10.804 11.1712 10.8215 10.8612 11.011C6.74655 13.5253 4.28906 17.9016 4.28906 22.7188C4.28906 30.2787 10.44 36.5 18 36.5C25.56 36.5 31.7109 30.2787 31.7109 22.7188C31.7109 17.9243 29.0855 15.0661 26.7701 12.5447Z" fill="url(#paint0_linear_21877_2458)"/>
<path d="M16.9453 20.6094C16.9453 18.8646 15.526 17.4453 13.7812 17.4453C12.0365 17.4453 10.6172 18.8646 10.6172 20.6094C10.6172 22.3541 12.0365 23.7734 13.7812 23.7734C15.526 23.7734 16.9453 22.3541 16.9453 20.6094ZM12.7266 20.6094C12.7266 20.0275 13.1993 19.5547 13.7812 19.5547C14.3632 19.5547 14.8359 20.0275 14.8359 20.6094C14.8359 21.1913 14.3632 21.6641 13.7812 21.6641C13.1993 21.6641 12.7266 21.1913 12.7266 20.6094ZM22.2188 23.7734C20.474 23.7734 19.0547 25.1928 19.0547 26.9375C19.0547 28.6822 20.474 30.1016 22.2188 30.1016C23.9635 30.1016 25.3828 28.6822 25.3828 26.9375C25.3828 25.1928 23.9636 23.7734 22.2188 23.7734ZM22.2188 27.9922C21.6368 27.9922 21.1641 27.5194 21.1641 26.9375C21.1641 26.3556 21.6368 25.8828 22.2188 25.8828C22.8007 25.8828 23.2734 26.3556 23.2734 26.9375C23.2734 27.5194 22.8007 27.9922 22.2188 27.9922ZM22.8779 17.676C22.4227 17.3135 21.7604 17.3897 21.3948 17.8408L12.9573 28.3877C12.5937 28.843 12.6679 29.5062 13.1221 29.8709C13.5754 30.233 14.2381 30.1618 14.6052 29.7061L23.0427 19.1592C23.4063 18.7039 23.3321 18.0406 22.8779 17.676Z" fill="url(#paint1_linear_21877_2458)"/>
</g>
<defs>
<linearGradient id="paint0_linear_21877_2458" x1="4.28906" y1="36.5" x2="31.7109" y2="36.5" gradientUnits="userSpaceOnUse">
<stop stop-color="#FF8A00"/>
<stop offset="1" stop-color="#E50914"/>
</linearGradient>
<linearGradient id="paint1_linear_21877_2458" x1="18" y1="30.1016" x2="18" y2="17.4453" gradientUnits="userSpaceOnUse">
<stop stop-color="#FFE59A"/>
<stop offset="1" stop-color="#FFFFD5"/>
</linearGradient>
<clipPath id="clip0_21877_2458">
<rect width="36" height="36" fill="white" transform="translate(0 0.5)"/>
</clipPath>
</defs>
</svg>
