<svg width="25" height="24" viewBox="0 0 25 24" fill="none" xmlns="http://www.w3.org/2000/svg">
<g clip-path="url(#clip0_20752_521)">
<path d="M2.37518 18C2.37518 16.895 3.27018 16 4.37518 16C5.48018 16 6.37518 16.895 6.37518 18C6.37518 19.105 5.48018 20 4.37518 20C3.27018 20 2.37518 19.105 2.37518 18ZM12.8752 16C11.7702 16 10.8752 16.895 10.8752 18C10.8752 19.105 11.7702 20 12.8752 20C13.9802 20 14.8752 19.105 14.8752 18C14.8752 16.895 13.9802 16 12.8752 16ZM12.8752 4C13.9802 4 14.8752 3.105 14.8752 2C14.8752 0.895 13.9802 0 12.8752 0C11.7702 0 10.8752 0.895 10.8752 2C10.8752 3.105 11.7702 4 12.8752 4ZM21.3752 16C20.2702 16 19.3752 16.895 19.3752 18C19.3752 19.105 20.2702 20 21.3752 20C22.4802 20 23.3752 19.105 23.3752 18C23.3752 16.895 22.4802 16 21.3752 16ZM4.37518 15C5.20418 15 5.87518 14.328 5.87518 13.5C5.87518 12.672 6.54818 12 7.37518 12H11.3752V13.5C11.3752 14.328 12.0462 15 12.8752 15C13.7042 15 14.3752 14.328 14.3752 13.5V12H18.3752C19.2022 12 19.8752 12.673 19.8752 13.5C19.8752 14.327 20.5462 15 21.3752 15C22.2042 15 22.8752 14.328 22.8752 13.5C22.8752 11.019 20.8562 9 18.3752 9H7.37518C4.89418 9 2.87518 11.019 2.87518 13.5C2.87518 14.328 3.54618 15 4.37518 15ZM24.8442 23.315C24.3322 21.967 22.9782 21 21.3752 21C19.7722 21 18.4182 21.966 17.9062 23.315C17.7792 23.648 18.0572 24 18.4312 24H24.3182C24.6932 24 24.9712 23.648 24.8442 23.315ZM4.37518 21C2.77218 21 1.41818 21.966 0.906181 23.315C0.779181 23.648 1.05718 24 1.43118 24H7.31818C7.69318 24 7.97018 23.648 7.84318 23.315C7.33118 21.967 5.97818 21 4.37518 21ZM12.8752 21C11.2722 21 9.91818 21.966 9.40618 23.315C9.27918 23.648 9.55718 24 9.93118 24H15.8182C16.1932 24 16.4702 23.648 16.3432 23.315C15.8312 21.967 14.4772 21 12.8742 21H12.8752ZM9.93118 8H15.8182C16.1932 8 16.4702 7.648 16.3432 7.315C15.8312 5.967 14.4772 5 12.8742 5C11.2712 5 9.91718 5.966 9.40518 7.315C9.27818 7.648 9.55718 8 9.93118 8Z" fill="url(#paint0_linear_20752_521)"/>
</g>
<defs>
<linearGradient id="paint0_linear_20752_521" x1="0.875" y1="24" x2="24.8744" y2="24" gradientUnits="userSpaceOnUse">
<stop stop-color="#FF8A00"/>
<stop offset="1" stop-color="#E50914"/>
</linearGradient>
<clipPath id="clip0_20752_521">
<rect width="24" height="24" fill="white" transform="translate(0.875)"/>
</clipPath>
</defs>
</svg>
