<svg width="56" height="56" viewBox="0 0 56 56" fill="none" xmlns="http://www.w3.org/2000/svg">
<g clip-path="url(#clip0_11466_117)">
<rect width="56" height="56" rx="10" fill="white"/>
<path d="M56 0H0V56H56V0Z" fill="white"/>
<path d="M27.5 10C24.0388 10 20.6554 11.0264 17.7775 12.9493C14.8997 14.8722 12.6566 17.6053 11.3321 20.803C10.0076 24.0007 9.66102 27.5194 10.3363 30.9141C11.0115 34.3087 12.6782 37.427 15.1256 39.8744C17.5731 42.3218 20.6913 43.9885 24.0859 44.6637C27.4806 45.339 30.9993 44.9924 34.197 43.6679C37.3947 42.3434 40.1278 40.1003 42.0507 37.2225C43.9736 34.3446 45 30.9612 45 27.5C44.995 22.8603 43.1496 18.412 39.8688 15.1312C36.588 11.8504 32.1398 10.005 27.5 10ZM42.0833 27.5C42.0851 30.3579 41.2418 33.1525 39.6596 35.5325L37.9213 33.7927C37.7849 33.6561 37.7084 33.4709 37.7083 33.2779V31.875C37.7083 30.7147 37.2474 29.6019 36.4269 28.7814C35.6065 27.9609 34.4937 27.5 33.3333 27.5H28.9583C28.5716 27.5 28.2006 27.3464 27.9271 27.0729C27.6537 26.7994 27.5 26.4284 27.5 26.0417V25.3125C27.5 25.1191 27.5768 24.9336 27.7136 24.7969C27.8503 24.6602 28.0358 24.5833 28.2292 24.5833C29.1961 24.5833 30.1234 24.1992 30.8072 23.5155C31.4909 22.8318 31.875 21.9044 31.875 20.9375V19.4792C31.875 19.2858 31.9518 19.1003 32.0886 18.9636C32.2253 18.8268 32.4108 18.75 32.6042 18.75H34.6152C35.5812 18.7473 36.5071 18.3637 37.1921 17.6825L37.7419 17.1327C39.1174 18.4862 40.2096 20.0999 40.955 21.8798C41.7004 23.6598 42.084 25.5703 42.0833 27.5ZM12.9881 28.9044L17.5935 33.5098C17.9988 33.9177 18.4811 34.241 19.0123 34.4611C19.5435 34.6811 20.1131 34.7935 20.6881 34.7917H24.5833C24.9701 34.7917 25.341 34.9453 25.6145 35.2188C25.888 35.4923 26.0417 35.8632 26.0417 36.25V42.009C22.6878 41.6666 19.5556 40.1746 17.1764 37.7861C14.7971 35.3976 13.3174 32.2596 12.9881 28.9044ZM28.9583 42.009V36.25C28.9583 35.0897 28.4974 33.9769 27.6769 33.1564C26.8565 32.3359 25.7437 31.875 24.5833 31.875H20.6881C20.4964 31.8752 20.3065 31.8375 20.1293 31.7642C19.9522 31.6908 19.7912 31.5833 19.6556 31.4477L13.1544 24.9465C13.5717 22.574 14.5715 20.3423 16.064 18.4516C17.5565 16.5608 19.4951 15.0702 21.7057 14.1134C23.9164 13.1566 26.33 12.7636 28.7301 12.9696C31.1301 13.1756 33.4414 13.9742 35.4567 15.2938L35.13 15.6204C34.9927 15.7558 34.808 15.8322 34.6152 15.8333H32.6042C31.6372 15.8333 30.7099 16.2174 30.0262 16.9012C29.3425 17.5849 28.9583 18.5122 28.9583 19.4792V20.9375C28.9583 21.1309 28.8815 21.3164 28.7448 21.4531C28.608 21.5898 28.4226 21.6667 28.2292 21.6667C27.2622 21.6667 26.3349 22.0508 25.6512 22.7345C24.9675 23.4182 24.5833 24.3456 24.5833 25.3125V26.0417C24.5833 27.202 25.0443 28.3148 25.8647 29.1353C26.6852 29.9557 27.798 30.4167 28.9583 30.4167H33.3333C33.7201 30.4167 34.091 30.5703 34.3645 30.8438C34.638 31.1173 34.7917 31.4882 34.7917 31.875V33.2779C34.7944 34.2439 35.178 35.1698 35.8592 35.8548L37.809 37.8046C35.434 40.1878 32.3061 41.6736 28.9583 42.009Z" fill="#E50914"/>
</g>
<defs>
<clipPath id="clip0_11466_117">
<rect width="56" height="56" rx="10" fill="white"/>
</clipPath>
</defs>
</svg>
