<svg width="56" height="56" viewBox="0 0 56 56" fill="none" xmlns="http://www.w3.org/2000/svg">
<g clip-path="url(#clip0_11466_108)">
<rect width="56" height="56" rx="10" fill="white"/>
<path d="M56 0H0V56H56V0Z" fill="white"/>
<path d="M43.9979 19.1953C43.0646 18.6594 41.9417 18.69 40.9354 19.3484L33.8333 24.9375V21.875C33.8333 20.7572 33.25 19.7312 32.3313 19.1953C31.3979 18.6594 30.2604 18.69 29.2688 19.3484L22.1667 24.9375V12.6875C22.9688 12.6875 23.625 11.9984 23.625 11.1562C23.625 10.3141 22.9688 9.625 22.1667 9.625H11.9583C11.1562 9.625 10.5 10.3141 10.5 11.1562C10.5 11.9984 11.1562 12.6875 11.9583 12.6875V38.7188C11.9583 42.945 15.225 46.375 19.25 46.375H38.2083C42.2333 46.375 45.5 42.945 45.5 38.7188V21.875C45.5 20.7572 44.9167 19.7312 43.9979 19.1953ZM42.5833 38.7188C42.5833 41.2453 40.6146 43.3125 38.2083 43.3125H19.25C16.8438 43.3125 14.875 41.2453 14.875 38.7188V12.6875H19.25V37.1875C19.25 38.0297 19.9062 38.7188 20.7083 38.7188C21.5104 38.7188 22.1667 38.0297 22.1667 37.1875V28.7656L30.9167 21.875V28C30.9167 28.5819 31.2229 29.1178 31.7188 29.3781C32.2146 29.6384 32.7979 29.5772 33.25 29.2403L42.5833 21.8903V38.7341V38.7188ZM30.9167 35.6562V37.1875C30.9167 38.0297 30.2604 38.7188 29.4583 38.7188H28C27.1979 38.7188 26.5417 38.0297 26.5417 37.1875V35.6562C26.5417 34.8141 27.1979 34.125 28 34.125H29.4583C30.2604 34.125 30.9167 34.8141 30.9167 35.6562ZM33.8333 37.1875V35.6562C33.8333 34.8141 34.4896 34.125 35.2917 34.125H36.75C37.5521 34.125 38.2083 34.8141 38.2083 35.6562V37.1875C38.2083 38.0297 37.5521 38.7188 36.75 38.7188H35.2917C34.4896 38.7188 33.8333 38.0297 33.8333 37.1875Z" fill="#E50914"/>
</g>
<defs>
<clipPath id="clip0_11466_108">
<rect width="56" height="56" rx="10" fill="white"/>
</clipPath>
</defs>
</svg>
