<svg width="56" height="56" viewBox="0 0 56 56" fill="none" xmlns="http://www.w3.org/2000/svg">
<g clip-path="url(#clip0_11466_99)">
<rect width="56" height="56" rx="10" fill="white"/>
<path d="M56 0H0V56H56V0Z" fill="white"/>
<path d="M28 26C32.42 26 36 22.6438 36 18.5C36 14.3562 32.42 11 28 11C23.58 11 20 14.3562 20 18.5C20 22.6438 23.58 25.9906 28 26ZM28 14C30.65 14 32.8 16.0156 32.8 18.5C32.8 20.9844 30.65 23 28 23C25.35 23 23.2 20.9844 23.2 18.5C23.2 16.0156 25.35 14 28 14Z" fill="#E50914"/>
<path d="M31 28H25C18.3719 28 13.0094 33.5347 13 40.3636V43.4545C13 44.3045 13.675 45 14.5 45H41.5C42.325 45 43 44.3045 43 43.4545V40.3636C43 33.5347 37.6281 28.0097 31 28ZM28.4219 31.0909L30.7844 38.4028L28 41.2716L25.2156 38.4028L27.5781 31.0909H28.4219ZM16 40.3636C16 35.4858 19.6844 31.4483 24.4094 31.1199L22.075 38.3256C21.8969 38.8858 22.0375 39.4943 22.4406 39.9097L24.3812 41.9091H16V40.3636ZM40 41.9091H31.6188L33.5594 39.9097C33.9625 39.4943 34.1031 38.8858 33.925 38.3256L31.5906 31.1199C36.3156 31.4386 39.9906 35.4858 40 40.3636V41.9091Z" fill="#E50914"/>
</g>
<defs>
<clipPath id="clip0_11466_99">
<rect width="56" height="56" rx="10" fill="white"/>
</clipPath>
</defs>
</svg>
