<svg width="45" height="45" viewBox="0 0 45 45" fill="none" xmlns="http://www.w3.org/2000/svg">
<rect width="45" height="45" rx="5" fill="#027055"/>
<path d="M30.5352 31.1846H33.475C34.1941 31.1846 34.7541 31.3659 35.155 31.7286C35.5558 32.085 35.7563 32.5877 35.7563 33.2368C35.7563 33.8858 35.5558 34.3917 35.155 34.7544C34.7541 35.1171 34.1941 35.2985 33.475 35.2985H31.7665V37.9138H30.5352V31.1846ZM33.3223 34.3535C34.1686 34.3535 34.5918 33.9844 34.5918 33.2463C34.5918 32.8709 34.4868 32.5941 34.2768 32.4159C34.0668 32.2313 33.7487 32.1391 33.3223 32.1391H31.7665V34.3535H33.3223Z" fill="white"/>
<path d="M26.733 37.9997C26.2175 37.9997 25.7339 37.9297 25.2821 37.7897C24.8303 37.6497 24.4485 37.4524 24.1367 37.1979L24.5472 36.3007C24.8717 36.5488 25.2121 36.7302 25.5685 36.8447C25.9312 36.9593 26.3225 37.0166 26.7425 37.0166C27.207 37.0166 27.5634 36.937 27.8116 36.7779C28.0661 36.6125 28.1934 36.3834 28.1934 36.0907C28.1934 35.8362 28.0756 35.6421 27.8402 35.5084C27.6111 35.3748 27.2261 35.2475 26.6852 35.1266C26.1253 35.0057 25.6703 34.8657 25.3203 34.7067C24.9703 34.5476 24.7062 34.3439 24.5281 34.0958C24.3499 33.8476 24.2608 33.5326 24.2608 33.1508C24.2608 32.7563 24.369 32.4031 24.5853 32.0913C24.8017 31.7795 25.1071 31.5377 25.5017 31.3659C25.8962 31.1877 26.3512 31.0986 26.8666 31.0986C27.3375 31.0986 27.7861 31.1718 28.2125 31.3182C28.6388 31.4582 28.9888 31.6522 29.2624 31.9004L28.852 32.7976C28.2538 32.3204 27.592 32.0818 26.8666 32.0818C26.4339 32.0818 26.0903 32.1709 25.8357 32.349C25.5876 32.5208 25.4635 32.7627 25.4635 33.0745C25.4635 33.3354 25.5748 33.5358 25.7976 33.6758C26.0203 33.8158 26.3989 33.9462 26.9334 34.0671C27.4998 34.1944 27.9579 34.3376 28.3079 34.4967C28.6642 34.6494 28.9347 34.8467 29.1192 35.0885C29.3101 35.3303 29.4056 35.6357 29.4056 36.0048C29.4056 36.4057 29.2974 36.7588 29.081 37.0643C28.8711 37.3634 28.5624 37.5956 28.1552 37.7611C27.7543 37.9202 27.2802 37.9997 26.733 37.9997Z" fill="white"/>
<path d="M20.6431 37.9997C20.1277 37.9997 19.6441 37.9297 19.1923 37.7897C18.7405 37.6497 18.3587 37.4524 18.0469 37.1979L18.4573 36.3007C18.7818 36.5488 19.1223 36.7302 19.4786 36.8447C19.8413 36.9593 20.2327 37.0166 20.6527 37.0166C21.1172 37.0166 21.4735 36.937 21.7217 36.7779C21.9762 36.6125 22.1035 36.3834 22.1035 36.0907C22.1035 35.8362 21.9858 35.6421 21.7503 35.5084C21.5213 35.3748 21.1363 35.2475 20.5954 35.1266C20.0354 35.0057 19.5804 34.8657 19.2305 34.7067C18.8805 34.5476 18.6164 34.3439 18.4382 34.0958C18.26 33.8476 18.171 33.5326 18.171 33.1508C18.171 32.7563 18.2791 32.4031 18.4955 32.0913C18.7118 31.7795 19.0173 31.5377 19.4118 31.3659C19.8063 31.1877 20.2613 31.0986 20.7768 31.0986C21.2476 31.0986 21.6963 31.1718 22.1226 31.3182C22.549 31.4582 22.8989 31.6522 23.1726 31.9004L22.7621 32.7976C22.164 32.3204 21.5022 32.0818 20.7768 32.0818C20.344 32.0818 20.0004 32.1709 19.7459 32.349C19.4977 32.5208 19.3736 32.7627 19.3736 33.0745C19.3736 33.3354 19.485 33.5358 19.7077 33.6758C19.9304 33.8158 20.309 33.9462 20.8436 34.0671C21.4099 34.1944 21.8681 34.3376 22.2181 34.4967C22.5744 34.6494 22.8448 34.8467 23.0294 35.0885C23.2203 35.3303 23.3157 35.6357 23.3157 36.0048C23.3157 36.4057 23.2076 36.7588 22.9912 37.0643C22.7812 37.3634 22.4726 37.5956 22.0653 37.7611C21.6644 37.9202 21.1904 37.9997 20.6431 37.9997Z" fill="white"/>
<path d="M15.6758 37.9138V31.1846H16.9071V37.9138H15.6758Z" fill="white"/>
<path d="M12.2644 37.9997C11.6026 37.9997 11.0235 37.8597 10.5272 37.5797C10.0372 37.2934 9.65861 36.8893 9.39135 36.3675C9.13045 35.8457 9 35.238 9 34.5444C9 33.8508 9.13045 33.2463 9.39135 32.7308C9.65861 32.209 10.0372 31.8081 10.5272 31.5282C11.0235 31.2418 11.6026 31.0986 12.2644 31.0986C12.7162 31.0986 13.1425 31.1686 13.5434 31.3086C13.9443 31.4486 14.2816 31.6459 14.5552 31.9004L14.1448 32.7976C13.8393 32.5558 13.5371 32.3809 13.238 32.2727C12.9389 32.1581 12.6208 32.1009 12.2835 32.1009C11.6344 32.1009 11.1317 32.3109 10.7754 32.7308C10.4254 33.1508 10.2504 33.7553 10.2504 34.5444C10.2504 35.3398 10.4254 35.9475 10.7754 36.3675C11.1317 36.7875 11.6344 36.9975 12.2835 36.9975C12.6208 36.9975 12.9389 36.9434 13.238 36.8352C13.5371 36.7207 13.8393 36.5425 14.1448 36.3007L14.5552 37.1979C14.2816 37.4524 13.9443 37.6497 13.5434 37.7897C13.1425 37.9297 12.7162 37.9997 12.2644 37.9997Z" fill="white"/>
</svg>
