<svg width="46" height="45" viewBox="0 0 46 45" fill="none" xmlns="http://www.w3.org/2000/svg">
<g id="corporate 1" clip-path="url(#clip0_5555_7539)">
<g id="Group">
<path id="Vector" d="M7.32574 22.1361C6.9617 22.1361 6.66656 21.8411 6.66656 21.477V18.5537C6.66656 18.1896 6.9617 17.8945 7.32574 17.8945C7.68979 17.8945 7.98492 18.1896 7.98492 18.5537V21.477C7.98492 21.841 7.68979 22.1361 7.32574 22.1361Z" fill="#62A4FB"/>
<path id="Vector_2" d="M0.5 25.9327V42.4375C0.5 42.6532 0.674902 42.8281 0.890674 42.8281H13.7608C13.9766 42.8281 14.1515 42.6532 14.1515 42.4375V25.9327C14.1515 25.7169 13.9766 25.542 13.7608 25.542H0.890674C0.674902 25.542 0.5 25.7169 0.5 25.9327Z" fill="#BED9FD"/>
<path id="Vector_3" d="M13.7608 25.542H11.2662C11.482 25.542 11.6569 25.7169 11.6569 25.9327V42.4375C11.6569 42.6532 11.482 42.8281 11.2662 42.8281H13.7608C13.9766 42.8281 14.1515 42.6532 14.1515 42.4375V25.9327C14.1515 25.7169 13.9766 25.542 13.7608 25.542Z" fill="#9EC8FC"/>
<g id="Group_2">
<path id="Vector_4" d="M9.91288 39.5273H4.73859C4.37454 39.5273 4.07941 39.2323 4.07941 38.8682C4.07941 38.504 4.37454 38.209 4.73859 38.209H9.91288C10.2769 38.209 10.5721 38.504 10.5721 38.8682C10.5721 39.2323 10.2769 39.5273 9.91288 39.5273Z" fill="#62A4FB"/>
<path id="Vector_5" d="M9.91288 34.8447H4.73859C4.37454 34.8447 4.07941 34.5497 4.07941 34.1855C4.07941 33.8214 4.37454 33.5264 4.73859 33.5264H9.91288C10.2769 33.5264 10.5721 33.8214 10.5721 34.1855C10.5721 34.5497 10.2769 34.8447 9.91288 34.8447Z" fill="#62A4FB"/>
<path id="Vector_6" d="M9.91288 30.1611H4.73859C4.37454 30.1611 4.07941 29.8661 4.07941 29.502C4.07941 29.1378 4.37454 28.8428 4.73859 28.8428H9.91288C10.2769 28.8428 10.5721 29.1378 10.5721 29.502C10.5721 29.8661 10.2769 30.1611 9.91288 30.1611Z" fill="#62A4FB"/>
</g>
<path id="Vector_7" d="M3.78174 25.5422V21.7842C3.78174 21.5145 4.00041 21.2959 4.27006 21.2959H10.3813C10.651 21.2959 10.8696 21.5146 10.8696 21.7842V25.5422H3.78174Z" fill="#9EC8FC"/>
<path id="Vector_8" d="M10.3814 21.2959H7.88678C8.15652 21.2959 8.3751 21.5146 8.3751 21.7842V25.5422H10.8697V21.7843C10.8697 21.5146 10.6511 21.2959 10.3814 21.2959Z" fill="#80B6FC"/>
<path id="Vector_9" d="M45.2032 27.7004H26.1484C25.9845 27.7004 25.8516 27.5675 25.8516 27.4036V12.6113C25.8516 12.4473 25.9845 12.3145 26.1484 12.3145H45.2032C45.3671 12.3145 45.5 12.4473 45.5 12.6113V27.4037C45.5 27.5675 45.3671 27.7004 45.2032 27.7004Z" fill="#DDEBFD"/>
<path id="Vector_10" d="M45.2032 25.8847H26.1484C25.9845 25.8847 25.8516 25.7518 25.8516 25.5879V27.4039C25.8516 27.5678 25.9845 27.7007 26.1484 27.7007H45.2032C45.3671 27.7007 45.5 27.5678 45.5 27.4039V25.5879C45.5 25.7517 45.3671 25.8847 45.2032 25.8847Z" fill="#BED9FD"/>
<path id="Vector_11" d="M32.9404 24.4399C32.5763 24.4399 32.2812 24.1449 32.2812 23.7808V22.7646C32.2812 22.4005 32.5763 22.1055 32.9404 22.1055C33.3044 22.1055 33.5995 22.4005 33.5995 22.7646V23.7808C33.5995 24.1448 33.3044 24.4399 32.9404 24.4399Z" fill="#62A4FB"/>
<path id="Vector_12" d="M35.9727 24.4399C35.6086 24.4399 35.3135 24.1449 35.3135 23.7807V21.1816C35.3135 20.8175 35.6086 20.5225 35.9727 20.5225C36.3367 20.5225 36.6318 20.8175 36.6318 21.1816V23.7807C36.6318 24.1448 36.3367 24.4399 35.9727 24.4399Z" fill="#62A4FB"/>
<path id="Vector_13" d="M39.0049 24.4393C38.6408 24.4393 38.3457 24.1442 38.3457 23.7801V19.499C38.3457 19.1349 38.6408 18.8398 39.0049 18.8398C39.3689 18.8398 39.6641 19.1349 39.6641 19.499V23.7801C39.6641 24.1441 39.3689 24.4393 39.0049 24.4393Z" fill="#62A4FB"/>
<path id="Vector_14" d="M32.9408 20.1588C32.7062 20.1588 32.479 20.0331 32.3599 19.8121C32.1874 19.4915 32.3072 19.0917 32.6279 18.9192L38.6924 15.6542C39.0129 15.4814 39.4127 15.6016 39.5853 15.9221C39.7578 16.2427 39.6379 16.6425 39.3173 16.815L33.2528 20.08C33.1534 20.1335 33.0463 20.1588 32.9408 20.1588Z" fill="#E27C48"/>
<path id="Vector_15" d="M34.0406 27.8479L32.1481 34.3494L27.5224 30.0784C27.2975 29.8708 27.0028 29.7479 26.6966 29.7476H15.5296C14.1699 29.7476 13.0676 30.8425 13.0676 32.2023V42.3528C13.0676 42.6155 13.2806 42.8284 13.5433 42.8284H26.697C26.9597 42.8284 27.1727 42.6155 27.1727 42.3528V34.2276L31.358 38.0919C32.4893 39.1364 34.3242 38.6267 34.7546 37.1483L37.1951 28.7664C37.4487 27.8953 36.9481 26.9835 36.077 26.73C35.206 26.4764 34.2941 26.9769 34.0406 27.8479Z" fill="#E27C48"/>
<path id="Vector_16" d="M25.2447 11.1123H22.2262C21.8157 11.1123 21.4165 10.9771 21.0904 10.7276L18.8981 9.04999C18.4183 8.68278 17.7255 9.02494 17.7255 9.62919V10.4029C17.7255 10.4914 17.6241 10.5415 17.5538 10.4877L15.6748 9.0499C15.195 8.68269 14.5022 9.02485 14.5022 9.6291V15.921C14.5022 18.2366 16.3793 20.1137 18.6948 20.1137H25.9996C27.6916 20.1137 29.0632 18.742 29.0632 17.0501V14.9307C29.0632 12.8219 27.3537 11.1123 25.2447 11.1123Z" fill="#785252"/>
<path id="Vector_17" d="M20.9721 30.7842L19.8133 37.0101C19.7896 37.1371 19.829 37.2677 19.9188 37.3605L21.497 38.9906C21.6537 39.1525 21.9133 39.1525 22.0701 38.9906L23.6483 37.3605C23.7381 37.2677 23.7775 37.1371 23.7538 37.0101L22.595 30.7842H20.9721Z" fill="#4980AC"/>
<path id="Vector_18" d="M19.5937 24.3884V29.8268C19.5937 30.068 19.7052 30.2956 19.8959 30.4434L21.3054 31.5364C21.5868 31.7546 21.9802 31.7546 22.2616 31.5364L23.6711 30.4434C23.8617 30.2956 23.9733 30.068 23.9733 29.8268V24.3884C23.9733 23.4507 23.2131 22.6904 22.2754 22.6904H21.2916C20.3539 22.6904 19.5937 23.4507 19.5937 24.3884Z" fill="#FFCDBE"/>
<path id="Vector_19" d="M22.2753 22.6904H21.2916C20.3539 22.6904 19.5937 23.4506 19.5937 24.3884V28.3486C20.1782 28.6251 20.8315 28.7804 21.521 28.7804H22.0459C22.7355 28.7804 23.3887 28.6251 23.9733 28.3486V24.3884C23.9733 23.4506 23.2131 22.6904 22.2753 22.6904Z" fill="#EBAE9D"/>
<path id="Vector_20" d="M13.7346 20.1145C13.7346 21.0763 14.5779 21.856 15.6182 21.856H27.9488C28.989 21.856 29.8324 21.0763 29.8324 20.1145C29.8324 19.1527 28.9891 18.373 27.9488 18.373H15.6182C14.578 18.373 13.7346 19.1527 13.7346 20.1145Z" fill="#FFCDBE"/>
<path id="Vector_21" d="M17.0078 15.281V22.469C17.0078 24.9617 19.0285 26.9823 21.5211 26.9823H22.046C24.5386 26.9823 26.5592 24.9616 26.5592 22.469V18.054C26.5592 16.3474 25.1758 14.9639 23.4691 14.9639H17.3249C17.1498 14.9639 17.0078 15.1058 17.0078 15.281Z" fill="#FFCDBE"/>
<path id="Vector_22" d="M21.8767 24.6396H21.6902C21.1063 24.6396 20.5514 24.4139 20.128 24.0039C19.8664 23.7507 19.8596 23.3334 20.1128 23.0719C20.3659 22.8102 20.7832 22.8034 21.0449 23.0567C21.2212 23.2273 21.4504 23.3214 21.6902 23.3214H21.8767C22.1166 23.3214 22.3458 23.2274 22.522 23.0567C22.7837 22.8034 23.201 22.8103 23.4541 23.0718C23.7073 23.3335 23.7006 23.7508 23.439 24.0039C23.0155 24.4138 22.4607 24.6396 21.8767 24.6396Z" fill="#E09380"/>
<path id="Vector_23" d="M17.0411 42.8286V35.4512C17.0411 35.087 16.7459 34.792 16.3819 34.792C16.0179 34.792 15.7227 35.087 15.7227 35.4512V42.8286H17.0411Z" fill="#DD552D"/>
<path id="Vector_24" d="M34.0406 27.848L33.4517 29.8711L36.6063 30.7894L37.1951 28.7664C37.4487 27.8953 36.948 26.9836 36.077 26.73C35.206 26.4764 34.2942 26.9769 34.0406 27.848Z" fill="#FFCDBE"/>
<path id="Vector_25" d="M35.6758 14.0472C38.9553 14.0472 41.6139 11.3886 41.6139 8.10905C41.6139 4.8295 38.9553 2.1709 35.6758 2.1709C32.3962 2.1709 29.7376 4.8295 29.7376 8.10905C29.7376 11.3886 32.3962 14.0472 35.6758 14.0472Z" fill="#F8E883"/>
<path id="Vector_26" d="M38.7485 3.02734C39.483 4.01559 39.9178 5.23973 39.9178 6.56564C39.9178 9.8452 37.2592 12.5038 33.9797 12.5038C32.8549 12.5038 31.8034 12.191 30.9069 11.6478C31.9891 13.104 33.7221 14.0477 35.6758 14.0477C38.9553 14.0477 41.6139 11.3891 41.6139 8.10953C41.6139 5.95463 40.4661 4.06797 38.7485 3.02734Z" fill="#F3D332"/>
<path id="Vector_27" d="M33.9797 5.84619V10.3712C33.9797 10.6685 34.3057 10.8505 34.5588 10.6946L38.2307 8.43211C38.4714 8.28375 38.4714 7.93368 38.2307 7.78541L34.5588 5.52293C34.3057 5.36692 33.9797 5.54894 33.9797 5.84619Z" fill="#DF646E"/>
</g>
</g>
<defs>
<clipPath id="clip0_5555_7539">
<rect width="45" height="45" fill="white" transform="translate(0.5)"/>
</clipPath>
</defs>
</svg>
