<svg width="45" height="45" viewBox="0 0 45 45" fill="none" xmlns="http://www.w3.org/2000/svg">
<g clip-path="url(#clip0_9028_3420)">
<path d="M44.5423 2.78493C44.2548 2.49021 43.86 2.32498 43.4483 2.32717H1.55175C1.14008 2.32498 0.745207 2.49021 0.45778 2.78493C0.163062 3.07236 -0.00216881 3.46723 2.1502e-05 3.87889V36.4651C-0.00216881 36.8768 0.163062 37.2716 0.45778 37.5591C0.745207 37.8538 1.14008 38.019 1.55175 38.0168H42.6724C43.9579 38.0168 45 36.9747 45 35.6892V3.87889C45.0022 3.46723 44.837 3.07236 44.5423 2.78493Z" fill="#F3D55B"/>
<path d="M45.0004 3.87912V35.6895C45.0005 36.3067 44.7548 36.8985 44.3176 37.3343L41.1211 34.1377V6.20671L44.5426 2.78516C44.8374 3.07258 45.0026 3.46746 45.0004 3.87912Z" fill="#F0C419"/>
<path d="M3.87933 6.20671V34.1377L0.45778 37.5593C0.163062 37.2719 -0.00216881 36.877 2.1502e-05 36.4653V3.87912C-0.00216881 3.46746 0.163062 3.07258 0.45778 2.78516L3.87933 6.20671Z" fill="#F0C419"/>
<path d="M44.3165 37.3342C43.8808 37.7714 43.2889 38.0171 42.6717 38.017H1.551C1.13933 38.0192 0.744458 37.854 0.457031 37.5592L3.87858 34.1377H41.12L44.3165 37.3342Z" fill="#F29C1F"/>
<path d="M3.87891 6.20605H41.1203V34.1371H3.87891V6.20605Z" fill="#ECF0F1"/>
<path d="M41.1203 6.20605C41.1203 6.20605 3.87891 6.20605 3.87891 34.1371V6.20605H41.1203Z" fill="white"/>
<path d="M27.9309 11.6377H17.0688C16.6403 11.6377 16.293 11.2903 16.293 10.8618C16.293 10.4333 16.6403 10.0859 17.0688 10.0859H27.9309C28.3594 10.0859 28.7068 10.4333 28.7068 10.8618C28.7068 11.2903 28.3594 11.6377 27.9309 11.6377Z" fill="#BDC3C7"/>
<path d="M20.1731 28.706H9.31102C8.88252 28.706 8.53516 28.3587 8.53516 27.9302C8.53516 27.5017 8.88252 27.1543 9.31102 27.1543H20.1731C20.6016 27.1543 20.9489 27.5017 20.9489 27.9302C20.9489 28.3587 20.6016 28.706 20.1731 28.706Z" fill="#95A5A5"/>
<path d="M30.2579 15.5166H14.7407C14.3122 15.5166 13.9648 15.1692 13.9648 14.7407C13.9648 14.3122 14.3122 13.9648 14.7407 13.9648H30.2579C30.6864 13.9648 31.0338 14.3122 31.0338 14.7407C31.0338 15.1692 30.6864 15.5166 30.2579 15.5166Z" fill="#BDC3C7"/>
<path d="M27.1563 31.3447L27.1563 41.4154C27.1544 41.6857 27.2933 41.9375 27.523 42.08C27.7526 42.2226 28.0399 42.2353 28.2813 42.1137L30.2985 41.0973C30.5186 40.9887 30.7767 40.9887 30.9968 41.0973L33.014 42.1137C33.2554 42.2353 33.5427 42.2226 33.7723 42.08C34.002 41.9375 34.1409 41.6857 34.139 41.4154L34.139 31.3447H27.1563Z" fill="#FF5364"/>
<path d="M20.1731 25.6029C18.2733 25.6029 16.4056 25.1128 14.7506 24.1799C13.0928 25.1212 11.2174 25.6118 9.31102 25.6029C8.88252 25.6029 8.53516 25.2555 8.53516 24.827C8.53516 24.3985 8.88252 24.0512 9.31102 24.0512C10.7017 24.0573 12.0764 23.755 13.3362 23.1659C12.5309 22.5486 12.0159 21.6265 11.9125 20.6172C11.9125 20.1517 12.1165 18.6201 14.7421 18.6201C17.3676 18.6201 17.5716 20.1486 17.5716 20.6172C17.4688 21.6278 16.9541 22.5514 16.1487 23.1705C17.4089 23.757 18.7831 24.0577 20.1731 24.0512C20.6016 24.0512 20.9489 24.3985 20.9489 24.827C20.9489 25.2555 20.6016 25.6029 20.1731 25.6029ZM14.7421 20.1718C14.1524 20.1718 13.4642 20.2882 13.4642 20.6172C13.4642 20.9462 13.8126 21.6087 14.7358 22.3194C15.5614 21.6879 16.0199 21.0276 16.0199 20.6172C16.0199 20.2882 15.3317 20.1718 14.7421 20.1718Z" fill="#95A5A5"/>
<path d="M38.0168 25.9908C38.0168 26.8854 36.3463 27.4401 36.0236 28.2183C35.6892 29.0244 36.465 30.5955 35.8575 31.203C35.25 31.8105 33.6789 31.0347 32.8736 31.3683C32.0954 31.6911 31.5406 33.3615 30.6461 33.3615C29.7515 33.3615 29.1968 31.6911 28.4186 31.3683C27.6125 31.0339 26.0413 31.8098 25.4338 31.2023C24.8263 30.5948 25.6022 29.0237 25.2686 28.2183C24.9458 27.4401 23.2754 26.8854 23.2754 25.9908C23.2754 25.0962 24.9458 24.5415 25.2686 23.7633C25.603 22.9572 24.8271 21.3861 25.4346 20.7786C26.0421 20.1711 27.6132 20.9469 28.4186 20.6133C29.1944 20.2905 29.7515 18.6201 30.6461 18.6201C31.5406 18.6201 32.0954 20.2905 32.8736 20.6133C33.6797 20.9477 35.2508 20.1718 35.8583 20.7793C36.4658 21.3868 35.69 22.958 36.0236 23.7633C36.3463 24.5415 38.0168 25.0962 38.0168 25.9908Z" fill="#FB7B76"/>
<path d="M30.6472 28.7064C32.1469 28.7064 33.3627 27.4906 33.3627 25.9909C33.3627 24.4912 32.1469 23.2754 30.6472 23.2754C29.1474 23.2754 27.9316 24.4912 27.9316 25.9909C27.9316 27.4906 29.1474 28.7064 30.6472 28.7064Z" fill="#DF4D60"/>
</g>
<defs>
<clipPath id="clip0_9028_3420">
<rect width="45" height="45" fill="white"/>
</clipPath>
</defs>
</svg>
