<svg width="43" height="43" viewBox="0 0 43 43" fill="none" xmlns="http://www.w3.org/2000/svg">
<path fill-rule="evenodd" clip-rule="evenodd" d="M14.8711 31.791H28.13V39.3433H14.8711V31.791Z" fill="#A79BA7"/>
<path fill-rule="evenodd" clip-rule="evenodd" d="M27.1016 31.791H28.1298V39.3433H27.1016V31.791Z" fill="#837683"/>
<path fill-rule="evenodd" clip-rule="evenodd" d="M7.16797 42.5641H35.8316V40.3543C35.8316 39.1389 34.5871 38.1445 33.0659 38.1445H9.93371C8.4125 38.1445 7.16797 39.1389 7.16797 40.3543V42.5641Z" fill="#9FACBA"/>
<path fill-rule="evenodd" clip-rule="evenodd" d="M7.16797 42.5642H35.8316V40.3544C35.8316 39.6321 35.392 38.9878 34.7161 38.584C34.868 38.8571 34.9527 39.1587 34.9527 39.4755V41.6853H7.16797V42.5642Z" fill="#8D9CA8"/>
<path fill-rule="evenodd" clip-rule="evenodd" d="M3.6495 4.19336H39.3506C41.1343 4.19336 42.5938 5.65287 42.5938 7.43661V29.7483C42.5938 31.532 41.1344 32.9915 39.3506 32.9915H3.6495C1.86576 32.9915 0.40625 31.5321 0.40625 29.7483V7.43661C0.40625 5.65278 1.86567 4.19336 3.6495 4.19336Z" fill="#9FACBA"/>
<path fill-rule="evenodd" clip-rule="evenodd" d="M41.159 4.74805C42.0226 5.33234 42.5931 6.32076 42.5931 7.43609V29.7477C42.5931 31.5315 41.1336 32.991 39.3499 32.991H3.6489C2.53365 32.991 1.54523 32.4205 0.960938 31.5569C1.47853 31.907 2.10149 32.112 2.76999 32.112H38.4711C40.2548 32.112 41.7143 30.6526 41.7143 28.8688V6.5571C41.7142 5.8886 41.5092 5.26572 41.159 4.74805Z" fill="#8D9CA8"/>
<path fill-rule="evenodd" clip-rule="evenodd" d="M3.56896 6.90625H39.4327C39.6801 6.90625 39.8826 7.10884 39.8826 7.35599V27.5527H3.11914V7.35607C3.11914 7.10866 3.32155 6.90625 3.56896 6.90625Z" fill="#D8ECFE"/>
<path fill-rule="evenodd" clip-rule="evenodd" d="M37.6738 6.90625H39.4317C39.6791 6.90625 39.8816 7.10884 39.8816 7.35607V27.5526H38.1237V7.35607C38.1237 7.10875 37.9212 6.90625 37.6738 6.90625Z" fill="#C4E2FF"/>
<path fill-rule="evenodd" clip-rule="evenodd" d="M6.6717 17.1321C7.06 17.1321 7.37482 17.4469 7.37482 17.8352C7.37482 18.2235 7.06 18.5383 6.6717 18.5383H5.79297C5.40467 18.5383 5.08984 18.2235 5.08984 17.8352C5.08984 17.4469 5.40467 17.1321 5.79297 17.1321H6.6717ZM15.3368 20.0026C15.7251 20.0026 16.04 20.3175 16.04 20.7058C16.04 21.0941 15.7251 21.4089 15.3368 21.4089H8.49903C8.11073 21.4089 7.79591 21.0941 7.79591 20.7058C7.79591 20.3175 8.11073 20.0026 8.49903 20.0026H15.3368ZM6.6717 20.0026C7.06 20.0026 7.37482 20.3175 7.37482 20.7058C7.37482 21.0941 7.06 21.4089 6.6717 21.4089H5.79297C5.40467 21.4089 5.08984 21.0941 5.08984 20.7058C5.08984 20.3175 5.40467 20.0026 5.79297 20.0026H6.6717ZM15.3368 14.2617C15.7251 14.2617 16.04 14.5765 16.04 14.9648C16.04 15.3531 15.7251 15.668 15.3368 15.668H8.49903C8.11073 15.668 7.79591 15.3531 7.79591 14.9648C7.79591 14.5765 8.11073 14.2617 8.49903 14.2617H15.3368ZM6.6717 14.2617C7.06 14.2617 7.37482 14.5765 7.37482 14.9648C7.37482 15.3531 7.06 15.668 6.6717 15.668H5.79297C5.40467 15.668 5.08984 15.3531 5.08984 14.9648C5.08984 14.5765 5.40467 14.2617 5.79297 14.2617H6.6717ZM15.3368 17.1321C15.7251 17.1321 16.04 17.4469 16.04 17.8352C16.04 18.2235 15.7251 18.5383 15.3368 18.5383H8.49903C8.11073 18.5383 7.79591 18.2235 7.79591 17.8352C7.79591 17.4469 8.11073 17.1321 8.49903 17.1321H15.3368Z" fill="#A79BA7"/>
<path fill-rule="evenodd" clip-rule="evenodd" d="M32.0593 9.95703L33.5426 10.7651V15.0338L32.0593 13.9813L30.5762 15.0338V10.7651L32.0593 9.95703Z" fill="#FFE177"/>
<path fill-rule="evenodd" clip-rule="evenodd" d="M31.3574 3.67188H32.7637V12.0007H31.3574V3.67188Z" fill="#FFE177"/>
<path fill-rule="evenodd" clip-rule="evenodd" d="M33.5426 14.5401V15.0342L32.0594 13.9818L32.4076 13.7347L33.5426 14.5401ZM31.2725 14.5401L30.5762 15.0342V10.7655L31.3563 10.3406V3.67188H32.0526V10.3405L31.2725 10.7654V14.5401Z" fill="#FFD064"/>
<path fill-rule="evenodd" clip-rule="evenodd" d="M21.501 3.13086L29.8262 3.33564V10.741C29.8262 11.0938 29.58 11.3898 29.233 11.4537C20.2076 13.1253 22.7943 13.1253 13.769 11.4537C13.4221 11.3898 13.1758 11.0938 13.1758 10.741V3.33564L21.501 3.13086Z" fill="#837683"/>
<path fill-rule="evenodd" clip-rule="evenodd" d="M29.8262 9.44644V10.7416C29.8262 11.0944 29.58 11.3902 29.233 11.4542C20.2076 13.1257 22.7943 13.1257 13.769 11.4542C13.4221 11.3902 13.1758 11.0944 13.1758 10.7416V3.3361L14.2938 3.30859V10.2568C22.6942 11.8297 20.3877 11.7972 29.233 10.1591C29.58 10.0951 29.8262 9.79923 29.8262 9.44644Z" fill="#685E68"/>
<path fill-rule="evenodd" clip-rule="evenodd" d="M21.5003 0.4375L33.1471 3.53125C33.2904 3.56939 33.2904 3.77392 33.1471 3.81197L21.5003 6.90572L9.85361 3.81197C9.71026 3.77392 9.71026 3.56939 9.85361 3.53125L21.5003 0.4375Z" fill="#837683"/>
<path fill-rule="evenodd" clip-rule="evenodd" d="M30.9484 2.94735L33.147 3.53139C33.2902 3.56953 33.2903 3.77414 33.147 3.8122L21.5002 6.90586L9.85357 3.81211C9.71022 3.77405 9.71031 3.56944 9.85357 3.5313L12.0522 2.94727L21.5003 5.45698L30.9484 2.94735Z" fill="#685E68"/>
<path fill-rule="evenodd" clip-rule="evenodd" d="M40.5562 21.3301C41.678 21.3301 42.5931 22.2451 42.5931 23.3669V37.4432C42.5931 38.0041 42.3931 38.4868 41.9965 38.8834L38.9122 41.9677C38.5156 42.3643 38.0329 42.5643 37.4719 42.5643H19.3728C18.251 42.5643 17.3359 41.6493 17.3359 40.5274V23.3669C17.3359 22.2451 18.2509 21.3301 19.3728 21.3301H40.5562Z" fill="#ECEFF1"/>
<path fill-rule="evenodd" clip-rule="evenodd" d="M40.5553 21.3301C41.6771 21.3301 42.5921 22.2451 42.5921 23.3669V37.4432C42.5921 38.0041 42.3922 38.4868 41.9955 38.8834H41.0134V37.4432V34.0785V23.3669C41.0134 22.2451 40.0984 21.3301 38.9766 21.3301H40.5553Z" fill="#D1D1D6"/>
<path fill-rule="evenodd" clip-rule="evenodd" d="M38.3164 38.7963V42.388C38.5327 42.2892 38.7319 42.1491 38.913 41.968L41.9973 38.8837C42.1784 38.7026 42.3185 38.5034 42.4173 38.2871H38.8256C38.5451 38.2871 38.3164 38.5159 38.3164 38.7963Z" fill="#D1D1D6"/>
<path fill-rule="evenodd" clip-rule="evenodd" d="M41.0137 39.8657L41.9958 38.8837C42.1769 38.7026 42.317 38.5034 42.4158 38.2871H41.0137V39.8657Z" fill="#B1B1B5"/>
<path fill-rule="evenodd" clip-rule="evenodd" d="M17.3359 25.7752H42.5931V23.3669C42.5931 22.2451 41.678 21.3301 40.5562 21.3301C33.5451 21.3301 26.384 21.3301 19.3728 21.3301C18.251 21.3301 17.3359 22.2451 17.3359 23.3669V25.7752Z" fill="#D1D1D6"/>
<path fill-rule="evenodd" clip-rule="evenodd" d="M41.0154 25.7752H42.594V23.3669C42.594 22.2451 41.679 21.3301 40.5571 21.3301H38.9785C40.1004 21.3301 41.0154 22.2451 41.0154 23.3669V25.7752Z" fill="#B1B1B5"/>
<path fill-rule="evenodd" clip-rule="evenodd" d="M23.289 28.8691H21.3641C21.0742 28.8691 20.8379 29.1055 20.8379 29.3953V31.3201C20.8379 31.61 21.0742 31.8463 21.3641 31.8463H23.289C23.5788 31.8463 23.8152 31.61 23.8152 31.3201V29.3953C23.8152 29.1055 23.5788 28.8691 23.289 28.8691Z" fill="#FE646F"/>
<path fill-rule="evenodd" clip-rule="evenodd" d="M23.2869 28.8691V30.7939C23.2869 31.0837 23.0506 31.3201 22.7607 31.3201H20.8359C20.8359 31.61 21.0723 31.8463 21.3621 31.8463H23.287C23.5768 31.8463 23.8132 31.61 23.8132 31.3201V29.3953C23.8131 29.1055 23.5768 28.8691 23.2869 28.8691Z" fill="#FD4755"/>
<path fill-rule="evenodd" clip-rule="evenodd" d="M27.1073 28.8691H25.1825C24.8927 28.8691 24.6562 29.1055 24.6562 29.3953V31.3201C24.6562 31.61 24.8926 31.8463 25.1825 31.8463H27.1073C27.3972 31.8463 27.6335 31.61 27.6335 31.3201V29.3953C27.6335 29.1055 27.3972 28.8691 27.1073 28.8691Z" fill="#8AC9FE"/>
<path fill-rule="evenodd" clip-rule="evenodd" d="M27.1073 28.8691V30.7939C27.1073 31.0837 26.8709 31.3201 26.5811 31.3201H24.6562C24.6562 31.61 24.8926 31.8463 25.1825 31.8463H27.1073C27.3972 31.8463 27.6335 31.61 27.6335 31.3201V29.3953C27.6335 29.1055 27.3971 28.8691 27.1073 28.8691Z" fill="#60B7FF"/>
<path fill-rule="evenodd" clip-rule="evenodd" d="M30.9276 28.8691H29.0028C28.7129 28.8691 28.4766 29.1055 28.4766 29.3953V31.3201C28.4766 31.61 28.7129 31.8463 29.0028 31.8463H30.9276C31.2174 31.8463 31.4538 31.61 31.4538 31.3201V29.3953C31.4538 29.1055 31.2174 28.8691 30.9276 28.8691Z" fill="#8AC9FE"/>
<path fill-rule="evenodd" clip-rule="evenodd" d="M30.9276 28.8691V30.7939C30.9276 31.0837 30.6912 31.3201 30.4014 31.3201H28.4766C28.4766 31.61 28.7129 31.8463 29.0028 31.8463H30.9276C31.2174 31.8463 31.4538 31.61 31.4538 31.3201V29.3953C31.4538 29.1055 31.2174 28.8691 30.9276 28.8691Z" fill="#60B7FF"/>
<path fill-rule="evenodd" clip-rule="evenodd" d="M34.7459 28.8691H32.821C32.5313 28.8691 32.2949 29.1055 32.2949 29.3953V31.3201C32.2949 31.61 32.5313 31.8463 32.821 31.8463H34.7459C35.0358 31.8463 35.2721 31.61 35.2721 31.3201V29.3953C35.2721 29.1055 35.0358 28.8691 34.7459 28.8691Z" fill="#8AC9FE"/>
<path fill-rule="evenodd" clip-rule="evenodd" d="M34.7459 28.8691V30.7939C34.7459 31.0837 34.5096 31.3201 34.2197 31.3201H32.2949C32.2949 31.61 32.5313 31.8463 32.821 31.8463H34.7459C35.0358 31.8463 35.2721 31.61 35.2721 31.3201V29.3953C35.2721 29.1055 35.0358 28.8691 34.7459 28.8691Z" fill="#60B7FF"/>
<path fill-rule="evenodd" clip-rule="evenodd" d="M38.5644 28.8691H36.6395C36.3497 28.8691 36.1133 29.1055 36.1133 29.3953V31.3201C36.1133 31.61 36.3497 31.8463 36.6395 31.8463H38.5644C38.8542 31.8463 39.0906 31.61 39.0906 31.3201V29.3953C39.0906 29.1055 38.8542 28.8691 38.5644 28.8691Z" fill="#8AC9FE"/>
<path fill-rule="evenodd" clip-rule="evenodd" d="M38.5644 28.8691V30.7939C38.5644 31.0837 38.3279 31.3201 38.0382 31.3201H36.1133C36.1133 31.61 36.3497 31.8463 36.6395 31.8463H38.5644C38.8542 31.8463 39.0906 31.61 39.0906 31.3201V29.3953C39.0906 29.1055 38.8542 28.8691 38.5644 28.8691Z" fill="#60B7FF"/>
<path fill-rule="evenodd" clip-rule="evenodd" d="M38.5644 32.6895H36.6395C36.3497 32.6895 36.1133 32.9259 36.1133 33.2157V35.1405C36.1133 35.4303 36.3497 35.6667 36.6395 35.6667H38.5644C38.8542 35.6667 39.0906 35.4304 39.0906 35.1405V33.2157C39.0906 32.9258 38.8542 32.6895 38.5644 32.6895Z" fill="#8AC9FE"/>
<path fill-rule="evenodd" clip-rule="evenodd" d="M38.5644 32.6895V34.6143C38.5644 34.9041 38.3279 35.1405 38.0382 35.1405H36.1133C36.1133 35.4303 36.3497 35.6667 36.6395 35.6667H38.5644C38.8542 35.6667 39.0906 35.4304 39.0906 35.1405V33.2157C39.0906 32.9258 38.8542 32.6895 38.5644 32.6895Z" fill="#60B7FF"/>
<path fill-rule="evenodd" clip-rule="evenodd" d="M34.7459 32.6895H32.821C32.5313 32.6895 32.2949 32.9259 32.2949 33.2157V35.1405C32.2949 35.4303 32.5313 35.6667 32.821 35.6667H34.7459C35.0358 35.6667 35.2721 35.4304 35.2721 35.1405V33.2157C35.2721 32.9258 35.0358 32.6895 34.7459 32.6895Z" fill="#8AC9FE"/>
<path fill-rule="evenodd" clip-rule="evenodd" d="M34.7459 32.6895V34.6143C34.7459 34.9041 34.5096 35.1405 34.2197 35.1405H32.2949C32.2949 35.4303 32.5313 35.6667 32.821 35.6667H34.7459C35.0358 35.6667 35.2721 35.4304 35.2721 35.1405V33.2157C35.2721 32.9258 35.0358 32.6895 34.7459 32.6895Z" fill="#60B7FF"/>
<path fill-rule="evenodd" clip-rule="evenodd" d="M30.9276 32.6895H29.0028C28.7129 32.6895 28.4766 32.9259 28.4766 33.2157V35.1405C28.4766 35.4303 28.7129 35.6667 29.0028 35.6667H30.9276C31.2174 35.6667 31.4538 35.4304 31.4538 35.1405V33.2157C31.4538 32.9258 31.2174 32.6895 30.9276 32.6895Z" fill="#8AC9FE"/>
<path fill-rule="evenodd" clip-rule="evenodd" d="M30.9276 32.6895V34.6143C30.9276 34.9041 30.6912 35.1405 30.4014 35.1405H28.4766C28.4766 35.4303 28.7129 35.6667 29.0028 35.6667H30.9276C31.2174 35.6667 31.4538 35.4304 31.4538 35.1405V33.2157C31.4538 32.9258 31.2174 32.6895 30.9276 32.6895Z" fill="#60B7FF"/>
<path fill-rule="evenodd" clip-rule="evenodd" d="M27.1073 32.6895H25.1825C24.8927 32.6895 24.6562 32.9259 24.6562 33.2157V35.1405C24.6562 35.4303 24.8926 35.6667 25.1825 35.6667H27.1073C27.3972 35.6667 27.6335 35.4304 27.6335 35.1405V33.2157C27.6335 32.9258 27.3972 32.6895 27.1073 32.6895Z" fill="#8AC9FE"/>
<path fill-rule="evenodd" clip-rule="evenodd" d="M27.1073 32.6895V34.6143C27.1073 34.9041 26.8709 35.1405 26.5811 35.1405H24.6562C24.6562 35.4303 24.8926 35.6667 25.1825 35.6667H27.1073C27.3972 35.6667 27.6335 35.4304 27.6335 35.1405V33.2157C27.6335 32.9258 27.3971 32.6895 27.1073 32.6895Z" fill="#60B7FF"/>
<path fill-rule="evenodd" clip-rule="evenodd" d="M23.289 32.6895H21.3641C21.0742 32.6895 20.8379 32.9259 20.8379 33.2157V35.1405C20.8379 35.4303 21.0742 35.6667 21.3641 35.6667H23.289C23.5788 35.6667 23.8152 35.4304 23.8152 35.1405V33.2157C23.8152 32.9258 23.5788 32.6895 23.289 32.6895Z" fill="#FE646F"/>
<path fill-rule="evenodd" clip-rule="evenodd" d="M23.2869 32.6895V34.6143C23.2869 34.9041 23.0506 35.1405 22.7607 35.1405H20.8359C20.8359 35.4303 21.0723 35.6667 21.3621 35.6667H23.287C23.5768 35.6667 23.8132 35.4304 23.8132 35.1405V33.2157C23.8131 32.9258 23.5768 32.6895 23.2869 32.6895Z" fill="#FD4755"/>
<path fill-rule="evenodd" clip-rule="evenodd" d="M23.289 36.5078H21.3641C21.0742 36.5078 20.8379 36.7442 20.8379 37.034V38.9589C20.8379 39.2488 21.0742 39.4851 21.3641 39.4851H23.289C23.5788 39.4851 23.8152 39.2488 23.8152 38.9589V37.034C23.8152 36.7442 23.5788 36.5078 23.289 36.5078Z" fill="#FE646F"/>
<path fill-rule="evenodd" clip-rule="evenodd" d="M23.2889 36.5078V38.4326C23.2889 38.7225 23.0526 38.9588 22.7627 38.9588H20.8379C20.8379 39.2487 21.0742 39.485 21.3641 39.485H23.289C23.5788 39.485 23.8152 39.2487 23.8152 38.9588V37.0339C23.8151 36.7441 23.5788 36.5078 23.2889 36.5078Z" fill="#FD4755"/>
<path fill-rule="evenodd" clip-rule="evenodd" d="M27.1073 36.5078H25.1825C24.8927 36.5078 24.6562 36.7442 24.6562 37.034V38.9589C24.6562 39.2488 24.8926 39.4851 25.1825 39.4851H27.1073C27.3972 39.4851 27.6335 39.2488 27.6335 38.9589V37.034C27.6335 36.7442 27.3972 36.5078 27.1073 36.5078Z" fill="#8AC9FE"/>
<path fill-rule="evenodd" clip-rule="evenodd" d="M27.1073 36.5078V38.4326C27.1073 38.7225 26.8709 38.9588 26.5811 38.9588H24.6562C24.6562 39.2487 24.8926 39.485 25.1825 39.485H27.1073C27.3972 39.485 27.6335 39.2487 27.6335 38.9588V37.0339C27.6335 36.7441 27.3971 36.5078 27.1073 36.5078Z" fill="#60B7FF"/>
<path fill-rule="evenodd" clip-rule="evenodd" d="M30.9276 36.5078H29.0028C28.7129 36.5078 28.4766 36.7442 28.4766 37.034V38.9589C28.4766 39.2488 28.7129 39.4851 29.0028 39.4851H30.9276C31.2174 39.4851 31.4538 39.2488 31.4538 38.9589V37.034C31.4538 36.7442 31.2174 36.5078 30.9276 36.5078Z" fill="#8AC9FE"/>
<path fill-rule="evenodd" clip-rule="evenodd" d="M30.9276 36.5078V38.4326C30.9276 38.7225 30.6912 38.9588 30.4014 38.9588H28.4766C28.4766 39.2487 28.7129 39.485 29.0028 39.485H30.9276C31.2174 39.485 31.4538 39.2487 31.4538 38.9588V37.0339C31.4538 36.7441 31.2174 36.5078 30.9276 36.5078Z" fill="#60B7FF"/>
<path fill-rule="evenodd" clip-rule="evenodd" d="M34.7459 36.5078H32.821C32.5313 36.5078 32.2949 36.7442 32.2949 37.034V38.9589C32.2949 39.2488 32.5313 39.4851 32.821 39.4851H34.7459C35.0358 39.4851 35.2721 39.2488 35.2721 38.9589V37.034C35.2721 36.7442 35.0358 36.5078 34.7459 36.5078Z" fill="#8AC9FE"/>
<path fill-rule="evenodd" clip-rule="evenodd" d="M34.7459 36.5078V38.4326C34.7459 38.7225 34.5096 38.9588 34.2197 38.9588H32.2949C32.2949 39.2487 32.5313 39.485 32.821 39.485H34.7459C35.0358 39.485 35.2721 39.2487 35.2721 38.9588V37.0339C35.2721 36.7441 35.0358 36.5078 34.7459 36.5078Z" fill="#60B7FF"/>
<path fill-rule="evenodd" clip-rule="evenodd" d="M20.9663 19.6309H21.976C22.2564 19.6309 22.4852 19.8596 22.4852 20.14V23.2288C22.4852 23.5093 22.2564 23.7381 21.976 23.7381H20.9663C20.6858 23.7381 20.457 23.5093 20.457 23.2288V20.14C20.457 19.8596 20.6858 19.6309 20.9663 19.6309ZM37.9519 19.6309H38.9617C39.2422 19.6309 39.4708 19.8596 39.4708 20.14V23.2288C39.4708 23.5093 39.2421 23.7381 38.9617 23.7381H37.9519C37.6715 23.7381 37.4428 23.5093 37.4428 23.2288V20.14C37.4428 19.8596 37.6715 19.6309 37.9519 19.6309ZM32.2901 19.6309H33.2998C33.5802 19.6309 33.809 19.8596 33.809 20.14V23.2288C33.809 23.5093 33.5803 23.7381 33.2998 23.7381H32.2901C32.0096 23.7381 31.7809 23.5093 31.7809 23.2288V20.14C31.7809 19.8596 32.0096 19.6309 32.2901 19.6309ZM26.6282 19.6309H27.6379C27.9183 19.6309 28.1471 19.8596 28.1471 20.14V23.2288C28.1471 23.5093 27.9183 23.7381 27.6379 23.7381H26.6282C26.3477 23.7381 26.1189 23.5093 26.1189 23.2288V20.14C26.1189 19.8596 26.3477 19.6309 26.6282 19.6309Z" fill="#837683"/>
<path fill-rule="evenodd" clip-rule="evenodd" d="M37.4428 23.2289C37.4428 23.5094 37.6716 23.7382 37.9519 23.7382H38.9617C39.2422 23.7382 39.4708 23.5094 39.4708 23.2289V21.3785V21.3298V20.1401C39.4708 19.8596 39.2421 19.6309 38.9616 19.6309V21.3298V22.7197C38.9616 23.0001 38.7328 23.2289 38.4524 23.2289H37.4428ZM27.1286 23.2289H26.1189C26.1189 23.5094 26.3476 23.7382 26.6281 23.7382H27.6379C27.9183 23.7382 28.1471 23.5094 28.1471 23.2289V21.3298V20.1401C28.1471 19.8596 27.9183 19.6309 27.6379 19.6309V21.3298V22.7197C27.6379 23.0001 27.4091 23.2289 27.1286 23.2289ZM21.976 23.7382C22.2564 23.7382 22.4852 23.5094 22.4852 23.2289V21.3298V20.1401C22.4852 19.8596 22.2564 19.6309 21.976 19.6309V21.3298V22.7197C21.976 23.0001 21.7472 23.2289 21.4667 23.2289H20.457C20.457 23.5094 20.6858 23.7382 20.9663 23.7382H21.976ZM33.2998 23.7382C33.5802 23.7382 33.809 23.5094 33.809 23.2289V21.3298V20.1401C33.809 19.8596 33.5802 19.6309 33.2998 19.6309V21.3298V22.7197C33.2998 23.0001 33.071 23.2289 32.7905 23.2289H31.7809C31.7809 23.5094 32.0096 23.7382 32.2901 23.7382H33.2998Z" fill="#685E68"/>
</svg>
