<svg width="43" height="43" viewBox="0 0 43 43" fill="none" xmlns="http://www.w3.org/2000/svg">
<path fill-rule="evenodd" clip-rule="evenodd" d="M15.3696 42.0517H23.8832C24.1157 42.0517 24.2878 41.8437 24.2414 41.6187C23.8037 39.497 21.9039 37.9004 19.6264 37.9004C17.3489 37.9004 15.4492 39.497 15.0115 41.6187C14.965 41.8437 15.1372 42.0517 15.3696 42.0517Z" fill="#8AC9FE"/>
<path fill-rule="evenodd" clip-rule="evenodd" d="M23.0515 42.0517H23.8839C24.1164 42.0517 24.2885 41.8437 24.2421 41.6187C23.8044 39.497 21.9046 37.9004 19.6271 37.9004C19.4869 37.9004 19.3481 37.9065 19.2109 37.9184C21.3006 38.0991 22.9989 39.6276 23.4097 41.6187C23.4561 41.8437 23.284 42.0517 23.0515 42.0517Z" fill="#60B7FF"/>
<path d="M19.6255 37.0213C20.9407 37.0213 22.0068 35.9683 22.0068 34.6693C22.0068 33.3704 20.9407 32.3174 19.6255 32.3174C18.3103 32.3174 17.2441 33.3704 17.2441 34.6693C17.2441 35.9683 18.3103 37.0213 19.6255 37.0213Z" fill="#F6DCCD"/>
<path fill-rule="evenodd" clip-rule="evenodd" d="M19.6267 32.3174C20.9418 32.3174 22.008 33.3704 22.008 34.6693C22.008 35.9683 20.9418 37.0213 19.6267 37.0213C19.5141 37.0213 19.4033 37.0134 19.2949 36.9984C20.453 36.839 21.3445 35.857 21.3445 34.6693C21.3445 33.4816 20.453 32.4997 19.2949 32.3402C19.4033 32.3253 19.514 32.3174 19.6267 32.3174Z" fill="#F1CBBC"/>
<path fill-rule="evenodd" clip-rule="evenodd" d="M16.7267 3.53556C16.7267 2.1119 17.9058 0.947266 19.3475 0.947266H40.1196C41.561 0.947266 42.7402 2.11243 42.7402 3.53556V19.0787C42.7402 20.5019 41.5604 21.667 40.1195 21.667H19.3474C17.9068 21.667 16.7266 20.5024 16.7266 19.0787L16.7267 3.53556Z" fill="#ECEFF1"/>
<path fill-rule="evenodd" clip-rule="evenodd" d="M39.2305 0.947266H40.1204C41.5618 0.947266 42.741 2.11243 42.741 3.53556V19.0787C42.741 20.5019 41.5613 21.667 40.1204 21.667H39.2305C40.6714 21.667 41.8511 20.5019 41.8511 19.0787V3.53556C41.851 2.11243 40.6718 0.947266 39.2305 0.947266Z" fill="#D1D1D6"/>
<path fill-rule="evenodd" clip-rule="evenodd" d="M21.2705 19.2882C20.8774 19.2882 20.5586 18.9734 20.5586 18.585C20.5586 18.1967 20.8774 17.8819 21.2705 17.8819H39.3755C39.7686 17.8819 40.0874 18.1967 40.0874 18.585C40.0874 18.9734 39.7686 19.2882 39.3755 19.2882H21.2705ZM21.2705 16.6514C20.8774 16.6514 20.5586 16.3365 20.5586 15.9482C20.5586 15.5599 20.8774 15.2451 21.2705 15.2451H34.8454C35.2385 15.2451 35.5573 15.5599 35.5573 15.9482C35.5573 16.3365 35.2385 16.6514 34.8454 16.6514H21.2705Z" fill="#A79BA7"/>
<path fill-rule="evenodd" clip-rule="evenodd" d="M4.55846 40.8543H12.2695C12.7432 40.8542 13.1297 40.473 13.1305 40.0051L13.1689 16.5547L15.1491 14.1893H20.1475C20.5107 14.1893 20.8411 14.0508 21.0876 13.8243L24.904 10.8789C25.5027 10.4169 25.609 9.56306 25.1413 8.97164C24.6736 8.38023 23.8091 8.27528 23.2103 8.73724L19.6803 11.4616H4.35289C2.44808 11.4616 0.0790038 12.6686 0.0681471 14.7985L0.0254321 23.2203C0.0159992 25.0551 1.61656 26.5567 3.63128 26.5567L3.69722 40.0079C3.69953 40.4749 4.08557 40.8543 4.55846 40.8543Z" fill="#8AC9FE"/>
<path fill-rule="evenodd" clip-rule="evenodd" d="M3.01181 26.5091C3.16781 26.5337 3.32727 26.5491 3.48977 26.5548H4.38963V14.7947C4.38963 14.419 4.08119 14.1143 3.70067 14.1143C3.32016 14.1143 3.01172 14.4189 3.01172 14.7947L3.01181 26.5091Z" fill="#60B7FF"/>
<path fill-rule="evenodd" clip-rule="evenodd" d="M4.55804 40.8542H12.269C12.7428 40.8542 13.1293 40.473 13.1301 40.005L13.1521 26.5566H3.63086L3.6968 40.0079C3.69911 40.4748 4.08515 40.8542 4.55804 40.8542Z" fill="#837683"/>
<path fill-rule="evenodd" clip-rule="evenodd" d="M7.73438 40.8543H9.11228V30.0408C9.11228 29.665 8.80385 29.3604 8.42333 29.3604C8.04281 29.3604 7.73438 29.665 7.73438 30.0408V40.8543Z" fill="#685E68"/>
<path fill-rule="evenodd" clip-rule="evenodd" d="M15.1202 14.2694H20.1187C20.4818 14.2694 20.8122 14.1309 21.0587 13.9044L24.8751 10.9589C25.4739 10.497 25.5802 9.64314 25.1125 9.05172C24.6447 8.4603 23.7802 8.35536 23.1814 8.81732L19.6515 11.5417H14.291V15.26L15.1202 14.2694Z" fill="#8AC9FE"/>
<path fill-rule="evenodd" clip-rule="evenodd" d="M8.42526 2.25391C10.4755 2.25391 12.1375 3.40791 12.1375 6.06924C12.1375 8.73057 10.4754 10.888 8.42526 10.888C6.37494 10.888 4.71289 8.73048 4.71289 6.06924C4.71289 3.408 6.37503 2.25391 8.42526 2.25391Z" fill="#F6DCCD"/>
<path fill-rule="evenodd" clip-rule="evenodd" d="M8.42486 2.25391C10.4751 2.25391 12.1371 3.40791 12.1371 6.06924C12.1371 8.73057 10.475 10.888 8.42486 10.888C8.32858 10.888 8.23309 10.8832 8.13867 10.8739C10.0551 10.6842 11.5648 8.6055 11.5648 6.06924C11.5648 3.53289 10.0551 2.3657 8.13867 2.26164C8.23318 2.25646 8.32858 2.25391 8.42486 2.25391Z" fill="#F1CBBC"/>
<path fill-rule="evenodd" clip-rule="evenodd" d="M34.9374 3.50801C35.4627 3.63149 35.9646 3.83716 36.4243 4.11683L37.3905 3.69302L38.5292 4.81767L38.1002 5.77163C38.3835 6.22585 38.5917 6.72155 38.7167 7.24055L39.7025 7.61531V9.20587L38.7165 9.58064C38.5914 10.0995 38.3832 10.5951 38.1 11.0491L38.5291 12.0034L37.3904 13.1281L36.4245 12.7044C35.9646 12.9841 35.4628 13.1898 34.9373 13.3133L34.5578 14.2868H32.9474L32.5678 13.313C32.0425 13.1895 31.5407 12.9838 31.081 12.7042L30.1148 13.128L28.976 12.0033L29.405 11.0494C29.1217 10.5952 28.9135 10.0994 28.7885 9.58046L27.8027 9.20569V7.61531L28.7886 7.24055C28.9137 6.72164 29.1219 6.22603 29.4052 5.77189L28.9761 4.81775L30.1149 3.69302L31.081 4.11683C31.5408 3.83716 32.0425 3.63149 32.5679 3.50801L32.9475 2.53418H34.5578L34.9374 3.50801Z" fill="#FFE177"/>
<path fill-rule="evenodd" clip-rule="evenodd" d="M31.0799 12.7043L30.1136 13.1281L29.9648 12.9811L30.8708 12.5838C30.9395 12.6256 31.0092 12.6658 31.0799 12.7043ZM34.9361 3.50792C35.4614 3.63141 35.9633 3.83707 36.423 4.11674L36.1484 4.23724C35.6885 3.95766 34.9777 3.63149 34.4524 3.50801L34.0729 2.53418H34.5566L34.9361 3.50792ZM36.4233 12.7044C35.9634 12.9841 35.4615 13.1898 34.9361 13.3133L34.5566 14.2868H34.0729L34.4523 13.3133C34.9778 13.1898 35.6888 12.8636 36.1486 12.5839L36.4233 12.7044ZM29.9648 3.83979L30.1136 3.69284L31.0798 4.11665C31.0092 4.15515 30.9395 4.19531 30.8707 4.23715L29.9648 3.83979ZM37.0543 3.83979L37.3892 3.69284L38.5279 4.81749L38.0989 5.77145C38.3822 6.22567 38.5904 6.72138 38.7154 7.24037L39.7012 7.61514V9.20569L38.7152 9.58046C38.5901 10.0993 38.3819 10.5949 38.0987 11.0489L38.5278 12.0033L37.3891 13.1279L37.0542 12.9809L38.0442 12.0032L37.6151 11.0488C37.8982 10.5947 38.1065 10.0992 38.2315 9.58037L39.2175 9.20561V7.61522L38.2318 7.24046C38.1067 6.72147 37.8984 6.22576 37.6153 5.77154L38.0443 4.81758L37.0543 3.83979Z" fill="#FFD064"/>
<path d="M34.4653 11.4095C36.1486 11.0165 37.1906 9.35018 36.7927 7.68768C36.3948 6.02518 34.7077 4.99604 33.0244 5.38902C31.3411 5.78201 30.2991 7.44831 30.697 9.1108C31.0949 10.7733 32.782 11.8024 34.4653 11.4095Z" fill="#ECEFF1"/>
<path fill-rule="evenodd" clip-rule="evenodd" d="M33.7534 5.31641C32.0233 5.31641 30.6211 6.70139 30.6211 8.41016C30.6211 10.1189 32.0234 11.5038 33.7534 11.5038C33.8373 11.5038 33.9204 11.5005 34.0026 11.4941C32.389 11.3686 31.1193 10.036 31.1193 8.41007C31.1193 6.78409 32.389 5.45149 34.0026 5.32607C33.9204 5.31975 33.8373 5.31641 33.7534 5.31641Z" fill="#D1D1D6"/>
<path fill-rule="evenodd" clip-rule="evenodd" d="M31.9077 8.98706C31.6297 8.71249 31.6297 8.26732 31.9077 7.99284C32.1857 7.71827 32.6365 7.71827 32.9144 7.99284L33.219 8.29369L34.6186 7.03922C34.9089 6.77837 35.3584 6.7992 35.6225 7.08589C35.8866 7.37259 35.8655 7.81653 35.5752 8.07739L33.7016 9.75671L33.6977 9.76067C33.4196 10.0352 32.9689 10.0352 32.6909 9.76067L31.9077 8.98706Z" fill="#8AC9FE"/>
<path fill-rule="evenodd" clip-rule="evenodd" d="M24.6157 42.0517H33.1293C33.3617 42.0517 33.5338 41.8437 33.4875 41.6187C33.0497 39.497 31.15 37.9004 28.8726 37.9004C26.5951 37.9004 24.6953 39.497 24.2576 41.6187C24.2112 41.8437 24.3833 42.0517 24.6157 42.0517Z" fill="#8AC9FE"/>
<path fill-rule="evenodd" clip-rule="evenodd" d="M32.2975 42.0517H33.1299C33.3624 42.0517 33.5345 41.8437 33.4881 41.6187C33.0504 39.497 31.1506 37.9004 28.8732 37.9004C28.733 37.9004 28.5942 37.9065 28.457 37.9184C30.5467 38.0991 32.245 39.6276 32.6558 41.6187C32.7021 41.8437 32.53 42.0517 32.2975 42.0517Z" fill="#60B7FF"/>
<path d="M29.7999 36.8382C31.0151 36.3407 31.5919 34.9644 31.0882 33.7642C30.5845 32.564 29.191 31.9943 27.9758 32.4918C26.7605 32.9893 26.1837 34.3656 26.6874 35.5658C27.1912 36.766 28.5846 37.3357 29.7999 36.8382Z" fill="#F6DCCD"/>
<path fill-rule="evenodd" clip-rule="evenodd" d="M28.8728 32.3184C30.1879 32.3184 31.2541 33.3714 31.2541 34.6703C31.2541 35.9692 30.1879 37.0223 28.8728 37.0223C28.7602 37.0223 28.6494 37.0144 28.541 36.9994C29.6991 36.84 30.5906 35.858 30.5906 34.6703C30.5906 33.4826 29.6991 32.5006 28.541 32.3412C28.6494 32.3263 28.7602 32.3184 28.8728 32.3184Z" fill="#F1CBBC"/>
<path fill-rule="evenodd" clip-rule="evenodd" d="M33.8619 42.0517H42.3755C42.6079 42.0517 42.78 41.8437 42.7336 41.6187C42.2959 39.497 40.3962 37.9004 38.1187 37.9004C35.8412 37.9004 33.9414 39.497 33.5037 41.6187C33.4573 41.8437 33.6294 42.0517 33.8619 42.0517Z" fill="#8AC9FE"/>
<path fill-rule="evenodd" clip-rule="evenodd" d="M41.5437 42.0517H42.3761C42.6086 42.0517 42.7807 41.8437 42.7343 41.6187C42.2966 39.497 40.3968 37.9004 38.1193 37.9004C37.9791 37.9004 37.8403 37.9065 37.7031 37.9184C39.7929 38.0991 41.4911 39.6276 41.9019 41.6187C41.9484 41.8437 41.7763 42.0517 41.5437 42.0517Z" fill="#60B7FF"/>
<path d="M38.1196 37.0213C39.4348 37.0213 40.501 35.9683 40.501 34.6693C40.501 33.3704 39.4348 32.3174 38.1196 32.3174C36.8044 32.3174 35.7383 33.3704 35.7383 34.6693C35.7383 35.9683 36.8044 37.0213 38.1196 37.0213Z" fill="#F6DCCD"/>
<path fill-rule="evenodd" clip-rule="evenodd" d="M38.1189 32.3174C39.434 32.3174 40.5002 33.3704 40.5002 34.6693C40.5002 35.9683 39.434 37.0213 38.1189 37.0213C38.0063 37.0213 37.8955 37.0134 37.7871 36.9984C38.9452 36.839 39.8367 35.857 39.8367 34.6693C39.8367 33.4816 38.9452 32.4997 37.7871 32.3402C37.8955 32.3253 38.0062 32.3174 38.1189 32.3174Z" fill="#F1CBBC"/>
</svg>
