<svg width="47" height="45" viewBox="0 0 47 45" fill="none" xmlns="http://www.w3.org/2000/svg">
<g clip-path="url(#clip0_8951_5885)">
<path d="M43.0971 16.9248C43.5706 16.9248 43.9545 17.3039 43.9545 17.7716V41.4975C43.9545 43.4318 42.3668 45 40.4082 45H6.35683C4.39828 45 2.81055 43.4318 2.81055 41.4975V17.7716C2.81055 17.3039 3.1944 16.9248 3.66795 16.9248H43.0971Z" fill="#B3E5EE"/>
<path d="M5.41016 16.9248V40.8638C5.41016 42.4483 6.71485 43.7372 8.31865 43.7372H38.5383C40.142 43.7372 41.4468 42.4482 41.4468 40.8638V16.9248H5.41016Z" fill="#86D7E5"/>
<path d="M38.8814 15.2139H7.97505C7.57201 15.2139 7.24609 15.5367 7.24609 15.9347V37.5943L17.2058 41.1873L23.4282 41.8941L38.3418 39.2352L39.6104 37.5943V15.9347C39.6104 15.5367 39.2845 15.2139 38.8814 15.2139Z" fill="#F9F7F7"/>
<path d="M22.7402 15.2139H24.1174V41.924H22.7402V15.2139Z" fill="#F8F3F2"/>
<path d="M14.9297 15.2139L18.9682 21.4235V21.9052C18.9682 22.7029 19.3706 23.4091 19.9851 23.8375V24.595C19.9851 26.1801 21.2908 27.4697 22.8957 27.4697H23.9611C25.566 27.4697 26.8717 26.1801 26.8717 24.595V23.8375C27.4861 23.4091 27.8885 22.7029 27.8885 21.9052V21.4235L31.9271 15.2139H14.9297Z" fill="#F8F3F2"/>
<path d="M11.0684 38.3584V15.2139H7.97505C7.57201 15.2139 7.24609 15.5367 7.24609 15.9347V37.5943L11.1924 39.0179C11.1135 38.8127 11.0684 38.591 11.0684 38.3584Z" fill="#F8F3F2"/>
<path d="M23.4282 41.8945V41.9245H8.31842C7.72625 41.9245 7.24609 41.4502 7.24609 40.8645V37.5947H19.0747C21.4792 37.5947 23.4282 39.5198 23.4282 41.8945Z" fill="#F2EAE7"/>
<path d="M39.6118 37.5947V40.8645C39.6118 41.4502 39.1317 41.9245 38.5395 41.9245H23.4297V41.8945C23.4297 39.5198 25.3788 37.5947 27.7832 37.5947H39.6118Z" fill="#F2EAE7"/>
<path d="M25.4934 21.8213H21.3613V24.5949C21.3613 25.4312 22.0479 26.1093 22.8947 26.1093H23.9601C24.807 26.1093 25.4934 25.4312 25.4934 24.5949V21.8213Z" fill="#A59CA6"/>
<path d="M25.4934 21.8213H22.5434H22.1942H21.3613V24.5949C21.3613 25.4312 22.0479 26.1093 22.8947 26.1093H23.9601C24.5535 26.1093 25.0673 25.7757 25.3221 25.2885C25.263 25.2953 25.2031 25.2999 25.1421 25.2999H24.0767C23.4031 25.2999 22.8315 24.8705 22.6261 24.2738C22.5488 24.0494 22.7172 23.816 22.9573 23.816H25.4935V21.8213H25.4934Z" fill="#8F8390"/>
<path d="M32.586 9.0442C32.586 4.04918 28.4861 0 23.4287 0C18.3714 0 14.2715 4.04918 14.2715 9.0442C14.2715 10.982 14.8888 12.7772 15.9395 14.2491L20.3458 21.0242V21.9052C20.3458 22.4598 20.8011 22.9095 21.3627 22.9095H25.4948C26.0564 22.9095 26.5117 22.4598 26.5117 21.9052V21.0242L30.918 14.2491C31.9686 12.7772 32.586 10.982 32.586 9.0442Z" fill="#FBE88C"/>
<path d="M19.8011 15.4031C18.7026 13.8121 18.0572 11.8714 18.0572 9.77667C18.0572 5.11661 21.2495 1.2184 25.5232 0.238022C24.8503 0.0823329 24.1497 0 23.4287 0C18.3714 0 14.2715 4.04918 14.2715 9.0442C14.2715 10.982 14.8888 12.7772 15.9395 14.2491L20.3458 21.0242V21.9052C20.3458 22.4598 20.8011 22.9095 21.3627 22.9095H23.9797L19.8011 15.4031Z" fill="#FBE372"/>
<path d="M24.0313 22.9092H25.4088L25.888 14.8776H26.6724C27.7949 14.8776 28.708 13.9758 28.708 12.8673V12.7848C28.708 11.6763 27.7949 10.7744 26.6724 10.7744C25.5963 10.7744 24.7038 11.6055 24.6404 12.6665L24.5896 13.5175H22.175L22.1242 12.6665C22.061 11.6055 21.1683 10.7744 20.0922 10.7744C18.9698 10.7744 18.0566 11.6763 18.0566 12.7848V12.8673C18.0566 13.9758 18.9698 14.8776 20.0922 14.8776H20.8766L21.3558 22.9089C21.3579 22.9089 21.36 22.9092 21.3621 22.9092H22.7333C22.7333 22.8958 22.2561 14.8776 22.2561 14.8776H24.5085C24.5086 14.8775 24.0314 22.8958 24.0313 22.9092ZM26.0151 12.7465C26.0356 12.4033 26.3244 12.1344 26.6724 12.1344C27.0355 12.1344 27.3309 12.4261 27.3309 12.7847V12.8672C27.3309 13.2257 27.0355 13.5174 26.6724 13.5174H25.9691L26.0151 12.7465ZM20.0923 13.5174C19.7292 13.5174 19.4339 13.2257 19.4339 12.8672V12.7847C19.4339 12.4261 19.7292 12.1344 20.0923 12.1344C20.4404 12.1344 20.7291 12.4033 20.7496 12.7465L20.7956 13.5174H20.0923Z" fill="#F9DE58"/>
<path d="M35.4896 4.48421C35.2984 4.48421 35.1081 4.40596 34.9719 4.25281C34.721 3.97062 34.7493 3.54083 35.0351 3.2931L36.5374 1.99028C36.8232 1.74256 37.2583 1.7704 37.5091 2.05267C37.7601 2.33485 37.7318 2.76465 37.446 3.01237L35.9436 4.31519C35.813 4.42853 35.6509 4.48421 35.4896 4.48421Z" fill="#FBE88C"/>
<path d="M36.9914 10.0576C36.8301 10.0576 36.6682 10.002 36.5374 9.88857L35.035 8.58566C34.7493 8.33784 34.721 7.90813 34.9719 7.62595C35.2228 7.34377 35.6579 7.31566 35.9436 7.56357L37.446 8.86648C37.7317 9.11429 37.76 9.544 37.5091 9.82618C37.373 9.97933 37.1827 10.0576 36.9914 10.0576Z" fill="#FBE88C"/>
<path d="M11.3664 4.48425C11.2051 4.48425 11.0431 4.42867 10.9124 4.31523L9.41005 3.01241C9.12425 2.76469 9.09607 2.33489 9.34689 2.05271C9.59771 1.77053 10.0329 1.74242 10.3186 1.99033L11.8209 3.29314C12.1067 3.54087 12.1349 3.97067 11.8841 4.25285C11.748 4.406 11.5577 4.48425 11.3664 4.48425Z" fill="#FBE88C"/>
<path d="M9.86464 10.0575C9.6734 10.0575 9.48309 9.97929 9.34693 9.82614C9.09602 9.54396 9.1243 9.11425 9.41001 8.86643L10.9124 7.56353C11.1982 7.3158 11.6332 7.34364 11.8841 7.62591C12.135 7.90809 12.1067 8.3378 11.821 8.58561L10.3186 9.88852C10.188 10.0019 10.0259 10.0575 9.86464 10.0575Z" fill="#FBE88C"/>
<path d="M16.6471 23.5896H9.86434C9.48407 23.5896 9.17578 23.2852 9.17578 22.9096C9.17578 22.5339 9.48407 22.2295 9.86434 22.2295H16.6471C17.0273 22.2295 17.3356 22.5339 17.3356 22.9096C17.3356 23.2852 17.0273 23.5896 16.6471 23.5896Z" fill="#F2EAE7"/>
<path d="M18.745 27.0486H11.1085C10.7282 27.0486 10.4199 26.7442 10.4199 26.3685C10.4199 25.9929 10.7282 25.6885 11.1085 25.6885H18.745C19.1253 25.6885 19.4336 25.9929 19.4336 26.3685C19.4336 26.7442 19.1253 27.0486 18.745 27.0486Z" fill="#F2EAE7"/>
<path d="M18.745 30.3621H11.1085C10.7282 30.3621 10.4199 30.0577 10.4199 29.682C10.4199 29.3063 10.7282 29.002 11.1085 29.002H18.745C19.1253 29.002 19.4336 29.3063 19.4336 29.682C19.4336 30.0577 19.1253 30.3621 18.745 30.3621Z" fill="#F2EAE7"/>
<path d="M18.745 33.6756H11.1085C10.7282 33.6756 10.4199 33.3712 10.4199 32.9955C10.4199 32.6198 10.7282 32.3154 11.1085 32.3154H18.745C19.1253 32.3154 19.4336 32.6198 19.4336 32.9955C19.4336 33.3712 19.1253 33.6756 18.745 33.6756Z" fill="#F2EAE7"/>
<path d="M36.9908 23.5896H30.2081C29.8278 23.5896 29.5195 23.2852 29.5195 22.9096C29.5195 22.5339 29.8278 22.2295 30.2081 22.2295H36.9908C37.3711 22.2295 37.6794 22.5339 37.6794 22.9096C37.6794 23.2852 37.3711 23.5896 36.9908 23.5896Z" fill="#F2EAE7"/>
<path d="M35.7489 27.0486H28.1124C27.7321 27.0486 27.4238 26.7442 27.4238 26.3685C27.4238 25.9929 27.7321 25.6885 28.1124 25.6885H35.7489C36.1292 25.6885 36.4375 25.9929 36.4375 26.3685C36.4375 26.7442 36.1293 27.0486 35.7489 27.0486Z" fill="#F2EAE7"/>
<path d="M35.7489 30.3621H28.1124C27.7321 30.3621 27.4238 30.0577 27.4238 29.682C27.4238 29.3063 27.7321 29.002 28.1124 29.002H35.7489C36.1292 29.002 36.4375 29.3063 36.4375 29.682C36.4375 30.0577 36.1293 30.3621 35.7489 30.3621Z" fill="#F2EAE7"/>
<path d="M35.7489 33.6756H28.1124C27.7321 33.6756 27.4238 33.3712 27.4238 32.9955C27.4238 32.6198 27.7321 32.3154 28.1124 32.3154H35.7489C36.1292 32.3154 36.4375 32.6198 36.4375 32.9955C36.4375 33.3712 36.1293 33.6756 35.7489 33.6756Z" fill="#F2EAE7"/>
<path d="M23.7726 40.2178C23.5519 40.7326 23.4297 41.2988 23.4297 41.8932V41.9231H38.5395C39.1317 41.9231 39.6118 41.4489 39.6118 40.8631V40.2179H23.7726V40.2178Z" fill="#EDE2DD"/>
<path d="M12.9519 40.2182C11.9116 40.2182 11.0684 39.3853 11.0684 38.3579V37.5938H7.24609V40.8635C7.24609 41.4493 7.72625 41.9235 8.31842 41.9235H23.4282V41.8936C23.4282 41.2992 23.3061 40.7331 23.0853 40.2182H12.9519Z" fill="#EDE2DD"/>
</g>
<defs>
<clipPath id="clip0_8951_5885">
<rect width="45.5625" height="45" fill="white" transform="translate(0.601562)"/>
</clipPath>
</defs>
</svg>
