<svg width="45" height="45" viewBox="0 0 45 45" fill="none" xmlns="http://www.w3.org/2000/svg">
<path d="M22.3418 42.3281H1.93359C0.870117 42.3281 0 41.4668 0 40.3945V2.28516C0 1.22168 0.861328 0.351562 1.93359 0.351562H27.8965C28.96 0.351562 29.8301 1.21289 29.8301 2.28516V34.8398L22.3418 42.3281Z" fill="#E2E2E2"/>
<path d="M27.8965 0.351562H24.3281C25.3916 0.351562 26.2617 1.21289 26.2617 2.28516V34.8398L22.3418 42.3281L29.8301 34.8398V2.28516C29.8301 1.22168 28.96 0.351562 27.8965 0.351562Z" fill="#E8EBEB"/>
<path d="M22.3418 42.3281V36.7734C22.3418 35.71 23.2031 34.8398 24.2754 34.8398H29.8301L22.3418 42.3281Z" fill="#BABABA"/>
<path d="M29.8301 5.58984H0V2.28516C0 1.22168 0.861328 0.351562 1.93359 0.351562H27.8965C28.96 0.351562 29.8301 1.21289 29.8301 2.28516V5.58984Z" fill="#FFCC00"/>
<path d="M3.28724 3.63867C4.14856 3.63867 4.14856 2.30273 3.28724 2.30273C2.4347 2.30273 2.42591 3.63867 3.28724 3.63867Z" fill="white"/>
<path d="M5.58154 3.63867C6.44287 3.63867 6.44287 2.30273 5.58154 2.30273C4.72021 2.30273 4.72021 3.63867 5.58154 3.63867Z" fill="white"/>
<path d="M7.87549 3.63867C8.73682 3.63867 8.73682 2.30273 7.87549 2.30273C7.01416 2.30273 7.01416 3.63867 7.87549 3.63867Z" fill="white"/>
<path d="M8.20996 12.5508H24.9531C25.3223 12.5508 25.6211 12.252 25.6211 11.8828C25.6211 11.5137 25.3223 11.2148 24.9531 11.2148H8.20996C7.84082 11.2148 7.54199 11.5137 7.54199 11.8828C7.54199 12.252 7.84082 12.5508 8.20996 12.5508Z" fill="#A8A8A8"/>
<path d="M5.2124 11.2148C4.35107 11.2148 4.35107 12.5508 5.2124 12.5508C6.07373 12.5508 6.07373 11.2148 5.2124 11.2148Z" fill="#A8A8A8"/>
<path d="M24.9531 16.0312H8.20996C7.84082 16.0312 7.54199 16.3301 7.54199 16.6992C7.54199 17.0684 7.84082 17.3672 8.20996 17.3672H24.9531C25.3223 17.3672 25.6211 17.0684 25.6211 16.6992C25.6211 16.3301 25.3223 16.0312 24.9531 16.0312Z" fill="#A8A8A8"/>
<path d="M5.2124 16.0312C4.35107 16.0312 4.35107 17.3672 5.2124 17.3672C6.07373 17.3672 6.07373 16.0312 5.2124 16.0312Z" fill="#A8A8A8"/>
<path d="M24.9531 20.8477H8.20996C7.84082 20.8477 7.54199 21.1465 7.54199 21.5156C7.54199 21.8848 7.84082 22.1836 8.20996 22.1836H24.9531C25.3223 22.1836 25.6211 21.8848 25.6211 21.5156C25.6211 21.1465 25.3223 20.8477 24.9531 20.8477Z" fill="#A8A8A8"/>
<path d="M5.2124 20.8477C4.35107 20.8477 4.35107 22.1836 5.2124 22.1836C6.07373 22.1836 6.07373 20.8477 5.2124 20.8477Z" fill="#A8A8A8"/>
<path d="M24.9531 25.6641H8.20996C7.84082 25.6641 7.54199 25.9629 7.54199 26.332C7.54199 26.7012 7.84082 27 8.20996 27H24.9531C25.3223 27 25.6211 26.7012 25.6211 26.332C25.6211 25.9629 25.3223 25.6641 24.9531 25.6641Z" fill="#A8A8A8"/>
<path d="M5.2124 25.6641C4.35107 25.6641 4.35107 27 5.2124 27C6.07373 27 6.07373 25.6641 5.2124 25.6641Z" fill="#A8A8A8"/>
<path d="M24.7861 30.4805H8.04297C7.67383 30.4805 7.375 30.7793 7.375 31.1484C7.375 31.5176 7.67383 31.8164 8.04297 31.8164H24.7861C25.1553 31.8164 25.4541 31.5176 25.4541 31.1484C25.4541 30.7793 25.1553 30.4805 24.7861 30.4805Z" fill="#A8A8A8"/>
<path d="M5.04541 30.4805C4.18408 30.4805 4.18408 31.8164 5.04541 31.8164C5.90674 31.8164 5.90674 30.4805 5.04541 30.4805Z" fill="#A8A8A8"/>
<path d="M17.8506 35.2969H7.875C7.50586 35.2969 7.20703 35.5957 7.20703 35.9648C7.20703 36.334 7.50586 36.6328 7.875 36.6328H17.8506C18.2197 36.6328 18.5186 36.334 18.5186 35.9648C18.5186 35.5957 18.2197 35.2969 17.8506 35.2969Z" fill="#A8A8A8"/>
<path d="M4.87842 35.2969C4.01709 35.2969 4.01709 36.6328 4.87842 36.6328C5.73975 36.6328 5.73975 35.2969 4.87842 35.2969Z" fill="#A8A8A8"/>
<path d="M32.7568 22.0869C36.9653 22.0869 40.377 18.6753 40.377 14.4668C40.377 10.2583 36.9653 6.84668 32.7568 6.84668C28.5484 6.84668 25.1367 10.2583 25.1367 14.4668C25.1367 18.6753 28.5484 22.0869 32.7568 22.0869Z" fill="#55D3E0"/>
<path d="M32.7568 6.84668C32.1416 6.84668 31.5439 6.91699 30.9727 7.05762C34.3213 7.85742 36.8174 10.8721 36.8174 14.4668C36.8174 18.0615 34.3301 21.0762 30.9727 21.876C31.5439 22.0166 32.1416 22.0869 32.7568 22.0869C36.9668 22.0869 40.377 18.6768 40.377 14.4668C40.3857 10.2568 36.9668 6.84668 32.7568 6.84668Z" fill="#2BB5BC"/>
<path d="M35.8242 18.6504C35.6396 18.6504 35.4551 18.5713 35.3232 18.4219L32.2559 14.9063C32.1504 14.7832 32.0889 14.625 32.0889 14.4668V11.3994C32.0889 11.0303 32.3877 10.7314 32.7568 10.7314C33.126 10.7314 33.4248 11.0303 33.4248 11.3994V14.2119L36.3252 17.5342C36.5713 17.8154 36.5361 18.2373 36.2637 18.4746C36.1406 18.5977 35.9824 18.6504 35.8242 18.6504Z" fill="white"/>
<path d="M36.3867 2.84766C35.2441 2.49609 34.0488 2.32031 32.8359 2.32031C32.4668 2.32031 32.168 2.61914 32.168 2.98828C32.168 3.35742 32.4668 3.65625 32.8359 3.65625C33.9082 3.65625 34.9717 3.81445 35.9912 4.12207C36.0527 4.13965 36.123 4.14844 36.1846 4.14844C36.4746 4.14844 36.7383 3.96387 36.8262 3.67383C36.9404 3.33105 36.7383 2.95313 36.3867 2.84766Z" fill="#A8A8A8"/>
<path d="M42.161 22.7723L41.7303 22.7635C43.8221 20.5223 44.9911 17.5868 44.9911 14.4754C44.9911 12.3661 44.4373 10.2918 43.4002 8.4725C42.4071 6.7059 40.9569 5.20297 39.2254 4.13071C38.909 3.93735 38.4959 4.03403 38.3026 4.35043C38.1092 4.66684 38.2059 5.07992 38.5223 5.27328C41.7391 7.2684 43.6639 10.7137 43.6639 14.4842C43.6639 17.2352 42.6356 19.8368 40.7899 21.8231L40.7987 21.4364C40.8075 21.0672 40.5174 20.7596 40.1483 20.7508C39.7791 20.742 39.4715 21.0321 39.4627 21.4012L39.4188 23.3875C39.4188 23.3875 39.4188 23.3875 39.4188 23.3963C39.4188 23.4139 39.4188 23.4227 39.4188 23.4403C39.4188 23.4491 39.4188 23.4579 39.4188 23.4666C39.4188 23.4842 39.4188 23.493 39.4276 23.5106C39.4276 23.5194 39.4276 23.5282 39.4276 23.537C39.4276 23.5457 39.4364 23.5633 39.4364 23.5721C39.4364 23.5809 39.4364 23.5897 39.4452 23.5985C39.4452 23.6073 39.4539 23.6161 39.4539 23.6336C39.4539 23.6424 39.4627 23.6512 39.4627 23.66C39.4627 23.6688 39.4715 23.6776 39.4715 23.6864C39.4803 23.6952 39.4803 23.7127 39.4891 23.7215C39.4891 23.7303 39.4979 23.7391 39.4979 23.7479C39.5067 23.7567 39.5067 23.7743 39.5155 23.7831C39.5243 23.7918 39.5243 23.8006 39.533 23.8006C39.5418 23.8094 39.5506 23.827 39.5594 23.8358L39.5682 23.8446C39.577 23.8534 39.5858 23.8709 39.6034 23.8797C39.6122 23.8885 39.6209 23.8973 39.6209 23.8973C39.6297 23.9061 39.6385 23.9149 39.6561 23.9237C39.6649 23.9325 39.6737 23.9325 39.6825 23.9413C39.6913 23.95 39.7 23.9588 39.7176 23.9676C39.7264 23.9764 39.7352 23.9764 39.744 23.9852C39.7528 23.994 39.7704 24.0028 39.7879 24.0028C39.7967 24.0028 39.8055 24.0116 39.8055 24.0116C39.8495 24.0291 39.8934 24.0467 39.9373 24.0555C39.9461 24.0555 39.9461 24.0555 39.9549 24.0555C39.9725 24.0555 39.9901 24.0643 40.0077 24.0643C40.0165 24.0643 40.0252 24.0643 40.034 24.0643C40.0428 24.0643 40.0604 24.0643 40.0692 24.0643L42.1346 24.1082C42.1434 24.1082 42.1434 24.1082 42.1522 24.1082C42.5125 24.1082 42.8114 23.8182 42.8202 23.4579C42.8202 23.0887 42.5301 22.7811 42.161 22.7723Z" fill="#A8A8A8"/>
<path d="M41.9326 44.6484H18.0264L13.7373 42.2842L18.0264 39.9199H41.9326C43.2334 39.9199 44.2969 40.9746 44.2969 42.2842C44.2969 43.5937 43.2422 44.6484 41.9326 44.6484Z" fill="#FFCC00"/>
<path d="M39.9375 44.6484V39.9287H41.9326C43.2334 39.9287 44.2969 40.9834 44.2969 42.293C44.2969 43.5938 43.2422 44.6572 41.9326 44.6572H39.9375V44.6484Z" fill="#EE224A"/>
<path d="M18.0352 44.6484V39.9287L13.7373 42.293L18.0352 44.6484Z" fill="#A8A8A8"/>
</svg>
