<svg width="46" height="45" viewBox="0 0 46 45" fill="none" xmlns="http://www.w3.org/2000/svg">
<g clip-path="url(#clip0_8627_3282)">
<g clip-path="url(#clip1_8627_3282)">
<path d="M42.86 16.9248C43.3277 16.9248 43.7068 17.3039 43.7068 17.7716V41.4975C43.7068 43.4318 42.1387 45 40.2043 45H6.5733C4.63893 45 3.0708 43.4318 3.0708 41.4975V17.7716C3.0708 17.3039 3.44991 16.9248 3.91761 16.9248H42.86Z" fill="#B3E5EE"/>
<path d="M5.63818 16.9248V40.8638C5.63818 42.4483 6.92677 43.7372 8.51077 43.7372H38.3573C39.9413 43.7372 41.2299 42.4482 41.2299 40.8638V16.9248H5.63818Z" fill="#86D7E5"/>
<path d="M38.6964 15.2139H8.17162C7.77356 15.2139 7.45166 15.5367 7.45166 15.9347V37.5943L17.2884 41.1873L23.434 41.8941L38.1635 39.2352L39.4164 37.5943V15.9347C39.4164 15.5367 39.0945 15.2139 38.6964 15.2139Z" fill="#F9F7F7"/>
<path d="M22.7539 15.2139H24.114V41.924H22.7539V15.2139Z" fill="#F8F3F2"/>
<path d="M15.0405 15.2139L19.0292 21.4235V21.9052C19.0292 22.7029 19.4267 23.4091 20.0335 23.8375V24.595C20.0335 26.1801 21.3231 27.4697 22.9082 27.4697H23.9604C25.5455 27.4697 26.8351 26.1801 26.8351 24.595V23.8375C27.442 23.4091 27.8394 22.7029 27.8394 21.9052V21.4235L31.8281 15.2139H15.0405Z" fill="#F8F3F2"/>
<path d="M11.2267 38.3584V15.2139H8.17162C7.77356 15.2139 7.45166 15.5367 7.45166 15.9347V37.5943L11.3492 39.0179C11.2713 38.8127 11.2267 38.591 11.2267 38.3584Z" fill="#F8F3F2"/>
<path d="M23.434 41.8945V41.9245H8.51074C7.92589 41.9245 7.45166 41.4502 7.45166 40.8645V37.5947H19.1342C21.509 37.5947 23.434 39.5198 23.434 41.8945Z" fill="#F2EAE7"/>
<path d="M39.4165 37.5947V40.8645C39.4165 41.4502 38.9422 41.9245 38.3574 41.9245H23.4341V41.8945C23.4341 39.5198 25.3591 37.5947 27.7339 37.5947H39.4165Z" fill="#F2EAE7"/>
<path d="M25.4747 21.8213H21.3936V24.5949C21.3936 25.4312 22.0716 26.1093 22.908 26.1093H23.9602C24.7967 26.1093 25.4747 25.4312 25.4747 24.5949V21.8213Z" fill="#A59CA6"/>
<path d="M25.4747 21.8213H22.561H22.2162H21.3936V24.5949C21.3936 25.4312 22.0716 26.1093 22.908 26.1093H23.9602C24.5463 26.1093 25.0537 25.7757 25.3055 25.2885C25.2471 25.2953 25.1879 25.2999 25.1276 25.2999H24.0754C23.4101 25.2999 22.8456 24.8705 22.6427 24.2738C22.5663 24.0494 22.7327 23.816 22.9698 23.816H25.4747V21.8213H25.4747Z" fill="#8F8390"/>
<path d="M32.478 9.0442C32.478 4.04918 28.4288 0 23.4338 0C18.4389 0 14.3896 4.04918 14.3896 9.0442C14.3896 10.982 14.9993 12.7772 16.037 14.2491L20.389 21.0242V21.9052C20.389 22.4598 20.8386 22.9095 21.3933 22.9095H25.4744C26.0291 22.9095 26.4787 22.4598 26.4787 21.9052V21.0242L30.8307 14.2491C31.8682 12.7772 32.478 10.982 32.478 9.0442Z" fill="#FBE88C"/>
<path d="M19.851 15.4031C18.7661 13.8121 18.1286 11.8714 18.1286 9.77667C18.1286 5.11661 21.2815 1.2184 25.5025 0.238022C24.8379 0.0823329 24.1459 0 23.4338 0C18.4389 0 14.3896 4.04918 14.3896 9.0442C14.3896 10.982 14.9993 12.7772 16.037 14.2491L20.389 21.0242V21.9052C20.389 22.4598 20.8386 22.9095 21.3933 22.9095H23.978L19.851 15.4031Z" fill="#FBE372"/>
<path d="M24.0299 22.9092H25.3902L25.8636 14.8776H26.6383C27.7469 14.8776 28.6487 13.9758 28.6487 12.8673V12.7848C28.6487 11.6763 27.7469 10.7744 26.6383 10.7744C25.5755 10.7744 24.694 11.6055 24.6314 12.6665L24.5812 13.5175H22.1964L22.1463 12.6665C22.0838 11.6055 21.2022 10.7744 20.1394 10.7744C19.0308 10.7744 18.1289 11.6763 18.1289 12.7848V12.8673C18.1289 13.9758 19.0308 14.8776 20.1394 14.8776H20.9141L21.3873 22.9089C21.3894 22.9089 21.3915 22.9092 21.3936 22.9092H22.7478C22.7478 22.8958 22.2766 14.8776 22.2766 14.8776H24.5011C24.5012 14.8775 24.0299 22.8958 24.0299 22.9092ZM25.9892 12.7465C26.0094 12.4033 26.2946 12.1344 26.6383 12.1344C26.9969 12.1344 27.2886 12.4261 27.2886 12.7847V12.8672C27.2886 13.2257 26.9969 13.5174 26.6383 13.5174H25.9437L25.9892 12.7465ZM20.1394 13.5174C19.7808 13.5174 19.4891 13.2257 19.4891 12.8672V12.7847C19.4891 12.4261 19.7808 12.1344 20.1394 12.1344C20.4833 12.1344 20.7684 12.4033 20.7886 12.7465L20.834 13.5174H20.1394Z" fill="#F9DE58"/>
<path d="M35.3464 4.48421C35.1575 4.48421 34.9695 4.40596 34.835 4.25281C34.5872 3.97062 34.6152 3.54083 34.8974 3.2931L36.3812 1.99028C36.6635 1.74256 37.0932 1.7704 37.3409 2.05267C37.5888 2.33485 37.5608 2.76465 37.2786 3.01237L35.7948 4.31519C35.6657 4.42853 35.5057 4.48421 35.3464 4.48421Z" fill="#FBE88C"/>
<path d="M36.8296 10.0576C36.6703 10.0576 36.5104 10.002 36.3812 9.88857L34.8973 8.58566C34.6152 8.33784 34.5872 7.90813 34.8351 7.62595C35.0829 7.34377 35.5126 7.31566 35.7948 7.56357L37.2786 8.86648C37.5607 9.11429 37.5887 9.544 37.3409 9.82618C37.2065 9.97933 37.0185 10.0576 36.8296 10.0576Z" fill="#FBE88C"/>
<path d="M11.5215 4.48425C11.3622 4.48425 11.2022 4.42867 11.0731 4.31523L9.58929 3.01241C9.30702 2.76469 9.27918 2.33489 9.5269 2.05271C9.77463 1.77053 10.2044 1.74242 10.4866 1.99033L11.9704 3.29314C12.2527 3.54087 12.2805 3.97067 12.0328 4.25285C11.8984 4.406 11.7104 4.48425 11.5215 4.48425Z" fill="#FBE88C"/>
<path d="M10.0383 10.0575C9.84939 10.0575 9.66142 9.97929 9.52695 9.82614C9.27913 9.54396 9.30706 9.11425 9.58924 8.86643L11.073 7.56353C11.3553 7.3158 11.785 7.34364 12.0328 7.62591C12.2806 7.90809 12.2526 8.3378 11.9705 8.58561L10.4867 9.88852C10.3576 10.0019 10.1976 10.0575 10.0383 10.0575Z" fill="#FBE88C"/>
<path d="M16.7369 23.5896H10.038C9.6624 23.5896 9.35791 23.2852 9.35791 22.9096C9.35791 22.5339 9.6624 22.2295 10.038 22.2295H16.7369C17.1125 22.2295 17.417 22.5339 17.417 22.9096C17.417 23.2852 17.1125 23.5896 16.7369 23.5896Z" fill="#F2EAE7"/>
<path d="M18.8087 27.0486H11.2665C10.8909 27.0486 10.5864 26.7442 10.5864 26.3685C10.5864 25.9929 10.8909 25.6885 11.2665 25.6885H18.8087C19.1843 25.6885 19.4888 25.9929 19.4888 26.3685C19.4888 26.7442 19.1843 27.0486 18.8087 27.0486Z" fill="#F2EAE7"/>
<path d="M18.8087 30.3621H11.2665C10.8909 30.3621 10.5864 30.0577 10.5864 29.682C10.5864 29.3063 10.8909 29.002 11.2665 29.002H18.8087C19.1843 29.002 19.4888 29.3063 19.4888 29.682C19.4888 30.0577 19.1843 30.3621 18.8087 30.3621Z" fill="#F2EAE7"/>
<path d="M18.8087 33.6756H11.2665C10.8909 33.6756 10.5864 33.3712 10.5864 32.9955C10.5864 32.6198 10.8909 32.3154 11.2665 32.3154H18.8087C19.1843 32.3154 19.4888 32.6198 19.4888 32.9955C19.4888 33.3712 19.1843 33.6756 18.8087 33.6756Z" fill="#F2EAE7"/>
<path d="M36.8302 23.5896H30.1312C29.7557 23.5896 29.4512 23.2852 29.4512 22.9096C29.4512 22.5339 29.7557 22.2295 30.1312 22.2295H36.8302C37.2058 22.2295 37.5103 22.5339 37.5103 22.9096C37.5103 23.2852 37.2058 23.5896 36.8302 23.5896Z" fill="#F2EAE7"/>
<path d="M35.6012 27.0486H28.059C27.6834 27.0486 27.3789 26.7442 27.3789 26.3685C27.3789 25.9929 27.6834 25.6885 28.059 25.6885H35.6012C35.9768 25.6885 36.2813 25.9929 36.2813 26.3685C36.2813 26.7442 35.9769 27.0486 35.6012 27.0486Z" fill="#F2EAE7"/>
<path d="M35.6012 30.3621H28.059C27.6834 30.3621 27.3789 30.0577 27.3789 29.682C27.3789 29.3063 27.6834 29.002 28.059 29.002H35.6012C35.9768 29.002 36.2813 29.3063 36.2813 29.682C36.2813 30.0577 35.9769 30.3621 35.6012 30.3621Z" fill="#F2EAE7"/>
<path d="M35.6012 33.6756H28.059C27.6834 33.6756 27.3789 33.3712 27.3789 32.9955C27.3789 32.6198 27.6834 32.3154 28.059 32.3154H35.6012C35.9768 32.3154 36.2813 32.6198 36.2813 32.9955C36.2813 33.3712 35.9769 33.6756 35.6012 33.6756Z" fill="#F2EAE7"/>
<path d="M23.7728 40.2178C23.5548 40.7326 23.4341 41.2988 23.4341 41.8932V41.9231H38.3574C38.9422 41.9231 39.4165 41.4489 39.4165 40.8631V40.2179H23.7728V40.2178Z" fill="#EDE2DD"/>
<path d="M13.087 40.2182C12.0596 40.2182 11.2267 39.3853 11.2267 38.3579V37.5938H7.45166V40.8635C7.45166 41.4493 7.92589 41.9235 8.51074 41.9235H23.434V41.8936C23.434 41.2992 23.3134 40.7331 23.0954 40.2182H13.087Z" fill="#EDE2DD"/>
</g>
</g>
<defs>
<clipPath id="clip0_8627_3282">
<rect width="45" height="45" fill="white" transform="translate(0.888672)"/>
</clipPath>
<clipPath id="clip1_8627_3282">
<rect width="45" height="45" fill="white" transform="translate(0.888672)"/>
</clipPath>
</defs>
</svg>
