<svg width="22" height="23" viewBox="0 0 22 23" fill="none" xmlns="http://www.w3.org/2000/svg">
<path d="M18.6381 10.8714H17.9489C18.3014 9.2615 18.3145 7.97292 18.2956 7.33798L18.2851 6.98379L17.9474 6.87636C16.9498 6.559 16.0805 6.24388 15.3367 5.92441L15.2422 5.88383H15.2254C13.0673 4.97601 11.8936 4.12913 11.3267 3.63981L11 3.35782L10.6733 3.63981C10.1063 4.12922 8.93241 4.97622 6.77393 5.89095H6.75983L6.66692 5.92999C5.92018 6.24375 5.05656 6.55924 4.05359 6.87605L3.71849 6.9819L3.70458 7.33304C3.67418 8.10037 3.71297 9.79377 4.29926 11.8504L4.29942 11.851C5.32604 15.4367 7.49181 18.4349 10.7069 20.7611L11.0005 20.9735L11.2937 20.7607C14.5076 18.428 16.6734 15.4377 17.7003 11.852C17.7804 11.5745 17.8502 11.3036 17.9108 11.0407L18.1147 11.4443C18.0893 11.5417 18.0625 11.6404 18.0346 11.7432C18.0225 11.7878 18.0102 11.8332 17.9977 11.8795C17.8997 12.226 17.7885 12.5829 17.6504 12.9588L17.4034 13.6312H18.1198H19.8907C19.9794 13.6312 20.0386 13.6972 20.0386 13.7725C20.0386 13.8442 19.9758 13.9138 19.8907 13.9138H17.5942H17.2744L17.1403 14.2042C16.6583 15.2482 16.0153 16.355 15.1479 17.4697L14.5199 18.2768H15.5425H18.2493H18.6009L18.7199 17.9459C18.9177 17.3957 19.4402 17.0014 20.0635 17.0014C20.8649 17.0014 21.5 17.6374 21.5 18.418C21.5 19.1975 20.8589 19.8347 20.0635 19.8347C19.4402 19.8347 18.9177 19.4404 18.7199 18.8901L18.6009 18.5593H18.2493H14.4411H14.2259L14.078 18.7155C13.2437 19.5968 12.2622 20.4642 11.0834 21.2767L11.0833 21.2766L11.0734 21.2838C11.0626 21.2917 11.0395 21.3024 11 21.3024C10.9605 21.3024 10.9374 21.2917 10.9266 21.2838L10.9266 21.2837L10.9166 21.2767C9.73782 20.4642 8.75629 19.5968 7.92199 18.7155L7.77407 18.5593H7.5589H3.75065H3.39906L3.28013 18.8901C3.08234 19.4404 2.55976 19.8347 1.93652 19.8347C1.13514 19.8347 0.5 19.1987 0.5 18.418C0.5 17.6386 1.14112 17.0014 1.93652 17.0014C2.55976 17.0014 3.08234 17.3957 3.28013 17.9459L3.39906 18.2768H3.75065H6.45746H7.4801L6.85206 17.4697C5.98417 16.3544 5.33448 15.2407 4.86034 14.2055L4.7267 13.9138H4.40576H2.10929C2.02061 13.9138 1.96139 13.8478 1.96139 13.7725C1.96139 13.7008 2.02417 13.6312 2.10929 13.6312H3.88743H4.59154L4.35951 12.9665C4.22418 12.5788 4.10547 12.2189 4.0086 11.8765L4.00869 11.8765L4.00599 11.8676C3.94581 11.669 3.89849 11.4755 3.84767 11.2671L3.75462 10.8856H3.36191H0.647906C0.559223 10.8856 0.5 10.8196 0.5 10.7444C0.5 10.6727 0.562785 10.6031 0.647906 10.6031H3.09555H3.68244L3.5892 10.0237C3.29629 8.20335 3.42334 6.96266 3.43407 6.85998C3.4403 6.81214 3.47841 6.76505 3.53046 6.7499L3.53046 6.74993L3.53588 6.74829C4.53434 6.44533 5.398 6.14127 6.15506 5.83574L6.46793 5.70947V5.37207V3.79744V3.29744H5.96793H3.75065H3.39906L3.28013 3.6283C3.08234 4.17855 2.55976 4.57282 1.93652 4.57282C1.13514 4.57282 0.5 3.93682 0.5 3.15618C0.5 2.37191 1.1388 1.73955 1.91492 1.73955C2.53816 1.73955 3.06074 2.13382 3.25853 2.68406L3.37747 3.01493H3.72906H6.59424C6.6793 3.01493 6.74215 3.08445 6.74215 3.15618V4.80919V5.59365L7.45325 5.26244C8.70608 4.67893 9.54287 4.14298 10.0743 3.74256C10.34 3.5424 10.5294 3.3761 10.6563 3.25469C10.7197 3.19404 10.7678 3.14428 10.8022 3.10675C10.8193 3.0881 10.8338 3.07173 10.8455 3.05794C10.8497 3.05295 10.8542 3.0475 10.8588 3.04182C10.8995 2.99859 10.9492 2.9793 10.9928 2.9793C11.0393 2.9793 11.0815 3.00013 11.1098 3.03638L11.1295 3.06157L11.1522 3.08406C11.1422 3.07412 11.3687 3.34104 11.9033 3.74353C12.4334 4.14274 13.2682 4.67863 14.5174 5.2622L15.2291 5.59462V4.80919V3.14906C15.2291 3.07739 15.2918 3.0078 15.377 3.0078H18.2421H18.5937L18.7127 2.67694C18.9105 2.12669 19.433 1.73242 20.0563 1.73242C20.8577 1.73242 21.4928 2.36842 21.4928 3.14906C21.4928 3.92849 20.8517 4.5657 20.0563 4.5657C19.433 4.5657 18.9105 4.17142 18.7127 3.62118L18.5937 3.29031H18.2421H16.0249H15.5249V3.79031V5.35782V5.69643L15.8393 5.82211C16.6024 6.1271 17.4651 6.43089 18.4559 6.73374L18.4559 6.73378L18.4623 6.73565C18.5144 6.75081 18.5525 6.79794 18.5587 6.84581C18.5695 6.94899 18.6964 8.18952 18.4036 10.0094L18.3104 10.5889H18.8973H21.3521C21.4408 10.5889 21.5 10.6548 21.5 10.7301C21.5 10.8018 21.4372 10.8714 21.3521 10.8714H18.6381ZM21.2114 3.15618C21.2114 2.51535 20.6839 2.01493 20.0635 2.01493C19.4323 2.01493 18.9156 2.51894 18.9156 3.15618C18.9156 3.79343 19.4323 4.29744 20.0635 4.29744C20.6947 4.29744 21.2114 3.79343 21.2114 3.15618ZM0.788613 3.14906C0.788613 3.78989 1.31614 4.29031 1.93652 4.29031C2.56773 4.29031 3.08442 3.78631 3.08442 3.14906C3.08442 2.51181 2.56773 2.0078 1.93652 2.0078C1.30531 2.0078 0.788613 2.51181 0.788613 3.14906ZM0.788613 18.3895C0.788613 19.0304 1.31614 19.5308 1.93652 19.5308C2.57135 19.5308 3.08442 19.016 3.08442 18.3895C3.08442 17.7558 2.56407 17.2554 1.93652 17.2554C1.31268 17.2554 0.788613 17.745 0.788613 18.3895ZM21.2114 18.3895C21.2114 17.7522 20.6802 17.2554 20.0635 17.2554C19.4396 17.2554 18.9156 17.745 18.9156 18.3895C18.9156 19.0268 19.4323 19.5308 20.0635 19.5308C20.6983 19.5308 21.2114 19.016 21.2114 18.3895Z" fill="#E50914" stroke="#E50914"/>
<path d="M13.2561 9.89341V10.3934H13.6674C13.8946 10.5005 14.048 10.7276 14.048 10.9835V14.6387C14.048 14.9989 13.7512 15.3001 13.3746 15.3001H8.63046C8.25382 15.3001 7.95703 14.9989 7.95703 14.6387V10.9835C7.95703 10.703 8.1413 10.4571 8.40505 10.366L8.74172 10.2496V9.89341V9.47303C8.74172 8.25064 9.7512 7.24414 10.9989 7.24414C12.2466 7.24414 13.2561 8.25064 13.2561 9.47303V9.89341ZM12.4675 10.3222H12.9675V9.82216V9.47303C12.9675 8.39562 12.0853 7.51952 10.9989 7.51952C9.92297 7.51952 9.03033 8.38532 9.03033 9.47303V9.82216V10.3222H9.53033H12.4675ZM13.2594 15.0247H13.7594V14.5247V11.0975V10.5975H13.2594H8.74564H8.24564V11.0975V14.5247V15.0247H8.74564H13.2594Z" fill="#E50914" stroke="#E50914"/>
<path d="M10.8516 12.5905C10.8516 12.5188 10.9143 12.4492 10.9995 12.4492C11.0845 12.4492 11.1474 12.5187 11.1474 12.5905V13.0394C11.1474 13.1146 11.0882 13.1806 10.9995 13.1806C10.9144 13.1806 10.8516 13.1111 10.8516 13.0394V12.5905Z" fill="#E50914" stroke="#E50914"/>
</svg>
