<svg width="46" height="45" viewBox="0 0 46 45" fill="none" xmlns="http://www.w3.org/2000/svg">
<g id="passed 1" clip-path="url(#clip0_8133_3704)">
<g id="Group">
<path id="Vector" d="M23.3885 40.9154C33.5592 40.9154 41.8042 32.6704 41.8042 22.4997C41.8042 12.329 33.5592 4.08398 23.3885 4.08398C13.2178 4.08398 4.97278 12.329 4.97278 22.4997C4.97278 32.6704 13.2178 40.9154 23.3885 40.9154Z" fill="#FEE45A"/>
<path id="Vector_2" d="M41.804 22.4997C41.804 32.6708 33.5596 40.9152 23.3885 40.9152C21.4346 40.9152 19.5514 40.6107 17.785 40.047C18.9369 40.2736 20.1269 40.3914 21.344 40.3914C31.5142 40.3914 39.7594 32.1461 39.7594 21.9759C39.7594 13.7596 34.379 6.80044 26.9502 4.42871C35.4166 6.08712 41.804 13.5467 41.804 22.4997Z" fill="#FED402"/>
<path id="Vector_3" d="M23.3886 37.752C31.8123 37.752 38.641 30.9232 38.641 22.4995C38.641 14.0758 31.8123 7.24707 23.3886 7.24707C14.9649 7.24707 8.13611 14.0758 8.13611 22.4995C8.13611 30.9232 14.9649 37.752 23.3886 37.752Z" fill="#FAF7F7"/>
<path id="Vector_4" d="M38.6411 22.4992C38.6411 30.923 31.8124 37.7518 23.3886 37.7518C21.0504 37.7518 18.8355 37.2261 16.8552 36.2854C18.3805 36.7966 20.0127 37.0739 21.7092 37.0739C30.133 37.0739 36.9618 30.2451 36.9618 21.8213C36.9618 15.7348 33.3965 10.4811 28.2408 8.03418C34.2856 10.0616 38.6411 15.772 38.6411 22.4992Z" fill="#EDE1DD"/>
<path id="Vector_5" d="M15.725 14.2656C15.5551 14.2657 15.4556 14.0723 15.5561 13.9353C17.3246 11.5254 20.1773 9.96094 23.3956 9.96094C26.6048 9.96094 29.4507 11.5166 31.2202 13.915C31.3211 14.0518 31.222 14.2455 31.0521 14.2458L15.725 14.2656Z" fill="#FEE45A"/>
<path id="Vector_6" d="M15.725 30.7344C15.5551 30.7341 15.4556 30.9276 15.5561 31.0647C17.3246 33.4745 20.1773 35.039 23.3956 35.039C26.6048 35.039 29.4507 33.4833 31.2202 31.0849C31.3211 30.9481 31.222 30.7544 31.0521 30.7542L15.725 30.7344Z" fill="#FEE45A"/>
<path id="Vector_7" d="M31.2206 31.0845C29.4506 33.4825 26.6049 35.0385 23.3958 35.0385C22.1189 35.0385 20.8999 34.792 19.7834 34.3443C20.2946 34.4277 20.8193 34.4712 21.3549 34.4712C24.458 34.4712 27.2222 33.0166 29.0012 30.751L31.0521 30.7537C31.2224 30.7538 31.3212 30.9477 31.2206 31.0845Z" fill="#FED402"/>
<path id="Vector_8" d="M31.2206 13.915C29.4506 11.517 26.6049 9.96094 23.3958 9.96094C22.1189 9.96094 20.8999 10.2075 19.7834 10.6552C20.2946 10.5718 20.8193 10.5283 21.3549 10.5283C24.458 10.5283 27.2222 11.9829 29.0012 14.2485L31.0521 14.2458C31.2224 14.2458 31.3212 14.0518 31.2206 13.915Z" fill="#FED402"/>
<path id="Vector_9" d="M43.9246 22.8616C43.8206 22.6317 43.8206 22.3682 43.9246 22.1383L45.8094 17.97C46.0721 17.3889 45.6473 16.7305 45.0095 16.7305H1.76753C1.1298 16.7305 0.704936 17.3889 0.967641 17.97L2.85246 22.1383C2.95643 22.3682 2.95643 22.6317 2.85246 22.8616L0.967729 27.0299C0.705023 27.611 1.12989 28.2695 1.76762 28.2695H45.0096C45.6474 28.2695 46.0722 27.611 45.8095 27.0299L43.9246 22.8616Z" fill="#FEA613"/>
<g id="Group_2">
<path id="Vector_10" d="M14.2786 19.5952C14.2763 19.5889 14.2738 19.5828 14.2713 19.5766C14.1467 19.2738 13.8547 19.0781 13.5264 19.0781C13.1987 19.0784 12.9066 19.2746 12.7825 19.578C12.7804 19.5831 12.7784 19.5883 12.7763 19.5935L10.7176 24.9991C10.5838 25.3502 10.7601 25.7432 11.1112 25.877C11.4622 26.0106 11.8553 25.8345 11.9891 25.4833L12.335 24.5752H14.7036L15.0456 25.4814C15.1483 25.7538 15.4073 25.9216 15.6821 25.9217C16.1499 25.9218 16.4836 25.4382 16.3185 25.0011L14.2786 19.5952ZM12.8533 23.2146L13.5248 21.4513L14.1902 23.2146H12.8533Z" fill="#E57505"/>
<path id="Vector_11" d="M33.9203 20.4887C34.2961 20.4887 34.6006 20.184 34.6006 19.8083C34.6006 19.4326 34.2961 19.1279 33.9203 19.1279H31.6312C31.2553 19.1279 30.9508 19.4326 30.9508 19.8083V25.241C30.9508 25.6167 31.2553 25.9213 31.6312 25.9213H33.9203C34.2961 25.9213 34.6006 25.6167 34.6006 25.241C34.6006 24.8653 34.2961 24.5606 33.9203 24.5606H32.3115V23.2049H33.7514C34.1272 23.2049 34.4318 22.9003 34.4318 22.5246C34.4318 22.1488 34.1273 21.8442 33.7514 21.8442H32.3115V20.4885H33.9203V20.4887Z" fill="#E57505"/>
<path id="Vector_12" d="M38.3453 19.2402H36.8384C36.6578 19.2402 36.4846 19.312 36.3569 19.4399C36.2294 19.5678 36.1577 19.7411 36.1581 19.9218L36.1688 25.2435C36.1694 25.424 36.2418 25.5968 36.3698 25.7239C36.4973 25.8505 36.6696 25.9214 36.8492 25.9214H36.8517C36.8972 25.9212 37.9719 25.9171 38.4012 25.9096C40.008 25.8816 41.1743 24.4816 41.1743 22.5809C41.1743 20.5827 40.0374 19.2402 38.3453 19.2402ZM38.3775 24.5492C38.1819 24.5526 37.839 24.5553 37.5272 24.5573C37.5251 23.9294 37.521 21.2542 37.5199 20.6009H38.3452C38.5905 20.6009 39.8135 20.6963 39.8135 22.5809C39.8136 23.5481 39.3695 24.5319 38.3775 24.5492Z" fill="#E57505"/>
<path id="Vector_13" d="M21.4847 21.9047C20.8104 21.656 20.1827 21.3851 19.991 21.3011C19.8393 21.1796 19.8443 21.01 19.8545 20.9393C19.8684 20.8416 19.9395 20.6028 20.2941 20.4959C21.0687 20.2627 21.7854 20.8279 21.8075 20.8456C22.095 21.0841 22.5218 21.0463 22.7626 20.7597C23.0044 20.4722 22.9672 20.043 22.6796 19.8012C22.6279 19.7578 21.3968 18.7427 19.9017 19.1931C19.1468 19.4206 18.6126 20.0156 18.5077 20.7459C18.4093 21.4311 18.7063 22.0903 19.2828 22.4661C19.3129 22.4857 19.3443 22.5029 19.3771 22.5176C19.4089 22.5317 20.1637 22.8677 21.0139 23.1814C21.2555 23.2705 21.8094 23.5221 21.7359 23.9334C21.6809 24.2418 21.3058 24.5608 20.7733 24.5608C20.2269 24.5608 19.7012 24.3406 19.3668 23.9716C19.1144 23.6932 18.684 23.6722 18.4058 23.9244C18.1273 24.1768 18.1061 24.607 18.3585 24.8854C18.9466 25.5342 19.8493 25.9216 20.7733 25.9216C21.9263 25.9216 22.8944 25.186 23.0754 24.1725C23.2115 23.41 22.8652 22.4138 21.4847 21.9047Z" fill="#E57505"/>
<path id="Vector_14" d="M27.8691 21.9046C27.1948 21.6559 26.567 21.385 26.3753 21.3011C26.2236 21.1795 26.2286 21.0099 26.2388 20.9392C26.2527 20.8415 26.3237 20.6027 26.6783 20.4959C27.4523 20.2626 28.1696 20.828 28.1918 20.8456C28.4793 21.0842 28.9061 21.0463 29.1469 20.7598C29.3887 20.4722 29.3515 20.043 29.0639 19.8012C29.0122 19.7579 27.7817 18.7427 26.286 19.1931C25.531 19.4206 24.9968 20.0156 24.892 20.746C24.7936 21.4312 25.0907 22.0903 25.6671 22.4662C25.6972 22.4858 25.7287 22.5029 25.7614 22.5176C25.7932 22.5317 26.5481 22.8677 27.3982 23.1814C27.6398 23.2705 28.1937 23.5222 28.1202 23.9334C28.0651 24.2419 27.69 24.561 27.1575 24.561C26.6113 24.561 26.0855 24.3407 25.7511 23.9717C25.4987 23.6933 25.0683 23.6723 24.7902 23.9245C24.5117 24.1769 24.4905 24.6071 24.7429 24.8855C25.331 25.5343 26.2337 25.9217 27.1576 25.9217C28.3106 25.9217 29.2788 25.1861 29.4598 24.1726C29.5958 23.4099 29.2495 22.4138 27.8691 21.9046Z" fill="#E57505"/>
<path id="Vector_15" d="M7.81021 19.0781H6.28355C6.07023 19.0781 5.87608 19.1754 5.74706 19.3411C5.65601 19.458 5.60327 19.6099 5.60327 19.7584V25.2411C5.60327 25.6168 5.90781 25.9215 6.28363 25.9215C6.65945 25.9215 6.96399 25.6168 6.96399 25.2411V23.5362C7.27249 23.5346 7.61359 23.5331 7.81029 23.5331C9.05526 23.5331 10.0681 22.5339 10.0681 21.3055C10.068 20.0774 9.05509 19.0781 7.81021 19.0781ZM7.81021 22.1726C7.61491 22.1726 7.27794 22.1741 6.97076 22.1756C6.96918 21.8579 6.96769 21.5064 6.96769 21.3056C6.96769 21.1355 6.96681 20.7713 6.96593 20.4388H7.81021C8.2965 20.4388 8.70739 20.8358 8.70739 21.3056C8.7073 21.7756 8.2965 22.1726 7.81021 22.1726Z" fill="#E57505"/>
</g>
<path id="Vector_16" d="M45.8097 27.0293C46.0725 27.6112 45.6475 28.2691 45.0095 28.2691H42.8381C43.4761 28.2691 43.9011 27.6112 43.6383 27.0293L41.7532 22.8614C41.649 22.6312 41.649 22.3684 41.7532 22.1382L43.6383 17.9703C43.9011 17.3884 43.4761 16.7305 42.8381 16.7305H45.0095C45.6475 16.7305 46.0725 17.3884 45.8097 17.9703L43.9247 22.1382C43.8204 22.3684 43.8204 22.6312 43.9247 22.8614L45.8097 27.0293Z" fill="#FB8801"/>
</g>
</g>
<defs>
<clipPath id="clip0_8133_3704">
<rect width="45" height="45" fill="white" transform="translate(0.888672)"/>
</clipPath>
</defs>
</svg>
