<svg width="45" height="45" viewBox="0 0 45 45" fill="none" xmlns="http://www.w3.org/2000/svg">
<path fill-rule="evenodd" clip-rule="evenodd" d="M15.8711 32.791H29.13V40.3433H15.8711V32.791Z" fill="#A79BA7"/>
<path fill-rule="evenodd" clip-rule="evenodd" d="M28.1016 32.791H29.1298V40.3433H28.1016V32.791Z" fill="#837683"/>
<path fill-rule="evenodd" clip-rule="evenodd" d="M8.16797 43.5641H36.8316V41.3543C36.8316 40.1389 35.5871 39.1445 34.0659 39.1445H10.9337C9.4125 39.1445 8.16797 40.1389 8.16797 41.3543V43.5641Z" fill="#9FACBA"/>
<path fill-rule="evenodd" clip-rule="evenodd" d="M8.16797 43.5642H36.8316V41.3544C36.8316 40.6321 36.392 39.9878 35.7161 39.584C35.868 39.8571 35.9527 40.1587 35.9527 40.4755V42.6853H8.16797V43.5642Z" fill="#8D9CA8"/>
<path fill-rule="evenodd" clip-rule="evenodd" d="M4.6495 5.19336H40.3506C42.1343 5.19336 43.5938 6.65287 43.5938 8.43661V30.7483C43.5938 32.532 42.1344 33.9915 40.3506 33.9915H4.6495C2.86576 33.9915 1.40625 32.5321 1.40625 30.7483V8.43661C1.40625 6.65278 2.86567 5.19336 4.6495 5.19336Z" fill="#9FACBA"/>
<path fill-rule="evenodd" clip-rule="evenodd" d="M42.159 5.74805C43.0226 6.33234 43.5931 7.32076 43.5931 8.43609V30.7477C43.5931 32.5315 42.1336 33.991 40.3499 33.991H4.6489C3.53365 33.991 2.54523 33.4205 1.96094 32.5569C2.47853 32.907 3.10149 33.112 3.76999 33.112H39.4711C41.2548 33.112 42.7143 31.6526 42.7143 29.8688V7.5571C42.7142 6.8886 42.5092 6.26572 42.159 5.74805Z" fill="#8D9CA8"/>
<path fill-rule="evenodd" clip-rule="evenodd" d="M4.56896 7.90625H40.4327C40.6801 7.90625 40.8826 8.10884 40.8826 8.35599V28.5527H4.11914V8.35607C4.11914 8.10866 4.32155 7.90625 4.56896 7.90625Z" fill="#D8ECFE"/>
<path fill-rule="evenodd" clip-rule="evenodd" d="M38.6738 7.90625H40.4317C40.6791 7.90625 40.8816 8.10884 40.8816 8.35607V28.5526H39.1237V8.35607C39.1237 8.10875 38.9212 7.90625 38.6738 7.90625Z" fill="#C4E2FF"/>
<path fill-rule="evenodd" clip-rule="evenodd" d="M7.6717 18.1321C8.06 18.1321 8.37482 18.4469 8.37482 18.8352C8.37482 19.2235 8.06 19.5383 7.6717 19.5383H6.79297C6.40467 19.5383 6.08984 19.2235 6.08984 18.8352C6.08984 18.4469 6.40467 18.1321 6.79297 18.1321H7.6717ZM16.3368 21.0026C16.7251 21.0026 17.04 21.3175 17.04 21.7058C17.04 22.0941 16.7251 22.4089 16.3368 22.4089H9.49903C9.11073 22.4089 8.79591 22.0941 8.79591 21.7058C8.79591 21.3175 9.11073 21.0026 9.49903 21.0026H16.3368ZM7.6717 21.0026C8.06 21.0026 8.37482 21.3175 8.37482 21.7058C8.37482 22.0941 8.06 22.4089 7.6717 22.4089H6.79297C6.40467 22.4089 6.08984 22.0941 6.08984 21.7058C6.08984 21.3175 6.40467 21.0026 6.79297 21.0026H7.6717ZM16.3368 15.2617C16.7251 15.2617 17.04 15.5765 17.04 15.9648C17.04 16.3531 16.7251 16.668 16.3368 16.668H9.49903C9.11073 16.668 8.79591 16.3531 8.79591 15.9648C8.79591 15.5765 9.11073 15.2617 9.49903 15.2617H16.3368ZM7.6717 15.2617C8.06 15.2617 8.37482 15.5765 8.37482 15.9648C8.37482 16.3531 8.06 16.668 7.6717 16.668H6.79297C6.40467 16.668 6.08984 16.3531 6.08984 15.9648C6.08984 15.5765 6.40467 15.2617 6.79297 15.2617H7.6717ZM16.3368 18.1321C16.7251 18.1321 17.04 18.4469 17.04 18.8352C17.04 19.2235 16.7251 19.5383 16.3368 19.5383H9.49903C9.11073 19.5383 8.79591 19.2235 8.79591 18.8352C8.79591 18.4469 9.11073 18.1321 9.49903 18.1321H16.3368Z" fill="#A79BA7"/>
<path fill-rule="evenodd" clip-rule="evenodd" d="M33.0593 10.957L34.5426 11.7651V16.0338L33.0593 14.9813L31.5762 16.0338V11.7651L33.0593 10.957Z" fill="#FFE177"/>
<path fill-rule="evenodd" clip-rule="evenodd" d="M32.3574 4.67188H33.7637V13.0007H32.3574V4.67188Z" fill="#FFE177"/>
<path fill-rule="evenodd" clip-rule="evenodd" d="M34.5426 15.5401V16.0342L33.0594 14.9818L33.4076 14.7347L34.5426 15.5401ZM32.2725 15.5401L31.5762 16.0342V11.7655L32.3563 11.3406V4.67188H33.0526V11.3405L32.2725 11.7654V15.5401Z" fill="#FFD064"/>
<path fill-rule="evenodd" clip-rule="evenodd" d="M22.501 4.13086L30.8262 4.33564V11.741C30.8262 12.0938 30.58 12.3898 30.233 12.4537C21.2076 14.1253 23.7943 14.1253 14.769 12.4537C14.4221 12.3898 14.1758 12.0938 14.1758 11.741V4.33564L22.501 4.13086Z" fill="#837683"/>
<path fill-rule="evenodd" clip-rule="evenodd" d="M30.8262 10.4464V11.7416C30.8262 12.0944 30.58 12.3902 30.233 12.4542C21.2076 14.1257 23.7943 14.1257 14.769 12.4542C14.4221 12.3902 14.1758 12.0944 14.1758 11.7416V4.3361L15.2938 4.30859V11.2568C23.6942 12.8297 21.3877 12.7972 30.233 11.1591C30.58 11.0951 30.8262 10.7992 30.8262 10.4464Z" fill="#685E68"/>
<path fill-rule="evenodd" clip-rule="evenodd" d="M22.5003 1.4375L34.1471 4.53125C34.2904 4.56939 34.2904 4.77392 34.1471 4.81197L22.5003 7.90572L10.8536 4.81197C10.7103 4.77392 10.7103 4.56939 10.8536 4.53125L22.5003 1.4375Z" fill="#837683"/>
<path fill-rule="evenodd" clip-rule="evenodd" d="M31.9484 3.94735L34.147 4.53139C34.2902 4.56953 34.2903 4.77414 34.147 4.8122L22.5002 7.90586L10.8536 4.81211C10.7102 4.77405 10.7103 4.56944 10.8536 4.5313L13.0522 3.94727L22.5003 6.45698L31.9484 3.94735Z" fill="#685E68"/>
<path fill-rule="evenodd" clip-rule="evenodd" d="M41.5562 22.3301C42.678 22.3301 43.5931 23.2451 43.5931 24.3669V38.4432C43.5931 39.0041 43.3931 39.4868 42.9965 39.8834L39.9122 42.9677C39.5156 43.3643 39.0329 43.5643 38.4719 43.5643H20.3728C19.251 43.5643 18.3359 42.6493 18.3359 41.5274V24.3669C18.3359 23.2451 19.2509 22.3301 20.3728 22.3301H41.5562Z" fill="#ECEFF1"/>
<path fill-rule="evenodd" clip-rule="evenodd" d="M41.5553 22.3301C42.6771 22.3301 43.5921 23.2451 43.5921 24.3669V38.4432C43.5921 39.0041 43.3922 39.4868 42.9955 39.8834H42.0134V38.4432V35.0785V24.3669C42.0134 23.2451 41.0984 22.3301 39.9766 22.3301H41.5553Z" fill="#D1D1D6"/>
<path fill-rule="evenodd" clip-rule="evenodd" d="M39.3164 39.7963V43.388C39.5327 43.2892 39.7319 43.1491 39.913 42.968L42.9973 39.8837C43.1784 39.7026 43.3185 39.5034 43.4173 39.2871H39.8256C39.5451 39.2871 39.3164 39.5159 39.3164 39.7963Z" fill="#D1D1D6"/>
<path fill-rule="evenodd" clip-rule="evenodd" d="M42.0137 40.8657L42.9958 39.8837C43.1769 39.7026 43.317 39.5034 43.4158 39.2871H42.0137V40.8657Z" fill="#B1B1B5"/>
<path fill-rule="evenodd" clip-rule="evenodd" d="M18.3359 26.7752H43.5931V24.3669C43.5931 23.2451 42.678 22.3301 41.5562 22.3301C34.5451 22.3301 27.384 22.3301 20.3728 22.3301C19.251 22.3301 18.3359 23.2451 18.3359 24.3669V26.7752Z" fill="#D1D1D6"/>
<path fill-rule="evenodd" clip-rule="evenodd" d="M42.0154 26.7752H43.594V24.3669C43.594 23.2451 42.679 22.3301 41.5571 22.3301H39.9785C41.1004 22.3301 42.0154 23.2451 42.0154 24.3669V26.7752Z" fill="#B1B1B5"/>
<path fill-rule="evenodd" clip-rule="evenodd" d="M24.289 29.8691H22.3641C22.0742 29.8691 21.8379 30.1055 21.8379 30.3953V32.3201C21.8379 32.61 22.0742 32.8463 22.3641 32.8463H24.289C24.5788 32.8463 24.8152 32.61 24.8152 32.3201V30.3953C24.8152 30.1055 24.5788 29.8691 24.289 29.8691Z" fill="#FE646F"/>
<path fill-rule="evenodd" clip-rule="evenodd" d="M24.2869 29.8691V31.7939C24.2869 32.0837 24.0506 32.3201 23.7607 32.3201H21.8359C21.8359 32.61 22.0723 32.8463 22.3621 32.8463H24.287C24.5768 32.8463 24.8132 32.61 24.8132 32.3201V30.3953C24.8131 30.1055 24.5768 29.8691 24.2869 29.8691Z" fill="#FD4755"/>
<path fill-rule="evenodd" clip-rule="evenodd" d="M28.1073 29.8691H26.1825C25.8927 29.8691 25.6562 30.1055 25.6562 30.3953V32.3201C25.6562 32.61 25.8926 32.8463 26.1825 32.8463H28.1073C28.3972 32.8463 28.6335 32.61 28.6335 32.3201V30.3953C28.6335 30.1055 28.3972 29.8691 28.1073 29.8691Z" fill="#8AC9FE"/>
<path fill-rule="evenodd" clip-rule="evenodd" d="M28.1073 29.8691V31.7939C28.1073 32.0837 27.8709 32.3201 27.5811 32.3201H25.6562C25.6562 32.61 25.8926 32.8463 26.1825 32.8463H28.1073C28.3972 32.8463 28.6335 32.61 28.6335 32.3201V30.3953C28.6335 30.1055 28.3971 29.8691 28.1073 29.8691Z" fill="#60B7FF"/>
<path fill-rule="evenodd" clip-rule="evenodd" d="M31.9276 29.8691H30.0028C29.7129 29.8691 29.4766 30.1055 29.4766 30.3953V32.3201C29.4766 32.61 29.7129 32.8463 30.0028 32.8463H31.9276C32.2174 32.8463 32.4538 32.61 32.4538 32.3201V30.3953C32.4538 30.1055 32.2174 29.8691 31.9276 29.8691Z" fill="#8AC9FE"/>
<path fill-rule="evenodd" clip-rule="evenodd" d="M31.9276 29.8691V31.7939C31.9276 32.0837 31.6912 32.3201 31.4014 32.3201H29.4766C29.4766 32.61 29.7129 32.8463 30.0028 32.8463H31.9276C32.2174 32.8463 32.4538 32.61 32.4538 32.3201V30.3953C32.4538 30.1055 32.2174 29.8691 31.9276 29.8691Z" fill="#60B7FF"/>
<path fill-rule="evenodd" clip-rule="evenodd" d="M35.7459 29.8691H33.821C33.5313 29.8691 33.2949 30.1055 33.2949 30.3953V32.3201C33.2949 32.61 33.5313 32.8463 33.821 32.8463H35.7459C36.0358 32.8463 36.2721 32.61 36.2721 32.3201V30.3953C36.2721 30.1055 36.0358 29.8691 35.7459 29.8691Z" fill="#8AC9FE"/>
<path fill-rule="evenodd" clip-rule="evenodd" d="M35.7459 29.8691V31.7939C35.7459 32.0837 35.5096 32.3201 35.2197 32.3201H33.2949C33.2949 32.61 33.5313 32.8463 33.821 32.8463H35.7459C36.0358 32.8463 36.2721 32.61 36.2721 32.3201V30.3953C36.2721 30.1055 36.0358 29.8691 35.7459 29.8691Z" fill="#60B7FF"/>
<path fill-rule="evenodd" clip-rule="evenodd" d="M39.5644 29.8691H37.6395C37.3497 29.8691 37.1133 30.1055 37.1133 30.3953V32.3201C37.1133 32.61 37.3497 32.8463 37.6395 32.8463H39.5644C39.8542 32.8463 40.0906 32.61 40.0906 32.3201V30.3953C40.0906 30.1055 39.8542 29.8691 39.5644 29.8691Z" fill="#8AC9FE"/>
<path fill-rule="evenodd" clip-rule="evenodd" d="M39.5644 29.8691V31.7939C39.5644 32.0837 39.3279 32.3201 39.0382 32.3201H37.1133C37.1133 32.61 37.3497 32.8463 37.6395 32.8463H39.5644C39.8542 32.8463 40.0906 32.61 40.0906 32.3201V30.3953C40.0906 30.1055 39.8542 29.8691 39.5644 29.8691Z" fill="#60B7FF"/>
<path fill-rule="evenodd" clip-rule="evenodd" d="M39.5644 33.6895H37.6395C37.3497 33.6895 37.1133 33.9259 37.1133 34.2157V36.1405C37.1133 36.4303 37.3497 36.6667 37.6395 36.6667H39.5644C39.8542 36.6667 40.0906 36.4304 40.0906 36.1405V34.2157C40.0906 33.9258 39.8542 33.6895 39.5644 33.6895Z" fill="#8AC9FE"/>
<path fill-rule="evenodd" clip-rule="evenodd" d="M39.5644 33.6895V35.6143C39.5644 35.9041 39.3279 36.1405 39.0382 36.1405H37.1133C37.1133 36.4303 37.3497 36.6667 37.6395 36.6667H39.5644C39.8542 36.6667 40.0906 36.4304 40.0906 36.1405V34.2157C40.0906 33.9258 39.8542 33.6895 39.5644 33.6895Z" fill="#60B7FF"/>
<path fill-rule="evenodd" clip-rule="evenodd" d="M35.7459 33.6895H33.821C33.5313 33.6895 33.2949 33.9259 33.2949 34.2157V36.1405C33.2949 36.4303 33.5313 36.6667 33.821 36.6667H35.7459C36.0358 36.6667 36.2721 36.4304 36.2721 36.1405V34.2157C36.2721 33.9258 36.0358 33.6895 35.7459 33.6895Z" fill="#8AC9FE"/>
<path fill-rule="evenodd" clip-rule="evenodd" d="M35.7459 33.6895V35.6143C35.7459 35.9041 35.5096 36.1405 35.2197 36.1405H33.2949C33.2949 36.4303 33.5313 36.6667 33.821 36.6667H35.7459C36.0358 36.6667 36.2721 36.4304 36.2721 36.1405V34.2157C36.2721 33.9258 36.0358 33.6895 35.7459 33.6895Z" fill="#60B7FF"/>
<path fill-rule="evenodd" clip-rule="evenodd" d="M31.9276 33.6895H30.0028C29.7129 33.6895 29.4766 33.9259 29.4766 34.2157V36.1405C29.4766 36.4303 29.7129 36.6667 30.0028 36.6667H31.9276C32.2174 36.6667 32.4538 36.4304 32.4538 36.1405V34.2157C32.4538 33.9258 32.2174 33.6895 31.9276 33.6895Z" fill="#8AC9FE"/>
<path fill-rule="evenodd" clip-rule="evenodd" d="M31.9276 33.6895V35.6143C31.9276 35.9041 31.6912 36.1405 31.4014 36.1405H29.4766C29.4766 36.4303 29.7129 36.6667 30.0028 36.6667H31.9276C32.2174 36.6667 32.4538 36.4304 32.4538 36.1405V34.2157C32.4538 33.9258 32.2174 33.6895 31.9276 33.6895Z" fill="#60B7FF"/>
<path fill-rule="evenodd" clip-rule="evenodd" d="M28.1073 33.6895H26.1825C25.8927 33.6895 25.6562 33.9259 25.6562 34.2157V36.1405C25.6562 36.4303 25.8926 36.6667 26.1825 36.6667H28.1073C28.3972 36.6667 28.6335 36.4304 28.6335 36.1405V34.2157C28.6335 33.9258 28.3972 33.6895 28.1073 33.6895Z" fill="#8AC9FE"/>
<path fill-rule="evenodd" clip-rule="evenodd" d="M28.1073 33.6895V35.6143C28.1073 35.9041 27.8709 36.1405 27.5811 36.1405H25.6562C25.6562 36.4303 25.8926 36.6667 26.1825 36.6667H28.1073C28.3972 36.6667 28.6335 36.4304 28.6335 36.1405V34.2157C28.6335 33.9258 28.3971 33.6895 28.1073 33.6895Z" fill="#60B7FF"/>
<path fill-rule="evenodd" clip-rule="evenodd" d="M24.289 33.6895H22.3641C22.0742 33.6895 21.8379 33.9259 21.8379 34.2157V36.1405C21.8379 36.4303 22.0742 36.6667 22.3641 36.6667H24.289C24.5788 36.6667 24.8152 36.4304 24.8152 36.1405V34.2157C24.8152 33.9258 24.5788 33.6895 24.289 33.6895Z" fill="#FE646F"/>
<path fill-rule="evenodd" clip-rule="evenodd" d="M24.2869 33.6895V35.6143C24.2869 35.9041 24.0506 36.1405 23.7607 36.1405H21.8359C21.8359 36.4303 22.0723 36.6667 22.3621 36.6667H24.287C24.5768 36.6667 24.8132 36.4304 24.8132 36.1405V34.2157C24.8131 33.9258 24.5768 33.6895 24.2869 33.6895Z" fill="#FD4755"/>
<path fill-rule="evenodd" clip-rule="evenodd" d="M24.289 37.5078H22.3641C22.0742 37.5078 21.8379 37.7442 21.8379 38.034V39.9589C21.8379 40.2488 22.0742 40.4851 22.3641 40.4851H24.289C24.5788 40.4851 24.8152 40.2488 24.8152 39.9589V38.034C24.8152 37.7442 24.5788 37.5078 24.289 37.5078Z" fill="#FE646F"/>
<path fill-rule="evenodd" clip-rule="evenodd" d="M24.2889 37.5078V39.4326C24.2889 39.7225 24.0526 39.9588 23.7627 39.9588H21.8379C21.8379 40.2487 22.0742 40.485 22.3641 40.485H24.289C24.5788 40.485 24.8152 40.2487 24.8152 39.9588V38.0339C24.8151 37.7441 24.5788 37.5078 24.2889 37.5078Z" fill="#FD4755"/>
<path fill-rule="evenodd" clip-rule="evenodd" d="M28.1073 37.5078H26.1825C25.8927 37.5078 25.6562 37.7442 25.6562 38.034V39.9589C25.6562 40.2488 25.8926 40.4851 26.1825 40.4851H28.1073C28.3972 40.4851 28.6335 40.2488 28.6335 39.9589V38.034C28.6335 37.7442 28.3972 37.5078 28.1073 37.5078Z" fill="#8AC9FE"/>
<path fill-rule="evenodd" clip-rule="evenodd" d="M28.1073 37.5078V39.4326C28.1073 39.7225 27.8709 39.9588 27.5811 39.9588H25.6562C25.6562 40.2487 25.8926 40.485 26.1825 40.485H28.1073C28.3972 40.485 28.6335 40.2487 28.6335 39.9588V38.0339C28.6335 37.7441 28.3971 37.5078 28.1073 37.5078Z" fill="#60B7FF"/>
<path fill-rule="evenodd" clip-rule="evenodd" d="M31.9276 37.5078H30.0028C29.7129 37.5078 29.4766 37.7442 29.4766 38.034V39.9589C29.4766 40.2488 29.7129 40.4851 30.0028 40.4851H31.9276C32.2174 40.4851 32.4538 40.2488 32.4538 39.9589V38.034C32.4538 37.7442 32.2174 37.5078 31.9276 37.5078Z" fill="#8AC9FE"/>
<path fill-rule="evenodd" clip-rule="evenodd" d="M31.9276 37.5078V39.4326C31.9276 39.7225 31.6912 39.9588 31.4014 39.9588H29.4766C29.4766 40.2487 29.7129 40.485 30.0028 40.485H31.9276C32.2174 40.485 32.4538 40.2487 32.4538 39.9588V38.0339C32.4538 37.7441 32.2174 37.5078 31.9276 37.5078Z" fill="#60B7FF"/>
<path fill-rule="evenodd" clip-rule="evenodd" d="M35.7459 37.5078H33.821C33.5313 37.5078 33.2949 37.7442 33.2949 38.034V39.9589C33.2949 40.2488 33.5313 40.4851 33.821 40.4851H35.7459C36.0358 40.4851 36.2721 40.2488 36.2721 39.9589V38.034C36.2721 37.7442 36.0358 37.5078 35.7459 37.5078Z" fill="#8AC9FE"/>
<path fill-rule="evenodd" clip-rule="evenodd" d="M35.7459 37.5078V39.4326C35.7459 39.7225 35.5096 39.9588 35.2197 39.9588H33.2949C33.2949 40.2487 33.5313 40.485 33.821 40.485H35.7459C36.0358 40.485 36.2721 40.2487 36.2721 39.9588V38.0339C36.2721 37.7441 36.0358 37.5078 35.7459 37.5078Z" fill="#60B7FF"/>
<path fill-rule="evenodd" clip-rule="evenodd" d="M21.9663 20.6309H22.976C23.2564 20.6309 23.4852 20.8596 23.4852 21.14V24.2288C23.4852 24.5093 23.2564 24.7381 22.976 24.7381H21.9663C21.6858 24.7381 21.457 24.5093 21.457 24.2288V21.14C21.457 20.8596 21.6858 20.6309 21.9663 20.6309ZM38.9519 20.6309H39.9617C40.2422 20.6309 40.4708 20.8596 40.4708 21.14V24.2288C40.4708 24.5093 40.2421 24.7381 39.9617 24.7381H38.9519C38.6715 24.7381 38.4428 24.5093 38.4428 24.2288V21.14C38.4428 20.8596 38.6715 20.6309 38.9519 20.6309ZM33.2901 20.6309H34.2998C34.5802 20.6309 34.809 20.8596 34.809 21.14V24.2288C34.809 24.5093 34.5803 24.7381 34.2998 24.7381H33.2901C33.0096 24.7381 32.7809 24.5093 32.7809 24.2288V21.14C32.7809 20.8596 33.0096 20.6309 33.2901 20.6309ZM27.6282 20.6309H28.6379C28.9183 20.6309 29.1471 20.8596 29.1471 21.14V24.2288C29.1471 24.5093 28.9183 24.7381 28.6379 24.7381H27.6282C27.3477 24.7381 27.1189 24.5093 27.1189 24.2288V21.14C27.1189 20.8596 27.3477 20.6309 27.6282 20.6309Z" fill="#837683"/>
<path fill-rule="evenodd" clip-rule="evenodd" d="M38.4428 24.2289C38.4428 24.5094 38.6716 24.7382 38.9519 24.7382H39.9617C40.2422 24.7382 40.4708 24.5094 40.4708 24.2289V22.3785V22.3298V21.1401C40.4708 20.8596 40.2421 20.6309 39.9616 20.6309V22.3298V23.7197C39.9616 24.0001 39.7328 24.2289 39.4524 24.2289H38.4428ZM28.1286 24.2289H27.1189C27.1189 24.5094 27.3476 24.7382 27.6281 24.7382H28.6379C28.9183 24.7382 29.1471 24.5094 29.1471 24.2289V22.3298V21.1401C29.1471 20.8596 28.9183 20.6309 28.6379 20.6309V22.3298V23.7197C28.6379 24.0001 28.4091 24.2289 28.1286 24.2289ZM22.976 24.7382C23.2564 24.7382 23.4852 24.5094 23.4852 24.2289V22.3298V21.1401C23.4852 20.8596 23.2564 20.6309 22.976 20.6309V22.3298V23.7197C22.976 24.0001 22.7472 24.2289 22.4667 24.2289H21.457C21.457 24.5094 21.6858 24.7382 21.9663 24.7382H22.976ZM34.2998 24.7382C34.5802 24.7382 34.809 24.5094 34.809 24.2289V22.3298V21.1401C34.809 20.8596 34.5802 20.6309 34.2998 20.6309V22.3298V23.7197C34.2998 24.0001 34.071 24.2289 33.7905 24.2289H32.7809C32.7809 24.5094 33.0096 24.7382 33.2901 24.7382H34.2998Z" fill="#685E68"/>
</svg>
