<svg width="45" height="45" viewBox="0 0 45 45" fill="none" xmlns="http://www.w3.org/2000/svg">
<g clip-path="url(#clip0_9217_2599)">
<path d="M29.0249 1.5966V43.4041C29.0249 43.8993 28.6287 44.2996 28.1403 44.2996H1.07796C0.5896 44.2995 0.193359 43.8993 0.193359 43.4041V1.5966C0.193359 1.10134 0.5896 0.701172 1.07796 0.701172H28.1404C28.6287 0.701172 29.0249 1.10134 29.0249 1.5966Z" fill="#F8F3F1"/>
<path d="M29.0257 18.1436V43.4033C29.0257 43.8986 28.6295 44.2988 28.1411 44.2988H25.2227C20.588 42.095 17.3789 37.3261 17.3789 31.7993C17.379 24.8601 22.4377 19.1169 29.0257 18.1436Z" fill="#E5E1E5"/>
<path d="M29.0253 1.59563V43.4038C29.0253 43.8981 28.6299 44.2992 28.1408 44.2992H24.8477C25.3359 44.2992 25.7322 43.8981 25.7322 43.4038V1.59563C25.7322 1.10133 25.3359 0.700195 24.8477 0.700195H28.1408C28.6299 0.700107 29.0253 1.10133 29.0253 1.59563Z" fill="#E5E1E5"/>
<path d="M8.37862 10.3026H4.95579C4.42793 10.3026 4 9.86939 4 9.33502V5.86993C4 5.33556 4.42793 4.90234 4.95579 4.90234H8.37853C8.90639 4.90234 9.33432 5.33556 9.33432 5.86993V9.33493C9.33432 9.86939 8.90648 10.3026 8.37862 10.3026Z" fill="#35BCC7"/>
<path d="M9.33477 5.86993V9.33476C9.33477 9.86887 8.90658 10.3023 8.37898 10.3023H5.91602C6.44361 10.3023 6.8718 9.86887 6.8718 9.33476V5.86993C6.8718 5.33582 6.44361 4.90234 5.91602 4.90234H8.37898C8.90658 4.90234 9.33477 5.33582 9.33477 5.86993Z" fill="#20ABB9"/>
<path d="M6.63869 8.90615C6.46705 8.90615 6.29532 8.83979 6.16431 8.70725L5.44059 7.9746C5.17866 7.70943 5.17866 7.27947 5.44059 7.01422C5.70261 6.74905 6.12724 6.74905 6.38935 7.01422L6.63869 7.26673L9.46646 4.40395C9.72848 4.13879 10.1531 4.13879 10.4152 4.40395C10.6772 4.66912 10.6772 5.09908 10.4152 5.36433L7.11307 8.70725C6.98206 8.83988 6.81033 8.90615 6.63869 8.90615Z" fill="#FDD330"/>
<path d="M15.3158 8.45867H13.2001C12.8295 8.45867 12.5293 8.15466 12.5293 7.77963C12.5293 7.4046 12.8296 7.10059 13.2001 7.10059H15.3158C15.6864 7.10059 15.9866 7.4046 15.9866 7.77963C15.9867 8.15466 15.6864 8.45867 15.3158 8.45867Z" fill="#C9C0C7"/>
<path d="M25.2173 10.9811H13.2001C12.8295 10.9811 12.5293 10.6771 12.5293 10.3021C12.5293 9.92706 12.8296 9.62305 13.2001 9.62305H25.2173C25.5878 9.62305 25.888 9.92706 25.888 10.3021C25.8881 10.677 25.5878 10.9811 25.2173 10.9811Z" fill="#C9C0C7"/>
<path d="M8.37862 19.1043H4.95579C4.42793 19.1043 4 18.6711 4 18.1367V14.6717C4 14.1373 4.42793 13.7041 4.95579 13.7041H8.37853C8.90639 13.7041 9.33432 14.1373 9.33432 14.6717V18.1367C9.33432 18.6711 8.90648 19.1043 8.37862 19.1043Z" fill="#35BCC7"/>
<path d="M9.33477 14.6717V18.1365C9.33477 18.6706 8.90658 19.1041 8.37898 19.1041H5.91602C6.44361 19.1041 6.8718 18.6706 6.8718 18.1365V14.6717C6.8718 14.1376 6.44361 13.7041 5.91602 13.7041H8.37898C8.90658 13.7041 9.33477 14.1376 9.33477 14.6717Z" fill="#20ABB9"/>
<path d="M6.63868 17.708C6.46704 17.708 6.29531 17.6417 6.16439 17.5091L5.44067 16.7764C5.17865 16.5113 5.17865 16.0813 5.44058 15.8161C5.7026 15.5509 6.12732 15.5508 6.38925 15.8161L6.63868 16.0685L9.46645 13.2057C9.72847 12.9405 10.1531 12.9405 10.4152 13.2057C10.6771 13.4709 10.6771 13.9008 10.4152 14.1661L7.11306 17.509C6.98205 17.6417 6.81032 17.708 6.63868 17.708Z" fill="#FDD330"/>
<path d="M15.3158 17.2604H13.2001C12.8295 17.2604 12.5293 16.9564 12.5293 16.5814C12.5293 16.2064 12.8296 15.9023 13.2001 15.9023H15.3158C15.6864 15.9023 15.9866 16.2064 15.9866 16.5814C15.9866 16.9564 15.6864 17.2604 15.3158 17.2604Z" fill="#C9C0C7"/>
<path d="M25.2173 19.7829H13.2001C12.8295 19.7829 12.5293 19.4789 12.5293 19.1038C12.5293 18.7288 12.8296 18.4248 13.2001 18.4248H25.2173C25.5878 18.4248 25.888 18.7288 25.888 19.1038C25.888 19.4789 25.5878 19.7829 25.2173 19.7829Z" fill="#C9C0C7"/>
<path d="M8.37862 27.906H4.95579C4.42793 27.906 4 27.4728 4 26.9384V23.4734C4 22.9391 4.42793 22.5059 4.95579 22.5059H8.37853C8.90639 22.5059 9.33432 22.9391 9.33432 23.4734V26.9384C9.33432 27.4729 8.90648 27.906 8.37862 27.906Z" fill="#FCA62F"/>
<path d="M9.33477 23.4734V26.9383C9.33477 27.4724 8.90658 27.9059 8.37898 27.9059H5.91602C6.44361 27.9059 6.8718 27.4724 6.8718 26.9383V23.4734C6.8718 22.9393 6.44361 22.5059 5.91602 22.5059H8.37898C8.90658 22.5059 9.33477 22.9393 9.33477 23.4734Z" fill="#F98824"/>
<path d="M15.3158 26.0622H13.2001C12.8295 26.0622 12.5293 25.7582 12.5293 25.3831C12.5293 25.0081 12.8296 24.7041 13.2001 24.7041H15.3158C15.6864 24.7041 15.9866 25.0081 15.9866 25.3831C15.9867 25.7581 15.6864 26.0622 15.3158 26.0622Z" fill="#C9C0C7"/>
<path d="M25.2173 28.5856H13.2001C12.8295 28.5856 12.5293 28.2816 12.5293 27.9066C12.5293 27.5316 12.8296 27.2275 13.2001 27.2275H25.2173C25.5878 27.2275 25.888 27.5316 25.888 27.9066C25.8881 28.2816 25.5878 28.5856 25.2173 28.5856Z" fill="#C9C0C7"/>
<path d="M8.37862 36.7068H4.95579C4.42793 36.7068 4 36.2736 4 35.7392V32.2742C4 31.7399 4.42793 31.3066 4.95579 31.3066H8.37853C8.90639 31.3066 9.33432 31.7399 9.33432 32.2742V35.7392C9.33432 36.2736 8.90648 36.7068 8.37862 36.7068Z" fill="#FEE265"/>
<path d="M9.33477 32.2742V35.7391C9.33477 36.2732 8.90658 36.7066 8.37898 36.7066H5.91602C6.44361 36.7066 6.8718 36.2732 6.8718 35.7391V32.2742C6.8718 31.7401 6.44361 31.3066 5.91602 31.3066H8.37898C8.90658 31.3066 9.33477 31.7401 9.33477 32.2742Z" fill="#FDD330"/>
<path d="M15.3158 34.863H13.2001C12.8295 34.863 12.5293 34.559 12.5293 34.1839C12.5293 33.8089 12.8296 33.5049 13.2001 33.5049H15.3158C15.6864 33.5049 15.9866 33.8089 15.9866 34.1839C15.9867 34.5589 15.6864 34.863 15.3158 34.863Z" fill="#C9C0C7"/>
<path d="M25.2173 37.3854H13.2001C12.8295 37.3854 12.5293 37.0814 12.5293 36.7064C12.5293 36.3314 12.8296 36.0273 13.2001 36.0273H25.2173C25.5878 36.0273 25.888 36.3314 25.888 36.7064C25.888 37.0814 25.5878 37.3854 25.2173 37.3854Z" fill="#C9C0C7"/>
<path d="M31.0104 41.707C38.5399 41.707 44.6438 35.5277 44.6438 27.9052C44.6438 20.2828 38.5399 14.1035 31.0104 14.1035C23.4808 14.1035 17.377 20.2828 17.377 27.9052C17.377 35.5277 23.4808 41.707 31.0104 41.707Z" fill="#5591D6"/>
<path d="M44.643 27.9052C44.6437 35.5276 38.5397 41.707 31.0104 41.707C30.5067 41.707 30.0095 41.679 29.5203 41.6254C36.3486 40.8738 41.6629 35.0177 41.6629 27.9052C41.6629 20.7928 36.3478 14.9367 29.5195 14.1851C30.0088 14.1315 30.5059 14.1035 31.0096 14.1035C38.5391 14.1035 44.643 20.2828 44.643 27.9052Z" fill="#1475CB"/>
<path d="M31.0099 38.4798C36.7787 38.4798 41.4553 33.7455 41.4553 27.9054C41.4553 22.0654 36.7787 17.3311 31.0099 17.3311C25.241 17.3311 20.5645 22.0654 20.5645 27.9054C20.5645 33.7455 25.241 38.4798 31.0099 38.4798Z" fill="#F8F3F1"/>
<path d="M41.4566 27.9052C41.4566 33.745 36.78 38.4793 31.0107 38.4793C30.585 38.4793 30.1647 38.4535 29.752 38.4033C34.9275 37.7741 38.9385 33.314 38.9385 27.9052C38.9385 22.4964 34.9274 18.0362 29.752 17.4071C30.1646 17.3569 30.5849 17.3311 31.0107 17.3311C36.7799 17.3311 41.4566 22.0654 41.4566 27.9052Z" fill="#E5E1E5"/>
<path d="M32.3703 32.2768L30.1738 28.5691L31.9925 27.4648L34.189 31.1725C34.3271 31.4056 34.2524 31.7079 34.0222 31.8476L33.0372 32.4456C32.807 32.5854 32.5084 32.5099 32.3703 32.2768Z" fill="#FEE265"/>
<path d="M31.0321 27.5148C30.6615 27.5148 30.3613 27.2108 30.3613 26.8358V22.6097C30.3613 22.2347 30.6616 21.9307 31.0321 21.9307C31.4025 21.9307 31.7029 22.2347 31.7029 22.6097V26.8358C31.7029 27.2108 31.4026 27.5148 31.0321 27.5148Z" fill="#5591D6"/>
<path d="M31.011 29.4273C31.8412 29.4273 32.5142 28.746 32.5142 27.9055C32.5142 27.0651 31.8412 26.3838 31.011 26.3838C30.1808 26.3838 29.5078 27.0651 29.5078 27.9055C29.5078 28.746 30.1808 29.4273 31.011 29.4273Z" fill="#FB9927"/>
<path d="M38.8234 28.5672C38.8224 28.5672 38.8214 28.5672 38.8204 28.5672H38.8104C38.4399 28.5655 38.1409 28.2602 38.1426 27.8851C38.1442 27.5111 38.4443 27.209 38.8133 27.209H38.8163L38.8263 27.2091C39.1967 27.2107 39.4957 27.5161 39.4941 27.8911C39.4924 28.2651 39.1924 28.5672 38.8234 28.5672Z" fill="#B9AFB9"/>
<path d="M23.2081 28.5671H23.1981C22.8276 28.5671 22.5273 28.2631 22.5273 27.888C22.5273 27.513 22.8277 27.209 23.1981 27.209H23.2081C23.5786 27.209 23.8789 27.513 23.8789 27.888C23.8789 28.263 23.5785 28.5671 23.2081 28.5671Z" fill="#B9AFB9"/>
<path d="M30.9872 20.668C30.6166 20.668 30.3164 20.364 30.3164 19.989V19.9788C30.3164 19.6038 30.6167 19.2998 30.9872 19.2998C31.3576 19.2998 31.6579 19.6038 31.6579 19.9788V19.989C31.658 20.364 31.3577 20.668 30.9872 20.668Z" fill="#B9AFB9"/>
<path d="M31.0321 36.4756C30.6615 36.4756 30.3613 36.1716 30.3613 35.7966V35.7865C30.3613 35.4114 30.6616 35.1074 31.0321 35.1074C31.4025 35.1074 31.7029 35.4114 31.7029 35.7865V35.7966C31.7029 36.1715 31.4026 36.4756 31.0321 36.4756Z" fill="#B9AFB9"/>
<path d="M27.0905 21.7373C26.8584 21.7373 26.6327 21.6152 26.5086 21.3969L26.5036 21.3881C26.3188 21.0631 26.4292 20.6479 26.7503 20.4608C27.0713 20.2737 27.4814 20.3854 27.6663 20.7105L27.6713 20.7193C27.8561 21.0443 27.7457 21.4595 27.4246 21.6466C27.3192 21.708 27.2041 21.7373 27.0905 21.7373Z" fill="#B9AFB9"/>
<path d="M24.2416 24.637C24.1281 24.637 24.0131 24.6078 23.9078 24.5464L23.8991 24.5413C23.5779 24.3544 23.4672 23.9393 23.6519 23.6141C23.8366 23.2889 24.2468 23.1771 24.5677 23.3639L24.5765 23.369C24.8976 23.5559 25.0083 23.971 24.8237 24.2962C24.6996 24.5147 24.4738 24.637 24.2416 24.637Z" fill="#B9AFB9"/>
<path d="M37.7864 32.5011C37.6728 32.5011 37.5577 32.4719 37.4523 32.4104L37.4436 32.4054C37.1226 32.2182 37.0122 31.803 37.197 31.478C37.382 31.153 37.7922 31.0413 38.113 31.2283L38.1217 31.2333C38.4428 31.4205 38.5532 31.8357 38.3683 32.1607C38.2442 32.3789 38.0185 32.5011 37.7864 32.5011Z" fill="#B9AFB9"/>
<path d="M34.93 21.7373C34.8169 21.7373 34.7023 21.7083 34.5972 21.6473C34.2758 21.4609 34.1645 21.046 34.3486 20.7205L34.3536 20.7117C34.5378 20.3862 34.9477 20.2737 35.2691 20.46C35.5905 20.6464 35.7018 21.0613 35.5176 21.3868L35.5127 21.3956C35.3887 21.6146 35.1626 21.7373 34.93 21.7373Z" fill="#B9AFB9"/>
<path d="M27.0844 35.4043C26.9708 35.4043 26.8557 35.3751 26.7503 35.3136C26.4292 35.1265 26.3188 34.7113 26.5036 34.3862L26.5086 34.3775C26.6937 34.0524 27.1039 33.9407 27.4246 34.1278C27.7457 34.3149 27.8561 34.7301 27.6713 35.0551L27.6663 35.0639C27.5422 35.2822 27.3165 35.4043 27.0844 35.4043Z" fill="#B9AFB9"/>
<path d="M37.7789 24.6369C37.5467 24.6369 37.3209 24.5147 37.1968 24.2963C37.0121 23.9711 37.1228 23.556 37.444 23.369L37.4527 23.3639C37.7738 23.177 38.1839 23.289 38.3686 23.6141C38.5533 23.9393 38.4426 24.3544 38.1214 24.5414L38.1127 24.5465C38.0073 24.6077 37.8922 24.6369 37.7789 24.6369Z" fill="#B9AFB9"/>
<path d="M24.234 32.5011C24.0028 32.5011 23.7778 32.38 23.6533 32.1629C23.4673 31.8386 23.5762 31.423 23.8965 31.2347L23.9052 31.2296C24.2255 31.0414 24.636 31.1515 24.8221 31.4758C25.0081 31.8001 24.8993 32.2158 24.5789 32.404L24.5702 32.4091C24.4642 32.4715 24.3482 32.5011 24.234 32.5011Z" fill="#B9AFB9"/>
<path d="M34.9362 35.4043C34.7041 35.4043 34.4784 35.2822 34.3543 35.0639L34.3493 35.0551C34.1645 34.7301 34.2749 34.3149 34.596 34.1278C34.917 33.9407 35.3272 34.0524 35.512 34.3775L35.517 34.3863C35.7018 34.7113 35.5914 35.1265 35.2703 35.3136C35.1649 35.3751 35.0498 35.4043 34.9362 35.4043Z" fill="#B9AFB9"/>
</g>
<defs>
<clipPath id="clip0_9217_2599">
<rect width="44.4512" height="45" fill="white" transform="translate(0.193359)"/>
</clipPath>
</defs>
</svg>
