<svg width="24" height="25" viewBox="0 0 24 25" fill="none" xmlns="http://www.w3.org/2000/svg">
<g id="lightbulb-on (1) 1" clip-path="url(#clip0_18618_3407)">
<path id="Vector" d="M11.8642 4.50272C7.68022 4.57172 4.15522 8.02872 4.00622 12.2077C3.91822 14.6357 4.92022 16.9407 6.75622 18.5337C7.54722 19.2207 8.00022 20.2767 8.00022 21.5017C8.00022 23.1557 9.34622 24.5017 11.0002 24.5017H13.0002C14.6542 24.5017 16.0002 23.1557 16.0002 21.5017V21.1267C16.0002 20.1607 16.4552 19.2287 17.2822 18.5007C19.0102 16.9827 20.0002 14.7967 20.0002 12.5017C20.0002 10.3407 19.1512 8.31472 17.6102 6.79872C16.0692 5.28272 14.0272 4.45372 11.8642 4.50272ZM14.0002 21.5017C14.0002 22.0537 13.5522 22.5017 13.0002 22.5017H11.0002C10.4482 22.5017 10.0002 22.0537 10.0002 21.4327C10.0002 21.1167 9.96922 20.8067 9.92322 20.5017H14.0412C14.0162 20.7077 14.0002 20.9167 14.0002 21.1267V21.5017ZM15.9622 16.9987C15.4512 17.4477 15.0392 17.9557 14.7222 18.5017H13.0002V14.3177C14.1612 13.9037 15.0002 12.8037 15.0002 11.5017C15.0002 10.9487 14.5532 10.5017 14.0002 10.5017C13.4472 10.5017 13.0002 10.9487 13.0002 11.5017C13.0002 12.0547 12.5522 12.5017 12.0002 12.5017C11.4482 12.5017 11.0002 12.0537 11.0002 11.5017C11.0002 10.9497 10.5532 10.5017 10.0002 10.5017C9.44722 10.5017 9.00022 10.9487 9.00022 11.5017C9.00022 12.8037 9.83922 13.9037 11.0002 14.3177V18.5017H9.25422C8.94422 17.9437 8.54722 17.4417 8.06622 17.0237C6.69022 15.8287 5.93822 14.0997 6.00422 12.2797C6.11622 9.14572 8.76022 6.55372 11.8982 6.50272C11.9322 6.50272 11.9652 6.50272 12.0002 6.50272C13.5862 6.50272 15.0772 7.11172 16.2082 8.22572C17.3642 9.36272 18.0012 10.8817 18.0012 12.5027C18.0012 14.2227 17.2582 15.8607 15.9632 16.9997L15.9622 16.9987ZM16.7852 2.97572L18.0202 0.965717C18.3082 0.493717 18.9242 0.346717 19.3952 0.637717C19.8662 0.926717 20.0132 1.54172 19.7232 2.01272L18.4882 4.02272C18.3002 4.33072 17.9712 4.49972 17.6352 4.49972C17.4562 4.49972 17.2762 4.45172 17.1132 4.35172C16.6422 4.06272 16.4952 3.44672 16.7852 2.97572ZM23.4132 7.12372L21.4802 7.99572C21.3472 8.05672 21.2072 8.08472 21.0702 8.08472C20.6882 8.08472 20.3252 7.86572 20.1582 7.49572C19.9302 6.99272 20.1542 6.39972 20.6582 6.17372L22.5912 5.30172C23.0972 5.07272 23.6872 5.29872 23.9132 5.80172C24.1412 6.30472 23.9172 6.89772 23.4132 7.12372ZM4.19422 2.01172C3.90522 1.54072 4.05322 0.924717 4.52422 0.636717C4.99722 0.348717 5.61122 0.496717 5.89922 0.966717L7.13122 2.97772C7.42022 3.44872 7.27222 4.06472 6.80122 4.35272C6.63822 4.45272 6.45722 4.49972 6.28022 4.49972C5.94322 4.49972 5.61522 4.32972 5.42622 4.02172L4.19422 2.01072V2.01172ZM3.71122 7.56272C3.54022 7.92172 3.18222 8.13072 2.80922 8.13072C2.66422 8.13072 2.51722 8.09972 2.37822 8.03172L0.580217 7.17072C0.082217 6.93272 -0.128783 6.33572 0.110217 5.83772C0.347217 5.33872 0.947217 5.12572 1.44322 5.36772L3.24122 6.22872C3.73922 6.46672 3.95022 7.06472 3.71122 7.56272Z" fill="#E50914"/>
</g>
<defs>
<clipPath id="clip0_18618_3407">
<rect width="24" height="24" fill="white" transform="translate(0 0.5)"/>
</clipPath>
</defs>
</svg>
